<?xml version="1.0" encoding="UTF-8"?>
<svg width="69.3170732px" height="71.9163763px" viewBox="0 0 69.3170732 71.9163763" version="1.1" xmlns="http://www.w3.org/2000/svg" xmlns:xlink="http://www.w3.org/1999/xlink">
    <!-- Generator: Sketch 52.6 (67491) - http://www.bohemiancoding.com/sketch -->
    <desc>Created with Sketch.</desc>
    <defs>
        <filter x="-91.4%" y="-91.4%" width="283.2%" height="283.2%" filterUnits="objectBoundingBox" id="filter-1">
            <feOffset dx="0" dy="4" in="SourceAlpha" result="shadowOffsetOuter1"></feOffset>
            <feGaussianBlur stdDeviation="4.5" in="shadowOffsetOuter1" result="shadowBlurOuter1"></feGaussianBlur>
            <feColorMatrix values="0 0 0 0 0   0 0 0 0 0   0 0 0 0 0  0 0 0 0.115404212 0" type="matrix" in="shadowBlurOuter1" result="shadowMatrixOuter1"></feColorMatrix>
            <feMerge>
                <feMergeNode in="shadowMatrixOuter1"></feMergeNode>
                <feMergeNode in="SourceGraphic"></feMergeNode>
            </feMerge>
        </filter>
        <linearGradient x1="14.6431031%" y1="85.3511591%" x2="85.3511591%" y2="14.6431031%" id="linearGradient-2">
            <stop stop-color="#8DC63F" offset="0%"></stop>
            <stop stop-color="#84C343" offset="13%"></stop>
            <stop stop-color="#6CBB4C" offset="35%"></stop>
            <stop stop-color="#44AD5C" offset="62%"></stop>
            <stop stop-color="#0E9B72" offset="93%"></stop>
            <stop stop-color="#009677" offset="100%"></stop>
        </linearGradient>
    </defs>
    <g id="Page-1" stroke="none" stroke-width="1" fill="none" fill-rule="evenodd">
        <g id="icon/institution/old-mutual">
            <g id="icon---old-mutual" filter="url(#filter-1)" transform="translate(20.700000, 22.500000)">
                <circle id="Oval" fill="url(#linearGradient-2)" fill-rule="nonzero" cx="13.9419977" cy="13.9419977" r="13.9419977"></circle>
                <g id="Logo" transform="translate(5.157983, 4.689076)" fill="#FFFFFF" fill-rule="nonzero">
                    <path d="M9.79651729,1.67995152 C10.4912159,2.00263032 11.12082,2.45002343 11.6540637,2.99991343 C12.1730222,3.50446185 12.6054496,4.09094149 12.9340267,4.73586333 C12.7212329,5.61583794 11.2652749,6.87980146 9.62532223,7.98536955 C9.62532223,8.20616318 9.62532223,8.41095727 9.62532223,8.58055238 C9.62532223,8.79014633 9.62532223,8.98694065 9.62532223,9.1965346 C11.572466,8.19816341 13.6844051,7.41258608 14.6443774,7.6893781 C15.0378971,8.29838104 15.328191,8.96816514 15.5035526,9.67172089 C15.7132811,10.4084681 15.7859506,11.1774627 15.7179464,11.9404554 C16.0527588,12.3920579 16.4636913,12.7818753 16.9323114,13.0924222 C17.1826317,11.8007867 17.3090683,10.4882031 17.3099005,9.17253529 C17.3146581,7.59481506 17.1374934,6.02180698 16.7819157,4.48467058 C15.629032,3.40845212 14.3561678,2.46843304 12.9884252,1.68315143 C11.8485213,1.02730072 10.6490676,0.48087695 9.40612855,0.0511985225 C9.44054928,0.612687683 9.57265925,1.16386776 9.79651729,1.67995152 M4.33587487,1.67995152 C2.96745296,2.46431972 1.69401648,3.40382808 0.540784394,4.47987072 C-0.108301937,7.3073317 -0.159528101,10.2392122 0.390388734,13.0876223 C0.85935739,12.7775137 1.27036059,12.3876292 1.60475369,11.9356556 C1.53754624,11.1726651 1.61020201,10.4038152 1.8191475,9.66692103 C1.99522752,8.96360885 2.28547188,8.2939389 2.67832271,7.68457823 C3.638295,7.40778622 5.75183401,8.19336355 7.69737786,9.19173474 C7.69737786,8.98214079 7.69737786,8.78534647 7.69737786,8.57575252 C7.69737786,8.40615741 7.69737786,8.20136332 7.69737786,7.98056969 C6.05742519,6.87980146 4.60146721,5.61583794 4.38227353,4.73586333 C4.71139342,4.09127688 5.14375889,3.50488121 5.6622366,2.99991343 C6.19793,2.4493068 6.83029026,2.00188209 7.52778276,1.67995152 C7.75044117,1.16355181 7.88198129,0.612490729 7.91657154,0.0511985225 C6.67402461,0.480577133 5.47507406,1.02701572 4.33587487,1.68315143 M7.19979222,3.75669159 C7.20016465,4.27172053 7.47114366,4.7486679 7.91337163,5.01265534 C7.09419527,5.07505354 7.49578368,6.11342358 8.0877666,6.1022239 C8.1501648,6.6462082 8.18216387,7.89577214 8.18216387,8.58375229 C8.18216387,11.1324787 7.83177399,14.2507887 6.95499929,15.0939644 C6.23110023,15.1315275 5.50599986,15.0482572 4.80946121,14.8475715 C4.06374752,14.6625922 3.35860881,14.3414828 2.72952123,13.9003989 C2.17235558,13.9661681 1.63092729,14.1285966 1.1295674,14.380385 C2.12185425,15.2419945 3.19324014,16.0080354 4.32947506,16.668319 C5.69534098,17.455141 7.14412597,18.0883137 8.64935039,18.5562645 C10.1534965,18.0854245 11.6019719,17.4523871 12.9692257,16.668319 C14.105715,16.0084293 15.1771369,15.2423626 16.1691334,14.380385 C15.6677735,14.1285966 15.1263452,13.9661681 14.5691796,13.9003989 C13.9398649,14.3414428 13.2348356,14.6630446 12.4892396,14.8491715 C11.7923893,15.0482948 11.0675499,15.1315351 10.3437015,15.0955644 C9.4669268,14.2507887 9.11653691,11.1324787 9.11653691,8.58375229 C9.11653691,7.89577214 9.14853599,6.64780815 9.21093419,6.1022239 C9.8029171,6.11342358 10.2045055,5.07505354 9.38532915,5.01265534 C10.0028392,4.65973313 10.2764027,3.91335189 10.0332211,3.24496915 C9.79003954,2.5765864 9.10080713,2.18050481 8.40088291,2.30691241 C7.7009587,2.43332 7.19381464,3.04546936 7.19979222,3.75669159 M7.98536955,3.75669159 C7.98536955,3.38379969 8.28765817,3.08151107 8.66055007,3.08151107 C9.03344197,3.08151107 9.33573058,3.38379969 9.33573058,3.75669159 C9.33573058,4.12958349 9.03344197,4.4318721 8.66055007,4.4318721 C8.48135076,4.43229826 8.30936823,4.36130023 8.18265483,4.23458683 C8.05594142,4.10787342 7.98494339,3.9358909 7.98536955,3.75669159 M9.67332084,10.326102 C10.188506,10.6460928 10.74209,10.9932828 11.0300817,11.2076766 C10.7244905,11.713262 11.4220704,12.5804369 11.886057,11.9020565 C11.8926068,12.5593363 12.3373561,13.1312904 12.9727616,13.2995744 C13.6081671,13.4678584 14.2777148,13.1910204 14.6087406,12.6231459 C14.9397665,12.0552713 14.8507318,11.3362399 14.3911924,10.8662577 C13.9316531,10.3962756 13.2148034,10.2911095 12.6396352,10.6092938 C12.9964249,9.86851521 11.8956567,9.69732015 11.6108649,10.2157052 C11.1628779,10.0221108 10.2493042,9.54692449 9.633322,9.19813456 C9.633322,9.58212347 9.6573213,9.9485129 9.68132061,10.326102 M13.0172243,12.4684402 C12.7224683,12.2995102 12.5986306,11.938236 12.7277681,11.6240037 C12.8569056,11.3097714 13.1989932,11.1399747 13.5273581,11.2271237 C13.855723,11.3142726 14.0685912,11.6313562 14.0249128,11.9682696 C13.9812343,12.305183 13.6945471,12.5575027 13.3548146,12.5580376 C13.2363931,12.5581495 13.1200053,12.5272598 13.0172243,12.4684402 M5.72143489,10.2157052 C5.43504315,9.69732015 4.33427492,9.86851521 4.69106462,10.6092938 C4.11686188,10.2888356 3.39931718,10.3915423 2.93806716,10.8602113 C2.47681714,11.3288804 2.38557216,12.0479725 2.71515111,12.6169891 C3.04473007,13.1860058 3.71388302,13.4646693 4.34992513,13.2977781 C4.98596723,13.1308868 5.43209726,12.5595839 5.43984301,11.9020565 C5.90382962,12.5804369 6.60300945,11.713262 6.29581831,11.2076766 C6.58381,10.9932828 7.13739403,10.6412929 7.65257916,10.326102 C7.67657847,9.9485129 7.692578,9.58212347 7.70057777,9.19813456 C7.08459555,9.54692449 6.17102191,10.0221108 5.7246348,10.2157052 M3.39190211,12.2204473 C3.20769563,11.8974391 3.31932877,11.4862895 3.64160051,11.3007976 C3.96387224,11.1153056 4.37546334,11.2252998 4.5622378,11.54683 C4.74901225,11.8683601 4.64065879,12.2803862 4.31987533,12.4684402 C4.21698171,12.5269848 4.10066808,12.5578548 3.98228508,12.5580376 C3.74124221,12.5581035 3.51853709,12.4293616 3.39830193,12.2204473" id="Shape"></path>
                </g>
            </g>
        </g>
    </g>
</svg>