<?xml version="1.0" encoding="UTF-8"?>
<svg width="62px" height="105px" viewBox="0 0 62 105" version="1.1" xmlns="http://www.w3.org/2000/svg" xmlns:xlink="http://www.w3.org/1999/xlink">
    <!-- Generator: Sketch 52.6 (67491) - http://www.bohemiancoding.com/sketch -->
    <desc>Created with Sketch.</desc>
    <defs>
        <linearGradient x1="-20.0626299%" y1="-196.167906%" x2="101.999998%" y2="100.999999%" id="linearGradient-1">
            <stop stop-color="#FFC819" offset="0%"></stop>
            <stop stop-color="#FFF9F7" offset="100%"></stop>
        </linearGradient>
        <linearGradient x1="50%" y1="91.3885582%" x2="21.6957838%" y2="14.982453%" id="linearGradient-2">
            <stop stop-color="#13C6B9" offset="0%"></stop>
            <stop stop-color="#26B1C9" offset="100%"></stop>
        </linearGradient>
        <path d="M21.4004035,54.5213356 C40.5320535,54.5213356 42.7126663,48.3226633 42.7126663,34.8285994 C42.7126663,23.3835661 29.9919911,12.3143674 24.2438326,9.21661582 C23.6906178,8.91848174 34.2810311,4.70131046 30.7273849,1.88855414 C30.1058512,1.39660228 29.2386907,1.39660228 28.8765011,1.73266468 C27.9626451,2.5805979 26.4559064,2.9967499 25.2206008,2.77436329 C23.9852952,2.55197667 22.8342602,0.388562107 21.4004035,0.388562107 C19.8122662,0.388562107 19.0920877,2.18624096 17.6079745,2.46643941 C16.8650601,2.60670058 14.6209311,1.3222919 13.1218163,1.17742956 C11.6261632,1.03290174 10.8745917,2.027572 10.9338401,2.46643941 C11.0805355,3.5530469 12.2380591,6.99230131 15.4150986,8.362926 C17.3252921,9.18701344 17.9552798,9.21661582 17.943533,9.21661582 C17.0968904,9.21661582 17.8279454,8.95975946 15.4150986,10.8277699 C9.8280621,15.1532175 0.0881406105,25.0324867 0.0881406105,34.8285994 C0.0881406105,48.3226633 2.26875349,54.5213356 21.4004035,54.5213356 Z" id="path-3"></path>
    </defs>
    <g id="Page-1" stroke="none" stroke-width="1" fill="none" fill-rule="evenodd">
        <g id="illustration/goals">
            <g transform="translate(0.684000, 0.513000)">
                <path d="M47.869056,38.4958268 L47.869056,78.784488 L11.967264,78.784488 L11.967264,38.4958268 L2.99189333,38.4958268 C2.29346922,38.4958268 1.61705369,38.2514778 1.07987017,37.8051258 C-0.191000569,36.7491446 -0.365202937,34.8628583 0.690778295,33.5919876 L27.7054735,1.07987017 C27.8229431,0.938495874 27.9531911,0.80824784 28.0945654,0.690778295 C29.3654362,-0.365202937 31.2517224,-0.191000569 32.3077036,1.07987017 L59.3223988,33.5919876 C59.7687509,34.1291711 60.0130998,34.8055866 60.0130998,35.5040108 C60.0130998,37.1563451 58.6736182,38.4958268 57.0212838,38.4958268 L47.869056,38.4958268 Z" id="Rectangle-5" fill="url(#linearGradient-1)" fill-rule="nonzero"></path>
                <g id="Group-10" transform="translate(17.313750, 17.313750)" fill="#96D187" fill-rule="nonzero">
                    <path d="M12.105774,10.609866 C13.767894,9.12155306 14.598954,7.45943306 14.598954,5.623506 C14.598954,3.78757894 13.767894,2.12545894 12.105774,0.637146 C10.443654,2.12545894 9.612594,3.78757894 9.612594,5.623506 C9.612594,7.45943306 10.443654,9.12155306 12.105774,10.609866 Z" id="Oval-4"></path>
                    <path d="M7.11585829,22.777066 C9.11040229,20.9910905 10.1076743,18.9965465 10.1076743,16.793434 C10.1076743,14.5903215 9.11040229,12.5957775 7.11585829,10.809802 C5.12131429,12.5957775 4.12404229,14.5903215 4.12404229,16.793434 C4.12404229,18.9965465 5.12131429,20.9910905 7.11585829,22.777066 Z" id="Oval-4-Copy" transform="translate(7.115858, 16.793434) rotate(-49.000000) translate(-7.115858, -16.793434) "></path>
                    <path d="M11.9507398,34.7525602 L11.9507398,8.50383177" id="Path-3" stroke="#96D187" stroke-width="0.997272"></path>
                    <path d="M16.1218522,27.6615559 C18.46001,25.7975761 19.6290889,23.7159182 19.6290889,21.4165825 C19.6290889,19.1172468 18.46001,17.035589 16.1218522,15.1716091 C13.7836944,17.035589 12.6146154,19.1172468 12.6146154,21.4165825 C12.6146154,23.7159182 13.7836944,25.7975761 16.1218522,27.6615559 Z" id="Oval-4-Copy-2" transform="translate(16.121852, 21.416583) scale(-1, 1) rotate(-49.000000) translate(-16.121852, -21.416583) "></path>
                </g>
                <g id="Rectangle-4" transform="translate(7.978176, 49.478850)">
                    <mask id="mask-4" fill="white">
                        <use xlink:href="#path-3"></use>
                    </mask>
                    <use id="Mask" fill="url(#linearGradient-2)" fill-rule="nonzero" xlink:href="#path-3"></use>
                </g>
                <text id="R" font-family="Helvetica" font-size="15.956352" font-weight="normal" fill="#FFD86F">
                    <tspan x="23.934528" y="87.800856">R</tspan>
                </text>
                <rect id="Rectangle" fill="#FFD86F" fill-rule="nonzero" x="20.942712" y="57.841776" width="15.956352" height="2.991816" rx="1.495908"></rect>
            </g>
        </g>
    </g>
</svg>