<?xml version="1.0" encoding="UTF-8"?>
<svg width="111.63017px" height="114.20155px" viewBox="0 0 111.63017 114.20155" version="1.1" xmlns="http://www.w3.org/2000/svg" xmlns:xlink="http://www.w3.org/1999/xlink">
    <!-- Generator: Sketch 52.6 (67491) - http://www.bohemiancoding.com/sketch -->
    <desc>Created with Sketch.</desc>
    <defs>
        <filter x="-168.5%" y="-165.5%" width="439.3%" height="431.6%" filterUnits="objectBoundingBox" id="filter-1">
            <feOffset dx="0" dy="9" in="SourceAlpha" result="shadowOffsetOuter1"></feOffset>
            <feGaussianBlur stdDeviation="13" in="shadowOffsetOuter1" result="shadowBlurOuter1"></feGaussianBlur>
            <feColorMatrix values="0 0 0 0 0   0 0 0 0 0   0 0 0 0 0  0 0 0 0.115404212 0" type="matrix" in="shadowBlurOuter1" result="shadowMatrixOuter1"></feColorMatrix>
            <feMerge>
                <feMergeNode in="shadowMatrixOuter1"></feMergeNode>
                <feMergeNode in="SourceGraphic"></feMergeNode>
            </feMerge>
        </filter>
        <linearGradient x1="-38.5860095%" y1="-21.511115%" x2="91.7174755%" y2="91.7507424%" id="linearGradient-2">
            <stop stop-color="#F6D365" offset="0%"></stop>
            <stop stop-color="#FDE885" offset="100%"></stop>
        </linearGradient>
        <path d="M20.0330935,40.7816547 C8.96934619,40.7816547 0,31.652375 0,20.3908273 C0,9.12927973 8.96934619,0 20.0330935,0 C31.0970701,0 40.0661871,9.12927973 40.0661871,20.3908273 C40.0661871,31.652375 31.0970701,40.7816547 20.0330935,40.7816547 Z" id="path-3"></path>
    </defs>
    <g id="Page-1" stroke="none" stroke-width="1" fill="none" fill-rule="evenodd">
        <g id="icon/goals/car">
            <g filter="url(#filter-1)" transform="translate(35.352518, 37.183273)">
                <g id="Fill-1" fill-rule="nonzero">
                    <use fill="url(#linearGradient-2)" xlink:href="#path-3"></use>
                    <use fill="#FFFFFF" xlink:href="#path-3"></use>
                </g>
                <g id="car" transform="translate(6.322844, 12.346137)" fill-rule="nonzero">
                    <path d="M29.004887,8.2095244 C28.5629331,7.15419237 27.5912797,6.36417094 26.3912297,6.22429184 L21.8400721,5.69498405 L19.4122289,1.67854926 C18.7915579,0.65145574 17.691512,0.0256116672 16.5069465,0.0256116672 L8.66790987,0.0256116672 C6.62524404,0.0256116672 4.83355642,1.41455208 4.29159833,3.41948592 L4.23030545,3.64605067 C4.05868539,4.2824021 3.72899422,4.84914232 3.28704031,5.30161511 C2.84508639,5.7547446 2.28957936,6.09294995 1.66632756,6.27223162 C0.992751079,6.46530419 0.526925201,7.09114826 0.526925201,7.80302127 L0.526925201,12.2609618 L3.00509307,11.6710397 C3.05735331,11.5475784 3.11671062,11.4274005 3.18251982,11.3105063 C3.8012553,10.2197119 4.95291623,9.5419878 6.18909682,9.5419878 C7.42527741,9.5419878 8.57629315,10.2197119 9.19438344,11.3105063 C9.26019264,11.4274005 9.32019514,11.5475784 9.3718102,11.6710397 L19.8935393,11.6710397 C19.9445092,11.5488918 20.0032213,11.4300274 20.0683853,11.3144465 C20.6864756,10.2210253 21.8394269,9.5419878 23.0775431,9.5419878 C24.3137237,9.5419878 25.4647394,10.2197119 26.0828297,11.3105063 C26.1486389,11.4274005 26.2086414,11.5475784 26.2602564,11.6710397 L29.0229523,11.6710397 L29.0403724,11.6730099 L29.2416711,9.87362606 C29.2500586,9.8000746 29.2558652,9.72717986 29.2590912,9.65428511 C29.2829632,9.1446786 29.1907012,8.65345996 29.004887,8.2095244 Z" id="Shape" fill="#008DB3"></path>
                    <path d="M29.8205985,12.4638193 C29.8205985,12.9007938 29.472584,13.2550228 29.0432757,13.2550228 L26.5402681,13.2550228 C26.5434941,13.1946056 26.5454296,13.1335316 26.5454296,13.0724576 C26.5454296,12.5884628 26.4480062,12.1103783 26.2602564,11.6710397 L29.0437274,11.6726158 C29.472842,11.6728128 29.8205985,12.0269762 29.8205985,12.4638193 Z" id="Shape" fill="#CCCCCC"></path>
                    <path d="M25.8357226,13.0724576 C25.8357226,13.1335316 25.8337871,13.1946056 25.8299159,13.2550228 C25.737654,14.7201415 24.5408299,15.8798904 23.0775431,15.8798904 C21.6136111,15.8798904 20.4167869,14.7201415 20.324525,13.2550228 C20.3206539,13.1946056 20.3187183,13.1335316 20.3187183,13.0724576 C20.3187183,12.5635078 20.4516271,12.0860801 20.6838949,11.6743233 C21.1600437,10.8317651 22.0536294,10.2643682 23.0775431,10.2643682 C24.0995212,10.2643682 24.9918165,10.8304517 25.4679653,11.6710397 C25.7021687,12.0834532 25.8357226,12.5621944 25.8357226,13.0724576 Z M24.208558,13.0724576 C24.208558,12.4374196 23.7014401,11.9205893 23.0775431,11.9205893 C22.4530009,11.9205893 21.945883,12.4374196 21.945883,13.0724576 C21.945883,13.7074956 22.4530009,14.2243259 23.0775431,14.2243259 C23.7014401,14.2243259 24.208558,13.7074956 24.208558,13.0724576 Z" id="Shape" fill="#666666"></path>
                    <path d="M23.0775431,11.9205893 C23.7014401,11.9205893 24.208558,12.4374196 24.208558,13.0724576 C24.208558,13.7074956 23.7014401,14.2243259 23.0775431,14.2243259 C22.4530009,14.2243259 21.945883,13.7074956 21.945883,13.0724576 C21.945883,12.4374196 22.4530009,11.9205893 23.0775431,11.9205893 Z" id="Shape" fill="#E6E6E6"></path>
                    <path d="M19.6090113,13.0724576 C19.6090113,13.1335316 19.6109469,13.1952623 19.6141728,13.2550228 L9.65182187,13.2550228 C9.65504782,13.1939489 9.65698338,13.1328749 9.65698338,13.0724576 C9.65698338,12.5884628 9.55955996,12.1103783 9.3718102,11.6710397 L19.8935393,11.6710397 C19.7064347,12.1116917 19.6090113,12.5891195 19.6090113,13.0724576 Z" id="Shape" fill="#CCCCCC"></path>
                    <path d="M7.48205397,1.86439803 L7.48205397,5.69498405 L5.32260907,5.69498405 C5.32260907,5.69498405 5.57423247,4.65541304 5.73359395,4.06700141 L5.79488683,3.84043666 C5.82714624,3.72025884 5.86650272,3.60402127 5.91231108,3.49106725 C6.21038803,2.75423929 6.7807344,2.17502158 7.48205397,1.86439803 Z" id="Shape" fill="#76CDCE"></path>
                    <path d="M12.905506,1.61222161 L12.905506,5.69498405 L8.44983626,5.69498405 L8.44983626,1.62075884 C8.52209734,1.61484845 8.59500361,1.61222161 8.66790987,1.61222161 L12.905506,1.61222161 Z" id="Shape" fill="#76CDCE"></path>
                    <path d="M20.0096732,5.69498405 L13.8732882,5.69498405 L13.8732882,1.61222161 L16.5069465,1.61222161 C17.1450376,1.61222161 17.7502241,1.95633735 18.0844316,2.50994338 L20.0096732,5.69498405 Z" id="Shape" fill="#76CDCE"></path>
                    <path d="M8.94146967,13.2550228 C8.84920776,14.7201415 7.65238365,15.8798904 6.18909682,15.8798904 C4.7251648,15.8798904 3.52834069,14.7201415 3.43607878,13.2550228 C3.43220765,13.1946056 3.43027209,13.1335316 3.43027209,13.0724576 C3.43027209,12.5621944 3.56382605,12.0834532 3.79738417,11.6710397 C4.27417825,10.8304517 5.16647353,10.2643682 6.18909682,10.2643682 C7.21107492,10.2643682 8.1033702,10.8304517 8.57951909,11.6710397 C8.81372241,12.0834532 8.94727636,12.5621944 8.94727636,13.0724576 C8.94727636,13.1335316 8.9453408,13.1946056 8.94146967,13.2550228 Z M7.32075692,13.0724576 C7.32075692,12.4374196 6.81299381,11.9205893 6.18909682,11.9205893 C5.56455464,11.9205893 5.05743672,12.4374196 5.05743672,13.0724576 C5.05743672,13.7074956 5.56455464,14.2243259 6.18909682,14.2243259 C6.81299381,14.2243259 7.32075692,13.7074956 7.32075692,13.0724576 Z" id="Shape" fill="#666666"></path>
                    <path d="M6.18909682,11.9205893 C6.81299381,11.9205893 7.32075692,12.4374196 7.32075692,13.0724576 C7.32075692,13.7074956 6.81299381,14.2243259 6.18909682,14.2243259 C5.56455464,14.2243259 5.05743672,13.7074956 5.05743672,13.0724576 C5.05743672,12.4374196 5.56455464,11.9205893 6.18909682,11.9205893 Z" id="Shape" fill="#E6E6E6"></path>
                    <path d="M2.72056507,13.0724576 C2.72056507,13.1335316 2.72250064,13.1946056 2.72572658,13.2550228 L0.778096966,13.2550228 C0.348337108,13.2550228 0,12.9004654 0,12.4630313 C0,12.0255971 0.348337108,11.6710397 0.778096966,11.6710397 L3.00509307,11.6710397 C2.81798849,12.111035 2.72056507,12.5884628 2.72056507,13.0724576 Z" id="Shape" fill="#CCCCCC"></path>
                    <path d="M16.5320443,7.8562804 L15.5152277,7.8562804 C15.3014768,7.8562804 15.1281148,7.67988825 15.1281148,7.46225475 C15.1281148,7.24462125 15.3014768,7.06822911 15.5152277,7.06822911 L16.5320443,7.06822911 C16.7457951,7.06822911 16.9191572,7.24462125 16.9191572,7.46225475 C16.9191572,7.67988825 16.7458597,7.8562804 16.5320443,7.8562804 Z" id="Shape" fill="#CCCCCC"></path>
                    <path d="M9.54988214,7.8562804 L8.53306554,7.8562804 C8.31931469,7.8562804 8.14595262,7.67988825 8.14595262,7.46225475 C8.14595262,7.24462125 8.31931469,7.06822911 8.53306554,7.06822911 L9.54988214,7.06822911 C9.76363299,7.06822911 9.93699506,7.24462125 9.93699506,7.46225475 C9.93699506,7.67988825 9.76363299,7.8562804 9.54988214,7.8562804 Z" id="Shape" fill="#CCCCCC"></path>
                    <path d="M29.2590912,9.65428511 L28.4816394,9.65428511 C27.6977358,9.65428511 27.0622254,9.00742634 27.0622254,8.2095244 L29.004887,8.2095244 C29.2184443,8.68465366 29.3152226,9.15255912 29.2590912,9.65428511 Z" id="Shape" fill="#FFFFFF"></path>
                    <polygon id="Shape" fill="#96E0DE" points="12.905506 1.62075884 12.905506 5.69498405 12.4519387 5.69498405 8.44983626 1.62075884"></polygon>
                    <path d="M20.0096732,5.69498405 L17.8844233,5.69498405 L13.8732882,1.61222161 L16.5069465,1.61222161 C17.1450376,1.61222161 17.7502241,1.95633735 18.0844316,2.50994338 L20.0096732,5.69498405 Z" id="Shape" fill="#96E0DE"></path>
                    <path d="M7.48205397,1.86439803 L7.48205397,5.08884126 L5.91231108,3.49106725 C6.21038803,2.75423929 6.7807344,2.17502158 7.48205397,1.86439803 Z" id="Shape" fill="#96E0DE"></path>
                </g>
            </g>
        </g>
    </g>
</svg>