<?xml version="1.0" encoding="UTF-8"?>
<svg width="149px" height="149px" viewBox="0 0 149 149" version="1.1" xmlns="http://www.w3.org/2000/svg" xmlns:xlink="http://www.w3.org/1999/xlink">
    <!-- Generator: Sketch 52.6 (67491) - http://www.bohemiancoding.com/sketch -->
    <desc>Created with Sketch.</desc>
    <defs>
        <ellipse id="path-1" cx="42.8785714" cy="42.3975904" rx="42.8785714" ry="42.3975904"></ellipse>
        <filter x="-65.9%" y="-50.1%" width="231.8%" height="233.3%" filterUnits="objectBoundingBox" id="filter-2">
            <feOffset dx="0" dy="14" in="SourceAlpha" result="shadowOffsetOuter1"></feOffset>
            <feGaussianBlur stdDeviation="16.5" in="shadowOffsetOuter1" result="shadowBlurOuter1"></feGaussianBlur>
            <feColorMatrix values="0 0 0 0 0   0 0 0 0 0   0 0 0 0 0  0 0 0 0.07 0" type="matrix" in="shadowBlurOuter1"></feColorMatrix>
        </filter>
    </defs>
    <g id="Page-1" stroke="none" stroke-width="1" fill="none" fill-rule="evenodd">
        <g id="icon/read-only" transform="translate(31.000000, 18.000000)">
            <g transform="translate(0.310714, 0.000000)">
                <g id="Oval-Copy-9" fill-rule="nonzero">
                    <use fill="black" fill-opacity="1" filter="url(#filter-2)" xlink:href="#path-1"></use>
                    <use fill="#FFFFFF" xlink:href="#path-1"></use>
                </g>
                <g id="no-touch" transform="translate(22.371429, 22.120482)" fill="#13C6B9">
                    <path d="M20.0410714,0 C8.99006453,0 0,8.88922043 0,19.8162651 C0,30.7433097 8.99006453,39.6325301 20.0410714,39.6325301 C31.0920783,39.6325301 40.0821429,30.7433097 40.0821429,19.8162651 C40.0821429,8.88922043 31.0920783,0 20.0410714,0 Z M20.0410714,37.9812005 C9.91195382,37.9812005 1.67006319,29.8317615 1.67006319,19.8162651 C1.67006319,15.104948 3.50883149,10.8213063 6.49330714,7.58962952 L15.0291596,16.0297329 L15.0291596,21.4643436 L13.6379491,20.2010567 C12.063081,18.6421514 9.31244395,18.6405258 7.73420958,20.2010567 C7.4202067,20.5115373 7.40689817,21.010195 7.70414797,21.3371634 L14.439592,28.740164 C16.2148708,30.495529 18.5446453,31.3723987 20.8761422,31.3723987 C23.2075607,31.3723987 25.5373353,30.4939034 27.3109701,28.740164 C27.4061652,28.6444111 27.4813192,28.5304676 27.56986,28.4296833 L32.4064125,33.2119828 C29.1380739,36.1630582 24.8058362,37.9812005 20.0410714,37.9812005 Z M15.2979918,23.9512848 C15.5418509,24.1725923 15.8942136,24.2320411 16.19984,24.0999068 C16.5038223,23.9677726 16.6992228,23.6705286 16.6992228,23.3435602 L16.6992228,17.6810625 L26.4024676,27.2754633 C26.3156491,27.3778731 26.2254642,27.47858 26.1302692,27.5727073 C23.2309681,30.4361576 18.516306,30.4377831 15.6504328,27.6040572 L9.55959107,20.9061596 C10.4898569,20.4438059 11.6905989,20.6072901 12.4805772,21.3916581 L15.2979918,23.9512848 Z M33.5871917,32.0445262 L28.1076027,26.6264032 C28.1059587,26.6247777 28.1059587,26.6230747 28.1042364,26.6214491 L16.4553636,15.1032451 C16.4537196,15.1016195 16.4537196,15.1016195 16.4519974,15.1016195 L7.67408636,6.42209543 C10.942425,3.46947194 15.2763067,1.65132962 20.0410714,1.65132962 C30.170189,1.65132962 38.4120797,9.80076863 38.4120797,19.8162651 C38.4120797,24.5275821 36.5733114,28.8128494 33.5871917,32.0445262 Z" id="Shape" fill-rule="nonzero"></path>
                    <path d="M27.5564732,11.5578366 C27.2257955,11.5578366 26.9135149,11.625568 26.6245634,11.7395115 C26.3356119,10.6875465 25.3703524,9.90813253 24.2162685,9.90813253 C23.8872349,9.90813253 23.5733103,9.9758639 23.2843587,10.0898074 C22.9954072,9.03791983 22.0301478,8.25680291 20.8760639,8.25680291 C19.72198,8.25680291 18.7567206,9.03791983 18.467769,10.0898074 C18.1788958,9.9758639 17.8649712,9.90813253 17.5359375,9.90813253 C16.7793871,9.90813253 16.067929,10.2614968 15.580289,10.8791295 C15.29807,11.2391508 15.3614813,11.7576248 15.7255868,12.038381 C16.0879701,12.3174343 16.6140482,12.2547344 16.8979895,11.8947131 C16.9965509,11.7692359 17.2102701,11.5594621 17.5359375,11.5594621 C17.9968821,11.5594621 18.3710082,11.9293916 18.3710082,12.3851657 L18.3710082,14.32058 L18.3710082,14.8621988 C18.3710082,15.3179729 18.7451343,15.6879023 19.206079,15.6879023 C19.6670236,15.6879023 20.0410714,15.3179729 20.0410714,14.8621988 L20.0410714,14.32058 L20.0410714,12.3851657 L20.0410714,10.733836 C20.0410714,10.2780619 20.4151975,9.90813253 20.8761422,9.90813253 C21.3370868,9.90813253 21.7112129,10.2780619 21.7112129,10.733836 L21.7112129,12.3851657 L21.7112129,17.3392319 C21.7112129,17.795006 22.085339,18.1649354 22.5462836,18.1649354 C23.0072283,18.1649354 23.3813544,17.795006 23.3813544,17.3392319 L23.3813544,12.3851657 C23.3813544,11.9293916 23.7554805,11.5594621 24.2164251,11.5594621 C24.6773698,11.5594621 25.0513393,11.9293916 25.0513393,12.3851657 L25.0513393,14.0348697 L25.0513393,17.3392319 L25.0513393,18.988936 C25.0513393,19.4447101 25.4254654,19.8146395 25.88641,19.8146395 C26.3473547,19.8146395 26.7214808,19.4447101 26.7214808,18.988936 L26.7214808,17.3392319 L26.7214808,14.0348697 C26.7214808,13.5790956 27.0956069,13.2091662 27.5565515,13.2091662 C28.0174961,13.2091662 28.3916222,13.5790956 28.3916222,14.0348697 L28.3916222,22.2916726 C28.3916222,22.7787967 28.329855,23.2841114 28.2028761,23.8373413 C28.1010267,24.2832073 28.3832457,24.7241192 28.8325258,24.826529 C28.894293,24.8397657 28.9561385,24.8463453 29.0179057,24.8463453 C29.3986861,24.8463453 29.7443946,24.5871083 29.8312131,24.2023167 C29.9865314,23.5269381 30.0616854,22.9027258 30.0616854,22.2916726 L30.0616854,14.0348697 C30.0616071,12.669173 28.9376631,11.5578366 27.5564732,11.5578366 Z" id="Path"></path>
                </g>
            </g>
        </g>
    </g>
</svg>