<?xml version="1.0" encoding="UTF-8"?>
<svg width="243px" height="244px" viewBox="0 0 243 244" version="1.1" xmlns="http://www.w3.org/2000/svg" xmlns:xlink="http://www.w3.org/1999/xlink">
    <!-- Generator: Sketch 52.6 (67491) - http://www.bohemiancoding.com/sketch -->
    <desc>Created with Sketch.</desc>
    <defs>
        <rect id="path-1" x="0.44" y="5.68434189e-14" width="177.825951" height="178.010826" rx="1.156173"></rect>
        <filter x="-18.8%" y="-14.9%" width="137.7%" height="137.6%" filterUnits="objectBoundingBox" id="filter-2">
            <feOffset dx="0" dy="7" in="SourceAlpha" result="shadowOffsetOuter1"></feOffset>
            <feGaussianBlur stdDeviation="10" in="shadowOffsetOuter1" result="shadowBlurOuter1"></feGaussianBlur>
            <feColorMatrix values="0 0 0 0 0   0 0 0 0 0   0 0 0 0 0  0 0 0 0.10377038 0" type="matrix" in="shadowBlurOuter1"></feColorMatrix>
        </filter>
        <linearGradient x1="-17.7886106%" y1="-34.9179731%" x2="81.1642342%" y2="112.132933%" id="linearGradient-3">
            <stop stop-color="#FBC471" offset="0%"></stop>
            <stop stop-color="#FA7D7B" offset="100%"></stop>
        </linearGradient>
        <path d="M22.5857052,0.451714104 C35.0593385,0.451714104 45.1714104,10.563786 45.1714104,23.0374193 C45.1714104,35.5110526 35.0593385,45.6231245 22.5857052,45.6231245 C10.1120719,45.6231245 0,35.5110526 0,23.0374193 C0,10.563786 10.1120719,0.451714104 22.5857052,0.451714104 L22.5857052,0.451714104 Z" id="path-4"></path>
        <linearGradient x1="31.1715998%" y1="32.7947317%" x2="50%" y2="100%" id="linearGradient-5">
            <stop stop-color="#FFE8B3" offset="0%"></stop>
            <stop stop-color="#FFCC7C" offset="100%"></stop>
        </linearGradient>
        <linearGradient x1="50%" y1="91.8763689%" x2="43.6104749%" y2="0%" id="linearGradient-6">
            <stop stop-color="#D17DF9" offset="0%"></stop>
            <stop stop-color="#FD7DEE" offset="100%"></stop>
        </linearGradient>
        <path d="M16.6534884,0 C7.45609981,0 0,7.45609981 0,16.6534884 C0,17.7472895 0.108580744,18.8154442 0.310087953,19.8506251 C1.40189065,20.346566 2.61060084,20.776559 3.66376744,22.3156744 C5.9942566,25.7219789 8.91261391,21.3867428 8.99288372,18.9849767 C9.04850637,17.3179626 10.4697151,16.6824654 11.3346973,16.4489835 C11.4429449,13.601237 13.7794293,11.3243721 16.6534884,11.3243721 C19.5964928,11.3243721 21.9826047,13.7104839 21.9826047,16.6534884 C21.9826047,17.2983114 21.8623665,17.9128252 21.6528656,18.485039 C22.719688,18.8114474 23.8384694,18.0773616 23.9810233,17.3196279 C24.2508098,15.8840972 25.4375373,14.7143562 28.644,19.3180465 C30.7789772,22.3836207 32.4333347,19.0279427 33.2999823,16.9199442 L33.3069767,16.6534884 C33.3069767,7.45609981 25.8508769,0 16.6534884,0 L16.6534884,0 Z" id="path-7"></path>
        <path d="M9.99209302,15.9873488 C9.99209302,16.3374052 10.0270653,16.6781355 10.0790242,17.0135368 C10.5000244,16.7211015 10.9673213,16.5482383 11.3346973,16.4489835 C11.4429449,13.601237 13.7794293,11.3243721 16.6534884,11.3243721 C19.5964928,11.3243721 21.9826047,13.7104839 21.9826047,16.6534884 C21.9826047,17.2983114 21.8623665,17.9128252 21.6528656,18.485039 C22.0595438,18.609274 22.4732164,18.5789647 22.8382609,18.4527313 C23.1423536,17.6893353 23.3148837,16.8589924 23.3148837,15.9873488 C23.3148837,12.3082602 20.332577,9.32595349 16.6534884,9.32595349 C12.9743997,9.32595349 9.99209302,12.3082602 9.99209302,15.9873488 Z" id="path-8"></path>
    </defs>
    <g id="Page-1" stroke="none" stroke-width="1" fill="none" fill-rule="evenodd">
        <g id="card/nudge/money-alert">
            <g transform="translate(31.900000, 22.000000)">
                <g id="Mask" fill-rule="nonzero">
                    <use fill="black" fill-opacity="1" filter="url(#filter-2)" xlink:href="#path-1"></use>
                    <use fill="#FFFFFF" xlink:href="#path-1"></use>
                </g>
                <path d="M26.3977196,157.777799 L17.1483356,157.777799 C16.5097988,157.777799 15.9921626,158.295435 15.9921626,158.933972 L15.9921626,165.87101 C15.9921626,166.509546 16.5097988,167.027183 17.1483356,167.027183 L26.3977196,167.027183 C27.0362563,167.027183 27.5538926,166.509546 27.5538926,165.87101 L27.5538926,158.933972 C27.5538926,158.295435 27.0362563,157.777799 26.3977196,157.777799 L26.3977196,157.777799 Z M26.3977196,165.87101 L17.1483356,165.87101 L17.1483356,160.090145 L21.7730276,162.980577 L26.3977196,160.090145 L26.3977196,165.87101 L26.3977196,165.87101 Z M26.3977196,158.933972 L21.7730276,161.824404 L17.1483356,158.933972 L26.3977196,158.933972 L26.3977196,158.933972 Z" id="Shape-Copy-8" fill="#000000" opacity="0.3"></path>
                <path d="M119.880567,167.210705 C118.742893,167.210705 117.919698,166.803732 117.364735,166.23027 L117.975194,165.388576 C118.391417,165.841796 119.066622,166.248769 119.926814,166.248769 C120.814755,166.248769 121.156982,165.814048 121.156982,165.397825 C121.156982,164.102912 117.568221,164.907608 117.568221,162.641509 C117.568221,161.614827 118.456162,160.82863 119.815822,160.82863 C120.768508,160.82863 121.554706,161.143109 122.118918,161.698072 L121.508459,162.502768 C121.018242,162.012551 120.361535,161.790566 119.714078,161.790566 C119.08512,161.790566 118.678147,162.105045 118.678147,162.558265 C118.678147,163.714438 122.266908,163.002235 122.266908,165.296082 C122.266908,166.322764 121.536207,167.210705 119.880567,167.210705 Z M127.483561,167.099712 L123.256593,167.099712 L123.256593,160.930373 L127.483561,160.930373 L127.483561,161.88306 L124.33877,161.88306 L124.33877,163.473954 L127.418815,163.473954 L127.418815,164.42664 L124.33877,164.42664 L124.33877,166.147026 L127.483561,166.147026 L127.483561,167.099712 Z M132.820456,167.099712 L128.593487,167.099712 L128.593487,160.930373 L132.820456,160.930373 L132.820456,161.88306 L129.675665,161.88306 L129.675665,163.473954 L132.75571,163.473954 L132.75571,164.42664 L129.675665,164.42664 L129.675665,166.147026 L132.820456,166.147026 L132.820456,167.099712 Z M142.726546,167.099712 L141.644368,167.099712 L141.644368,162.336279 L139.757494,167.099712 L139.295024,167.099712 L137.398901,162.336279 L137.398901,167.099712 L136.316723,167.099712 L136.316723,160.930373 L137.842871,160.930373 L139.526259,165.166591 L141.200398,160.930373 L142.726546,160.930373 L142.726546,167.099712 Z M146.925766,167.210705 C145.075889,167.210705 143.771726,165.860295 143.771726,164.019667 C143.771726,162.17904 145.075889,160.82863 146.925766,160.82863 C148.766394,160.82863 150.079806,162.17904 150.079806,164.019667 C150.079806,165.860295 148.766394,167.210705 146.925766,167.210705 Z M146.925766,166.248769 C148.165184,166.248769 148.96988,165.286833 148.96988,164.019667 C148.96988,162.743252 148.165184,161.790566 146.925766,161.790566 C145.677099,161.790566 144.881652,162.743252 144.881652,164.019667 C144.881652,165.286833 145.677099,166.248769 146.925766,166.248769 Z M155.897669,167.099712 L154.639753,167.099712 L153.280093,164.796615 L152.197915,164.796615 L152.197915,167.099712 L151.115737,167.099712 L151.115737,160.930373 L153.825807,160.930373 C155.046725,160.930373 155.851422,161.716571 155.851422,162.863494 C155.851422,163.954922 155.12997,164.556131 154.38077,164.676373 L155.897669,167.099712 Z M153.687066,163.843929 C154.297525,163.843929 154.741496,163.455455 154.741496,162.854245 C154.741496,162.262284 154.297525,161.88306 153.687066,161.88306 L152.197915,161.88306 L152.197915,163.843929 L153.687066,163.843929 Z M161.160568,167.099712 L156.9336,167.099712 L156.9336,160.930373 L161.160568,160.930373 L161.160568,161.88306 L158.015778,161.88306 L158.015778,163.473954 L161.095823,163.473954 L161.095823,164.42664 L158.015778,164.42664 L158.015778,166.147026 L161.160568,166.147026 L161.160568,167.099712 Z" id="SEE-MORE" fill="#13C6B9"></path>
                <path d="M0.44,146.742608 L178.265951,146.742608" id="Line-Copy-5" stroke="#000000" stroke-width="0.578086502" opacity="0.1" stroke-linecap="square"></path>
                <path d="M25.2692,78.1 L24.7588,78.1 L24.7588,75.592 L22.4268,72.2304 L23.034,72.2304 L25.014,75.1168 L26.994,72.2304 L27.6012,72.2304 L25.2692,75.592 L25.2692,78.1 Z M30.2412,78.2056 C29.0004,78.2056 28.2084,77.2112 28.2084,75.9704 C28.2084,74.7296 29.0004,73.744 30.2412,73.744 C31.4996,73.744 32.2916,74.7296 32.2916,75.9704 C32.2916,77.2112 31.4996,78.2056 30.2412,78.2056 Z M30.2412,77.792 C31.2444,77.792 31.7988,76.9208 31.7988,75.9704 C31.7988,75.0288 31.2444,74.1576 30.2412,74.1576 C29.2556,74.1576 28.6924,75.0288 28.6924,75.9704 C28.6924,76.9208 29.2556,77.792 30.2412,77.792 Z M36.7972,78.1 L36.3396,78.1 L36.3396,77.4752 C35.9964,77.8624 35.4244,78.2056 34.8084,78.2056 C33.946,78.2056 33.4708,77.8008 33.4708,76.8416 L33.4708,73.8496 L33.9284,73.8496 L33.9284,76.736 C33.9284,77.5632 34.342,77.792 34.958,77.792 C35.5036,77.792 36.058,77.4664 36.3396,77.088 L36.3396,73.8496 L36.7972,73.8496 L36.7972,78.1 Z M41.7692,78.2056 C41.0828,78.2056 40.5548,78.0032 40.1324,77.528 L40.4052,77.1936 C40.678,77.5368 41.1796,77.8184 41.778,77.8184 C42.4908,77.8184 42.9132,77.4488 42.9132,76.956 C42.9132,75.7944 40.2292,76.4544 40.2292,74.9232 C40.2292,74.272 40.7836,73.744 41.7428,73.744 C42.4732,73.744 42.9572,74.0256 43.2652,74.3688 L43.01,74.6944 C42.7636,74.36 42.306,74.1312 41.7428,74.1312 C41.0828,74.1312 40.6868,74.4656 40.6868,74.9056 C40.6868,75.9704 43.362,75.3192 43.362,76.956 C43.362,77.6424 42.834,78.2056 41.7692,78.2056 Z M46.4772,78.2056 C45.8788,78.2056 45.342,77.8976 44.9988,77.4136 L44.9988,79.7192 L44.5412,79.7192 L44.5412,73.8496 L44.9988,73.8496 L44.9988,74.5184 C45.298,74.0872 45.8436,73.744 46.4772,73.744 C47.6124,73.744 48.378,74.6064 48.378,75.9704 C48.378,77.3256 47.6124,78.2056 46.4772,78.2056 Z M46.398,77.792 C47.3484,77.792 47.8852,77 47.8852,75.9704 C47.8852,74.9408 47.3484,74.1576 46.398,74.1576 C45.8084,74.1576 45.2452,74.5096 44.9988,74.9144 L44.9988,77.0176 C45.2452,77.4224 45.8084,77.792 46.398,77.792 Z M51.414,78.2056 C50.1732,78.2056 49.2932,77.2816 49.2932,75.9704 C49.2932,74.7384 50.1556,73.744 51.3348,73.744 C52.6284,73.744 53.3412,74.7648 53.3412,75.9968 L53.3412,76.12 L49.786,76.12 C49.83,77.044 50.446,77.8096 51.4492,77.8096 C51.986,77.8096 52.4788,77.6072 52.8396,77.22 L53.0772,77.5192 C52.6548,77.9592 52.118,78.2056 51.414,78.2056 Z M52.8748,75.7592 C52.866,75.0376 52.3908,74.14 51.326,74.14 C50.3228,74.14 49.8212,75.02 49.786,75.7592 L52.8748,75.7592 Z M57.8468,78.1 L57.3892,78.1 L57.3892,75.2224 C57.3892,74.404 56.9756,74.1576 56.3596,74.1576 C55.814,74.1576 55.2508,74.5008 54.978,74.888 L54.978,78.1 L54.5204,78.1 L54.5204,73.8496 L54.978,73.8496 L54.978,74.492 C55.286,74.1224 55.8932,73.744 56.5092,73.744 C57.3716,73.744 57.8468,74.1664 57.8468,75.1256 L57.8468,78.1 Z M60.1964,78.2056 C59.6332,78.2056 59.3604,77.8624 59.3604,77.2816 L59.3604,74.2544 L58.6564,74.2544 L58.6564,73.8496 L59.3604,73.8496 L59.3604,72.688 L59.8268,72.688 L59.8268,73.8496 L60.6892,73.8496 L60.6892,74.2544 L59.8268,74.2544 L59.8268,77.2112 C59.8268,77.5544 59.9676,77.792 60.2668,77.792 C60.4692,77.792 60.6452,77.6952 60.742,77.5896 L60.918,77.9416 C60.7508,78.1 60.5484,78.2056 60.1964,78.2056 Z M68.6004,78.1 L67.1572,78.1 L66.0044,76.0144 L65.0892,76.0144 L65.0892,78.1 L63.8396,78.1 L63.8396,72.2304 L66.5852,72.2304 C67.8084,72.2304 68.5652,73.0312 68.5652,74.1224 C68.5652,75.152 67.9052,75.7152 67.2716,75.8648 L68.6004,78.1 Z M66.4092,74.9144 C66.902,74.9144 67.2804,74.6152 67.2804,74.1136 C67.2804,73.6296 66.902,73.3304 66.4092,73.3304 L65.0892,73.3304 L65.0892,74.9144 L66.4092,74.9144 Z M73.7484,78.1 L69.3308,78.1 L69.3308,77.1144 C71.7332,75.3368 72.4372,74.7384 72.4372,74.0168 C72.4372,73.4976 71.9708,73.2512 71.4868,73.2512 C70.818,73.2512 70.3076,73.5152 69.9116,73.9288 L69.1988,73.1016 C69.7708,72.4416 70.642,72.1424 71.4604,72.1424 C72.7188,72.1424 73.7044,72.8464 73.7044,74.0168 C73.7044,75.02 72.8772,75.8912 71.3548,77 L73.7484,77 L73.7484,78.1 Z M76.0892,77.6688 C76.0892,78.3288 75.7284,78.9184 75.1828,79.3056 L74.6988,78.9096 C74.9804,78.76 75.306,78.3904 75.3764,78.0824 C75.35,78.0912 75.2796,78.1088 75.2092,78.1088 C74.8748,78.1088 74.6108,77.8448 74.6108,77.4752 C74.6108,77.088 74.9276,76.7712 75.306,76.7712 C75.7196,76.7712 76.0892,77.0968 76.0892,77.6688 Z M80.718,78.1 L79.4684,78.1 L79.4684,76.8856 L76.6612,76.8856 L76.6612,75.9 L78.9932,72.2304 L80.718,72.2304 L80.718,75.7856 L81.4748,75.7856 L81.4748,76.8856 L80.718,76.8856 L80.718,78.1 Z M79.4684,75.7856 L79.4684,73.3392 L77.8844,75.7856 L79.4684,75.7856 Z M85.9716,78.1 L84.722,78.1 L84.722,76.8856 L81.9148,76.8856 L81.9148,75.9 L84.2468,72.2304 L85.9716,72.2304 L85.9716,75.7856 L86.7284,75.7856 L86.7284,76.8856 L85.9716,76.8856 L85.9716,78.1 Z M84.722,75.7856 L84.722,73.3392 L83.138,75.7856 L84.722,75.7856 Z M89.2628,78.1968 C88.55,78.1968 87.9516,77.9592 87.538,77.5896 L88.0924,76.6304 C88.4092,76.9296 88.7436,77.088 89.2628,77.088 C90.2308,77.088 90.7324,76.2696 90.7324,75.4336 L90.7324,75.3016 C90.4508,75.6976 89.8612,76.0584 89.2188,76.0584 C88.1628,76.0584 87.2212,75.3984 87.2212,74.1488 C87.2212,73.0048 88.1276,72.1336 89.4652,72.1336 C91.2516,72.1336 91.9996,73.5064 91.9996,75.1608 C91.9996,76.9384 90.9964,78.1968 89.2628,78.1968 Z M89.5708,74.9848 C90.0196,74.9848 90.442,74.7824 90.7236,74.4304 C90.6708,73.8672 90.354,73.2424 89.5356,73.2424 C88.858,73.2424 88.4884,73.7 88.4884,74.1048 C88.4884,74.7208 89.0252,74.9848 89.5708,74.9848 Z M97.086,78.2056 C95.8452,78.2056 95.0532,77.2112 95.0532,75.9704 C95.0532,74.7296 95.8452,73.744 97.086,73.744 C98.3444,73.744 99.1364,74.7296 99.1364,75.9704 C99.1364,77.2112 98.3444,78.2056 97.086,78.2056 Z M97.086,77.792 C98.0892,77.792 98.6436,76.9208 98.6436,75.9704 C98.6436,75.0288 98.0892,74.1576 97.086,74.1576 C96.1004,74.1576 95.5372,75.0288 95.5372,75.9704 C95.5372,76.9208 96.1004,77.792 97.086,77.792 Z M103.642,78.1 L103.1844,78.1 L103.1844,75.2224 C103.1844,74.404 102.7708,74.1576 102.1548,74.1576 C101.6092,74.1576 101.046,74.5008 100.7732,74.888 L100.7732,78.1 L100.3156,78.1 L100.3156,73.8496 L100.7732,73.8496 L100.7732,74.492 C101.0812,74.1224 101.6884,73.744 102.3044,73.744 C103.1668,73.744 103.642,74.1664 103.642,75.1256 L103.642,78.1 Z M111.3684,78.1 L107.2148,78.1 L107.2148,72.2304 L111.3684,72.2304 L111.3684,73.3304 L108.4644,73.3304 L108.4644,74.5624 L111.3068,74.5624 L111.3068,75.6624 L108.4644,75.6624 L108.4644,77 L111.3684,77 L111.3684,78.1 Z M115.9972,78.1 L114.8708,78.1 L114.8708,77.6512 C114.5804,78.0032 114.0788,78.2056 113.5244,78.2056 C112.8468,78.2056 112.0548,77.748 112.0548,76.7976 C112.0548,75.7944 112.8468,75.4248 113.5244,75.4248 C114.0964,75.4248 114.5892,75.6096 114.8708,75.944 L114.8708,75.4072 C114.8708,74.976 114.5012,74.6944 113.938,74.6944 C113.4892,74.6944 113.0668,74.8704 112.7148,75.196 L112.2748,74.4128 C112.794,73.9464 113.4628,73.744 114.1316,73.744 C115.1084,73.744 115.9972,74.1312 115.9972,75.3544 L115.9972,78.1 Z M113.9732,77.4488 C114.334,77.4488 114.686,77.3256 114.8708,77.0792 L114.8708,76.5512 C114.686,76.3048 114.334,76.1728 113.9732,76.1728 C113.5332,76.1728 113.1724,76.4104 113.1724,76.8152 C113.1724,77.22 113.5332,77.4488 113.9732,77.4488 Z M118.5228,78.2056 C117.7396,78.2056 117.326,77.8008 117.326,77.0352 L117.326,74.8264 L116.622,74.8264 L116.622,73.8496 L117.326,73.8496 L117.326,72.688 L118.4436,72.688 L118.4436,73.8496 L119.306,73.8496 L119.306,74.8264 L118.4436,74.8264 L118.4436,76.736 C118.4436,77.0088 118.5844,77.2112 118.8308,77.2112 C118.998,77.2112 119.1564,77.1496 119.218,77.0792 L119.4556,77.9328 C119.2884,78.0824 118.9892,78.2056 118.5228,78.2056 Z M120.626,73.392 C120.2652,73.392 119.966,73.0928 119.966,72.7232 C119.966,72.3536 120.2652,72.0632 120.626,72.0632 C120.9956,72.0632 121.2948,72.3536 121.2948,72.7232 C121.2948,73.0928 120.9956,73.392 120.626,73.392 Z M121.1892,78.1 L120.0716,78.1 L120.0716,73.8496 L121.1892,73.8496 L121.1892,78.1 Z M126.2932,78.1 L125.1668,78.1 L125.1668,75.5304 C125.1668,74.9408 124.8588,74.7384 124.3836,74.7384 C123.9436,74.7384 123.6092,74.9848 123.4156,75.2312 L123.4156,78.1 L122.298,78.1 L122.298,73.8496 L123.4156,73.8496 L123.4156,74.3952 C123.6884,74.0784 124.2164,73.744 124.9028,73.744 C125.8444,73.744 126.2932,74.272 126.2932,75.0992 L126.2932,78.1 Z M129.1356,79.8248 C128.414,79.8248 127.842,79.6576 127.3052,79.1912 L127.8068,78.3904 C128.15,78.76 128.6076,78.9096 129.1356,78.9096 C129.6724,78.9096 130.3148,78.6808 130.3148,77.8184 L130.3148,77.4048 C129.9804,77.8272 129.5228,78.0648 128.9948,78.0648 C127.9388,78.0648 127.1204,77.3256 127.1204,75.9088 C127.1204,74.5184 127.9212,73.744 128.9948,73.744 C129.5052,73.744 129.9716,73.9552 130.3148,74.3952 L130.3148,73.8496 L131.4324,73.8496 L131.4324,77.8184 C131.4324,79.4288 130.1828,79.8248 129.1356,79.8248 Z M129.3556,77.0792 C129.7164,77.0792 130.1212,76.868 130.3148,76.5952 L130.3148,75.2136 C130.1212,74.9408 129.7164,74.7384 129.3556,74.7384 C128.7132,74.7384 128.2732,75.1784 128.2732,75.9088 C128.2732,76.6392 128.7132,77.0792 129.3556,77.0792 Z M137.6188,78.2056 C135.8412,78.2056 134.5476,76.9384 134.5476,75.1696 C134.5476,73.4008 135.8412,72.1336 137.6188,72.1336 C139.3876,72.1336 140.6812,73.4008 140.6812,75.1696 C140.6812,76.9384 139.3876,78.2056 137.6188,78.2056 Z M137.6188,77.0968 C138.7012,77.0968 139.3964,76.2608 139.3964,75.1696 C139.3964,74.0696 138.7012,73.2424 137.6188,73.2424 C136.5276,73.2424 135.8324,74.0696 135.8324,75.1696 C135.8324,76.2608 136.5276,77.0968 137.6188,77.0968 Z M145.5212,78.1 L144.4036,78.1 L144.4036,77.5632 C144.1132,77.88 143.6028,78.2056 142.9076,78.2056 C141.9748,78.2056 141.5348,77.6952 141.5348,76.868 L141.5348,73.8496 L142.6524,73.8496 L142.6524,76.428 C142.6524,77.0176 142.9604,77.2112 143.4356,77.2112 C143.8668,77.2112 144.21,76.9736 144.4036,76.7272 L144.4036,73.8496 L145.5212,73.8496 L145.5212,78.1 Z M148.0556,78.2056 C147.2724,78.2056 146.8588,77.8008 146.8588,77.0352 L146.8588,74.8264 L146.1548,74.8264 L146.1548,73.8496 L146.8588,73.8496 L146.8588,72.688 L147.9764,72.688 L147.9764,73.8496 L148.8388,73.8496 L148.8388,74.8264 L147.9764,74.8264 L147.9764,76.736 C147.9764,77.0088 148.1172,77.2112 148.3636,77.2112 C148.5308,77.2112 148.6892,77.1496 148.7508,77.0792 L148.9884,77.9328 C148.8212,78.0824 148.522,78.2056 148.0556,78.2056 Z M156.926,78.1 L155.5004,78.1 C155.3772,77.9856 155.2276,77.836 155.0604,77.66 C154.6204,77.9944 154.0836,78.2056 153.4588,78.2056 C152.3852,78.2056 151.5228,77.6424 151.5228,76.5072 C151.5228,75.6184 152.1124,75.152 152.79,74.8088 C152.5524,74.3776 152.4028,73.9464 152.4028,73.5504 C152.4028,72.7584 153.098,72.1424 154.0748,72.1424 C154.902,72.1424 155.6148,72.5912 155.6148,73.3832 C155.6148,74.2808 154.902,74.6592 154.1804,74.9936 C154.3564,75.2312 154.5324,75.4512 154.682,75.6272 C154.8492,75.8384 155.0164,76.0408 155.1836,76.2344 C155.43,75.8472 155.6148,75.4336 155.7204,75.0904 L156.6092,75.504 C156.398,75.9704 156.134,76.472 155.7908,76.912 C156.1428,77.2992 156.5212,77.6864 156.926,78.1 Z M153.6172,77.3256 C153.9164,77.3256 154.2068,77.2112 154.462,77.0264 C154.198,76.736 153.9516,76.4544 153.8108,76.2784 C153.6172,76.0408 153.406,75.7768 153.2212,75.504 C152.9132,75.724 152.7108,75.9968 152.7108,76.4016 C152.7108,76.9736 153.1332,77.3256 153.6172,77.3256 Z M153.5116,73.5768 C153.5116,73.8144 153.6084,74.0872 153.7668,74.3688 C154.2596,74.1312 154.6468,73.876 154.6468,73.4448 C154.6468,73.1368 154.418,72.952 154.1276,72.952 C153.7844,72.952 153.5116,73.2072 153.5116,73.5768 Z M30.976,89.1 L29.7176,89.1 L29.7176,84.3304 L28.0016,84.3304 L28.0016,83.2304 L32.6832,83.2304 L32.6832,84.3304 L30.976,84.3304 L30.976,89.1 Z M37.136,89.1 L36.0096,89.1 L36.0096,88.6512 C35.7192,89.0032 35.2176,89.2056 34.6632,89.2056 C33.9856,89.2056 33.1936,88.748 33.1936,87.7976 C33.1936,86.7944 33.9856,86.4248 34.6632,86.4248 C35.2352,86.4248 35.728,86.6096 36.0096,86.944 L36.0096,86.4072 C36.0096,85.976 35.64,85.6944 35.0768,85.6944 C34.628,85.6944 34.2056,85.8704 33.8536,86.196 L33.4136,85.4128 C33.9328,84.9464 34.6016,84.744 35.2704,84.744 C36.2472,84.744 37.136,85.1312 37.136,86.3544 L37.136,89.1 Z M35.112,88.4488 C35.4728,88.4488 35.8248,88.3256 36.0096,88.0792 L36.0096,87.5512 C35.8248,87.3048 35.4728,87.1728 35.112,87.1728 C34.672,87.1728 34.3112,87.4104 34.3112,87.8152 C34.3112,88.22 34.672,88.4488 35.112,88.4488 Z M42.3896,89.1 L40.9904,89.1 L39.864,87.4632 L39.3536,88.0088 L39.3536,89.1 L38.236,89.1 L38.236,83.2304 L39.3536,83.2304 L39.3536,86.7416 L40.964,84.8496 L42.3368,84.8496 L40.656,86.7768 L42.3896,89.1 Z M44.9504,89.2056 C43.6568,89.2056 42.68,88.3344 42.68,86.9704 C42.68,85.7384 43.5952,84.744 44.88,84.744 C46.156,84.744 47.0096,85.6944 47.0096,87.076 L47.0096,87.34 L43.8504,87.34 C43.9296,87.8592 44.352,88.2904 45.0736,88.2904 C45.4344,88.2904 45.9272,88.1408 46.2,87.8768 L46.7016,88.616 C46.2792,89.0032 45.6104,89.2056 44.9504,89.2056 Z M45.936,86.5656 C45.9008,86.1608 45.6192,85.6592 44.88,85.6592 C44.1848,85.6592 43.8856,86.1432 43.8416,86.5656 L45.936,86.5656 Z M49.7904,89.2056 C48.3912,89.2056 47.5464,88.176 47.5464,86.9704 C47.5464,85.7648 48.3912,84.744 49.7904,84.744 C51.1984,84.744 52.0432,85.7648 52.0432,86.9704 C52.0432,88.176 51.1984,89.2056 49.7904,89.2056 Z M49.7904,88.2112 C50.4944,88.2112 50.8816,87.6392 50.8816,86.9704 C50.8816,86.3104 50.4944,85.7384 49.7904,85.7384 C49.0952,85.7384 48.708,86.3104 48.708,86.9704 C48.708,87.6392 49.0952,88.2112 49.7904,88.2112 Z M56.8656,89.1 L55.748,89.1 L55.748,88.5632 C55.4576,88.88 54.9472,89.2056 54.252,89.2056 C53.3192,89.2056 52.8792,88.6952 52.8792,87.868 L52.8792,84.8496 L53.9968,84.8496 L53.9968,87.428 C53.9968,88.0176 54.3048,88.2112 54.78,88.2112 C55.2112,88.2112 55.5544,87.9736 55.748,87.7272 L55.748,84.8496 L56.8656,84.8496 L56.8656,89.1 Z M59.4,89.2056 C58.6168,89.2056 58.2032,88.8008 58.2032,88.0352 L58.2032,85.8264 L57.4992,85.8264 L57.4992,84.8496 L58.2032,84.8496 L58.2032,83.688 L59.3208,83.688 L59.3208,84.8496 L60.1832,84.8496 L60.1832,85.8264 L59.3208,85.8264 L59.3208,87.736 C59.3208,88.0088 59.4616,88.2112 59.708,88.2112 C59.8752,88.2112 60.0336,88.1496 60.0952,88.0792 L60.3328,88.9328 C60.1656,89.0824 59.8664,89.2056 59.4,89.2056 Z M62.48,89.2056 C61.7408,89.2056 61.028,88.9592 60.5792,88.5456 L61.0632,87.736 C61.38,88.0352 62.0048,88.3256 62.5328,88.3256 C63.0168,88.3256 63.2456,88.1408 63.2456,87.8768 C63.2456,87.1816 60.7288,87.7536 60.7288,86.0816 C60.7288,85.3688 61.3448,84.744 62.4712,84.744 C63.184,84.744 63.756,84.9904 64.1784,85.3248 L63.7296,86.1168 C63.4744,85.8528 62.9904,85.624 62.4712,85.624 C62.0664,85.624 61.8024,85.8 61.8024,86.0376 C61.8024,86.6624 64.328,86.1344 64.328,87.8504 C64.328,88.6336 63.6592,89.2056 62.48,89.2056 Z M69.3792,89.2056 C68.1384,89.2056 67.3464,88.2112 67.3464,86.9704 C67.3464,85.7296 68.1384,84.744 69.3792,84.744 C70.6376,84.744 71.4296,85.7296 71.4296,86.9704 C71.4296,88.2112 70.6376,89.2056 69.3792,89.2056 Z M69.3792,88.792 C70.3824,88.792 70.9368,87.9208 70.9368,86.9704 C70.9368,86.0288 70.3824,85.1576 69.3792,85.1576 C68.3936,85.1576 67.8304,86.0288 67.8304,86.9704 C67.8304,87.9208 68.3936,88.792 69.3792,88.792 Z M74.272,89.1 L73.7528,89.1 L71.9576,84.8496 L72.468,84.8496 L74.0168,88.5632 L75.548,84.8496 L76.0672,84.8496 L74.272,89.1 Z M78.7248,89.2056 C77.484,89.2056 76.604,88.2816 76.604,86.9704 C76.604,85.7384 77.4664,84.744 78.6456,84.744 C79.9392,84.744 80.652,85.7648 80.652,86.9968 L80.652,87.12 L77.0968,87.12 C77.1408,88.044 77.7568,88.8096 78.76,88.8096 C79.2968,88.8096 79.7896,88.6072 80.1504,88.22 L80.388,88.5192 C79.9656,88.9592 79.4288,89.2056 78.7248,89.2056 Z M80.1856,86.7592 C80.1768,86.0376 79.7016,85.14 78.6368,85.14 C77.6336,85.14 77.132,86.02 77.0968,86.7592 L80.1856,86.7592 Z M82.2888,89.1 L81.8312,89.1 L81.8312,84.8496 L82.2888,84.8496 L82.2888,85.58 C82.6496,85.1048 83.1336,84.7616 83.7232,84.7616 L83.7232,85.2632 C83.644,85.2456 83.5824,85.2456 83.4944,85.2456 C83.0632,85.2456 82.4824,85.6328 82.2888,86.0024 L82.2888,89.1 Z M87.824,89.2056 C87.2608,89.2056 86.988,88.8624 86.988,88.2816 L86.988,85.2544 L86.284,85.2544 L86.284,84.8496 L86.988,84.8496 L86.988,83.688 L87.4544,83.688 L87.4544,84.8496 L88.3168,84.8496 L88.3168,85.2544 L87.4544,85.2544 L87.4544,88.2112 C87.4544,88.5544 87.5952,88.792 87.8944,88.792 C88.0968,88.792 88.2728,88.6952 88.3696,88.5896 L88.5456,88.9416 C88.3784,89.1 88.176,89.2056 87.824,89.2056 Z M92.6464,89.1 L92.1888,89.1 L92.1888,86.2048 C92.1888,85.3864 91.7752,85.1576 91.1592,85.1576 C90.6136,85.1576 90.0504,85.5008 89.7776,85.888 L89.7776,89.1 L89.32,89.1 L89.32,83.2304 L89.7776,83.2304 L89.7776,85.492 C90.0856,85.1224 90.6928,84.744 91.3088,84.744 C92.1712,84.744 92.6464,85.1488 92.6464,86.108 L92.6464,89.1 Z M95.9552,89.2056 C94.7144,89.2056 93.8344,88.2816 93.8344,86.9704 C93.8344,85.7384 94.6968,84.744 95.876,84.744 C97.1696,84.744 97.8824,85.7648 97.8824,86.9968 L97.8824,87.12 L94.3272,87.12 C94.3712,88.044 94.9872,88.8096 95.9904,88.8096 C96.5272,88.8096 97.02,88.6072 97.3808,88.22 L97.6184,88.5192 C97.196,88.9592 96.6592,89.2056 95.9552,89.2056 Z M97.416,86.7592 C97.4072,86.0376 96.932,85.14 95.8672,85.14 C94.864,85.14 94.3624,86.02 94.3272,86.7592 L97.416,86.7592 Z M103.2768,89.2056 C102.6784,89.2056 102.1416,88.8976 101.7984,88.4136 L101.7984,90.7192 L101.3408,90.7192 L101.3408,84.8496 L101.7984,84.8496 L101.7984,85.5184 C102.0976,85.0872 102.6432,84.744 103.2768,84.744 C104.412,84.744 105.1776,85.6064 105.1776,86.9704 C105.1776,88.3256 104.412,89.2056 103.2768,89.2056 Z M103.1976,88.792 C104.148,88.792 104.6848,88 104.6848,86.9704 C104.6848,85.9408 104.148,85.1576 103.1976,85.1576 C102.608,85.1576 102.0448,85.5096 101.7984,85.9144 L101.7984,88.0176 C102.0448,88.4224 102.608,88.792 103.1976,88.792 Z M109.4896,89.1 L109.032,89.1 L109.032,88.5984 C108.6536,89.012 108.1784,89.2056 107.5888,89.2056 C106.8584,89.2056 106.1016,88.704 106.1016,87.7888 C106.1016,86.8648 106.8496,86.3808 107.5888,86.3808 C108.1784,86.3808 108.6624,86.5744 109.032,86.988 L109.032,86.1256 C109.032,85.492 108.5216,85.1488 107.8968,85.1488 C107.36,85.1488 106.9464,85.3336 106.5592,85.7736 L106.304,85.4568 C106.744,84.9816 107.2368,84.744 107.9408,84.744 C108.8032,84.744 109.4896,85.1576 109.4896,86.108 L109.4896,89.1 Z M107.7472,88.8448 C108.2576,88.8448 108.7328,88.6512 109.032,88.264 L109.032,87.3312 C108.7328,86.9352 108.2576,86.7416 107.7472,86.7416 C107.052,86.7416 106.5856,87.1904 106.5856,87.7976 C106.5856,88.396 107.052,88.8448 107.7472,88.8448 Z M112.1824,89.2056 C111.496,89.2056 110.968,89.0032 110.5456,88.528 L110.8184,88.1936 C111.0912,88.5368 111.5928,88.8184 112.1912,88.8184 C112.904,88.8184 113.3264,88.4488 113.3264,87.956 C113.3264,86.7944 110.6424,87.4544 110.6424,85.9232 C110.6424,85.272 111.1968,84.744 112.156,84.744 C112.8864,84.744 113.3704,85.0256 113.6784,85.3688 L113.4232,85.6944 C113.1768,85.36 112.7192,85.1312 112.156,85.1312 C111.496,85.1312 111.1,85.4656 111.1,85.9056 C111.1,86.9704 113.7752,86.3192 113.7752,87.956 C113.7752,88.6424 113.2472,89.2056 112.1824,89.2056 Z M115.8784,89.2056 C115.3152,89.2056 115.0424,88.8624 115.0424,88.2816 L115.0424,85.2544 L114.3384,85.2544 L114.3384,84.8496 L115.0424,84.8496 L115.0424,83.688 L115.5088,83.688 L115.5088,84.8496 L116.3712,84.8496 L116.3712,85.2544 L115.5088,85.2544 L115.5088,88.2112 C115.5088,88.5544 115.6496,88.792 115.9488,88.792 C116.1512,88.792 116.3272,88.6952 116.424,88.5896 L116.6,88.9416 C116.4328,89.1 116.2304,89.2056 115.8784,89.2056 Z M121.3256,89.1968 C120.56,89.1968 120.0936,88.8888 119.7416,88.4488 L120.0408,88.088 C120.3312,88.4664 120.6832,88.7392 121.3256,88.7392 C122.6192,88.7392 123.0592,87.3928 123.0592,86.1608 L123.0592,85.888 C122.8128,86.2928 122.1352,86.8648 121.3344,86.8648 C120.2784,86.8648 119.4424,86.2576 119.4424,85.008 C119.4424,84.0488 120.164,83.1336 121.4136,83.1336 C122.9976,83.1336 123.5696,84.5944 123.5696,86.1696 C123.5696,87.6744 122.9448,89.1968 121.3256,89.1968 Z M121.4224,86.416 C122.0648,86.416 122.6896,86.0024 123.024,85.4128 C122.9536,84.612 122.54,83.5912 121.4312,83.5912 C120.428,83.5912 119.9528,84.3656 119.9528,84.9992 C119.9528,85.9584 120.5864,86.416 121.4224,86.416 Z M126.764,89.2056 C125.18,89.2056 124.5904,87.56 124.5904,86.1696 C124.5904,84.7704 125.18,83.1424 126.764,83.1424 C128.3304,83.1424 128.9288,84.7704 128.9288,86.1696 C128.9288,87.56 128.3304,89.2056 126.764,89.2056 Z M126.764,88.748 C127.9872,88.748 128.392,87.3752 128.392,86.1696 C128.392,84.9552 127.996,83.6 126.764,83.6 C125.5232,83.6 125.1184,84.9552 125.1184,86.1696 C125.1184,87.3752 125.5232,88.748 126.764,88.748 Z M136.0216,89.1 L135.5552,89.1 L135.5552,88.4224 C135.256,88.8624 134.7104,89.2056 134.0768,89.2056 C132.9504,89.2056 132.1848,88.3432 132.1848,86.9792 C132.1848,85.6328 132.9504,84.744 134.0768,84.744 C134.684,84.744 135.2208,85.052 135.5552,85.536 L135.5552,83.2304 L136.0216,83.2304 L136.0216,89.1 Z M134.156,88.792 C134.7544,88.792 135.3088,88.44 135.5552,88.0352 L135.5552,85.932 C135.3088,85.5184 134.7544,85.1576 134.156,85.1576 C133.2144,85.1576 132.6688,85.9496 132.6688,86.9792 C132.6688,88.0088 133.2144,88.792 134.156,88.792 Z M140.6064,89.1 L140.1488,89.1 L140.1488,88.5984 C139.7704,89.012 139.2952,89.2056 138.7056,89.2056 C137.9752,89.2056 137.2184,88.704 137.2184,87.7888 C137.2184,86.8648 137.9664,86.3808 138.7056,86.3808 C139.2952,86.3808 139.7792,86.5744 140.1488,86.988 L140.1488,86.1256 C140.1488,85.492 139.6384,85.1488 139.0136,85.1488 C138.4768,85.1488 138.0632,85.3336 137.676,85.7736 L137.4208,85.4568 C137.8608,84.9816 138.3536,84.744 139.0576,84.744 C139.92,84.744 140.6064,85.1576 140.6064,86.108 L140.6064,89.1 Z M138.864,88.8448 C139.3744,88.8448 139.8496,88.6512 140.1488,88.264 L140.1488,87.3312 C139.8496,86.9352 139.3744,86.7416 138.864,86.7416 C138.1688,86.7416 137.7024,87.1904 137.7024,87.7976 C137.7024,88.396 138.1688,88.8448 138.864,88.8448 Z M141.7504,90.7632 L141.8296,90.3408 C141.9264,90.3848 142.0936,90.4112 142.1992,90.4112 C142.4808,90.4112 142.6744,90.2968 142.8504,89.892 L143.1848,89.1352 L141.3808,84.8496 L141.8912,84.8496 L143.44,88.5632 L144.9712,84.8496 L145.4904,84.8496 L143.2904,90.0328 C143.0616,90.5696 142.7008,90.8248 142.208,90.8248 C142.0584,90.8248 141.8648,90.7984 141.7504,90.7632 Z M147.532,89.2056 C146.8456,89.2056 146.3176,89.0032 145.8952,88.528 L146.168,88.1936 C146.4408,88.5368 146.9424,88.8184 147.5408,88.8184 C148.2536,88.8184 148.676,88.4488 148.676,87.956 C148.676,86.7944 145.992,87.4544 145.992,85.9232 C145.992,85.272 146.5464,84.744 147.5056,84.744 C148.236,84.744 148.72,85.0256 149.028,85.3688 L148.7728,85.6944 C148.5264,85.36 148.0688,85.1312 147.5056,85.1312 C146.8456,85.1312 146.4496,85.4656 146.4496,85.9056 C146.4496,86.9704 149.1248,86.3192 149.1248,87.956 C149.1248,88.6424 148.5968,89.2056 147.532,89.2056 Z M150.5592,89.1792 C150.348,89.1792 150.1632,89.0032 150.1632,88.792 C150.1632,88.5896 150.348,88.4136 150.5592,88.4136 C150.7704,88.4136 150.9464,88.5896 150.9464,88.792 C150.9464,89.0032 150.7704,89.1792 150.5592,89.1792 Z M29.4624,100.1 L28.952,100.1 L28.952,94.688 L27.0336,94.688 L27.0336,94.2304 L31.3808,94.2304 L31.3808,94.688 L29.4624,94.688 L29.4624,100.1 Z M35.728,100.1 L35.2704,100.1 L35.2704,97.2048 C35.2704,96.3864 34.8568,96.1576 34.2408,96.1576 C33.6952,96.1576 33.132,96.5008 32.8592,96.888 L32.8592,100.1 L32.4016,100.1 L32.4016,94.2304 L32.8592,94.2304 L32.8592,96.492 C33.1672,96.1224 33.7744,95.744 34.3904,95.744 C35.2528,95.744 35.728,96.1488 35.728,97.108 L35.728,100.1 Z M40.3128,100.1 L39.8552,100.1 L39.8552,99.5984 C39.4768,100.012 39.0016,100.2056 38.412,100.2056 C37.6816,100.2056 36.9248,99.704 36.9248,98.7888 C36.9248,97.8648 37.6728,97.3808 38.412,97.3808 C39.0016,97.3808 39.4856,97.5744 39.8552,97.988 L39.8552,97.1256 C39.8552,96.492 39.3448,96.1488 38.72,96.1488 C38.1832,96.1488 37.7696,96.3336 37.3824,96.7736 L37.1272,96.4568 C37.5672,95.9816 38.06,95.744 38.764,95.744 C39.6264,95.744 40.3128,96.1576 40.3128,97.108 L40.3128,100.1 Z M38.5704,99.8448 C39.0808,99.8448 39.556,99.6512 39.8552,99.264 L39.8552,98.3312 C39.556,97.9352 39.0808,97.7416 38.5704,97.7416 C37.8752,97.7416 37.4088,98.1904 37.4088,98.7976 C37.4088,99.396 37.8752,99.8448 38.5704,99.8448 Z M42.6624,100.2056 C42.0992,100.2056 41.8264,99.8624 41.8264,99.2816 L41.8264,96.2544 L41.1224,96.2544 L41.1224,95.8496 L41.8264,95.8496 L41.8264,94.688 L42.2928,94.688 L42.2928,95.8496 L43.1552,95.8496 L43.1552,96.2544 L42.2928,96.2544 L42.2928,99.2112 C42.2928,99.5544 42.4336,99.792 42.7328,99.792 C42.9352,99.792 43.1112,99.6952 43.208,99.5896 L43.384,99.9416 C43.2168,100.1 43.0144,100.2056 42.6624,100.2056 Z M44.8448,94.7056 C44.8448,95.1984 44.5544,95.656 44.2112,95.9024 L43.956,95.6912 C44.2376,95.4976 44.4488,95.1544 44.4664,94.8728 C44.4664,94.8816 44.4048,94.8904 44.3784,94.8904 C44.1672,94.8904 44.0176,94.732 44.0176,94.5208 C44.0176,94.3184 44.1848,94.1424 44.396,94.1424 C44.6336,94.1424 44.8448,94.3448 44.8448,94.7056 Z M47.3528,100.2056 C46.6664,100.2056 46.1384,100.0032 45.716,99.528 L45.9888,99.1936 C46.2616,99.5368 46.7632,99.8184 47.3616,99.8184 C48.0744,99.8184 48.4968,99.4488 48.4968,98.956 C48.4968,97.7944 45.8128,98.4544 45.8128,96.9232 C45.8128,96.272 46.3672,95.744 47.3264,95.744 C48.0568,95.744 48.5408,96.0256 48.8488,96.3688 L48.5936,96.6944 C48.3472,96.36 47.8896,96.1312 47.3264,96.1312 C46.6664,96.1312 46.2704,96.4656 46.2704,96.9056 C46.2704,97.9704 48.9456,97.3192 48.9456,98.956 C48.9456,99.6424 48.4176,100.2056 47.3528,100.2056 Z M57.0328,100.1 L55.5896,100.1 L54.4368,98.0144 L53.5216,98.0144 L53.5216,100.1 L52.272,100.1 L52.272,94.2304 L55.0176,94.2304 C56.2408,94.2304 56.9976,95.0312 56.9976,96.1224 C56.9976,97.152 56.3376,97.7152 55.704,97.8648 L57.0328,100.1 Z M54.8416,96.9144 C55.3344,96.9144 55.7128,96.6152 55.7128,96.1136 C55.7128,95.6296 55.3344,95.3304 54.8416,95.3304 L53.5216,95.3304 L53.5216,96.9144 L54.8416,96.9144 Z M60.1832,100.2056 C58.3968,100.2056 57.6488,98.8328 57.6488,97.1784 C57.6488,95.4008 58.652,94.1424 60.3856,94.1424 C61.0984,94.1424 61.6968,94.38 62.1192,94.7496 L61.556,95.7088 C61.2392,95.4096 60.9048,95.2512 60.3856,95.2512 C59.5232,95.2512 58.916,95.9816 58.916,96.9144 C58.916,96.9584 58.916,96.9936 58.9248,97.0376 C59.1976,96.6416 59.7872,96.2808 60.4296,96.2808 C61.4856,96.2808 62.436,96.9408 62.436,98.1904 C62.436,99.3344 61.5208,100.2056 60.1832,100.2056 Z M60.1128,99.0968 C60.7904,99.0968 61.16,98.6392 61.16,98.2344 C61.16,97.6184 60.632,97.3544 60.0776,97.3544 C59.6376,97.3544 59.2064,97.5568 58.9248,97.9088 C58.9776,98.472 59.2944,99.0968 60.1128,99.0968 Z M65.5336,100.2056 C63.7472,100.2056 62.9992,98.8328 62.9992,97.1784 C62.9992,95.4008 64.0024,94.1424 65.736,94.1424 C66.4488,94.1424 67.0472,94.38 67.4696,94.7496 L66.9064,95.7088 C66.5896,95.4096 66.2552,95.2512 65.736,95.2512 C64.8736,95.2512 64.2664,95.9816 64.2664,96.9144 C64.2664,96.9584 64.2664,96.9936 64.2752,97.0376 C64.548,96.6416 65.1376,96.2808 65.78,96.2808 C66.836,96.2808 67.7864,96.9408 67.7864,98.1904 C67.7864,99.3344 66.8712,100.2056 65.5336,100.2056 Z M65.4632,99.0968 C66.1408,99.0968 66.5104,98.6392 66.5104,98.2344 C66.5104,97.6184 65.9824,97.3544 65.428,97.3544 C64.988,97.3544 64.5568,97.5568 64.2752,97.9088 C64.328,98.472 64.6448,99.0968 65.4632,99.0968 Z M72.9784,100.2056 C72.38,100.2056 71.8432,99.8976 71.5,99.4136 L71.5,101.7192 L71.0424,101.7192 L71.0424,95.8496 L71.5,95.8496 L71.5,96.5184 C71.7992,96.0872 72.3448,95.744 72.9784,95.744 C74.1136,95.744 74.8792,96.6064 74.8792,97.9704 C74.8792,99.3256 74.1136,100.2056 72.9784,100.2056 Z M72.8992,99.792 C73.8496,99.792 74.3864,99 74.3864,97.9704 C74.3864,96.9408 73.8496,96.1576 72.8992,96.1576 C72.3096,96.1576 71.7464,96.5096 71.5,96.9144 L71.5,99.0176 C71.7464,99.4224 72.3096,99.792 72.8992,99.792 Z M77.9152,100.2056 C76.6744,100.2056 75.7944,99.2816 75.7944,97.9704 C75.7944,96.7384 76.6568,95.744 77.836,95.744 C79.1296,95.744 79.8424,96.7648 79.8424,97.9968 L79.8424,98.12 L76.2872,98.12 C76.3312,99.044 76.9472,99.8096 77.9504,99.8096 C78.4872,99.8096 78.98,99.6072 79.3408,99.22 L79.5784,99.5192 C79.156,99.9592 78.6192,100.2056 77.9152,100.2056 Z M79.376,97.7592 C79.3672,97.0376 78.892,96.14 77.8272,96.14 C76.824,96.14 76.3224,97.02 76.2872,97.7592 L79.376,97.7592 Z M81.4792,100.1 L81.0216,100.1 L81.0216,95.8496 L81.4792,95.8496 L81.4792,96.58 C81.84,96.1048 82.324,95.7616 82.9136,95.7616 L82.9136,96.2632 C82.8344,96.2456 82.7728,96.2456 82.6848,96.2456 C82.2536,96.2456 81.6728,96.6328 81.4792,97.0024 L81.4792,100.1 Z M89.6896,100.1 L89.2232,100.1 L89.2232,99.4224 C88.924,99.8624 88.3784,100.2056 87.7448,100.2056 C86.6184,100.2056 85.8528,99.3432 85.8528,97.9792 C85.8528,96.6328 86.6184,95.744 87.7448,95.744 C88.352,95.744 88.8888,96.052 89.2232,96.536 L89.2232,94.2304 L89.6896,94.2304 L89.6896,100.1 Z M87.824,99.792 C88.4224,99.792 88.9768,99.44 89.2232,99.0352 L89.2232,96.932 C88.9768,96.5184 88.4224,96.1576 87.824,96.1576 C86.8824,96.1576 86.3368,96.9496 86.3368,97.9792 C86.3368,99.0088 86.8824,99.792 87.824,99.792 Z M94.2744,100.1 L93.8168,100.1 L93.8168,99.5984 C93.4384,100.012 92.9632,100.2056 92.3736,100.2056 C91.6432,100.2056 90.8864,99.704 90.8864,98.7888 C90.8864,97.8648 91.6344,97.3808 92.3736,97.3808 C92.9632,97.3808 93.4472,97.5744 93.8168,97.988 L93.8168,97.1256 C93.8168,96.492 93.3064,96.1488 92.6816,96.1488 C92.1448,96.1488 91.7312,96.3336 91.344,96.7736 L91.0888,96.4568 C91.5288,95.9816 92.0216,95.744 92.7256,95.744 C93.588,95.744 94.2744,96.1576 94.2744,97.108 L94.2744,100.1 Z M92.532,99.8448 C93.0424,99.8448 93.5176,99.6512 93.8168,99.264 L93.8168,98.3312 C93.5176,97.9352 93.0424,97.7416 92.532,97.7416 C91.8368,97.7416 91.3704,98.1904 91.3704,98.7976 C91.3704,99.396 91.8368,99.8448 92.532,99.8448 Z M95.4184,101.7632 L95.4976,101.3408 C95.5944,101.3848 95.7616,101.4112 95.8672,101.4112 C96.1488,101.4112 96.3424,101.2968 96.5184,100.892 L96.8528,100.1352 L95.0488,95.8496 L95.5592,95.8496 L97.108,99.5632 L98.6392,95.8496 L99.1584,95.8496 L96.9584,101.0328 C96.7296,101.5696 96.3688,101.8248 95.876,101.8248 C95.7264,101.8248 95.5328,101.7984 95.4184,101.7632 Z M100.188,100.1792 C99.9768,100.1792 99.792,100.0032 99.792,99.792 C99.792,99.5896 99.9768,99.4136 100.188,99.4136 C100.3992,99.4136 100.5752,99.5896 100.5752,99.792 C100.5752,100.0032 100.3992,100.1792 100.188,100.1792 Z M109.0672,100.2056 C107.3424,100.2056 106.216,98.8856 106.216,97.1696 C106.216,95.4536 107.3424,94.1336 109.0672,94.1336 C110.7832,94.1336 111.9184,95.4536 111.9184,97.1696 C111.9184,98.8856 110.7832,100.2056 109.0672,100.2056 Z M109.0672,99.748 C110.4752,99.748 111.3904,98.648 111.3904,97.1696 C111.3904,95.6824 110.4752,94.5912 109.0672,94.5912 C107.6504,94.5912 106.744,95.6824 106.744,97.1696 C106.744,98.648 107.6504,99.748 109.0672,99.748 Z M116.468,100.1 L116.0104,100.1 L116.0104,97.2224 C116.0104,96.404 115.5968,96.1576 114.9808,96.1576 C114.4352,96.1576 113.872,96.5008 113.5992,96.888 L113.5992,100.1 L113.1416,100.1 L113.1416,95.8496 L113.5992,95.8496 L113.5992,96.492 C113.9072,96.1224 114.5144,95.744 115.1304,95.744 C115.9928,95.744 116.468,96.1664 116.468,97.1256 L116.468,100.1 Z M123.332,100.1 L122.8744,100.1 L122.8744,99.5984 C122.496,100.012 122.0208,100.2056 121.4312,100.2056 C120.7008,100.2056 119.944,99.704 119.944,98.7888 C119.944,97.8648 120.692,97.3808 121.4312,97.3808 C122.0208,97.3808 122.5048,97.5744 122.8744,97.988 L122.8744,97.1256 C122.8744,96.492 122.364,96.1488 121.7392,96.1488 C121.2024,96.1488 120.7888,96.3336 120.4016,96.7736 L120.1464,96.4568 C120.5864,95.9816 121.0792,95.744 121.7832,95.744 C122.6456,95.744 123.332,96.1576 123.332,97.108 L123.332,100.1 Z M121.5896,99.8448 C122.1,99.8448 122.5752,99.6512 122.8744,99.264 L122.8744,98.3312 C122.5752,97.9352 122.1,97.7416 121.5896,97.7416 C120.8944,97.7416 120.428,98.1904 120.428,98.7976 C120.428,99.396 120.8944,99.8448 121.5896,99.8448 Z M126.4208,100.1 L125.9016,100.1 L124.1064,95.8496 L124.6168,95.8496 L126.1656,99.5632 L127.6968,95.8496 L128.216,95.8496 L126.4208,100.1 Z M130.8736,100.2056 C129.6328,100.2056 128.7528,99.2816 128.7528,97.9704 C128.7528,96.7384 129.6152,95.744 130.7944,95.744 C132.088,95.744 132.8008,96.7648 132.8008,97.9968 L132.8008,98.12 L129.2456,98.12 C129.2896,99.044 129.9056,99.8096 130.9088,99.8096 C131.4456,99.8096 131.9384,99.6072 132.2992,99.22 L132.5368,99.5192 C132.1144,99.9592 131.5776,100.2056 130.8736,100.2056 Z M132.3344,97.7592 C132.3256,97.0376 131.8504,96.14 130.7856,96.14 C129.7824,96.14 129.2808,97.02 129.2456,97.7592 L132.3344,97.7592 Z M134.4376,100.1 L133.98,100.1 L133.98,95.8496 L134.4376,95.8496 L134.4376,96.58 C134.7984,96.1048 135.2824,95.7616 135.872,95.7616 L135.872,96.2632 C135.7928,96.2456 135.7312,96.2456 135.6432,96.2456 C135.212,96.2456 134.6312,96.6328 134.4376,97.0024 L134.4376,100.1 Z M139.9288,100.1 L139.4712,100.1 L139.4712,99.5984 C139.0928,100.012 138.6176,100.2056 138.028,100.2056 C137.2976,100.2056 136.5408,99.704 136.5408,98.7888 C136.5408,97.8648 137.2888,97.3808 138.028,97.3808 C138.6176,97.3808 139.1016,97.5744 139.4712,97.988 L139.4712,97.1256 C139.4712,96.492 138.9608,96.1488 138.336,96.1488 C137.7992,96.1488 137.3856,96.3336 136.9984,96.7736 L136.7432,96.4568 C137.1832,95.9816 137.676,95.744 138.38,95.744 C139.2424,95.744 139.9288,96.1576 139.9288,97.108 L139.9288,100.1 Z M138.1864,99.8448 C138.6968,99.8448 139.172,99.6512 139.4712,99.264 L139.4712,98.3312 C139.172,97.9352 138.6968,97.7416 138.1864,97.7416 C137.4912,97.7416 137.0248,98.1904 137.0248,98.7976 C137.0248,99.396 137.4912,99.8448 138.1864,99.8448 Z M143.044,101.8248 C142.3224,101.8248 141.8648,101.6928 141.3632,101.1824 L141.6272,100.8128 C141.9968,101.2528 142.4016,101.4112 143.044,101.4112 C143.8096,101.4112 144.4872,101.024 144.4872,100.0648 L144.4872,99.3872 C144.188,99.8272 143.6424,100.188 143.0088,100.188 C141.8824,100.188 141.1168,99.3344 141.1168,97.9704 C141.1168,96.624 141.8824,95.744 143.0088,95.744 C143.616,95.744 144.144,96.052 144.4872,96.536 L144.4872,95.8496 L144.9536,95.8496 L144.9536,100.0648 C144.9536,101.3584 144.0736,101.8248 143.044,101.8248 Z M143.088,99.7744 C143.6776,99.7744 144.2408,99.4136 144.4872,99 L144.4872,96.932 C144.2408,96.5184 143.6776,96.1576 143.088,96.1576 C142.1464,96.1576 141.6008,96.9408 141.6008,97.9704 C141.6008,99 142.1464,99.7744 143.088,99.7744 Z M148.2536,100.2056 C147.0128,100.2056 146.1328,99.2816 146.1328,97.9704 C146.1328,96.7384 146.9952,95.744 148.1744,95.744 C149.468,95.744 150.1808,96.7648 150.1808,97.9968 L150.1808,98.12 L146.6256,98.12 C146.6696,99.044 147.2856,99.8096 148.2888,99.8096 C148.8256,99.8096 149.3184,99.6072 149.6792,99.22 L149.9168,99.5192 C149.4944,99.9592 148.9576,100.2056 148.2536,100.2056 Z M149.7144,97.7592 C149.7056,97.0376 149.2304,96.14 148.1656,96.14 C147.1624,96.14 146.6608,97.02 146.6256,97.7592 L149.7144,97.7592 Z M152.0464,99.9768 C152.0464,100.4696 151.756,100.936 151.4128,101.1736 L151.1576,100.9624 C151.4392,100.7688 151.6504,100.4256 151.668,100.1528 C151.668,100.1528 151.6064,100.1616 151.58,100.1616 C151.3688,100.1616 151.2192,100.0032 151.2192,99.792 C151.2192,99.5896 151.3864,99.4136 151.5976,99.4136 C151.8352,99.4136 152.0464,99.616 152.0464,99.9768 Z M29.1808,111.1 L25.3088,111.1 L25.3088,110.6864 C27.3064,109.076 28.644,107.932 28.644,106.7968 C28.644,105.952 27.9488,105.6 27.3064,105.6 C26.576,105.6 26.0128,105.9168 25.696,106.3656 L25.3528,106.0488 C25.7664,105.4856 26.4792,105.1424 27.3064,105.1424 C28.1688,105.1424 29.1544,105.6352 29.1544,106.7968 C29.1544,108.0904 27.7904,109.2696 26.092,110.6424 L29.1808,110.6424 L29.1808,111.1 Z M34.3024,111.1 L30.4304,111.1 L30.4304,110.6864 C32.428,109.076 33.7656,107.932 33.7656,106.7968 C33.7656,105.952 33.0704,105.6 32.428,105.6 C31.6976,105.6 31.1344,105.9168 30.8176,106.3656 L30.4744,106.0488 C30.888,105.4856 31.6008,105.1424 32.428,105.1424 C33.2904,105.1424 34.276,105.6352 34.276,106.7968 C34.276,108.0904 32.912,109.2696 31.2136,110.6424 L34.3024,110.6424 L34.3024,111.1 Z M37.0392,111.2056 C36.3528,111.2056 35.8248,111.0032 35.4024,110.528 L35.6752,110.1936 C35.948,110.5368 36.4496,110.8184 37.048,110.8184 C37.7608,110.8184 38.1832,110.4488 38.1832,109.956 C38.1832,108.7944 35.4992,109.4544 35.4992,107.9232 C35.4992,107.272 36.0536,106.744 37.0128,106.744 C37.7432,106.744 38.2272,107.0256 38.5352,107.3688 L38.28,107.6944 C38.0336,107.36 37.576,107.1312 37.0128,107.1312 C36.3528,107.1312 35.9568,107.4656 35.9568,107.9056 C35.9568,108.9704 38.632,108.3192 38.632,109.956 C38.632,110.6424 38.104,111.2056 37.0392,111.2056 Z M41.6944,111.2056 C40.4536,111.2056 39.5736,110.2816 39.5736,108.9704 C39.5736,107.7384 40.436,106.744 41.6152,106.744 C42.9088,106.744 43.6216,107.7648 43.6216,108.9968 L43.6216,109.12 L40.0664,109.12 C40.1104,110.044 40.7264,110.8096 41.7296,110.8096 C42.2664,110.8096 42.7592,110.6072 43.12,110.22 L43.3576,110.5192 C42.9352,110.9592 42.3984,111.2056 41.6944,111.2056 Z M43.1552,108.7592 C43.1464,108.0376 42.6712,107.14 41.6064,107.14 C40.6032,107.14 40.1016,108.02 40.0664,108.7592 L43.1552,108.7592 Z M46.464,111.1 L45.9448,111.1 L44.1496,106.8496 L44.66,106.8496 L46.2088,110.5632 L47.74,106.8496 L48.2592,106.8496 L46.464,111.1 Z M50.9168,111.2056 C49.676,111.2056 48.796,110.2816 48.796,108.9704 C48.796,107.7384 49.6584,106.744 50.8376,106.744 C52.1312,106.744 52.844,107.7648 52.844,108.9968 L52.844,109.12 L49.2888,109.12 C49.3328,110.044 49.9488,110.8096 50.952,110.8096 C51.4888,110.8096 51.9816,110.6072 52.3424,110.22 L52.58,110.5192 C52.1576,110.9592 51.6208,111.2056 50.9168,111.2056 Z M52.3776,108.7592 C52.3688,108.0376 51.8936,107.14 50.8288,107.14 C49.8256,107.14 49.324,108.02 49.2888,108.7592 L52.3776,108.7592 Z M57.3496,111.1 L56.892,111.1 L56.892,108.2224 C56.892,107.404 56.4784,107.1576 55.8624,107.1576 C55.3168,107.1576 54.7536,107.5008 54.4808,107.888 L54.4808,111.1 L54.0232,111.1 L54.0232,106.8496 L54.4808,106.8496 L54.4808,107.492 C54.7888,107.1224 55.396,106.744 56.012,106.744 C56.8744,106.744 57.3496,107.1664 57.3496,108.1256 L57.3496,111.1 Z M62.876,111.2056 C61.6264,111.2056 60.8168,110.2112 60.8168,108.9704 C60.8168,107.7296 61.6264,106.744 62.876,106.744 C63.6152,106.744 64.0376,107.0344 64.3808,107.4656 L64.064,107.7472 C63.756,107.3248 63.3688,107.1576 62.9024,107.1576 C61.908,107.1576 61.3008,107.9496 61.3008,108.9704 C61.3008,109.9912 61.908,110.792 62.9024,110.792 C63.3688,110.792 63.756,110.616 64.064,110.1936 L64.3808,110.4752 C64.0376,110.9152 63.6152,111.2056 62.876,111.2056 Z M68.728,111.1 L68.2704,111.1 L68.2704,110.4752 C67.9272,110.8624 67.3552,111.2056 66.7392,111.2056 C65.8768,111.2056 65.4016,110.8008 65.4016,109.8416 L65.4016,106.8496 L65.8592,106.8496 L65.8592,109.736 C65.8592,110.5632 66.2728,110.792 66.8888,110.792 C67.4344,110.792 67.9888,110.4664 68.2704,110.088 L68.2704,106.8496 L68.728,106.8496 L68.728,111.1 Z M71.4208,111.2056 C70.7344,111.2056 70.2064,111.0032 69.784,110.528 L70.0568,110.1936 C70.3296,110.5368 70.8312,110.8184 71.4296,110.8184 C72.1424,110.8184 72.5648,110.4488 72.5648,109.956 C72.5648,108.7944 69.8808,109.4544 69.8808,107.9232 C69.8808,107.272 70.4352,106.744 71.3944,106.744 C72.1248,106.744 72.6088,107.0256 72.9168,107.3688 L72.6616,107.6944 C72.4152,107.36 71.9576,107.1312 71.3944,107.1312 C70.7344,107.1312 70.3384,107.4656 70.3384,107.9056 C70.3384,108.9704 73.0136,108.3192 73.0136,109.956 C73.0136,110.6424 72.4856,111.2056 71.4208,111.2056 Z M75.1168,111.2056 C74.5536,111.2056 74.2808,110.8624 74.2808,110.2816 L74.2808,107.2544 L73.5768,107.2544 L73.5768,106.8496 L74.2808,106.8496 L74.2808,105.688 L74.7472,105.688 L74.7472,106.8496 L75.6096,106.8496 L75.6096,107.2544 L74.7472,107.2544 L74.7472,110.2112 C74.7472,110.5544 74.888,110.792 75.1872,110.792 C75.3896,110.792 75.5656,110.6952 75.6624,110.5896 L75.8384,110.9416 C75.6712,111.1 75.4688,111.2056 75.1168,111.2056 Z M78.408,111.2056 C77.1672,111.2056 76.3752,110.2112 76.3752,108.9704 C76.3752,107.7296 77.1672,106.744 78.408,106.744 C79.6664,106.744 80.4584,107.7296 80.4584,108.9704 C80.4584,110.2112 79.6664,111.2056 78.408,111.2056 Z M78.408,110.792 C79.4112,110.792 79.9656,109.9208 79.9656,108.9704 C79.9656,108.0288 79.4112,107.1576 78.408,107.1576 C77.4224,107.1576 76.8592,108.0288 76.8592,108.9704 C76.8592,109.9208 77.4224,110.792 78.408,110.792 Z M87.1552,111.1 L86.6976,111.1 L86.6976,108.1256 C86.6976,107.5272 86.4424,107.1576 85.844,107.1576 C85.3864,107.1576 84.8672,107.492 84.6296,107.8792 L84.6296,111.1 L84.1632,111.1 L84.1632,108.1256 C84.1632,107.5272 83.9168,107.1576 83.3184,107.1576 C82.8608,107.1576 82.3504,107.5008 82.0952,107.888 L82.0952,111.1 L81.6376,111.1 L81.6376,106.8496 L82.0952,106.8496 L82.0952,107.492 C82.2712,107.2192 82.852,106.744 83.468,106.744 C84.128,106.744 84.48,107.1312 84.5856,107.5448 C84.8232,107.1488 85.3952,106.744 85.9936,106.744 C86.7768,106.744 87.1552,107.184 87.1552,108.0376 L87.1552,111.1 Z M90.464,111.2056 C89.2232,111.2056 88.3432,110.2816 88.3432,108.9704 C88.3432,107.7384 89.2056,106.744 90.3848,106.744 C91.6784,106.744 92.3912,107.7648 92.3912,108.9968 L92.3912,109.12 L88.836,109.12 C88.88,110.044 89.496,110.8096 90.4992,110.8096 C91.036,110.8096 91.5288,110.6072 91.8896,110.22 L92.1272,110.5192 C91.7048,110.9592 91.168,111.2056 90.464,111.2056 Z M91.9248,108.7592 C91.916,108.0376 91.4408,107.14 90.376,107.14 C89.3728,107.14 88.8712,108.02 88.836,108.7592 L91.9248,108.7592 Z M94.028,111.1 L93.5704,111.1 L93.5704,106.8496 L94.028,106.8496 L94.028,107.58 C94.3888,107.1048 94.8728,106.7616 95.4624,106.7616 L95.4624,107.2632 C95.3832,107.2456 95.3216,107.2456 95.2336,107.2456 C94.8024,107.2456 94.2216,107.6328 94.028,108.0024 L94.028,111.1 Z M97.6272,111.2056 C96.9408,111.2056 96.4128,111.0032 95.9904,110.528 L96.2632,110.1936 C96.536,110.5368 97.0376,110.8184 97.636,110.8184 C98.3488,110.8184 98.7712,110.4488 98.7712,109.956 C98.7712,108.7944 96.0872,109.4544 96.0872,107.9232 C96.0872,107.272 96.6416,106.744 97.6008,106.744 C98.3312,106.744 98.8152,107.0256 99.1232,107.3688 L98.868,107.6944 C98.6216,107.36 98.164,107.1312 97.6008,107.1312 C96.9408,107.1312 96.5448,107.4656 96.5448,107.9056 C96.5448,108.9704 99.22,108.3192 99.22,109.956 C99.22,110.6424 98.692,111.2056 97.6272,111.2056 Z M103.9456,111.2056 C103.2592,111.2056 102.7312,111.0032 102.3088,110.528 L102.5816,110.1936 C102.8544,110.5368 103.356,110.8184 103.9544,110.8184 C104.6672,110.8184 105.0896,110.4488 105.0896,109.956 C105.0896,108.7944 102.4056,109.4544 102.4056,107.9232 C102.4056,107.272 102.96,106.744 103.9192,106.744 C104.6496,106.744 105.1336,107.0256 105.4416,107.3688 L105.1864,107.6944 C104.94,107.36 104.4824,107.1312 103.9192,107.1312 C103.2592,107.1312 102.8632,107.4656 102.8632,107.9056 C102.8632,108.9704 105.5384,108.3192 105.5384,109.956 C105.5384,110.6424 105.0104,111.2056 103.9456,111.2056 Z M108.6536,111.2056 C108.0552,111.2056 107.5184,110.8976 107.1752,110.4136 L107.1752,112.7192 L106.7176,112.7192 L106.7176,106.8496 L107.1752,106.8496 L107.1752,107.5184 C107.4744,107.0872 108.02,106.744 108.6536,106.744 C109.7888,106.744 110.5544,107.6064 110.5544,108.9704 C110.5544,110.3256 109.7888,111.2056 108.6536,111.2056 Z M108.5744,110.792 C109.5248,110.792 110.0616,110 110.0616,108.9704 C110.0616,107.9408 109.5248,107.1576 108.5744,107.1576 C107.9848,107.1576 107.4216,107.5096 107.1752,107.9144 L107.1752,110.0176 C107.4216,110.4224 107.9848,110.792 108.5744,110.792 Z M113.5904,111.2056 C112.3496,111.2056 111.4696,110.2816 111.4696,108.9704 C111.4696,107.7384 112.332,106.744 113.5112,106.744 C114.8048,106.744 115.5176,107.7648 115.5176,108.9968 L115.5176,109.12 L111.9624,109.12 C112.0064,110.044 112.6224,110.8096 113.6256,110.8096 C114.1624,110.8096 114.6552,110.6072 115.016,110.22 L115.2536,110.5192 C114.8312,110.9592 114.2944,111.2056 113.5904,111.2056 Z M115.0512,108.7592 C115.0424,108.0376 114.5672,107.14 113.5024,107.14 C112.4992,107.14 111.9976,108.02 111.9624,108.7592 L115.0512,108.7592 Z M120.0232,111.1 L119.5656,111.1 L119.5656,108.2224 C119.5656,107.404 119.152,107.1576 118.536,107.1576 C117.9904,107.1576 117.4272,107.5008 117.1544,107.888 L117.1544,111.1 L116.6968,111.1 L116.6968,106.8496 L117.1544,106.8496 L117.1544,107.492 C117.4624,107.1224 118.0696,106.744 118.6856,106.744 C119.548,106.744 120.0232,107.1664 120.0232,108.1256 L120.0232,111.1 Z M122.3728,111.2056 C121.8096,111.2056 121.5368,110.8624 121.5368,110.2816 L121.5368,107.2544 L120.8328,107.2544 L120.8328,106.8496 L121.5368,106.8496 L121.5368,105.688 L122.0032,105.688 L122.0032,106.8496 L122.8656,106.8496 L122.8656,107.2544 L122.0032,107.2544 L122.0032,110.2112 C122.0032,110.5544 122.144,110.792 122.4432,110.792 C122.6456,110.792 122.8216,110.6952 122.9184,110.5896 L123.0944,110.9416 C122.9272,111.1 122.7248,111.2056 122.3728,111.2056 Z M130.7768,111.1 L129.3336,111.1 L128.1808,109.0144 L127.2656,109.0144 L127.2656,111.1 L126.016,111.1 L126.016,105.2304 L128.7616,105.2304 C129.9848,105.2304 130.7416,106.0312 130.7416,107.1224 C130.7416,108.152 130.0816,108.7152 129.448,108.8648 L130.7768,111.1 Z M128.5856,107.9144 C129.0784,107.9144 129.4568,107.6152 129.4568,107.1136 C129.4568,106.6296 129.0784,106.3304 128.5856,106.3304 L127.2656,106.3304 L127.2656,107.9144 L128.5856,107.9144 Z M133.584,111.2056 C132.5104,111.2056 131.7008,110.792 131.2696,110.264 L131.9296,109.428 C132.3256,109.8504 132.968,110.0968 133.54,110.0968 C134.2528,110.0968 134.6488,109.7888 134.6488,109.3488 C134.6488,108.8824 134.288,108.6712 133.4696,108.6712 C133.2232,108.6712 132.8272,108.68 132.7392,108.6888 L132.7392,107.5624 C132.8448,107.5712 133.2496,107.5712 133.4696,107.5712 C134.1208,107.5712 134.5608,107.3776 134.5608,106.9464 C134.5608,106.48 134.0768,106.2512 133.4696,106.2512 C132.8976,106.2512 132.3872,106.4624 131.9736,106.8584 L131.3488,106.0752 C131.824,105.5384 132.5632,105.1424 133.5928,105.1424 C134.9656,105.1424 135.8104,105.7584 135.8104,106.7352 C135.8104,107.4744 135.1768,107.9584 134.5256,108.0728 C135.124,108.1344 135.8984,108.6008 135.8984,109.4808 C135.8984,110.4928 134.992,111.2056 133.584,111.2056 Z M138.1512,110.6688 C138.1512,111.3288 137.7904,111.9184 137.2448,112.3056 L136.7608,111.9096 C137.0424,111.76 137.368,111.3904 137.4384,111.0824 C137.412,111.0912 137.3416,111.1088 137.2712,111.1088 C136.9368,111.1088 136.6728,110.8448 136.6728,110.4752 C136.6728,110.088 136.9896,109.7712 137.368,109.7712 C137.7816,109.7712 138.1512,110.0968 138.1512,110.6688 Z M143.3344,111.1 L138.9168,111.1 L138.9168,110.1144 C141.3192,108.3368 142.0232,107.7384 142.0232,107.0168 C142.0232,106.4976 141.5568,106.2512 141.0728,106.2512 C140.404,106.2512 139.8936,106.5152 139.4976,106.9288 L138.7848,106.1016 C139.3568,105.4416 140.228,105.1424 141.0464,105.1424 C142.3048,105.1424 143.2904,105.8464 143.2904,107.0168 C143.2904,108.02 142.4632,108.8912 140.9408,110 L143.3344,110 L143.3344,111.1 Z M146.0976,111.1968 C145.3848,111.1968 144.7864,110.9592 144.3728,110.5896 L144.9272,109.6304 C145.244,109.9296 145.5784,110.088 146.0976,110.088 C147.0656,110.088 147.5672,109.2696 147.5672,108.4336 L147.5672,108.3016 C147.2856,108.6976 146.696,109.0584 146.0536,109.0584 C144.9976,109.0584 144.056,108.3984 144.056,107.1488 C144.056,106.0048 144.9624,105.1336 146.3,105.1336 C148.0864,105.1336 148.8344,106.5064 148.8344,108.1608 C148.8344,109.9384 147.8312,111.1968 146.0976,111.1968 Z M146.4056,107.9848 C146.8544,107.9848 147.2768,107.7824 147.5584,107.4304 C147.5056,106.8672 147.1888,106.2424 146.3704,106.2424 C145.6928,106.2424 145.3232,106.7 145.3232,107.1048 C145.3232,107.7208 145.86,107.9848 146.4056,107.9848 Z M151.8264,111.2056 C150.8056,111.2056 150.0664,110.8712 149.5648,110.3256 L150.26,109.4544 C150.656,109.868 151.2016,110.0968 151.8176,110.0968 C152.5128,110.0968 152.9088,109.7008 152.9088,109.2256 C152.9088,108.7064 152.5216,108.3544 151.8528,108.3544 C151.3688,108.3544 150.9728,108.4952 150.6208,108.8296 L149.7496,108.592 L149.7496,105.2304 L153.78,105.2304 L153.78,106.3304 L150.9992,106.3304 L150.9992,107.7648 C151.2808,107.4832 151.756,107.272 152.2928,107.272 C153.2872,107.272 154.176,107.9848 154.176,109.1728 C154.176,110.4136 153.2432,111.2056 151.8264,111.2056 Z M26.1756,122.2056 C24.9348,122.2056 24.1428,121.2112 24.1428,119.9704 C24.1428,118.7296 24.9348,117.744 26.1756,117.744 C27.434,117.744 28.226,118.7296 28.226,119.9704 C28.226,121.2112 27.434,122.2056 26.1756,122.2056 Z M26.1756,121.792 C27.1788,121.792 27.7332,120.9208 27.7332,119.9704 C27.7332,119.0288 27.1788,118.1576 26.1756,118.1576 C25.19,118.1576 24.6268,119.0288 24.6268,119.9704 C24.6268,120.9208 25.19,121.792 26.1756,121.792 Z M31.0684,122.1 L30.5492,122.1 L28.754,117.8496 L29.2644,117.8496 L30.8132,121.5632 L32.3444,117.8496 L32.8636,117.8496 L31.0684,122.1 Z M35.5212,122.2056 C34.2804,122.2056 33.4004,121.2816 33.4004,119.9704 C33.4004,118.7384 34.2628,117.744 35.442,117.744 C36.7356,117.744 37.4484,118.7648 37.4484,119.9968 L37.4484,120.12 L33.8932,120.12 C33.9372,121.044 34.5532,121.8096 35.5564,121.8096 C36.0932,121.8096 36.586,121.6072 36.9468,121.22 L37.1844,121.5192 C36.762,121.9592 36.2252,122.2056 35.5212,122.2056 Z M36.982,119.7592 C36.9732,119.0376 36.498,118.14 35.4332,118.14 C34.43,118.14 33.9284,119.02 33.8932,119.7592 L36.982,119.7592 Z M39.0852,122.1 L38.6276,122.1 L38.6276,117.8496 L39.0852,117.8496 L39.0852,118.58 C39.446,118.1048 39.93,117.7616 40.5196,117.7616 L40.5196,118.2632 C40.4404,118.2456 40.3788,118.2456 40.2908,118.2456 C39.8596,118.2456 39.2788,118.6328 39.0852,119.0024 L39.0852,122.1 Z M44.6204,122.2056 C44.0572,122.2056 43.7844,121.8624 43.7844,121.2816 L43.7844,118.2544 L43.0804,118.2544 L43.0804,117.8496 L43.7844,117.8496 L43.7844,116.688 L44.2508,116.688 L44.2508,117.8496 L45.1132,117.8496 L45.1132,118.2544 L44.2508,118.2544 L44.2508,121.2112 C44.2508,121.5544 44.3916,121.792 44.6908,121.792 C44.8932,121.792 45.0692,121.6952 45.166,121.5896 L45.342,121.9416 C45.1748,122.1 44.9724,122.2056 44.6204,122.2056 Z M49.4428,122.1 L48.9852,122.1 L48.9852,119.2048 C48.9852,118.3864 48.5716,118.1576 47.9556,118.1576 C47.41,118.1576 46.8468,118.5008 46.574,118.888 L46.574,122.1 L46.1164,122.1 L46.1164,116.2304 L46.574,116.2304 L46.574,118.492 C46.882,118.1224 47.4892,117.744 48.1052,117.744 C48.9676,117.744 49.4428,118.1488 49.4428,119.108 L49.4428,122.1 Z M52.7516,122.2056 C51.5108,122.2056 50.6308,121.2816 50.6308,119.9704 C50.6308,118.7384 51.4932,117.744 52.6724,117.744 C53.966,117.744 54.6788,118.7648 54.6788,119.9968 L54.6788,120.12 L51.1236,120.12 C51.1676,121.044 51.7836,121.8096 52.7868,121.8096 C53.3236,121.8096 53.8164,121.6072 54.1772,121.22 L54.4148,121.5192 C53.9924,121.9592 53.4556,122.2056 52.7516,122.2056 Z M54.2124,119.7592 C54.2036,119.0376 53.7284,118.14 52.6636,118.14 C51.6604,118.14 51.1588,119.02 51.1236,119.7592 L54.2124,119.7592 Z M60.0732,122.2056 C59.4748,122.2056 58.938,121.8976 58.5948,121.4136 L58.5948,123.7192 L58.1372,123.7192 L58.1372,117.8496 L58.5948,117.8496 L58.5948,118.5184 C58.894,118.0872 59.4396,117.744 60.0732,117.744 C61.2084,117.744 61.974,118.6064 61.974,119.9704 C61.974,121.3256 61.2084,122.2056 60.0732,122.2056 Z M59.994,121.792 C60.9444,121.792 61.4812,121 61.4812,119.9704 C61.4812,118.9408 60.9444,118.1576 59.994,118.1576 C59.4044,118.1576 58.8412,118.5096 58.5948,118.9144 L58.5948,121.0176 C58.8412,121.4224 59.4044,121.792 59.994,121.792 Z M66.286,122.1 L65.8284,122.1 L65.8284,121.5984 C65.45,122.012 64.9748,122.2056 64.3852,122.2056 C63.6548,122.2056 62.898,121.704 62.898,120.7888 C62.898,119.8648 63.646,119.3808 64.3852,119.3808 C64.9748,119.3808 65.4588,119.5744 65.8284,119.988 L65.8284,119.1256 C65.8284,118.492 65.318,118.1488 64.6932,118.1488 C64.1564,118.1488 63.7428,118.3336 63.3556,118.7736 L63.1004,118.4568 C63.5404,117.9816 64.0332,117.744 64.7372,117.744 C65.5996,117.744 66.286,118.1576 66.286,119.108 L66.286,122.1 Z M64.5436,121.8448 C65.054,121.8448 65.5292,121.6512 65.8284,121.264 L65.8284,120.3312 C65.5292,119.9352 65.054,119.7416 64.5436,119.7416 C63.8484,119.7416 63.382,120.1904 63.382,120.7976 C63.382,121.396 63.8484,121.8448 64.5436,121.8448 Z M68.9788,122.2056 C68.2924,122.2056 67.7644,122.0032 67.342,121.528 L67.6148,121.1936 C67.8876,121.5368 68.3892,121.8184 68.9876,121.8184 C69.7004,121.8184 70.1228,121.4488 70.1228,120.956 C70.1228,119.7944 67.4388,120.4544 67.4388,118.9232 C67.4388,118.272 67.9932,117.744 68.9524,117.744 C69.6828,117.744 70.1668,118.0256 70.4748,118.3688 L70.2196,118.6944 C69.9732,118.36 69.5156,118.1312 68.9524,118.1312 C68.2924,118.1312 67.8964,118.4656 67.8964,118.9056 C67.8964,119.9704 70.5716,119.3192 70.5716,120.956 C70.5716,121.6424 70.0436,122.2056 68.9788,122.2056 Z M72.6748,122.2056 C72.1116,122.2056 71.8388,121.8624 71.8388,121.2816 L71.8388,118.2544 L71.1348,118.2544 L71.1348,117.8496 L71.8388,117.8496 L71.8388,116.688 L72.3052,116.688 L72.3052,117.8496 L73.1676,117.8496 L73.1676,118.2544 L72.3052,118.2544 L72.3052,121.2112 C72.3052,121.5544 72.446,121.792 72.7452,121.792 C72.9476,121.792 73.1236,121.6952 73.2204,121.5896 L73.3964,121.9416 C73.2292,122.1 73.0268,122.2056 72.6748,122.2056 Z M78.122,122.1968 C77.3564,122.1968 76.89,121.8888 76.538,121.4488 L76.8372,121.088 C77.1276,121.4664 77.4796,121.7392 78.122,121.7392 C79.4156,121.7392 79.8556,120.3928 79.8556,119.1608 L79.8556,118.888 C79.6092,119.2928 78.9316,119.8648 78.1308,119.8648 C77.0748,119.8648 76.2388,119.2576 76.2388,118.008 C76.2388,117.0488 76.9604,116.1336 78.21,116.1336 C79.794,116.1336 80.366,117.5944 80.366,119.1696 C80.366,120.6744 79.7412,122.1968 78.122,122.1968 Z M78.2188,119.416 C78.8612,119.416 79.486,119.0024 79.8204,118.4128 C79.75,117.612 79.3364,116.5912 78.2276,116.5912 C77.2244,116.5912 76.7492,117.3656 76.7492,117.9992 C76.7492,118.9584 77.3828,119.416 78.2188,119.416 Z M83.5604,122.2056 C81.9764,122.2056 81.3868,120.56 81.3868,119.1696 C81.3868,117.7704 81.9764,116.1424 83.5604,116.1424 C85.1268,116.1424 85.7252,117.7704 85.7252,119.1696 C85.7252,120.56 85.1268,122.2056 83.5604,122.2056 Z M83.5604,121.748 C84.7836,121.748 85.1884,120.3752 85.1884,119.1696 C85.1884,117.9552 84.7924,116.6 83.5604,116.6 C82.3196,116.6 81.9148,117.9552 81.9148,119.1696 C81.9148,120.3752 82.3196,121.748 83.5604,121.748 Z M92.818,122.1 L92.3516,122.1 L92.3516,121.4224 C92.0524,121.8624 91.5068,122.2056 90.8732,122.2056 C89.7468,122.2056 88.9812,121.3432 88.9812,119.9792 C88.9812,118.6328 89.7468,117.744 90.8732,117.744 C91.4804,117.744 92.0172,118.052 92.3516,118.536 L92.3516,116.2304 L92.818,116.2304 L92.818,122.1 Z M90.9524,121.792 C91.5508,121.792 92.1052,121.44 92.3516,121.0352 L92.3516,118.932 C92.1052,118.5184 91.5508,118.1576 90.9524,118.1576 C90.0108,118.1576 89.4652,118.9496 89.4652,119.9792 C89.4652,121.0088 90.0108,121.792 90.9524,121.792 Z M97.4028,122.1 L96.9452,122.1 L96.9452,121.5984 C96.5668,122.012 96.0916,122.2056 95.502,122.2056 C94.7716,122.2056 94.0148,121.704 94.0148,120.7888 C94.0148,119.8648 94.7628,119.3808 95.502,119.3808 C96.0916,119.3808 96.5756,119.5744 96.9452,119.988 L96.9452,119.1256 C96.9452,118.492 96.4348,118.1488 95.81,118.1488 C95.2732,118.1488 94.8596,118.3336 94.4724,118.7736 L94.2172,118.4568 C94.6572,117.9816 95.15,117.744 95.854,117.744 C96.7164,117.744 97.4028,118.1576 97.4028,119.108 L97.4028,122.1 Z M95.6604,121.8448 C96.1708,121.8448 96.646,121.6512 96.9452,121.264 L96.9452,120.3312 C96.646,119.9352 96.1708,119.7416 95.6604,119.7416 C94.9652,119.7416 94.4988,120.1904 94.4988,120.7976 C94.4988,121.396 94.9652,121.8448 95.6604,121.8448 Z M98.5468,123.7632 L98.626,123.3408 C98.7228,123.3848 98.89,123.4112 98.9956,123.4112 C99.2772,123.4112 99.4708,123.2968 99.6468,122.892 L99.9812,122.1352 L98.1772,117.8496 L98.6876,117.8496 L100.2364,121.5632 L101.7676,117.8496 L102.2868,117.8496 L100.0868,123.0328 C99.858,123.5696 99.4972,123.8248 99.0044,123.8248 C98.8548,123.8248 98.6612,123.7984 98.5468,123.7632 Z M104.3284,122.2056 C103.642,122.2056 103.114,122.0032 102.6916,121.528 L102.9644,121.1936 C103.2372,121.5368 103.7388,121.8184 104.3372,121.8184 C105.05,121.8184 105.4724,121.4488 105.4724,120.956 C105.4724,119.7944 102.7884,120.4544 102.7884,118.9232 C102.7884,118.272 103.3428,117.744 104.302,117.744 C105.0324,117.744 105.5164,118.0256 105.8244,118.3688 L105.5692,118.6944 C105.3228,118.36 104.8652,118.1312 104.302,118.1312 C103.642,118.1312 103.246,118.4656 103.246,118.9056 C103.246,119.9704 105.9212,119.3192 105.9212,120.956 C105.9212,121.6424 105.3932,122.2056 104.3284,122.2056 Z M113.4628,122.1 L113.0228,122.1 L111.8348,118.4656 L110.638,122.1 L110.198,122.1 L108.8164,117.8496 L109.3092,117.8496 L110.4356,121.4576 L111.6324,117.8496 L112.0284,117.8496 L113.2252,121.4576 L114.3516,117.8496 L114.8444,117.8496 L113.4628,122.1 Z M119.0332,122.1 L118.5756,122.1 L118.5756,119.2048 C118.5756,118.3864 118.162,118.1576 117.546,118.1576 C117.0004,118.1576 116.4372,118.5008 116.1644,118.888 L116.1644,122.1 L115.7068,122.1 L115.7068,116.2304 L116.1644,116.2304 L116.1644,118.492 C116.4724,118.1224 117.0796,117.744 117.6956,117.744 C118.558,117.744 119.0332,118.1488 119.0332,119.108 L119.0332,122.1 Z M120.6876,117.1808 C120.5028,117.1808 120.3356,117.0224 120.3356,116.8288 C120.3356,116.6352 120.5028,116.4856 120.6876,116.4856 C120.8812,116.4856 121.0396,116.6352 121.0396,116.8288 C121.0396,117.0224 120.8812,117.1808 120.6876,117.1808 Z M120.9164,122.1 L120.4588,122.1 L120.4588,117.8496 L120.9164,117.8496 L120.9164,122.1 Z M124.1636,122.2056 C122.914,122.2056 122.1044,121.2112 122.1044,119.9704 C122.1044,118.7296 122.914,117.744 124.1636,117.744 C124.9028,117.744 125.3252,118.0344 125.6684,118.4656 L125.3516,118.7472 C125.0436,118.3248 124.6564,118.1576 124.19,118.1576 C123.1956,118.1576 122.5884,118.9496 122.5884,119.9704 C122.5884,120.9912 123.1956,121.792 124.19,121.792 C124.6564,121.792 125.0436,121.616 125.3516,121.1936 L125.6684,121.4752 C125.3252,121.9152 124.9028,122.2056 124.1636,122.2056 Z M130.0156,122.1 L129.558,122.1 L129.558,119.2048 C129.558,118.3864 129.1444,118.1576 128.5284,118.1576 C127.9828,118.1576 127.4196,118.5008 127.1468,118.888 L127.1468,122.1 L126.6892,122.1 L126.6892,116.2304 L127.1468,116.2304 L127.1468,118.492 C127.4548,118.1224 128.062,117.744 128.678,117.744 C129.5404,117.744 130.0156,118.1488 130.0156,119.108 L130.0156,122.1 Z M137.8036,122.1 L137.3636,122.1 L136.1756,118.4656 L134.9788,122.1 L134.5388,122.1 L133.1572,117.8496 L133.65,117.8496 L134.7764,121.4576 L135.9732,117.8496 L136.3692,117.8496 L137.566,121.4576 L138.6924,117.8496 L139.1852,117.8496 L137.8036,122.1 Z M141.8428,122.2056 C140.602,122.2056 139.81,121.2112 139.81,119.9704 C139.81,118.7296 140.602,117.744 141.8428,117.744 C143.1012,117.744 143.8932,118.7296 143.8932,119.9704 C143.8932,121.2112 143.1012,122.2056 141.8428,122.2056 Z M141.8428,121.792 C142.846,121.792 143.4004,120.9208 143.4004,119.9704 C143.4004,119.0288 142.846,118.1576 141.8428,118.1576 C140.8572,118.1576 140.294,119.0288 140.294,119.9704 C140.294,120.9208 140.8572,121.792 141.8428,121.792 Z M145.53,122.1 L145.0724,122.1 L145.0724,117.8496 L145.53,117.8496 L145.53,118.58 C145.8908,118.1048 146.3748,117.7616 146.9644,117.7616 L146.9644,118.2632 C146.8852,118.2456 146.8236,118.2456 146.7356,118.2456 C146.3044,118.2456 145.7236,118.6328 145.53,119.0024 L145.53,122.1 Z M151.426,122.1 L150.81,122.1 L149.1116,120.076 L148.3196,120.824 L148.3196,122.1 L147.862,122.1 L147.862,116.2304 L148.3196,116.2304 L148.3196,120.2784 L150.8188,117.8496 L151.4348,117.8496 L149.4548,119.768 L151.426,122.1 Z M153.5732,122.2056 C152.8868,122.2056 152.3588,122.0032 151.9364,121.528 L152.2092,121.1936 C152.482,121.5368 152.9836,121.8184 153.582,121.8184 C154.2948,121.8184 154.7172,121.4488 154.7172,120.956 C154.7172,119.7944 152.0332,120.4544 152.0332,118.9232 C152.0332,118.272 152.5876,117.744 153.5468,117.744 C154.2772,117.744 154.7612,118.0256 155.0692,118.3688 L154.814,118.6944 C154.5676,118.36 154.11,118.1312 153.5468,118.1312 C152.8868,118.1312 152.4908,118.4656 152.4908,118.9056 C152.4908,119.9704 155.166,119.3192 155.166,120.956 C155.166,121.6424 154.638,122.2056 153.5732,122.2056 Z M55.4224,133.2056 C54.1816,133.2056 53.3896,132.2112 53.3896,130.9704 C53.3896,129.7296 54.1816,128.744 55.4224,128.744 C56.6808,128.744 57.4728,129.7296 57.4728,130.9704 C57.4728,132.2112 56.6808,133.2056 55.4224,133.2056 Z M55.4224,132.792 C56.4256,132.792 56.98,131.9208 56.98,130.9704 C56.98,130.0288 56.4256,129.1576 55.4224,129.1576 C54.4368,129.1576 53.8736,130.0288 53.8736,130.9704 C53.8736,131.9208 54.4368,132.792 55.4224,132.792 Z M61.9784,133.1 L61.5208,133.1 L61.5208,132.4752 C61.1776,132.8624 60.6056,133.2056 59.9896,133.2056 C59.1272,133.2056 58.652,132.8008 58.652,131.8416 L58.652,128.8496 L59.1096,128.8496 L59.1096,131.736 C59.1096,132.5632 59.5232,132.792 60.1392,132.792 C60.6848,132.792 61.2392,132.4664 61.5208,132.088 L61.5208,128.8496 L61.9784,128.8496 L61.9784,133.1 Z M64.328,133.2056 C63.7648,133.2056 63.492,132.8624 63.492,132.2816 L63.492,129.2544 L62.788,129.2544 L62.788,128.8496 L63.492,128.8496 L63.492,127.688 L63.9584,127.688 L63.9584,128.8496 L64.8208,128.8496 L64.8208,129.2544 L63.9584,129.2544 L63.9584,132.2112 C63.9584,132.5544 64.0992,132.792 64.3984,132.792 C64.6008,132.792 64.7768,132.6952 64.8736,132.5896 L65.0496,132.9416 C64.8824,133.1 64.68,133.2056 64.328,133.2056 Z M69.0272,133.2056 C68.464,133.2056 68.1912,132.8624 68.1912,132.2816 L68.1912,129.2544 L67.4872,129.2544 L67.4872,128.8496 L68.1912,128.8496 L68.1912,127.688 L68.6576,127.688 L68.6576,128.8496 L69.52,128.8496 L69.52,129.2544 L68.6576,129.2544 L68.6576,132.2112 C68.6576,132.5544 68.7984,132.792 69.0976,132.792 C69.3,132.792 69.476,132.6952 69.5728,132.5896 L69.7488,132.9416 C69.5816,133.1 69.3792,133.2056 69.0272,133.2056 Z M72.3184,133.2056 C71.0776,133.2056 70.2856,132.2112 70.2856,130.9704 C70.2856,129.7296 71.0776,128.744 72.3184,128.744 C73.5768,128.744 74.3688,129.7296 74.3688,130.9704 C74.3688,132.2112 73.5768,133.2056 72.3184,133.2056 Z M72.3184,132.792 C73.3216,132.792 73.876,131.9208 73.876,130.9704 C73.876,130.0288 73.3216,129.1576 72.3184,129.1576 C71.3328,129.1576 70.7696,130.0288 70.7696,130.9704 C70.7696,131.9208 71.3328,132.792 72.3184,132.792 Z M82.456,133.1 L81.0128,133.1 L79.86,131.0144 L78.9448,131.0144 L78.9448,133.1 L77.6952,133.1 L77.6952,127.2304 L80.4408,127.2304 C81.664,127.2304 82.4208,128.0312 82.4208,129.1224 C82.4208,130.152 81.7608,130.7152 81.1272,130.8648 L82.456,133.1 Z M80.2648,129.9144 C80.7576,129.9144 81.136,129.6152 81.136,129.1136 C81.136,128.6296 80.7576,128.3304 80.2648,128.3304 L78.9448,128.3304 L78.9448,129.9144 L80.2648,129.9144 Z M85.2632,133.2056 C84.1896,133.2056 83.38,132.792 82.9488,132.264 L83.6088,131.428 C84.0048,131.8504 84.6472,132.0968 85.2192,132.0968 C85.932,132.0968 86.328,131.7888 86.328,131.3488 C86.328,130.8824 85.9672,130.6712 85.1488,130.6712 C84.9024,130.6712 84.5064,130.68 84.4184,130.6888 L84.4184,129.5624 C84.524,129.5712 84.9288,129.5712 85.1488,129.5712 C85.8,129.5712 86.24,129.3776 86.24,128.9464 C86.24,128.48 85.756,128.2512 85.1488,128.2512 C84.5768,128.2512 84.0664,128.4624 83.6528,128.8584 L83.028,128.0752 C83.5032,127.5384 84.2424,127.1424 85.272,127.1424 C86.6448,127.1424 87.4896,127.7584 87.4896,128.7352 C87.4896,129.4744 86.856,129.9584 86.2048,130.0728 C86.8032,130.1344 87.5776,130.6008 87.5776,131.4808 C87.5776,132.4928 86.6712,133.2056 85.2632,133.2056 Z M90.772,133.2056 C88.9856,133.2056 88.2376,131.8328 88.2376,130.1784 C88.2376,128.4008 89.2408,127.1424 90.9744,127.1424 C91.6872,127.1424 92.2856,127.38 92.708,127.7496 L92.1448,128.7088 C91.828,128.4096 91.4936,128.2512 90.9744,128.2512 C90.112,128.2512 89.5048,128.9816 89.5048,129.9144 C89.5048,129.9584 89.5048,129.9936 89.5136,130.0376 C89.7864,129.6416 90.376,129.2808 91.0184,129.2808 C92.0744,129.2808 93.0248,129.9408 93.0248,131.1904 C93.0248,132.3344 92.1096,133.2056 90.772,133.2056 Z M90.7016,132.0968 C91.3792,132.0968 91.7488,131.6392 91.7488,131.2344 C91.7488,130.6184 91.2208,130.3544 90.6664,130.3544 C90.2264,130.3544 89.7952,130.5568 89.5136,130.9088 C89.5664,131.472 89.8832,132.0968 90.7016,132.0968 Z M98.2168,133.2056 C97.6184,133.2056 97.0816,132.8976 96.7384,132.4136 L96.7384,134.7192 L96.2808,134.7192 L96.2808,128.8496 L96.7384,128.8496 L96.7384,129.5184 C97.0376,129.0872 97.5832,128.744 98.2168,128.744 C99.352,128.744 100.1176,129.6064 100.1176,130.9704 C100.1176,132.3256 99.352,133.2056 98.2168,133.2056 Z M98.1376,132.792 C99.088,132.792 99.6248,132 99.6248,130.9704 C99.6248,129.9408 99.088,129.1576 98.1376,129.1576 C97.548,129.1576 96.9848,129.5096 96.7384,129.9144 L96.7384,132.0176 C96.9848,132.4224 97.548,132.792 98.1376,132.792 Z M103.1536,133.2056 C101.9128,133.2056 101.0328,132.2816 101.0328,130.9704 C101.0328,129.7384 101.8952,128.744 103.0744,128.744 C104.368,128.744 105.0808,129.7648 105.0808,130.9968 L105.0808,131.12 L101.5256,131.12 C101.5696,132.044 102.1856,132.8096 103.1888,132.8096 C103.7256,132.8096 104.2184,132.6072 104.5792,132.22 L104.8168,132.5192 C104.3944,132.9592 103.8576,133.2056 103.1536,133.2056 Z M104.6144,130.7592 C104.6056,130.0376 104.1304,129.14 103.0656,129.14 C102.0624,129.14 101.5608,130.02 101.5256,130.7592 L104.6144,130.7592 Z M106.7176,133.1 L106.26,133.1 L106.26,128.8496 L106.7176,128.8496 L106.7176,129.58 C107.0784,129.1048 107.5624,128.7616 108.152,128.7616 L108.152,129.2632 C108.0728,129.2456 108.0112,129.2456 107.9232,129.2456 C107.492,129.2456 106.9112,129.6328 106.7176,130.0024 L106.7176,133.1 Z M114.928,133.1 L114.4616,133.1 L114.4616,132.4224 C114.1624,132.8624 113.6168,133.2056 112.9832,133.2056 C111.8568,133.2056 111.0912,132.3432 111.0912,130.9792 C111.0912,129.6328 111.8568,128.744 112.9832,128.744 C113.5904,128.744 114.1272,129.052 114.4616,129.536 L114.4616,127.2304 L114.928,127.2304 L114.928,133.1 Z M113.0624,132.792 C113.6608,132.792 114.2152,132.44 114.4616,132.0352 L114.4616,129.932 C114.2152,129.5184 113.6608,129.1576 113.0624,129.1576 C112.1208,129.1576 111.5752,129.9496 111.5752,130.9792 C111.5752,132.0088 112.1208,132.792 113.0624,132.792 Z M119.5128,133.1 L119.0552,133.1 L119.0552,132.5984 C118.6768,133.012 118.2016,133.2056 117.612,133.2056 C116.8816,133.2056 116.1248,132.704 116.1248,131.7888 C116.1248,130.8648 116.8728,130.3808 117.612,130.3808 C118.2016,130.3808 118.6856,130.5744 119.0552,130.988 L119.0552,130.1256 C119.0552,129.492 118.5448,129.1488 117.92,129.1488 C117.3832,129.1488 116.9696,129.3336 116.5824,129.7736 L116.3272,129.4568 C116.7672,128.9816 117.26,128.744 117.964,128.744 C118.8264,128.744 119.5128,129.1576 119.5128,130.108 L119.5128,133.1 Z M117.7704,132.8448 C118.2808,132.8448 118.756,132.6512 119.0552,132.264 L119.0552,131.3312 C118.756,130.9352 118.2808,130.7416 117.7704,130.7416 C117.0752,130.7416 116.6088,131.1904 116.6088,131.7976 C116.6088,132.396 117.0752,132.8448 117.7704,132.8448 Z M120.6568,134.7632 L120.736,134.3408 C120.8328,134.3848 121,134.4112 121.1056,134.4112 C121.3872,134.4112 121.5808,134.2968 121.7568,133.892 L122.0912,133.1352 L120.2872,128.8496 L120.7976,128.8496 L122.3464,132.5632 L123.8776,128.8496 L124.3968,128.8496 L122.1968,134.0328 C121.968,134.5696 121.6072,134.8248 121.1144,134.8248 C120.9648,134.8248 120.7712,134.7984 120.6568,134.7632 Z M125.4264,133.1792 C125.2152,133.1792 125.0304,133.0032 125.0304,132.792 C125.0304,132.5896 125.2152,132.4136 125.4264,132.4136 C125.6376,132.4136 125.8136,132.5896 125.8136,132.792 C125.8136,133.0032 125.6376,133.1792 125.4264,133.1792 Z" id="You-spent-R2,449-on" fill="#4E4B6B"></path>
                <g id="money-alert-icon" transform="translate(67.540000, 15.400000)">
                    <g id="Shape">
                        <use fill="url(#linearGradient-3)" xlink:href="#path-4"></use>
                        <use fill-opacity="0.597429801" fill="#FFFFFF" xlink:href="#path-4"></use>
                    </g>
                    <g id="605-benchmark-eatingout" transform="translate(6.222334, 6.446512)">
                        <g id="Group">
                            <path d="M16.6534884,0 C7.45609981,0 0,7.45609981 0,16.6534884 C0,25.8508769 7.45609981,33.3069767 16.6534884,33.3069767 C25.8508769,33.3069767 33.3069767,25.8508769 33.3069767,16.6534884 C33.3069767,7.45609981 25.8508769,0 16.6534884,0 L16.6534884,0 Z M16.6534884,21.9826047 C13.7104839,21.9826047 11.3243721,19.5968259 11.3243721,16.6534884 C11.3243721,13.7104839 13.7104839,11.3243721 16.6534884,11.3243721 C19.5964928,11.3243721 21.9826047,13.7104839 21.9826047,16.6534884 C21.9826047,19.5968259 19.5964928,21.9826047 16.6534884,21.9826047 L16.6534884,21.9826047 Z" id="Shape" fill="url(#linearGradient-5)"></path>
                            <g id="Shape">
                                <use fill="url(#linearGradient-6)" xlink:href="#path-7"></use>
                                <use fill-opacity="0.25" fill="#F1692E" xlink:href="#path-7"></use>
                            </g>
                            <path d="M16.6568191,25.2456892 C14.3736258,25.2456892 12.0894333,24.0869394 10.6635617,22.3156744 C11.7836753,24.6301762 14.0462182,26.3138439 16.6568191,26.3138439 C19.268086,26.3138439 21.530629,24.6301762 22.6504095,22.3156744 C21.2245379,24.0866064 18.9406785,25.2456892 16.6568191,25.2456892 L16.6568191,25.2456892 Z" id="Shape" fill="#E2AC57"></path>
                            <path d="M16.6488254,3.2301106 C20.8068684,3.2301106 24.9672428,5.21287493 27.6417931,8.26845698 C25.4861655,4.48511749 21.3724208,1.92614247 16.6488254,1.92614247 C11.925563,1.92614247 7.81181833,4.48511749 5.65619079,8.26845698 C8.33107409,5.21287493 12.4907824,3.2301106 16.6488254,3.2301106 L16.6488254,3.2301106 Z" id="Shape" fill="#FFA5F5"></path>
                            <path d="M5.90599312,18.3145073 C5.72280474,18.0030871 5.3167927,17.8968378 4.99937721,18.0763624 C4.68196172,18.255887 4.57338098,18.6535723 4.75656935,18.9646595 L5.75211488,20.6543224 C5.93530326,20.9654096 6.3413153,21.0719919 6.65873079,20.8924673 C6.97614628,20.7129427 7.08506009,20.3152574 6.90153865,20.0041702 L5.90599312,18.3145073 L5.90599312,18.3145073 Z M13.6348771,1.77626107 C13.5472797,1.45584795 13.2118785,1.26566512 12.8854701,1.35159712 L11.1122067,1.81822786 C10.7857983,1.90415986 10.5919517,2.23356586 10.679549,2.55397898 C10.7671464,2.87439209 11.1025476,3.06457493 11.428956,2.97864293 L13.2022194,2.51234526 C13.5286278,2.42641326 13.7221413,2.09700726 13.6348771,1.77626107 L13.6348771,1.77626107 Z" id="Shape" fill="#E4776E"></path>
                            <path d="M11.1125397,6.68004726 L9.15275721,7.20263372 C8.79204265,7.29889088 8.5855394,7.69890767 8.69212172,8.09659298 C8.79837098,8.49394521 9.17740437,8.73808535 9.53811893,8.64182819 L11.4979014,8.11924172 C11.858616,8.02298456 12.0651193,7.6226347 11.9585369,7.22561553 C11.8519546,6.82793023 11.4732543,6.58412316 11.1125397,6.68004726 L11.1125397,6.68004726 Z M25.641043,9.32328893 C25.6403768,8.9545807 25.3436117,8.65548405 24.9782341,8.65581712 C24.6125235,8.65581712 24.3167576,8.9545807 24.3167576,9.323622 L24.3190891,11.3270367 C24.3194221,11.6957449 24.6161873,11.9948415 24.9818979,11.9945085 C25.3476085,11.9945085 25.6437075,11.6954118 25.6430414,11.3267036 L25.641043,9.32328893 L25.641043,9.32328893 Z" id="Shape" fill="#51B8DA"></path>
                            <path d="M31.6163146,14.4645539 L31.0574235,12.4957785 C30.954505,12.1333986 30.5604834,11.9182355 30.1767871,12.0154919 C29.7934238,12.1127482 29.565604,12.4851202 29.6685226,12.8475001 L30.2267475,14.8166086 C30.3296661,15.1789885 30.7236876,15.3938185 31.1077171,15.2968952 C31.4914134,15.1996388 31.7189001,14.8272668 31.6163146,14.4645539 L31.6163146,14.4645539 Z M3.82863698,6.17144972 C3.48857274,5.96861023 3.06424186,6.07119572 2.88038735,6.40026865 L1.88317647,8.18718795 C1.69965502,8.51626088 1.82622153,8.94725316 2.16628577,9.14975958 C2.50635,9.352266 2.93068088,9.24968051 3.11420233,8.92094065 L4.11174628,7.13368828 C4.29526772,6.80494842 4.16870121,6.37395614 3.82863698,6.17144972 L3.82863698,6.17144972 Z M19.6627737,6.08718307 L17.9734439,7.07340265 C17.6620236,7.25492567 17.5584389,7.66260307 17.7419604,7.98334926 C17.9254818,8.30442851 18.3261647,8.41767223 18.6372519,8.23614921 L20.3265818,7.24992963 C20.6376689,7.0684066 20.7412536,6.66072921 20.5580653,6.33998302 C20.3745438,6.0185707 19.9738609,5.90566005 19.6627737,6.08718307 L19.6627737,6.08718307 Z" id="Shape" fill="#75C9BA"></path>
                            <path d="M5.32611865,11.7480368 C5.00870316,11.5685122 4.60302419,11.6750946 4.41950274,11.9861817 L3.42395721,13.6758447 C3.24076884,13.9872649 3.34934958,14.3846171 3.66676507,14.5644748 C3.98418056,14.7439994 4.3901926,14.6374171 4.57338098,14.3263299 L5.56892651,12.6363339 C5.75244795,12.3255798 5.64353414,11.9278945 5.32611865,11.7480368 L5.32611865,11.7480368 Z M24.9898916,4.08709912 L23.2945665,3.08788981 C22.982147,2.9040353 22.5831294,3.01294912 22.4029387,3.33169688 C22.222748,3.65011158 22.3296633,4.05778898 22.6420828,4.24131042 L24.3374079,5.24051972 C24.6494943,5.42437423 25.0485119,5.31546042 25.2287026,4.99671265 C25.4088933,4.67863102 25.302311,4.2712867 24.9898916,4.08709912 L24.9898916,4.08709912 Z" id="Shape" fill="#F4F4F4"></path>
                            <path d="M16.6534884,9.32595349 C12.9743997,9.32595349 9.99209302,12.3082602 9.99209302,15.9873488 C9.99209302,19.6664375 12.9743997,22.6487442 16.6534884,22.6487442 C20.332577,22.6487442 23.3148837,19.6664375 23.3148837,15.9873488 C23.3148837,12.3082602 20.332577,9.32595349 16.6534884,9.32595349 L16.6534884,9.32595349 Z M16.6534884,21.9826047 C13.7104839,21.9826047 11.3243721,19.5968259 11.3243721,16.6534884 C11.3243721,13.7104839 13.7104839,11.3243721 16.6534884,11.3243721 C19.5964928,11.3243721 21.9826047,13.7104839 21.9826047,16.6534884 C21.9826047,19.5968259 19.5964928,21.9826047 16.6534884,21.9826047 L16.6534884,21.9826047 Z" id="Shape" fill="#E2AC57"></path>
                            <path d="M16.6534884,31.5353787 C7.75319805,31.5353787 0.484616512,24.5532371 0.0239810233,15.7678559 C0.00832674419,16.0609573 1.05796509e-16,16.3560571 1.05796509e-16,16.6534884 C1.05796509e-16,25.8508769 7.45609981,33.3069767 16.6534884,33.3069767 C25.8508769,33.3069767 33.3069767,25.8508769 33.3069767,16.6534884 C33.3069767,16.3560571 33.29865,16.0609573 33.2833288,15.7675228 C32.8226933,24.5532371 25.5537787,31.5353787 16.6534884,31.5353787 L16.6534884,31.5353787 Z" id="Shape" fill="#E2AC57"></path>
                            <g transform="translate(1.665349, 6.328326)" fill="#64AB9E" id="Shape">
                                <path d="M18.6608999,0.588867349 L16.97157,1.57508693 C16.6604828,1.75660995 16.2597999,1.6436993 16.0762785,1.32228698 C16.0433046,1.26499898 16.0229873,1.20438028 16.0083322,1.14342851 C15.9647001,1.30929726 15.9836851,1.49315177 16.0762785,1.65535674 C16.2597999,1.976436 16.6604828,2.08967972 16.97157,1.9081567 L18.6608999,0.921937116 C18.9166974,0.77272186 19.0286089,0.471293721 18.9603296,0.190515907 C18.9180297,0.353387023 18.8151112,0.498605442 18.6608999,0.588867349 L18.6608999,0.588867349 Z M2.44639744,0.47229293 L1.44885349,2.2595453 C1.26533205,2.58828516 0.841001163,2.69087065 0.50093693,2.48836423 C0.320413116,2.3807827 0.202173349,2.20791949 0.156542791,2.02073428 C0.0819351628,2.31816558 0.21449693,2.65056921 0.50093693,2.821434 C0.841001163,3.02394042 1.26533205,2.92135493 1.44885349,2.59261507 L2.44639744,0.805362698 C2.53232944,0.651484465 2.54798372,0.475290558 2.50768228,0.310421023 C2.49369335,0.366043674 2.47537451,0.420667116 2.44639744,0.47229293 L2.44639744,0.47229293 Z M29.4420352,8.63549986 C29.0583388,8.73242316 28.6639842,8.51759316 28.5610656,8.15521326 L28.0028407,6.18610479 L28.0021746,6.18210795 C27.9741967,6.28968949 27.9701999,6.40426549 28.0028407,6.51917456 L28.5610656,8.48828302 C28.6639842,8.85066293 29.0580057,9.06549293 29.4420352,8.96856963 C29.8243993,8.87164633 30.0515528,8.50160581 29.9512988,8.14022512 C29.8906801,8.37270781 29.7048272,8.56888591 29.4420352,8.63549986 L29.4420352,8.63549986 Z"></path>
                            </g>
                            <g transform="translate(8.659814, 6.994465)" fill="#459DBA" id="Shape">
                                <path d="M2.83808749,0.791373767 L0.878304977,1.31396023 C0.517590419,1.4102174 0.138557023,1.16607726 0.0323077674,0.768725023 L0.0249802326,0.726092093 C-0.000999209302,0.844998 -0.00233148837,0.972896791 0.0323077674,1.10179479 C0.138557023,1.49914702 0.517590419,1.74328716 0.878304977,1.64703 L2.83808749,1.12444353 C3.1861454,1.03185014 3.38731953,0.656147442 3.30605051,0.273450279 C3.25209321,0.521587256 3.08189456,0.726758233 2.83808749,0.791373767 L2.83808749,0.791373767 Z M16.322084,4.66697358 C15.9560403,4.66697358 15.6596082,4.36821 15.6592751,3.99950177 L15.6572767,2.32549312 L15.6569436,2.32915688 L15.6592751,4.33257153 C15.6596082,4.70127977 15.9563733,5.00037642 16.322084,5.00004335 C16.6877946,5.00004335 16.9838936,4.7009467 16.9832274,4.33223847 L16.9828944,4.0024994 C16.9818952,4.36987535 16.6867953,4.66697358 16.322084,4.66697358 L16.322084,4.66697358 Z"></path>
                            </g>
                            <g transform="translate(3.330698, 3.330698)" fill="#D3D3D3" id="Shape">
                                <path d="M21.8980049,1.33361135 C21.7178142,1.65235912 21.3187966,1.76127293 21.0067102,1.57741842 L19.3113851,0.578209116 C19.1551754,0.48628186 19.0505915,0.338398884 19.0072924,0.173529349 C18.938347,0.454640233 19.053256,0.75939907 19.3113851,0.911278884 L21.0067102,1.91048819 C21.3187966,2.0943427 21.7178142,1.98542888 21.8980049,1.66668112 C21.9882668,1.5071407 22.0062526,1.32595074 21.9632866,1.16108121 C21.9486315,1.22003456 21.9293135,1.27832177 21.8980049,1.33361135 L21.8980049,1.33361135 Z M2.23856191,8.97289953 L1.24301637,10.6628955 C1.059828,10.9739827 0.653815953,11.080565 0.336400465,10.9010404 C0.178525395,10.8117777 0.0726092093,10.6685577 0.0283109302,10.5090173 C-0.0442982791,10.7847991 0.0722761395,11.0845619 0.336400465,11.2341102 C0.653815953,11.4136348 1.059828,11.3070525 1.24301637,10.9959653 L2.23856191,9.3059693 C2.33082223,9.14942651 2.348808,8.97123419 2.30384358,8.80936228 C2.28885544,8.865318 2.26920433,8.92060758 2.23856191,8.97289953 L2.23856191,8.97289953 Z"></path>
                            </g>
                            <g transform="translate(4.662977, 1.665349)" fill="#C5675F" id="Shape">
                                <path d="M1.99542098,18.8943818 C1.67800549,19.0739064 1.27232651,18.967324 1.08880507,18.6562369 L0.0932595349,16.966574 C0.0622840465,16.914282 0.0426329302,16.8589924 0.0279778605,16.8033698 C-0.0169865581,16.9649086 0.000999209302,17.143434 0.0932595349,17.2996437 L1.08880507,18.9893067 C1.27199344,19.3003938 1.67800549,19.4069761 1.99542098,19.2274515 C2.2595453,19.0782363 2.37645279,18.7781404 2.30351051,18.5023587 C2.25921223,18.661566 2.15329605,18.8051191 1.99542098,18.8943818 L1.99542098,18.8943818 Z M8.96690428,0.0982555814 C8.90961628,0.294100605 8.75440577,0.457304791 8.5392427,0.513926651 L6.76597926,0.980224326 C6.44423386,1.06482405 6.11449479,0.880303395 6.02156833,0.568217023 C5.99192512,0.669470233 5.98692907,0.779383256 6.01657228,0.88863014 C6.10416963,1.20904326 6.43957088,1.39922609 6.76597926,1.31329409 L8.5392427,0.846996419 C8.86565107,0.761064419 9.05949767,0.431658419 8.97190033,0.110912233 L8.96690428,0.0982555814 L8.96690428,0.0982555814 Z"></path>
                            </g>
                            <g transform="translate(0.000000, 15.654279)" fill="#DFABA3" id="Shape">
                                <path d="M33.2833288,0.11424293 C33.255684,0.643157721 33.2017267,1.16507805 33.1257868,1.68000391 C33.1870716,1.53811619 33.2450258,1.39922609 33.2999823,1.26566512 L33.3069767,0.999209302 C33.3069767,0.702777209 33.29865,0.408343535 33.2833288,0.115908279 L33.2833288,0.11424293 L33.2833288,0.11424293 Z M0.07161,2.51534288 L0.0799367442,2.62492284 C0.132228698,3.15650219 0.209500884,3.68042093 0.309754884,4.196346 L0.834672837,4.43116019 C0.384362512,3.06091116 0.102585488,1.61472223 0.0239810233,0.113243721 C0.00832674419,0.406678186 6.9388939e-17,0.701778 6.9388939e-17,0.999209302 C6.9388939e-17,1.27599028 0.00732753488,1.55110591 0.0206503256,1.82488926 C0.0326408372,2.05637274 0.0506266047,2.28619088 0.07161,2.51534288 L0.07161,2.51534288 Z"></path>
                            </g>
                            <g id="Shape">
                                <use fill="#C851BA" xlink:href="#path-8"></use>
                                <use fill-opacity="0.256482111" fill="#F1692E" xlink:href="#path-8"></use>
                            </g>
                            <g transform="translate(0.000000, 15.987349)" fill="#D69022" id="Shape">
                                <path d="M11.3346973,0.461634698 C10.4697151,0.695116605 9.04850637,1.33061372 8.99288372,2.99762791 C8.91261391,5.399394 5.9942566,9.73463009 3.66376744,6.32832558 C2.61060084,4.78921019 1.40189065,4.35921712 0.310087953,3.86327623 L0.382031023,4.22365772 C1.47383372,4.7195986 2.61060084,5.12227995 3.66376744,6.66139535 C5.9942566,10.0676999 8.91261391,5.73246377 8.99288372,3.33069767 C9.04850637,1.66368349 10.4560592,1.02752023 11.3210414,0.794038326 L11.3346973,0.461634698 L11.3346973,0.461634698 Z M33.2999823,0.932595349 C32.4333347,3.04059391 30.7789772,6.39627181 28.644,3.33069767 C25.4375373,-1.27299265 24.2508098,-0.103251628 23.9810233,1.33227907 C23.8431324,2.06669791 22.6877133,2.77014126 21.6515333,2.51667516 C21.6202247,2.62059293 21.5636029,2.72251228 21.5266321,2.82376549 C22.5934546,3.14984079 23.8384694,2.42308256 23.9810233,1.66534884 C24.2508098,0.22981814 25.4375373,-0.939922884 28.644,3.66376744 C30.7789772,6.72934158 32.4333347,3.37366367 33.2999823,1.26566512 L33.3069767,0.999209302 L33.3026468,0.83134214 L33.2999823,0.932595349 L33.2999823,0.932595349 Z"></path>
                            </g>
                            <path d="M11.3243721,16.6534884 L11.3346973,16.4489835 C10.9669882,16.5482383 10.5000244,16.7211015 10.0790242,17.0135368 C10.0943454,17.1124585 10.1046706,17.2130456 10.1243217,17.310302 C10.5280023,17.0398493 10.9689867,16.876312 11.3210414,16.7813872 L11.3253713,16.6768033 L11.3243721,16.6534884 L11.3243721,16.6534884 Z M0.962238558,20.471134 C0.91694107,20.3439014 0.876972698,20.2143373 0.834672837,20.0854393 L0.309754884,19.8506251 L0.363046047,20.117414 L0.385028651,20.2123388 L0.962238558,20.471134 L0.962238558,20.471134 Z M21.6515333,18.504024 C21.6322153,18.5676403 21.6042374,18.6309236 21.5762595,18.6932076 L21.5469494,18.7621531 L21.5262991,18.8107813 C21.9093293,18.9280218 22.3150083,18.9077046 22.6850488,18.8007892 C22.7440021,18.6745557 22.7999579,18.5473231 22.8509175,18.4174259 C22.4778794,18.5549837 22.0562131,18.6029457 21.6515333,18.504024 L21.6515333,18.504024 Z M33.3026468,16.818691 L33.2999823,16.9199442 C33.2450258,17.0535052 33.1867386,17.1923953 33.1257868,17.334283 C33.0988081,17.5174713 33.0655012,17.6986613 33.0325273,17.8798513 C33.1251207,17.6716827 33.2113857,17.468177 33.2913225,17.2746635 C33.2969847,17.1234498 33.3009815,16.9722361 33.3026468,16.8200233 L33.3026468,16.818691 L33.3026468,16.818691 Z" id="Shape" fill="#BB7E1E"></path>
                        </g>
                    </g>
                </g>
            </g>
        </g>
    </g>
</svg>