<?xml version="1.0" encoding="UTF-8"?>
<svg width="64px" height="109px" viewBox="0 0 64 109" version="1.1" xmlns="http://www.w3.org/2000/svg" xmlns:xlink="http://www.w3.org/1999/xlink">
    <!-- Generator: Sketch 52.6 (67491) - http://www.bohemiancoding.com/sketch -->
    <desc>Created with Sketch.</desc>
    <defs>
        <linearGradient x1="-20.0626299%" y1="-196.167906%" x2="101.999998%" y2="100.999999%" id="linearGradient-1">
            <stop stop-color="#FFC819" offset="0%"></stop>
            <stop stop-color="#FFF9F7" offset="100%"></stop>
        </linearGradient>
        <linearGradient x1="50%" y1="91.3885582%" x2="21.6957838%" y2="14.982453%" id="linearGradient-2">
            <stop stop-color="#13C6B9" offset="0%"></stop>
            <stop stop-color="#26B1C9" offset="100%"></stop>
        </linearGradient>
        <path d="M22.3014731,56.3004528 C42.2386662,56.3004528 44.5110944,49.8995081 44.5110944,35.9651116 C44.5110944,24.1466088 31.2548118,12.7162047 25.2646256,9.51736855 C24.6881175,9.20950588 35.724443,4.85472165 32.0211696,1.95018065 C31.373466,1.44217562 30.4697935,1.44217562 30.0923538,1.78920427 C29.1400197,2.66480689 27.5698393,3.09453858 26.2825208,2.86489514 C24.9952023,2.6352517 23.7957027,0.401241502 22.3014731,0.401241502 C20.6464669,0.401241502 19.8959651,2.25758146 18.3493629,2.54692322 C17.5751679,2.69176134 15.2365493,1.36544037 13.6743138,1.21585095 C12.1156858,1.06660696 11.3324692,2.09373488 11.3942124,2.54692322 C11.5470844,3.66898843 12.7533458,7.22047114 16.0641554,8.63582148 C18.054778,9.48680019 18.7112915,9.51736855 18.6990502,9.51736855 C17.8167595,9.51736855 18.5785957,9.25213056 16.0641554,11.1810971 C10.2418752,15.6476909 0.0918517941,25.8493363 0.0918517941,35.9651116 C0.0918517941,49.8995081 2.36427996,56.3004528 22.3014731,56.3004528 Z" id="path-3"></path>
    </defs>
    <g id="Page-1" stroke="none" stroke-width="1" fill="none" fill-rule="evenodd">
        <g id="illustration/goals">
            <g transform="translate(0.712800, 0.529740)">
                <path d="M49.8845952,39.7520064 L49.8845952,81.3553502 L12.4711488,81.3553502 L12.4711488,39.7520064 L3.15686501,39.7520064 C2.42422039,39.7520064 1.71497673,39.493996 1.15358223,39.0232472 C-0.165841539,37.9168647 -0.33854559,35.9503602 0.767836939,34.6309364 L28.8809958,1.10440363 C28.9980599,0.964798121 29.1271356,0.835722394 29.2667411,0.718658338 C30.5861649,-0.38772419 32.5526694,-0.21502014 33.6590519,1.10440363 L61.7722108,34.6309364 C62.2429595,35.1923309 62.5009699,35.9015745 62.5009699,36.6342192 C62.5009699,38.3561255 61.1050891,39.7520064 59.3831827,39.7520064 L49.8845952,39.7520064 Z" id="Rectangle-5" fill="url(#linearGradient-1)" fill-rule="nonzero"></path>
                <g id="Group-10" transform="translate(18.042750, 17.878725)" fill="#96D187" fill-rule="nonzero">
                    <path d="M12.6154908,10.9560827 C14.3475948,9.41920374 15.2136468,7.70284614 15.2136468,5.80700988 C15.2136468,3.91117362 14.3475948,2.19481602 12.6154908,0.65793708 C10.8833868,2.19481602 10.0173348,3.91117362 10.0173348,5.80700988 C10.0173348,7.70284614 10.8833868,9.41920374 12.6154908,10.9560827 Z" id="Oval-4"></path>
                    <path d="M7.44354106,23.5526058 C9.50292559,21.7080697 10.5274507,19.6423558 10.5171165,17.3554641 C10.5067823,15.0685724 9.46354533,12.9935026 7.3874057,11.1302547 C5.32802118,12.9747908 4.30349603,15.0405047 4.31383027,17.3273964 C4.3241645,19.6142881 5.36740144,21.6893579 7.44354106,23.5526058 Z" id="Oval-4-Copy" transform="translate(7.415473, 17.341430) rotate(-49.000000) translate(-7.415473, -17.341430) "></path>
                    <path d="M12.4539289,35.8865911 L12.4539289,8.78132523" id="Path-3" stroke="#96D187" stroke-width="1.0392624"></path>
                    <path d="M16.8299606,28.5978946 C19.2452068,26.6739996 20.4474371,24.5186651 20.4366515,22.131891 C20.4258659,19.7451169 19.2041065,17.5788147 16.7713734,15.6329843 C14.3561272,17.5568793 13.1538969,19.7122138 13.1646825,22.0989879 C13.1754681,24.485762 14.3972274,26.6520642 16.8299606,28.5978946 Z" id="Oval-4-Copy-2" transform="translate(16.800667, 22.115439) scale(-1, 1) rotate(-49.000000) translate(-16.800667, -22.115439) "></path>
                </g>
                <g id="Rectangle-4" transform="translate(8.314099, 51.093423)">
                    <mask id="mask-4" fill="white">
                        <use xlink:href="#path-3"></use>
                    </mask>
                    <use id="Mask" fill="url(#linearGradient-2)" fill-rule="nonzero" xlink:href="#path-3"></use>
                </g>
                <text id="R" font-family="Helvetica" font-size="16.6281984" font-weight="normal" fill="#FFD86F">
                    <tspan x="24.9422976" y="91.0855538">R</tspan>
                </text>
                <rect id="Rectangle" fill="#FFD86F" fill-rule="nonzero" x="21.8245104" y="59.7292445" width="16.6281984" height="3.08944368" rx="1.54472184"></rect>
            </g>
        </g>
    </g>
</svg>