<?xml version="1.0" encoding="UTF-8"?>
<svg width="120.812698px" height="120.351852px" viewBox="0 0 120.812698 120.351852" version="1.1" xmlns="http://www.w3.org/2000/svg" xmlns:xlink="http://www.w3.org/1999/xlink">
    <!-- Generator: Sketch 52.6 (67491) - http://www.bohemiancoding.com/sketch -->
    <desc>Created with Sketch.</desc>
    <defs>
        <filter x="-56.8%" y="-57.3%" width="214.3%" height="216.1%" filterUnits="objectBoundingBox" id="filter-1">
            <feOffset dx="0" dy="4" in="SourceAlpha" result="shadowOffsetOuter1"></feOffset>
            <feGaussianBlur stdDeviation="7" in="shadowOffsetOuter1" result="shadowBlurOuter1"></feGaussianBlur>
            <feColorMatrix values="0 0 0 0 0   0 0 0 0 0   0 0 0 0 0  0 0 0 0.115404212 0" type="matrix" in="shadowBlurOuter1" result="shadowMatrixOuter1"></feColorMatrix>
            <feMerge>
                <feMergeNode in="shadowMatrixOuter1"></feMergeNode>
                <feMergeNode in="SourceGraphic"></feMergeNode>
            </feMerge>
        </filter>
    </defs>
    <g id="Page-1" stroke="none" stroke-width="1" fill="none" fill-rule="evenodd">
        <g id="icon/goals/rainyday">
            <g filter="url(#filter-1)" transform="translate(29.379373, 30.076457)">
                <path d="M30.8009551,61.0928036 C13.7904028,61.0928036 0,47.4167206 0,30.5464018 C0,13.676083 13.7904028,0 30.8009551,0 C47.8118599,0 61.6019103,13.676083 61.6019103,30.5464018 C61.6019103,47.4167206 47.8118599,61.0928036 30.8009551,61.0928036 Z" id="Fill-1-Copy-3" fill="#FFFFFF" fill-rule="nonzero"></path>
                <g id="protection" transform="translate(12.320382, 8.145707)" fill-rule="nonzero">
                    <g id="Group" transform="translate(11.339255, 6.460205)" fill="#415A6B">
                        <path d="M5.35815989,15.4851116 L5.35815989,30.6033473 C5.35815989,31.4191675 4.6881788,32.0819367 3.8672489,32.0819367 C3.04463018,32.0819367 2.37464909,31.4192473 2.37464909,30.6033473 L2.37464909,29.6879921 C2.37464909,29.058481 1.86164833,28.548045 1.22689131,28.548045 C0.592134289,28.548045 0.0774446992,29.058481 0.0774446992,29.6879921 L0.0774446992,30.6033473 C0.0774446992,32.6757173 1.77592035,34.3618308 3.8672489,34.3618308 C5.95688864,34.3618308 7.65536428,32.6757173 7.65536428,30.6033473 L7.65536428,15.4851116 L5.35815989,15.4851116 Z" id="Shape"></path>
                        <path d="M7.65536428,3.45501338 L7.65536428,1.21675171 C7.65536428,0.587240617 7.14236352,0.0776022165 6.5076065,0.0776022165 C5.87284948,0.0776022165 5.35815989,0.587160861 5.35815989,1.21675171 L5.35815989,3.45501338 L7.65536428,3.45501338 Z" id="Shape"></path>
                    </g>
                    <path d="M6.40016505,23.9462256 C8.74200268,23.9462256 9.8485853,24.3852005 11.2794224,25.5328041 C12.8226065,24.3843232 15.1945213,23.6501727 17.8468615,23.6501727 C20.4975129,23.6501727 22.8711165,24.3843232 24.4126119,25.5328041 C25.8434489,24.3843232 26.9491469,23.9462256 29.2918692,23.9462256 C32.0497208,23.9462256 34.4404539,24.8564765 35.6379918,26.1879168 C34.9027899,15.9579029 27.2279639,7.90577566 17.8468615,7.90577566 C8.46575913,7.90577566 0.789163897,15.9579029 0.0557312321,26.1879168 C1.25158033,24.8573538 3.64231347,23.9462256 6.40016505,23.9462256" id="Shape" fill="#F3705A"></path>
                    <path d="M17.8468615,7.90665297 C14.888281,7.90665297 12.1406428,15.0272346 11.3060415,25.5150186 C12.8475368,24.3784213 15.209962,23.6510501 17.8468615,23.6510501 C20.483761,23.6510501 22.8444974,24.3784213 24.3859928,25.5150186 C23.551311,15.0272346 20.805442,7.90665297 17.8468615,7.90665297" id="Shape" fill="#F05540"></path>
                    <path d="M6.45074938,10.8076041 C6.45074938,11.9730729 5.49945827,12.9182568 4.32339255,12.9182568 C3.14901567,12.9182568 2.19603572,11.9730729 2.19603572,10.8076041 C2.19603572,9.64293278 4.32339255,6.91210041 4.32339255,6.91210041 C4.32339255,6.91210041 6.45074938,9.64301253 6.45074938,10.8076041" id="Shape" fill="#8AD7F8"></path>
                    <path d="M4.32250793,12.2453586 C3.52305024,12.2453586 2.87365674,11.6005344 2.87365674,10.8084814 C2.87365674,10.6843019 2.97571003,10.5830123 3.10012016,10.5830123 C3.22453028,10.5830123 3.32658357,10.6842221 3.32658357,10.8084814 C3.32658357,11.3537705 3.7734789,11.796175 4.32339255,11.796175 C4.44780268,11.796175 4.54985597,11.8973848 4.54985597,12.0216441 C4.54985597,12.1459033 4.44691806,12.2453586 4.32250793,12.2453586" id="Shape" fill="#FFFFFF"></path>
                    <path d="M19.9742184,3.89630122 C19.9742184,5.06177007 19.021158,6.0069539 17.8468615,6.0069539 C16.6707958,6.0069539 15.7177354,5.06177007 15.7177354,3.89630122 C15.7177354,2.73083237 17.8468615,0 17.8468615,0 C17.8468615,0 19.9742184,2.73083237 19.9742184,3.89630122" id="Shape" fill="#8AD7F8"></path>
                    <path d="M17.8468615,5.33405575 C17.0474038,5.33405575 16.3963215,4.68923157 16.3963215,3.89630122 C16.3963215,3.77291928 16.4983748,3.6717094 16.6227849,3.6717094 C16.7479992,3.6717094 16.8509372,3.77291928 16.8509372,3.89630122 C16.8509372,4.44246769 17.2970283,4.88487211 17.8477461,4.88487211 C17.9721563,4.88487211 18.0742096,4.98608199 18.0742096,5.10946393 C18.0733249,5.23364342 17.9712716,5.33405575 17.8468615,5.33405575" id="Shape" fill="#FFFFFF"></path>
                    <path d="M32.4348533,7.43027266 C32.4348533,8.59574151 31.481793,9.54092534 30.3057272,9.54092534 C29.1313504,9.54092534 28.1783704,8.59574151 28.1783704,7.43027266 C28.1783704,6.26480381 30.3057272,3.53397144 30.3057272,3.53397144 C30.3057272,3.53397144 32.4348533,6.26472406 32.4348533,7.43027266" id="Shape" fill="#8AD7F8"></path>
                    <path d="M30.304923,8.86882475 C29.5054654,8.86882475 28.8560718,8.22400057 28.8560718,7.43107022 C28.8560718,7.30768828 28.9581251,7.2064784 29.0825353,7.2064784 C29.2069454,7.2064784 29.3089987,7.30768828 29.3089987,7.43107022 C29.3089987,7.97723669 29.755894,8.41964111 30.3058077,8.41964111 C30.4302178,8.41964111 30.5322711,8.52085099 30.5322711,8.64423293 C30.5313865,8.76761487 30.4293332,8.86882475 30.304923,8.86882475" id="Shape" fill="#FFFFFF"></path>
                    <path d="M11.4166997,18.9362967 C11.4166997,20.1017655 10.4636394,21.0469494 9.28934289,21.0469494 C8.11327718,21.0469494 7.16198606,20.1017655 7.16198606,18.9362967 C7.16198606,17.7708278 9.28934289,15.0399955 9.28934289,15.0399955 C9.28934289,15.0399955 11.4166997,17.7699505 11.4166997,18.9362967" id="Shape" fill="#8AD7F8"></path>
                    <path d="M9.28845827,20.3740512 C8.48900058,20.3740512 7.83791825,19.729227 7.83791825,18.9362967 C7.83791825,18.8129147 7.93997154,18.7117049 8.06607049,18.7117049 C8.19048062,18.7117049 8.29253391,18.8129147 8.29253391,18.9362967 C8.29253391,19.4824632 8.73862503,19.9248676 9.28934289,19.9248676 C9.41375302,19.9248676 9.51580631,20.0260775 9.51580631,20.1503367 C9.51572589,20.2745162 9.41278797,20.3740512 9.28845827,20.3740512" id="Shape" fill="#FFFFFF"></path>
                    <path d="M27.3394264,16.1808198 C27.3394264,17.3462887 26.386366,18.2914725 25.2120696,18.2914725 C24.0360038,18.2914725 23.0829435,17.3462887 23.0829435,16.1808198 C23.0829435,15.015351 25.2120696,12.2845186 25.2120696,12.2845186 C25.2120696,12.2845186 27.3394264,15.015351 27.3394264,16.1808198" id="Shape" fill="#8AD7F8"></path>
                    <path d="M25.2120696,17.6193719 C24.4126119,17.6193719 23.7615295,16.9745477 23.7615295,16.1816174 C23.7615295,16.0582354 23.8635828,15.9570256 23.987993,15.9570256 C24.1132073,15.9570256 24.2161452,16.0582354 24.2161452,16.1816174 C24.2161452,16.7277839 24.6622363,17.1701883 25.2129542,17.1701883 C25.3373643,17.1701883 25.4394176,17.2713982 25.4394176,17.3956574 C25.4394176,17.5199167 25.3355951,17.6193719 25.2120696,17.6193719" id="Shape" fill="#FFFFFF"></path>
                </g>
            </g>
        </g>
    </g>
</svg>