<?xml version="1.0" encoding="UTF-8"?>
<svg width="98px" height="97px" viewBox="0 0 98 97" version="1.1" xmlns="http://www.w3.org/2000/svg" xmlns:xlink="http://www.w3.org/1999/xlink">
    <!-- Generator: Sketch 52.6 (67491) - http://www.bohemiancoding.com/sketch -->
    <desc>Created with Sketch.</desc>
    <defs>
        <filter x="-74.4%" y="-74.4%" width="248.9%" height="248.9%" filterUnits="objectBoundingBox" id="filter-1">
            <feOffset dx="0" dy="4" in="SourceAlpha" result="shadowOffsetOuter1"></feOffset>
            <feGaussianBlur stdDeviation="6.5" in="shadowOffsetOuter1" result="shadowBlurOuter1"></feGaussianBlur>
            <feColorMatrix values="0 0 0 0 0   0 0 0 0 0   0 0 0 0 0  0 0 0 0.115404212 0" type="matrix" in="shadowBlurOuter1" result="shadowMatrixOuter1"></feColorMatrix>
            <feMerge>
                <feMergeNode in="shadowMatrixOuter1"></feMergeNode>
                <feMergeNode in="SourceGraphic"></feMergeNode>
            </feMerge>
        </filter>
    </defs>
    <g id="Page-1" stroke="none" stroke-width="1" fill="none" fill-rule="evenodd">
        <g id="icon/goals/holiday">
            <g filter="url(#filter-1)" transform="translate(26.000000, 26.000000)">
                <path d="M22.5,45 C10.0738455,45 0,34.926412 0,22.5 C0,10.073588 10.0738455,0 22.5,0 C34.9264119,0 45,10.073588 45,22.5 C45,34.926412 34.9264119,45 22.5,45 Z" id="Fill-1-Copy-2" fill="#FFFFFF" fill-rule="nonzero"></path>
                <g id="002-sun-umbrella" transform="translate(9.145497, 9.405312)" fill-rule="nonzero">
                    <path d="M13.2625289,20.0072806 L17.8685855,8.45059469 C18.0613164,7.96702656 18.6095785,7.73121824 19.0931467,7.92394919 C19.5767148,8.11668014 19.8125231,8.66494226 19.6197921,9.14851039 L15.2209642,20.185254 L13.2625289,20.0072806 Z" id="Shape" fill="#90A4AE"></path>
                    <path d="M15.0781697,9.96246478 C15.0804197,9.95721478 15.0826697,9.95196478 15.0849197,9.94671478 C15.0826697,9.94696478 15.0804197,9.94746478 15.0784197,9.94771478 L15.0781697,9.96246478 Z" id="Shape" fill="#FFF9C5"></path>
                    <path d="M19.0932506,7.92394919 C18.6096824,7.73121824 18.0614203,7.9669746 17.8686894,8.45059469 L16.6625751,11.4767667 C16.9698845,11.5258718 17.2755312,11.6097402 17.5764492,11.7297229 C17.8773672,11.8496536 18.1580716,11.9989434 18.4141455,12.1737471 L19.6198961,9.14856236 C19.8125751,8.6648903 19.5768187,8.11668014 19.0932506,7.92394919 Z" id="Shape" fill="#000000" opacity="0.1"></path>
                    <path d="M20.7611085,3.73931293 L17.285612,4.11287529 L15.0781697,6.68374711 L15.0785335,9.94614319 L15.0800924,9.94551963 C15.0799365,9.94588337 15.0797806,9.94629908 15.0795727,9.94666282 C16.0435912,9.76765012 17.11694,9.86154734 18.1558891,10.2756409 C19.188239,10.6870843 20.0274942,11.3514838 20.6038164,12.1378406 L20.6138972,12.1562356 L22.4295901,10.3585219 L22.632142,5.87265589 L20.7611085,3.73931293 Z" id="Shape" fill="#FFF9C5"></path>
                    <path d="M23.9867667,22.0395554 C22.7219861,20.0178291 18.4383603,18.5300231 13.3485797,18.5300231 C8.25895497,18.5300231 3.97548499,20.0177252 2.7105485,22.0393476 L3.42114319,22.0395554 L4.96325058,23.0285162 L6.58475751,23.2047748 L7.72752887,22.5445323 L9.54145497,21.8829388 L10.5148788,22.1472748 L12.5857621,23.2047748 L13.9516628,22.9844515 L15.7140935,22.3268591 L16.9918649,21.9270035 L18.6221016,22.3268591 L19.9439376,23.2047748 L22.0588857,22.9404388 L23.9867667,22.0395554 Z" id="Shape" fill="#FFCA28"></path>
                    <path d="M22.2073441,22.8710681 L23.9868187,22.0395554 C22.7220381,20.0178811 18.4384122,18.5300231 13.3486316,18.5300231 C12.1783718,18.5300231 11.0509815,18.608851 9.99290993,18.7545035 C15.2433603,19.3566513 19.6347575,20.8666455 22.2073441,22.8710681 Z" id="Shape" fill="#000000" opacity="0.1"></path>
                    <path d="M26.4333949,22.2566051 C25.1835277,21.4089319 23.5682564,21.4089319 22.3183891,22.2566051 C21.3353522,22.923291 20.0650115,22.923291 19.0818707,22.2566051 C17.8320035,21.4089319 16.2167321,21.4089319 14.9668649,22.2566051 C13.9838279,22.923291 12.7134353,22.923291 11.7303464,22.2566051 C10.4804792,21.4089319 8.86520785,21.4089319 7.61534065,22.2566051 C6.63225173,22.923291 5.36191109,22.923291 4.37882217,22.2566051 C3.12895497,21.4089319 1.5136836,21.4089319 0.263816397,22.2566051 C0.0849595843,22.3778868 0.0382967667,22.6212298 0.159578522,22.8000866 C0.280860277,22.9789434 0.524255196,23.0255543 0.703060046,22.9043245 C1.686097,22.2376386 2.95648961,22.2375866 3.93957852,22.9043245 C5.18949769,23.7519457 6.80476905,23.7519457 8.0545843,22.9043245 C9.03762125,22.2376386 10.3080139,22.2375866 11.2911028,22.9043245 C12.5410219,23.7519457 14.1562933,23.7519457 15.4061085,22.9043245 C16.3891455,22.2376386 17.6595381,22.2375866 18.642627,22.9043245 C19.2675866,23.3281351 19.9838972,23.5400404 20.7001559,23.5400404 C21.4164145,23.5400404 22.1327252,23.3281351 22.7576328,22.9043245 C23.7406697,22.2376386 25.0110624,22.2376386 25.9941513,22.9043245 C26.17306,23.0256582 26.416351,22.9789434 26.5376328,22.8000866 C26.6589145,22.6212818 26.6122517,22.3779388 26.4333949,22.2566051 Z" id="Shape" fill="#1EB8E8"></path>
                    <g id="Group" transform="translate(9.509238, 3.117783)" fill="#EF495B">
                        <path d="M5.56929561,6.82841224 C4.9926097,6.03550808 4.14893764,5.36534065 3.11004042,4.95124711 C2.07062356,4.53694573 0.99665127,4.44315242 0.0323729792,4.62247691 C0.0323729792,4.62247691 4.71143764,-1.9851963 11.2519226,0.621581986 C11.2519226,0.621581986 7.82199769,1.53898961 5.56898383,6.83225751 L5.56929561,6.82841224 Z" id="Shape"></path>
                        <path d="M11.1070497,9.03554273 C12.0710681,8.85663395 13.1444169,8.95053118 14.1833661,9.36462471 C15.2227829,9.7789261 16.0668707,10.4495092 16.6434007,11.242985 C16.6434007,11.242985 17.7923037,3.22830831 11.2518187,0.62147806 C11.2518187,0.62147806 13.1103811,3.64666282 11.1047113,9.03845266 L11.1070497,9.03554273 Z" id="Shape"></path>
                    </g>
                    <circle id="Oval" fill="#FFCA28" cx="4.45297344" cy="4.50441686" r="2.13178406"></circle>
                    <g id="Group" fill="#FF9800">
                        <path d="M4.4530254,1.62088337 C4.23691109,1.62088337 4.06174365,1.44566397 4.06174365,1.22960162 L4.06174365,0.442465358 C4.06174365,0.226351039 4.23696305,0.0511836028 4.4530254,0.0511836028 C4.66908776,0.0511836028 4.84430716,0.226403002 4.84430716,0.442465358 L4.84430716,1.22960162 C4.84430716,1.44571594 4.66908776,1.62088337 4.4530254,1.62088337 Z" id="Shape"></path>
                        <path d="M6.76844688,2.58001732 C6.66831409,2.58001732 6.56818129,2.54182448 6.49179561,2.46538684 C6.33897229,2.31256351 6.33897229,2.0648037 6.49179561,1.91198037 L7.04837182,1.35540416 C7.20119515,1.20258083 7.44895497,1.20258083 7.60172633,1.35540416 C7.75454965,1.50822748 7.75454965,1.7559873 7.60172633,1.90881062 L7.04515012,2.46538684 C6.96871247,2.54182448 6.86857968,2.58001732 6.76844688,2.58001732 Z" id="Shape"></path>
                        <path d="M8.51466513,4.89549076 L7.72758083,4.89549076 C7.51146651,4.89549076 7.33629908,4.72027136 7.33629908,4.50420901 C7.33629908,4.28814665 7.51151848,4.11292725 7.72758083,4.11292725 L8.51466513,4.11292725 C8.73077945,4.11292725 8.90594688,4.28814665 8.90594688,4.50420901 C8.90594688,4.72027136 8.73077945,4.89549076 8.51466513,4.89549076 Z" id="Shape"></path>
                        <path d="M7.32502309,7.76754042 C7.2248903,7.76754042 7.12470554,7.72934758 7.04837182,7.65290993 L6.49179561,7.09633372 C6.33897229,6.94351039 6.33897229,6.69575058 6.49179561,6.54292725 C6.64461894,6.39010393 6.89237875,6.39010393 7.04515012,6.54292725 L7.60172633,7.09950346 C7.75454965,7.25232679 7.75454965,7.50008661 7.60172633,7.65290993 C7.52528868,7.72929561 7.42520785,7.76754042 7.32502309,7.76754042 Z" id="Shape"></path>
                        <path d="M4.4530254,8.95713048 C4.23691109,8.95713048 4.06174365,8.78191109 4.06174365,8.56584873 L4.06174365,7.77871247 C4.06174365,7.56259815 4.23696305,7.38743072 4.4530254,7.38743072 C4.66908776,7.38743072 4.84430716,7.56265012 4.84430716,7.77871247 L4.84430716,8.56584873 C4.84430716,8.78201501 4.66908776,8.95713048 4.4530254,8.95713048 Z" id="Shape"></path>
                        <path d="M1.58092379,7.76754042 C1.48079099,7.76754042 1.3806582,7.72934758 1.30427252,7.65290993 C1.15144919,7.50008661 1.15144919,7.25232679 1.30427252,7.09950346 L1.86079677,6.54292725 C2.01362009,6.39010393 2.26137991,6.39010393 2.41415127,6.54292725 C2.5669746,6.69575058 2.5669746,6.94351039 2.41415127,7.09633372 L1.85762702,7.65290993 C1.78124134,7.72929561 1.68110855,7.76754042 1.58092379,7.76754042 Z" id="Shape"></path>
                        <path d="M1.17841801,4.89549076 L0.391281755,4.89549076 C0.175167436,4.89549076 0,4.72027136 0,4.50420901 C0,4.28814665 0.1752194,4.11292725 0.391281755,4.11292725 L1.17841801,4.11292725 C1.39453233,4.11292725 1.56969977,4.28814665 1.56969977,4.50420901 C1.56969977,4.72027136 1.39453233,4.89549076 1.17841801,4.89549076 Z" id="Shape"></path>
                        <path d="M2.1375,2.58001732 C2.03736721,2.58001732 1.93723441,2.54182448 1.86084873,2.46538684 L1.30427252,1.90886259 C1.15144919,1.75603926 1.15144919,1.50827945 1.30427252,1.35545612 C1.45709584,1.20263279 1.70485566,1.20263279 1.85762702,1.35545612 L2.41415127,1.91203233 C2.5669746,2.06485566 2.5669746,2.31261547 2.41415127,2.4654388 C2.33781755,2.54182448 2.23763279,2.58001732 2.1375,2.58001732 Z" id="Shape"></path>
                    </g>
                </g>
            </g>
        </g>
    </g>
</svg>