<?xml version="1.0" encoding="UTF-8"?>
<svg width="127px" height="127px" viewBox="0 0 127 127" version="1.1" xmlns="http://www.w3.org/2000/svg" xmlns:xlink="http://www.w3.org/1999/xlink">
    <!-- Generator: Sketch 52.6 (67491) - http://www.bohemiancoding.com/sketch -->
    <desc>Created with Sketch.</desc>
    <defs>
        <filter x="-181.5%" y="-181.5%" width="464.2%" height="464.2%" filterUnits="objectBoundingBox" id="filter-1">
            <feOffset dx="0" dy="11" in="SourceAlpha" result="shadowOffsetOuter1"></feOffset>
            <feGaussianBlur stdDeviation="16" in="shadowOffsetOuter1" result="shadowBlurOuter1"></feGaussianBlur>
            <feColorMatrix values="0 0 0 0 0   0 0 0 0 0   0 0 0 0 0  0 0 0 0.115404212 0" type="matrix" in="shadowBlurOuter1" result="shadowMatrixOuter1"></feColorMatrix>
            <feMerge>
                <feMergeNode in="shadowMatrixOuter1"></feMergeNode>
                <feMergeNode in="SourceGraphic"></feMergeNode>
            </feMerge>
        </filter>
        <linearGradient x1="-38.5860095%" y1="-21.511115%" x2="91.7174755%" y2="91.7507424%" id="linearGradient-2">
            <stop stop-color="#F6D365" offset="0%"></stop>
            <stop stop-color="#FDE885" offset="100%"></stop>
        </linearGradient>
        <path d="M22.7263158,45.4526316 C10.1751731,45.4526316 0,35.2777186 0,22.7263158 C0,10.174913 10.1751731,0 22.7263158,0 C35.2777185,0 45.4526316,10.174913 45.4526316,22.7263158 C45.4526316,35.2777186 35.2777185,45.4526316 22.7263158,45.4526316 Z" id="path-3"></path>
    </defs>
    <g id="Page-1" stroke="none" stroke-width="1" fill="none" fill-rule="evenodd">
        <g id="icon/goals/car">
            <g filter="url(#filter-1)" transform="translate(40.105263, 41.442105)">
                <g id="Fill-1" fill-rule="nonzero">
                    <use fill="url(#linearGradient-2)" xlink:href="#path-3"></use>
                    <use fill="#FFFFFF" xlink:href="#path-3"></use>
                </g>
                <g id="car" transform="translate(7.172879, 13.760217)" fill-rule="nonzero">
                    <path d="M32.9042652,9.14981236 C32.4028956,7.97360658 31.3006144,7.09309908 29.9392312,6.93719875 L24.7762222,6.34726604 L22.021983,1.87080397 C21.3178698,0.726071023 20.0699352,0.0285451309 18.7261182,0.0285451309 L9.83321207,0.0285451309 C7.51593298,0.0285451309 5.48337327,1.57656954 4.86855506,3.81114094 L4.79902205,4.06365556 C4.60432962,4.77289228 4.23031521,5.40454479 3.72894561,5.90884211 C3.227576,6.41387135 2.59738734,6.79081346 1.8903464,6.99062938 C1.1262152,7.20581575 0.597764319,7.90334164 0.597764319,8.69674989 L0.597764319,13.6652861 L3.40909375,13.0077966 C3.46837979,12.8701944 3.53571703,12.7362519 3.61037352,12.605969 C4.31229097,11.3902392 5.61877966,10.6348911 7.02115071,10.6348911 C8.42352176,10.6348911 9.72927852,11.3902392 10.430464,12.605969 C10.5051205,12.7362519 10.5731897,12.8701944 10.6317438,13.0077966 L22.5680001,13.0077966 C22.6258223,12.8716583 22.6924276,12.7391796 22.7663522,12.6103605 C23.4675377,11.391703 24.7754902,10.6348911 26.1800571,10.6348911 C27.5824281,10.6348911 28.8881849,11.3902392 29.5893704,12.605969 C29.6640269,12.7362519 29.732096,12.8701944 29.7906502,13.0077966 L32.9247591,13.0077966 L32.9445212,13.0099924 L33.1728822,11.0045139 C33.1823973,10.9225382 33.1889846,10.8412943 33.1926442,10.7600505 C33.2197255,10.1920756 33.11506,9.64459463 32.9042652,9.14981236 Z" id="Shape" fill="#008DB3"></path>
                    <path d="M33.8296398,13.8913782 C33.8296398,14.378402 33.4348387,14.7732032 32.9478148,14.7732032 L30.1083062,14.7732032 C30.1119659,14.7058659 30.1141616,14.6377968 30.1141616,14.5697276 C30.1141616,14.0302978 30.0036407,13.4974554 29.7906502,13.0077966 L32.9483272,13.0095532 C33.4351315,13.0097728 33.8296398,13.4045007 33.8296398,13.8913782 Z" id="Shape" fill="#CCCCCC"></path>
                    <path d="M29.3090426,14.5697276 C29.3090426,14.6377968 29.3068468,14.7058659 29.3024552,14.7732032 C29.1977897,16.406131 27.8400662,17.6987131 26.1800571,17.6987131 C24.519316,17.6987131 23.1615924,16.406131 23.056927,14.7732032 C23.0525354,14.7058659 23.0503396,14.6377968 23.0503396,14.5697276 C23.0503396,14.0024846 23.2011165,13.4703741 23.46461,13.0114562 C24.0047717,12.0723946 25.0184898,11.4400102 26.1800571,11.4400102 C27.3394285,11.4400102 28.3516828,12.0709308 28.8918445,13.0077966 C29.1575338,13.4674464 29.3090426,14.0010208 29.3090426,14.5697276 Z M27.4631241,14.5697276 C27.4631241,13.8619547 26.8878299,13.2859286 26.1800571,13.2859286 C25.4715523,13.2859286 24.8962581,13.8619547 24.8962581,14.5697276 C24.8962581,15.2775005 25.4715523,15.8535266 26.1800571,15.8535266 C26.8878299,15.8535266 27.4631241,15.2775005 27.4631241,14.5697276 Z" id="Shape" fill="#666666"></path>
                    <path d="M26.1800571,13.2859286 C26.8878299,13.2859286 27.4631241,13.8619547 27.4631241,14.5697276 C27.4631241,15.2775005 26.8878299,15.8535266 26.1800571,15.8535266 C25.4715523,15.8535266 24.8962581,15.2775005 24.8962581,14.5697276 C24.8962581,13.8619547 25.4715523,13.2859286 26.1800571,13.2859286 Z" id="Shape" fill="#E6E6E6"></path>
                    <path d="M22.2452205,14.5697276 C22.2452205,14.6377968 22.2474163,14.7065978 22.251076,14.7732032 L10.9493999,14.7732032 C10.9530595,14.705134 10.9552553,14.6370648 10.9552553,14.5697276 C10.9552553,14.0302978 10.8447344,13.4974554 10.6317438,13.0077966 L22.5680001,13.0077966 C22.3557414,13.4989192 22.2452205,14.0310297 22.2452205,14.5697276 Z" id="Shape" fill="#CCCCCC"></path>
                    <path d="M8.48793128,2.07793915 L8.48793128,6.34726604 L6.03817351,6.34726604 C6.03817351,6.34726604 6.32362482,5.18862649 6.50441064,4.53282041 L6.57394366,4.28030579 C6.61053998,4.14636325 6.65518749,4.01681227 6.70715427,3.89092093 C7.04530428,3.06969947 7.69232725,2.42414035 8.48793128,2.07793915 Z" id="Shape" fill="#76CDCE"></path>
                    <path d="M14.6405049,1.7968794 L14.6405049,6.34726604 L9.58582093,6.34726604 L9.58582093,1.80639444 C9.66779669,1.7998071 9.75050438,1.7968794 9.83321207,1.7968794 L14.6405049,1.7968794 Z" id="Shape" fill="#76CDCE"></path>
                    <path d="M22.6997469,6.34726604 L15.7383945,6.34726604 L15.7383945,1.7968794 L18.7261182,1.7968794 C19.4499935,1.7968794 20.1365405,2.18040885 20.5156784,2.79742283 L22.6997469,6.34726604 Z" id="Shape" fill="#76CDCE"></path>
                    <path d="M10.1435489,14.7732032 C10.0388834,16.406131 8.68115986,17.6987131 7.02115071,17.6987131 C5.36040963,17.6987131 4.00268609,16.406131 3.89802061,14.7732032 C3.89362905,14.7058659 3.89143327,14.6377968 3.89143327,14.5697276 C3.89143327,14.0010208 4.04294205,13.4674464 4.30789942,13.0077966 C4.84879305,12.0709308 5.86104731,11.4400102 7.02115071,11.4400102 C8.18052218,11.4400102 9.19277644,12.0709308 9.73293815,13.0077966 C9.99862744,13.4674464 10.1501362,14.0010208 10.1501362,14.5697276 C10.1501362,14.6377968 10.1479404,14.7058659 10.1435489,14.7732032 Z M8.30494967,14.5697276 C8.30494967,13.8619547 7.72892357,13.2859286 7.02115071,13.2859286 C6.31264592,13.2859286 5.73735174,13.8619547 5.73735174,14.5697276 C5.73735174,15.2775005 6.31264592,15.8535266 7.02115071,15.8535266 C7.72892357,15.8535266 8.30494967,15.2775005 8.30494967,14.5697276 Z" id="Shape" fill="#666666"></path>
                    <path d="M7.02115071,13.2859286 C7.72892357,13.2859286 8.30494967,13.8619547 8.30494967,14.5697276 C8.30494967,15.2775005 7.72892357,15.8535266 7.02115071,15.8535266 C6.31264592,15.8535266 5.73735174,15.2775005 5.73735174,14.5697276 C5.73735174,13.8619547 6.31264592,13.2859286 7.02115071,13.2859286 Z" id="Shape" fill="#E6E6E6"></path>
                    <path d="M3.0863142,14.5697276 C3.0863142,14.6377968 3.08850998,14.7058659 3.09216961,14.7732032 L0.88270328,14.7732032 C0.395167082,14.7732032 0,14.3780361 0,13.8904999 C0,13.4029637 0.395167082,13.0077966 0.88270328,13.0077966 L3.40909375,13.0077966 C3.19683509,13.4981873 3.0863142,14.0302978 3.0863142,14.5697276 Z" id="Shape" fill="#CCCCCC"></path>
                    <path d="M18.7545902,8.75610913 L17.6010741,8.75610913 C17.3585869,8.75610913 17.1619183,8.55951369 17.1619183,8.31695327 C17.1619183,8.07439285 17.3585869,7.87779741 17.6010741,7.87779741 L18.7545902,7.87779741 C18.9970774,7.87779741 19.193746,8.07439285 19.193746,8.31695327 C19.193746,8.55951369 18.9971506,8.75610913 18.7545902,8.75610913 Z" id="Shape" fill="#CCCCCC"></path>
                    <path d="M10.8337555,8.75610913 L9.68023944,8.75610913 C9.43775222,8.75610913 9.24108358,8.55951369 9.24108358,8.31695327 C9.24108358,8.07439285 9.43775222,7.87779741 9.68023944,7.87779741 L10.8337555,7.87779741 C11.0762427,7.87779741 11.2729114,8.07439285 11.2729114,8.31695327 C11.2729114,8.55951369 11.0762427,8.75610913 10.8337555,8.75610913 Z" id="Shape" fill="#CCCCCC"></path>
                    <path d="M33.1926442,10.7600505 L32.3106729,10.7600505 C31.4213823,10.7600505 30.7004347,10.039103 30.7004347,9.14981236 L32.9042652,9.14981236 C33.1465329,9.67936113 33.2563218,10.2008587 33.1926442,10.7600505 Z" id="Shape" fill="#FFFFFF"></path>
                    <polygon id="Shape" fill="#96E0DE" points="14.6405049 1.80639444 14.6405049 6.34726604 14.1259606 6.34726604 9.58582093 1.80639444"></polygon>
                    <path d="M22.6997469,6.34726604 L20.2887812,6.34726604 L15.7383945,1.7968794 L18.7261182,1.7968794 C19.4499935,1.7968794 20.1365405,2.18040885 20.5156784,2.79742283 L22.6997469,6.34726604 Z" id="Shape" fill="#96E0DE"></path>
                    <path d="M8.48793128,2.07793915 L8.48793128,5.67169794 L6.70715427,3.89092093 C7.04530428,3.06969947 7.69232725,2.42414035 8.48793128,2.07793915 Z" id="Shape" fill="#96E0DE"></path>
                </g>
            </g>
        </g>
    </g>
</svg>