<?xml version="1.0" encoding="UTF-8"?>
<svg width="197px" height="180px" viewBox="0 0 197 180" version="1.1" xmlns="http://www.w3.org/2000/svg" xmlns:xlink="http://www.w3.org/1999/xlink">
    <!-- Generator: Sketch 52.6 (67491) - http://www.bohemiancoding.com/sketch -->
    <desc>Created with Sketch.</desc>
    <defs>
        <rect id="path-1" x="0.45" y="0.81" width="141.89396" height="128.650523" rx="0.945959731"></rect>
        <filter x="-18.7%" y="-16.7%" width="137.4%" height="141.2%" filterUnits="objectBoundingBox" id="filter-2">
            <feOffset dx="0" dy="5" in="SourceAlpha" result="shadowOffsetOuter1"></feOffset>
            <feGaussianBlur stdDeviation="8" in="shadowOffsetOuter1" result="shadowBlurOuter1"></feGaussianBlur>
            <feColorMatrix values="0 0 0 0 0   0 0 0 0 0   0 0 0 0 0  0 0 0 0.10377038 0" type="matrix" in="shadowBlurOuter1"></feColorMatrix>
        </filter>
    </defs>
    <g id="Page-1" stroke="none" stroke-width="1" fill="none" fill-rule="evenodd">
        <g id="card/nudge/scorecard">
            <g transform="translate(27.000000, 25.200000)">
                <g id="Mask" fill-rule="nonzero">
                    <use fill="black" fill-opacity="1" filter="url(#filter-2)" xlink:href="#path-1"></use>
                    <use fill="#FFFFFF" xlink:href="#path-1"></use>
                </g>
                <path d="M20.7881342,112.906228 L13.2204564,112.906228 C12.6980172,112.906228 12.2744966,113.329749 12.2744966,113.852188 L12.2744966,119.527946 C12.2744966,120.050385 12.6980172,120.473906 13.2204564,120.473906 L20.7881342,120.473906 C21.3105734,120.473906 21.734094,120.050385 21.734094,119.527946 L21.734094,113.852188 C21.734094,113.329749 21.3105734,112.906228 20.7881342,112.906228 L20.7881342,112.906228 Z M20.7881342,119.527946 L13.2204564,119.527946 L13.2204564,114.798148 L17.0042953,117.163047 L20.7881342,114.798148 L20.7881342,119.527946 L20.7881342,119.527946 Z M20.7881342,113.852188 L17.0042953,116.217087 L13.2204564,113.852188 L20.7881342,113.852188 L20.7881342,113.852188 Z" id="Shape-Copy-8" fill="#000000" opacity="0.3"></path>
                <path d="M18.2529621,22.0174765 L17.6286287,22.0174765 L17.0042953,20.4661025 L13.6650574,20.4661025 L13.040724,22.0174765 L12.4163906,22.0174765 L14.9988607,15.7079251 L15.6704921,15.7079251 L18.2529621,22.0174765 Z M16.8245629,19.9742035 L15.3394062,16.2849605 L13.8447898,19.9742035 L16.8245629,19.9742035 Z M19.6340633,22.1309917 C19.0286491,22.1309917 18.7354016,21.7620674 18.7354016,21.137734 L18.7354016,17.8836325 L17.9786338,17.8836325 L17.9786338,17.448491 L18.7354016,17.448491 L18.7354016,16.1998242 L19.2367602,16.1998242 L19.2367602,17.448491 L20.1638008,17.448491 L20.1638008,17.8836325 L19.2367602,17.8836325 L19.2367602,21.0620572 C19.2367602,21.4309815 19.3881138,21.6863906 19.7097401,21.6863906 C19.9273108,21.6863906 20.1165028,21.582335 20.2205583,21.4688199 L20.4097503,21.8472038 C20.2300179,22.0174765 20.0124472,22.1309917 19.6340633,22.1309917 Z M22.4435636,23.8053404 L22.5287,23.3512797 C22.6327556,23.3985777 22.8124879,23.4269565 22.9260031,23.4269565 C23.2287102,23.4269565 23.4368213,23.3039817 23.6260133,22.8688403 L23.985478,22.0553149 L22.0462605,17.448491 L22.5949172,17.448491 L24.2598063,21.4404411 L25.9057762,17.448491 L26.4638925,17.448491 L24.0989932,23.0201938 C23.8530436,23.5972293 23.4652001,23.8715576 22.9354627,23.8715576 C22.7746495,23.8715576 22.5665384,23.8431788 22.4435636,23.8053404 Z M28.753115,22.1309917 C27.4193118,22.1309917 26.567948,21.0620572 26.567948,19.728254 C26.567948,18.3944507 27.4193118,17.3349758 28.753115,17.3349758 C30.1058374,17.3349758 30.9572012,18.3944507 30.9572012,19.728254 C30.9572012,21.0620572 30.1058374,22.1309917 28.753115,22.1309917 Z M28.753115,21.6863906 C29.8315091,21.6863906 30.4274637,20.7498905 30.4274637,19.728254 C30.4274637,18.716077 29.8315091,17.7795769 28.753115,17.7795769 C27.6936401,17.7795769 27.0882259,18.716077 27.0882259,19.728254 C27.0882259,20.7498905 27.6936401,21.6863906 28.753115,21.6863906 Z M35.3275351,22.0174765 L34.835636,22.0174765 L34.835636,21.3458451 C34.4667117,21.7620674 33.8518379,22.1309917 33.1896661,22.1309917 C32.2626255,22.1309917 31.7518073,21.6958502 31.7518073,20.6647541 L31.7518073,17.448491 L32.2437063,17.448491 L32.2437063,20.5512389 C32.2437063,21.4404411 32.6883074,21.6863906 33.3504792,21.6863906 C33.9369743,21.6863906 34.5329289,21.3363855 34.835636,20.9296228 L34.835636,17.448491 L35.3275351,17.448491 L35.3275351,22.0174765 Z M36.878909,22.0174765 L36.3870099,22.0174765 L36.3870099,17.448491 L36.878909,17.448491 L36.878909,18.2336376 C37.2667525,17.7228193 37.7870303,17.353895 38.4208234,17.353895 L38.4208234,17.8930921 C38.335687,17.8741729 38.2694698,17.8741729 38.1748738,17.8741729 C37.7113536,17.8741729 37.0870201,18.2903952 36.878909,18.6876983 L36.878909,22.0174765 Z M42.8479148,22.1309917 C41.504652,22.1309917 40.634369,21.0620572 40.634369,19.728254 C40.634369,18.3944507 41.504652,17.3349758 42.8479148,17.3349758 C43.642521,17.3349758 44.0965817,17.6471425 44.4655059,18.1106628 L44.1249604,18.4133699 C43.7938745,17.9593093 43.3776523,17.7795769 42.8762936,17.7795769 C41.8073591,17.7795769 41.1546469,18.6309407 41.1546469,19.728254 C41.1546469,20.8255672 41.8073591,21.6863906 42.8762936,21.6863906 C43.3776523,21.6863906 43.7938745,21.4971987 44.1249604,21.043138 L44.4655059,21.3458451 C44.0965817,21.818825 43.642521,22.1309917 42.8479148,22.1309917 Z M48.6655671,22.0174765 L48.173668,22.0174765 L48.173668,21.3458451 C47.8047438,21.7620674 47.1898699,22.1309917 46.5276981,22.1309917 C45.6006576,22.1309917 45.0898393,21.6958502 45.0898393,20.6647541 L45.0898393,17.448491 L45.5817384,17.448491 L45.5817384,20.5512389 C45.5817384,21.4404411 46.0263395,21.6863906 46.6885113,21.6863906 C47.2750063,21.6863906 47.8709609,21.3363855 48.173668,20.9296228 L48.173668,17.448491 L48.6655671,17.448491 L48.6655671,22.0174765 Z M50.216941,22.0174765 L49.725042,22.0174765 L49.725042,17.448491 L50.216941,17.448491 L50.216941,18.2336376 C50.6047845,17.7228193 51.1250624,17.353895 51.7588554,17.353895 L51.7588554,17.8930921 C51.673719,17.8741729 51.6075018,17.8741729 51.5129059,17.8741729 C51.0493856,17.8741729 50.4250522,18.2903952 50.216941,18.6876983 L50.216941,22.0174765 Z M52.7426535,22.0174765 L52.2507544,22.0174765 L52.2507544,17.448491 L52.7426535,17.448491 L52.7426535,18.2336376 C53.130497,17.7228193 53.6507748,17.353895 54.2845678,17.353895 L54.2845678,17.8930921 C54.1994315,17.8741729 54.1332143,17.8741729 54.0386183,17.8741729 C53.575098,17.8741729 52.9507646,18.2903952 52.7426535,18.6876983 L52.7426535,22.0174765 Z M56.8008207,22.1309917 C55.4670174,22.1309917 54.5210577,21.137734 54.5210577,19.728254 C54.5210577,18.4039103 55.4480983,17.3349758 56.7156843,17.3349758 C58.1062451,17.3349758 58.8724725,18.4322891 58.8724725,19.7566327 L58.8724725,19.8890671 L55.0507952,19.8890671 C55.0980932,20.8823248 55.760265,21.7053098 56.8386591,21.7053098 C57.4156945,21.7053098 57.9454319,21.4877391 58.3332754,21.0715168 L58.5886846,21.3931431 C58.1346239,21.8661229 57.5575885,22.1309917 56.8008207,22.1309917 Z M58.3711138,19.5012236 C58.3616542,18.7255366 57.850836,17.7606577 56.7062247,17.7606577 C55.6278306,17.7606577 55.0886336,18.7066174 55.0507952,19.5012236 L58.3711138,19.5012236 Z M63.2428064,22.0174765 L62.7509073,22.0174765 L62.7509073,18.9241882 C62.7509073,18.0444456 62.3063063,17.7795769 61.6441344,17.7795769 C61.0576394,17.7795769 60.4522252,18.1485012 60.1589777,18.5647235 L60.1589777,22.0174765 L59.6670786,22.0174765 L59.6670786,17.448491 L60.1589777,17.448491 L60.1589777,18.1390416 C60.4900636,17.7417385 61.1427758,17.3349758 61.8049476,17.3349758 C62.7319881,17.3349758 63.2428064,17.7890365 63.2428064,18.8201326 L63.2428064,22.0174765 Z M65.295539,22.1309917 C64.6901247,22.1309917 64.3968772,21.7620674 64.3968772,21.137734 L64.3968772,17.8836325 L63.6401094,17.8836325 L63.6401094,17.448491 L64.3968772,17.448491 L64.3968772,16.1998242 L64.8982359,16.1998242 L64.8982359,17.448491 L65.8252764,17.448491 L65.8252764,17.8836325 L64.8982359,17.8836325 L64.8982359,21.0620572 C64.8982359,21.4309815 65.0495894,21.6863906 65.3712157,21.6863906 C65.5887865,21.6863906 65.7779784,21.582335 65.882034,21.4688199 L66.0712259,21.8472038 C65.8914936,22.0174765 65.6739229,22.1309917 65.295539,22.1309917 Z M68.8996455,22.0174765 L68.4077464,22.0174765 L68.4077464,17.448491 L68.8996455,17.448491 L68.8996455,18.2336376 C69.2874889,17.7228193 69.8077668,17.353895 70.4415598,17.353895 L70.4415598,17.8930921 C70.3564234,17.8741729 70.2902063,17.8741729 70.1956103,17.8741729 C69.73209,17.8741729 69.1077566,18.2903952 68.8996455,18.6876983 L68.8996455,22.0174765 Z M74.3294543,22.0174765 L73.8375552,22.0174765 L73.8375552,21.4782795 C73.4307925,21.9228805 72.9199743,22.1309917 72.2861813,22.1309917 C71.5010347,22.1309917 70.6875093,21.5917946 70.6875093,20.6079965 C70.6875093,19.6147388 71.4915751,19.0944609 72.2861813,19.0944609 C72.9199743,19.0944609 73.4402521,19.3025721 73.8375552,19.7471732 L73.8375552,18.8201326 C73.8375552,18.1390416 73.2888986,17.7701173 72.6172672,17.7701173 C72.0402317,17.7701173 71.5956306,17.9687689 71.1794084,18.4417487 L70.90508,18.1012032 C71.3780599,17.590385 71.9077974,17.3349758 72.6645651,17.3349758 C73.5916057,17.3349758 74.3294543,17.7795769 74.3294543,18.8012134 L74.3294543,22.0174765 Z M72.456454,21.7431482 C73.0051106,21.7431482 73.5159289,21.535037 73.8375552,21.1188148 L73.8375552,20.1160974 C73.5159289,19.6904156 73.0051106,19.4823044 72.456454,19.4823044 C71.7091458,19.4823044 71.2077872,19.9647439 71.2077872,20.6174561 C71.2077872,21.2607087 71.7091458,21.7431482 72.456454,21.7431482 Z M76.3821868,22.1309917 C75.7767726,22.1309917 75.4835251,21.7620674 75.4835251,21.137734 L75.4835251,17.8836325 L74.7267573,17.8836325 L74.7267573,17.448491 L75.4835251,17.448491 L75.4835251,16.1998242 L75.9848838,16.1998242 L75.9848838,17.448491 L76.9119243,17.448491 L76.9119243,17.8836325 L75.9848838,17.8836325 L75.9848838,21.0620572 C75.9848838,21.4309815 76.1362373,21.6863906 76.4578636,21.6863906 C76.6754344,21.6863906 76.8646263,21.582335 76.9686819,21.4688199 L77.1578738,21.8472038 C76.9781415,22.0174765 76.7605707,22.1309917 76.3821868,22.1309917 Z M79.5416923,22.1309917 C78.2078891,22.1309917 77.2619294,21.137734 77.2619294,19.728254 C77.2619294,18.4039103 78.1889699,17.3349758 79.4565559,17.3349758 C80.8471167,17.3349758 81.6133441,18.4322891 81.6133441,19.7566327 L81.6133441,19.8890671 L77.7916668,19.8890671 C77.8389648,20.8823248 78.5011366,21.7053098 79.5795307,21.7053098 C80.1565661,21.7053098 80.6863036,21.4877391 81.0741471,21.0715168 L81.3295562,21.3931431 C80.8754955,21.8661229 80.2984601,22.1309917 79.5416923,22.1309917 Z M81.1119855,19.5012236 C81.1025259,18.7255366 80.5917076,17.7606577 79.4470963,17.7606577 C78.3687022,17.7606577 77.8295052,18.7066174 77.7916668,19.5012236 L81.1119855,19.5012236 Z M86.3147639,22.1309917 C84.9809607,22.1309917 84.1295969,21.0620572 84.1295969,19.728254 C84.1295969,18.3944507 84.9809607,17.3349758 86.3147639,17.3349758 C87.6674863,17.3349758 88.5188501,18.3944507 88.5188501,19.728254 C88.5188501,21.0620572 87.6674863,22.1309917 86.3147639,22.1309917 Z M86.3147639,21.6863906 C87.393158,21.6863906 87.9891126,20.7498905 87.9891126,19.728254 C87.9891126,18.716077 87.393158,17.7795769 86.3147639,17.7795769 C85.255289,17.7795769 84.6498748,18.716077 84.6498748,19.728254 C84.6498748,20.7498905 85.255289,21.6863906 86.3147639,21.6863906 Z M89.975628,22.0174765 L89.4742694,22.0174765 L89.4742694,17.8836325 L88.7175016,17.8836325 L88.7175016,17.448491 L89.4742694,17.448491 L89.4742694,17.0322687 C89.4742694,16.1430666 89.9472492,15.6133291 90.7134766,15.6133291 C91.0351029,15.6133291 91.290512,15.6795463 91.5837596,15.9349554 L91.3472696,16.2944201 C91.1959161,16.1525262 91.0067241,16.0579302 90.7607746,16.0579302 C90.2404967,16.0579302 89.975628,16.4173949 89.975628,17.0322687 L89.975628,17.448491 L90.9026685,17.448491 L90.9026685,17.8836325 L89.975628,17.8836325 L89.975628,22.0174765 Z M14.402906,32.6609917 C13.6650574,32.6609917 13.0974816,32.4434209 12.6434209,31.9326027 L12.9366685,31.573138 C13.229916,31.9420623 13.769113,32.2447694 14.4123656,32.2447694 C15.178593,32.2447694 15.6326537,31.8474663 15.6326537,31.3177289 C15.6326537,30.069062 12.7474765,30.7785318 12.7474765,29.1325619 C12.7474765,28.4325517 13.3434311,27.8649758 14.3745272,27.8649758 C15.1596738,27.8649758 15.6799517,28.167683 16.0110376,28.5366072 L15.7367093,28.8866123 C15.4718405,28.5271476 14.9799415,28.2811981 14.3745272,28.2811981 C13.6650574,28.2811981 13.2393756,28.6406628 13.2393756,29.1136427 C13.2393756,30.258254 16.1150931,29.5582438 16.1150931,31.3177289 C16.1150931,32.0555774 15.5475173,32.6609917 14.402906,32.6609917 Z M18.9908107,32.6609917 C18.3475581,32.6609917 17.7705226,32.3299058 17.4015983,31.8096279 L17.4015983,34.2880424 L16.9096993,34.2880424 L16.9096993,27.978491 L17.4015983,27.978491 L17.4015983,28.6974204 C17.7232246,28.2339001 18.3097197,27.8649758 18.9908107,27.8649758 C20.2110987,27.8649758 21.0340837,28.7920164 21.0340837,30.258254 C21.0340837,31.7150319 20.2110987,32.6609917 18.9908107,32.6609917 Z M18.9056743,32.2163906 C19.9273108,32.2163906 20.5043463,31.3650268 20.5043463,30.258254 C20.5043463,29.1514811 19.9273108,28.3095769 18.9056743,28.3095769 C18.2718813,28.3095769 17.6664671,28.6879608 17.4015983,29.1231023 L17.4015983,31.383946 C17.6664671,31.8190875 18.2718813,32.2163906 18.9056743,32.2163906 Z M23.8246649,32.6609917 C22.4908617,32.6609917 21.5449019,31.667734 21.5449019,30.258254 C21.5449019,28.9339103 22.4719425,27.8649758 23.7395285,27.8649758 C25.1300893,27.8649758 25.8963167,28.9622891 25.8963167,30.2866327 L25.8963167,30.4190671 L22.0746394,30.4190671 C22.1219374,31.4123248 22.7841092,32.2353098 23.8625033,32.2353098 C24.4395387,32.2353098 24.9692761,32.0177391 25.3571196,31.6015168 L25.6125288,31.9231431 C25.1584681,32.3961229 24.5814327,32.6609917 23.8246649,32.6609917 Z M25.394958,30.0312236 C25.3854984,29.2555366 24.8746802,28.2906577 23.7300689,28.2906577 C22.6516748,28.2906577 22.1124778,29.2366174 22.0746394,30.0312236 L25.394958,30.0312236 Z M30.2666506,32.5474765 L29.7747515,32.5474765 L29.7747515,29.4541882 C29.7747515,28.5744456 29.3301505,28.3095769 28.6679787,28.3095769 C28.0814836,28.3095769 27.4760694,28.6785012 27.1828219,29.0947235 L27.1828219,32.5474765 L26.6909228,32.5474765 L26.6909228,27.978491 L27.1828219,27.978491 L27.1828219,28.6690416 C27.5139078,28.2717385 28.16662,27.8649758 28.8287918,27.8649758 C29.7558323,27.8649758 30.2666506,28.3190365 30.2666506,29.3501326 L30.2666506,32.5474765 Z M35.1951008,32.5474765 L34.6937421,32.5474765 L34.6937421,31.8190875 C34.3721158,32.2920674 33.7856208,32.6609917 33.1045297,32.6609917 C31.8937013,32.6609917 31.0707163,31.7339511 31.0707163,30.2677136 C31.0707163,28.8203952 31.8937013,27.8649758 33.1045297,27.8649758 C33.757242,27.8649758 34.3342774,28.1960617 34.6937421,28.7163396 L34.6937421,26.2379251 L35.1951008,26.2379251 L35.1951008,32.5474765 Z M33.1896661,32.2163906 C33.8329187,32.2163906 34.4288734,31.8380067 34.6937421,31.4028652 L34.6937421,29.1420215 C34.4288734,28.6974204 33.8329187,28.3095769 33.1896661,28.3095769 C32.1774892,28.3095769 31.5909942,29.1609407 31.5909942,30.2677136 C31.5909942,31.3744864 32.1774892,32.2163906 33.1896661,32.2163906 Z M36.5005251,27.2595616 C36.3018736,27.2595616 36.1221412,27.0892889 36.1221412,26.8811777 C36.1221412,26.6730666 36.3018736,26.5122534 36.5005251,26.5122534 C36.7086363,26.5122534 36.878909,26.6730666 36.878909,26.8811777 C36.878909,27.0892889 36.7086363,27.2595616 36.5005251,27.2595616 Z M36.7464747,32.5474765 L36.2545756,32.5474765 L36.2545756,27.978491 L36.7464747,27.978491 L36.7464747,32.5474765 Z M41.3816773,32.5474765 L40.8897782,32.5474765 L40.8897782,29.4541882 C40.8897782,28.5744456 40.4451772,28.3095769 39.7830054,28.3095769 C39.1965103,28.3095769 38.5910961,28.6785012 38.2978486,29.0947235 L38.2978486,32.5474765 L37.8059495,32.5474765 L37.8059495,27.978491 L38.2978486,27.978491 L38.2978486,28.6690416 C38.6289345,28.2717385 39.2816467,27.8649758 39.9438185,27.8649758 C40.8708591,27.8649758 41.3816773,28.3190365 41.3816773,29.3501326 L41.3816773,32.5474765 Z M44.2573948,34.4015576 C43.4817079,34.4015576 42.9898088,34.2596636 42.4506118,33.711007 L42.7343997,33.3137039 C43.1317028,33.7866838 43.5668442,33.9569565 44.2573948,33.9569565 C45.0803798,33.9569565 45.8087688,33.5407342 45.8087688,32.5096381 L45.8087688,31.7812491 C45.4871425,32.254229 44.9006475,32.6420725 44.2195565,32.6420725 C43.008728,32.6420725 42.185743,31.7244915 42.185743,30.258254 C42.185743,28.8109356 43.008728,27.8649758 44.2195565,27.8649758 C44.8722687,27.8649758 45.4398445,28.1960617 45.8087688,28.7163396 L45.8087688,27.978491 L46.3101275,27.978491 L46.3101275,32.5096381 C46.3101275,33.9001989 45.3641677,34.4015576 44.2573948,34.4015576 Z M44.3046928,32.1974714 C44.9384859,32.1974714 45.5439001,31.8096279 45.8087688,31.3650268 L45.8087688,29.1420215 C45.5439001,28.6974204 44.9384859,28.3095769 44.3046928,28.3095769 C43.2925159,28.3095769 42.7060209,29.1514811 42.7060209,30.258254 C42.7060209,31.3650268 43.2925159,32.1974714 44.3046928,32.1974714 Z M48.0979913,32.4150421 C48.0979913,32.9447796 47.7858246,33.4461383 47.4169003,33.7015474 L47.142572,33.474517 C47.4452791,33.2664059 47.6723094,32.8974816 47.6912286,32.6042341 C47.6912286,32.6042341 47.6250114,32.6136937 47.5966327,32.6136937 C47.3696023,32.6136937 47.2087892,32.4434209 47.2087892,32.2163906 C47.2087892,31.9988199 47.3885215,31.8096279 47.6155519,31.8096279 C47.870961,31.8096279 48.0979913,32.0271987 48.0979913,32.4150421 Z M51.18182,27.2595616 C50.9831684,27.2595616 50.8034361,27.0892889 50.8034361,26.8811777 C50.8034361,26.6730666 50.9831684,26.5122534 51.18182,26.5122534 C51.3899311,26.5122534 51.5602038,26.6730666 51.5602038,26.8811777 C51.5602038,27.0892889 51.3899311,27.2595616 51.18182,27.2595616 Z M51.4277695,32.5474765 L50.9358704,32.5474765 L50.9358704,27.978491 L51.4277695,27.978491 L51.4277695,32.5474765 Z M53.4805021,32.6609917 C52.8750878,32.6609917 52.5818403,32.2920674 52.5818403,31.667734 L52.5818403,28.4136325 L51.8250725,28.4136325 L51.8250725,27.978491 L52.5818403,27.978491 L52.5818403,26.7298242 L53.083199,26.7298242 L53.083199,27.978491 L54.0102395,27.978491 L54.0102395,28.4136325 L53.083199,28.4136325 L53.083199,31.5920572 C53.083199,31.9609815 53.2345525,32.2163906 53.5561788,32.2163906 C53.7737496,32.2163906 53.9629415,32.112335 54.0669971,31.9988199 L54.256189,32.3772038 C54.0764567,32.5474765 53.8588859,32.6609917 53.4805021,32.6609917 Z M57.0846085,32.5474765 L56.5927095,32.5474765 L56.5927095,26.2379251 L57.0846085,26.2379251 L57.0846085,32.5474765 Z M60.0738413,32.6609917 C58.740038,32.6609917 57.8886743,31.5920572 57.8886743,30.258254 C57.8886743,28.9244507 58.740038,27.8649758 60.0738413,27.8649758 C61.4265637,27.8649758 62.2779274,28.9244507 62.2779274,30.258254 C62.2779274,31.5920572 61.4265637,32.6609917 60.0738413,32.6609917 Z M60.0738413,32.2163906 C61.1522353,32.2163906 61.74819,31.2798905 61.74819,30.258254 C61.74819,29.246077 61.1522353,28.3095769 60.0738413,28.3095769 C59.0143664,28.3095769 58.4089521,29.246077 58.4089521,30.258254 C58.4089521,31.2798905 59.0143664,32.2163906 60.0738413,32.2163906 Z M65.0022914,32.6609917 C63.6684882,32.6609917 62.8171244,31.5920572 62.8171244,30.258254 C62.8171244,28.9244507 63.6684882,27.8649758 65.0022914,27.8649758 C66.3550138,27.8649758 67.2063776,28.9244507 67.2063776,30.258254 C67.2063776,31.5920572 66.3550138,32.6609917 65.0022914,32.6609917 Z M65.0022914,32.2163906 C66.0806855,32.2163906 66.6766401,31.2798905 66.6766401,30.258254 C66.6766401,29.246077 66.0806855,28.3095769 65.0022914,28.3095769 C63.9428165,28.3095769 63.3374023,29.246077 63.3374023,30.258254 C63.3374023,31.2798905 63.9428165,32.2163906 65.0022914,32.2163906 Z M71.8321206,32.5474765 L71.1699488,32.5474765 L69.3442465,30.3717691 L68.4928828,31.1758349 L68.4928828,32.5474765 L68.0009837,32.5474765 L68.0009837,26.2379251 L68.4928828,26.2379251 L68.4928828,30.5893399 L71.1794084,27.978491 L71.8415802,27.978491 L69.7131708,30.0406832 L71.8321206,32.5474765 Z M73.6672825,32.6609917 C72.9294339,32.6609917 72.361858,32.4434209 71.9077974,31.9326027 L72.2010449,31.573138 C72.4942924,31.9420623 73.0334894,32.2447694 73.6767421,32.2447694 C74.4429694,32.2447694 74.8970301,31.8474663 74.8970301,31.3177289 C74.8970301,30.069062 72.0118529,30.7785318 72.0118529,29.1325619 C72.0118529,28.4325517 72.6078076,27.8649758 73.6389037,27.8649758 C74.4240502,27.8649758 74.9443281,28.167683 75.275414,28.5366072 L75.0010857,28.8866123 C74.736217,28.5271476 74.2443179,28.2811981 73.6389037,28.2811981 C72.9294339,28.2811981 72.503752,28.6406628 72.503752,29.1136427 C72.503752,30.258254 75.3794696,29.5582438 75.3794696,31.3177289 C75.3794696,32.0555774 74.8118937,32.6609917 73.6672825,32.6609917 Z M78.6430306,32.5474765 L78.1511315,32.5474765 L78.1511315,26.2379251 L78.6430306,26.2379251 L78.6430306,32.5474765 Z M79.9484549,27.2595616 C79.7498034,27.2595616 79.5700711,27.0892889 79.5700711,26.8811777 C79.5700711,26.6730666 79.7498034,26.5122534 79.9484549,26.5122534 C80.1565661,26.5122534 80.3268388,26.6730666 80.3268388,26.8811777 C80.3268388,27.0892889 80.1565661,27.2595616 79.9484549,27.2595616 Z M80.1944045,32.5474765 L79.7025054,32.5474765 L79.7025054,27.978491 L80.1944045,27.978491 L80.1944045,32.5474765 Z M85.0850162,32.5474765 L84.4228444,32.5474765 L82.5971421,30.3717691 L81.7457784,31.1758349 L81.7457784,32.5474765 L81.2538793,32.5474765 L81.2538793,26.2379251 L81.7457784,26.2379251 L81.7457784,30.5893399 L84.432304,27.978491 L85.0944758,27.978491 L82.9660664,30.0406832 L85.0850162,32.5474765 Z M87.5634307,32.6609917 C86.2296275,32.6609917 85.2836677,31.667734 85.2836677,30.258254 C85.2836677,28.9339103 86.2107083,27.8649758 87.4782943,27.8649758 C88.8688551,27.8649758 89.6350825,28.9622891 89.6350825,30.2866327 L89.6350825,30.4190671 L85.8134052,30.4190671 C85.8607032,31.4123248 86.522875,32.2353098 87.6012691,32.2353098 C88.1783045,32.2353098 88.708042,32.0177391 89.0958855,31.6015168 L89.3512946,31.9231431 C88.8972339,32.3961229 88.3201985,32.6609917 87.5634307,32.6609917 Z M89.1337238,30.0312236 C89.1242643,29.2555366 88.613446,28.2906577 87.4688347,28.2906577 C86.3904406,28.2906577 85.8512436,29.2366174 85.8134052,30.0312236 L89.1337238,30.0312236 Z M92.1040373,34.3353404 L92.1891737,33.8812797 C92.2932293,33.9285777 92.4729616,33.9569565 92.5864768,33.9569565 C92.8891839,33.9569565 93.097295,33.8339817 93.286487,33.3988403 L93.6459517,32.5853149 L91.7067342,27.978491 L92.2553909,27.978491 L93.92028,31.9704411 L95.5662499,27.978491 L96.1243662,27.978491 L93.7594668,33.5501938 C93.5135173,34.1272293 93.1256738,34.4015576 92.5959364,34.4015576 C92.4351232,34.4015576 92.2270121,34.3731788 92.1040373,34.3353404 Z M98.4135887,32.6609917 C97.0797855,32.6609917 96.2284217,31.5920572 96.2284217,30.258254 C96.2284217,28.9244507 97.0797855,27.8649758 98.4135887,27.8649758 C99.7663111,27.8649758 100.617675,28.9244507 100.617675,30.258254 C100.617675,31.5920572 99.7663111,32.6609917 98.4135887,32.6609917 Z M98.4135887,32.2163906 C99.4919828,32.2163906 100.087937,31.2798905 100.087937,30.258254 C100.087937,29.246077 99.4919828,28.3095769 98.4135887,28.3095769 C97.3541138,28.3095769 96.7486996,29.246077 96.7486996,30.258254 C96.7486996,31.2798905 97.3541138,32.2163906 98.4135887,32.2163906 Z M104.988009,32.5474765 L104.49611,32.5474765 L104.49611,31.8758451 C104.127185,32.2920674 103.512312,32.6609917 102.85014,32.6609917 C101.923099,32.6609917 101.412281,32.2258502 101.412281,31.1947541 L101.412281,27.978491 L101.90418,27.978491 L101.90418,31.0812389 C101.90418,31.9704411 102.348781,32.2163906 103.010953,32.2163906 C103.597448,32.2163906 104.193403,31.8663855 104.49611,31.4596228 L104.49611,27.978491 L104.988009,27.978491 L104.988009,32.5474765 Z M106.312352,28.5082285 L106.028564,28.5082285 C106.028564,28.5082285 105.829913,26.6068494 105.829913,26.4838746 C105.829913,26.2946827 105.971807,26.1433291 106.170458,26.1433291 C106.35965,26.1433291 106.511004,26.2946827 106.511004,26.4838746 C106.511004,26.6068494 106.312352,28.5082285 106.312352,28.5082285 Z M107.835347,32.5474765 L107.343448,32.5474765 L107.343448,27.978491 L107.835347,27.978491 L107.835347,28.7636376 C108.223191,28.2528193 108.743469,27.883895 109.377262,27.883895 L109.377262,28.4230921 C109.292125,28.4041729 109.225908,28.4041729 109.131312,28.4041729 C108.667792,28.4041729 108.043459,28.8203952 107.835347,29.2176983 L107.835347,32.5474765 Z M111.893515,32.6609917 C110.559711,32.6609917 109.613752,31.667734 109.613752,30.258254 C109.613752,28.9339103 110.540792,27.8649758 111.808378,27.8649758 C113.198939,27.8649758 113.965166,28.9622891 113.965166,30.2866327 L113.965166,30.4190671 L110.143489,30.4190671 C110.190787,31.4123248 110.852959,32.2353098 111.931353,32.2353098 C112.508389,32.2353098 113.038126,32.0177391 113.425969,31.6015168 L113.681379,31.9231431 C113.227318,32.3961229 112.650282,32.6609917 111.893515,32.6609917 Z M113.463808,30.0312236 C113.454348,29.2555366 112.94353,28.2906577 111.798919,28.2906577 C110.720525,28.2906577 110.181328,29.2366174 110.143489,30.0312236 L113.463808,30.0312236 Z M14.8569667,44.9315576 C14.0812797,44.9315576 13.5893807,44.7896636 13.0501836,44.241007 L13.3339715,43.8437039 C13.7312746,44.3166838 14.1664161,44.4869565 14.8569667,44.4869565 C15.6799517,44.4869565 16.4083407,44.0707342 16.4083407,43.0396381 L16.4083407,42.3112491 C16.0867144,42.784229 15.5002193,43.1720725 14.8191283,43.1720725 C13.6082999,43.1720725 12.7853149,42.2544915 12.7853149,40.788254 C12.7853149,39.3409356 13.6082999,38.3949758 14.8191283,38.3949758 C15.4718405,38.3949758 16.0394164,38.7260617 16.4083407,39.2463396 L16.4083407,38.508491 L16.9096993,38.508491 L16.9096993,43.0396381 C16.9096993,44.4301989 15.9637396,44.9315576 14.8569667,44.9315576 Z M14.9042647,42.7274714 C15.5380577,42.7274714 16.1434719,42.3396279 16.4083407,41.8950268 L16.4083407,39.6720215 C16.1434719,39.2274204 15.5380577,38.8395769 14.9042647,38.8395769 C13.8920878,38.8395769 13.3055927,39.6814811 13.3055927,40.788254 C13.3055927,41.8950268 13.8920878,42.7274714 14.9042647,42.7274714 Z M19.8894724,43.1909917 C18.5556692,43.1909917 17.7043055,42.1220572 17.7043055,40.788254 C17.7043055,39.4544507 18.5556692,38.3949758 19.8894724,38.3949758 C21.2421948,38.3949758 22.0935586,39.4544507 22.0935586,40.788254 C22.0935586,42.1220572 21.2421948,43.1909917 19.8894724,43.1909917 Z M19.8894724,42.7463906 C20.9678665,42.7463906 21.5638212,41.8098905 21.5638212,40.788254 C21.5638212,39.776077 20.9678665,38.8395769 19.8894724,38.8395769 C18.8299975,38.8395769 18.2245833,39.776077 18.2245833,40.788254 C18.2245833,41.8098905 18.8299975,42.7463906 19.8894724,42.7463906 Z M23.1341143,37.7895616 C22.9354627,37.7895616 22.7557304,37.6192889 22.7557304,37.4111777 C22.7557304,37.2030666 22.9354627,37.0422534 23.1341143,37.0422534 C23.3422254,37.0422534 23.5124982,37.2030666 23.5124982,37.4111777 C23.5124982,37.6192889 23.3422254,37.7895616 23.1341143,37.7895616 Z M23.3800638,43.0774765 L22.8881647,43.0774765 L22.8881647,38.508491 L23.3800638,38.508491 L23.3800638,43.0774765 Z M28.0152664,43.0774765 L27.5233674,43.0774765 L27.5233674,39.9841882 C27.5233674,39.1044456 27.0787663,38.8395769 26.4165945,38.8395769 C25.8300995,38.8395769 25.2246852,39.2085012 24.9314377,39.6247235 L24.9314377,43.0774765 L24.4395387,43.0774765 L24.4395387,38.508491 L24.9314377,38.508491 L24.9314377,39.1990416 C25.2625236,38.8017385 25.9152358,38.3949758 26.5774076,38.3949758 C27.5044482,38.3949758 28.0152664,38.8490365 28.0152664,39.8801326 L28.0152664,43.0774765 Z M30.890984,44.9315576 C30.115297,44.9315576 29.6233979,44.7896636 29.0842009,44.241007 L29.3679888,43.8437039 C29.7652919,44.3166838 30.2004334,44.4869565 30.890984,44.4869565 C31.7139689,44.4869565 32.4423579,44.0707342 32.4423579,43.0396381 L32.4423579,42.3112491 C32.1207316,42.784229 31.5342366,43.1720725 30.8531456,43.1720725 C29.6423171,43.1720725 28.8193322,42.2544915 28.8193322,40.788254 C28.8193322,39.3409356 29.6423171,38.3949758 30.8531456,38.3949758 C31.5058578,38.3949758 32.0734336,38.7260617 32.4423579,39.2463396 L32.4423579,38.508491 L32.9437166,38.508491 L32.9437166,43.0396381 C32.9437166,44.4301989 31.9977569,44.9315576 30.890984,44.9315576 Z M30.938282,42.7274714 C31.572075,42.7274714 32.1774892,42.3396279 32.4423579,41.8950268 L32.4423579,39.6720215 C32.1774892,39.2274204 31.572075,38.8395769 30.938282,38.8395769 C29.9261051,38.8395769 29.33961,39.6814811 29.33961,40.788254 C29.33961,41.8950268 29.9261051,42.7274714 30.938282,42.7274714 Z M36.9640454,43.1909917 C36.3586311,43.1909917 36.0653836,42.8220674 36.0653836,42.197734 L36.0653836,38.9436325 L35.3086158,38.9436325 L35.3086158,38.508491 L36.0653836,38.508491 L36.0653836,37.2598242 L36.5667423,37.2598242 L36.5667423,38.508491 L37.4937828,38.508491 L37.4937828,38.9436325 L36.5667423,38.9436325 L36.5667423,42.1220572 C36.5667423,42.4909815 36.7180958,42.7463906 37.0397221,42.7463906 C37.2572929,42.7463906 37.4464848,42.642335 37.5505404,42.5288199 L37.7397323,42.9072038 C37.56,43.0774765 37.3424293,43.1909917 36.9640454,43.1909917 Z M40.0289549,43.1909917 C38.6951516,43.1909917 37.8437879,42.1220572 37.8437879,40.788254 C37.8437879,39.4544507 38.6951516,38.3949758 40.0289549,38.3949758 C41.3816773,38.3949758 42.233041,39.4544507 42.233041,40.788254 C42.233041,42.1220572 41.3816773,43.1909917 40.0289549,43.1909917 Z M40.0289549,42.7463906 C41.1073489,42.7463906 41.7033036,41.8098905 41.7033036,40.788254 C41.7033036,39.776077 41.1073489,38.8395769 40.0289549,38.8395769 C38.96948,38.8395769 38.3640657,39.776077 38.3640657,40.788254 C38.3640657,41.8098905 38.96948,42.7463906 40.0289549,42.7463906 Z M46.366885,43.1909917 C45.6290364,43.1909917 45.0614605,42.9734209 44.6073999,42.4626027 L44.9006474,42.103138 C45.1938949,42.4720623 45.7330919,42.7747694 46.3763446,42.7747694 C47.1425719,42.7747694 47.5966326,42.3774663 47.5966326,41.8477289 C47.5966326,40.599062 44.7114554,41.3085318 44.7114554,39.6625619 C44.7114554,38.9625517 45.3074101,38.3949758 46.3385062,38.3949758 C47.1236527,38.3949758 47.6439306,38.697683 47.9750165,39.0666072 L47.7006882,39.4166123 C47.4358195,39.0571476 46.9439204,38.8111981 46.3385062,38.8111981 C45.6290364,38.8111981 45.2033545,39.1706628 45.2033545,39.6436427 C45.2033545,40.788254 48.0790721,40.0882438 48.0790721,41.8477289 C48.0790721,42.5855774 47.5114962,43.1909917 46.366885,43.1909917 Z M50.9547896,43.1909917 C50.311537,43.1909917 49.7345016,42.8599058 49.3655773,42.3396279 L49.3655773,44.8180424 L48.8736782,44.8180424 L48.8736782,38.508491 L49.3655773,38.508491 L49.3655773,39.2274204 C49.6872036,38.7639001 50.2736986,38.3949758 50.9547896,38.3949758 C52.1750777,38.3949758 52.9980626,39.3220164 52.9980626,40.788254 C52.9980626,42.2450319 52.1750777,43.1909917 50.9547896,43.1909917 Z M50.8696532,42.7463906 C51.8912897,42.7463906 52.4683252,41.8950268 52.4683252,40.788254 C52.4683252,39.6814811 51.8912897,38.8395769 50.8696532,38.8395769 C50.2358602,38.8395769 49.630446,39.2179608 49.3655773,39.6531023 L49.3655773,41.913946 C49.630446,42.3490875 50.2358602,42.7463906 50.8696532,42.7463906 Z M55.7886438,43.1909917 C54.4548406,43.1909917 53.5088808,42.197734 53.5088808,40.788254 C53.5088808,39.4639103 54.4359214,38.3949758 55.7035074,38.3949758 C57.0940682,38.3949758 57.8602956,39.4922891 57.8602956,40.8166327 L57.8602956,40.9490671 L54.0386183,40.9490671 C54.0859163,41.9423248 54.7480881,42.7653098 55.8264822,42.7653098 C56.4035176,42.7653098 56.9332551,42.5477391 57.3210986,42.1315168 L57.5765077,42.4531431 C57.122447,42.9261229 56.5454116,43.1909917 55.7886438,43.1909917 Z M57.358937,40.5612236 C57.3494774,39.7855366 56.8386591,38.8206577 55.6940478,38.8206577 C54.6156537,38.8206577 54.0764567,39.7666174 54.0386183,40.5612236 L57.358937,40.5612236 Z M62.2306295,43.0774765 L61.7387305,43.0774765 L61.7387305,39.9841882 C61.7387305,39.1044456 61.2941294,38.8395769 60.6319576,38.8395769 C60.0454625,38.8395769 59.4400483,39.2085012 59.1468008,39.6247235 L59.1468008,43.0774765 L58.6549017,43.0774765 L58.6549017,38.508491 L59.1468008,38.508491 L59.1468008,39.1990416 C59.4778867,38.8017385 60.1305989,38.3949758 60.7927707,38.3949758 C61.7198113,38.3949758 62.2306295,38.8490365 62.2306295,39.8801326 L62.2306295,43.0774765 Z M67.1590797,43.0774765 L66.657721,43.0774765 L66.657721,42.3490875 C66.3360947,42.8220674 65.7495997,43.1909917 65.0685087,43.1909917 C63.8576802,43.1909917 63.0346953,42.2639511 63.0346953,40.7977136 C63.0346953,39.3503952 63.8576802,38.3949758 65.0685087,38.3949758 C65.7212209,38.3949758 66.2982563,38.7260617 66.657721,39.2463396 L66.657721,36.7679251 L67.1590797,36.7679251 L67.1590797,43.0774765 Z M65.1536451,42.7463906 C65.7968977,42.7463906 66.3928523,42.3680067 66.657721,41.9328652 L66.657721,39.6720215 C66.3928523,39.2274204 65.7968977,38.8395769 65.1536451,38.8395769 C64.1414681,38.8395769 63.5549731,39.6909407 63.5549731,40.7977136 C63.5549731,41.9044864 64.1414681,42.7463906 65.1536451,42.7463906 Z M22.2865344,61.7074765 L19.970825,61.7074765 L17.4678156,57.467685 L15.4756244,57.467685 L15.4756244,61.7074765 L13.4834332,61.7074765 L13.4834332,50.350284 L18.4724248,50.350284 C20.7200251,50.350284 22.2013981,51.7976024 22.2013981,53.9089845 C22.2013981,55.918203 20.8732706,57.0249758 19.4940613,57.2463304 L22.2865344,61.7074765 Z M18.2170157,55.7138756 C19.3408158,55.7138756 20.158125,54.9987301 20.158125,53.8919572 C20.158125,52.8022116 19.3408158,52.1040933 18.2170157,52.1040933 L15.4756244,52.1040933 L15.4756244,55.7138756 L18.2170157,55.7138756 Z M27.7731008,61.7074765 L25.7809096,61.7074765 L25.7809096,52.9214025 L23.9249366,54.8625119 L22.7670819,53.6535754 L26.0363188,50.350284 L27.7731008,50.350284 L27.7731008,61.7074765 Z M33.6853491,61.9118038 C31.7442397,61.9118038 30.399085,61.2307128 29.4796121,60.1579945 L30.6204396,58.7787852 C31.3696397,59.6642035 32.4083035,60.1409672 33.6683218,60.1409672 C35.1156402,60.1409672 36.0010585,59.2555489 36.0010585,58.1317487 C36.0010585,56.9228122 35.1156402,56.1225303 33.7194037,56.1225303 C32.7658763,56.1225303 31.9655943,56.4119939 31.2334215,57.0930849 L29.8201576,56.6844303 L29.8201576,50.350284 L37.2610769,50.350284 L37.2610769,52.1040933 L31.8123488,52.1040933 L31.8123488,55.3733301 C32.3742489,54.8454846 33.2937218,54.4027755 34.3834674,54.4027755 C36.3075495,54.4027755 38.0273043,55.7309029 38.0273043,58.0636396 C38.0273043,60.4134036 36.2224131,61.9118038 33.6853491,61.9118038 Z M41.6238431,61.06044 C41.6238431,62.235322 40.9768067,63.3080404 40.0403065,63.9721041 L39.2229973,63.3080404 C39.7678701,62.9845221 40.3467975,62.2864039 40.4489611,61.7074765 C40.4149066,61.7245038 40.2786884,61.7585583 40.1594975,61.7585583 C39.5975974,61.7585583 39.1548882,61.2988219 39.1548882,60.6688127 C39.1548882,60.0388035 39.6657065,59.510958 40.3127429,59.510958 C41.0108612,59.510958 41.6238431,60.0728581 41.6238431,61.06044 Z M45.0160547,61.7074765 L42.8195362,61.7074765 L47.1104095,52.1040933 L41.2189723,52.1040933 L41.2189723,50.350284 L49.4090917,50.350284 L49.4090917,51.7294933 L45.0160547,61.7074765 Z M53.8740216,61.8947765 C52.4607577,61.8947765 51.3710121,61.3839583 50.6047847,60.6347582 L51.5412849,59.1193307 C52.1372395,59.7493399 52.784276,60.1239399 53.8740216,60.1239399 C55.9343219,60.1239399 56.870822,58.2339124 56.870822,56.3779394 C56.870822,56.2757757 56.870822,56.1565848 56.8537947,56.0544212 C56.3429765,56.8206485 55.1510672,57.6379577 53.8059125,57.6379577 C51.7626394,57.6379577 50.0088301,56.3949667 50.0088301,53.9770936 C50.0088301,51.8657115 51.6604758,50.1629839 54.1975398,50.1629839 C57.5348857,50.1629839 58.8800405,52.8703207 58.8800405,56.0203666 C58.8800405,59.3066307 57.1602857,61.8947765 53.8740216,61.8947765 Z M54.3507853,55.9352302 C55.32134,55.9352302 56.2578401,55.4073847 56.8367674,54.5900755 C56.7175765,53.3641117 56.0535128,51.9338206 54.2997034,51.9338206 C52.8013032,51.9338206 52.0180486,52.9895116 52.0180486,53.9089845 C52.0180486,55.305221 53.1077942,55.9352302 54.3507853,55.9352302 Z M68.1807165,61.7074765 L59.9565426,61.7074765 L59.9565426,60.1239399 C64.3666069,56.786594 66.1033889,55.3222483 66.1033889,53.6706026 C66.1033889,52.4786934 65.0647251,51.9508478 64.0260614,51.9508478 C62.6979339,51.9508478 61.6933247,52.4786934 60.9611518,53.2960026 L59.8032971,52.0019297 C60.8079063,50.7759659 62.4084702,50.1800112 64.0090341,50.1800112 C66.2055526,50.1800112 68.1126074,51.405975 68.1126074,53.6706026 C68.1126074,55.7819847 66.1885253,57.654985 63.1576703,59.9536672 L68.1807165,59.9536672 L68.1807165,61.7074765 Z M14.0339817,72.900589 C13.4285675,72.900589 13.13532,72.5316647 13.13532,71.9073313 L13.13532,68.6532298 L12.3785522,68.6532298 L12.3785522,68.2180883 L13.13532,68.2180883 L13.13532,66.9694215 L13.6366787,66.9694215 L13.6366787,68.2180883 L14.5637192,68.2180883 L14.5637192,68.6532298 L13.6366787,68.6532298 L13.6366787,71.8316545 C13.6366787,72.2005788 13.7880322,72.4559879 14.1096585,72.4559879 C14.3272293,72.4559879 14.5164212,72.3519323 14.6204768,72.2384172 L14.8096687,72.6168011 C14.6299364,72.7870738 14.4123656,72.900589 14.0339817,72.900589 Z M18.7448612,72.7870738 L18.2529621,72.7870738 L18.2529621,69.6748663 C18.2529621,68.7951238 17.808361,68.5491742 17.1461892,68.5491742 C16.5596942,68.5491742 15.95428,68.9180985 15.6610324,69.3343208 L15.6610324,72.7870738 L15.1691334,72.7870738 L15.1691334,66.4775224 L15.6610324,66.4775224 L15.6610324,68.9086389 C15.9921183,68.5113358 16.6448306,68.1045731 17.3070024,68.1045731 C18.2340429,68.1045731 18.7448612,68.5397146 18.7448612,69.5708107 L18.7448612,72.7870738 Z M20.0502855,67.4991589 C19.851634,67.4991589 19.6719017,67.3288862 19.6719017,67.120775 C19.6719017,66.9126639 19.851634,66.7518507 20.0502855,66.7518507 C20.2583967,66.7518507 20.4286694,66.9126639 20.4286694,67.120775 C20.4286694,67.3288862 20.2583967,67.4991589 20.0502855,67.4991589 Z M20.2962351,72.7870738 L19.804336,72.7870738 L19.804336,68.2180883 L20.2962351,68.2180883 L20.2962351,72.7870738 Z M22.7178919,72.900589 C21.9800434,72.900589 21.4124675,72.6830182 20.9584068,72.1722 L21.2516544,71.8127353 C21.5449019,72.1816596 22.0840989,72.4843667 22.7273515,72.4843667 C23.4935789,72.4843667 23.9476396,72.0870636 23.9476396,71.5573262 C23.9476396,70.3086593 21.0624624,71.0181291 21.0624624,69.3721592 C21.0624624,68.672149 21.658417,68.1045731 22.6895132,68.1045731 C23.4746597,68.1045731 23.9949376,68.4072803 24.3260235,68.7762046 L24.0516952,69.1262097 C23.7868264,68.766745 23.2949274,68.5207954 22.6895132,68.5207954 C21.9800434,68.5207954 21.5543615,68.8802601 21.5543615,69.35324 C21.5543615,70.4978513 24.4300791,69.7978411 24.4300791,71.5573262 C24.4300791,72.2951748 23.8625032,72.900589 22.7178919,72.900589 Z M33.1329085,72.7870738 L32.6410094,72.7870738 L32.6410094,69.5897299 C32.6410094,68.9464773 32.3666811,68.5491742 31.7234285,68.5491742 C31.2315294,68.5491742 30.6734132,68.9086389 30.4180041,69.3248612 L30.4180041,72.7870738 L29.9166454,72.7870738 L29.9166454,69.5897299 C29.9166454,68.9464773 29.6517767,68.5491742 29.0085241,68.5491742 C28.516625,68.5491742 27.9679684,68.9180985 27.69364,69.3343208 L27.69364,72.7870738 L27.201741,72.7870738 L27.201741,68.2180883 L27.69364,68.2180883 L27.69364,68.9086389 C27.882832,68.6153914 28.5071654,68.1045731 29.1693372,68.1045731 C29.878807,68.1045731 30.2571909,68.5207954 30.3707061,68.9653965 C30.6261152,68.5397146 31.240989,68.1045731 31.8842417,68.1045731 C32.7261458,68.1045731 33.1329085,68.577553 33.1329085,69.495134 L33.1329085,72.7870738 Z M36.1221412,72.900589 C34.788338,72.900589 33.9369742,71.8316545 33.9369742,70.4978513 C33.9369742,69.164048 34.788338,68.1045731 36.1221412,68.1045731 C37.4748636,68.1045731 38.3262274,69.164048 38.3262274,70.4978513 C38.3262274,71.8316545 37.4748636,72.900589 36.1221412,72.900589 Z M36.1221412,72.4559879 C37.2005353,72.4559879 37.7964899,71.5194878 37.7964899,70.4978513 C37.7964899,69.4856744 37.2005353,68.5491742 36.1221412,68.5491742 C35.0626663,68.5491742 34.4572521,69.4856744 34.4572521,70.4978513 C34.4572521,71.5194878 35.0626663,72.4559879 36.1221412,72.4559879 Z M42.6965613,72.7870738 L42.2046622,72.7870738 L42.2046622,69.6937855 C42.2046622,68.8140429 41.7600612,68.5491742 41.0978893,68.5491742 C40.5113943,68.5491742 39.9059801,68.9180985 39.6127326,69.3343208 L39.6127326,72.7870738 L39.1208335,72.7870738 L39.1208335,68.2180883 L39.6127326,68.2180883 L39.6127326,68.9086389 C39.9438185,68.5113358 40.5965307,68.1045731 41.2587025,68.1045731 C42.185743,68.1045731 42.6965613,68.5586338 42.6965613,69.5897299 L42.6965613,72.7870738 Z M45.78039,72.900589 C44.4465868,72.900589 43.500627,71.9073313 43.500627,70.4978513 C43.500627,69.1735076 44.4276676,68.1045731 45.6952536,68.1045731 C47.0858144,68.1045731 47.8520418,69.2018864 47.8520418,70.5262301 L47.8520418,70.6586644 L44.0303645,70.6586644 C44.0776625,71.6519221 44.7398343,72.4749071 45.8182284,72.4749071 C46.3952638,72.4749071 46.9250012,72.2573364 47.3128447,71.8411141 L47.5682539,72.1627404 C47.1141932,72.6357203 46.5371578,72.900589 45.78039,72.900589 Z M47.3506831,70.2708209 C47.3412235,69.495134 46.8304053,68.530255 45.685794,68.530255 C44.6073999,68.530255 44.0682029,69.4762148 44.0303645,70.2708209 L47.3506831,70.2708209 Z M48.3439408,74.5749377 L48.4290772,74.120877 C48.5331327,74.168175 48.7128651,74.1965538 48.8263803,74.1965538 C49.1290874,74.1965538 49.3371985,74.0735791 49.5263905,73.6384376 L49.8858552,72.8249122 L47.9466377,68.2180883 L48.4952944,68.2180883 L50.1601835,72.2100384 L51.8061534,68.2180883 L52.3642697,68.2180883 L49.9993703,73.7897911 C49.7534208,74.3668266 49.3655773,74.6411549 48.8358399,74.6411549 C48.6750267,74.6411549 48.4669156,74.6127761 48.3439408,74.5749377 Z M60.6319576,72.7870738 L60.1400586,72.7870738 L60.1400586,69.5897299 C60.1400586,68.9464773 59.8657302,68.5491742 59.2224776,68.5491742 C58.7305786,68.5491742 58.1724623,68.9086389 57.9170532,69.3248612 L57.9170532,72.7870738 L57.4156945,72.7870738 L57.4156945,69.5897299 C57.4156945,68.9464773 57.1508258,68.5491742 56.5075732,68.5491742 C56.0156741,68.5491742 55.4670175,68.9180985 55.1926892,69.3343208 L55.1926892,72.7870738 L54.7007901,72.7870738 L54.7007901,68.2180883 L55.1926892,68.2180883 L55.1926892,68.9086389 C55.3818811,68.6153914 56.0062145,68.1045731 56.6683863,68.1045731 C57.3778561,68.1045731 57.75624,68.5207954 57.8697552,68.9653965 C58.1251643,68.5397146 58.7400382,68.1045731 59.3832908,68.1045731 C60.2251949,68.1045731 60.6319576,68.577553 60.6319576,69.495134 L60.6319576,72.7870738 Z M63.6211903,72.900589 C62.2873871,72.900589 61.4360234,71.8316545 61.4360234,70.4978513 C61.4360234,69.164048 62.2873871,68.1045731 63.6211903,68.1045731 C64.9739127,68.1045731 65.8252765,69.164048 65.8252765,70.4978513 C65.8252765,71.8316545 64.9739127,72.900589 63.6211903,72.900589 Z M63.6211903,72.4559879 C64.6995844,72.4559879 65.2955391,71.5194878 65.2955391,70.4978513 C65.2955391,69.4856744 64.6995844,68.5491742 63.6211903,68.5491742 C62.5617154,68.5491742 61.9563012,69.4856744 61.9563012,70.4978513 C61.9563012,71.5194878 62.5617154,72.4559879 63.6211903,72.4559879 Z M70.1956104,72.7870738 L69.7037114,72.7870738 L69.7037114,69.6937855 C69.7037114,68.8140429 69.2591103,68.5491742 68.5969385,68.5491742 C68.0104434,68.5491742 67.4050292,68.9180985 67.1117817,69.3343208 L67.1117817,72.7870738 L66.6198826,72.7870738 L66.6198826,68.2180883 L67.1117817,68.2180883 L67.1117817,68.9086389 C67.4428676,68.5113358 68.0955798,68.1045731 68.7577516,68.1045731 C69.6847922,68.1045731 70.1956104,68.5586338 70.1956104,69.5897299 L70.1956104,72.7870738 Z M72.248343,72.900589 C71.6429288,72.900589 71.3496812,72.5316647 71.3496812,71.9073313 L71.3496812,68.6532298 L70.5929135,68.6532298 L70.5929135,68.2180883 L71.3496812,68.2180883 L71.3496812,66.9694215 L71.8510399,66.9694215 L71.8510399,68.2180883 L72.7780804,68.2180883 L72.7780804,68.6532298 L71.8510399,68.6532298 L71.8510399,71.8316545 C71.8510399,72.2005788 72.0023935,72.4559879 72.3240198,72.4559879 C72.5415905,72.4559879 72.7307825,72.3519323 72.834838,72.2384172 L73.02403,72.6168011 C72.8442976,72.7870738 72.6267269,72.900589 72.248343,72.900589 Z M76.9592224,72.7870738 L76.4673233,72.7870738 L76.4673233,69.6748663 C76.4673233,68.7951238 76.0227223,68.5491742 75.3605505,68.5491742 C74.7740554,68.5491742 74.1686412,68.9180985 73.8753937,69.3343208 L73.8753937,72.7870738 L73.3834946,72.7870738 L73.3834946,66.4775224 L73.8753937,66.4775224 L73.8753937,68.9086389 C74.2064796,68.5113358 74.8591918,68.1045731 75.5213636,68.1045731 C76.4484042,68.1045731 76.9592224,68.5397146 76.9592224,69.5708107 L76.9592224,72.7870738 Z M78.2930256,72.8722102 C78.0659953,72.8722102 77.8673437,72.6830182 77.8673437,72.4559879 C77.8673437,72.2384172 78.0659953,72.0492252 78.2930256,72.0492252 C78.5200559,72.0492252 78.7092479,72.2384172 78.7092479,72.4559879 C78.7092479,72.6830182 78.5200559,72.8722102 78.2930256,72.8722102 Z" id="At-your-current-rate" fill="#4E4B6B"></path>
                <path d="M37.0813446,120.62406 C36.1505203,120.62406 35.4769969,120.291083 35.0229363,119.821887 L35.522403,119.133228 C35.8629485,119.504044 36.415389,119.837022 37.119183,119.837022 C37.8456801,119.837022 38.1256842,119.481341 38.1256842,119.140796 C38.1256842,118.081321 35.1894252,118.739709 35.1894252,116.885628 C35.1894252,116.045615 35.9159222,115.402363 37.0283709,115.402363 C37.8078417,115.402363 38.4510943,115.659664 38.9127227,116.113724 L38.4132559,116.772112 C38.012169,116.371025 37.4748639,116.189401 36.9451264,116.189401 C36.4305243,116.189401 36.0975465,116.446702 36.0975465,116.817518 C36.0975465,117.763478 39.0338055,117.180767 39.0338055,119.057551 C39.0338055,119.897563 38.435959,120.62406 37.0813446,120.62406 Z M43.3019758,120.533248 L39.843547,120.533248 L39.843547,115.485607 L43.3019758,115.485607 L43.3019758,116.265078 L40.7289654,116.265078 L40.7289654,117.566719 L43.2490021,117.566719 L43.2490021,118.346189 L40.7289654,118.346189 L40.7289654,119.753777 L43.3019758,119.753777 L43.3019758,120.533248 Z M47.6685259,120.533248 L44.2100972,120.533248 L44.2100972,115.485607 L47.6685259,115.485607 L47.6685259,116.265078 L45.0955155,116.265078 L45.0955155,117.566719 L47.6155522,117.566719 L47.6155522,118.346189 L45.0955155,118.346189 L45.0955155,119.753777 L47.6685259,119.753777 L47.6685259,120.533248 Z M52.8523853,120.533248 L51.966967,120.533248 L51.966967,118.437002 L50.0069384,115.485607 L51.0210072,115.485607 L52.4058923,117.642395 L53.7907773,115.485607 L54.8048462,115.485607 L52.8523853,118.437002 L52.8523853,120.533248 Z M57.4081273,120.62406 C55.8945918,120.62406 54.8275492,119.519179 54.8275492,118.013212 C54.8275492,116.507244 55.8945918,115.402363 57.4081273,115.402363 C58.9140952,115.402363 59.9887055,116.507244 59.9887055,118.013212 C59.9887055,119.519179 58.9140952,120.62406 57.4081273,120.62406 Z M57.4081273,119.837022 C58.4221962,119.837022 59.0805841,119.049983 59.0805841,118.013212 C59.0805841,116.968872 58.4221962,116.189401 57.4081273,116.189401 C56.3864908,116.189401 55.7356705,116.968872 55.7356705,118.013212 C55.7356705,119.049983 56.3864908,119.837022 57.4081273,119.837022 Z M63.0233443,120.62406 C61.5627825,120.62406 60.8362854,119.784048 60.8362854,118.535381 L60.8362854,115.485607 L61.7368391,115.485607 L61.7368391,118.512678 C61.7368391,119.314852 62.1833321,119.837022 63.0233443,119.837022 C63.8633565,119.837022 64.3098495,119.314852 64.3098495,118.512678 L64.3098495,115.485607 L65.2104032,115.485607 L65.2104032,118.535381 C65.2104032,119.784048 64.4914738,120.62406 63.0233443,120.62406 Z M70.1975029,120.533248 L69.1682987,120.533248 L68.0558501,118.648896 L67.1704318,118.648896 L67.1704318,120.533248 L66.2850135,120.533248 L66.2850135,115.485607 L68.5023431,115.485607 C69.5012765,115.485607 70.1596645,116.12886 70.1596645,117.067252 C70.1596645,117.960238 69.5693856,118.452137 68.9564037,118.550517 L70.1975029,120.533248 Z M68.3888279,117.869426 C68.8882946,117.869426 69.2515432,117.551583 69.2515432,117.059684 C69.2515432,116.575353 68.8882946,116.265078 68.3888279,116.265078 L67.1704318,116.265078 L67.1704318,117.869426 L68.3888279,117.869426 Z M74.7305419,120.62406 C73.7997176,120.62406 73.1261942,120.291083 72.6721336,119.821887 L73.1716003,119.133228 C73.5121458,119.504044 74.0645863,119.837022 74.7683803,119.837022 C75.4948774,119.837022 75.7748815,119.481341 75.7748815,119.140796 C75.7748815,118.081321 72.8386225,118.739709 72.8386225,116.885628 C72.8386225,116.045615 73.5651195,115.402363 74.6775682,115.402363 C75.457039,115.402363 76.1002916,115.659664 76.56192,116.113724 L76.0624532,116.772112 C75.6613663,116.371025 75.1240612,116.189401 74.5943237,116.189401 C74.0797216,116.189401 73.7467438,116.446702 73.7467438,116.817518 C73.7467438,117.763478 76.6830028,117.180767 76.6830028,119.057551 C76.6830028,119.897563 76.0851563,120.62406 74.7305419,120.62406 Z M78.3781627,120.533248 L77.4927443,120.533248 L77.4927443,115.485607 L79.7176416,115.485607 C80.7771165,115.485607 81.3598277,116.204537 81.3598277,117.067252 C81.3598277,117.922399 80.7695489,118.641329 79.7176416,118.641329 L78.3781627,118.641329 L78.3781627,120.533248 Z M79.5965588,117.861858 C80.0960255,117.861858 80.4517064,117.544016 80.4517064,117.067252 C80.4517064,116.58292 80.0960255,116.265078 79.5965588,116.265078 L78.3781627,116.265078 L78.3781627,117.861858 L79.5965588,117.861858 Z M85.5598889,120.533248 L82.1014602,120.533248 L82.1014602,115.485607 L85.5598889,115.485607 L85.5598889,116.265078 L82.9868785,116.265078 L82.9868785,117.566719 L85.5069152,117.566719 L85.5069152,118.346189 L82.9868785,118.346189 L82.9868785,119.753777 L85.5598889,119.753777 L85.5598889,120.533248 Z M90.8421281,120.533248 L89.9869805,120.533248 L87.3534286,116.923466 L87.3534286,120.533248 L86.4680103,120.533248 L86.4680103,115.485607 L87.3761316,115.485607 L89.9567098,118.981874 L89.9567098,115.485607 L90.8421281,115.485607 L90.8421281,120.533248 Z M93.8010901,120.533248 L91.9167383,120.533248 L91.9167383,115.485607 L93.7935224,115.485607 C95.3751671,115.485607 96.434642,116.529947 96.434642,118.005644 C96.434642,119.496476 95.3751671,120.533248 93.8010901,120.533248 Z M93.7935224,119.753777 C94.8908357,119.753777 95.5265207,118.966739 95.5265207,118.005644 C95.5265207,117.036981 94.9211064,116.265078 93.8010901,116.265078 L92.8021566,116.265078 L92.8021566,119.753777 L93.7935224,119.753777 Z M98.1752079,120.533248 L97.2897896,120.533248 L97.2897896,115.485607 L98.1752079,115.485607 L98.1752079,120.533248 Z M103.623936,120.533248 L102.768788,120.533248 L100.135236,116.923466 L100.135236,120.533248 L99.2498182,120.533248 L99.2498182,115.485607 L100.15794,115.485607 L102.738518,118.981874 L102.738518,115.485607 L103.623936,115.485607 L103.623936,120.533248 Z M107.127771,120.631628 C105.659641,120.631628 104.479084,119.594856 104.479084,118.013212 C104.479084,116.423999 105.659641,115.402363 107.127771,115.402363 C108.111569,115.402363 108.754822,115.871559 109.155908,116.446702 L108.436979,116.862925 C108.164543,116.484541 107.687779,116.189401 107.127771,116.189401 C106.128837,116.189401 105.387205,116.946169 105.387205,118.013212 C105.387205,119.065119 106.128837,119.837022 107.127771,119.837022 C107.642373,119.837022 108.096434,119.602424 108.323464,119.382961 L108.323464,118.60349 L106.809928,118.60349 L106.809928,117.82402 L109.201315,117.82402 L109.201315,119.708371 C108.709415,120.260812 107.998054,120.631628 107.127771,120.631628 Z M112.96245,120.533248 L112.077032,120.533248 L112.077032,115.485607 L114.301929,115.485607 C115.361404,115.485607 115.944116,116.204537 115.944116,117.067252 C115.944116,117.922399 115.353837,118.641329 114.301929,118.641329 L112.96245,118.641329 L112.96245,120.533248 Z M114.180847,117.861858 C114.680313,117.861858 115.035994,117.544016 115.035994,117.067252 C115.035994,116.58292 114.680313,116.265078 114.180847,116.265078 L112.96245,116.265078 L112.96245,117.861858 L114.180847,117.861858 Z M119.735522,120.533248 L116.625207,120.533248 L116.625207,115.485607 L117.510625,115.485607 L117.510625,119.753777 L119.735522,119.753777 L119.735522,120.533248 Z M125.063167,120.533248 L124.056666,120.533248 L123.68585,119.557018 L121.370141,119.557018 L120.999324,120.533248 L119.992823,120.533248 L121.975555,115.485607 L123.080436,115.485607 L125.063167,120.533248 Z M123.436117,118.777547 L122.527995,116.371025 L121.619874,118.777547 L123.436117,118.777547 Z M129.982158,120.533248 L129.12701,120.533248 L126.493458,116.923466 L126.493458,120.533248 L125.60804,120.533248 L125.60804,115.485607 L126.516161,115.485607 L129.09674,118.981874 L129.09674,115.485607 L129.982158,115.485607 L129.982158,120.533248 Z" id="SEE-YOUR-SPENDING-PL" fill="#13C6B9"></path>
                <path d="M0.45,104.156101 L142.34396,104.156101" id="Line-Copy-5" stroke="#000000" stroke-width="0.5" opacity="0.1" stroke-linecap="square"></path>
                <text id="2-minutes-ago-copy-18" opacity="0.7" font-family="Helvetica" font-size="5.67575839" font-weight="normal" fill="#B3B3B3">
                    <tspan x="12.2744966" y="89.5274362">2 minutes ago</tspan>
                </text>
            </g>
        </g>
    </g>
</svg>