<?xml version="1.0" encoding="UTF-8"?>
<svg width="221px" height="222px" viewBox="0 0 221 222" version="1.1" xmlns="http://www.w3.org/2000/svg" xmlns:xlink="http://www.w3.org/1999/xlink">
    <!-- Generator: Sketch 52.6 (67491) - http://www.bohemiancoding.com/sketch -->
    <desc>Created with Sketch.</desc>
    <defs>
        <rect id="path-1" x="0.4" y="5.68434189e-14" width="161.659955" height="161.828024" rx="1.05106637"></rect>
        <filter x="-18.6%" y="-14.8%" width="137.1%" height="137.1%" filterUnits="objectBoundingBox" id="filter-2">
            <feOffset dx="0" dy="6" in="SourceAlpha" result="shadowOffsetOuter1"></feOffset>
            <feGaussianBlur stdDeviation="9" in="shadowOffsetOuter1" result="shadowBlurOuter1"></feGaussianBlur>
            <feColorMatrix values="0 0 0 0 0   0 0 0 0 0   0 0 0 0 0  0 0 0 0.10377038 0" type="matrix" in="shadowBlurOuter1"></feColorMatrix>
        </filter>
        <linearGradient x1="-17.7886106%" y1="-34.9179731%" x2="81.1642342%" y2="112.132933%" id="linearGradient-3">
            <stop stop-color="#FBC471" offset="0%"></stop>
            <stop stop-color="#FA7D7B" offset="100%"></stop>
        </linearGradient>
        <path d="M20.5324593,0.410649186 C31.8721259,0.410649186 41.0649186,9.60344186 41.0649186,20.9431085 C41.0649186,32.2827751 31.8721259,41.4755677 20.5324593,41.4755677 C9.19279267,41.4755677 0,32.2827751 0,20.9431085 C0,9.60344186 9.19279267,0.410649186 20.5324593,0.410649186 L20.5324593,0.410649186 Z" id="path-4"></path>
        <linearGradient x1="31.1715998%" y1="32.7947317%" x2="50%" y2="100%" id="linearGradient-5">
            <stop stop-color="#FFE8B3" offset="0%"></stop>
            <stop stop-color="#FFCC7C" offset="100%"></stop>
        </linearGradient>
        <linearGradient x1="50%" y1="91.8763689%" x2="43.6104749%" y2="0%" id="linearGradient-6">
            <stop stop-color="#D17DF9" offset="0%"></stop>
            <stop stop-color="#FD7DEE" offset="100%"></stop>
        </linearGradient>
        <path d="M15.1395349,0 C6.77827256,0 0,6.77827256 0,15.1395349 C0,16.1338995 0.0987097674,17.1049493 0.28189814,18.0460228 C1.27444605,18.4968781 2.37327349,18.8877809 3.33069767,20.2869767 C5.44932419,23.3836172 8.10237628,19.4424935 8.17534884,17.2590698 C8.22591488,15.7436023 9.51792279,15.1658777 10.3042702,14.9536214 C10.4026772,12.3647609 12.526754,10.2948837 15.1395349,10.2948837 C17.8149935,10.2948837 19.984186,12.4640763 19.984186,15.1395349 C19.984186,15.7257377 19.8748786,16.2843865 19.6844233,16.8045809 C20.6542619,17.1013158 21.6713358,16.4339651 21.8009302,15.7451163 C22.0461907,14.4400884 23.125034,13.3766874 26.04,17.5618605 C27.9808884,20.348746 29.4848498,17.2981298 30.2727112,15.3817674 L30.2790698,15.1395349 C30.2790698,6.77827256 23.5007972,0 15.1395349,0 L15.1395349,0 Z" id="path-7"></path>
        <path d="M9.08372093,14.5339535 C9.08372093,14.8521865 9.11551395,15.1619414 9.1627493,15.4668516 C9.54547674,15.2010014 9.97029209,15.043853 10.3042702,14.9536214 C10.4026772,12.3647609 12.526754,10.2948837 15.1395349,10.2948837 C17.8149935,10.2948837 19.984186,12.4640763 19.984186,15.1395349 C19.984186,15.7257377 19.8748786,16.2843865 19.6844233,16.8045809 C20.0541307,16.9175219 20.4301967,16.8899679 20.7620553,16.7752102 C21.0385033,16.081214 21.1953488,15.3263567 21.1953488,14.5339535 C21.1953488,11.1893274 18.4841609,8.47813953 15.1395349,8.47813953 C11.7949088,8.47813953 9.08372093,11.1893274 9.08372093,14.5339535 Z" id="path-8"></path>
    </defs>
    <g id="Page-1" stroke="none" stroke-width="1" fill="none" fill-rule="evenodd">
        <g id="card/nudge/money-alert">
            <g transform="translate(29.000000, 20.000000)">
                <g id="Mask" fill-rule="nonzero">
                    <use fill="black" fill-opacity="1" filter="url(#filter-2)" xlink:href="#path-1"></use>
                    <use fill="#FFFFFF" xlink:href="#path-1"></use>
                </g>
                <path d="M23.9979269,143.434362 L15.589396,143.434362 C15.008908,143.434362 14.5383296,143.904941 14.5383296,144.485429 L14.5383296,150.791827 C14.5383296,151.372315 15.008908,151.842893 15.589396,151.842893 L23.9979269,151.842893 C24.5784148,151.842893 25.0489933,151.372315 25.0489933,150.791827 L25.0489933,144.485429 C25.0489933,143.904941 24.5784148,143.434362 23.9979269,143.434362 L23.9979269,143.434362 Z M23.9979269,150.791827 L15.589396,150.791827 L15.589396,145.536495 L19.7936614,148.164161 L23.9979269,145.536495 L23.9979269,150.791827 L23.9979269,150.791827 Z M23.9979269,144.485429 L19.7936614,147.113095 L15.589396,144.485429 L23.9979269,144.485429 L23.9979269,144.485429 Z" id="Shape-Copy-8" fill="#000000" opacity="0.3"></path>
                <path d="M108.982334,152.009732 C107.948085,152.009732 107.199725,151.639756 106.695214,151.118427 L107.250177,150.353251 C107.62856,150.765269 108.242383,151.135244 109.024377,151.135244 C109.831596,151.135244 110.142711,150.740043 110.142711,150.361659 C110.142711,149.184465 106.880201,149.916007 106.880201,147.855917 C106.880201,146.92257 107.68742,146.207845 108.923474,146.207845 C109.789553,146.207845 110.504278,146.493735 111.017198,146.998247 L110.462235,147.729789 C110.016583,147.284137 109.419578,147.082332 108.83098,147.082332 C108.2592,147.082332 107.889225,147.368222 107.889225,147.78024 C107.889225,148.831307 111.151735,148.18385 111.151735,150.269166 C111.151735,151.202513 110.487461,152.009732 108.982334,152.009732 Z M115.894146,151.908829 L112.051448,151.908829 L112.051448,146.300339 L115.894146,146.300339 L115.894146,147.166418 L113.035246,147.166418 L113.035246,148.612685 L115.835287,148.612685 L115.835287,149.478764 L113.035246,149.478764 L113.035246,151.04275 L115.894146,151.04275 L115.894146,151.908829 Z M120.745869,151.908829 L116.90317,151.908829 L116.90317,146.300339 L120.745869,146.300339 L120.745869,147.166418 L117.886968,147.166418 L117.886968,148.612685 L120.687009,148.612685 L120.687009,149.478764 L117.886968,149.478764 L117.886968,151.04275 L120.745869,151.04275 L120.745869,151.908829 Z M129.751405,151.908829 L128.767607,151.908829 L128.767607,147.578436 L127.052267,151.908829 L126.63184,151.908829 L124.908092,147.578436 L124.908092,151.908829 L123.924293,151.908829 L123.924293,146.300339 L125.311701,146.300339 L126.842054,150.151446 L128.363998,146.300339 L129.751405,146.300339 L129.751405,151.908829 Z M133.568878,152.009732 C131.887172,152.009732 130.701569,150.782086 130.701569,149.108788 C130.701569,147.435491 131.887172,146.207845 133.568878,146.207845 C135.242176,146.207845 136.436188,147.435491 136.436188,149.108788 C136.436188,150.782086 135.242176,152.009732 133.568878,152.009732 Z M133.568878,151.135244 C134.695622,151.135244 135.427164,150.260757 135.427164,149.108788 C135.427164,147.948411 134.695622,147.082332 133.568878,147.082332 C132.433727,147.082332 131.710593,147.948411 131.710593,149.108788 C131.710593,150.260757 132.433727,151.135244 133.568878,151.135244 Z M141.725153,151.908829 L140.581593,151.908829 L139.345539,149.815105 L138.361741,149.815105 L138.361741,151.908829 L137.377943,151.908829 L137.377943,146.300339 L139.841643,146.300339 C140.951569,146.300339 141.683111,147.015064 141.683111,148.057722 C141.683111,149.049929 141.027245,149.596483 140.346154,149.705794 L141.725153,151.908829 Z M139.715515,148.949026 C140.270478,148.949026 140.674087,148.595868 140.674087,148.049313 C140.674087,147.511168 140.270478,147.166418 139.715515,147.166418 L138.361741,147.166418 L138.361741,148.949026 L139.715515,148.949026 Z M146.509608,151.908829 L142.666909,151.908829 L142.666909,146.300339 L146.509608,146.300339 L146.509608,147.166418 L143.650707,147.166418 L143.650707,148.612685 L146.450748,148.612685 L146.450748,149.478764 L143.650707,149.478764 L143.650707,151.04275 L146.509608,151.04275 L146.509608,151.908829 Z" id="SEE-MORE" fill="#13C6B9"></path>
                <path d="M0.4,133.402371 L162.059955,133.402371" id="Line-Copy-5" stroke="#000000" stroke-width="0.525533184" opacity="0.1" stroke-linecap="square"></path>
                <path d="M22.972,71 L22.508,71 L22.508,68.72 L20.388,65.664 L20.94,65.664 L22.74,68.288 L24.54,65.664 L25.092,65.664 L22.972,68.72 L22.972,71 Z M27.492,71.096 C26.364,71.096 25.644,70.192 25.644,69.064 C25.644,67.936 26.364,67.04 27.492,67.04 C28.636,67.04 29.356,67.936 29.356,69.064 C29.356,70.192 28.636,71.096 27.492,71.096 Z M27.492,70.72 C28.404,70.72 28.908,69.928 28.908,69.064 C28.908,68.208 28.404,67.416 27.492,67.416 C26.596,67.416 26.084,68.208 26.084,69.064 C26.084,69.928 26.596,70.72 27.492,70.72 Z M33.452,71 L33.036,71 L33.036,70.432 C32.724,70.784 32.204,71.096 31.644,71.096 C30.86,71.096 30.428,70.728 30.428,69.856 L30.428,67.136 L30.844,67.136 L30.844,69.76 C30.844,70.512 31.22,70.72 31.78,70.72 C32.276,70.72 32.78,70.424 33.036,70.08 L33.036,67.136 L33.452,67.136 L33.452,71 Z M37.972,71.096 C37.348,71.096 36.868,70.912 36.484,70.48 L36.732,70.176 C36.98,70.488 37.436,70.744 37.98,70.744 C38.628,70.744 39.012,70.408 39.012,69.96 C39.012,68.904 36.572,69.504 36.572,68.112 C36.572,67.52 37.076,67.04 37.948,67.04 C38.612,67.04 39.052,67.296 39.332,67.608 L39.1,67.904 C38.876,67.6 38.46,67.392 37.948,67.392 C37.348,67.392 36.988,67.696 36.988,68.096 C36.988,69.064 39.42,68.472 39.42,69.96 C39.42,70.584 38.94,71.096 37.972,71.096 Z M42.252,71.096 C41.708,71.096 41.22,70.816 40.908,70.376 L40.908,72.472 L40.492,72.472 L40.492,67.136 L40.908,67.136 L40.908,67.744 C41.18,67.352 41.676,67.04 42.252,67.04 C43.284,67.04 43.98,67.824 43.98,69.064 C43.98,70.296 43.284,71.096 42.252,71.096 Z M42.18,70.72 C43.044,70.72 43.532,70 43.532,69.064 C43.532,68.128 43.044,67.416 42.18,67.416 C41.644,67.416 41.132,67.736 40.908,68.104 L40.908,70.016 C41.132,70.384 41.644,70.72 42.18,70.72 Z M46.74,71.096 C45.612,71.096 44.812,70.256 44.812,69.064 C44.812,67.944 45.596,67.04 46.668,67.04 C47.844,67.04 48.492,67.968 48.492,69.088 L48.492,69.2 L45.26,69.2 C45.3,70.04 45.86,70.736 46.772,70.736 C47.26,70.736 47.708,70.552 48.036,70.2 L48.252,70.472 C47.868,70.872 47.38,71.096 46.74,71.096 Z M48.068,68.872 C48.06,68.216 47.628,67.4 46.66,67.4 C45.748,67.4 45.292,68.2 45.26,68.872 L48.068,68.872 Z M52.588,71 L52.172,71 L52.172,68.384 C52.172,67.64 51.796,67.416 51.236,67.416 C50.74,67.416 50.228,67.728 49.98,68.08 L49.98,71 L49.564,71 L49.564,67.136 L49.98,67.136 L49.98,67.72 C50.26,67.384 50.812,67.04 51.372,67.04 C52.156,67.04 52.588,67.424 52.588,68.296 L52.588,71 Z M54.724,71.096 C54.212,71.096 53.964,70.784 53.964,70.256 L53.964,67.504 L53.324,67.504 L53.324,67.136 L53.964,67.136 L53.964,66.08 L54.388,66.08 L54.388,67.136 L55.172,67.136 L55.172,67.504 L54.388,67.504 L54.388,70.192 C54.388,70.504 54.516,70.72 54.788,70.72 C54.972,70.72 55.132,70.632 55.22,70.536 L55.38,70.856 C55.228,71 55.044,71.096 54.724,71.096 Z M62.364,71 L61.052,71 L60.004,69.104 L59.172,69.104 L59.172,71 L58.036,71 L58.036,65.664 L60.532,65.664 C61.644,65.664 62.332,66.392 62.332,67.384 C62.332,68.32 61.732,68.832 61.156,68.968 L62.364,71 Z M60.372,68.104 C60.82,68.104 61.164,67.832 61.164,67.376 C61.164,66.936 60.82,66.664 60.372,66.664 L59.172,66.664 L59.172,68.104 L60.372,68.104 Z M67.044,71 L63.028,71 L63.028,70.104 C65.212,68.488 65.852,67.944 65.852,67.288 C65.852,66.816 65.428,66.592 64.988,66.592 C64.38,66.592 63.916,66.832 63.556,67.208 L62.908,66.456 C63.428,65.856 64.22,65.584 64.964,65.584 C66.108,65.584 67.004,66.224 67.004,67.288 C67.004,68.2 66.252,68.992 64.868,70 L67.044,70 L67.044,71 Z M69.172,70.608 C69.172,71.208 68.844,71.744 68.348,72.096 L67.908,71.736 C68.164,71.6 68.46,71.264 68.524,70.984 C68.5,70.992 68.436,71.008 68.372,71.008 C68.068,71.008 67.828,70.768 67.828,70.432 C67.828,70.08 68.116,69.792 68.46,69.792 C68.836,69.792 69.172,70.088 69.172,70.608 Z M73.38,71 L72.244,71 L72.244,69.896 L69.692,69.896 L69.692,69 L71.812,65.664 L73.38,65.664 L73.38,68.896 L74.068,68.896 L74.068,69.896 L73.38,69.896 L73.38,71 Z M72.244,68.896 L72.244,66.672 L70.804,68.896 L72.244,68.896 Z M78.156,71 L77.02,71 L77.02,69.896 L74.468,69.896 L74.468,69 L76.588,65.664 L78.156,65.664 L78.156,68.896 L78.844,68.896 L78.844,69.896 L78.156,69.896 L78.156,71 Z M77.02,68.896 L77.02,66.672 L75.58,68.896 L77.02,68.896 Z M81.148,71.088 C80.5,71.088 79.956,70.872 79.58,70.536 L80.084,69.664 C80.372,69.936 80.676,70.08 81.148,70.08 C82.028,70.08 82.484,69.336 82.484,68.576 L82.484,68.456 C82.228,68.816 81.692,69.144 81.108,69.144 C80.148,69.144 79.292,68.544 79.292,67.408 C79.292,66.368 80.116,65.576 81.332,65.576 C82.956,65.576 83.636,66.824 83.636,68.328 C83.636,69.944 82.724,71.088 81.148,71.088 Z M81.428,68.168 C81.836,68.168 82.22,67.984 82.476,67.664 C82.428,67.152 82.14,66.584 81.396,66.584 C80.78,66.584 80.444,67 80.444,67.368 C80.444,67.928 80.932,68.168 81.428,68.168 Z M88.26,71.096 C87.132,71.096 86.412,70.192 86.412,69.064 C86.412,67.936 87.132,67.04 88.26,67.04 C89.404,67.04 90.124,67.936 90.124,69.064 C90.124,70.192 89.404,71.096 88.26,71.096 Z M88.26,70.72 C89.172,70.72 89.676,69.928 89.676,69.064 C89.676,68.208 89.172,67.416 88.26,67.416 C87.364,67.416 86.852,68.208 86.852,69.064 C86.852,69.928 87.364,70.72 88.26,70.72 Z M94.22,71 L93.804,71 L93.804,68.384 C93.804,67.64 93.428,67.416 92.868,67.416 C92.372,67.416 91.86,67.728 91.612,68.08 L91.612,71 L91.196,71 L91.196,67.136 L91.612,67.136 L91.612,67.72 C91.892,67.384 92.444,67.04 93.004,67.04 C93.788,67.04 94.22,67.424 94.22,68.296 L94.22,71 Z M101.244,71 L97.468,71 L97.468,65.664 L101.244,65.664 L101.244,66.664 L98.604,66.664 L98.604,67.784 L101.188,67.784 L101.188,68.784 L98.604,68.784 L98.604,70 L101.244,70 L101.244,71 Z M105.452,71 L104.428,71 L104.428,70.592 C104.164,70.912 103.708,71.096 103.204,71.096 C102.588,71.096 101.868,70.68 101.868,69.816 C101.868,68.904 102.588,68.568 103.204,68.568 C103.724,68.568 104.172,68.736 104.428,69.04 L104.428,68.552 C104.428,68.16 104.092,67.904 103.58,67.904 C103.172,67.904 102.788,68.064 102.468,68.36 L102.068,67.648 C102.54,67.224 103.148,67.04 103.756,67.04 C104.644,67.04 105.452,67.392 105.452,68.504 L105.452,71 Z M103.612,70.408 C103.94,70.408 104.26,70.296 104.428,70.072 L104.428,69.592 C104.26,69.368 103.94,69.248 103.612,69.248 C103.212,69.248 102.884,69.464 102.884,69.832 C102.884,70.2 103.212,70.408 103.612,70.408 Z M107.748,71.096 C107.036,71.096 106.66,70.728 106.66,70.032 L106.66,68.024 L106.02,68.024 L106.02,67.136 L106.66,67.136 L106.66,66.08 L107.676,66.08 L107.676,67.136 L108.46,67.136 L108.46,68.024 L107.676,68.024 L107.676,69.76 C107.676,70.008 107.804,70.192 108.028,70.192 C108.18,70.192 108.324,70.136 108.38,70.072 L108.596,70.848 C108.444,70.984 108.172,71.096 107.748,71.096 Z M109.66,66.72 C109.332,66.72 109.06,66.448 109.06,66.112 C109.06,65.776 109.332,65.512 109.66,65.512 C109.996,65.512 110.268,65.776 110.268,66.112 C110.268,66.448 109.996,66.72 109.66,66.72 Z M110.172,71 L109.156,71 L109.156,67.136 L110.172,67.136 L110.172,71 Z M114.812,71 L113.788,71 L113.788,68.664 C113.788,68.128 113.508,67.944 113.076,67.944 C112.676,67.944 112.372,68.168 112.196,68.392 L112.196,71 L111.18,71 L111.18,67.136 L112.196,67.136 L112.196,67.632 C112.444,67.344 112.924,67.04 113.548,67.04 C114.404,67.04 114.812,67.52 114.812,68.272 L114.812,71 Z M117.396,72.568 C116.74,72.568 116.22,72.416 115.732,71.992 L116.188,71.264 C116.5,71.6 116.916,71.736 117.396,71.736 C117.884,71.736 118.468,71.528 118.468,70.744 L118.468,70.368 C118.164,70.752 117.748,70.968 117.268,70.968 C116.308,70.968 115.564,70.296 115.564,69.008 C115.564,67.744 116.292,67.04 117.268,67.04 C117.732,67.04 118.156,67.232 118.468,67.632 L118.468,67.136 L119.484,67.136 L119.484,70.744 C119.484,72.208 118.348,72.568 117.396,72.568 Z M117.596,70.072 C117.924,70.072 118.292,69.88 118.468,69.632 L118.468,68.376 C118.292,68.128 117.924,67.944 117.596,67.944 C117.012,67.944 116.612,68.344 116.612,69.008 C116.612,69.672 117.012,70.072 117.596,70.072 Z M125.108,71.096 C123.492,71.096 122.316,69.944 122.316,68.336 C122.316,66.728 123.492,65.576 125.108,65.576 C126.716,65.576 127.892,66.728 127.892,68.336 C127.892,69.944 126.716,71.096 125.108,71.096 Z M125.108,70.088 C126.092,70.088 126.724,69.328 126.724,68.336 C126.724,67.336 126.092,66.584 125.108,66.584 C124.116,66.584 123.484,67.336 123.484,68.336 C123.484,69.328 124.116,70.088 125.108,70.088 Z M132.292,71 L131.276,71 L131.276,70.512 C131.012,70.8 130.548,71.096 129.916,71.096 C129.068,71.096 128.668,70.632 128.668,69.88 L128.668,67.136 L129.684,67.136 L129.684,69.48 C129.684,70.016 129.964,70.192 130.396,70.192 C130.788,70.192 131.1,69.976 131.276,69.752 L131.276,67.136 L132.292,67.136 L132.292,71 Z M134.596,71.096 C133.884,71.096 133.508,70.728 133.508,70.032 L133.508,68.024 L132.868,68.024 L132.868,67.136 L133.508,67.136 L133.508,66.08 L134.524,66.08 L134.524,67.136 L135.308,67.136 L135.308,68.024 L134.524,68.024 L134.524,69.76 C134.524,70.008 134.652,70.192 134.876,70.192 C135.028,70.192 135.172,70.136 135.228,70.072 L135.444,70.848 C135.292,70.984 135.02,71.096 134.596,71.096 Z M142.66,71 L141.364,71 C141.252,70.896 141.116,70.76 140.964,70.6 C140.564,70.904 140.076,71.096 139.508,71.096 C138.532,71.096 137.748,70.584 137.748,69.552 C137.748,68.744 138.284,68.32 138.9,68.008 C138.684,67.616 138.548,67.224 138.548,66.864 C138.548,66.144 139.18,65.584 140.068,65.584 C140.82,65.584 141.468,65.992 141.468,66.712 C141.468,67.528 140.82,67.872 140.164,68.176 C140.324,68.392 140.484,68.592 140.62,68.752 C140.772,68.944 140.924,69.128 141.076,69.304 C141.3,68.952 141.468,68.576 141.564,68.264 L142.372,68.64 C142.18,69.064 141.94,69.52 141.628,69.92 C141.948,70.272 142.292,70.624 142.66,71 Z M139.652,70.296 C139.924,70.296 140.188,70.192 140.42,70.024 C140.18,69.76 139.956,69.504 139.828,69.344 C139.652,69.128 139.46,68.888 139.292,68.64 C139.012,68.84 138.828,69.088 138.828,69.456 C138.828,69.976 139.212,70.296 139.652,70.296 Z M139.556,66.888 C139.556,67.104 139.644,67.352 139.788,67.608 C140.236,67.392 140.588,67.16 140.588,66.768 C140.588,66.488 140.38,66.32 140.116,66.32 C139.804,66.32 139.556,66.552 139.556,66.888 Z M28.16,81 L27.016,81 L27.016,76.664 L25.456,76.664 L25.456,75.664 L29.712,75.664 L29.712,76.664 L28.16,76.664 L28.16,81 Z M33.76,81 L32.736,81 L32.736,80.592 C32.472,80.912 32.016,81.096 31.512,81.096 C30.896,81.096 30.176,80.68 30.176,79.816 C30.176,78.904 30.896,78.568 31.512,78.568 C32.032,78.568 32.48,78.736 32.736,79.04 L32.736,78.552 C32.736,78.16 32.4,77.904 31.888,77.904 C31.48,77.904 31.096,78.064 30.776,78.36 L30.376,77.648 C30.848,77.224 31.456,77.04 32.064,77.04 C32.952,77.04 33.76,77.392 33.76,78.504 L33.76,81 Z M31.92,80.408 C32.248,80.408 32.568,80.296 32.736,80.072 L32.736,79.592 C32.568,79.368 32.248,79.248 31.92,79.248 C31.52,79.248 31.192,79.464 31.192,79.832 C31.192,80.2 31.52,80.408 31.92,80.408 Z M38.536,81 L37.264,81 L36.24,79.512 L35.776,80.008 L35.776,81 L34.76,81 L34.76,75.664 L35.776,75.664 L35.776,78.856 L37.24,77.136 L38.488,77.136 L36.96,78.888 L38.536,81 Z M40.864,81.096 C39.688,81.096 38.8,80.304 38.8,79.064 C38.8,77.944 39.632,77.04 40.8,77.04 C41.96,77.04 42.736,77.904 42.736,79.16 L42.736,79.4 L39.864,79.4 C39.936,79.872 40.32,80.264 40.976,80.264 C41.304,80.264 41.752,80.128 42,79.888 L42.456,80.56 C42.072,80.912 41.464,81.096 40.864,81.096 Z M41.76,78.696 C41.728,78.328 41.472,77.872 40.8,77.872 C40.168,77.872 39.896,78.312 39.856,78.696 L41.76,78.696 Z M45.264,81.096 C43.992,81.096 43.224,80.16 43.224,79.064 C43.224,77.968 43.992,77.04 45.264,77.04 C46.544,77.04 47.312,77.968 47.312,79.064 C47.312,80.16 46.544,81.096 45.264,81.096 Z M45.264,80.192 C45.904,80.192 46.256,79.672 46.256,79.064 C46.256,78.464 45.904,77.944 45.264,77.944 C44.632,77.944 44.28,78.464 44.28,79.064 C44.28,79.672 44.632,80.192 45.264,80.192 Z M51.696,81 L50.68,81 L50.68,80.512 C50.416,80.8 49.952,81.096 49.32,81.096 C48.472,81.096 48.072,80.632 48.072,79.88 L48.072,77.136 L49.088,77.136 L49.088,79.48 C49.088,80.016 49.368,80.192 49.8,80.192 C50.192,80.192 50.504,79.976 50.68,79.752 L50.68,77.136 L51.696,77.136 L51.696,81 Z M54,81.096 C53.288,81.096 52.912,80.728 52.912,80.032 L52.912,78.024 L52.272,78.024 L52.272,77.136 L52.912,77.136 L52.912,76.08 L53.928,76.08 L53.928,77.136 L54.712,77.136 L54.712,78.024 L53.928,78.024 L53.928,79.76 C53.928,80.008 54.056,80.192 54.28,80.192 C54.432,80.192 54.576,80.136 54.632,80.072 L54.848,80.848 C54.696,80.984 54.424,81.096 54,81.096 Z M56.8,81.096 C56.128,81.096 55.48,80.872 55.072,80.496 L55.512,79.76 C55.8,80.032 56.368,80.296 56.848,80.296 C57.288,80.296 57.496,80.128 57.496,79.888 C57.496,79.256 55.208,79.776 55.208,78.256 C55.208,77.608 55.768,77.04 56.792,77.04 C57.44,77.04 57.96,77.264 58.344,77.568 L57.936,78.288 C57.704,78.048 57.264,77.84 56.792,77.84 C56.424,77.84 56.184,78 56.184,78.216 C56.184,78.784 58.48,78.304 58.48,79.864 C58.48,80.576 57.872,81.096 56.8,81.096 Z M63.072,81.096 C61.944,81.096 61.224,80.192 61.224,79.064 C61.224,77.936 61.944,77.04 63.072,77.04 C64.216,77.04 64.936,77.936 64.936,79.064 C64.936,80.192 64.216,81.096 63.072,81.096 Z M63.072,80.72 C63.984,80.72 64.488,79.928 64.488,79.064 C64.488,78.208 63.984,77.416 63.072,77.416 C62.176,77.416 61.664,78.208 61.664,79.064 C61.664,79.928 62.176,80.72 63.072,80.72 Z M67.52,81 L67.048,81 L65.416,77.136 L65.88,77.136 L67.288,80.512 L68.68,77.136 L69.152,77.136 L67.52,81 Z M71.568,81.096 C70.44,81.096 69.64,80.256 69.64,79.064 C69.64,77.944 70.424,77.04 71.496,77.04 C72.672,77.04 73.32,77.968 73.32,79.088 L73.32,79.2 L70.088,79.2 C70.128,80.04 70.688,80.736 71.6,80.736 C72.088,80.736 72.536,80.552 72.864,80.2 L73.08,80.472 C72.696,80.872 72.208,81.096 71.568,81.096 Z M72.896,78.872 C72.888,78.216 72.456,77.4 71.488,77.4 C70.576,77.4 70.12,78.2 70.088,78.872 L72.896,78.872 Z M74.808,81 L74.392,81 L74.392,77.136 L74.808,77.136 L74.808,77.8 C75.136,77.368 75.576,77.056 76.112,77.056 L76.112,77.512 C76.04,77.496 75.984,77.496 75.904,77.496 C75.512,77.496 74.984,77.848 74.808,78.184 L74.808,81 Z M79.84,81.096 C79.328,81.096 79.08,80.784 79.08,80.256 L79.08,77.504 L78.44,77.504 L78.44,77.136 L79.08,77.136 L79.08,76.08 L79.504,76.08 L79.504,77.136 L80.288,77.136 L80.288,77.504 L79.504,77.504 L79.504,80.192 C79.504,80.504 79.632,80.72 79.904,80.72 C80.088,80.72 80.248,80.632 80.336,80.536 L80.496,80.856 C80.344,81 80.16,81.096 79.84,81.096 Z M84.224,81 L83.808,81 L83.808,78.368 C83.808,77.624 83.432,77.416 82.872,77.416 C82.376,77.416 81.864,77.728 81.616,78.08 L81.616,81 L81.2,81 L81.2,75.664 L81.616,75.664 L81.616,77.72 C81.896,77.384 82.448,77.04 83.008,77.04 C83.792,77.04 84.224,77.408 84.224,78.28 L84.224,81 Z M87.232,81.096 C86.104,81.096 85.304,80.256 85.304,79.064 C85.304,77.944 86.088,77.04 87.16,77.04 C88.336,77.04 88.984,77.968 88.984,79.088 L88.984,79.2 L85.752,79.2 C85.792,80.04 86.352,80.736 87.264,80.736 C87.752,80.736 88.2,80.552 88.528,80.2 L88.744,80.472 C88.36,80.872 87.872,81.096 87.232,81.096 Z M88.56,78.872 C88.552,78.216 88.12,77.4 87.152,77.4 C86.24,77.4 85.784,78.2 85.752,78.872 L88.56,78.872 Z M93.888,81.096 C93.344,81.096 92.856,80.816 92.544,80.376 L92.544,82.472 L92.128,82.472 L92.128,77.136 L92.544,77.136 L92.544,77.744 C92.816,77.352 93.312,77.04 93.888,77.04 C94.92,77.04 95.616,77.824 95.616,79.064 C95.616,80.296 94.92,81.096 93.888,81.096 Z M93.816,80.72 C94.68,80.72 95.168,80 95.168,79.064 C95.168,78.128 94.68,77.416 93.816,77.416 C93.28,77.416 92.768,77.736 92.544,78.104 L92.544,80.016 C92.768,80.384 93.28,80.72 93.816,80.72 Z M99.536,81 L99.12,81 L99.12,80.544 C98.776,80.92 98.344,81.096 97.808,81.096 C97.144,81.096 96.456,80.64 96.456,79.808 C96.456,78.968 97.136,78.528 97.808,78.528 C98.344,78.528 98.784,78.704 99.12,79.08 L99.12,78.296 C99.12,77.72 98.656,77.408 98.088,77.408 C97.6,77.408 97.224,77.576 96.872,77.976 L96.64,77.688 C97.04,77.256 97.488,77.04 98.128,77.04 C98.912,77.04 99.536,77.416 99.536,78.28 L99.536,81 Z M97.952,80.768 C98.416,80.768 98.848,80.592 99.12,80.24 L99.12,79.392 C98.848,79.032 98.416,78.856 97.952,78.856 C97.32,78.856 96.896,79.264 96.896,79.816 C96.896,80.36 97.32,80.768 97.952,80.768 Z M101.984,81.096 C101.36,81.096 100.88,80.912 100.496,80.48 L100.744,80.176 C100.992,80.488 101.448,80.744 101.992,80.744 C102.64,80.744 103.024,80.408 103.024,79.96 C103.024,78.904 100.584,79.504 100.584,78.112 C100.584,77.52 101.088,77.04 101.96,77.04 C102.624,77.04 103.064,77.296 103.344,77.608 L103.112,77.904 C102.888,77.6 102.472,77.392 101.96,77.392 C101.36,77.392 101,77.696 101,78.096 C101,79.064 103.432,78.472 103.432,79.96 C103.432,80.584 102.952,81.096 101.984,81.096 Z M105.344,81.096 C104.832,81.096 104.584,80.784 104.584,80.256 L104.584,77.504 L103.944,77.504 L103.944,77.136 L104.584,77.136 L104.584,76.08 L105.008,76.08 L105.008,77.136 L105.792,77.136 L105.792,77.504 L105.008,77.504 L105.008,80.192 C105.008,80.504 105.136,80.72 105.408,80.72 C105.592,80.72 105.752,80.632 105.84,80.536 L106,80.856 C105.848,81 105.664,81.096 105.344,81.096 Z M110.296,81.088 C109.6,81.088 109.176,80.808 108.856,80.408 L109.128,80.08 C109.392,80.424 109.712,80.672 110.296,80.672 C111.472,80.672 111.872,79.448 111.872,78.328 L111.872,78.08 C111.648,78.448 111.032,78.968 110.304,78.968 C109.344,78.968 108.584,78.416 108.584,77.28 C108.584,76.408 109.24,75.576 110.376,75.576 C111.816,75.576 112.336,76.904 112.336,78.336 C112.336,79.704 111.768,81.088 110.296,81.088 Z M110.384,78.56 C110.968,78.56 111.536,78.184 111.84,77.648 C111.776,76.92 111.4,75.992 110.392,75.992 C109.48,75.992 109.048,76.696 109.048,77.272 C109.048,78.144 109.624,78.56 110.384,78.56 Z M115.24,81.096 C113.8,81.096 113.264,79.6 113.264,78.336 C113.264,77.064 113.8,75.584 115.24,75.584 C116.664,75.584 117.208,77.064 117.208,78.336 C117.208,79.6 116.664,81.096 115.24,81.096 Z M115.24,80.68 C116.352,80.68 116.72,79.432 116.72,78.336 C116.72,77.232 116.36,76 115.24,76 C114.112,76 113.744,77.232 113.744,78.336 C113.744,79.432 114.112,80.68 115.24,80.68 Z M123.656,81 L123.232,81 L123.232,80.384 C122.96,80.784 122.464,81.096 121.888,81.096 C120.864,81.096 120.168,80.312 120.168,79.072 C120.168,77.848 120.864,77.04 121.888,77.04 C122.44,77.04 122.928,77.32 123.232,77.76 L123.232,75.664 L123.656,75.664 L123.656,81 Z M121.96,80.72 C122.504,80.72 123.008,80.4 123.232,80.032 L123.232,78.12 C123.008,77.744 122.504,77.416 121.96,77.416 C121.104,77.416 120.608,78.136 120.608,79.072 C120.608,80.008 121.104,80.72 121.96,80.72 Z M127.824,81 L127.408,81 L127.408,80.544 C127.064,80.92 126.632,81.096 126.096,81.096 C125.432,81.096 124.744,80.64 124.744,79.808 C124.744,78.968 125.424,78.528 126.096,78.528 C126.632,78.528 127.072,78.704 127.408,79.08 L127.408,78.296 C127.408,77.72 126.944,77.408 126.376,77.408 C125.888,77.408 125.512,77.576 125.16,77.976 L124.928,77.688 C125.328,77.256 125.776,77.04 126.416,77.04 C127.2,77.04 127.824,77.416 127.824,78.28 L127.824,81 Z M126.24,80.768 C126.704,80.768 127.136,80.592 127.408,80.24 L127.408,79.392 C127.136,79.032 126.704,78.856 126.24,78.856 C125.608,78.856 125.184,79.264 125.184,79.816 C125.184,80.36 125.608,80.768 126.24,80.768 Z M128.864,82.512 L128.936,82.128 C129.024,82.168 129.176,82.192 129.272,82.192 C129.528,82.192 129.704,82.088 129.864,81.72 L130.168,81.032 L128.528,77.136 L128.992,77.136 L130.4,80.512 L131.792,77.136 L132.264,77.136 L130.264,81.848 C130.056,82.336 129.728,82.568 129.28,82.568 C129.144,82.568 128.968,82.544 128.864,82.512 Z M134.12,81.096 C133.496,81.096 133.016,80.912 132.632,80.48 L132.88,80.176 C133.128,80.488 133.584,80.744 134.128,80.744 C134.776,80.744 135.16,80.408 135.16,79.96 C135.16,78.904 132.72,79.504 132.72,78.112 C132.72,77.52 133.224,77.04 134.096,77.04 C134.76,77.04 135.2,77.296 135.48,77.608 L135.248,77.904 C135.024,77.6 134.608,77.392 134.096,77.392 C133.496,77.392 133.136,77.696 133.136,78.096 C133.136,79.064 135.568,78.472 135.568,79.96 C135.568,80.584 135.088,81.096 134.12,81.096 Z M136.872,81.072 C136.68,81.072 136.512,80.912 136.512,80.72 C136.512,80.536 136.68,80.376 136.872,80.376 C137.064,80.376 137.224,80.536 137.224,80.72 C137.224,80.912 137.064,81.072 136.872,81.072 Z M26.784,91 L26.32,91 L26.32,86.08 L24.576,86.08 L24.576,85.664 L28.528,85.664 L28.528,86.08 L26.784,86.08 L26.784,91 Z M32.48,91 L32.064,91 L32.064,88.368 C32.064,87.624 31.688,87.416 31.128,87.416 C30.632,87.416 30.12,87.728 29.872,88.08 L29.872,91 L29.456,91 L29.456,85.664 L29.872,85.664 L29.872,87.72 C30.152,87.384 30.704,87.04 31.264,87.04 C32.048,87.04 32.48,87.408 32.48,88.28 L32.48,91 Z M36.648,91 L36.232,91 L36.232,90.544 C35.888,90.92 35.456,91.096 34.92,91.096 C34.256,91.096 33.568,90.64 33.568,89.808 C33.568,88.968 34.248,88.528 34.92,88.528 C35.456,88.528 35.896,88.704 36.232,89.08 L36.232,88.296 C36.232,87.72 35.768,87.408 35.2,87.408 C34.712,87.408 34.336,87.576 33.984,87.976 L33.752,87.688 C34.152,87.256 34.6,87.04 35.24,87.04 C36.024,87.04 36.648,87.416 36.648,88.28 L36.648,91 Z M35.064,90.768 C35.528,90.768 35.96,90.592 36.232,90.24 L36.232,89.392 C35.96,89.032 35.528,88.856 35.064,88.856 C34.432,88.856 34.008,89.264 34.008,89.816 C34.008,90.36 34.432,90.768 35.064,90.768 Z M38.784,91.096 C38.272,91.096 38.024,90.784 38.024,90.256 L38.024,87.504 L37.384,87.504 L37.384,87.136 L38.024,87.136 L38.024,86.08 L38.448,86.08 L38.448,87.136 L39.232,87.136 L39.232,87.504 L38.448,87.504 L38.448,90.192 C38.448,90.504 38.576,90.72 38.848,90.72 C39.032,90.72 39.192,90.632 39.28,90.536 L39.44,90.856 C39.288,91 39.104,91.096 38.784,91.096 Z M40.768,86.096 C40.768,86.544 40.504,86.96 40.192,87.184 L39.96,86.992 C40.216,86.816 40.408,86.504 40.424,86.248 C40.424,86.256 40.368,86.264 40.344,86.264 C40.152,86.264 40.016,86.12 40.016,85.928 C40.016,85.744 40.168,85.584 40.36,85.584 C40.576,85.584 40.768,85.768 40.768,86.096 Z M43.048,91.096 C42.424,91.096 41.944,90.912 41.56,90.48 L41.808,90.176 C42.056,90.488 42.512,90.744 43.056,90.744 C43.704,90.744 44.088,90.408 44.088,89.96 C44.088,88.904 41.648,89.504 41.648,88.112 C41.648,87.52 42.152,87.04 43.024,87.04 C43.688,87.04 44.128,87.296 44.408,87.608 L44.176,87.904 C43.952,87.6 43.536,87.392 43.024,87.392 C42.424,87.392 42.064,87.696 42.064,88.096 C42.064,89.064 44.496,88.472 44.496,89.96 C44.496,90.584 44.016,91.096 43.048,91.096 Z M51.848,91 L50.536,91 L49.488,89.104 L48.656,89.104 L48.656,91 L47.52,91 L47.52,85.664 L50.016,85.664 C51.128,85.664 51.816,86.392 51.816,87.384 C51.816,88.32 51.216,88.832 50.64,88.968 L51.848,91 Z M49.856,88.104 C50.304,88.104 50.648,87.832 50.648,87.376 C50.648,86.936 50.304,86.664 49.856,86.664 L48.656,86.664 L48.656,88.104 L49.856,88.104 Z M54.712,91.096 C53.088,91.096 52.408,89.848 52.408,88.344 C52.408,86.728 53.32,85.584 54.896,85.584 C55.544,85.584 56.088,85.8 56.472,86.136 L55.96,87.008 C55.672,86.736 55.368,86.592 54.896,86.592 C54.112,86.592 53.56,87.256 53.56,88.104 C53.56,88.144 53.56,88.176 53.568,88.216 C53.816,87.856 54.352,87.528 54.936,87.528 C55.896,87.528 56.76,88.128 56.76,89.264 C56.76,90.304 55.928,91.096 54.712,91.096 Z M54.648,90.088 C55.264,90.088 55.6,89.672 55.6,89.304 C55.6,88.744 55.12,88.504 54.616,88.504 C54.216,88.504 53.824,88.688 53.568,89.008 C53.616,89.52 53.904,90.088 54.648,90.088 Z M59.576,91.096 C57.952,91.096 57.272,89.848 57.272,88.344 C57.272,86.728 58.184,85.584 59.76,85.584 C60.408,85.584 60.952,85.8 61.336,86.136 L60.824,87.008 C60.536,86.736 60.232,86.592 59.76,86.592 C58.976,86.592 58.424,87.256 58.424,88.104 C58.424,88.144 58.424,88.176 58.432,88.216 C58.68,87.856 59.216,87.528 59.8,87.528 C60.76,87.528 61.624,88.128 61.624,89.264 C61.624,90.304 60.792,91.096 59.576,91.096 Z M59.512,90.088 C60.128,90.088 60.464,89.672 60.464,89.304 C60.464,88.744 59.984,88.504 59.48,88.504 C59.08,88.504 58.688,88.688 58.432,89.008 C58.48,89.52 58.768,90.088 59.512,90.088 Z M66.344,91.096 C65.8,91.096 65.312,90.816 65,90.376 L65,92.472 L64.584,92.472 L64.584,87.136 L65,87.136 L65,87.744 C65.272,87.352 65.768,87.04 66.344,87.04 C67.376,87.04 68.072,87.824 68.072,89.064 C68.072,90.296 67.376,91.096 66.344,91.096 Z M66.272,90.72 C67.136,90.72 67.624,90 67.624,89.064 C67.624,88.128 67.136,87.416 66.272,87.416 C65.736,87.416 65.224,87.736 65,88.104 L65,90.016 C65.224,90.384 65.736,90.72 66.272,90.72 Z M70.832,91.096 C69.704,91.096 68.904,90.256 68.904,89.064 C68.904,87.944 69.688,87.04 70.76,87.04 C71.936,87.04 72.584,87.968 72.584,89.088 L72.584,89.2 L69.352,89.2 C69.392,90.04 69.952,90.736 70.864,90.736 C71.352,90.736 71.8,90.552 72.128,90.2 L72.344,90.472 C71.96,90.872 71.472,91.096 70.832,91.096 Z M72.16,88.872 C72.152,88.216 71.72,87.4 70.752,87.4 C69.84,87.4 69.384,88.2 69.352,88.872 L72.16,88.872 Z M74.072,91 L73.656,91 L73.656,87.136 L74.072,87.136 L74.072,87.8 C74.4,87.368 74.84,87.056 75.376,87.056 L75.376,87.512 C75.304,87.496 75.248,87.496 75.168,87.496 C74.776,87.496 74.248,87.848 74.072,88.184 L74.072,91 Z M81.536,91 L81.112,91 L81.112,90.384 C80.84,90.784 80.344,91.096 79.768,91.096 C78.744,91.096 78.048,90.312 78.048,89.072 C78.048,87.848 78.744,87.04 79.768,87.04 C80.32,87.04 80.808,87.32 81.112,87.76 L81.112,85.664 L81.536,85.664 L81.536,91 Z M79.84,90.72 C80.384,90.72 80.888,90.4 81.112,90.032 L81.112,88.12 C80.888,87.744 80.384,87.416 79.84,87.416 C78.984,87.416 78.488,88.136 78.488,89.072 C78.488,90.008 78.984,90.72 79.84,90.72 Z M85.704,91 L85.288,91 L85.288,90.544 C84.944,90.92 84.512,91.096 83.976,91.096 C83.312,91.096 82.624,90.64 82.624,89.808 C82.624,88.968 83.304,88.528 83.976,88.528 C84.512,88.528 84.952,88.704 85.288,89.08 L85.288,88.296 C85.288,87.72 84.824,87.408 84.256,87.408 C83.768,87.408 83.392,87.576 83.04,87.976 L82.808,87.688 C83.208,87.256 83.656,87.04 84.296,87.04 C85.08,87.04 85.704,87.416 85.704,88.28 L85.704,91 Z M84.12,90.768 C84.584,90.768 85.016,90.592 85.288,90.24 L85.288,89.392 C85.016,89.032 84.584,88.856 84.12,88.856 C83.488,88.856 83.064,89.264 83.064,89.816 C83.064,90.36 83.488,90.768 84.12,90.768 Z M86.744,92.512 L86.816,92.128 C86.904,92.168 87.056,92.192 87.152,92.192 C87.408,92.192 87.584,92.088 87.744,91.72 L88.048,91.032 L86.408,87.136 L86.872,87.136 L88.28,90.512 L89.672,87.136 L90.144,87.136 L88.144,91.848 C87.936,92.336 87.608,92.568 87.16,92.568 C87.024,92.568 86.848,92.544 86.744,92.512 Z M91.08,91.072 C90.888,91.072 90.72,90.912 90.72,90.72 C90.72,90.536 90.888,90.376 91.08,90.376 C91.272,90.376 91.432,90.536 91.432,90.72 C91.432,90.912 91.272,91.072 91.08,91.072 Z M99.152,91.096 C97.584,91.096 96.56,89.896 96.56,88.336 C96.56,86.776 97.584,85.576 99.152,85.576 C100.712,85.576 101.744,86.776 101.744,88.336 C101.744,89.896 100.712,91.096 99.152,91.096 Z M99.152,90.68 C100.432,90.68 101.264,89.68 101.264,88.336 C101.264,86.984 100.432,85.992 99.152,85.992 C97.864,85.992 97.04,86.984 97.04,88.336 C97.04,89.68 97.864,90.68 99.152,90.68 Z M105.88,91 L105.464,91 L105.464,88.384 C105.464,87.64 105.088,87.416 104.528,87.416 C104.032,87.416 103.52,87.728 103.272,88.08 L103.272,91 L102.856,91 L102.856,87.136 L103.272,87.136 L103.272,87.72 C103.552,87.384 104.104,87.04 104.664,87.04 C105.448,87.04 105.88,87.424 105.88,88.296 L105.88,91 Z M112.12,91 L111.704,91 L111.704,90.544 C111.36,90.92 110.928,91.096 110.392,91.096 C109.728,91.096 109.04,90.64 109.04,89.808 C109.04,88.968 109.72,88.528 110.392,88.528 C110.928,88.528 111.368,88.704 111.704,89.08 L111.704,88.296 C111.704,87.72 111.24,87.408 110.672,87.408 C110.184,87.408 109.808,87.576 109.456,87.976 L109.224,87.688 C109.624,87.256 110.072,87.04 110.712,87.04 C111.496,87.04 112.12,87.416 112.12,88.28 L112.12,91 Z M110.536,90.768 C111,90.768 111.432,90.592 111.704,90.24 L111.704,89.392 C111.432,89.032 111,88.856 110.536,88.856 C109.904,88.856 109.48,89.264 109.48,89.816 C109.48,90.36 109.904,90.768 110.536,90.768 Z M114.928,91 L114.456,91 L112.824,87.136 L113.288,87.136 L114.696,90.512 L116.088,87.136 L116.56,87.136 L114.928,91 Z M118.976,91.096 C117.848,91.096 117.048,90.256 117.048,89.064 C117.048,87.944 117.832,87.04 118.904,87.04 C120.08,87.04 120.728,87.968 120.728,89.088 L120.728,89.2 L117.496,89.2 C117.536,90.04 118.096,90.736 119.008,90.736 C119.496,90.736 119.944,90.552 120.272,90.2 L120.488,90.472 C120.104,90.872 119.616,91.096 118.976,91.096 Z M120.304,88.872 C120.296,88.216 119.864,87.4 118.896,87.4 C117.984,87.4 117.528,88.2 117.496,88.872 L120.304,88.872 Z M122.216,91 L121.8,91 L121.8,87.136 L122.216,87.136 L122.216,87.8 C122.544,87.368 122.984,87.056 123.52,87.056 L123.52,87.512 C123.448,87.496 123.392,87.496 123.312,87.496 C122.92,87.496 122.392,87.848 122.216,88.184 L122.216,91 Z M127.208,91 L126.792,91 L126.792,90.544 C126.448,90.92 126.016,91.096 125.48,91.096 C124.816,91.096 124.128,90.64 124.128,89.808 C124.128,88.968 124.808,88.528 125.48,88.528 C126.016,88.528 126.456,88.704 126.792,89.08 L126.792,88.296 C126.792,87.72 126.328,87.408 125.76,87.408 C125.272,87.408 124.896,87.576 124.544,87.976 L124.312,87.688 C124.712,87.256 125.16,87.04 125.8,87.04 C126.584,87.04 127.208,87.416 127.208,88.28 L127.208,91 Z M125.624,90.768 C126.088,90.768 126.52,90.592 126.792,90.24 L126.792,89.392 C126.52,89.032 126.088,88.856 125.624,88.856 C124.992,88.856 124.568,89.264 124.568,89.816 C124.568,90.36 124.992,90.768 125.624,90.768 Z M130.04,92.568 C129.384,92.568 128.968,92.448 128.512,91.984 L128.752,91.648 C129.088,92.048 129.456,92.192 130.04,92.192 C130.736,92.192 131.352,91.84 131.352,90.968 L131.352,90.352 C131.08,90.752 130.584,91.08 130.008,91.08 C128.984,91.08 128.288,90.304 128.288,89.064 C128.288,87.84 128.984,87.04 130.008,87.04 C130.56,87.04 131.04,87.32 131.352,87.76 L131.352,87.136 L131.776,87.136 L131.776,90.968 C131.776,92.144 130.976,92.568 130.04,92.568 Z M130.08,90.704 C130.616,90.704 131.128,90.376 131.352,90 L131.352,88.12 C131.128,87.744 130.616,87.416 130.08,87.416 C129.224,87.416 128.728,88.128 128.728,89.064 C128.728,90 129.224,90.704 130.08,90.704 Z M134.776,91.096 C133.648,91.096 132.848,90.256 132.848,89.064 C132.848,87.944 133.632,87.04 134.704,87.04 C135.88,87.04 136.528,87.968 136.528,89.088 L136.528,89.2 L133.296,89.2 C133.336,90.04 133.896,90.736 134.808,90.736 C135.296,90.736 135.744,90.552 136.072,90.2 L136.288,90.472 C135.904,90.872 135.416,91.096 134.776,91.096 Z M136.104,88.872 C136.096,88.216 135.664,87.4 134.696,87.4 C133.784,87.4 133.328,88.2 133.296,88.872 L136.104,88.872 Z M138.224,90.888 C138.224,91.336 137.96,91.76 137.648,91.976 L137.416,91.784 C137.672,91.608 137.864,91.296 137.88,91.048 C137.88,91.048 137.824,91.056 137.8,91.056 C137.608,91.056 137.472,90.912 137.472,90.72 C137.472,90.536 137.624,90.376 137.816,90.376 C138.032,90.376 138.224,90.56 138.224,90.888 Z M26.528,101 L23.008,101 L23.008,100.624 C24.824,99.16 26.04,98.12 26.04,97.088 C26.04,96.32 25.408,96 24.824,96 C24.16,96 23.648,96.288 23.36,96.696 L23.048,96.408 C23.424,95.896 24.072,95.584 24.824,95.584 C25.608,95.584 26.504,96.032 26.504,97.088 C26.504,98.264 25.264,99.336 23.72,100.584 L26.528,100.584 L26.528,101 Z M31.184,101 L27.664,101 L27.664,100.624 C29.48,99.16 30.696,98.12 30.696,97.088 C30.696,96.32 30.064,96 29.48,96 C28.816,96 28.304,96.288 28.016,96.696 L27.704,96.408 C28.08,95.896 28.728,95.584 29.48,95.584 C30.264,95.584 31.16,96.032 31.16,97.088 C31.16,98.264 29.92,99.336 28.376,100.584 L31.184,100.584 L31.184,101 Z M33.672,101.096 C33.048,101.096 32.568,100.912 32.184,100.48 L32.432,100.176 C32.68,100.488 33.136,100.744 33.68,100.744 C34.328,100.744 34.712,100.408 34.712,99.96 C34.712,98.904 32.272,99.504 32.272,98.112 C32.272,97.52 32.776,97.04 33.648,97.04 C34.312,97.04 34.752,97.296 35.032,97.608 L34.8,97.904 C34.576,97.6 34.16,97.392 33.648,97.392 C33.048,97.392 32.688,97.696 32.688,98.096 C32.688,99.064 35.12,98.472 35.12,99.96 C35.12,100.584 34.64,101.096 33.672,101.096 Z M37.904,101.096 C36.776,101.096 35.976,100.256 35.976,99.064 C35.976,97.944 36.76,97.04 37.832,97.04 C39.008,97.04 39.656,97.968 39.656,99.088 L39.656,99.2 L36.424,99.2 C36.464,100.04 37.024,100.736 37.936,100.736 C38.424,100.736 38.872,100.552 39.2,100.2 L39.416,100.472 C39.032,100.872 38.544,101.096 37.904,101.096 Z M39.232,98.872 C39.224,98.216 38.792,97.4 37.824,97.4 C36.912,97.4 36.456,98.2 36.424,98.872 L39.232,98.872 Z M42.24,101 L41.768,101 L40.136,97.136 L40.6,97.136 L42.008,100.512 L43.4,97.136 L43.872,97.136 L42.24,101 Z M46.288,101.096 C45.16,101.096 44.36,100.256 44.36,99.064 C44.36,97.944 45.144,97.04 46.216,97.04 C47.392,97.04 48.04,97.968 48.04,99.088 L48.04,99.2 L44.808,99.2 C44.848,100.04 45.408,100.736 46.32,100.736 C46.808,100.736 47.256,100.552 47.584,100.2 L47.8,100.472 C47.416,100.872 46.928,101.096 46.288,101.096 Z M47.616,98.872 C47.608,98.216 47.176,97.4 46.208,97.4 C45.296,97.4 44.84,98.2 44.808,98.872 L47.616,98.872 Z M52.136,101 L51.72,101 L51.72,98.384 C51.72,97.64 51.344,97.416 50.784,97.416 C50.288,97.416 49.776,97.728 49.528,98.08 L49.528,101 L49.112,101 L49.112,97.136 L49.528,97.136 L49.528,97.72 C49.808,97.384 50.36,97.04 50.92,97.04 C51.704,97.04 52.136,97.424 52.136,98.296 L52.136,101 Z M57.16,101.096 C56.024,101.096 55.288,100.192 55.288,99.064 C55.288,97.936 56.024,97.04 57.16,97.04 C57.832,97.04 58.216,97.304 58.528,97.696 L58.24,97.952 C57.96,97.568 57.608,97.416 57.184,97.416 C56.28,97.416 55.728,98.136 55.728,99.064 C55.728,99.992 56.28,100.72 57.184,100.72 C57.608,100.72 57.96,100.56 58.24,100.176 L58.528,100.432 C58.216,100.832 57.832,101.096 57.16,101.096 Z M62.48,101 L62.064,101 L62.064,100.432 C61.752,100.784 61.232,101.096 60.672,101.096 C59.888,101.096 59.456,100.728 59.456,99.856 L59.456,97.136 L59.872,97.136 L59.872,99.76 C59.872,100.512 60.248,100.72 60.808,100.72 C61.304,100.72 61.808,100.424 62.064,100.08 L62.064,97.136 L62.48,97.136 L62.48,101 Z M64.928,101.096 C64.304,101.096 63.824,100.912 63.44,100.48 L63.688,100.176 C63.936,100.488 64.392,100.744 64.936,100.744 C65.584,100.744 65.968,100.408 65.968,99.96 C65.968,98.904 63.528,99.504 63.528,98.112 C63.528,97.52 64.032,97.04 64.904,97.04 C65.568,97.04 66.008,97.296 66.288,97.608 L66.056,97.904 C65.832,97.6 65.416,97.392 64.904,97.392 C64.304,97.392 63.944,97.696 63.944,98.096 C63.944,99.064 66.376,98.472 66.376,99.96 C66.376,100.584 65.896,101.096 64.928,101.096 Z M68.288,101.096 C67.776,101.096 67.528,100.784 67.528,100.256 L67.528,97.504 L66.888,97.504 L66.888,97.136 L67.528,97.136 L67.528,96.08 L67.952,96.08 L67.952,97.136 L68.736,97.136 L68.736,97.504 L67.952,97.504 L67.952,100.192 C67.952,100.504 68.08,100.72 68.352,100.72 C68.536,100.72 68.696,100.632 68.784,100.536 L68.944,100.856 C68.792,101 68.608,101.096 68.288,101.096 Z M71.28,101.096 C70.152,101.096 69.432,100.192 69.432,99.064 C69.432,97.936 70.152,97.04 71.28,97.04 C72.424,97.04 73.144,97.936 73.144,99.064 C73.144,100.192 72.424,101.096 71.28,101.096 Z M71.28,100.72 C72.192,100.72 72.696,99.928 72.696,99.064 C72.696,98.208 72.192,97.416 71.28,97.416 C70.384,97.416 69.872,98.208 69.872,99.064 C69.872,99.928 70.384,100.72 71.28,100.72 Z M79.232,101 L78.816,101 L78.816,98.296 C78.816,97.752 78.584,97.416 78.04,97.416 C77.624,97.416 77.152,97.72 76.936,98.072 L76.936,101 L76.512,101 L76.512,98.296 C76.512,97.752 76.288,97.416 75.744,97.416 C75.328,97.416 74.864,97.728 74.632,98.08 L74.632,101 L74.216,101 L74.216,97.136 L74.632,97.136 L74.632,97.72 C74.792,97.472 75.32,97.04 75.88,97.04 C76.48,97.04 76.8,97.392 76.896,97.768 C77.112,97.408 77.632,97.04 78.176,97.04 C78.888,97.04 79.232,97.44 79.232,98.216 L79.232,101 Z M82.24,101.096 C81.112,101.096 80.312,100.256 80.312,99.064 C80.312,97.944 81.096,97.04 82.168,97.04 C83.344,97.04 83.992,97.968 83.992,99.088 L83.992,99.2 L80.76,99.2 C80.8,100.04 81.36,100.736 82.272,100.736 C82.76,100.736 83.208,100.552 83.536,100.2 L83.752,100.472 C83.368,100.872 82.88,101.096 82.24,101.096 Z M83.568,98.872 C83.56,98.216 83.128,97.4 82.16,97.4 C81.248,97.4 80.792,98.2 80.76,98.872 L83.568,98.872 Z M85.48,101 L85.064,101 L85.064,97.136 L85.48,97.136 L85.48,97.8 C85.808,97.368 86.248,97.056 86.784,97.056 L86.784,97.512 C86.712,97.496 86.656,97.496 86.576,97.496 C86.184,97.496 85.656,97.848 85.48,98.184 L85.48,101 Z M88.752,101.096 C88.128,101.096 87.648,100.912 87.264,100.48 L87.512,100.176 C87.76,100.488 88.216,100.744 88.76,100.744 C89.408,100.744 89.792,100.408 89.792,99.96 C89.792,98.904 87.352,99.504 87.352,98.112 C87.352,97.52 87.856,97.04 88.728,97.04 C89.392,97.04 89.832,97.296 90.112,97.608 L89.88,97.904 C89.656,97.6 89.24,97.392 88.728,97.392 C88.128,97.392 87.768,97.696 87.768,98.096 C87.768,99.064 90.2,98.472 90.2,99.96 C90.2,100.584 89.72,101.096 88.752,101.096 Z M94.496,101.096 C93.872,101.096 93.392,100.912 93.008,100.48 L93.256,100.176 C93.504,100.488 93.96,100.744 94.504,100.744 C95.152,100.744 95.536,100.408 95.536,99.96 C95.536,98.904 93.096,99.504 93.096,98.112 C93.096,97.52 93.6,97.04 94.472,97.04 C95.136,97.04 95.576,97.296 95.856,97.608 L95.624,97.904 C95.4,97.6 94.984,97.392 94.472,97.392 C93.872,97.392 93.512,97.696 93.512,98.096 C93.512,99.064 95.944,98.472 95.944,99.96 C95.944,100.584 95.464,101.096 94.496,101.096 Z M98.776,101.096 C98.232,101.096 97.744,100.816 97.432,100.376 L97.432,102.472 L97.016,102.472 L97.016,97.136 L97.432,97.136 L97.432,97.744 C97.704,97.352 98.2,97.04 98.776,97.04 C99.808,97.04 100.504,97.824 100.504,99.064 C100.504,100.296 99.808,101.096 98.776,101.096 Z M98.704,100.72 C99.568,100.72 100.056,100 100.056,99.064 C100.056,98.128 99.568,97.416 98.704,97.416 C98.168,97.416 97.656,97.736 97.432,98.104 L97.432,100.016 C97.656,100.384 98.168,100.72 98.704,100.72 Z M103.264,101.096 C102.136,101.096 101.336,100.256 101.336,99.064 C101.336,97.944 102.12,97.04 103.192,97.04 C104.368,97.04 105.016,97.968 105.016,99.088 L105.016,99.2 L101.784,99.2 C101.824,100.04 102.384,100.736 103.296,100.736 C103.784,100.736 104.232,100.552 104.56,100.2 L104.776,100.472 C104.392,100.872 103.904,101.096 103.264,101.096 Z M104.592,98.872 C104.584,98.216 104.152,97.4 103.184,97.4 C102.272,97.4 101.816,98.2 101.784,98.872 L104.592,98.872 Z M109.112,101 L108.696,101 L108.696,98.384 C108.696,97.64 108.32,97.416 107.76,97.416 C107.264,97.416 106.752,97.728 106.504,98.08 L106.504,101 L106.088,101 L106.088,97.136 L106.504,97.136 L106.504,97.72 C106.784,97.384 107.336,97.04 107.896,97.04 C108.68,97.04 109.112,97.424 109.112,98.296 L109.112,101 Z M111.248,101.096 C110.736,101.096 110.488,100.784 110.488,100.256 L110.488,97.504 L109.848,97.504 L109.848,97.136 L110.488,97.136 L110.488,96.08 L110.912,96.08 L110.912,97.136 L111.696,97.136 L111.696,97.504 L110.912,97.504 L110.912,100.192 C110.912,100.504 111.04,100.72 111.312,100.72 C111.496,100.72 111.656,100.632 111.744,100.536 L111.904,100.856 C111.752,101 111.568,101.096 111.248,101.096 Z M118.888,101 L117.576,101 L116.528,99.104 L115.696,99.104 L115.696,101 L114.56,101 L114.56,95.664 L117.056,95.664 C118.168,95.664 118.856,96.392 118.856,97.384 C118.856,98.32 118.256,98.832 117.68,98.968 L118.888,101 Z M116.896,98.104 C117.344,98.104 117.688,97.832 117.688,97.376 C117.688,96.936 117.344,96.664 116.896,96.664 L115.696,96.664 L115.696,98.104 L116.896,98.104 Z M121.44,101.096 C120.464,101.096 119.728,100.72 119.336,100.24 L119.936,99.48 C120.296,99.864 120.88,100.088 121.4,100.088 C122.048,100.088 122.408,99.808 122.408,99.408 C122.408,98.984 122.08,98.792 121.336,98.792 C121.112,98.792 120.752,98.8 120.672,98.808 L120.672,97.784 C120.768,97.792 121.136,97.792 121.336,97.792 C121.928,97.792 122.328,97.616 122.328,97.224 C122.328,96.8 121.888,96.592 121.336,96.592 C120.816,96.592 120.352,96.784 119.976,97.144 L119.408,96.432 C119.84,95.944 120.512,95.584 121.448,95.584 C122.696,95.584 123.464,96.144 123.464,97.032 C123.464,97.704 122.888,98.144 122.296,98.248 C122.84,98.304 123.544,98.728 123.544,99.528 C123.544,100.448 122.72,101.096 121.44,101.096 Z M125.592,100.608 C125.592,101.208 125.264,101.744 124.768,102.096 L124.328,101.736 C124.584,101.6 124.88,101.264 124.944,100.984 C124.92,100.992 124.856,101.008 124.792,101.008 C124.488,101.008 124.248,100.768 124.248,100.432 C124.248,100.08 124.536,99.792 124.88,99.792 C125.256,99.792 125.592,100.088 125.592,100.608 Z M130.304,101 L126.288,101 L126.288,100.104 C128.472,98.488 129.112,97.944 129.112,97.288 C129.112,96.816 128.688,96.592 128.248,96.592 C127.64,96.592 127.176,96.832 126.816,97.208 L126.168,96.456 C126.688,95.856 127.48,95.584 128.224,95.584 C129.368,95.584 130.264,96.224 130.264,97.288 C130.264,98.2 129.512,98.992 128.128,100 L130.304,100 L130.304,101 Z M132.816,101.088 C132.168,101.088 131.624,100.872 131.248,100.536 L131.752,99.664 C132.04,99.936 132.344,100.08 132.816,100.08 C133.696,100.08 134.152,99.336 134.152,98.576 L134.152,98.456 C133.896,98.816 133.36,99.144 132.776,99.144 C131.816,99.144 130.96,98.544 130.96,97.408 C130.96,96.368 131.784,95.576 133,95.576 C134.624,95.576 135.304,96.824 135.304,98.328 C135.304,99.944 134.392,101.088 132.816,101.088 Z M133.096,98.168 C133.504,98.168 133.888,97.984 134.144,97.664 C134.096,97.152 133.808,96.584 133.064,96.584 C132.448,96.584 132.112,97 132.112,97.368 C132.112,97.928 132.6,98.168 133.096,98.168 Z M138.024,101.096 C137.096,101.096 136.424,100.792 135.968,100.296 L136.6,99.504 C136.96,99.88 137.456,100.088 138.016,100.088 C138.648,100.088 139.008,99.728 139.008,99.296 C139.008,98.824 138.656,98.504 138.048,98.504 C137.608,98.504 137.248,98.632 136.928,98.936 L136.136,98.72 L136.136,95.664 L139.8,95.664 L139.8,96.664 L137.272,96.664 L137.272,97.968 C137.528,97.712 137.96,97.52 138.448,97.52 C139.352,97.52 140.16,98.168 140.16,99.248 C140.16,100.376 139.312,101.096 138.024,101.096 Z M23.796,111.096 C22.668,111.096 21.948,110.192 21.948,109.064 C21.948,107.936 22.668,107.04 23.796,107.04 C24.94,107.04 25.66,107.936 25.66,109.064 C25.66,110.192 24.94,111.096 23.796,111.096 Z M23.796,110.72 C24.708,110.72 25.212,109.928 25.212,109.064 C25.212,108.208 24.708,107.416 23.796,107.416 C22.9,107.416 22.388,108.208 22.388,109.064 C22.388,109.928 22.9,110.72 23.796,110.72 Z M28.244,111 L27.772,111 L26.14,107.136 L26.604,107.136 L28.012,110.512 L29.404,107.136 L29.876,107.136 L28.244,111 Z M32.292,111.096 C31.164,111.096 30.364,110.256 30.364,109.064 C30.364,107.944 31.148,107.04 32.22,107.04 C33.396,107.04 34.044,107.968 34.044,109.088 L34.044,109.2 L30.812,109.2 C30.852,110.04 31.412,110.736 32.324,110.736 C32.812,110.736 33.26,110.552 33.588,110.2 L33.804,110.472 C33.42,110.872 32.932,111.096 32.292,111.096 Z M33.62,108.872 C33.612,108.216 33.18,107.4 32.212,107.4 C31.3,107.4 30.844,108.2 30.812,108.872 L33.62,108.872 Z M35.532,111 L35.116,111 L35.116,107.136 L35.532,107.136 L35.532,107.8 C35.86,107.368 36.3,107.056 36.836,107.056 L36.836,107.512 C36.764,107.496 36.708,107.496 36.628,107.496 C36.236,107.496 35.708,107.848 35.532,108.184 L35.532,111 Z M40.564,111.096 C40.052,111.096 39.804,110.784 39.804,110.256 L39.804,107.504 L39.164,107.504 L39.164,107.136 L39.804,107.136 L39.804,106.08 L40.228,106.08 L40.228,107.136 L41.012,107.136 L41.012,107.504 L40.228,107.504 L40.228,110.192 C40.228,110.504 40.356,110.72 40.628,110.72 C40.812,110.72 40.972,110.632 41.06,110.536 L41.22,110.856 C41.068,111 40.884,111.096 40.564,111.096 Z M44.948,111 L44.532,111 L44.532,108.368 C44.532,107.624 44.156,107.416 43.596,107.416 C43.1,107.416 42.588,107.728 42.34,108.08 L42.34,111 L41.924,111 L41.924,105.664 L42.34,105.664 L42.34,107.72 C42.62,107.384 43.172,107.04 43.732,107.04 C44.516,107.04 44.948,107.408 44.948,108.28 L44.948,111 Z M47.956,111.096 C46.828,111.096 46.028,110.256 46.028,109.064 C46.028,107.944 46.812,107.04 47.884,107.04 C49.06,107.04 49.708,107.968 49.708,109.088 L49.708,109.2 L46.476,109.2 C46.516,110.04 47.076,110.736 47.988,110.736 C48.476,110.736 48.924,110.552 49.252,110.2 L49.468,110.472 C49.084,110.872 48.596,111.096 47.956,111.096 Z M49.284,108.872 C49.276,108.216 48.844,107.4 47.876,107.4 C46.964,107.4 46.508,108.2 46.476,108.872 L49.284,108.872 Z M54.612,111.096 C54.068,111.096 53.58,110.816 53.268,110.376 L53.268,112.472 L52.852,112.472 L52.852,107.136 L53.268,107.136 L53.268,107.744 C53.54,107.352 54.036,107.04 54.612,107.04 C55.644,107.04 56.34,107.824 56.34,109.064 C56.34,110.296 55.644,111.096 54.612,111.096 Z M54.54,110.72 C55.404,110.72 55.892,110 55.892,109.064 C55.892,108.128 55.404,107.416 54.54,107.416 C54.004,107.416 53.492,107.736 53.268,108.104 L53.268,110.016 C53.492,110.384 54.004,110.72 54.54,110.72 Z M60.26,111 L59.844,111 L59.844,110.544 C59.5,110.92 59.068,111.096 58.532,111.096 C57.868,111.096 57.18,110.64 57.18,109.808 C57.18,108.968 57.86,108.528 58.532,108.528 C59.068,108.528 59.508,108.704 59.844,109.08 L59.844,108.296 C59.844,107.72 59.38,107.408 58.812,107.408 C58.324,107.408 57.948,107.576 57.596,107.976 L57.364,107.688 C57.764,107.256 58.212,107.04 58.852,107.04 C59.636,107.04 60.26,107.416 60.26,108.28 L60.26,111 Z M58.676,110.768 C59.14,110.768 59.572,110.592 59.844,110.24 L59.844,109.392 C59.572,109.032 59.14,108.856 58.676,108.856 C58.044,108.856 57.62,109.264 57.62,109.816 C57.62,110.36 58.044,110.768 58.676,110.768 Z M62.708,111.096 C62.084,111.096 61.604,110.912 61.22,110.48 L61.468,110.176 C61.716,110.488 62.172,110.744 62.716,110.744 C63.364,110.744 63.748,110.408 63.748,109.96 C63.748,108.904 61.308,109.504 61.308,108.112 C61.308,107.52 61.812,107.04 62.684,107.04 C63.348,107.04 63.788,107.296 64.068,107.608 L63.836,107.904 C63.612,107.6 63.196,107.392 62.684,107.392 C62.084,107.392 61.724,107.696 61.724,108.096 C61.724,109.064 64.156,108.472 64.156,109.96 C64.156,110.584 63.676,111.096 62.708,111.096 Z M66.068,111.096 C65.556,111.096 65.308,110.784 65.308,110.256 L65.308,107.504 L64.668,107.504 L64.668,107.136 L65.308,107.136 L65.308,106.08 L65.732,106.08 L65.732,107.136 L66.516,107.136 L66.516,107.504 L65.732,107.504 L65.732,110.192 C65.732,110.504 65.86,110.72 66.132,110.72 C66.316,110.72 66.476,110.632 66.564,110.536 L66.724,110.856 C66.572,111 66.388,111.096 66.068,111.096 Z M71.02,111.088 C70.324,111.088 69.9,110.808 69.58,110.408 L69.852,110.08 C70.116,110.424 70.436,110.672 71.02,110.672 C72.196,110.672 72.596,109.448 72.596,108.328 L72.596,108.08 C72.372,108.448 71.756,108.968 71.028,108.968 C70.068,108.968 69.308,108.416 69.308,107.28 C69.308,106.408 69.964,105.576 71.1,105.576 C72.54,105.576 73.06,106.904 73.06,108.336 C73.06,109.704 72.492,111.088 71.02,111.088 Z M71.108,108.56 C71.692,108.56 72.26,108.184 72.564,107.648 C72.5,106.92 72.124,105.992 71.116,105.992 C70.204,105.992 69.772,106.696 69.772,107.272 C69.772,108.144 70.348,108.56 71.108,108.56 Z M75.964,111.096 C74.524,111.096 73.988,109.6 73.988,108.336 C73.988,107.064 74.524,105.584 75.964,105.584 C77.388,105.584 77.932,107.064 77.932,108.336 C77.932,109.6 77.388,111.096 75.964,111.096 Z M75.964,110.68 C77.076,110.68 77.444,109.432 77.444,108.336 C77.444,107.232 77.084,106 75.964,106 C74.836,106 74.468,107.232 74.468,108.336 C74.468,109.432 74.836,110.68 75.964,110.68 Z M84.38,111 L83.956,111 L83.956,110.384 C83.684,110.784 83.188,111.096 82.612,111.096 C81.588,111.096 80.892,110.312 80.892,109.072 C80.892,107.848 81.588,107.04 82.612,107.04 C83.164,107.04 83.652,107.32 83.956,107.76 L83.956,105.664 L84.38,105.664 L84.38,111 Z M82.684,110.72 C83.228,110.72 83.732,110.4 83.956,110.032 L83.956,108.12 C83.732,107.744 83.228,107.416 82.684,107.416 C81.828,107.416 81.332,108.136 81.332,109.072 C81.332,110.008 81.828,110.72 82.684,110.72 Z M88.548,111 L88.132,111 L88.132,110.544 C87.788,110.92 87.356,111.096 86.82,111.096 C86.156,111.096 85.468,110.64 85.468,109.808 C85.468,108.968 86.148,108.528 86.82,108.528 C87.356,108.528 87.796,108.704 88.132,109.08 L88.132,108.296 C88.132,107.72 87.668,107.408 87.1,107.408 C86.612,107.408 86.236,107.576 85.884,107.976 L85.652,107.688 C86.052,107.256 86.5,107.04 87.14,107.04 C87.924,107.04 88.548,107.416 88.548,108.28 L88.548,111 Z M86.964,110.768 C87.428,110.768 87.86,110.592 88.132,110.24 L88.132,109.392 C87.86,109.032 87.428,108.856 86.964,108.856 C86.332,108.856 85.908,109.264 85.908,109.816 C85.908,110.36 86.332,110.768 86.964,110.768 Z M89.588,112.512 L89.66,112.128 C89.748,112.168 89.9,112.192 89.996,112.192 C90.252,112.192 90.428,112.088 90.588,111.72 L90.892,111.032 L89.252,107.136 L89.716,107.136 L91.124,110.512 L92.516,107.136 L92.988,107.136 L90.988,111.848 C90.78,112.336 90.452,112.568 90.004,112.568 C89.868,112.568 89.692,112.544 89.588,112.512 Z M94.844,111.096 C94.22,111.096 93.74,110.912 93.356,110.48 L93.604,110.176 C93.852,110.488 94.308,110.744 94.852,110.744 C95.5,110.744 95.884,110.408 95.884,109.96 C95.884,108.904 93.444,109.504 93.444,108.112 C93.444,107.52 93.948,107.04 94.82,107.04 C95.484,107.04 95.924,107.296 96.204,107.608 L95.972,107.904 C95.748,107.6 95.332,107.392 94.82,107.392 C94.22,107.392 93.86,107.696 93.86,108.096 C93.86,109.064 96.292,108.472 96.292,109.96 C96.292,110.584 95.812,111.096 94.844,111.096 Z M103.148,111 L102.748,111 L101.668,107.696 L100.58,111 L100.18,111 L98.924,107.136 L99.372,107.136 L100.396,110.416 L101.484,107.136 L101.844,107.136 L102.932,110.416 L103.956,107.136 L104.404,107.136 L103.148,111 Z M108.212,111 L107.796,111 L107.796,108.368 C107.796,107.624 107.42,107.416 106.86,107.416 C106.364,107.416 105.852,107.728 105.604,108.08 L105.604,111 L105.188,111 L105.188,105.664 L105.604,105.664 L105.604,107.72 C105.884,107.384 106.436,107.04 106.996,107.04 C107.78,107.04 108.212,107.408 108.212,108.28 L108.212,111 Z M109.716,106.528 C109.548,106.528 109.396,106.384 109.396,106.208 C109.396,106.032 109.548,105.896 109.716,105.896 C109.892,105.896 110.036,106.032 110.036,106.208 C110.036,106.384 109.892,106.528 109.716,106.528 Z M109.924,111 L109.508,111 L109.508,107.136 L109.924,107.136 L109.924,111 Z M112.876,111.096 C111.74,111.096 111.004,110.192 111.004,109.064 C111.004,107.936 111.74,107.04 112.876,107.04 C113.548,107.04 113.932,107.304 114.244,107.696 L113.956,107.952 C113.676,107.568 113.324,107.416 112.9,107.416 C111.996,107.416 111.444,108.136 111.444,109.064 C111.444,109.992 111.996,110.72 112.9,110.72 C113.324,110.72 113.676,110.56 113.956,110.176 L114.244,110.432 C113.932,110.832 113.548,111.096 112.876,111.096 Z M118.196,111 L117.78,111 L117.78,108.368 C117.78,107.624 117.404,107.416 116.844,107.416 C116.348,107.416 115.836,107.728 115.588,108.08 L115.588,111 L115.172,111 L115.172,105.664 L115.588,105.664 L115.588,107.72 C115.868,107.384 116.42,107.04 116.98,107.04 C117.764,107.04 118.196,107.408 118.196,108.28 L118.196,111 Z M125.276,111 L124.876,111 L123.796,107.696 L122.708,111 L122.308,111 L121.052,107.136 L121.5,107.136 L122.524,110.416 L123.612,107.136 L123.972,107.136 L125.06,110.416 L126.084,107.136 L126.532,107.136 L125.276,111 Z M128.948,111.096 C127.82,111.096 127.1,110.192 127.1,109.064 C127.1,107.936 127.82,107.04 128.948,107.04 C130.092,107.04 130.812,107.936 130.812,109.064 C130.812,110.192 130.092,111.096 128.948,111.096 Z M128.948,110.72 C129.86,110.72 130.364,109.928 130.364,109.064 C130.364,108.208 129.86,107.416 128.948,107.416 C128.052,107.416 127.54,108.208 127.54,109.064 C127.54,109.928 128.052,110.72 128.948,110.72 Z M132.3,111 L131.884,111 L131.884,107.136 L132.3,107.136 L132.3,107.8 C132.628,107.368 133.068,107.056 133.604,107.056 L133.604,107.512 C133.532,107.496 133.476,107.496 133.396,107.496 C133.004,107.496 132.476,107.848 132.3,108.184 L132.3,111 Z M137.66,111 L137.1,111 L135.556,109.16 L134.836,109.84 L134.836,111 L134.42,111 L134.42,105.664 L134.836,105.664 L134.836,109.344 L137.108,107.136 L137.668,107.136 L135.868,108.88 L137.66,111 Z M139.612,111.096 C138.988,111.096 138.508,110.912 138.124,110.48 L138.372,110.176 C138.62,110.488 139.076,110.744 139.62,110.744 C140.268,110.744 140.652,110.408 140.652,109.96 C140.652,108.904 138.212,109.504 138.212,108.112 C138.212,107.52 138.716,107.04 139.588,107.04 C140.252,107.04 140.692,107.296 140.972,107.608 L140.74,107.904 C140.516,107.6 140.1,107.392 139.588,107.392 C138.988,107.392 138.628,107.696 138.628,108.096 C138.628,109.064 141.06,108.472 141.06,109.96 C141.06,110.584 140.58,111.096 139.612,111.096 Z M50.384,121.096 C49.256,121.096 48.536,120.192 48.536,119.064 C48.536,117.936 49.256,117.04 50.384,117.04 C51.528,117.04 52.248,117.936 52.248,119.064 C52.248,120.192 51.528,121.096 50.384,121.096 Z M50.384,120.72 C51.296,120.72 51.8,119.928 51.8,119.064 C51.8,118.208 51.296,117.416 50.384,117.416 C49.488,117.416 48.976,118.208 48.976,119.064 C48.976,119.928 49.488,120.72 50.384,120.72 Z M56.344,121 L55.928,121 L55.928,120.432 C55.616,120.784 55.096,121.096 54.536,121.096 C53.752,121.096 53.32,120.728 53.32,119.856 L53.32,117.136 L53.736,117.136 L53.736,119.76 C53.736,120.512 54.112,120.72 54.672,120.72 C55.168,120.72 55.672,120.424 55.928,120.08 L55.928,117.136 L56.344,117.136 L56.344,121 Z M58.48,121.096 C57.968,121.096 57.72,120.784 57.72,120.256 L57.72,117.504 L57.08,117.504 L57.08,117.136 L57.72,117.136 L57.72,116.08 L58.144,116.08 L58.144,117.136 L58.928,117.136 L58.928,117.504 L58.144,117.504 L58.144,120.192 C58.144,120.504 58.272,120.72 58.544,120.72 C58.728,120.72 58.888,120.632 58.976,120.536 L59.136,120.856 C58.984,121 58.8,121.096 58.48,121.096 Z M62.752,121.096 C62.24,121.096 61.992,120.784 61.992,120.256 L61.992,117.504 L61.352,117.504 L61.352,117.136 L61.992,117.136 L61.992,116.08 L62.416,116.08 L62.416,117.136 L63.2,117.136 L63.2,117.504 L62.416,117.504 L62.416,120.192 C62.416,120.504 62.544,120.72 62.816,120.72 C63,120.72 63.16,120.632 63.248,120.536 L63.408,120.856 C63.256,121 63.072,121.096 62.752,121.096 Z M65.744,121.096 C64.616,121.096 63.896,120.192 63.896,119.064 C63.896,117.936 64.616,117.04 65.744,117.04 C66.888,117.04 67.608,117.936 67.608,119.064 C67.608,120.192 66.888,121.096 65.744,121.096 Z M65.744,120.72 C66.656,120.72 67.16,119.928 67.16,119.064 C67.16,118.208 66.656,117.416 65.744,117.416 C64.848,117.416 64.336,118.208 64.336,119.064 C64.336,119.928 64.848,120.72 65.744,120.72 Z M74.96,121 L73.648,121 L72.6,119.104 L71.768,119.104 L71.768,121 L70.632,121 L70.632,115.664 L73.128,115.664 C74.24,115.664 74.928,116.392 74.928,117.384 C74.928,118.32 74.328,118.832 73.752,118.968 L74.96,121 Z M72.968,118.104 C73.416,118.104 73.76,117.832 73.76,117.376 C73.76,116.936 73.416,116.664 72.968,116.664 L71.768,116.664 L71.768,118.104 L72.968,118.104 Z M77.512,121.096 C76.536,121.096 75.8,120.72 75.408,120.24 L76.008,119.48 C76.368,119.864 76.952,120.088 77.472,120.088 C78.12,120.088 78.48,119.808 78.48,119.408 C78.48,118.984 78.152,118.792 77.408,118.792 C77.184,118.792 76.824,118.8 76.744,118.808 L76.744,117.784 C76.84,117.792 77.208,117.792 77.408,117.792 C78,117.792 78.4,117.616 78.4,117.224 C78.4,116.8 77.96,116.592 77.408,116.592 C76.888,116.592 76.424,116.784 76.048,117.144 L75.48,116.432 C75.912,115.944 76.584,115.584 77.52,115.584 C78.768,115.584 79.536,116.144 79.536,117.032 C79.536,117.704 78.96,118.144 78.368,118.248 C78.912,118.304 79.616,118.728 79.616,119.528 C79.616,120.448 78.792,121.096 77.512,121.096 Z M82.52,121.096 C80.896,121.096 80.216,119.848 80.216,118.344 C80.216,116.728 81.128,115.584 82.704,115.584 C83.352,115.584 83.896,115.8 84.28,116.136 L83.768,117.008 C83.48,116.736 83.176,116.592 82.704,116.592 C81.92,116.592 81.368,117.256 81.368,118.104 C81.368,118.144 81.368,118.176 81.376,118.216 C81.624,117.856 82.16,117.528 82.744,117.528 C83.704,117.528 84.568,118.128 84.568,119.264 C84.568,120.304 83.736,121.096 82.52,121.096 Z M82.456,120.088 C83.072,120.088 83.408,119.672 83.408,119.304 C83.408,118.744 82.928,118.504 82.424,118.504 C82.024,118.504 81.632,118.688 81.376,119.008 C81.424,119.52 81.712,120.088 82.456,120.088 Z M89.288,121.096 C88.744,121.096 88.256,120.816 87.944,120.376 L87.944,122.472 L87.528,122.472 L87.528,117.136 L87.944,117.136 L87.944,117.744 C88.216,117.352 88.712,117.04 89.288,117.04 C90.32,117.04 91.016,117.824 91.016,119.064 C91.016,120.296 90.32,121.096 89.288,121.096 Z M89.216,120.72 C90.08,120.72 90.568,120 90.568,119.064 C90.568,118.128 90.08,117.416 89.216,117.416 C88.68,117.416 88.168,117.736 87.944,118.104 L87.944,120.016 C88.168,120.384 88.68,120.72 89.216,120.72 Z M93.776,121.096 C92.648,121.096 91.848,120.256 91.848,119.064 C91.848,117.944 92.632,117.04 93.704,117.04 C94.88,117.04 95.528,117.968 95.528,119.088 L95.528,119.2 L92.296,119.2 C92.336,120.04 92.896,120.736 93.808,120.736 C94.296,120.736 94.744,120.552 95.072,120.2 L95.288,120.472 C94.904,120.872 94.416,121.096 93.776,121.096 Z M95.104,118.872 C95.096,118.216 94.664,117.4 93.696,117.4 C92.784,117.4 92.328,118.2 92.296,118.872 L95.104,118.872 Z M97.016,121 L96.6,121 L96.6,117.136 L97.016,117.136 L97.016,117.8 C97.344,117.368 97.784,117.056 98.32,117.056 L98.32,117.512 C98.248,117.496 98.192,117.496 98.112,117.496 C97.72,117.496 97.192,117.848 97.016,118.184 L97.016,121 Z M104.48,121 L104.056,121 L104.056,120.384 C103.784,120.784 103.288,121.096 102.712,121.096 C101.688,121.096 100.992,120.312 100.992,119.072 C100.992,117.848 101.688,117.04 102.712,117.04 C103.264,117.04 103.752,117.32 104.056,117.76 L104.056,115.664 L104.48,115.664 L104.48,121 Z M102.784,120.72 C103.328,120.72 103.832,120.4 104.056,120.032 L104.056,118.12 C103.832,117.744 103.328,117.416 102.784,117.416 C101.928,117.416 101.432,118.136 101.432,119.072 C101.432,120.008 101.928,120.72 102.784,120.72 Z M108.648,121 L108.232,121 L108.232,120.544 C107.888,120.92 107.456,121.096 106.92,121.096 C106.256,121.096 105.568,120.64 105.568,119.808 C105.568,118.968 106.248,118.528 106.92,118.528 C107.456,118.528 107.896,118.704 108.232,119.08 L108.232,118.296 C108.232,117.72 107.768,117.408 107.2,117.408 C106.712,117.408 106.336,117.576 105.984,117.976 L105.752,117.688 C106.152,117.256 106.6,117.04 107.24,117.04 C108.024,117.04 108.648,117.416 108.648,118.28 L108.648,121 Z M107.064,120.768 C107.528,120.768 107.96,120.592 108.232,120.24 L108.232,119.392 C107.96,119.032 107.528,118.856 107.064,118.856 C106.432,118.856 106.008,119.264 106.008,119.816 C106.008,120.36 106.432,120.768 107.064,120.768 Z M109.688,122.512 L109.76,122.128 C109.848,122.168 110,122.192 110.096,122.192 C110.352,122.192 110.528,122.088 110.688,121.72 L110.992,121.032 L109.352,117.136 L109.816,117.136 L111.224,120.512 L112.616,117.136 L113.088,117.136 L111.088,121.848 C110.88,122.336 110.552,122.568 110.104,122.568 C109.968,122.568 109.792,122.544 109.688,122.512 Z M114.024,121.072 C113.832,121.072 113.664,120.912 113.664,120.72 C113.664,120.536 113.832,120.376 114.024,120.376 C114.216,120.376 114.376,120.536 114.376,120.72 C114.376,120.912 114.216,121.072 114.024,121.072 Z" id="You-spent-R2,449-on" fill="#4E4B6B"></path>
                <g id="money-alert-icon" transform="translate(61.400000, 14.000000)">
                    <g id="Shape">
                        <use fill="url(#linearGradient-3)" xlink:href="#path-4"></use>
                        <use fill-opacity="0.597429801" fill="#FFFFFF" xlink:href="#path-4"></use>
                    </g>
                    <g id="605-benchmark-eatingout" transform="translate(5.656667, 5.860465)">
                        <g id="Group">
                            <path d="M15.1395349,0 C6.77827256,0 0,6.77827256 0,15.1395349 C0,23.5007972 6.77827256,30.2790698 15.1395349,30.2790698 C23.5007972,30.2790698 30.2790698,23.5007972 30.2790698,15.1395349 C30.2790698,6.77827256 23.5007972,0 15.1395349,0 L15.1395349,0 Z M15.1395349,19.984186 C12.4640763,19.984186 10.2948837,17.8152963 10.2948837,15.1395349 C10.2948837,12.4640763 12.4640763,10.2948837 15.1395349,10.2948837 C17.8149935,10.2948837 19.984186,12.4640763 19.984186,15.1395349 C19.984186,17.8152963 17.8149935,19.984186 15.1395349,19.984186 L15.1395349,19.984186 Z" id="Shape" fill="url(#linearGradient-5)"></path>
                            <g id="Shape">
                                <use fill="url(#linearGradient-6)" xlink:href="#path-7"></use>
                                <use fill-opacity="0.25" fill="#F1692E" xlink:href="#path-7"></use>
                            </g>
                            <path d="M15.1425628,22.9506265 C13.0669326,22.9506265 10.990394,21.8972177 9.69414698,20.2869767 C10.7124321,22.3910693 12.7692893,23.9216763 15.1425628,23.9216763 C17.5164419,23.9216763 19.5732991,22.3910693 20.5912814,20.2869767 C19.2950344,21.8969149 17.2187986,22.9506265 15.1425628,22.9506265 L15.1425628,22.9506265 Z" id="Shape" fill="#E2AC57"></path>
                            <path d="M15.1352958,2.93646419 C18.9153349,2.93646419 22.6974935,4.73897721 25.1289028,7.51677907 C23.1692414,4.07737953 19.4294735,1.7510386 15.1352958,1.7510386 C10.8414209,1.7510386 7.10165302,4.07737953 5.14199163,7.51677907 C7.57370372,4.73897721 11.3552567,2.93646419 15.1352958,2.93646419 L15.1352958,2.93646419 Z" id="Shape" fill="#FFA5F5"></path>
                            <path d="M5.36908465,16.6495521 C5.20254977,16.3664428 4.83344791,16.2698526 4.54488837,16.4330567 C4.25632884,16.5962609 4.15761907,16.957793 4.32415395,17.2405995 L5.22919535,18.7766567 C5.39573023,19.0594633 5.76483209,19.1563563 6.05339163,18.9931521 C6.34195116,18.8299479 6.44096372,18.4684158 6.27412605,18.1856093 L5.36908465,16.6495521 L5.36908465,16.6495521 Z M12.3953428,1.61478279 C12.3157088,1.32349814 12.0107986,1.15060465 11.7140637,1.22872465 L10.102006,1.65293442 C9.80527116,1.73105442 9.62904698,2.03051442 9.70868093,2.32179907 C9.78831488,2.61308372 10.0932251,2.78597721 10.38996,2.70785721 L12.0020177,2.28395023 C12.2987526,2.20583023 12.474674,1.90637023 12.3953428,1.61478279 L12.3953428,1.61478279 Z" id="Shape" fill="#E4776E"></path>
                            <path d="M10.1023088,6.07277023 L8.32068837,6.54784884 C7.99276605,6.63535535 7.80503581,6.99900698 7.90192884,7.36053907 C7.99851907,7.72176837 8.34309488,7.94371395 8.67101721,7.85620744 L10.4526377,7.38112884 C10.78056,7.29362233 10.9682902,6.92966791 10.8713972,6.5687414 C10.7745042,6.2072093 10.4302312,5.98556651 10.1023088,6.07277023 L10.1023088,6.07277023 Z M23.3100391,8.47571721 C23.3094335,8.14052791 23.039647,7.86862186 22.7074856,7.86892465 C22.3750214,7.86892465 22.1061433,8.14052791 22.1061433,8.47602 L22.1082628,10.297306 C22.1085656,10.6324953 22.3783521,10.9044014 22.7108163,10.9040986 C23.0432805,10.9040986 23.3124614,10.6321926 23.3118558,10.2970033 L23.3100391,8.47571721 L23.3100391,8.47571721 Z" id="Shape" fill="#51B8DA"></path>
                            <path d="M28.7421042,13.1495944 L28.2340214,11.3597986 C28.1404591,11.0303623 27.7822577,10.8347595 27.4334428,10.9231744 C27.0849307,11.0115893 26.8778219,11.3501093 26.9713842,11.6795456 L27.4788614,13.4696442 C27.5724237,13.7990805 27.9306251,13.9943805 28.2797428,13.9062684 C28.6285577,13.8178535 28.8353637,13.4793335 28.7421042,13.1495944 L28.7421042,13.1495944 Z M3.48057907,5.61040884 C3.17142977,5.4260093 2.78567442,5.51926884 2.61853395,5.81842605 L1.7119786,7.44289814 C1.54514093,7.74205535 1.6602014,8.13386651 1.9693507,8.31796326 C2.2785,8.50206 2.66425535,8.40880047 2.83109302,8.10994605 L3.73795116,6.48517116 C3.90478884,6.18631674 3.78972837,5.79450558 3.48057907,5.61040884 L3.48057907,5.61040884 Z M17.8752488,5.53380279 L16.3394944,6.43036605 C16.0563851,6.59538698 15.9622172,6.96600279 16.1290549,7.25759023 C16.2958926,7.54948047 16.6601498,7.6524293 16.9429563,7.48740837 L18.4787107,6.59084512 C18.7615172,6.42582419 18.8556851,6.05520837 18.6891502,5.76362093 C18.5223126,5.47142791 18.1580553,5.36878186 17.8752488,5.53380279 L17.8752488,5.53380279 Z" id="Shape" fill="#75C9BA"></path>
                            <path d="M4.84192605,10.6800335 C4.55336651,10.5168293 4.18456744,10.6137223 4.01772977,10.8965288 L3.11268837,12.432586 C2.94615349,12.7156953 3.04486326,13.0769247 3.33342279,13.2404316 C3.62198233,13.4036358 3.99108419,13.3067428 4.15761907,13.0239363 L5.06266047,11.4875763 C5.22949814,11.2050726 5.13048558,10.8435405 4.84192605,10.6800335 L4.84192605,10.6800335 Z M22.7180833,3.71554465 L21.1768786,2.80717256 C20.8928609,2.64003209 20.5301177,2.73904465 20.3663079,3.02881535 C20.2024981,3.31828326 20.299694,3.68889907 20.5837116,3.85573674 L22.1249163,4.76410884 C22.4086312,4.9312493 22.7713744,4.83223674 22.9351842,4.54246605 C23.098994,4.25330093 23.0021009,3.88298791 22.7180833,3.71554465 L22.7180833,3.71554465 Z" id="Shape" fill="#F4F4F4"></path>
                            <path d="M15.1395349,8.47813953 C11.7949088,8.47813953 9.08372093,11.1893274 9.08372093,14.5339535 C9.08372093,17.8785795 11.7949088,20.5897674 15.1395349,20.5897674 C18.4841609,20.5897674 21.1953488,17.8785795 21.1953488,14.5339535 C21.1953488,11.1893274 18.4841609,8.47813953 15.1395349,8.47813953 L15.1395349,8.47813953 Z M15.1395349,19.984186 C12.4640763,19.984186 10.2948837,17.8152963 10.2948837,15.1395349 C10.2948837,12.4640763 12.4640763,10.2948837 15.1395349,10.2948837 C17.8149935,10.2948837 19.984186,12.4640763 19.984186,15.1395349 C19.984186,17.8152963 17.8149935,19.984186 15.1395349,19.984186 L15.1395349,19.984186 Z" id="Shape" fill="#E2AC57"></path>
                            <path d="M15.1395349,28.668526 C7.04836186,28.668526 0.440560465,22.3211247 0.0218009302,14.3344144 C0.00756976744,14.6008702 2.95009495e-16,14.8691428 2.95009495e-16,15.1395349 C2.95009495e-16,23.5007972 6.77827256,30.2790698 15.1395349,30.2790698 C23.5007972,30.2790698 30.2790698,23.5007972 30.2790698,15.1395349 C30.2790698,14.8691428 30.2715,14.6008702 30.2575716,14.3341116 C29.8388121,22.3211247 23.2307079,28.668526 15.1395349,28.668526 L15.1395349,28.668526 Z" id="Shape" fill="#E2AC57"></path>
                            <g transform="translate(1.513953, 5.753023)" fill="#64AB9E" id="Shape">
                                <path d="M16.9644544,0.535333953 L15.4287,1.43189721 C15.1458935,1.59691814 14.7816363,1.49427209 14.6147986,1.20207907 C14.5848223,1.14999907 14.5663521,1.09489116 14.5530293,1.03948047 C14.5133637,1.19027023 14.5306228,1.3574107 14.6147986,1.50486977 C14.7816363,1.79676 15.1458935,1.89970884 15.4287,1.73468791 L16.9644544,0.838124651 C17.1969977,0.702474419 17.2987353,0.428448837 17.2366633,0.173196279 C17.1982088,0.32126093 17.1046465,0.453277674 16.9644544,0.535333953 L16.9644544,0.535333953 Z M2.22399767,0.429357209 L1.31713953,2.05413209 C1.15030186,2.35298651 0.764546512,2.44624605 0.455397209,2.2621493 C0.291284651,2.16434791 0.183793953,2.00719953 0.142311628,1.83703116 C0.0744865116,2.10742326 0.194997209,2.40960837 0.455397209,2.56494 C0.764546512,2.74903674 1.15030186,2.65577721 1.31713953,2.35692279 L2.22399767,0.732147907 C2.30211767,0.592258605 2.31634884,0.432082326 2.27971116,0.28220093 C2.26699395,0.332766977 2.25034047,0.382424651 2.22399767,0.429357209 L2.22399767,0.429357209 Z M26.7654865,7.85045442 C26.4166716,7.93856651 26.0581674,7.74326651 25.9646051,7.41383023 L25.4571279,5.62373163 L25.4565223,5.62009814 C25.4310879,5.71789953 25.4274544,5.82205953 25.4571279,5.92652233 L25.9646051,7.71662093 C26.0581674,8.04605721 26.4163688,8.24135721 26.7654865,8.15324512 C27.1130902,8.06513302 27.3195935,7.72873256 27.2284535,7.40020465 C27.1733456,7.61155256 27.0043884,7.78989628 26.7654865,7.85045442 L26.7654865,7.85045442 Z"></path>
                            </g>
                            <g transform="translate(7.872558, 6.358605)" fill="#459DBA" id="Shape">
                                <path d="M2.58007953,0.719430698 L0.79845907,1.1945093 C0.470536744,1.28201581 0.12596093,1.06007023 0.0293706977,0.69884093 L0.0227093023,0.660083721 C-0.000908372093,0.76818 -0.00211953488,0.884451628 0.0293706977,1.00163163 C0.12596093,1.36286093 0.470536744,1.58480651 0.79845907,1.4973 L2.58007953,1.0222214 C2.89649581,0.938045581 3.0793814,0.596497674 3.00550047,0.248591163 C2.95644837,0.474170233 2.80172233,0.660689302 2.58007953,0.719430698 L2.58007953,0.719430698 Z M14.8382581,4.24270326 C14.5054912,4.24270326 14.2360074,3.9711 14.2357047,3.6359107 L14.2338879,2.11408465 L14.2335851,2.11741535 L14.2357047,3.9387014 C14.2360074,4.2738907 14.505794,4.54579674 14.8382581,4.54549395 C15.1707223,4.54549395 15.4399033,4.27358791 15.4392977,3.9383986 L15.4389949,3.63863581 C15.4380865,3.97261395 15.169814,4.24270326 14.8382581,4.24270326 L14.8382581,4.24270326 Z"></path>
                            </g>
                            <g transform="translate(3.027907, 3.027907)" fill="#D3D3D3" id="Shape">
                                <path d="M19.9072772,1.21237395 C19.7434674,1.50214465 19.3807242,1.60115721 19.0970093,1.43401674 L17.5558047,0.525644651 C17.4137958,0.442074419 17.3187195,0.307635349 17.2793567,0.157753953 C17.2166791,0.413309302 17.3211419,0.690362791 17.5558047,0.828435349 L19.0970093,1.73680744 C19.3807242,1.90394791 19.7434674,1.80493535 19.9072772,1.51516465 C19.9893335,1.37012791 20.0056842,1.20540977 19.9666242,1.05552837 C19.9533014,1.10912233 19.9357395,1.1621107 19.9072772,1.21237395 L19.9072772,1.21237395 Z M2.03505628,8.1571814 L1.13001488,9.6935414 C0.96348,9.97634791 0.59437814,10.0732409 0.305818605,9.91003674 C0.162295814,9.82888884 0.0660083721,9.69868884 0.0257372093,9.55365209 C-0.0402711628,9.80436279 0.0657055814,10.0768744 0.305818605,10.2128274 C0.59437814,10.3760316 0.96348,10.2791386 1.13001488,9.99633209 L2.03505628,8.45997209 C2.1189293,8.31766047 2.13528,8.15566744 2.09440326,8.00851116 C2.08077767,8.05938 2.06291302,8.10964326 2.03505628,8.1571814 L2.03505628,8.1571814 Z"></path>
                            </g>
                            <g transform="translate(4.239070, 1.513953)" fill="#C5675F" id="Shape">
                                <path d="M1.81401907,17.1767107 C1.52545953,17.3399149 1.15666047,17.2430219 0.989822791,16.9602153 L0.0847813953,15.4241581 C0.0566218605,15.37662 0.0387572093,15.3263567 0.0254344186,15.2757907 C-0.0154423256,15.4226442 0.000908372093,15.58494 0.0847813953,15.7269488 L0.989822791,17.263006 C1.15635767,17.5458126 1.52545953,17.6427056 1.81401907,17.4795014 C2.05413209,17.3438512 2.16041163,17.0710367 2.09410047,16.820326 C2.0538293,16.96506 1.95754186,17.0955628 1.81401907,17.1767107 L1.81401907,17.1767107 Z M8.15173116,0.0893232558 C8.09965116,0.267364186 7.9585507,0.415731628 7.76294791,0.467206047 L6.15089023,0.891113023 C5.85839442,0.96802186 5.55863163,0.800275814 5.47415302,0.51656093 C5.44720465,0.608609302 5.44266279,0.708530233 5.46961116,0.807845581 C5.54924512,1.09913023 5.85415535,1.27202372 6.15089023,1.19390372 L7.76294791,0.769996744 C8.05968279,0.691876744 8.23590698,0.392416744 8.15627302,0.100829302 L8.15173116,0.0893232558 L8.15173116,0.0893232558 Z"></path>
                            </g>
                            <g transform="translate(0.000000, 14.231163)" fill="#DFABA3" id="Shape">
                                <path d="M30.2575716,0.103857209 C30.23244,0.584688837 30.1833879,1.05916186 30.1143516,1.52727628 C30.1700651,1.39828744 30.2227507,1.27202372 30.2727112,1.15060465 L30.2790698,0.908372093 C30.2790698,0.638888372 30.2715,0.371221395 30.2575716,0.105371163 L30.2575716,0.103857209 L30.2575716,0.103857209 Z M0.0651,2.28667535 L0.0726697674,2.38629349 C0.120207907,2.86954744 0.190455349,3.34583721 0.281595349,3.81486 L0.758793488,4.02832744 C0.349420465,2.78264651 0.0932595349,1.4679293 0.0218009302,0.102948837 C0.00756976744,0.369707442 6.9388939e-17,0.63798 6.9388939e-17,0.908372093 C6.9388939e-17,1.15999116 0.00666139535,1.41009628 0.0187730233,1.65899023 C0.0296734884,1.86942977 0.046024186,2.07835535 0.0651,2.28667535 L0.0651,2.28667535 Z"></path>
                            </g>
                            <g id="Shape">
                                <use fill="#C851BA" xlink:href="#path-8"></use>
                                <use fill-opacity="0.256482111" fill="#F1692E" xlink:href="#path-8"></use>
                            </g>
                            <g transform="translate(0.000000, 14.533953)" fill="#D69022" id="Shape">
                                <path d="M10.3042702,0.419667907 C9.51792279,0.631924186 8.22591488,1.20964884 8.17534884,2.72511628 C8.10237628,4.90854 5.44932419,8.84966372 3.33069767,5.75302326 C2.37327349,4.35382744 1.27444605,3.96292465 0.28189814,3.5120693 L0.34730093,3.83968884 C1.33984884,4.29054419 2.37327349,4.65661814 3.33069767,6.05581395 C5.44932419,9.15245442 8.10237628,5.2113307 8.17534884,3.02790698 C8.22591488,1.51243953 9.50550837,0.934109302 10.2918558,0.721853023 L10.3042702,0.419667907 L10.3042702,0.419667907 Z M30.2727112,0.847813953 C29.4848498,2.76417628 27.9808884,5.81479256 26.04,3.02790698 C23.125034,-1.15726605 22.0461907,-0.0938651163 21.8009302,1.21116279 C21.6755749,1.87881628 20.625194,2.51831023 19.6832121,2.28788651 C19.6547498,2.38235721 19.6032753,2.47501116 19.5696656,2.56705953 C20.5395042,2.86349163 21.6713358,2.20280233 21.8009302,1.51395349 C22.0461907,0.208925581 23.125034,-0.854475349 26.04,3.33069767 C27.9808884,6.11758326 29.4848498,3.06696698 30.2727112,1.15060465 L30.2790698,0.908372093 L30.2751335,0.755765581 L30.2727112,0.847813953 L30.2727112,0.847813953 Z"></path>
                            </g>
                            <path d="M10.2948837,15.1395349 L10.3042702,14.9536214 C9.9699893,15.043853 9.54547674,15.2010014 9.1627493,15.4668516 C9.17667767,15.5567805 9.18606419,15.6482233 9.20392884,15.7366381 C9.57091116,15.4907721 9.97180605,15.3421019 10.2918558,15.2558065 L10.2957921,15.1607302 L10.2948837,15.1395349 L10.2948837,15.1395349 Z M0.874762326,18.6101219 C0.833582791,18.4944558 0.797247907,18.3766702 0.758793488,18.2594902 L0.281595349,18.0460228 L0.33004186,18.2885581 L0.350026047,18.3748535 L0.874762326,18.6101219 L0.874762326,18.6101219 Z M19.6832121,16.82184 C19.6656502,16.879673 19.6402158,16.9372033 19.6147814,16.9938251 L19.5881358,17.0565028 L19.5693628,17.1007102 C19.9175721,17.2072926 20.2863712,17.1888223 20.6227716,17.0916265 C20.6763656,16.9768688 20.7272344,16.8612028 20.7735614,16.7431144 C20.4344358,16.868167 20.0511028,16.9117688 19.6832121,16.82184 L19.6832121,16.82184 Z M30.2751335,15.2897191 L30.2727112,15.3817674 C30.2227507,15.5031865 30.1697623,15.6294502 30.1143516,15.7584391 C30.0898256,15.924974 30.0595465,16.0896921 30.0295702,16.2544102 C30.113746,16.065166 30.1921688,15.8801609 30.2648386,15.7042395 C30.269986,15.5667726 30.2736195,15.4293056 30.2751335,15.2909302 L30.2751335,15.2897191 L30.2751335,15.2897191 Z" id="Shape" fill="#BB7E1E"></path>
                        </g>
                    </g>
                </g>
            </g>
        </g>
    </g>
</svg>