<?xml version="1.0" encoding="UTF-8"?>
<svg width="118.829268px" height="118.662021px" viewBox="0 0 118.829268 118.662021" version="1.1" xmlns="http://www.w3.org/2000/svg" xmlns:xlink="http://www.w3.org/1999/xlink">
    <!-- Generator: Sketch 52.6 (67491) - http://www.bohemiancoding.com/sketch -->
    <desc>Created with Sketch.</desc>
    <defs>
        <filter x="-76.5%" y="-76.5%" width="253.7%" height="253.7%" filterUnits="objectBoundingBox" id="filter-1">
            <feOffset dx="0" dy="5" in="SourceAlpha" result="shadowOffsetOuter1"></feOffset>
            <feGaussianBlur stdDeviation="7" in="shadowOffsetOuter1" result="shadowBlurOuter1"></feGaussianBlur>
            <feColorMatrix values="0 0 0 0 0   0 0 0 0 0   0 0 0 0 0  0 0 0 0.115404212 0" type="matrix" in="shadowBlurOuter1" result="shadowMatrixOuter1"></feColorMatrix>
            <feMerge>
                <feMergeNode in="shadowMatrixOuter1"></feMergeNode>
                <feMergeNode in="SourceGraphic"></feMergeNode>
            </feMerge>
        </filter>
        <circle id="path-2" cx="23.8363186" cy="23.8363186" r="23.8363186"></circle>
    </defs>
    <g id="Page-1" stroke="none" stroke-width="1" fill="none" fill-rule="evenodd">
        <g id="icon/institution/fnb">
            <g id="icon---fnb" filter="url(#filter-1)" transform="translate(35.100000, 36.000000)">
                <mask id="mask-3" fill="white">
                    <use xlink:href="#path-2"></use>
                </mask>
                <use id="Oval" fill="#FFFFFF" fill-rule="nonzero" xlink:href="#path-2"></use>
                <g id="Group-43" mask="url(#mask-3)">
                    <g transform="translate(0.900000, 2.700000)">
                        <path d="M1.67309556,43.714856 C4.10030674,34.2953242 12.7000395,27.3131668 22.9496888,27.3131668 C33.2002564,27.3131668 41.8238212,34.2953242 44.2272,43.714856 C44.6277626,43.7613429 45.0521586,43.8324407 45.4994703,43.8789276 C44.5095166,32.3975631 34.8025066,23.3535726 22.9496888,23.3535726 C11.121619,23.3535726 1.39077661,32.3975631 0.376994219,43.8789276 C0.848137151,43.8324407 1.24870026,43.7613429 1.67309556,43.714856" id="path52389" fill="#00989A" fill-rule="nonzero" transform="translate(22.938232, 33.616250) scale(-1, 1) rotate(-180.000000) translate(-22.938232, -33.616250) "></path>
                        <path d="M1.43674344,18.646194 C1.43674344,30.4076534 11.0456321,39.929614 22.889725,39.929614 C34.7585588,39.929614 44.3674474,30.4076534 44.3674474,18.646194 C44.3674474,17.9187652 44.3426997,17.1913367 44.2602245,16.4720811 C41.8229482,7.03185436 33.1955681,0.0558949964 22.889725,0.0558949964 C12.6209967,0.0558949964 3.98949193,7.03185436 1.54809102,16.4720811 C1.46148773,17.1913367 1.43674344,17.9187652 1.43674344,18.646194" id="path4598" fill="#FF9A00" fill-rule="evenodd" transform="translate(22.902095, 19.992754) scale(-1, 1) rotate(-180.000000) translate(-22.902095, -19.992754) "></path>
                        <path d="M28.9422191,18.9024063 L28.9422191,20.6597951 L29.0835314,20.8001674 L28.9422191,20.9405411 L28.9422191,22.6751409 L29.9561747,21.6670132 L31.8675542,23.5182878 L32.3621437,24.0105022 C31.27753,24.5492028 30.1213465,24.9949309 28.9422191,25.34586 C28.9422191,31.3075726 28.9422191,35.778857 28.9422191,38.7597133 C28.9422191,38.8769742 28.9422191,39.0528657 28.9422191,39.2873876 C29.5790386,39.1470139 30.2158581,38.9829447 30.8288207,38.7951732 C31.7491804,37.9046285 32.5750292,36.9448102 33.3999568,35.9366825 C33.635782,36.1244506 33.9193256,36.2885232 34.2258055,36.4990821 C37.6457315,35.4681671 40.8307466,33.9213354 43.660649,31.859502 C43.8496769,31.4383844 44.0148473,30.9926562 44.1800178,30.5943293 C41.5850194,31.4383844 38.8019143,31.9770884 35.9243004,32.1411576 C36.2069194,31.578758 36.5372603,31.0400574 36.7730855,30.4539556 C39.7222788,29.8915561 42.4815264,28.9308228 45.0526638,27.6191639 C45.1471761,27.2208369 45.2178308,26.7988077 45.3123431,26.3539911 C43.0238316,26.8926917 40.7123803,27.1269495 38.2834666,27.1269495 L38.1889544,27.1269495 C38.3541283,26.6110362 38.5192918,26.0723356 38.6844623,25.5336315 C41.0904293,25.1116023 43.401884,24.4325314 45.5481683,23.5182878 L45.5481683,22.8155146 L45.5481683,22.6049558 C44.439697,22.745326 43.3073717,22.7681167 42.1511855,22.7681167 C39.934243,22.7681167 37.7402472,22.5812569 35.617817,22.1127414 C34.9332811,22.5812569 34.2258055,23.0260734 33.51833,23.4480992 L29.2248437,19.1603633 L28.9422191,18.9024063 Z M21.1820089,17.3090887 L20.1671346,18.2935182 C19.2944896,18.5742631 18.3979867,18.7848216 17.4785441,18.9488932 L17.4785441,22.7216271 L17.8088826,22.4171843 C18.7521834,22.4873694 19.6725441,22.4408798 20.6158449,22.3232968 C20.9461837,21.2686829 21.1820089,20.0973942 21.3471787,18.9261052 L24.2486546,15.9965161 L28.9422191,20.6597951 L28.9422191,18.9024063 L24.9084148,14.8954136 L25.3332673,4.39847957 C24.5312777,4.30459347 23.7531463,4.2808925 22.9740972,4.2808925 C22.1959658,4.2808925 21.3939766,4.30460166 20.6158449,4.39847957 L20.8278126,8.82658921 L20.8984684,10.5137912 L17.4785441,13.9118954 L17.4785441,15.6455853 L20.9929824,12.2009932 L21.1820089,17.3090887 Z M28.9422191,39.2873876 C27.0317594,39.7094168 25.026786,39.9199756 22.9740972,39.9199756 C21.0874956,39.9199756 19.2715495,39.7331157 17.4785438,39.3812716 L17.4785438,30.8987721 C19.5073747,31.4146854 21.6298018,31.6954294 23.84766,31.6954294 C24.578076,31.6954294 25.286469,31.6489432 26.0407429,31.578758 C26.2297701,31.3208014 26.4894532,31.0400574 26.7014205,30.7583984 C23.4466657,30.7583984 20.3561619,30.1258138 17.4785441,29.0010113 L17.4785441,25.251976 C19.1063801,26.0960345 20.8278126,26.7514098 22.6914741,27.1734357 L22.9740972,26.8926917 L28.9422191,20.9405411 L28.9422191,22.6751409 L25.7810598,25.8143755 L25.5452346,26.0723356 C26.7014205,25.9319619 27.8337486,25.6740052 28.9422191,25.34586 L28.9422191,39.2873876 Z M17.4785441,18.9488932 C16.27556,19.1840622 15.0487179,19.3007356 13.7989362,19.3244349 L17.4785441,15.6455853 L17.4785441,13.9118954 L12.0536461,19.2770363 L11.8407607,19.2770363 C10.2367823,19.2068502 8.65666201,18.9488932 7.17013661,18.5979621 C7.00588493,18.9488932 6.84071551,19.2770363 6.6755461,19.652578 C7.78401631,20.2377665 8.93928515,20.7299813 10.1899843,21.1283092 L8.93928515,22.370698 C8.58600588,22.4408832 8.16115343,22.4873694 7.78401631,22.533859 C7.33530602,22.6049558 6.9113713,22.651442 6.46266101,22.6979282 C5.590016,22.7681167 4.69351316,22.7681167 3.77406986,22.7681167 C2.61788431,22.7681167 1.50941411,22.7453431 0.377085855,22.6049558 L0.377085855,22.8155146 L0.377085855,23.5182878 C3.49052967,24.8308583 6.88751346,25.6503063 10.4496677,25.908263 L14.1999311,22.1592276 C14.8128927,22.2531117 15.4497126,22.3232968 16.0635923,22.370698 L11.5104219,26.9391779 C10.2367823,27.0567643 8.93928515,27.1269495 7.66564519,27.1269495 C5.23673707,27.1269495 2.90142519,26.8926917 0.636768892,26.3539911 C0.707424679,26.7988077 0.801938304,27.2208369 0.872594091,27.6191639 C4.59991726,29.5169246 8.75117529,30.7119122 13.1382585,30.94617 L14.2944444,29.8450664 L15.8039096,28.2745392 C16.3700732,28.5324959 16.9123798,28.7904525 17.4785441,29.0010113 L17.4785441,25.251976 C16.9362376,24.971232 16.393014,24.6667892 15.8507075,24.338644 L17.4785441,22.7216271 L17.4785441,18.9488932 Z M17.4785441,39.3812716 C14.9074067,38.8653583 12.4775809,38.0222148 10.1899843,36.8737135 L10.850662,36.2183381 C7.76015847,35.2339093 4.85868257,33.7107766 2.28754549,31.859502 C2.07557813,31.4383844 1.91040872,30.9926562 1.74523931,30.5943293 C5.02385198,31.6489432 8.5382902,32.235045 12.1710999,32.1411576 C13.1621164,32.1411576 14.1522151,32.0709724 15.1193737,31.9770884 L16.5113848,30.6180282 C16.841724,30.7119122 17.1720628,30.8057997 17.4785438,30.8987721 L17.4785441,39.3812716 Z" id="path52385" fill="#000000" fill-rule="evenodd" transform="translate(22.962627, 22.100434) scale(-1, 1) rotate(-180.000000) translate(-22.962627, -22.100434) "></path>
                    </g>
                </g>
                <polygon id="Path" fill="#000000" fill-rule="nonzero" mask="url(#mask-3)" transform="translate(29.241998, 14.452015) scale(-1, 1) translate(-29.241998, -14.452015) " points="30.6 20.5725888 28.9441141 21.3603365 27.8839953 16.2696633 29.0847051 10.1826289 29.0847051 7.96477133 30.6 7.54369298"></polygon>
                <polygon id="Path-2" fill="#000000" fill-rule="nonzero" mask="url(#mask-3)" points="18.7795218 7.68931253 16.3309469 8.7659445 17.2245658 15.5776077 17.7329364 16.1544224 19.4634769 14.8850404"></polygon>
                <polygon id="Path-3" fill="#000000" fill-rule="nonzero" mask="url(#mask-3)" points="19.027093 17.9505862 16.789261 19.2075624 17.01 22.1003509 19.9655132 20.4746889"></polygon>
                <polygon id="Path-4" fill="#000000" fill-rule="nonzero" mask="url(#mask-3)" points="18.7892578 24.7810595 17.5832773 23.5574286 16.8221814 26.6062737 16.8183967 27.5402723 18.7892578 27.8803616"></polygon>
            </g>
        </g>
    </g>
</svg>