<?xml version="1.0" encoding="UTF-8"?>
<svg width="109.827051px" height="109.672474px" viewBox="0 0 109.827051 109.672474" version="1.1" xmlns="http://www.w3.org/2000/svg" xmlns:xlink="http://www.w3.org/1999/xlink">
    <!-- Generator: Sketch 52.6 (67491) - http://www.bohemiancoding.com/sketch -->
    <desc>Created with Sketch.</desc>
    <defs>
        <filter x="-128.0%" y="-128.0%" width="357.9%" height="357.9%" filterUnits="objectBoundingBox" id="filter-1">
            <feOffset dx="4" dy="7" in="SourceAlpha" result="shadowOffsetOuter1"></feOffset>
            <feGaussianBlur stdDeviation="11" in="shadowOffsetOuter1" result="shadowBlurOuter1"></feGaussianBlur>
            <feColorMatrix values="0 0 0 0 0   0 0 0 0 0   0 0 0 0 0  0 0 0 0.115404212 0" type="matrix" in="shadowBlurOuter1" result="shadowMatrixOuter1"></feColorMatrix>
            <feMerge>
                <feMergeNode in="shadowMatrixOuter1"></feMergeNode>
                <feMergeNode in="SourceGraphic"></feMergeNode>
            </feMerge>
        </filter>
    </defs>
    <g id="Page-1" stroke="none" stroke-width="1" fill="none" fill-rule="evenodd">
        <g id="icon/institution/absa">
            <g id="icon---absa" filter="url(#filter-1)" transform="translate(32.697248, 33.514679)">
                <circle id="Oval-3" fill="#BE002A" fill-rule="nonzero" cx="22.0706422" cy="22.0706422" r="22.0706422"></circle>
                <g id="Group" transform="translate(3.862362, 3.862362)" fill="#FFFFFF" fill-rule="nonzero">
                    <path d="M33.1823616,12.7598092 C34.4579359,16.2803141 34.4579359,20.1362455 33.1823616,23.6567505 L35.3219103,24.4361538 C36.7814427,20.4123018 36.7814427,16.0042579 35.3219103,11.9804058 L33.1823616,12.7598092 Z M1.69438526,25.9030498 C4.68436107,32.3161823 11.1231566,36.4165596 18.2036806,36.4165596 C25.2842046,36.4165596 31.7230002,32.3161823 34.712976,25.9030498 L32.6488541,24.9416631 C30.0279565,30.5451138 24.3975007,34.1258475 18.20736,34.1258475 C12.0172192,34.1258475 6.38676341,30.5451138 3.76586583,24.9416631 L1.69438526,25.9030498 Z M3.22499968,12.7598092 L1.09464933,11.9804058 C-0.364883109,16.0042579 -0.364883109,20.4123018 1.09464933,24.4361538 L3.23419808,23.6567505 C1.95628224,20.1366564 1.95628224,16.2799032 3.23419808,12.7598092 L3.22499968,12.7598092 Z M34.712976,10.5135099 C31.7230002,4.10037732 25.2842046,4.4898241e-16 18.2036806,0 C11.1231566,-4.4898241e-16 4.68436107,4.10037732 1.69438526,10.5135099 L3.7585071,11.4748966 C6.37940469,5.87144581 12.0098605,2.29071212 18.2000013,2.29071212 C24.390142,2.29071212 30.0205978,5.87144581 32.6414954,11.4748966 L34.712976,10.5135099 Z" id="Shape"></path>
                    <path d="M14.6241584,20.7485698 C14.2562806,20.7464313 13.8900719,20.6989209 13.533831,20.6071151 L13.533831,16.7520041 C13.8904389,16.6618739 14.2563687,16.6137667 14.6241584,16.6086634 C15.6843038,16.6086634 16.1936263,17.0896092 16.1936263,18.6833317 C16.1936263,20.2770542 15.6843038,20.7580001 14.6241584,20.7580001 M14.9410702,14.9394983 C14.4691397,14.9503365 13.999533,15.0091065 13.5394901,15.1149021 L13.5394901,11.2050953 L11.5870872,11.4163342 L11.5870872,21.9141562 C12.5192392,22.2215902 13.4919246,22.3887622 14.4732481,22.4101905 C16.8217908,22.4101905 18.2082798,21.6161584 18.2082798,18.6739014 C18.2082798,15.7316444 16.8217908,14.9394983 14.9410702,14.9394983" id="Shape"></path>
                    <path d="M22.0769706,17.3642842 C21.2435062,17.3514256 20.7204744,17.3367301 20.7204744,16.8958644 C20.7204744,16.3172281 21.0741794,16.1941531 22.1465827,16.1941531 C22.8694243,16.2088532 23.5887886,16.2962637 24.2932708,16.4549987 L24.1371138,14.8844146 C23.4445089,14.6850626 22.7274538,14.5781619 22.005477,14.5666239 C19.6631224,14.5666239 18.7600459,15.395084 18.7600459,16.9546465 C18.7600459,18.4572638 19.7007506,18.8430213 21.2999485,18.8705754 C22.3309608,18.8852709 22.8671625,18.8577168 22.8671625,19.5190154 C22.8671625,20.0976516 22.400573,20.2207266 21.3996632,20.2207266 C20.5579378,20.2334711 19.7193519,20.1175672 18.9143214,19.8772188 L19.0704784,21.4478029 C19.8655577,21.731033 20.707807,21.866844 21.5539388,21.8482559 C24.0524504,21.8482559 24.8294725,21.0197957 24.8294725,19.531874 C24.8294725,17.6581947 23.572691,17.3955122 22.0769706,17.3679581" id="Shape"></path>
                    <path d="M8.53145544,20.1664854 C8.22047446,20.2247133 7.90501011,20.2572969 7.58841215,20.2638903 C6.73967319,20.2638903 6.386975,20.0010809 6.386975,19.4368678 C6.386975,18.8432494 6.72647058,18.7476823 7.43375305,18.7017366 L8.5371137,18.633737 L8.53145544,20.1664854 Z M7.3149296,14.5684617 C6.56720541,14.5747255 5.82396243,14.6817204 5.10632221,14.8864059 L4.95166311,16.4577488 C5.65815996,16.3039463 6.37817234,16.2165553 7.10180181,16.1967772 C8.12028856,16.1967772 8.53145544,16.2794794 8.53145544,17.0789346 L8.53145544,17.2994739 L7.1734731,17.3674736 C5.66460384,17.4501758 4.41412844,17.6982826 4.41412844,19.5324348 C4.41412844,21.0210754 5.19119611,21.8499358 7.54125999,21.8499358 C8.54134717,21.8334662 9.53320514,21.6705277 10.483555,21.366587 L10.483555,16.9558001 C10.483555,15.3991599 9.59332218,14.5666239 7.3149296,14.5666239 L7.3149296,14.5684617 Z" id="Shape"></path>
                    <path d="M29.4985655,20.1664854 C29.1875845,20.2247133 28.8721202,20.2572969 28.5555222,20.2638903 C27.7067833,20.2638903 27.352199,20.0010809 27.352199,19.4368678 C27.352199,18.8432494 27.6935807,18.7476823 28.4008631,18.7017366 L29.5042238,18.633737 L29.4985655,20.1664854 Z M28.2820397,14.5684617 C27.5343155,14.5747255 26.7910725,14.6817204 26.0734323,14.8864059 L25.9187732,16.4577488 C26.6252581,16.3038793 27.3452771,16.2164875 28.0689119,16.1967772 C29.0873987,16.1967772 29.4985655,16.2794794 29.4985655,17.0789346 L29.4985655,17.2994739 L28.1405832,17.3674736 C26.6317139,17.4501758 25.3812385,17.6578504 25.3812385,19.5324348 C25.3812385,21.0210754 26.1583062,21.8499358 28.5083701,21.8499358 C29.5084573,21.8334662 30.5003152,21.6705277 31.4506651,21.366587 L31.4506651,16.9558001 C31.4506651,15.3991599 30.5585462,14.5666239 28.2820397,14.5666239 L28.2820397,14.5684617 Z" id="Shape"></path>
                </g>
            </g>
        </g>
    </g>
</svg>