<?xml version="1.0" encoding="UTF-8"?>
<svg width="149px" height="149px" viewBox="0 0 149 149" version="1.1" xmlns="http://www.w3.org/2000/svg" xmlns:xlink="http://www.w3.org/1999/xlink">
    <!-- Generator: Sketch 52.6 (67491) - http://www.bohemiancoding.com/sketch -->
    <desc>Created with Sketch.</desc>
    <defs>
        <ellipse id="path-1" cx="42.8785714" cy="42.3975904" rx="42.8785714" ry="42.3975904"></ellipse>
        <filter x="-65.9%" y="-50.1%" width="231.8%" height="233.3%" filterUnits="objectBoundingBox" id="filter-2">
            <feOffset dx="0" dy="14" in="SourceAlpha" result="shadowOffsetOuter1"></feOffset>
            <feGaussianBlur stdDeviation="16.5" in="shadowOffsetOuter1" result="shadowBlurOuter1"></feGaussianBlur>
            <feColorMatrix values="0 0 0 0 0   0 0 0 0 0   0 0 0 0 0  0 0 0 0.07 0" type="matrix" in="shadowBlurOuter1"></feColorMatrix>
        </filter>
        <linearGradient x1="50%" y1="0%" x2="50%" y2="100%" id="linearGradient-3">
            <stop stop-color="#039775" offset="0%"></stop>
            <stop stop-color="#50B848" offset="100%"></stop>
        </linearGradient>
    </defs>
    <g id="Page-1" stroke="none" stroke-width="1" fill="none" fill-rule="evenodd">
        <g id="icon/Old-Mutual" transform="translate(30.000000, 18.000000)">
            <g transform="translate(0.932143, 0.000000)">
                <g id="Oval-Copy-8" fill-rule="nonzero">
                    <use fill="black" fill-opacity="1" filter="url(#filter-2)" xlink:href="#path-1"></use>
                    <use fill="#FFFFFF" xlink:href="#path-1"></use>
                </g>
                <path d="M33.1433858,47.6918495 C32.8029829,47.0958179 33.0043599,46.3613636 33.605963,46.021821 C34.2067236,45.6912351 34.9498804,45.8923551 35.2970239,46.4745445 C35.6399545,47.0510341 35.4318369,47.7985164 34.8428725,48.121774 C34.6431807,48.2341406 34.4359057,48.2968379 34.2244178,48.2968379 C33.797229,48.2968379 33.3852067,48.0688477 33.1433858,47.6918495 M37.4270697,44.0765757 C36.9012989,43.1410014 34.8850016,43.4471597 35.5396874,44.7809027 C34.7383924,44.3420214 33.7306651,44.3175939 32.8821856,44.7980019 C31.6065173,45.5251279 31.1624769,47.1397874 31.8938376,48.3904768 C32.6454202,49.6541941 34.2833985,50.0670193 35.5607519,49.3569925 C36.4092314,48.8765845 36.8979286,48.0020791 36.9012989,47.1072174 C37.7624171,48.3326649 39.0456686,46.7644178 38.4845094,45.8581566 C39.0035395,45.4665019 40.0314888,44.837086 40.965069,44.2809526 C41.0130962,43.6010531 41.0442717,42.9081257 41.0602807,42.2127554 C39.9295365,42.8389143 38.2460588,43.7321475 37.4270697,44.0765757 M44.9100352,28.7246898 C46.0205575,29.2116118 47.2119676,29.9981781 48.3300731,31.1006738 C49.379087,32.1266299 50.1980761,33.2055123 50.6977269,34.2216974 C50.2941304,35.8127436 47.5886015,38.0910175 44.5603639,40.0891891 C44.5527807,40.4792153 44.5527807,40.8464425 44.5527807,41.1395728 C44.5527807,41.5247134 44.5527807,41.9017116 44.5603639,42.2949948 C48.1539736,40.4792153 52.0492275,39.0412483 53.8211762,39.5379413 C54.4699639,40.4792153 55.0235399,41.7079199 55.4060718,43.1059886 C55.8071406,44.6090957 55.9234168,46.0071645 55.7970296,47.183757 C56.5123812,48.0965322 57.2959819,48.7984164 58.0281852,49.2584682 C58.4654849,47.018464 58.725,44.6498083 58.725,42.2029844 C58.725,39.241554 58.3879674,36.401447 57.7560314,33.7803734 C55.7431044,31.9222529 53.404941,30.2123261 50.7811425,28.7409748 C48.6157082,27.514713 46.3845527,26.5595967 44.1988965,25.8072289 C44.2267017,26.6630066 44.4710503,27.6686064 44.9100352,28.7246898 M50.8266419,48.121774 C50.2275665,47.7985164 50.0219766,47.0510341 50.3708053,46.4745445 C50.7002547,45.8923551 51.4636334,45.6912351 52.054283,46.021821 C52.6592564,46.3613636 52.8581056,47.0958179 52.5177028,47.6918495 C52.2826225,48.0688477 51.8722854,48.2968379 51.444254,48.2968379 C51.2218125,48.2968379 51.0179078,48.2341406 50.8266419,48.121774 M44.6555756,44.2565251 C45.6135907,44.8191724 46.6423826,45.4648734 47.1833199,45.8581566 C46.6204755,46.7644178 47.9011992,48.3326649 48.753049,47.1072174 C48.7724284,48.0020791 49.2459591,48.8765845 50.0910683,49.3569925 C50.4188325,49.5312422 50.7752444,49.6541941 51.1164899,49.6835071 L51.7509537,49.6835071 C52.5564615,49.5866113 53.3156273,49.1371448 53.7638807,48.3904768 C54.5137781,47.1397874 54.06721,45.5365275 52.7822733,44.7980019 C51.925368,44.3175939 50.9302794,44.3420214 50.1348825,44.7809027 C50.7811425,43.4471597 48.7640026,43.1410014 48.2416021,44.0765757 C47.4015484,43.720748 45.6961637,42.8356573 44.5603639,42.2029844 C44.5780581,42.8869551 44.6134466,43.5733686 44.6555756,44.2565251 M34.8850016,28.7409748 C32.2671012,30.2123261 29.9230397,31.9222529 27.9176959,33.7803734 C27.4795536,35.5912674 27.1821223,37.5226704 27.0321429,39.5118853 L27.0321429,44.7931164 C27.1442062,46.3320506 27.3523238,47.8196869 27.6345886,49.2584682 C28.3903841,48.7984164 29.1537628,48.0965322 29.8632164,47.183757 C29.7359866,46.0071645 29.8556332,44.6090957 30.2617574,43.1059886 C30.6426042,41.7079199 31.1801711,40.4792153 31.8382272,39.5379413 C33.605963,39.0412483 37.4826801,40.4792153 41.0602807,42.2721957 C41.0602807,41.8821696 41.0754472,41.5247134 41.0754472,41.1395728 C41.0754472,40.8334144 41.0754472,40.4661873 41.0602807,40.0663901 C38.0455245,38.0779895 35.3745414,35.8127436 34.9760004,34.2216974 C35.4798641,33.2055123 36.2946403,32.1184874 37.3402838,31.1006738 C38.4600745,29.9981781 39.6422162,29.2116118 40.7527385,28.7246898 C41.1908809,27.6686064 41.4411275,26.6630066 41.4706179,25.8072289 C39.2689527,26.5595967 37.0495932,27.514713 34.8850016,28.7409748 M41.5784683,32.464544 C41.5784683,31.78953 42.1210907,31.2447962 42.8077946,31.2447962 C43.4995539,31.2447962 44.0472318,31.78953 44.0472318,32.464544 C44.0472318,33.136301 43.4995539,33.6794063 42.8077946,33.6794063 C42.1269888,33.6794063 41.5784683,33.136301 41.5784683,32.464544 M40.141867,32.464544 C40.141867,33.4302455 40.6575268,34.2542674 41.4411275,34.7200189 C39.9379623,34.8348283 40.6634249,36.6994628 41.766364,36.6815493 C41.8716866,37.6602788 41.9306673,39.906797 41.9306673,41.1395728 C41.9306673,45.7303192 41.2877777,51.3258511 39.6860305,52.8452433 C38.527481,52.9396964 37.1633417,52.7792889 35.7351662,52.4104333 C34.2067236,52.0073791 32.8981946,51.3991337 31.9359667,50.7094632 C30.769834,50.8568426 29.7587363,51.15323 28.9726078,51.5513986 C30.743714,53.0431062 32.7035583,54.4493175 34.8748906,55.6674368 C37.4034774,57.099704 40.0129521,58.216042 42.5727144,58.9879518 L43.0470877,58.9879518 C45.6194888,58.216042 48.2129543,57.099704 50.7516521,55.6674368 C52.9229844,54.4493175 54.8845139,53.0431062 56.6370833,51.5513986 C55.8694916,51.163001 54.8583939,50.8568426 53.6964741,50.7094632 C52.7106539,51.3991337 51.4240321,52.0073791 49.8829507,52.4104333 C48.4606733,52.7792889 47.0872656,52.9396964 45.9438826,52.8452433 C44.3345521,51.3258511 43.6874496,45.7303192 43.6874496,41.1395728 C43.6874496,39.906797 43.74306,37.6602788 43.8618639,36.6815493 C44.9454236,36.6994628 45.6885804,34.8348283 44.177832,34.7200189 C44.9690159,34.2542674 45.5006848,33.4302455 45.5006848,32.464544 C45.5006848,31.0127347 44.2966359,29.8336995 42.8077946,29.8336995 C41.3273791,29.8336995 40.141867,31.0127347 40.141867,32.464544" id="Fill-14" fill="url(#linearGradient-3)"></path>
            </g>
        </g>
    </g>
</svg>