<?xml version="1.0" encoding="UTF-8"?>
<svg width="168.461538px" height="153.91924px" viewBox="0 0 168.461538 153.91924" version="1.1" xmlns="http://www.w3.org/2000/svg" xmlns:xlink="http://www.w3.org/1999/xlink">
    <!-- Generator: Sketch 52.6 (67491) - http://www.bohemiancoding.com/sketch -->
    <desc>Created with Sketch.</desc>
    <defs>
        <rect id="path-1" x="0.384384384" y="0.691891892" width="121.20405" height="109.891672" rx="0.808026998"></rect>
        <filter x="-19.4%" y="-16.8%" width="138.8%" height="142.8%" filterUnits="objectBoundingBox" id="filter-2">
            <feOffset dx="0" dy="5" in="SourceAlpha" result="shadowOffsetOuter1"></feOffset>
            <feGaussianBlur stdDeviation="7" in="shadowOffsetOuter1" result="shadowBlurOuter1"></feGaussianBlur>
            <feColorMatrix values="0 0 0 0 0   0 0 0 0 0   0 0 0 0 0  0 0 0 0.10377038 0" type="matrix" in="shadowBlurOuter1"></feColorMatrix>
        </filter>
    </defs>
    <g id="Page-1" stroke="none" stroke-width="1" fill="none" fill-rule="evenodd">
        <g id="card/nudge/scorecard">
            <g transform="translate(23.063063, 21.525526)">
                <g id="Mask" fill-rule="nonzero">
                    <use fill="black" fill-opacity="1" filter="url(#filter-2)" xlink:href="#path-1"></use>
                    <use fill="#FFFFFF" xlink:href="#path-1"></use>
                </g>
                <path d="M17.7569648,96.4430911 L11.2927489,96.4430911 C10.8464879,96.4430911 10.4847219,96.8048571 10.4847219,97.2511181 L10.4847219,102.09928 C10.4847219,102.545541 10.8464879,102.907307 11.2927489,102.907307 L17.7569648,102.907307 C18.2032258,102.907307 18.5649918,102.545541 18.5649918,102.09928 L18.5649918,97.2511181 C18.5649918,96.8048571 18.2032258,96.4430911 17.7569648,96.4430911 L17.7569648,96.4430911 Z M17.7569648,102.09928 L11.2927489,102.09928 L11.2927489,98.0591451 L14.5248568,100.079213 L17.7569648,98.0591451 L17.7569648,102.09928 L17.7569648,102.09928 Z M17.7569648,97.2511181 L14.5248568,99.2711856 L11.2927489,97.2511181 L17.7569648,97.2511181 L17.7569648,97.2511181 Z" id="Shape-Copy-8" fill="#000000" opacity="0.3"></path>
                <path d="M15.5914525,18.8070537 L15.0581547,18.8070537 L14.5248568,17.4818894 L11.6725215,17.4818894 L11.1392237,18.8070537 L10.6059259,18.8070537 L12.8118396,13.4175136 L13.3855388,13.4175136 L15.5914525,18.8070537 Z M14.3713317,17.0617154 L13.1027293,13.9104101 L11.8260467,17.0617154 L14.3713317,17.0617154 Z M16.7711719,18.9040169 C16.2540346,18.9040169 16.0035462,18.5888864 16.0035462,18.0555886 L16.0035462,15.2759757 L15.3571246,15.2759757 L15.3571246,14.9042833 L16.0035462,14.9042833 L16.0035462,13.8376876 L16.4318005,13.8376876 L16.4318005,14.9042833 L17.223667,14.9042833 L17.223667,15.2759757 L16.4318005,15.2759757 L16.4318005,17.9909464 C16.4318005,18.3060769 16.5610848,18.5242442 16.835814,18.5242442 C17.0216602,18.5242442 17.1832656,18.4353613 17.2721486,18.338398 L17.433754,18.6616088 C17.2802289,18.8070537 17.0943827,18.9040169 16.7711719,18.9040169 Z M19.171012,20.3342247 L19.2437344,19.9463717 C19.3326174,19.9867731 19.4861425,20.0110139 19.5831057,20.0110139 C19.8416744,20.0110139 20.0194403,19.9059704 20.1810457,19.534278 L20.488096,18.8393748 L18.8316406,14.9042833 L19.3002963,14.9042833 L20.7224238,18.3141572 L22.1283908,14.9042833 L22.6051267,14.9042833 L20.5850592,19.6635623 C20.3749722,20.1564588 20.0436811,20.3907866 19.591186,20.3907866 C19.4538214,20.3907866 19.2760555,20.3665458 19.171012,20.3342247 Z M24.560552,18.9040169 C23.4212339,18.9040169 22.6940096,17.9909464 22.6940096,16.8516283 C22.6940096,15.7123103 23.4212339,14.80732 24.560552,14.80732 C25.7160306,14.80732 26.4432549,15.7123103 26.4432549,16.8516283 C26.4432549,17.9909464 25.7160306,18.9040169 24.560552,18.9040169 Z M24.560552,18.5242442 C25.4817028,18.5242442 25.9907598,17.7242975 25.9907598,16.8516283 C25.9907598,15.9870395 25.4817028,15.1870927 24.560552,15.1870927 C23.6555618,15.1870927 23.1384245,15.9870395 23.1384245,16.8516283 C23.1384245,17.7242975 23.6555618,18.5242442 24.560552,18.5242442 Z M30.1763396,18.8070537 L29.7561656,18.8070537 L29.7561656,18.2333545 C29.441035,18.5888864 28.9158175,18.9040169 28.3501986,18.9040169 C27.5583321,18.9040169 27.1219976,18.5323245 27.1219976,17.6515751 L27.1219976,14.9042833 L27.5421716,14.9042833 L27.5421716,17.5546118 C27.5421716,18.3141572 27.9219443,18.5242442 28.4875632,18.5242442 C28.9885399,18.5242442 29.4975969,18.2252742 29.7561656,17.8778226 L29.7561656,14.9042833 L30.1763396,14.9042833 L30.1763396,18.8070537 Z M31.5015038,18.8070537 L31.0813298,18.8070537 L31.0813298,14.9042833 L31.5015038,14.9042833 L31.5015038,15.5749457 C31.8327949,15.1386111 32.2772098,14.8234806 32.8185878,14.8234806 L32.8185878,15.284056 C32.7458654,15.2678954 32.6893035,15.2678954 32.6085008,15.2678954 C32.2125676,15.2678954 31.6792698,15.6234273 31.5015038,15.9627986 L31.5015038,18.8070537 Z M36.6001541,18.9040169 C35.4527558,18.9040169 34.7093709,17.9909464 34.7093709,16.8516283 C34.7093709,15.7123103 35.4527558,14.80732 36.6001541,14.80732 C37.2788968,14.80732 37.6667498,15.0739689 37.9818803,15.4699022 L37.6909906,15.7284708 C37.4081811,15.3406179 37.0526492,15.1870927 36.6243949,15.1870927 C35.7113244,15.1870927 35.1537858,15.914317 35.1537858,16.8516283 C35.1537858,17.7889397 35.7113244,18.5242442 36.6243949,18.5242442 C37.0526492,18.5242442 37.4081811,18.3626388 37.6909906,17.9747859 L37.9818803,18.2333545 C37.6667498,18.637368 37.2788968,18.9040169 36.6001541,18.9040169 Z M41.5695201,18.8070537 L41.1493461,18.8070537 L41.1493461,18.2333545 C40.8342156,18.5888864 40.308998,18.9040169 39.7433791,18.9040169 C38.9515126,18.9040169 38.5151781,18.5323245 38.5151781,17.6515751 L38.5151781,14.9042833 L38.9353521,14.9042833 L38.9353521,17.5546118 C38.9353521,18.3141572 39.3151248,18.5242442 39.8807437,18.5242442 C40.3817204,18.5242442 40.8907774,18.2252742 41.1493461,17.8778226 L41.1493461,14.9042833 L41.5695201,14.9042833 L41.5695201,18.8070537 Z M42.8946844,18.8070537 L42.4745103,18.8070537 L42.4745103,14.9042833 L42.8946844,14.9042833 L42.8946844,15.5749457 C43.2259754,15.1386111 43.6703903,14.8234806 44.2117684,14.8234806 L44.2117684,15.284056 C44.1390459,15.2678954 44.082484,15.2678954 44.0016813,15.2678954 C43.6057481,15.2678954 43.0724503,15.6234273 42.8946844,15.9627986 L42.8946844,18.8070537 Z M45.0521164,18.8070537 L44.6319424,18.8070537 L44.6319424,14.9042833 L45.0521164,14.9042833 L45.0521164,15.5749457 C45.3834075,15.1386111 45.8278223,14.8234806 46.3692004,14.8234806 L46.3692004,15.284056 C46.296478,15.2678954 46.2399161,15.2678954 46.1591134,15.2678954 C45.7631802,15.2678954 45.2298823,15.6234273 45.0521164,15.9627986 L45.0521164,18.8070537 Z M48.5185522,18.9040169 C47.3792341,18.9040169 46.5712071,18.0555886 46.5712071,16.8516283 C46.5712071,15.7203905 47.3630736,14.80732 48.4458298,14.80732 C49.6336294,14.80732 50.2881313,15.7446314 50.2881313,16.8758691 L50.2881313,16.9889929 L47.0237022,16.9889929 C47.0641036,17.8374213 47.6297225,18.5404048 48.5508733,18.5404048 C49.0437697,18.5404048 49.4962649,18.3545586 49.8275559,17.9990267 L50.0457232,18.2737559 C49.6578703,18.6777694 49.1649738,18.9040169 48.5185522,18.9040169 Z M49.859877,16.6577019 C49.8517967,15.9951197 49.4154622,15.1709322 48.4377495,15.1709322 C47.5165987,15.1709322 47.0560233,15.9789592 47.0237022,16.6577019 L49.859877,16.6577019 Z M54.021216,18.8070537 L53.601042,18.8070537 L53.601042,16.1648054 C53.601042,15.4133403 53.2212693,15.1870927 52.6556504,15.1870927 C52.1546736,15.1870927 51.6375364,15.5022233 51.387048,15.8577551 L51.387048,18.8070537 L50.966874,18.8070537 L50.966874,14.9042833 L51.387048,14.9042833 L51.387048,15.494143 C51.6698574,15.1547716 52.2273961,14.80732 52.793015,14.80732 C53.5848814,14.80732 54.021216,15.195173 54.021216,16.0759224 L54.021216,18.8070537 Z M55.7746346,18.9040169 C55.2574973,18.9040169 55.0070089,18.5888864 55.0070089,18.0555886 L55.0070089,15.2759757 L54.3605873,15.2759757 L54.3605873,14.9042833 L55.0070089,14.9042833 L55.0070089,13.8376876 L55.4352632,13.8376876 L55.4352632,14.9042833 L56.2271297,14.9042833 L56.2271297,15.2759757 L55.4352632,15.2759757 L55.4352632,17.9909464 C55.4352632,18.3060769 55.5645475,18.5242442 55.8392767,18.5242442 C56.0251229,18.5242442 56.1867283,18.4353613 56.2756113,18.338398 L56.4372167,18.6616088 C56.2836916,18.8070537 56.0978454,18.9040169 55.7746346,18.9040169 Z M58.8532173,18.8070537 L58.4330433,18.8070537 L58.4330433,14.9042833 L58.8532173,14.9042833 L58.8532173,15.5749457 C59.1845084,15.1386111 59.6289233,14.8234806 60.1703013,14.8234806 L60.1703013,15.284056 C60.0975789,15.2678954 60.041017,15.2678954 59.9602143,15.2678954 C59.5642811,15.2678954 59.0309833,15.6234273 58.8532173,15.9627986 L58.8532173,18.8070537 Z M63.4912923,18.8070537 L63.0711182,18.8070537 L63.0711182,18.3464783 C62.7236666,18.726251 62.287332,18.9040169 61.745954,18.9040169 C61.0752915,18.9040169 60.3803883,18.4434415 60.3803883,17.6030934 C60.3803883,16.7546651 61.0672113,16.3102502 61.745954,16.3102502 C62.287332,16.3102502 62.7317469,16.4880162 63.0711182,16.8677889 L63.0711182,16.0759224 C63.0711182,15.494143 62.6024626,15.1790125 62.0287634,15.1790125 C61.5358669,15.1790125 61.1560942,15.3486981 60.8005624,15.7527116 L60.5662345,15.4618219 C60.970248,15.0254873 61.4227432,14.80732 62.0691648,14.80732 C62.8610312,14.80732 63.4912923,15.1870927 63.4912923,16.0597619 L63.4912923,18.8070537 Z M61.8913988,18.5727258 C62.3600545,18.5727258 62.7963891,18.3949599 63.0711182,18.039428 L63.0711182,17.1829194 C62.7963891,16.8193073 62.3600545,16.6415413 61.8913988,16.6415413 C61.2530575,16.6415413 60.8248032,17.0536351 60.8248032,17.6111737 C60.8248032,18.1606321 61.2530575,18.5727258 61.8913988,18.5727258 Z M65.2447108,18.9040169 C64.7275735,18.9040169 64.4770852,18.5888864 64.4770852,18.0555886 L64.4770852,15.2759757 L63.8306636,15.2759757 L63.8306636,14.9042833 L64.4770852,14.9042833 L64.4770852,13.8376876 L64.9053395,13.8376876 L64.9053395,14.9042833 L65.6972059,14.9042833 L65.6972059,15.2759757 L64.9053395,15.2759757 L64.9053395,17.9909464 C64.9053395,18.3060769 65.0346238,18.5242442 65.309353,18.5242442 C65.4951992,18.5242442 65.6568046,18.4353613 65.7456876,18.338398 L65.907293,18.6616088 C65.7537678,18.8070537 65.5679216,18.9040169 65.2447108,18.9040169 Z M67.943521,18.9040169 C66.8042029,18.9040169 65.9961759,18.0555886 65.9961759,16.8516283 C65.9961759,15.7203905 66.7880423,14.80732 67.8707985,14.80732 C69.0585982,14.80732 69.7131001,15.7446314 69.7131001,16.8758691 L69.7131001,16.9889929 L66.448671,16.9889929 C66.4890724,17.8374213 67.0546913,18.5404048 67.975842,18.5404048 C68.4687385,18.5404048 68.9212336,18.3545586 69.2525247,17.9990267 L69.470692,18.2737559 C69.082839,18.6777694 68.5899426,18.9040169 67.943521,18.9040169 Z M69.2848458,16.6577019 C69.2767655,15.9951197 68.8404309,15.1709322 67.8627183,15.1709322 C66.9415675,15.1709322 66.4809921,15.9789592 66.448671,16.6577019 L69.2848458,16.6577019 Z M73.7289942,18.9040169 C72.5896761,18.9040169 71.8624518,17.9909464 71.8624518,16.8516283 C71.8624518,15.7123103 72.5896761,14.80732 73.7289942,14.80732 C74.8844728,14.80732 75.6116971,15.7123103 75.6116971,16.8516283 C75.6116971,17.9909464 74.8844728,18.9040169 73.7289942,18.9040169 Z M73.7289942,18.5242442 C74.650145,18.5242442 75.159202,17.7242975 75.159202,16.8516283 C75.159202,15.9870395 74.650145,15.1870927 73.7289942,15.1870927 C72.8240039,15.1870927 72.3068667,15.9870395 72.3068667,16.8516283 C72.3068667,17.7242975 72.8240039,18.5242442 73.7289942,18.5242442 Z M76.8560586,18.8070537 L76.4278043,18.8070537 L76.4278043,15.2759757 L75.7813827,15.2759757 L75.7813827,14.9042833 L76.4278043,14.9042833 L76.4278043,14.5487514 C76.4278043,13.789206 76.8318178,13.3367109 77.4863197,13.3367109 C77.7610489,13.3367109 77.9792162,13.3932728 78.2297045,13.6114401 L78.0276978,13.9184903 C77.8984135,13.7972863 77.7368081,13.7164836 77.526721,13.7164836 C77.0823062,13.7164836 76.8560586,14.0235338 76.8560586,14.5487514 L76.8560586,14.9042833 L77.6479251,14.9042833 L77.6479251,15.2759757 L76.8560586,15.2759757 L76.8560586,18.8070537 Z M12.3027826,27.8986115 C11.6725215,27.8986115 11.1877053,27.7127653 10.7998524,27.2764307 L11.0503408,26.9693805 C11.3008291,27.284511 11.7614045,27.5430796 12.3108629,27.5430796 C12.9653647,27.5430796 13.3532177,27.2037083 13.3532177,26.7512132 C13.3532177,25.6846175 10.8887354,26.2906378 10.8887354,24.8846708 C10.8887354,24.2867308 11.3977924,23.8019146 12.2785418,23.8019146 C12.9492042,23.8019146 13.393619,24.0604833 13.6764285,24.3756138 L13.4421007,24.6745838 C13.2158531,24.3675335 12.7956791,24.1574465 12.2785418,24.1574465 C11.6725215,24.1574465 11.3089094,24.4644968 11.3089094,24.8685103 C11.3089094,25.8462229 13.7653115,25.248283 13.7653115,26.7512132 C13.7653115,27.3814742 13.2804953,27.8986115 12.3027826,27.8986115 Z M16.2217135,27.8986115 C15.6722551,27.8986115 15.1793587,27.6158021 14.8642281,27.1713872 L14.8642281,29.2884179 L14.4440541,29.2884179 L14.4440541,23.8988779 L14.8642281,23.8988779 L14.8642281,24.5129784 C15.1389573,24.1170452 15.6399341,23.8019146 16.2217135,23.8019146 C17.2640683,23.8019146 17.9670518,24.5937811 17.9670518,25.8462229 C17.9670518,27.0905845 17.2640683,27.8986115 16.2217135,27.8986115 Z M16.1489911,27.5188388 C17.0216602,27.5188388 17.5145567,26.7916145 17.5145567,25.8462229 C17.5145567,24.9008313 17.0216602,24.1816873 16.1489911,24.1816873 C15.607613,24.1816873 15.0904757,24.5048981 14.8642281,24.8765905 L14.8642281,26.8077751 C15.0904757,27.1794675 15.607613,27.5188388 16.1489911,27.5188388 Z M20.3507314,27.8986115 C19.2114134,27.8986115 18.4033864,27.0501832 18.4033864,25.8462229 C18.4033864,24.7149851 19.1952528,23.8019146 20.278009,23.8019146 C21.4658087,23.8019146 22.1203105,24.7392259 22.1203105,25.8704637 L22.1203105,25.9835875 L18.8558815,25.9835875 C18.8962828,26.8320159 19.4619017,27.5349994 20.3830525,27.5349994 C20.875949,27.5349994 21.3284441,27.3491531 21.6597352,26.9936213 L21.8779024,27.2683504 C21.4900495,27.6723639 20.997153,27.8986115 20.3507314,27.8986115 Z M21.6920562,25.6522965 C21.683976,24.9897143 21.2476414,24.1655268 20.2699287,24.1655268 C19.3487779,24.1655268 18.8882026,24.9735538 18.8558815,25.6522965 L21.6920562,25.6522965 Z M25.8533952,27.8016483 L25.4332212,27.8016483 L25.4332212,25.1594 C25.4332212,24.4079349 25.0534485,24.1816873 24.4878296,24.1816873 C23.9868529,24.1816873 23.4697156,24.4968178 23.2192272,24.8523497 L23.2192272,27.8016483 L22.7990532,27.8016483 L22.7990532,23.8988779 L23.2192272,23.8988779 L23.2192272,24.4887376 C23.5020367,24.1493662 24.0595753,23.8019146 24.6251942,23.8019146 C25.4170607,23.8019146 25.8533952,24.1897676 25.8533952,25.070517 L25.8533952,27.8016483 Z M30.0632159,27.8016483 L29.6349616,27.8016483 L29.6349616,27.1794675 C29.3602324,27.583481 28.8592556,27.8986115 28.2774762,27.8986115 C27.2432016,27.8986115 26.5402181,27.106745 26.5402181,25.8543032 C26.5402181,24.6180219 27.2432016,23.8019146 28.2774762,23.8019146 C28.8350148,23.8019146 29.3279113,24.0847241 29.6349616,24.5291389 L29.6349616,22.4121082 L30.0632159,22.4121082 L30.0632159,27.8016483 Z M28.3501986,27.5188388 C28.899657,27.5188388 29.408714,27.195628 29.6349616,26.8239356 L29.6349616,24.8927511 C29.408714,24.5129784 28.899657,24.1816873 28.3501986,24.1816873 C27.4856097,24.1816873 26.984633,24.9089116 26.984633,25.8543032 C26.984633,26.7996948 27.4856097,27.5188388 28.3501986,27.5188388 Z M31.1782931,23.2847773 C31.0086074,23.2847773 30.8550823,23.1393325 30.8550823,22.9615666 C30.8550823,22.7838006 31.0086074,22.646436 31.1782931,22.646436 C31.356059,22.646436 31.5015039,22.7838006 31.5015039,22.9615666 C31.5015039,23.1393325 31.356059,23.2847773 31.1782931,23.2847773 Z M31.3883801,27.8016483 L30.9682061,27.8016483 L30.9682061,23.8988779 L31.3883801,23.8988779 L31.3883801,27.8016483 Z M35.3477123,27.8016483 L34.9275383,27.8016483 L34.9275383,25.1594 C34.9275383,24.4079349 34.5477656,24.1816873 33.9821467,24.1816873 C33.48117,24.1816873 32.9640327,24.4968178 32.7135443,24.8523497 L32.7135443,27.8016483 L32.2933703,27.8016483 L32.2933703,23.8988779 L32.7135443,23.8988779 L32.7135443,24.4887376 C32.9963538,24.1493662 33.5538924,23.8019146 34.1195113,23.8019146 C34.9113778,23.8019146 35.3477123,24.1897676 35.3477123,25.070517 L35.3477123,27.8016483 Z M37.8041144,29.3853812 C37.1415322,29.3853812 36.7213582,29.2641771 36.2607828,28.7955215 L36.5031909,28.4561501 C36.8425623,28.8601636 37.2142547,29.0056085 37.8041144,29.0056085 C38.5070979,29.0056085 39.1292787,28.6500766 39.1292787,27.7693272 L39.1292787,27.1471464 C38.8545495,27.5511599 38.3535727,27.882451 37.7717933,27.882451 C36.7375187,27.882451 36.0345353,27.0986648 36.0345353,25.8462229 C36.0345353,24.6099416 36.7375187,23.8019146 37.7717933,23.8019146 C38.3293319,23.8019146 38.8141481,24.0847241 39.1292787,24.5291389 L39.1292787,23.8988779 L39.557533,23.8988779 L39.557533,27.7693272 C39.557533,28.9571269 38.749506,29.3853812 37.8041144,29.3853812 Z M37.8445157,27.5026783 C38.3858938,27.5026783 38.9030311,27.1713872 39.1292787,26.7916145 L39.1292787,24.8927511 C38.9030311,24.5129784 38.3858938,24.1816873 37.8445157,24.1816873 C36.9799268,24.1816873 36.4789501,24.9008313 36.4789501,25.8462229 C36.4789501,26.7916145 36.9799268,27.5026783 37.8445157,27.5026783 Z M41.084704,27.6885245 C41.084704,28.1410196 40.818055,28.5692739 40.5029245,28.7874412 L40.2685967,28.5935147 C40.5271653,28.4157488 40.7210918,28.1006183 40.7372523,27.8501299 C40.7372523,27.8501299 40.6806905,27.8582102 40.6564497,27.8582102 C40.4625232,27.8582102 40.3251586,27.7127653 40.3251586,27.5188388 C40.3251586,27.3329926 40.4786837,27.1713872 40.6726102,27.1713872 C40.8907775,27.1713872 41.084704,27.3572334 41.084704,27.6885245 Z M43.7188719,23.2847773 C43.5491862,23.2847773 43.3956611,23.1393325 43.3956611,22.9615666 C43.3956611,22.7838006 43.5491862,22.646436 43.7188719,22.646436 C43.8966378,22.646436 44.0420827,22.7838006 44.0420827,22.9615666 C44.0420827,23.1393325 43.8966378,23.2847773 43.7188719,23.2847773 Z M43.9289589,27.8016483 L43.5087849,27.8016483 L43.5087849,23.8988779 L43.9289589,23.8988779 L43.9289589,27.8016483 Z M45.6823775,27.8986115 C45.1652402,27.8986115 44.9147518,27.583481 44.9147518,27.0501832 L44.9147518,24.2705703 L44.2683302,24.2705703 L44.2683302,23.8988779 L44.9147518,23.8988779 L44.9147518,22.8322822 L45.3430061,22.8322822 L45.3430061,23.8988779 L46.1348726,23.8988779 L46.1348726,24.2705703 L45.3430061,24.2705703 L45.3430061,26.985541 C45.3430061,27.3006715 45.4722904,27.5188388 45.7470196,27.5188388 C45.9328658,27.5188388 46.0944712,27.4299558 46.1833542,27.3329926 L46.3449596,27.6562034 C46.1914345,27.8016483 46.0055883,27.8986115 45.6823775,27.8986115 Z M48.7609603,27.8016483 L48.3407862,27.8016483 L48.3407862,22.4121082 L48.7609603,22.4121082 L48.7609603,27.8016483 Z M51.3143255,27.8986115 C50.1750075,27.8986115 49.4477832,26.985541 49.4477832,25.8462229 C49.4477832,24.7069049 50.1750075,23.8019146 51.3143255,23.8019146 C52.4698041,23.8019146 53.1970284,24.7069049 53.1970284,25.8462229 C53.1970284,26.985541 52.4698041,27.8986115 51.3143255,27.8986115 Z M51.3143255,27.5188388 C52.2354763,27.5188388 52.7445333,26.7188921 52.7445333,25.8462229 C52.7445333,24.981634 52.2354763,24.1816873 51.3143255,24.1816873 C50.4093353,24.1816873 49.892198,24.981634 49.892198,25.8462229 C49.892198,26.7188921 50.4093353,27.5188388 51.3143255,27.5188388 Z M55.5241461,27.8986115 C54.3848281,27.8986115 53.6576038,26.985541 53.6576038,25.8462229 C53.6576038,24.7069049 54.3848281,23.8019146 55.5241461,23.8019146 C56.6796248,23.8019146 57.4068491,24.7069049 57.4068491,25.8462229 C57.4068491,26.985541 56.6796248,27.8986115 55.5241461,27.8986115 Z M55.5241461,27.5188388 C56.4452969,27.5188388 56.9543539,26.7188921 56.9543539,25.8462229 C56.9543539,24.981634 56.4452969,24.1816873 55.5241461,24.1816873 C54.6191559,24.1816873 54.1020186,24.981634 54.1020186,25.8462229 C54.1020186,26.7188921 54.6191559,27.5188388 55.5241461,27.5188388 Z M61.358101,27.8016483 L60.7924821,27.8016483 L59.23299,25.9431862 L58.5057657,26.6300091 L58.5057657,27.8016483 L58.0855917,27.8016483 L58.0855917,22.4121082 L58.5057657,22.4121082 L58.5057657,26.1290324 L60.8005624,23.8988779 L61.3661813,23.8988779 L59.5481206,25.6603767 L61.358101,27.8016483 Z M62.9256734,27.8986115 C62.2954123,27.8986115 61.8105961,27.7127653 61.4227432,27.2764307 L61.6732315,26.9693805 C61.9237199,27.284511 62.3842953,27.5430796 62.9337536,27.5430796 C63.5882555,27.5430796 63.9761085,27.2037083 63.9761085,26.7512132 C63.9761085,25.6846175 61.5116261,26.2906378 61.5116261,24.8846708 C61.5116261,24.2867308 62.0206831,23.8019146 62.9014326,23.8019146 C63.572095,23.8019146 64.0165098,24.0604833 64.2993193,24.3756138 L64.0649914,24.6745838 C63.8387439,24.3675335 63.4185698,24.1574465 62.9014326,24.1574465 C62.2954123,24.1574465 61.9318002,24.4644968 61.9318002,24.8685103 C61.9318002,25.8462229 64.3882022,25.248283 64.3882022,26.7512132 C64.3882022,27.3814742 63.903386,27.8986115 62.9256734,27.8986115 Z M67.1758953,27.8016483 L66.7557213,27.8016483 L66.7557213,22.4121082 L67.1758953,22.4121082 L67.1758953,27.8016483 Z M68.2909725,23.2847773 C68.1212869,23.2847773 67.9677617,23.1393325 67.9677617,22.9615666 C67.9677617,22.7838006 68.1212869,22.646436 68.2909725,22.646436 C68.4687385,22.646436 68.6141833,22.7838006 68.6141833,22.9615666 C68.6141833,23.1393325 68.4687385,23.2847773 68.2909725,23.2847773 Z M68.5010595,27.8016483 L68.0808855,27.8016483 L68.0808855,23.8988779 L68.5010595,23.8988779 L68.5010595,27.8016483 Z M72.6785591,27.8016483 L72.1129402,27.8016483 L70.5534481,25.9431862 L69.8262238,26.6300091 L69.8262238,27.8016483 L69.4060497,27.8016483 L69.4060497,22.4121082 L69.8262238,22.4121082 L69.8262238,26.1290324 L72.1210205,23.8988779 L72.6866394,23.8988779 L70.8685786,25.6603767 L72.6785591,27.8016483 Z M74.7955898,27.8986115 C73.6562717,27.8986115 72.8482447,27.0501832 72.8482447,25.8462229 C72.8482447,24.7149851 73.6401112,23.8019146 74.7228674,23.8019146 C75.910667,23.8019146 76.5651689,24.7392259 76.5651689,25.8704637 L76.5651689,25.9835875 L73.3007398,25.9835875 C73.3411412,26.8320159 73.9067601,27.5349994 74.8279109,27.5349994 C75.3208073,27.5349994 75.7733024,27.3491531 76.1045935,26.9936213 L76.3227608,27.2683504 C75.9349078,27.6723639 75.4420114,27.8986115 74.7955898,27.8986115 Z M76.1369146,25.6522965 C76.1288343,24.9897143 75.6924997,24.1655268 74.7147871,24.1655268 C73.7936363,24.1655268 73.3330609,24.9735538 73.3007398,25.6522965 L76.1369146,25.6522965 Z M78.6741193,29.3288193 L78.7468417,28.9409663 C78.8357247,28.9813677 78.9892498,29.0056085 79.0862131,29.0056085 C79.3447817,29.0056085 79.5225476,28.900565 79.684153,28.5288726 L79.9912033,27.8339693 L78.334748,23.8988779 L78.8034036,23.8988779 L80.2255311,27.3087518 L81.6314981,23.8988779 L82.108234,23.8988779 L80.0881665,28.6581569 C79.8780795,29.1510534 79.5467885,29.3853812 79.0942933,29.3853812 C78.9569287,29.3853812 78.7791628,29.3611404 78.6741193,29.3288193 Z M84.0636593,27.8986115 C82.9243413,27.8986115 82.197117,26.985541 82.197117,25.8462229 C82.197117,24.7069049 82.9243413,23.8019146 84.0636593,23.8019146 C85.2191379,23.8019146 85.9463622,24.7069049 85.9463622,25.8462229 C85.9463622,26.985541 85.2191379,27.8986115 84.0636593,27.8986115 Z M84.0636593,27.5188388 C84.9848101,27.5188388 85.4938671,26.7188921 85.4938671,25.8462229 C85.4938671,24.981634 84.9848101,24.1816873 84.0636593,24.1816873 C83.1586691,24.1816873 82.6415318,24.981634 82.6415318,25.8462229 C82.6415318,26.7188921 83.1586691,27.5188388 84.0636593,27.5188388 Z M89.6794469,27.8016483 L89.2592729,27.8016483 L89.2592729,27.2279491 C88.9441424,27.583481 88.4189248,27.8986115 87.8533059,27.8986115 C87.0614395,27.8986115 86.6251049,27.5269191 86.6251049,26.6461697 L86.6251049,23.8988779 L87.0452789,23.8988779 L87.0452789,26.5492064 C87.0452789,27.3087518 87.4250516,27.5188388 87.9906705,27.5188388 C88.4916472,27.5188388 89.0007043,27.2198688 89.2592729,26.8724172 L89.2592729,23.8988779 L89.6794469,23.8988779 L89.6794469,27.8016483 Z M90.8106847,24.351373 L90.5682766,24.351373 C90.5682766,24.351373 90.3985909,22.7272387 90.3985909,22.6221952 C90.3985909,22.4605898 90.519795,22.3313055 90.6894806,22.3313055 C90.851086,22.3313055 90.9803704,22.4605898 90.9803704,22.6221952 C90.9803704,22.7272387 90.8106847,24.351373 90.8106847,24.351373 Z M92.1116081,27.8016483 L91.6914341,27.8016483 L91.6914341,23.8988779 L92.1116081,23.8988779 L92.1116081,24.5695403 C92.4428992,24.1332057 92.887314,23.8180752 93.4286921,23.8180752 L93.4286921,24.2786506 C93.3559697,24.26249 93.2994078,24.26249 93.2186051,24.26249 C92.8226719,24.26249 92.2893741,24.6180219 92.1116081,24.9573932 L92.1116081,27.8016483 Z M95.5780439,27.8986115 C94.4387258,27.8986115 93.6306988,27.0501832 93.6306988,25.8462229 C93.6306988,24.7149851 94.4225653,23.8019146 95.5053215,23.8019146 C96.6931212,23.8019146 97.347623,24.7392259 97.347623,25.8704637 L97.347623,25.9835875 L94.083194,25.9835875 C94.1235953,26.8320159 94.6892142,27.5349994 95.610365,27.5349994 C96.1032615,27.5349994 96.5557566,27.3491531 96.8870476,26.9936213 L97.1052149,27.2683504 C96.717362,27.6723639 96.2244655,27.8986115 95.5780439,27.8986115 Z M96.9193687,25.6522965 C96.9112884,24.9897143 96.4749539,24.1655268 95.4972412,24.1655268 C94.5760904,24.1655268 94.115515,24.9735538 94.083194,25.6522965 L96.9193687,25.6522965 Z M12.6906356,38.3799758 C12.0280534,38.3799758 11.6078794,38.2587717 11.147304,37.7901161 L11.3897121,37.4507447 C11.7290834,37.8547582 12.1007758,38.0002031 12.6906356,38.0002031 C13.393619,38.0002031 14.0157998,37.6446712 14.0157998,36.7639218 L14.0157998,36.141741 C13.7410707,36.5457545 13.2400939,36.8770456 12.6583145,36.8770456 C11.6240399,36.8770456 10.9210564,36.0932594 10.9210564,34.8408175 C10.9210564,33.6045362 11.6240399,32.7965092 12.6583145,32.7965092 C13.2158531,32.7965092 13.7006693,33.0793187 14.0157998,33.5237335 L14.0157998,32.8934725 L14.4440541,32.8934725 L14.4440541,36.7639218 C14.4440541,37.9517215 13.6360271,38.3799758 12.6906356,38.3799758 Z M12.7310369,36.4972729 C13.272415,36.4972729 13.7895523,36.1659818 14.0157998,35.7862091 L14.0157998,33.8873457 C13.7895523,33.507573 13.272415,33.1762819 12.7310369,33.1762819 C11.866448,33.1762819 11.3654713,33.8954259 11.3654713,34.8408175 C11.3654713,35.7862091 11.866448,36.4972729 12.7310369,36.4972729 Z M16.9893391,36.8932061 C15.8500211,36.8932061 15.1227968,35.9801356 15.1227968,34.8408175 C15.1227968,33.7014995 15.8500211,32.7965092 16.9893391,32.7965092 C18.1448178,32.7965092 18.8720421,33.7014995 18.8720421,34.8408175 C18.8720421,35.9801356 18.1448178,36.8932061 16.9893391,36.8932061 Z M16.9893391,36.5134334 C17.9104899,36.5134334 18.4195469,35.7134867 18.4195469,34.8408175 C18.4195469,33.9762286 17.9104899,33.1762819 16.9893391,33.1762819 C16.0843489,33.1762819 15.5672116,33.9762286 15.5672116,34.8408175 C15.5672116,35.7134867 16.0843489,36.5134334 16.9893391,36.5134334 Z M19.7608717,32.2793719 C19.591186,32.2793719 19.4376609,32.1339271 19.4376609,31.9561611 C19.4376609,31.7783952 19.591186,31.6410306 19.7608717,31.6410306 C19.9386377,31.6410306 20.0840825,31.7783952 20.0840825,31.9561611 C20.0840825,32.1339271 19.9386377,32.2793719 19.7608717,32.2793719 Z M19.9709587,36.7962429 L19.5507847,36.7962429 L19.5507847,32.8934725 L19.9709587,32.8934725 L19.9709587,36.7962429 Z M23.930291,36.7962429 L23.5101169,36.7962429 L23.5101169,34.1539946 C23.5101169,33.4025295 23.1303443,33.1762819 22.5647254,33.1762819 C22.0637486,33.1762819 21.5466113,33.4914124 21.296123,33.8469443 L21.296123,36.7962429 L20.8759489,36.7962429 L20.8759489,32.8934725 L21.296123,32.8934725 L21.296123,33.4833322 C21.5789324,33.1439608 22.136471,32.7965092 22.7020899,32.7965092 C23.4939564,32.7965092 23.930291,33.1843622 23.930291,34.0651116 L23.930291,36.7962429 Z M26.386693,38.3799758 C25.7241109,38.3799758 25.3039368,38.2587717 24.8433615,37.7901161 L25.0857696,37.4507447 C25.4251409,37.8547582 25.7968333,38.0002031 26.386693,38.0002031 C27.0896765,38.0002031 27.7118573,37.6446712 27.7118573,36.7639218 L27.7118573,36.141741 C27.4371281,36.5457545 26.9361514,36.8770456 26.3543719,36.8770456 C25.3200974,36.8770456 24.6171139,36.0932594 24.6171139,34.8408175 C24.6171139,33.6045362 25.3200974,32.7965092 26.3543719,32.7965092 C26.9119106,32.7965092 27.3967268,33.0793187 27.7118573,33.5237335 L27.7118573,32.8934725 L28.1401116,32.8934725 L28.1401116,36.7639218 C28.1401116,37.9517215 27.3320846,38.3799758 26.386693,38.3799758 Z M26.4270944,36.4972729 C26.9684725,36.4972729 27.4856097,36.1659818 27.7118573,35.7862091 L27.7118573,33.8873457 C27.4856097,33.507573 26.9684725,33.1762819 26.4270944,33.1762819 C25.5625055,33.1762819 25.0615287,33.8954259 25.0615287,34.8408175 C25.0615287,35.7862091 25.5625055,36.4972729 26.4270944,36.4972729 Z M31.5742263,36.8932061 C31.057089,36.8932061 30.8066006,36.5780756 30.8066006,36.0447778 L30.8066006,33.2651649 L30.160179,33.2651649 L30.160179,32.8934725 L30.8066006,32.8934725 L30.8066006,31.8268768 L31.2348549,31.8268768 L31.2348549,32.8934725 L32.0267214,32.8934725 L32.0267214,33.2651649 L31.2348549,33.2651649 L31.2348549,35.9801356 C31.2348549,36.2952661 31.3641393,36.5134334 31.6388684,36.5134334 C31.8247146,36.5134334 31.98632,36.4245504 32.075203,36.3275872 L32.2368084,36.650798 C32.0832833,36.7962429 31.8974371,36.8932061 31.5742263,36.8932061 Z M34.1922337,36.8932061 C33.0529156,36.8932061 32.3256913,35.9801356 32.3256913,34.8408175 C32.3256913,33.7014995 33.0529156,32.7965092 34.1922337,32.7965092 C35.3477123,32.7965092 36.0749366,33.7014995 36.0749366,34.8408175 C36.0749366,35.9801356 35.3477123,36.8932061 34.1922337,36.8932061 Z M34.1922337,36.5134334 C35.1133845,36.5134334 35.6224415,35.7134867 35.6224415,34.8408175 C35.6224415,33.9762286 35.1133845,33.1762819 34.1922337,33.1762819 C33.2872435,33.1762819 32.7701062,33.9762286 32.7701062,34.8408175 C32.7701062,35.7134867 33.2872435,36.5134334 34.1922337,36.5134334 Z M39.6060145,36.8932061 C38.9757535,36.8932061 38.4909373,36.7073599 38.1030843,36.2710253 L38.3535727,35.9639751 C38.604061,36.2791056 39.0646364,36.5376742 39.6140948,36.5376742 C40.2685967,36.5376742 40.6564496,36.1983029 40.6564496,35.7458078 C40.6564496,34.6792121 38.1919673,35.2852324 38.1919673,33.8792654 C38.1919673,33.2813254 38.7010243,32.7965092 39.5817737,32.7965092 C40.2524361,32.7965092 40.696851,33.0550779 40.9796604,33.3702084 L40.7453326,33.6691784 C40.519085,33.3621281 40.098911,33.1520411 39.5817737,33.1520411 C38.9757535,33.1520411 38.6121413,33.4590914 38.6121413,33.8631049 C38.6121413,34.8408175 41.0685434,34.2428775 41.0685434,35.7458078 C41.0685434,36.3760688 40.5837272,36.8932061 39.6060145,36.8932061 Z M43.5249454,36.8932061 C42.9754871,36.8932061 42.4825906,36.6103967 42.1674601,36.1659818 L42.1674601,38.2830125 L41.747286,38.2830125 L41.747286,32.8934725 L42.1674601,32.8934725 L42.1674601,33.507573 C42.4421892,33.1116398 42.943166,32.7965092 43.5249454,32.7965092 C44.5673002,32.7965092 45.2702837,33.5883757 45.2702837,34.8408175 C45.2702837,36.0851791 44.5673002,36.8932061 43.5249454,36.8932061 Z M43.452223,36.5134334 C44.3248921,36.5134334 44.8177886,35.7862091 44.8177886,34.8408175 C44.8177886,33.8954259 44.3248921,33.1762819 43.452223,33.1762819 C42.9108449,33.1762819 42.3937076,33.4994927 42.1674601,33.8711851 L42.1674601,35.8023697 C42.3937076,36.1740621 42.9108449,36.5134334 43.452223,36.5134334 Z M47.6539633,36.8932061 C46.5146453,36.8932061 45.7066183,36.0447778 45.7066183,34.8408175 C45.7066183,33.7095797 46.4984847,32.7965092 47.5812409,32.7965092 C48.7690406,32.7965092 49.4235425,33.7338205 49.4235425,34.8650583 L49.4235425,34.9781821 L46.1591134,34.9781821 C46.1995147,35.8266105 46.7651336,36.529594 47.6862844,36.529594 C48.1791809,36.529594 48.631676,36.3437477 48.9629671,35.9882159 L49.1811344,36.262945 C48.7932814,36.6669585 48.3003849,36.8932061 47.6539633,36.8932061 Z M48.9952882,34.646891 C48.9872079,33.9843089 48.5508733,33.1601214 47.5731606,33.1601214 C46.6520099,33.1601214 46.1914345,33.9681484 46.1591134,34.646891 L48.9952882,34.646891 Z M53.1566272,36.7962429 L52.7364531,36.7962429 L52.7364531,34.1539946 C52.7364531,33.4025295 52.3566804,33.1762819 51.7910615,33.1762819 C51.2900848,33.1762819 50.7729475,33.4914124 50.5224591,33.8469443 L50.5224591,36.7962429 L50.1022851,36.7962429 L50.1022851,32.8934725 L50.5224591,32.8934725 L50.5224591,33.4833322 C50.8052686,33.1439608 51.3628072,32.7965092 51.9284261,32.7965092 C52.7202926,32.7965092 53.1566272,33.1843622 53.1566272,34.0651116 L53.1566272,36.7962429 Z M57.3664478,36.7962429 L56.9381935,36.7962429 L56.9381935,36.1740621 C56.6634643,36.5780756 56.1624875,36.8932061 55.5807081,36.8932061 C54.5464336,36.8932061 53.8434501,36.1013396 53.8434501,34.8488978 C53.8434501,33.6126165 54.5464336,32.7965092 55.5807081,32.7965092 C56.1382467,32.7965092 56.6311432,33.0793187 56.9381935,33.5237335 L56.9381935,31.4067028 L57.3664478,31.4067028 L57.3664478,36.7962429 Z M55.6534305,36.5134334 C56.2028889,36.5134334 56.7119459,36.1902226 56.9381935,35.8185302 L56.9381935,33.8873457 C56.7119459,33.507573 56.2028889,33.1762819 55.6534305,33.1762819 C54.7888417,33.1762819 54.2878649,33.9035062 54.2878649,34.8488978 C54.2878649,35.7942894 54.7888417,36.5134334 55.6534305,36.5134334 Z M19.0368796,52.7097564 L17.0588295,52.7097564 L14.9207901,49.0881794 L13.2190852,49.0881794 L13.2190852,52.7097564 L11.5173804,52.7097564 L11.5173804,43.0085842 L15.7789147,43.0085842 C17.6987869,43.0085842 18.9641572,44.2448655 18.9641572,46.0483818 C18.9641572,47.7646311 17.8296873,48.7100227 16.6515839,48.8991011 L19.0368796,52.7097564 Z M15.5607475,47.5900973 C16.5206835,47.5900973 17.2188189,46.9792289 17.2188189,46.0338373 C17.2188189,45.1029902 16.5206835,44.5066663 15.5607475,44.5066663 L13.2190852,44.5066663 L13.2190852,47.5900973 L15.5607475,47.5900973 Z M23.7234361,52.7097564 L22.0217313,52.7097564 L22.0217313,45.2048016 L20.4363823,46.862873 L19.4473573,45.8302145 L22.2398986,43.0085842 L23.7234361,43.0085842 L23.7234361,52.7097564 Z M28.7736048,52.8842902 C27.1155334,52.8842902 25.9665191,52.3025108 25.1811168,51.3862082 L26.1555974,50.2081048 C26.7955548,50.9644181 27.6827684,51.3716637 28.7590604,51.3716637 C29.9953417,51.3716637 30.7516549,50.6153504 30.7516549,49.6554143 C30.7516549,48.6227558 29.9953417,47.939165 28.8026938,47.939165 C27.9882026,47.939165 27.3046118,48.1864212 26.6791989,48.7682007 L25.4720065,48.419133 L25.4720065,43.0085842 L31.8279469,43.0085842 L31.8279469,44.5066663 L27.1737114,44.5066663 L27.1737114,47.2992076 C27.6536794,46.8483285 28.4390817,46.4701719 29.3699288,46.4701719 C31.0134557,46.4701719 32.4824488,47.6046418 32.4824488,49.5972364 C32.4824488,51.6043754 30.9407333,52.8842902 28.7736048,52.8842902 Z M35.5545674,52.1570659 C35.5545674,53.1606354 35.0018769,54.0769381 34.2019302,54.644173 L33.5037949,54.0769381 C33.9692184,53.8005928 34.4637309,53.2042689 34.5509978,52.7097564 C34.5219089,52.7243009 34.405553,52.7533898 34.3037416,52.7533898 C33.8237735,52.7533898 33.4456169,52.3606887 33.4456169,51.8225427 C33.4456169,51.2843968 33.8819515,50.8335177 34.434642,50.8335177 C35.0309659,50.8335177 35.5545674,51.3134857 35.5545674,52.1570659 Z M38.4521521,52.7097564 L36.5759135,52.7097564 L40.2411239,44.5066663 L35.2087318,44.5066663 L35.2087318,43.0085842 L42.2046295,43.0085842 L42.2046295,44.1866876 L38.4521521,52.7097564 Z M46.0185169,52.8697457 C44.8113246,52.8697457 43.8804775,52.4334111 43.2259756,51.7934538 L44.0259223,50.4989945 C44.5349793,51.0371405 45.0876698,51.3571192 46.0185169,51.3571192 C47.7783997,51.3571192 48.5783464,49.7426812 48.5783464,48.1573323 C48.5783464,48.0700654 48.5783464,47.968254 48.563802,47.880987 C48.1274674,48.5354889 47.1093534,49.2336242 45.960339,49.2336242 C44.2150007,49.2336242 42.7169186,48.1718768 42.7169186,46.1065597 C42.7169186,44.3030435 44.1277337,42.8485949 46.2948622,42.8485949 C49.1455814,42.8485949 50.2945958,45.1611682 50.2945958,47.8518981 C50.2945958,50.6589839 48.8256027,52.8697457 46.0185169,52.8697457 Z M46.4257625,47.7791756 C47.2547982,47.7791756 48.054745,47.3282966 48.5492575,46.6301612 C48.4474461,45.5829583 47.8802111,44.3612214 46.3821291,44.3612214 C45.1022143,44.3612214 44.4331679,45.2629796 44.4331679,46.0483818 C44.4331679,47.2410297 45.364015,47.7791756 46.4257625,47.7791756 Z M58.2391172,52.7097564 L51.2141305,52.7097564 L51.2141305,51.3571192 C54.9811523,48.5063999 56.4646899,47.2555741 56.4646899,45.844759 C56.4646899,44.826645 55.5774763,44.3757659 54.6902626,44.3757659 C53.5557927,44.3757659 52.697668,44.826645 52.0722551,45.5247803 L51.0832301,44.4193994 C51.9413548,43.3721964 53.3085365,42.8631394 54.6757181,42.8631394 C56.5519568,42.8631394 58.1809392,43.9103424 58.1809392,45.844759 C58.1809392,47.6482753 56.5374123,49.2481687 53.9484938,51.2116743 L58.2391172,51.2116743 L58.2391172,52.7097564 Z M11.9876521,62.2707734 C11.4705148,62.2707734 11.2200264,61.9556428 11.2200264,61.422345 L11.2200264,58.6427322 L10.5736048,58.6427322 L10.5736048,58.2710397 L11.2200264,58.2710397 L11.2200264,57.2044441 L11.6482807,57.2044441 L11.6482807,58.2710397 L12.4401472,58.2710397 L12.4401472,58.6427322 L11.6482807,58.6427322 L11.6482807,61.3577029 C11.6482807,61.6728334 11.7775651,61.8910007 12.0522942,61.8910007 C12.2381404,61.8910007 12.3997458,61.8021177 12.4886288,61.7051545 L12.6502342,62.0283653 C12.4967091,62.1738101 12.3108629,62.2707734 11.9876521,62.2707734 Z M16.0116265,62.1738101 L15.5914524,62.1738101 L15.5914524,59.5154013 C15.5914524,58.7639362 15.2116798,58.5538492 14.6460609,58.5538492 C14.1450841,58.5538492 13.6279468,58.8689797 13.3774585,59.2245116 L13.3774585,62.1738101 L12.9572844,62.1738101 L12.9572844,56.7842701 L13.3774585,56.7842701 L13.3774585,58.8608994 C13.6602679,58.5215281 14.2178065,58.1740765 14.7834254,58.1740765 C15.5752919,58.1740765 16.0116265,58.5457689 16.0116265,59.4265183 L16.0116265,62.1738101 Z M17.1267037,57.6569392 C16.957018,57.6569392 16.8034929,57.5114944 16.8034929,57.3337284 C16.8034929,57.1559625 16.957018,57.0185979 17.1267037,57.0185979 C17.3044696,57.0185979 17.4499145,57.1559625 17.4499145,57.3337284 C17.4499145,57.5114944 17.3044696,57.6569392 17.1267037,57.6569392 Z M17.3367907,62.1738101 L16.9166167,62.1738101 L16.9166167,58.2710397 L17.3367907,58.2710397 L17.3367907,62.1738101 Z M19.4053398,62.2707734 C18.7750787,62.2707734 18.2902625,62.0849272 17.9024096,61.6485926 L18.152898,61.3415423 C18.4033863,61.6566729 18.8639617,61.9152415 19.4134201,61.9152415 C20.0679219,61.9152415 20.4557749,61.5758702 20.4557749,61.123375 C20.4557749,60.0567794 17.9912926,60.6627996 17.9912926,59.2568327 C17.9912926,58.6588927 18.5003496,58.1740765 19.381099,58.1740765 C20.0517614,58.1740765 20.4961762,58.4326451 20.7789857,58.7477757 L20.5446579,59.0467457 C20.3184103,58.7396954 19.8982363,58.5296084 19.381099,58.5296084 C18.7750787,58.5296084 18.4114666,58.8366586 18.4114666,59.2406721 C18.4114666,60.2183848 20.8678687,59.6204448 20.8678687,61.123375 C20.8678687,61.7536361 20.3830525,62.2707734 19.4053398,62.2707734 Z M28.301717,62.1738101 L27.8815429,62.1738101 L27.8815429,59.4426789 C27.8815429,58.8932205 27.6472151,58.5538492 27.0977567,58.5538492 C26.6775827,58.5538492 26.2008468,58.8608994 25.9826795,59.2164313 L25.9826795,62.1738101 L25.5544252,62.1738101 L25.5544252,59.4426789 C25.5544252,58.8932205 25.3281776,58.5538492 24.7787193,58.5538492 C24.3585452,58.5538492 23.8898896,58.8689797 23.6555617,59.2245116 L23.6555617,62.1738101 L23.2353877,62.1738101 L23.2353877,58.2710397 L23.6555617,58.2710397 L23.6555617,58.8608994 C23.8171671,58.6104111 24.3504649,58.1740765 24.9160838,58.1740765 C25.5221041,58.1740765 25.8453149,58.5296084 25.9422781,58.9093811 C26.1604454,58.5457689 26.685663,58.1740765 27.2351213,58.1740765 C27.9542654,58.1740765 28.301717,58.57809 28.301717,59.3618762 L28.301717,62.1738101 Z M30.8550822,62.2707734 C29.7157642,62.2707734 28.9885399,61.3577029 28.9885399,60.2183848 C28.9885399,59.0790667 29.7157642,58.1740765 30.8550822,58.1740765 C32.0105608,58.1740765 32.7377851,59.0790667 32.7377851,60.2183848 C32.7377851,61.3577029 32.0105608,62.2707734 30.8550822,62.2707734 Z M30.8550822,61.8910007 C31.776233,61.8910007 32.28529,61.091054 32.28529,60.2183848 C32.28529,59.3537959 31.776233,58.5538492 30.8550822,58.5538492 C29.950092,58.5538492 29.4329547,59.3537959 29.4329547,60.2183848 C29.4329547,61.091054 29.950092,61.8910007 30.8550822,61.8910007 Z M36.4708698,62.1738101 L36.0506958,62.1738101 L36.0506958,59.5315619 C36.0506958,58.7800967 35.6709231,58.5538492 35.1053042,58.5538492 C34.6043275,58.5538492 34.0871902,58.8689797 33.8367018,59.2245116 L33.8367018,62.1738101 L33.4165278,62.1738101 L33.4165278,58.2710397 L33.8367018,58.2710397 L33.8367018,58.8608994 C34.1195113,58.5215281 34.6770499,58.1740765 35.2426688,58.1740765 C36.0345353,58.1740765 36.4708698,58.5619295 36.4708698,59.4426789 L36.4708698,62.1738101 Z M39.1050378,62.2707734 C37.9657197,62.2707734 37.1576928,61.422345 37.1576928,60.2183848 C37.1576928,59.087147 37.9495592,58.1740765 39.0323154,58.1740765 C40.2201151,58.1740765 40.8746169,59.1113878 40.8746169,60.2426256 L40.8746169,60.3557494 L37.6101879,60.3557494 C37.6505892,61.2041777 38.2162081,61.9071612 39.1373589,61.9071612 C39.6302554,61.9071612 40.0827505,61.721315 40.4140416,61.3657831 L40.6322088,61.6405123 C40.2443559,62.0445258 39.7514594,62.2707734 39.1050378,62.2707734 Z M40.4463626,60.0244583 C40.4382824,59.3618762 40.0019478,58.5376886 39.0242351,58.5376886 C38.1030843,58.5376886 37.6425089,59.3457156 37.6101879,60.0244583 L40.4463626,60.0244583 Z M41.2947909,63.7009812 L41.3675134,63.3131282 C41.4563963,63.3535296 41.6099215,63.3777704 41.7068847,63.3777704 C41.9654533,63.3777704 42.1432193,63.2727269 42.3048247,62.9010344 L42.6118749,62.2061312 L40.9554196,58.2710397 L41.4240753,58.2710397 L42.8462028,61.6809137 L44.2521698,58.2710397 L44.7289057,58.2710397 L42.7088382,63.0303188 C42.4987512,63.5232152 42.1674601,63.757543 41.714965,63.757543 C41.5776004,63.757543 41.3998345,63.7333022 41.2947909,63.7009812 Z M51.7910616,62.1738101 L51.3708875,62.1738101 L51.3708875,59.4426789 C51.3708875,58.8932205 51.1365597,58.5538492 50.5871013,58.5538492 C50.1669273,58.5538492 49.6901914,58.8608994 49.4720241,59.2164313 L49.4720241,62.1738101 L49.0437698,62.1738101 L49.0437698,59.4426789 C49.0437698,58.8932205 48.8175222,58.5538492 48.2680639,58.5538492 C47.8478898,58.5538492 47.3792342,58.8689797 47.1449063,59.2245116 L47.1449063,62.1738101 L46.7247323,62.1738101 L46.7247323,58.2710397 L47.1449063,58.2710397 L47.1449063,58.8608994 C47.3065117,58.6104111 47.8398095,58.1740765 48.4054284,58.1740765 C49.0114487,58.1740765 49.3346595,58.5296084 49.4316227,58.9093811 C49.64979,58.5457689 50.1750076,58.1740765 50.7244659,58.1740765 C51.44361,58.1740765 51.7910616,58.57809 51.7910616,59.3618762 L51.7910616,62.1738101 Z M54.3444268,62.2707734 C53.2051088,62.2707734 52.4778845,61.3577029 52.4778845,60.2183848 C52.4778845,59.0790667 53.2051088,58.1740765 54.3444268,58.1740765 C55.4999054,58.1740765 56.2271297,59.0790667 56.2271297,60.2183848 C56.2271297,61.3577029 55.4999054,62.2707734 54.3444268,62.2707734 Z M54.3444268,61.8910007 C55.2655776,61.8910007 55.7746346,61.091054 55.7746346,60.2183848 C55.7746346,59.3537959 55.2655776,58.5538492 54.3444268,58.5538492 C53.4394366,58.5538492 52.9222993,59.3537959 52.9222993,60.2183848 C52.9222993,61.091054 53.4394366,61.8910007 54.3444268,61.8910007 Z M59.9602144,62.1738101 L59.5400404,62.1738101 L59.5400404,59.5315619 C59.5400404,58.7800967 59.1602677,58.5538492 58.5946488,58.5538492 C58.0936721,58.5538492 57.5765348,58.8689797 57.3260464,59.2245116 L57.3260464,62.1738101 L56.9058724,62.1738101 L56.9058724,58.2710397 L57.3260464,58.2710397 L57.3260464,58.8608994 C57.6088559,58.5215281 58.1663945,58.1740765 58.7320134,58.1740765 C59.5238799,58.1740765 59.9602144,58.5619295 59.9602144,59.4426789 L59.9602144,62.1738101 Z M61.713633,62.2707734 C61.1964957,62.2707734 60.9460073,61.9556428 60.9460073,61.422345 L60.9460073,58.6427322 L60.2995857,58.6427322 L60.2995857,58.2710397 L60.9460073,58.2710397 L60.9460073,57.2044441 L61.3742616,57.2044441 L61.3742616,58.2710397 L62.1661281,58.2710397 L62.1661281,58.6427322 L61.3742616,58.6427322 L61.3742616,61.3577029 C61.3742616,61.6728334 61.503546,61.8910007 61.7782751,61.8910007 C61.9641214,61.8910007 62.1257268,61.8021177 62.2146097,61.7051545 L62.3762151,62.0283653 C62.22269,62.1738101 62.0368438,62.2707734 61.713633,62.2707734 Z M65.7376074,62.1738101 L65.3174334,62.1738101 L65.3174334,59.5154013 C65.3174334,58.7639362 64.9376607,58.5538492 64.3720418,58.5538492 C63.871065,58.5538492 63.3539278,58.8689797 63.1034394,59.2245116 L63.1034394,62.1738101 L62.6832653,62.1738101 L62.6832653,56.7842701 L63.1034394,56.7842701 L63.1034394,58.8608994 C63.3862488,58.5215281 63.9437875,58.1740765 64.5094064,58.1740765 C65.3012728,58.1740765 65.7376074,58.5457689 65.7376074,59.4265183 L65.7376074,62.1738101 Z M66.8769254,62.2465326 C66.6829989,62.2465326 66.5133133,62.0849272 66.5133133,61.8910007 C66.5133133,61.7051545 66.6829989,61.5435491 66.8769254,61.5435491 C67.0708519,61.5435491 67.2324573,61.7051545 67.2324573,61.8910007 C67.2324573,62.0849272 67.0708519,62.2465326 66.8769254,62.2465326 Z" id="At-your-current-rate" fill="#4E4B6B"></path>
                <path d="M31.6744218,103.035567 C30.8793233,103.035567 30.3040081,102.751142 29.9161551,102.35036 L30.3427933,101.762117 C30.6336831,102.078863 31.1055708,102.363289 31.7067429,102.363289 C32.3273077,102.363289 32.5664836,102.059471 32.5664836,101.768581 C32.5664836,100.863591 30.0583678,101.425977 30.0583678,99.8422444 C30.0583678,99.1247165 30.6789326,98.5752581 31.6291723,98.5752581 C32.2949866,98.5752581 32.8444449,98.7950414 33.2387621,99.1828944 L32.8121239,99.7452812 C32.4695204,99.4026777 32.0105611,99.2475366 31.558066,99.2475366 C31.1184993,99.2475366 30.8340738,99.4673199 30.8340738,99.7840665 C30.8340738,100.592093 33.3421896,100.094349 33.3421896,101.697474 C33.3421896,102.415002 32.8315165,103.035567 31.6744218,103.035567 Z M36.9880074,102.957997 L34.0338607,102.957997 L34.0338607,98.6463645 L36.9880074,98.6463645 L36.9880074,99.3121787 L34.7901739,99.3121787 L34.7901739,100.424024 L36.9427579,100.424024 L36.9427579,101.089838 L34.7901739,101.089838 L34.7901739,102.292182 L36.9880074,102.292182 L36.9880074,102.957997 Z M40.71786,102.957997 L37.7637133,102.957997 L37.7637133,98.6463645 L40.71786,98.6463645 L40.71786,99.3121787 L38.5200266,99.3121787 L38.5200266,100.424024 L40.6726105,100.424024 L40.6726105,101.089838 L38.5200266,101.089838 L38.5200266,102.292182 L40.71786,102.292182 L40.71786,102.957997 Z M45.1458479,102.957997 L44.3895347,102.957997 L44.3895347,101.167409 L42.7153027,98.6463645 L43.5815077,98.6463645 L44.7644592,100.488666 L45.9474107,98.6463645 L46.8136157,98.6463645 L45.1458479,101.167409 L45.1458479,102.957997 Z M49.037306,103.035567 C47.7444628,103.035567 46.8330083,102.091792 46.8330083,100.805413 C46.8330083,99.5190336 47.7444628,98.5752581 49.037306,98.5752581 C50.3236849,98.5752581 51.2416036,99.5190336 51.2416036,100.805413 C51.2416036,102.091792 50.3236849,103.035567 49.037306,103.035567 Z M49.037306,102.363289 C49.9035109,102.363289 50.4658977,101.69101 50.4658977,100.805413 C50.4658977,99.9133508 49.9035109,99.2475366 49.037306,99.2475366 C48.1646368,99.2475366 47.6087142,99.9133508 47.6087142,100.805413 C47.6087142,101.69101 48.1646368,102.363289 49.037306,102.363289 Z M53.8337542,103.035567 C52.5861605,103.035567 51.9655958,102.318039 51.9655958,101.251444 L51.9655958,98.6463645 L52.7348375,98.6463645 L52.7348375,101.232051 C52.7348375,101.917258 53.1162262,102.363289 53.8337542,102.363289 C54.5512822,102.363289 54.9326709,101.917258 54.9326709,101.232051 L54.9326709,98.6463645 L55.7019126,98.6463645 L55.7019126,101.251444 C55.7019126,102.318039 55.0878121,103.035567 53.8337542,103.035567 Z M59.961831,102.957997 L59.0826976,102.957997 L58.1324579,101.348407 L57.3761446,101.348407 L57.3761446,102.957997 L56.6198313,102.957997 L56.6198313,98.6463645 L58.5138466,98.6463645 C59.3671231,98.6463645 59.9295099,99.1958228 59.9295099,99.9973856 C59.9295099,100.760163 59.425301,101.180337 58.9016996,101.264372 L59.961831,102.957997 Z M58.4168834,100.682593 C58.8435216,100.682593 59.153804,100.411095 59.153804,99.9909214 C59.153804,99.5772116 58.8435216,99.3121787 58.4168834,99.3121787 L57.3761446,99.3121787 L57.3761446,100.682593 L58.4168834,100.682593 Z M63.8338963,103.035567 C63.0387978,103.035567 62.4634826,102.751142 62.0756296,102.35036 L62.5022679,101.762117 C62.7931576,102.078863 63.2650453,102.363289 63.8662174,102.363289 C64.4867822,102.363289 64.7259582,102.059471 64.7259582,101.768581 C64.7259582,100.863591 62.2178424,101.425977 62.2178424,99.8422444 C62.2178424,99.1247165 62.8384071,98.5752581 63.7886468,98.5752581 C64.4544611,98.5752581 65.0039194,98.7950414 65.3982366,99.1828944 L64.9715984,99.7452812 C64.6289949,99.4026777 64.1700356,99.2475366 63.7175405,99.2475366 C63.2779738,99.2475366 62.9935483,99.4673199 62.9935483,99.7840665 C62.9935483,100.592093 65.5016641,100.094349 65.5016641,101.697474 C65.5016641,102.415002 64.990991,103.035567 63.8338963,103.035567 Z M66.9496484,102.957997 L66.1933352,102.957997 L66.1933352,98.6463645 L68.0938147,98.6463645 C68.9988049,98.6463645 69.4965495,99.260465 69.4965495,99.9973856 C69.4965495,100.727842 68.9923407,101.341943 68.0938147,101.341943 L66.9496484,101.341943 L66.9496484,102.957997 Z M67.9903872,100.676128 C68.4170255,100.676128 68.7208436,100.404631 68.7208436,99.9973856 C68.7208436,99.5836758 68.4170255,99.3121787 67.9903872,99.3121787 L66.9496484,99.3121787 L66.9496484,100.676128 L67.9903872,100.676128 Z M73.0841894,102.957997 L70.1300427,102.957997 L70.1300427,98.6463645 L73.0841894,98.6463645 L73.0841894,99.3121787 L70.886356,99.3121787 L70.886356,100.424024 L73.0389399,100.424024 L73.0389399,101.089838 L70.886356,101.089838 L70.886356,102.292182 L73.0841894,102.292182 L73.0841894,102.957997 Z M77.5962122,102.957997 L76.8657558,102.957997 L74.6162086,99.8745655 L74.6162086,102.957997 L73.8598953,102.957997 L73.8598953,98.6463645 L74.6356012,98.6463645 L76.8398989,101.632832 L76.8398989,98.6463645 L77.5962122,98.6463645 L77.5962122,102.957997 Z M80.1237206,102.957997 L78.5141308,102.957997 L78.5141308,98.6463645 L80.1172564,98.6463645 C81.4682775,98.6463645 82.3732678,99.5384263 82.3732678,100.798948 C82.3732678,102.072399 81.4682775,102.957997 80.1237206,102.957997 Z M80.1172564,102.292182 C81.0545677,102.292182 81.5975619,101.619904 81.5975619,100.798948 C81.5975619,99.9715287 81.0804246,99.3121787 80.1237206,99.3121787 L79.2704441,99.3121787 L79.2704441,102.292182 L80.1172564,102.292182 Z M83.8600375,102.957997 L83.1037242,102.957997 L83.1037242,98.6463645 L83.8600375,98.6463645 L83.8600375,102.957997 Z M88.514273,102.957997 L87.7838166,102.957997 L85.5342694,99.8745655 L85.5342694,102.957997 L84.7779561,102.957997 L84.7779561,98.6463645 L85.553662,98.6463645 L87.7579597,101.632832 L87.7579597,98.6463645 L88.514273,98.6463645 L88.514273,102.957997 Z M91.507205,103.042031 C90.2531471,103.042031 89.2447294,102.156434 89.2447294,100.805413 C89.2447294,99.4479273 90.2531471,98.5752581 91.507205,98.5752581 C92.347553,98.5752581 92.8970114,98.9760395 93.2396148,99.4673199 L92.6255143,99.8228518 C92.3928025,99.499641 91.9855569,99.2475366 91.507205,99.2475366 C90.6539285,99.2475366 90.0204353,99.8939582 90.0204353,100.805413 C90.0204353,101.703939 90.6539285,102.363289 91.507205,102.363289 C91.9467716,102.363289 92.3346246,102.162898 92.5285511,101.975436 L92.5285511,101.309621 L91.2357079,101.309621 L91.2357079,100.643807 L93.2784001,100.643807 L93.2784001,102.253397 C92.8582261,102.725285 92.2505898,103.042031 91.507205,103.042031 Z M96.4911155,102.957997 L95.7348022,102.957997 L95.7348022,98.6463645 L97.6352817,98.6463645 C98.5402719,98.6463645 99.0380166,99.260465 99.0380166,99.9973856 C99.0380166,100.727842 98.5338077,101.341943 97.6352817,101.341943 L96.4911155,101.341943 L96.4911155,102.957997 Z M97.5318543,100.676128 C97.9584925,100.676128 98.2623107,100.404631 98.2623107,99.9973856 C98.2623107,99.5836758 97.9584925,99.3121787 97.5318543,99.3121787 L96.4911155,99.3121787 L96.4911155,100.676128 L97.5318543,100.676128 Z M102.276589,102.957997 L99.619796,102.957997 L99.619796,98.6463645 L100.376109,98.6463645 L100.376109,102.292182 L102.276589,102.292182 L102.276589,102.957997 Z M106.827397,102.957997 L105.967656,102.957997 L105.65091,102.124113 L103.672859,102.124113 L103.356113,102.957997 L102.496372,102.957997 L104.189997,98.6463645 L105.133772,98.6463645 L106.827397,102.957997 Z M105.43759,101.458298 L104.661884,99.4026777 L103.886179,101.458298 L105.43759,101.458298 Z M111.029137,102.957997 L110.298681,102.957997 L108.049134,99.8745655 L108.049134,102.957997 L107.29282,102.957997 L107.29282,98.6463645 L108.068526,98.6463645 L110.272824,101.632832 L110.272824,98.6463645 L111.029137,98.6463645 L111.029137,102.957997 Z" id="SEE-YOUR-SPENDING-PL" fill="#13C6B9"></path>
                <path d="M0.384384384,88.9688414 L121.588434,88.9688414" id="Line-Copy-5" stroke="#000000" stroke-width="0.5" opacity="0.1" stroke-linecap="square"></path>
                <text id="2-minutes-ago-copy-18" opacity="0.7" font-family="Helvetica" font-size="4.84816199" font-weight="normal" fill="#B3B3B3">
                    <tspan x="10.4847219" y="77.2022812">2 minutes ago</tspan>
                </text>
            </g>
        </g>
    </g>
</svg>