<?xml version="1.0" encoding="UTF-8"?>
<svg width="50px" height="86px" viewBox="0 0 50 86" version="1.1" xmlns="http://www.w3.org/2000/svg" xmlns:xlink="http://www.w3.org/1999/xlink">
    <!-- Generator: Sketch 52.6 (67491) - http://www.bohemiancoding.com/sketch -->
    <desc>Created with Sketch.</desc>
    <defs>
        <linearGradient x1="-20.0626299%" y1="-196.167906%" x2="101.999998%" y2="100.999999%" id="linearGradient-1">
            <stop stop-color="#FFC819" offset="0%"></stop>
            <stop stop-color="#FFF9F7" offset="100%"></stop>
        </linearGradient>
        <linearGradient x1="50%" y1="91.3885582%" x2="21.6957838%" y2="14.982453%" id="linearGradient-2">
            <stop stop-color="#13C6B9" offset="0%"></stop>
            <stop stop-color="#26B1C9" offset="100%"></stop>
        </linearGradient>
        <path d="M17.3824777,44.8059543 C32.9221604,44.8059543 34.6933632,39.711849 34.6933632,28.6223479 C34.6933632,19.2167522 24.3609948,10.1200196 19.692053,7.5742691 C19.2427043,7.32926076 27.8447675,3.86356459 24.9583184,1.5520249 C24.4534776,1.14773597 23.7491265,1.14773597 23.454938,1.42391403 C22.7126585,2.12075054 21.48881,2.4627467 20.485433,2.27998807 C19.482056,2.09722944 18.5471278,0.319322626 17.3824777,0.319322626 C16.0925132,0.319322626 15.5075483,1.79666568 14.3020773,2.02693442 C13.698645,2.14220187 11.8758513,1.08666726 10.6581953,0.96761854 C9.44335103,0.848844726 8.83288709,1.6662706 8.88101166,2.02693442 C9.00016498,2.91991484 9.94036352,5.74631435 12.5209138,6.87270178 C14.0724685,7.54994168 14.584176,7.5742691 14.5746347,7.5742691 C13.8869492,7.5742691 14.4807487,7.36318303 12.5209138,8.89832499 C7.98284344,12.4530033 0.0715922109,20.5718448 0.0715922109,28.6223479 C0.0715922109,39.711849 1.84279502,44.8059543 17.3824777,44.8059543 Z" id="path-3"></path>
    </defs>
    <g id="Page-1" stroke="none" stroke-width="1" fill="none" fill-rule="evenodd">
        <g id="illustration/goals">
            <g transform="translate(0.555579, 0.421586)">
                <path d="M38.8816407,31.6360969 L38.8816407,64.7455557 L9.72041018,64.7455557 L9.72041018,31.6360969 L2.39173303,31.6360969 C1.82923133,31.6360969 1.28414952,31.4409586 0.84945158,31.083963 C-0.187721876,30.2321845 -0.338014164,28.7008863 0.513764359,27.6637129 L22.4948829,0.898266165 C22.5955546,0.775682694 22.7079866,0.663250598 22.8305701,0.562578944 C23.8677436,-0.28919958 25.3990417,-0.138907292 26.2508202,0.898266165 L48.2319388,27.6637129 C48.5889344,28.0984108 48.7840726,28.6434926 48.7840726,29.2059943 C48.7840726,30.5481029 47.6960787,31.6360969 46.3539701,31.6360969 L38.8816407,31.6360969 Z" id="Rectangle-5" fill="url(#linearGradient-1)" fill-rule="nonzero"></path>
                <g id="Group-10" transform="translate(14.063093, 14.228542)" fill="#96D187" fill-rule="nonzero">
                    <path d="M9.83291493,8.71925029 C11.1829719,7.49614596 11.8580004,6.13020596 11.8580004,4.62143031 C11.8580004,3.11265466 11.1829719,1.74671466 9.83291493,0.523610331 C8.48285796,1.74671466 7.80782948,3.11265466 7.80782948,4.62143031 C7.80782948,6.13020596 8.48285796,7.49614596 9.83291493,8.71925029 Z" id="Oval-4"></path>
                    <path d="M5.75154469,18.6857585 C7.3909194,17.2183171 8.21581871,15.5853267 8.22624261,13.7867872 C8.23666651,11.9882478 7.43064134,10.3646944 5.80816711,8.91612719 C4.1687924,10.3835686 3.34389309,12.016559 3.33346919,13.8150984 C3.32304529,15.6136379 4.12907046,17.2371913 5.75154469,18.6857585 Z" id="Oval-4-Copy" transform="translate(5.779856, 13.800943) rotate(-49.000000) translate(-5.779856, -13.800943) "></path>
                    <path d="M9.70698842,28.5598584 L9.70698842,6.98849897" id="Path-3" stroke="#96D187" stroke-width="0.810034182"></path>
                    <path d="M13.0654267,22.6984386 C14.986141,21.1656916 15.9519378,19.4607718 15.962817,17.5836792 C15.9736962,15.7065866 15.0275979,14.0127297 13.1245222,12.5021084 C11.2038078,14.0348554 10.238011,15.7397752 10.2271319,17.6168678 C10.2162527,19.4939604 11.162351,21.1878173 13.0654267,22.6984386 Z" id="Oval-4-Copy-2" transform="translate(13.094974, 17.600273) scale(-1, 1) rotate(-49.000000) translate(-13.094974, -17.600273) "></path>
                </g>
                <g id="Rectangle-4" transform="translate(6.480273, 40.662010)">
                    <mask id="mask-4" fill="white">
                        <use xlink:href="#path-3"></use>
                    </mask>
                    <use id="Mask" fill="url(#linearGradient-2)" fill-rule="nonzero" xlink:href="#path-3"></use>
                </g>
                <text id="R" font-family="Helvetica" font-size="12.9605469" font-weight="normal" fill="#FFD86F">
                    <tspan x="19.4408204" y="72.9222893">R</tspan>
                </text>
                <rect id="Rectangle" fill="#FFD86F" fill-rule="nonzero" x="17.0107178" y="47.5347118" width="12.9605469" height="2.45869199" rx="1.21505127"></rect>
            </g>
        </g>
    </g>
</svg>