<?xml version="1.0" encoding="UTF-8"?>
<svg width="170px" height="170.850356px" viewBox="0 0 170 170.850356" version="1.1" xmlns="http://www.w3.org/2000/svg" xmlns:xlink="http://www.w3.org/1999/xlink">
    <!-- Generator: Sketch 52.6 (67491) - http://www.bohemiancoding.com/sketch -->
    <desc>Created with Sketch.</desc>
    <defs>
        <rect id="path-1" x="0.384384384" y="0.0768768769" width="125.309309" height="124.540541" rx="0.808026998"></rect>
        <filter x="-18.8%" y="-14.9%" width="137.5%" height="137.7%" filterUnits="objectBoundingBox" id="filter-2">
            <feOffset dx="0" dy="5" in="SourceAlpha" result="shadowOffsetOuter1"></feOffset>
            <feGaussianBlur stdDeviation="7" in="shadowOffsetOuter1" result="shadowBlurOuter1"></feGaussianBlur>
            <feColorMatrix values="0 0 0 0 0   0 0 0 0 0   0 0 0 0 0  0 0 0 0.10377038 0" type="matrix" in="shadowBlurOuter1"></feColorMatrix>
        </filter>
        <linearGradient x1="109.692766%" y1="3.1207851%" x2="16.2006672%" y2="70.4938757%" id="linearGradient-3">
            <stop stop-color="#C9FAFE" offset="0%"></stop>
            <stop stop-color="#53D9F1" offset="100%"></stop>
        </linearGradient>
        <path d="M31.9452534,15.7847134 C31.9452534,24.502295 24.793989,31.5694269 15.9726267,31.5694269 C7.15126442,31.5694269 0,24.502295 0,15.7847134 C0,7.0671319 7.15126442,0 15.9726267,0 C24.793989,0 31.9452534,7.0671319 31.9452534,15.7847134 Z" id="path-4"></path>
        <linearGradient x1="126.189809%" y1="26.7983544%" x2="-17.5949777%" y2="72.1532116%" id="linearGradient-5">
            <stop stop-color="#F39083" offset="0%"></stop>
            <stop stop-color="#E2574C" offset="100%"></stop>
        </linearGradient>
    </defs>
    <g id="Page-1" stroke="none" stroke-width="1" fill="none" fill-rule="evenodd">
        <g id="card/nudge/hey-lookie">
            <g transform="translate(23.831832, 15.375375)">
                <g id="Mask" fill-rule="nonzero">
                    <use fill="black" fill-opacity="1" filter="url(#filter-2)" xlink:href="#path-1"></use>
                    <use fill="#FFFFFF" xlink:href="#path-1"></use>
                </g>
                <path d="M19.3299219,57.7345345 L18.9793634,57.7345345 L18.9793634,53.6323844 L19.3299219,53.6323844 L19.3299219,57.7345345 Z M22.6633033,57.7345345 L22.3434955,57.7345345 L22.3434955,55.7234354 C22.3434955,55.1514715 22.0544384,54.9792673 21.6239279,54.9792673 C21.2426186,54.9792673 20.849009,55.2191231 20.6583544,55.4897297 L20.6583544,57.7345345 L20.3385465,57.7345345 L20.3385465,54.764012 L20.6583544,54.764012 L20.6583544,55.212973 C20.8736096,54.9546667 21.29797,54.6902102 21.7284805,54.6902102 C22.3311952,54.6902102 22.6633033,54.9854174 22.6633033,55.6557838 L22.6633033,57.7345345 Z M25.8982823,57.8083363 C25.5046727,57.8083363 25.314018,57.5684805 25.314018,57.1625706 L25.314018,55.0469189 L24.822006,55.0469189 L24.822006,54.764012 L25.314018,54.764012 L25.314018,53.9521922 L25.639976,53.9521922 L25.639976,54.764012 L26.2426907,54.764012 L26.2426907,55.0469189 L25.639976,55.0469189 L25.639976,57.1133694 C25.639976,57.3532252 25.7383784,57.5192793 25.9474835,57.5192793 C26.0889369,57.5192793 26.2119399,57.4516276 26.2795916,57.3778258 L26.4025946,57.6238318 C26.2857417,57.7345345 26.1442883,57.8083363 25.8982823,57.8083363 Z M29.2685646,57.7345345 L28.9487568,57.7345345 L28.9487568,55.7111351 C28.9487568,55.1391712 28.6596997,54.9792673 28.2291892,54.9792673 C27.8478799,54.9792673 27.4542703,55.2191231 27.2636156,55.4897297 L27.2636156,57.7345345 L26.9438078,57.7345345 L26.9438078,53.6323844 L27.2636156,53.6323844 L27.2636156,55.212973 C27.4788709,54.9546667 27.9032312,54.6902102 28.3337417,54.6902102 C28.9364565,54.6902102 29.2685646,54.9731171 29.2685646,55.6434835 L29.2685646,57.7345345 Z M31.581021,57.8083363 C30.7138498,57.8083363 30.0988348,57.1625706 30.0988348,56.2461982 C30.0988348,55.3851772 30.7015495,54.6902102 31.5256697,54.6902102 C32.4297417,54.6902102 32.9279039,55.4036276 32.9279039,56.2646486 L32.9279039,56.3507508 L30.4432432,56.3507508 C30.473994,56.9965165 30.9045045,57.5315796 31.6056216,57.5315796 C31.9807808,57.5315796 32.3251892,57.3901261 32.5773453,57.1195195 L32.7433994,57.3286246 C32.4481922,57.6361321 32.073033,57.8083363 31.581021,57.8083363 Z M32.6019459,56.0985946 C32.5957958,55.5942823 32.2636877,54.966967 31.5195195,54.966967 C30.8184024,54.966967 30.4678438,55.581982 30.4432432,56.0985946 L32.6019459,56.0985946 Z M35.6647207,57.7345345 L35.3449129,57.7345345 L35.3449129,53.6323844 L35.6647207,53.6323844 L35.6647207,57.7345345 Z M38.8689489,57.7345345 L38.5491411,57.7345345 L38.5491411,57.383976 C38.2846847,57.673033 37.9525766,57.8083363 37.5405165,57.8083363 C37.0300541,57.8083363 36.5011411,57.4577778 36.5011411,56.8181622 C36.5011411,56.1723964 37.0239039,55.8341381 37.5405165,55.8341381 C37.9525766,55.8341381 38.2908348,55.9694414 38.5491411,56.2584985 L38.5491411,55.6557838 C38.5491411,55.212973 38.1924324,54.9731171 37.7557718,54.9731171 C37.3806126,54.9731171 37.0915556,55.1022703 36.8209489,55.4097778 L36.6425946,55.1883724 C36.9501021,54.8562643 37.2945105,54.6902102 37.7865225,54.6902102 C38.3892372,54.6902102 38.8689489,54.9792673 38.8689489,55.6434835 L38.8689489,57.7345345 Z M37.6512192,57.5561802 C38.0079279,57.5561802 38.340036,57.4208769 38.5491411,57.1502703 L38.5491411,56.4983544 C38.340036,56.2215976 38.0079279,56.0862943 37.6512192,56.0862943 C37.1653574,56.0862943 36.8393994,56.399952 36.8393994,56.8243123 C36.8393994,57.2425225 37.1653574,57.5561802 37.6512192,57.5561802 Z M40.7508949,57.8083363 C40.2711832,57.8083363 39.9021742,57.6668829 39.606967,57.3347748 L39.7976216,57.1010691 C39.9882763,57.3409249 40.3388348,57.5377297 40.757045,57.5377297 C41.2552072,57.5377297 41.5504144,57.2794234 41.5504144,56.935015 C41.5504144,56.1231952 39.6746186,56.5844565 39.6746186,55.5143303 C39.6746186,55.0592192 40.0620781,54.6902102 40.7324444,54.6902102 C41.2429069,54.6902102 41.5811652,54.887015 41.7964204,55.1268709 L41.6180661,55.3544264 C41.4458619,55.1207207 41.1260541,54.9608168 40.7324444,54.9608168 C40.2711832,54.9608168 39.9944264,55.1945225 39.9944264,55.50203 C39.9944264,56.2461982 41.8640721,55.7910871 41.8640721,56.935015 C41.8640721,57.4147267 41.4950631,57.8083363 40.7508949,57.8083363 Z M43.333958,57.8083363 C42.9403483,57.8083363 42.7496937,57.5684805 42.7496937,57.1625706 L42.7496937,55.0469189 L42.2576817,55.0469189 L42.2576817,54.764012 L42.7496937,54.764012 L42.7496937,53.9521922 L43.0756517,53.9521922 L43.0756517,54.764012 L43.6783664,54.764012 L43.6783664,55.0469189 L43.0756517,55.0469189 L43.0756517,57.1133694 C43.0756517,57.3532252 43.1740541,57.5192793 43.3831592,57.5192793 C43.5246126,57.5192793 43.6476156,57.4516276 43.7152673,57.3778258 L43.8382703,57.6238318 C43.7214174,57.7345345 43.579964,57.8083363 43.333958,57.8083363 Z M45.7755676,58.8969129 L45.8309189,58.6017057 C45.8985706,58.6324565 46.0154234,58.6509069 46.0892252,58.6509069 C46.28603,58.6509069 46.4213333,58.570955 46.5443363,58.288048 L46.778042,57.7591351 L45.5172613,54.764012 L45.87397,54.764012 L46.9563964,57.3593754 L48.0265225,54.764012 L48.3893814,54.764012 L46.8518438,58.3864505 C46.6919399,58.7616096 46.4397838,58.939964 46.0953754,58.939964 C45.9908228,58.939964 45.8555195,58.9215135 45.7755676,58.8969129 Z M50.2467267,57.8083363 C49.3795556,57.8083363 48.7645405,57.1625706 48.7645405,56.2461982 C48.7645405,55.3851772 49.3672553,54.6902102 50.1913754,54.6902102 C51.0954474,54.6902102 51.5936096,55.4036276 51.5936096,56.2646486 L51.5936096,56.3507508 L49.1089489,56.3507508 C49.1396997,56.9965165 49.5702102,57.5315796 50.2713273,57.5315796 C50.6464865,57.5315796 50.9908949,57.3901261 51.2430511,57.1195195 L51.4091051,57.3286246 C51.1138979,57.6361321 50.7387387,57.8083363 50.2467267,57.8083363 Z M51.2676517,56.0985946 C51.2615015,55.5942823 50.9293934,54.966967 50.1852252,54.966967 C49.4841081,54.966967 49.1335495,55.581982 49.1089489,56.0985946 L51.2676517,56.0985946 Z M54.6256336,57.7345345 L54.3058258,57.7345345 L54.3058258,57.383976 C54.0413694,57.673033 53.7092613,57.8083363 53.2972012,57.8083363 C52.7867387,57.8083363 52.2578258,57.4577778 52.2578258,56.8181622 C52.2578258,56.1723964 52.7805886,55.8341381 53.2972012,55.8341381 C53.7092613,55.8341381 54.0475195,55.9694414 54.3058258,56.2584985 L54.3058258,55.6557838 C54.3058258,55.212973 53.9491171,54.9731171 53.5124565,54.9731171 C53.1372973,54.9731171 52.8482402,55.1022703 52.5776336,55.4097778 L52.3992793,55.1883724 C52.7067868,54.8562643 53.0511952,54.6902102 53.5432072,54.6902102 C54.1459219,54.6902102 54.6256336,54.9792673 54.6256336,55.6434835 L54.6256336,57.7345345 Z M53.4079039,57.5561802 C53.7646126,57.5561802 54.0967207,57.4208769 54.3058258,57.1502703 L54.3058258,56.4983544 C54.0967207,56.2215976 53.7646126,56.0862943 53.4079039,56.0862943 C52.922042,56.0862943 52.5960841,56.399952 52.5960841,56.8243123 C52.5960841,57.2425225 52.922042,57.5561802 53.4079039,57.5561802 Z M55.9417658,57.7345345 L55.621958,57.7345345 L55.621958,54.764012 L55.9417658,54.764012 L55.9417658,55.2744745 C56.1939219,54.9423664 56.5321802,54.7025105 56.9442402,54.7025105 L56.9442402,55.0530691 C56.8888889,55.0407688 56.8458378,55.0407688 56.7843363,55.0407688 C56.482979,55.0407688 56.0770691,55.3113754 55.9417658,55.5696817 L55.9417658,57.7345345 Z M58.0512673,57.6484324 C58.0512673,57.9928408 57.8483123,58.3187988 57.6084565,58.4848529 L57.4301021,58.3372492 C57.6269069,58.2019459 57.7745105,57.9620901 57.7868108,57.7714354 C57.7868108,57.7714354 57.7437598,57.7775856 57.7253093,57.7775856 C57.5777057,57.7775856 57.4731532,57.6668829 57.4731532,57.5192793 C57.4731532,57.3778258 57.590006,57.2548228 57.7376096,57.2548228 C57.9036637,57.2548228 58.0512673,57.3962763 58.0512673,57.6484324 Z M60.3022222,58.8907628 L60.4129249,58.1957958 C60.4805766,58.2265465 60.5851291,58.244997 60.6589309,58.244997 C60.8618859,58.244997 60.9971892,58.1896456 61.070991,58.0297417 L61.1816937,57.7714354 L59.9762643,54.764012 L60.8126847,54.764012 L61.5876036,56.8304625 L62.3686727,54.764012 L63.2050931,54.764012 L61.809009,58.2203964 C61.5876036,58.7800601 61.193994,58.9276637 60.6835315,58.939964 C60.5974294,58.939964 60.3944745,58.9215135 60.3022222,58.8907628 Z M64.9332853,57.8083363 C63.9554114,57.8083363 63.364997,57.0887688 63.364997,56.2461982 C63.364997,55.4036276 63.9554114,54.6902102 64.9332853,54.6902102 C65.9173093,54.6902102 66.5077237,55.4036276 66.5077237,56.2461982 C66.5077237,57.0887688 65.9173093,57.8083363 64.9332853,57.8083363 Z M64.9332853,57.1133694 C65.4252973,57.1133694 65.6959039,56.7136096 65.6959039,56.2461982 C65.6959039,55.7849369 65.4252973,55.3851772 64.9332853,55.3851772 C64.4474234,55.3851772 64.1768168,55.7849369 64.1768168,56.2461982 C64.1768168,56.7136096 64.4474234,57.1133694 64.9332853,57.1133694 Z M69.878006,57.7345345 L69.0969369,57.7345345 L69.0969369,57.3593754 C68.893982,57.5807808 68.5372733,57.8083363 68.0514114,57.8083363 C67.3994955,57.8083363 67.091988,57.4516276 67.091988,56.8735135 L67.091988,54.764012 L67.8730571,54.764012 L67.8730571,56.566006 C67.8730571,56.9780661 68.0883123,57.1133694 68.4204204,57.1133694 C68.7217778,57.1133694 68.9616336,56.9473153 69.0969369,56.7751111 L69.0969369,54.764012 L69.878006,54.764012 L69.878006,57.7345345 Z M75.1363844,57.7345345 L74.1585105,57.7345345 L73.3712913,56.5906066 L73.0145826,56.9719159 L73.0145826,57.7345345 L72.2335135,57.7345345 L72.2335135,53.6323844 L73.0145826,53.6323844 L73.0145826,56.0862943 L74.1400601,54.764012 L75.0994835,54.764012 L73.9248048,56.1108949 L75.1363844,57.7345345 Z M76.9260781,57.8083363 C76.022006,57.8083363 75.3393393,57.1994715 75.3393393,56.2461982 C75.3393393,55.3851772 75.978955,54.6902102 76.8768769,54.6902102 C77.7686486,54.6902102 78.3652132,55.3544264 78.3652132,56.32 L78.3652132,56.5045045 L76.1573093,56.5045045 C76.2126607,56.8673634 76.5078679,57.1687207 77.0121802,57.1687207 C77.2643363,57.1687207 77.6087447,57.0641682 77.7993994,56.8796637 L78.149958,57.3962763 C77.8547508,57.6668829 77.3873393,57.8083363 76.9260781,57.8083363 Z M77.6148949,55.9632913 C77.5902943,55.6803844 77.3934895,55.3298258 76.8768769,55.3298258 C76.391015,55.3298258 76.1819099,55.6680841 76.1511592,55.9632913 L77.6148949,55.9632913 Z M80.6284685,57.8083363 C80.2779099,57.8083363 79.9581021,57.6607327 79.7120961,57.3532252 L79.7120961,58.8661622 L78.931027,58.8661622 L78.931027,54.764012 L79.7120961,54.764012 L79.7120961,55.1391712 C79.9396517,54.8501141 80.2656096,54.6902102 80.6284685,54.6902102 C81.3910871,54.6902102 81.9446006,55.256024 81.9446006,56.2461982 C81.9446006,57.2363724 81.3910871,57.8083363 80.6284685,57.8083363 Z M80.3824625,57.1133694 C80.8314234,57.1133694 81.1389309,56.7628108 81.1389309,56.2461982 C81.1389309,55.7357357 80.8314234,55.3851772 80.3824625,55.3851772 C80.1303063,55.3851772 79.8473994,55.5266306 79.7120961,55.7234354 L79.7120961,56.768961 C79.8412492,56.9596156 80.1303063,57.1133694 80.3824625,57.1133694 Z M83.5128889,57.8083363 C82.9655255,57.8083363 82.6764685,57.5254294 82.6764685,56.9903664 L82.6764685,55.4466787 L82.1844565,55.4466787 L82.1844565,54.764012 L82.6764685,54.764012 L82.6764685,53.9521922 L83.4575375,53.9521922 L83.4575375,54.764012 L84.0602523,54.764012 L84.0602523,55.4466787 L83.4575375,55.4466787 L83.4575375,56.7812613 C83.4575375,56.9719159 83.5559399,57.1133694 83.7281441,57.1133694 C83.844997,57.1133694 83.9556997,57.0703183 83.9987508,57.0211171 L84.1648048,57.6176817 C84.047952,57.7222342 83.8388468,57.8083363 83.5128889,57.8083363 Z M87.5289369,57.8083363 C86.7786186,57.8083363 86.2128048,57.5192793 85.9114474,57.1502703 L86.3727087,56.566006 C86.6494655,56.8612132 87.0984264,57.0334174 87.4981862,57.0334174 C87.9963483,57.0334174 88.2731051,56.8181622 88.2731051,56.5106547 C88.2731051,56.1846967 88.0209489,56.0370931 87.448985,56.0370931 C87.2767808,56.0370931 87.000024,56.0432432 86.9385225,56.0493934 L86.9385225,55.2621742 C87.0123243,55.2683243 87.2952312,55.2683243 87.448985,55.2683243 C87.9040961,55.2683243 88.2116036,55.133021 88.2116036,54.8316637 C88.2116036,54.5057057 87.8733453,54.3458018 87.448985,54.3458018 C87.0492252,54.3458018 86.6925165,54.4934054 86.4034595,54.7701622 L85.9667988,54.2227988 C86.2989069,53.8476396 86.8155195,53.5708829 87.5350871,53.5708829 C88.4945105,53.5708829 89.0849249,54.0013934 89.0849249,54.6840601 C89.0849249,55.2006727 88.6421141,55.5389309 88.187003,55.6188829 C88.6052132,55.6619339 89.1464264,55.9878919 89.1464264,56.6029069 C89.1464264,57.3101742 88.512961,57.8083363 87.5289369,57.8083363 Z M91.3789309,57.8083363 C90.1304505,57.8083363 89.6076877,56.8489129 89.6076877,55.6926847 C89.6076877,54.4503544 90.3088048,53.5708829 91.5203844,53.5708829 C92.0185465,53.5708829 92.4367568,53.7369369 92.731964,53.9952432 L92.3383544,54.6656096 C92.1169489,54.4565045 91.8832432,54.3458018 91.5203844,54.3458018 C90.9176697,54.3458018 90.4933093,54.8562643 90.4933093,55.5081802 C90.4933093,55.5389309 90.4933093,55.5635315 90.4994595,55.5942823 C90.6901141,55.3175255 91.1021742,55.0653694 91.5511351,55.0653694 C92.2891532,55.0653694 92.9533694,55.5266306 92.9533694,56.399952 C92.9533694,57.1994715 92.3137538,57.8083363 91.3789309,57.8083363 Z M91.3297297,57.0334174 C91.8032913,57.0334174 92.0615976,56.7136096 92.0615976,56.4307027 C92.0615976,56.0001922 91.6925886,55.8156877 91.3051291,55.8156877 C90.9976216,55.8156877 90.6962643,55.9571411 90.4994595,56.2031471 C90.5363604,56.5967568 90.7577658,57.0334174 91.3297297,57.0334174 Z M94.3371532,55.6127327 C93.7098378,55.6127327 93.2977778,55.1699219 93.2977778,54.597958 C93.2977778,54.0198438 93.7098378,53.5708829 94.3371532,53.5708829 C94.9706186,53.5708829 95.3826787,54.0198438 95.3826787,54.597958 C95.3826787,55.1699219 94.9706186,55.6127327 94.3371532,55.6127327 Z M94.3986547,57.7345345 L93.9373934,57.7345345 L96.5573574,53.6323844 L97.0247688,53.6323844 L94.3986547,57.7345345 Z M96.5942583,57.8083363 C95.9669429,57.8083363 95.5548829,57.3655255 95.5548829,56.7935616 C95.5548829,56.2154474 95.9669429,55.7603363 96.5942583,55.7603363 C97.2215736,55.7603363 97.6397838,56.2154474 97.6397838,56.7935616 C97.6397838,57.3655255 97.2215736,57.8083363 96.5942583,57.8083363 Z M94.3371532,55.133021 C94.6200601,55.133021 94.8291652,54.9239159 94.8291652,54.597958 C94.8291652,54.2596997 94.6200601,54.0505946 94.3371532,54.0505946 C94.0603964,54.0505946 93.8512913,54.2596997 93.8512913,54.597958 C93.8512913,54.9239159 94.0603964,55.133021 94.3371532,55.133021 Z M96.5942583,57.3286246 C96.8771652,57.3286246 97.0862703,57.1256697 97.0862703,56.7935616 C97.0862703,56.4553033 96.8771652,56.2461982 96.5942583,56.2461982 C96.3113514,56.2461982 96.1083964,56.4553033 96.1083964,56.7935616 C96.1083964,57.1256697 96.3113514,57.3286246 96.5942583,57.3286246 Z M101.145369,57.8083363 C100.278198,57.8083363 99.7246847,57.1133694 99.7246847,56.2461982 C99.7246847,55.379027 100.278198,54.6902102 101.145369,54.6902102 C102.024841,54.6902102 102.578354,55.379027 102.578354,56.2461982 C102.578354,57.1133694 102.024841,57.8083363 101.145369,57.8083363 Z M101.145369,57.5192793 C101.846486,57.5192793 102.233946,56.9104144 102.233946,56.2461982 C102.233946,55.5881321 101.846486,54.9792673 101.145369,54.9792673 C100.456553,54.9792673 100.062943,55.5881321 100.062943,56.2461982 C100.062943,56.9104144 100.456553,57.5192793 101.145369,57.5192793 Z M103.832985,57.7345345 L103.507027,57.7345345 L103.507027,55.0469189 L103.015015,55.0469189 L103.015015,54.764012 L103.507027,54.764012 L103.507027,54.4934054 C103.507027,53.9152913 103.814535,53.5708829 104.312697,53.5708829 C104.521802,53.5708829 104.687856,53.6139339 104.878511,53.779988 L104.724757,54.0136937 C104.626354,53.9214414 104.503351,53.8599399 104.343447,53.8599399 C104.005189,53.8599399 103.832985,54.0936456 103.832985,54.4934054 L103.832985,54.764012 L104.4357,54.764012 L104.4357,55.0469189 L103.832985,55.0469189 L103.832985,57.7345345 Z M16.8944625,66.5846006 L16.9498138,66.2893934 C17.0174655,66.3201441 17.1343183,66.3385946 17.2081201,66.3385946 C17.4049249,66.3385946 17.5402282,66.2586426 17.6632312,65.9757357 L17.8969369,65.4468228 L16.6361562,62.4516997 L16.9928649,62.4516997 L18.0752913,65.0470631 L19.1454174,62.4516997 L19.5082763,62.4516997 L17.9707387,66.0741381 C17.8108348,66.4492973 17.5586787,66.6276517 17.2142703,66.6276517 C17.1097177,66.6276517 16.9744144,66.6092012 16.8944625,66.5846006 Z M21.3041201,65.496024 C20.4369489,65.496024 19.8834354,64.8010571 19.8834354,63.9338859 C19.8834354,63.0667147 20.4369489,62.3778979 21.3041201,62.3778979 C22.1835916,62.3778979 22.7371051,63.0667147 22.7371051,63.9338859 C22.7371051,64.8010571 22.1835916,65.496024 21.3041201,65.496024 Z M21.3041201,65.206967 C22.0052372,65.206967 22.3926967,64.5981021 22.3926967,63.9338859 C22.3926967,63.2758198 22.0052372,62.666955 21.3041201,62.666955 C20.6153033,62.666955 20.2216937,63.2758198 20.2216937,63.9338859 C20.2216937,64.5981021 20.6153033,65.206967 21.3041201,65.206967 Z M25.885982,65.4222222 L25.5661742,65.4222222 L25.5661742,64.9855616 C25.3263183,65.2561682 24.9265586,65.496024 24.496048,65.496024 C23.8933333,65.496024 23.5612252,65.2131171 23.5612252,64.5427508 L23.5612252,62.4516997 L23.881033,62.4516997 L23.881033,64.4689489 C23.881033,65.0470631 24.1700901,65.206967 24.6006006,65.206967 C24.9819099,65.206967 25.3693694,64.9794114 25.5661742,64.714955 L25.5661742,62.4516997 L25.885982,62.4516997 L25.885982,65.4222222 Z M27.2021141,65.4222222 L26.8823063,65.4222222 L26.8823063,62.4516997 L27.2021141,62.4516997 L27.2021141,62.9621622 C27.4542703,62.6300541 27.7925285,62.3901982 28.2045886,62.3901982 L28.2045886,62.7407568 C28.1492372,62.7284565 28.1061862,62.7284565 28.0446847,62.7284565 C27.7433273,62.7284565 27.3374174,62.9990631 27.2021141,63.2573694 L27.2021141,65.4222222 Z M30.5846967,61.9842883 C30.4555435,61.9842883 30.3386907,61.8735856 30.3386907,61.7382823 C30.3386907,61.602979 30.4555435,61.4984264 30.5846967,61.4984264 C30.72,61.4984264 30.8307027,61.602979 30.8307027,61.7382823 C30.8307027,61.8735856 30.72,61.9842883 30.5846967,61.9842883 Z M30.7446006,65.4222222 L30.4247928,65.4222222 L30.4247928,62.4516997 L30.7446006,62.4516997 L30.7446006,65.4222222 Z M34.0656817,65.4222222 L33.7458739,65.4222222 L33.7458739,63.4111231 C33.7458739,62.8391592 33.4568168,62.666955 33.0263063,62.666955 C32.644997,62.666955 32.2513874,62.9068108 32.0607327,63.1774174 L32.0607327,65.4222222 L31.7409249,65.4222222 L31.7409249,62.4516997 L32.0607327,62.4516997 L32.0607327,62.9006607 C32.275988,62.6423544 32.7003483,62.3778979 33.1308589,62.3778979 C33.7335736,62.3778979 34.0656817,62.6731051 34.0656817,63.3434715 L34.0656817,65.4222222 Z M36.3350871,65.496024 C35.4617658,65.496024 34.895952,64.8010571 34.895952,63.9338859 C34.895952,63.0667147 35.4617658,62.3778979 36.3350871,62.3778979 C36.8516997,62.3778979 37.1469069,62.5808529 37.3867628,62.8822102 L37.1653574,63.079015 C36.9501021,62.7838078 36.6794955,62.666955 36.3535375,62.666955 C35.6585706,62.666955 35.2342102,63.2204685 35.2342102,63.9338859 C35.2342102,64.6473033 35.6585706,65.206967 36.3535375,65.206967 C36.6794955,65.206967 36.9501021,65.083964 37.1653574,64.7887568 L37.3867628,64.9855616 C37.1469069,65.2930691 36.8516997,65.496024 36.3350871,65.496024 Z M39.3548108,65.496024 C38.4876396,65.496024 37.9341261,64.8010571 37.9341261,63.9338859 C37.9341261,63.0667147 38.4876396,62.3778979 39.3548108,62.3778979 C40.2342823,62.3778979 40.7877958,63.0667147 40.7877958,63.9338859 C40.7877958,64.8010571 40.2342823,65.496024 39.3548108,65.496024 Z M39.3548108,65.206967 C40.0559279,65.206967 40.4433874,64.5981021 40.4433874,63.9338859 C40.4433874,63.2758198 40.0559279,62.666955 39.3548108,62.666955 C38.665994,62.666955 38.2723844,63.2758198 38.2723844,63.9338859 C38.2723844,64.5981021 38.665994,65.206967 39.3548108,65.206967 Z M45.4680601,65.4222222 L45.1482523,65.4222222 L45.1482523,63.3434715 C45.1482523,62.9252613 44.9698979,62.666955 44.5516877,62.666955 C44.2318799,62.666955 43.869021,62.9006607 43.702967,63.1712673 L43.702967,65.4222222 L43.377009,65.4222222 L43.377009,63.3434715 C43.377009,62.9252613 43.2048048,62.666955 42.7865946,62.666955 C42.4667868,62.666955 42.1100781,62.9068108 41.9317237,63.1774174 L41.9317237,65.4222222 L41.6119159,65.4222222 L41.6119159,62.4516997 L41.9317237,62.4516997 L41.9317237,62.9006607 C42.0547267,62.710006 42.4606366,62.3778979 42.8911471,62.3778979 C43.3524084,62.3778979 43.5984144,62.6485045 43.6722162,62.9375616 C43.8382703,62.6608048 44.23803,62.3778979 44.6562402,62.3778979 C45.2036036,62.3778979 45.4680601,62.6854054 45.4680601,63.28197 L45.4680601,65.4222222 Z M47.7805165,65.496024 C46.9133453,65.496024 46.2983303,64.8502583 46.2983303,63.9338859 C46.2983303,63.0728649 46.901045,62.3778979 47.7251652,62.3778979 C48.6292372,62.3778979 49.1273994,63.0913153 49.1273994,63.9523363 L49.1273994,64.0384384 L46.6427387,64.0384384 C46.6734895,64.6842042 47.104,65.2192673 47.8051171,65.2192673 C48.1802763,65.2192673 48.5246847,65.0778138 48.7768408,64.8072072 L48.9428949,65.0163123 C48.6476877,65.3238198 48.2725285,65.496024 47.7805165,65.496024 Z M48.8014414,63.7862823 C48.7952913,63.28197 48.4631832,62.6546547 47.719015,62.6546547 C47.0178979,62.6546547 46.6673393,63.2696697 46.6427387,63.7862823 L48.8014414,63.7862823 Z M51.9749189,65.4222222 L51.648961,65.4222222 L51.648961,62.7346066 L51.1569489,62.7346066 L51.1569489,62.4516997 L51.648961,62.4516997 L51.648961,62.1810931 C51.648961,61.602979 51.9564685,61.2585706 52.4546306,61.2585706 C52.6637357,61.2585706 52.8297898,61.3016216 53.0204444,61.4676757 L52.8666907,61.7013814 C52.7682883,61.6091291 52.6452853,61.5476276 52.4853814,61.5476276 C52.1471231,61.5476276 51.9749189,61.7813333 51.9749189,62.1810931 L51.9749189,62.4516997 L52.5776336,62.4516997 L52.5776336,62.7346066 L51.9749189,62.7346066 L51.9749189,65.4222222 Z M54.4288288,65.496024 C53.5616577,65.496024 53.0081441,64.8010571 53.0081441,63.9338859 C53.0081441,63.0667147 53.5616577,62.3778979 54.4288288,62.3778979 C55.3083003,62.3778979 55.8618138,63.0667147 55.8618138,63.9338859 C55.8618138,64.8010571 55.3083003,65.496024 54.4288288,65.496024 Z M54.4288288,65.206967 C55.1299459,65.206967 55.5174054,64.5981021 55.5174054,63.9338859 C55.5174054,63.2758198 55.1299459,62.666955 54.4288288,62.666955 C53.740012,62.666955 53.3464024,63.2758198 53.3464024,63.9338859 C53.3464024,64.5981021 53.740012,65.206967 54.4288288,65.206967 Z M57.0057417,65.4222222 L56.6859339,65.4222222 L56.6859339,62.4516997 L57.0057417,62.4516997 L57.0057417,62.9621622 C57.2578979,62.6300541 57.5961562,62.3901982 58.0082162,62.3901982 L58.0082162,62.7407568 C57.9528649,62.7284565 57.9098138,62.7284565 57.8483123,62.7284565 C57.546955,62.7284565 57.141045,62.9990631 57.0057417,63.2573694 L57.0057417,65.4222222 Z M60.4928769,62.1318919 C60.2407207,62.1318919 60.0316156,61.9227868 60.0316156,61.6644805 C60.0316156,61.4061742 60.2407207,61.2032192 60.4928769,61.2032192 C60.7511832,61.2032192 60.9602883,61.4061742 60.9602883,61.6644805 C60.9602883,61.9227868 60.7511832,62.1318919 60.4928769,62.1318919 Z M60.8864865,65.4222222 L60.1054174,65.4222222 L60.1054174,62.4516997 L60.8864865,62.4516997 L60.8864865,65.4222222 Z M64.4535736,65.4222222 L63.6663544,65.4222222 L63.6663544,63.6263784 C63.6663544,63.2143183 63.4510991,63.0728649 63.118991,63.0728649 C62.8114835,63.0728649 62.5777778,63.2450691 62.4424745,63.4172733 L62.4424745,65.4222222 L61.6614054,65.4222222 L61.6614054,62.4516997 L62.4424745,62.4516997 L62.4424745,62.833009 C62.6331291,62.6116036 63.0021381,62.3778979 63.4818498,62.3778979 C64.1399159,62.3778979 64.4535736,62.7469069 64.4535736,63.325021 L64.4535736,65.4222222 Z M66.8336817,65.4222222 L65.9911111,65.4222222 L64.797982,62.4516997 L65.6344024,62.4516997 L66.4093213,64.5181502 L67.1903904,62.4516997 L68.0268108,62.4516997 L66.8336817,65.4222222 Z M69.7734535,65.496024 C68.8693814,65.496024 68.1867147,64.8871592 68.1867147,63.9338859 C68.1867147,63.0728649 68.8263303,62.3778979 69.7242523,62.3778979 C70.616024,62.3778979 71.2125886,63.0421141 71.2125886,64.0076877 L71.2125886,64.1921922 L69.0046847,64.1921922 C69.060036,64.5550511 69.3552432,64.8564084 69.8595556,64.8564084 C70.1117117,64.8564084 70.4561201,64.7518559 70.6467748,64.5673514 L70.9973333,65.083964 C70.7021261,65.3545706 70.2347147,65.496024 69.7734535,65.496024 Z M70.4622703,63.650979 C70.4376697,63.3680721 70.2408649,63.0175135 69.7242523,63.0175135 C69.2383904,63.0175135 69.0292853,63.3557718 68.9985345,63.650979 L70.4622703,63.650979 Z M72.8485285,65.496024 C72.3319159,65.496024 71.8337538,65.3238198 71.5200961,65.0347628 L71.8583544,64.4689489 C72.0797598,64.6780541 72.5164204,64.881009 72.8854294,64.881009 C73.2236877,64.881009 73.3835916,64.7518559 73.3835916,64.5673514 C73.3835916,64.0814895 71.6246486,64.4812492 71.6246486,63.3127207 C71.6246486,62.8145586 72.0551592,62.3778979 72.8423784,62.3778979 C73.3405405,62.3778979 73.7403003,62.5501021 74.0355075,62.7838078 L73.7218498,63.3373213 C73.5434955,63.1528168 73.2052372,62.9929129 72.8423784,62.9929129 C72.5594715,62.9929129 72.374967,63.1159159 72.374967,63.28197 C72.374967,63.7186306 74.1400601,63.3496216 74.1400601,64.5489009 C74.1400601,65.0962643 73.6726486,65.496024 72.8485285,65.496024 Z M75.7083483,65.496024 C75.160985,65.496024 74.8719279,65.2131171 74.8719279,64.6780541 L74.8719279,63.1343664 L74.3799159,63.1343664 L74.3799159,62.4516997 L74.8719279,62.4516997 L74.8719279,61.6398799 L75.652997,61.6398799 L75.652997,62.4516997 L76.2557117,62.4516997 L76.2557117,63.1343664 L75.652997,63.1343664 L75.652997,64.4689489 C75.652997,64.6596036 75.7513994,64.8010571 75.9236036,64.8010571 C76.0404565,64.8010571 76.1511592,64.758006 76.1942102,64.7088048 L76.3602643,65.3053694 C76.2434114,65.4099219 76.0343063,65.496024 75.7083483,65.496024 Z M77.1782342,62.1318919 C76.9260781,62.1318919 76.716973,61.9227868 76.716973,61.6644805 C76.716973,61.4061742 76.9260781,61.2032192 77.1782342,61.2032192 C77.4365405,61.2032192 77.6456456,61.4061742 77.6456456,61.6644805 C77.6456456,61.9227868 77.4365405,62.1318919 77.1782342,62.1318919 Z M77.5718438,65.4222222 L76.7907748,65.4222222 L76.7907748,62.4516997 L77.5718438,62.4516997 L77.5718438,65.4222222 Z M81.1389309,65.4222222 L80.3517117,65.4222222 L80.3517117,63.6263784 C80.3517117,63.2143183 80.1364565,63.0728649 79.8043483,63.0728649 C79.4968408,63.0728649 79.2631351,63.2450691 79.1278318,63.4172733 L79.1278318,65.4222222 L78.3467628,65.4222222 L78.3467628,62.4516997 L79.1278318,62.4516997 L79.1278318,62.833009 C79.3184865,62.6116036 79.6874955,62.3778979 80.1672072,62.3778979 C80.8252733,62.3778979 81.1389309,62.7469069 81.1389309,63.325021 L81.1389309,65.4222222 Z M83.1254294,66.6276517 C82.6211171,66.6276517 82.2213574,66.5107988 81.8461982,66.1848408 L82.1967568,65.6251772 C82.4366126,65.8834835 82.7564204,65.988036 83.1254294,65.988036 C83.5005886,65.988036 83.9495495,65.8281321 83.9495495,65.2254174 L83.9495495,64.9363604 C83.7158438,65.2315676 83.396036,65.3976216 83.027027,65.3976216 C82.289009,65.3976216 81.717045,64.881009 81.717045,63.8908348 C81.717045,62.9191111 82.2767087,62.3778979 83.027027,62.3778979 C83.3837357,62.3778979 83.7096937,62.5255015 83.9495495,62.833009 L83.9495495,62.4516997 L84.7306186,62.4516997 L84.7306186,65.2254174 C84.7306186,66.3508949 83.8572973,66.6276517 83.1254294,66.6276517 Z M83.2791832,64.7088048 C83.5313393,64.7088048 83.8142462,64.5612012 83.9495495,64.3705465 L83.9495495,63.404973 C83.8142462,63.2143183 83.5313393,63.0728649 83.2791832,63.0728649 C82.8302222,63.0728649 82.5227147,63.3803724 82.5227147,63.8908348 C82.5227147,64.4012973 82.8302222,64.7088048 83.2791832,64.7088048 Z M86.4403604,65.1208649 C86.4403604,65.5821261 86.1882042,65.9941862 85.8068949,66.2647928 L85.4686366,65.988036 C85.6654414,65.8834835 85.892997,65.6251772 85.9421982,65.4099219 C85.9237477,65.4160721 85.8745465,65.4283724 85.8253453,65.4283724 C85.5916396,65.4283724 85.4071351,65.2438679 85.4071351,64.9855616 C85.4071351,64.714955 85.6285405,64.4935495 85.892997,64.4935495 C86.1820541,64.4935495 86.4403604,64.7211051 86.4403604,65.1208649 Z M89.7245405,65.496024 C89.2079279,65.496024 88.7097658,65.3238198 88.3961081,65.0347628 L88.7343664,64.4689489 C88.9557718,64.6780541 89.3924324,64.881009 89.7614414,64.881009 C90.0996997,64.881009 90.2596036,64.7518559 90.2596036,64.5673514 C90.2596036,64.0814895 88.5006607,64.4812492 88.5006607,63.3127207 C88.5006607,62.8145586 88.9311712,62.3778979 89.7183904,62.3778979 C90.2165526,62.3778979 90.6163123,62.5501021 90.9115195,62.7838078 L90.5978619,63.3373213 C90.4195075,63.1528168 90.0812492,62.9929129 89.7183904,62.9929129 C89.4354835,62.9929129 89.250979,63.1159159 89.250979,63.28197 C89.250979,63.7186306 91.0160721,63.3496216 91.0160721,64.5489009 C91.0160721,65.0962643 90.5486607,65.496024 89.7245405,65.496024 Z M94.1587988,65.4222222 L93.3715796,65.4222222 L93.3715796,65.1085646 C93.1686246,65.3545706 92.8180661,65.496024 92.4306066,65.496024 C91.957045,65.496024 91.4035315,65.1762162 91.4035315,64.512 C91.4035315,63.8108829 91.957045,63.5525766 92.4306066,63.5525766 C92.8303664,63.5525766 93.1747748,63.6817297 93.3715796,63.9154354 L93.3715796,63.5402763 C93.3715796,63.2389189 93.1132733,63.0421141 92.7196637,63.0421141 C92.406006,63.0421141 92.1107988,63.1651171 91.8647928,63.3926727 L91.5572853,62.8453093 C91.9201441,62.5193514 92.3875556,62.3778979 92.854967,62.3778979 C93.5376336,62.3778979 94.1587988,62.6485045 94.1587988,63.5033754 L94.1587988,65.4222222 Z M92.7442643,64.9671111 C92.9964204,64.9671111 93.2424264,64.881009 93.3715796,64.7088048 L93.3715796,64.3397958 C93.2424264,64.1675916 92.9964204,64.0753393 92.7442643,64.0753393 C92.4367568,64.0753393 92.1846006,64.2413934 92.1846006,64.5243003 C92.1846006,64.8072072 92.4367568,64.9671111 92.7442643,64.9671111 Z M96.5389069,65.4222222 L95.6963363,65.4222222 L94.5032072,62.4516997 L95.3396276,62.4516997 L96.1145465,64.5181502 L96.8956156,62.4516997 L97.732036,62.4516997 L96.5389069,65.4222222 Z M98.4700541,62.1318919 C98.2178979,62.1318919 98.0087928,61.9227868 98.0087928,61.6644805 C98.0087928,61.4061742 98.2178979,61.2032192 98.4700541,61.2032192 C98.7283604,61.2032192 98.9374655,61.4061742 98.9374655,61.6644805 C98.9374655,61.9227868 98.7283604,62.1318919 98.4700541,62.1318919 Z M98.8636637,65.4222222 L98.0825946,65.4222222 L98.0825946,62.4516997 L98.8636637,62.4516997 L98.8636637,65.4222222 Z M102.430751,65.4222222 L101.643532,65.4222222 L101.643532,63.6263784 C101.643532,63.2143183 101.428276,63.0728649 101.096168,63.0728649 C100.788661,63.0728649 100.554955,63.2450691 100.419652,63.4172733 L100.419652,65.4222222 L99.6385826,65.4222222 L99.6385826,62.4516997 L100.419652,62.4516997 L100.419652,62.833009 C100.610306,62.6116036 100.979315,62.3778979 101.459027,62.3778979 C102.117093,62.3778979 102.430751,62.7469069 102.430751,63.325021 L102.430751,65.4222222 Z M104.417249,66.6276517 C103.912937,66.6276517 103.513177,66.5107988 103.138018,66.1848408 L103.488577,65.6251772 C103.728432,65.8834835 104.04824,65.988036 104.417249,65.988036 C104.792408,65.988036 105.241369,65.8281321 105.241369,65.2254174 L105.241369,64.9363604 C105.007664,65.2315676 104.687856,65.3976216 104.318847,65.3976216 C103.580829,65.3976216 103.008865,64.881009 103.008865,63.8908348 C103.008865,62.9191111 103.568529,62.3778979 104.318847,62.3778979 C104.675556,62.3778979 105.001514,62.5255015 105.241369,62.833009 L105.241369,62.4516997 L106.022438,62.4516997 L106.022438,65.2254174 C106.022438,66.3508949 105.149117,66.6276517 104.417249,66.6276517 Z M104.571003,64.7088048 C104.823159,64.7088048 105.106066,64.5612012 105.241369,64.3705465 L105.241369,63.404973 C105.106066,63.2143183 104.823159,63.0728649 104.571003,63.0728649 C104.122042,63.0728649 103.814535,63.3803724 103.814535,63.8908348 C103.814535,64.4012973 104.122042,64.7088048 104.571003,64.7088048 Z M22.0821141,73.1837117 C21.1042402,73.1837117 20.5138258,72.4641441 20.5138258,71.6215736 C20.5138258,70.779003 21.1042402,70.0655856 22.0821141,70.0655856 C23.0661381,70.0655856 23.6565526,70.779003 23.6565526,71.6215736 C23.6565526,72.4641441 23.0661381,73.1837117 22.0821141,73.1837117 Z M22.0821141,72.4887447 C22.5741261,72.4887447 22.8447327,72.088985 22.8447327,71.6215736 C22.8447327,71.1603123 22.5741261,70.7605526 22.0821141,70.7605526 C21.5962523,70.7605526 21.3256456,71.1603123 21.3256456,71.6215736 C21.3256456,72.088985 21.5962523,72.4887447 22.0821141,72.4887447 Z M25.0218859,73.1099099 L24.2408168,73.1099099 L24.2408168,70.1393874 L25.0218859,70.1393874 L25.0218859,70.5391471 C25.2371411,70.2808408 25.6,70.0655856 25.969009,70.0655856 L25.969009,70.8282042 C25.9136577,70.8159039 25.846006,70.8097538 25.7537538,70.8097538 C25.4954474,70.8097538 25.151039,70.9573574 25.0218859,71.148012 L25.0218859,73.1099099 Z M28.8165285,73.1099099 L28.0354595,73.1099099 L28.0354595,70.1393874 L28.8165285,70.1393874 L28.8165285,70.5391471 C29.0317838,70.2808408 29.3946426,70.0655856 29.7636517,70.0655856 L29.7636517,70.8282042 C29.7083003,70.8159039 29.6406486,70.8097538 29.5483964,70.8097538 C29.2900901,70.8097538 28.9456817,70.9573574 28.8165285,71.148012 L28.8165285,73.1099099 Z M31.6455976,73.1837117 C30.7415255,73.1837117 30.0588589,72.5748468 30.0588589,71.6215736 C30.0588589,70.7605526 30.6984745,70.0655856 31.5963964,70.0655856 C32.4881682,70.0655856 33.0847327,70.7298018 33.0847327,71.6953754 L33.0847327,71.8798799 L30.8768288,71.8798799 C30.9321802,72.2427387 31.2273874,72.5440961 31.7316997,72.5440961 C31.9838559,72.5440961 32.3282643,72.4395435 32.5189189,72.255039 L32.8694775,72.7716517 C32.5742703,73.0422583 32.1068589,73.1837117 31.6455976,73.1837117 Z M32.3344144,71.3386667 C32.3098138,71.0557598 32.113009,70.7052012 31.5963964,70.7052012 C31.1105345,70.7052012 30.9014294,71.0434595 30.8706787,71.3386667 L32.3344144,71.3386667 Z M35.347988,73.1837117 C34.9974294,73.1837117 34.6776216,73.0361081 34.4316156,72.7286006 L34.4316156,74.2415375 L33.6505465,74.2415375 L33.6505465,70.1393874 L34.4316156,70.1393874 L34.4316156,70.5145465 C34.6591712,70.2254895 34.9851291,70.0655856 35.347988,70.0655856 C36.1106066,70.0655856 36.6641201,70.6313994 36.6641201,71.6215736 C36.6641201,72.6117477 36.1106066,73.1837117 35.347988,73.1837117 Z M35.101982,72.4887447 C35.5509429,72.4887447 35.8584505,72.1381862 35.8584505,71.6215736 C35.8584505,71.1111111 35.5509429,70.7605526 35.101982,70.7605526 C34.8498258,70.7605526 34.5669189,70.902006 34.4316156,71.0988108 L34.4316156,72.1443363 C34.5607688,72.334991 34.8498258,72.4887447 35.101982,72.4887447 Z M39.8068468,73.1099099 L39.0196276,73.1099099 L39.0196276,72.7962523 C38.8166727,73.0422583 38.4661141,73.1837117 38.0786547,73.1837117 C37.6050931,73.1837117 37.0515796,72.8639039 37.0515796,72.1996877 C37.0515796,71.4985706 37.6050931,71.2402643 38.0786547,71.2402643 C38.4784144,71.2402643 38.8228228,71.3694174 39.0196276,71.6031231 L39.0196276,71.227964 C39.0196276,70.9266066 38.7613213,70.7298018 38.3677117,70.7298018 C38.0540541,70.7298018 37.7588468,70.8528048 37.5128408,71.0803604 L37.2053333,70.532997 C37.5681922,70.207039 38.0356036,70.0655856 38.503015,70.0655856 C39.1856817,70.0655856 39.8068468,70.3361922 39.8068468,71.1910631 L39.8068468,73.1099099 Z M38.3923123,72.6547988 C38.6444685,72.6547988 38.8904745,72.5686967 39.0196276,72.3964925 L39.0196276,72.0274835 C38.8904745,71.8552793 38.6444685,71.763027 38.3923123,71.763027 C38.0848048,71.763027 37.8326486,71.9290811 37.8326486,72.211988 C37.8326486,72.4948949 38.0848048,72.6547988 38.3923123,72.6547988 Z M40.4772132,74.2661381 L40.5879159,73.5711712 C40.6555676,73.6019219 40.7601201,73.6203724 40.8339219,73.6203724 C41.0368769,73.6203724 41.1721802,73.565021 41.245982,73.4051171 L41.3566847,73.1468108 L40.1512553,70.1393874 L40.9876757,70.1393874 L41.7625946,72.2058378 L42.5436637,70.1393874 L43.3800841,70.1393874 L41.984,73.5957718 C41.7625946,74.1554354 41.368985,74.303039 40.8585225,74.3153393 C40.7724204,74.3153393 40.5694655,74.2968889 40.4772132,74.2661381 Z M44.1181021,69.8195796 C43.8659459,69.8195796 43.6568408,69.6104745 43.6568408,69.3521682 C43.6568408,69.0938619 43.8659459,68.8909069 44.1181021,68.8909069 C44.3764084,68.8909069 44.5855135,69.0938619 44.5855135,69.3521682 C44.5855135,69.6104745 44.3764084,69.8195796 44.1181021,69.8195796 Z M44.5117117,73.1099099 L43.7306426,73.1099099 L43.7306426,70.1393874 L44.5117117,70.1393874 L44.5117117,73.1099099 Z M48.0787988,73.1099099 L47.2915796,73.1099099 L47.2915796,71.3140661 C47.2915796,70.902006 47.0763243,70.7605526 46.7442162,70.7605526 C46.4367087,70.7605526 46.203003,70.9327568 46.0676997,71.104961 L46.0676997,73.1099099 L45.2866306,73.1099099 L45.2866306,70.1393874 L46.0676997,70.1393874 L46.0676997,70.5206967 C46.2583544,70.2992913 46.6273634,70.0655856 47.1070751,70.0655856 C47.7651411,70.0655856 48.0787988,70.4345946 48.0787988,71.0127087 L48.0787988,73.1099099 Z M50.0652973,74.3153393 C49.560985,74.3153393 49.1612252,74.1984865 48.7860661,73.8725285 L49.1366246,73.3128649 C49.3764805,73.5711712 49.6962883,73.6757237 50.0652973,73.6757237 C50.4404565,73.6757237 50.8894174,73.5158198 50.8894174,72.9131051 L50.8894174,72.624048 C50.6557117,72.9192553 50.3359039,73.0853093 49.9668949,73.0853093 C49.2288769,73.0853093 48.6569129,72.5686967 48.6569129,71.5785225 C48.6569129,70.6067988 49.2165766,70.0655856 49.9668949,70.0655856 C50.3236036,70.0655856 50.6495616,70.2131892 50.8894174,70.5206967 L50.8894174,70.1393874 L51.6704865,70.1393874 L51.6704865,72.9131051 C51.6704865,74.0385826 50.7971652,74.3153393 50.0652973,74.3153393 Z M50.2190511,72.3964925 C50.4712072,72.3964925 50.7541141,72.2488889 50.8894174,72.0582342 L50.8894174,71.0926607 C50.7541141,70.902006 50.4712072,70.7605526 50.2190511,70.7605526 C49.7700901,70.7605526 49.4625826,71.0680601 49.4625826,71.5785225 C49.4625826,72.088985 49.7700901,72.3964925 50.2190511,72.3964925 Z M56.8550631,73.1099099 L56.0678438,73.1099099 L56.0678438,72.7286006 C55.8341381,73.0238078 55.5143303,73.1837117 55.1514715,73.1837117 C54.4073033,73.1837117 53.8353393,72.6178979 53.8353393,71.6215736 C53.8353393,70.656 54.395003,70.0655856 55.1514715,70.0655856 C55.50203,70.0655856 55.8341381,70.2131892 56.0678438,70.5206967 L56.0678438,69.0077598 L56.8550631,69.0077598 L56.8550631,73.1099099 Z M55.3974775,72.4887447 C55.6557838,72.4887447 55.9386907,72.3472913 56.0678438,72.1504865 L56.0678438,71.0988108 C55.9386907,70.902006 55.6557838,70.7605526 55.3974775,70.7605526 C54.9485165,70.7605526 54.641009,71.1111111 54.641009,71.6215736 C54.641009,72.1381862 54.9485165,72.4887447 55.3974775,72.4887447 Z M59.0260661,73.1837117 C58.121994,73.1837117 57.4393273,72.5748468 57.4393273,71.6215736 C57.4393273,70.7605526 58.0789429,70.0655856 58.9768649,70.0655856 C59.8686366,70.0655856 60.4652012,70.7298018 60.4652012,71.6953754 L60.4652012,71.8798799 L58.2572973,71.8798799 C58.3126486,72.2427387 58.6078559,72.5440961 59.1121682,72.5440961 C59.3643243,72.5440961 59.7087327,72.4395435 59.8993874,72.255039 L60.2499459,72.7716517 C59.9547387,73.0422583 59.4873273,73.1837117 59.0260661,73.1837117 Z M59.7148829,71.3386667 C59.6902823,71.0557598 59.4934775,70.7052012 58.9768649,70.7052012 C58.491003,70.7052012 58.2818979,71.0434595 58.2511471,71.3386667 L59.7148829,71.3386667 Z M61.8120841,72.1566366 C61.9473874,72.3472913 62.2302943,72.4887447 62.4886006,72.4887447 C62.9375616,72.4887447 63.2389189,72.1381862 63.2389189,71.6215736 C63.2389189,71.1111111 62.9375616,70.7605526 62.4886006,70.7605526 C62.2302943,70.7605526 61.9473874,70.9081562 61.8120841,71.104961 L61.8120841,72.1566366 Z M61.8120841,73.1099099 L61.031015,73.1099099 L61.031015,69.0077598 L61.8120841,69.0077598 L61.8120841,70.5206967 C62.0457898,70.2131892 62.3778979,70.0655856 62.7284565,70.0655856 C63.4849249,70.0655856 64.0445886,70.656 64.0445886,71.6215736 C64.0445886,72.6178979 63.4787748,73.1837117 62.7284565,73.1837117 C62.3717477,73.1837117 62.0457898,73.0238078 61.8120841,72.7286006 L61.8120841,73.1099099 Z M65.6313273,73.1837117 C65.083964,73.1837117 64.7949069,72.9008048 64.7949069,72.3657417 L64.7949069,70.8220541 L64.3028949,70.8220541 L64.3028949,70.1393874 L64.7949069,70.1393874 L64.7949069,69.3275676 L65.575976,69.3275676 L65.575976,70.1393874 L66.1786907,70.1393874 L66.1786907,70.8220541 L65.575976,70.8220541 L65.575976,72.1566366 C65.575976,72.3472913 65.6743784,72.4887447 65.8465826,72.4887447 C65.9634354,72.4887447 66.0741381,72.4456937 66.1171892,72.3964925 L66.2832432,72.9930571 C66.1663904,73.0976096 65.9572853,73.1837117 65.6313273,73.1837117 Z M67.1135135,73.1775616 C66.8429069,73.1775616 66.6153514,72.950006 66.6153514,72.6793994 C66.6153514,72.4087928 66.8429069,72.1812372 67.1135135,72.1812372 C67.3841201,72.1812372 67.6116757,72.4087928 67.6116757,72.6793994 C67.6116757,72.950006 67.3841201,73.1775616 67.1135135,73.1775616 Z M73.2882643,73.1099099 L72.9438559,73.1099099 L70.3607928,69.5858739 L70.3607928,73.1099099 L70.0102342,73.1099099 L70.0102342,69.0077598 L70.3669429,69.0077598 L72.9377057,72.4825946 L72.9377057,69.0077598 L73.2882643,69.0077598 L73.2882643,73.1099099 Z M74.4567928,69.671976 C74.3276396,69.671976 74.2107868,69.5612733 74.2107868,69.42597 C74.2107868,69.2906667 74.3276396,69.1861141 74.4567928,69.1861141 C74.5920961,69.1861141 74.7027988,69.2906667 74.7027988,69.42597 C74.7027988,69.5612733 74.5920961,69.671976 74.4567928,69.671976 Z M74.6166967,73.1099099 L74.2968889,73.1099099 L74.2968889,70.1393874 L74.6166967,70.1393874 L74.6166967,73.1099099 Z M76.8861021,73.1837117 C76.0127808,73.1837117 75.446967,72.4887447 75.446967,71.6215736 C75.446967,70.7544024 76.0127808,70.0655856 76.8861021,70.0655856 C77.4027147,70.0655856 77.6979219,70.2685405 77.9377778,70.5698979 L77.7163724,70.7667027 C77.5011171,70.4714955 77.2305105,70.3546426 76.9045526,70.3546426 C76.2095856,70.3546426 75.7852252,70.9081562 75.7852252,71.6215736 C75.7852252,72.334991 76.2095856,72.8946547 76.9045526,72.8946547 C77.2305105,72.8946547 77.5011171,72.7716517 77.7163724,72.4764444 L77.9377778,72.6732492 C77.6979219,72.9807568 77.4027147,73.1837117 76.8861021,73.1837117 Z M79.9673273,73.1837117 C79.1001562,73.1837117 78.4851411,72.5379459 78.4851411,71.6215736 C78.4851411,70.7605526 79.0878559,70.0655856 79.911976,70.0655856 C80.816048,70.0655856 81.3142102,70.779003 81.3142102,71.640024 L81.3142102,71.7261261 L78.8295495,71.7261261 C78.8603003,72.3718919 79.2908108,72.906955 79.9919279,72.906955 C80.3670871,72.906955 80.7114955,72.7655015 80.9636517,72.4948949 L81.1297057,72.704 C80.8344985,73.0115075 80.4593393,73.1837117 79.9673273,73.1837117 Z M80.9882523,71.47397 C80.9821021,70.9696577 80.649994,70.3423423 79.9058258,70.3423423 C79.2047087,70.3423423 78.8541502,70.9573574 78.8295495,71.47397 L80.9882523,71.47397 Z M82.4581381,73.1099099 L82.1383303,73.1099099 L82.1383303,69.0077598 L82.4581381,69.0077598 L82.4581381,73.1099099 Z M83.2576577,74.2722883 L83.313009,73.9770811 C83.3806607,74.0078318 83.4975135,74.0262823 83.5713153,74.0262823 C83.7681201,74.0262823 83.9034234,73.9463303 84.0264264,73.6634234 L84.2601321,73.1345105 L82.9993514,70.1393874 L83.3560601,70.1393874 L84.4384865,72.7347508 L85.5086126,70.1393874 L85.8714715,70.1393874 L84.3339339,73.7618258 C84.17403,74.136985 83.9218739,74.3153393 83.5774655,74.3153393 C83.4729129,74.3153393 83.3376096,74.2968889 83.2576577,74.2722883 Z M90.520985,73.1099099 L90.195027,73.1099099 L90.195027,72.6363483 C89.9859219,72.9438559 89.6046126,73.1837117 89.1618018,73.1837117 C88.3745826,73.1837117 87.8395195,72.580997 87.8395195,71.6277237 C87.8395195,70.6867508 88.3745826,70.0655856 89.1618018,70.0655856 C89.5861622,70.0655856 89.9613213,70.2808408 90.195027,70.6190991 L90.195027,69.0077598 L90.520985,69.0077598 L90.520985,73.1099099 Z M89.2171532,72.8946547 C89.6353634,72.8946547 90.0228228,72.6486486 90.195027,72.3657417 L90.195027,70.8958559 C90.0228228,70.6067988 89.6353634,70.3546426 89.2171532,70.3546426 C88.5590871,70.3546426 88.1777778,70.9081562 88.1777778,71.6277237 C88.1777778,72.3472913 88.5590871,72.8946547 89.2171532,72.8946547 Z M92.7719399,73.1837117 C91.9047688,73.1837117 91.3512553,72.4887447 91.3512553,71.6215736 C91.3512553,70.7544024 91.9047688,70.0655856 92.7719399,70.0655856 C93.6514114,70.0655856 94.2049249,70.7544024 94.2049249,71.6215736 C94.2049249,72.4887447 93.6514114,73.1837117 92.7719399,73.1837117 Z M92.7719399,72.8946547 C93.4730571,72.8946547 93.8605165,72.2857898 93.8605165,71.6215736 C93.8605165,70.9635075 93.4730571,70.3546426 92.7719399,70.3546426 C92.0831231,70.3546426 91.6895135,70.9635075 91.6895135,71.6215736 C91.6895135,72.2857898 92.0831231,72.8946547 92.7719399,72.8946547 Z M97.3538018,73.1099099 L97.033994,73.1099099 L97.033994,71.0988108 C97.033994,70.5268468 96.7449369,70.3546426 96.3144264,70.3546426 C95.9331171,70.3546426 95.5395075,70.5944985 95.3488529,70.8651051 L95.3488529,73.1099099 L95.029045,73.1099099 L95.029045,70.1393874 L95.3488529,70.1393874 L95.3488529,70.5883483 C95.5641081,70.330042 95.9884685,70.0655856 96.418979,70.0655856 C97.0216937,70.0655856 97.3538018,70.3607928 97.3538018,71.0311592 L97.3538018,73.1099099 Z M99.6662583,73.1837117 C98.7990871,73.1837117 98.1840721,72.5379459 98.1840721,71.6215736 C98.1840721,70.7605526 98.7867868,70.0655856 99.6109069,70.0655856 C100.514979,70.0655856 101.013141,70.779003 101.013141,71.640024 L101.013141,71.7261261 L98.5284805,71.7261261 C98.5592312,72.3718919 98.9897417,72.906955 99.6908589,72.906955 C100.066018,72.906955 100.410426,72.7655015 100.662583,72.4948949 L100.828637,72.704 C100.533429,73.0115075 100.15827,73.1837117 99.6662583,73.1837117 Z M100.687183,71.47397 C100.681033,70.9696577 100.348925,70.3423423 99.6047568,70.3423423 C98.9036396,70.3423423 98.5530811,70.9573574 98.5284805,71.47397 L100.687183,71.47397 Z M102.015616,73.1652613 C101.868012,73.1652613 101.738859,73.0422583 101.738859,72.8946547 C101.738859,72.7532012 101.868012,72.6301982 102.015616,72.6301982 C102.163219,72.6301982 102.286222,72.7532012 102.286222,72.8946547 C102.286222,73.0422583 102.163219,73.1652613 102.015616,73.1652613 Z M18.757958,81.8738739 L18.5673033,82.0214775 C18.0383904,81.221958 17.7431832,80.2932853 17.7431832,79.3031111 C17.7431832,78.3129369 18.0383904,77.3842643 18.5673033,76.5847447 L18.757958,76.720048 C18.3704985,77.5134174 18.106042,78.232985 18.106042,79.3031111 C18.106042,80.3670871 18.3704985,81.0928048 18.757958,81.8738739 Z M21.2118679,80.8713994 C20.0064384,80.8713994 19.2192192,79.9488769 19.2192192,78.7495976 C19.2192192,77.5503183 20.0064384,76.6277958 21.2118679,76.6277958 C22.4111471,76.6277958 23.2045165,77.5503183 23.2045165,78.7495976 C23.2045165,79.9488769 22.4111471,80.8713994 21.2118679,80.8713994 Z M21.2118679,80.5515916 C22.1958919,80.5515916 22.8355075,79.7828228 22.8355075,78.7495976 C22.8355075,77.7102222 22.1958919,76.9476036 21.2118679,76.9476036 C20.2216937,76.9476036 19.5882282,77.7102222 19.5882282,78.7495976 C19.5882282,79.7828228 20.2216937,80.5515916 21.2118679,80.5515916 Z M26.3841441,80.7975976 L26.0643363,80.7975976 L26.0643363,78.7864985 C26.0643363,78.2145345 25.7752793,78.0423303 25.3447688,78.0423303 C24.9634595,78.0423303 24.5698498,78.2821862 24.3791952,78.5527928 L24.3791952,80.7975976 L24.0593874,80.7975976 L24.0593874,77.8270751 L24.3791952,77.8270751 L24.3791952,78.276036 C24.5944505,78.0177297 25.0188108,77.7532733 25.4493213,77.7532733 C26.052036,77.7532733 26.3841441,78.0484805 26.3841441,78.7188468 L26.3841441,80.7975976 Z M31.1812613,80.7975976 L30.8614535,80.7975976 L30.8614535,80.447039 C30.596997,80.7360961 30.2648889,80.8713994 29.8528288,80.8713994 C29.3423664,80.8713994 28.8134535,80.5208408 28.8134535,79.8812252 C28.8134535,79.2354595 29.3362162,78.8972012 29.8528288,78.8972012 C30.2648889,78.8972012 30.6031471,79.0325045 30.8614535,79.3215616 L30.8614535,78.7188468 C30.8614535,78.276036 30.5047447,78.0361802 30.0680841,78.0361802 C29.6929249,78.0361802 29.4038679,78.1653333 29.1332613,78.4728408 L28.9549069,78.2514354 C29.2624144,77.9193273 29.6068228,77.7532733 30.0988348,77.7532733 C30.7015495,77.7532733 31.1812613,78.0423303 31.1812613,78.7065465 L31.1812613,80.7975976 Z M29.9635315,80.6192432 C30.3202402,80.6192432 30.6523483,80.4839399 30.8614535,80.2133333 L30.8614535,79.5614174 C30.6523483,79.2846607 30.3202402,79.1493574 29.9635315,79.1493574 C29.4776697,79.1493574 29.1517117,79.463015 29.1517117,79.8873754 C29.1517117,80.3055856 29.4776697,80.6192432 29.9635315,80.6192432 Z M33.339964,80.7975976 L32.9771051,80.7975976 L31.7224745,77.8270751 L32.0791832,77.8270751 L33.1616096,80.4224384 L34.2317357,77.8270751 L34.5945946,77.8270751 L33.339964,80.7975976 Z M36.4519399,80.8713994 C35.5847688,80.8713994 34.9697538,80.2256336 34.9697538,79.3092613 C34.9697538,78.4482402 35.5724685,77.7532733 36.3965886,77.7532733 C37.3006607,77.7532733 37.7988228,78.4666907 37.7988228,79.3277117 L37.7988228,79.4138138 L35.3141622,79.4138138 C35.3449129,80.0595796 35.7754234,80.5946426 36.4765405,80.5946426 C36.8516997,80.5946426 37.1961081,80.4531892 37.4482643,80.1825826 L37.6143183,80.3916877 C37.3191111,80.6991952 36.943952,80.8713994 36.4519399,80.8713994 Z M37.4728649,79.1616577 C37.4667147,78.6573453 37.1346066,78.03003 36.3904384,78.03003 C35.6893213,78.03003 35.3387628,78.645045 35.3141622,79.1616577 L37.4728649,79.1616577 Z M38.9427508,80.7975976 L38.6229429,80.7975976 L38.6229429,77.8270751 L38.9427508,77.8270751 L38.9427508,78.3375375 C39.1949069,78.0054294 39.5331652,77.7655736 39.9452252,77.7655736 L39.9452252,78.1161321 C39.8898739,78.1038318 39.8468228,78.1038318 39.7853213,78.1038318 C39.483964,78.1038318 39.0780541,78.3744384 38.9427508,78.6327447 L38.9427508,80.7975976 Z M42.7804444,80.7975976 L42.4606366,80.7975976 L42.4606366,80.447039 C42.1961802,80.7360961 41.8640721,80.8713994 41.452012,80.8713994 C40.9415495,80.8713994 40.4126366,80.5208408 40.4126366,79.8812252 C40.4126366,79.2354595 40.9353994,78.8972012 41.452012,78.8972012 C41.8640721,78.8972012 42.2023303,79.0325045 42.4606366,79.3215616 L42.4606366,78.7188468 C42.4606366,78.276036 42.1039279,78.0361802 41.6672673,78.0361802 C41.2921081,78.0361802 41.0030511,78.1653333 40.7324444,78.4728408 L40.5540901,78.2514354 C40.8615976,77.9193273 41.206006,77.7532733 41.698018,77.7532733 C42.3007327,77.7532733 42.7804444,78.0423303 42.7804444,78.7065465 L42.7804444,80.7975976 Z M41.5627147,80.6192432 C41.9194234,80.6192432 42.2515315,80.4839399 42.4606366,80.2133333 L42.4606366,79.5614174 C42.2515315,79.2846607 41.9194234,79.1493574 41.5627147,79.1493574 C41.0768529,79.1493574 40.7508949,79.463015 40.7508949,79.8873754 C40.7508949,80.3055856 41.0768529,80.6192432 41.5627147,80.6192432 Z M44.9575976,82.003027 C44.4532853,82.003027 44.1334775,81.9107748 43.7829189,81.5540661 L43.9674234,81.2957598 C44.2257297,81.6032673 44.5086366,81.71397 44.9575976,81.71397 C45.4926607,81.71397 45.9662222,81.4433634 45.9662222,80.772997 L45.9662222,80.2994354 C45.7571171,80.6069429 45.3758078,80.8590991 44.932997,80.8590991 C44.1457778,80.8590991 43.6107147,80.2625345 43.6107147,79.3092613 C43.6107147,78.3682883 44.1457778,77.7532733 44.932997,77.7532733 C45.3573574,77.7532733 45.7263664,77.9685285 45.9662222,78.3067868 L45.9662222,77.8270751 L46.2921802,77.8270751 L46.2921802,80.772997 C46.2921802,81.6770691 45.6771652,82.003027 44.9575976,82.003027 Z M44.9883483,80.570042 C45.4004084,80.570042 45.794018,80.3178859 45.9662222,80.0288288 L45.9662222,78.5835435 C45.794018,78.2944865 45.4004084,78.0423303 44.9883483,78.0423303 C44.3302823,78.0423303 43.948973,78.5896937 43.948973,79.3092613 C43.948973,80.0288288 44.3302823,80.570042 44.9883483,80.570042 Z M48.5984865,80.8713994 C47.7313153,80.8713994 47.1163003,80.2256336 47.1163003,79.3092613 C47.1163003,78.4482402 47.719015,77.7532733 48.5431351,77.7532733 C49.4472072,77.7532733 49.9453694,78.4666907 49.9453694,79.3277117 L49.9453694,79.4138138 L47.4607087,79.4138138 C47.4914595,80.0595796 47.92197,80.5946426 48.6230871,80.5946426 C48.9982462,80.5946426 49.3426547,80.4531892 49.5948108,80.1825826 L49.7608649,80.3916877 C49.4656577,80.6991952 49.0904985,80.8713994 48.5984865,80.8713994 Z M49.6194114,79.1616577 C49.6132613,78.6573453 49.2811532,78.03003 48.536985,78.03003 C47.8358679,78.03003 47.4853093,78.645045 47.4607087,79.1616577 L49.6194114,79.1616577 Z M51.2492012,80.7114955 C51.2492012,81.0559039 51.0462462,81.3818619 50.8063904,81.5479159 L50.628036,81.4003123 C50.8248408,81.265009 50.9724444,81.0251532 50.9847447,80.8344985 C50.9847447,80.8344985 50.9416937,80.8406486 50.9232432,80.8406486 C50.7756396,80.8406486 50.6710871,80.7299459 50.6710871,80.5823423 C50.6710871,80.4408889 50.7879399,80.3178859 50.9355435,80.3178859 C51.1015976,80.3178859 51.2492012,80.4593393 51.2492012,80.7114955 Z M56.2615736,80.7975976 L53.5555075,80.7975976 L53.5555075,80.5085405 C54.9515916,79.3830631 55.8864144,78.5835435 55.8864144,77.7901742 C55.8864144,77.1997598 55.4005526,76.9537538 54.9515916,76.9537538 C54.4411291,76.9537538 54.0475195,77.1751592 53.8261141,77.4888168 L53.5862583,77.2674114 C53.8753153,76.8738018 54.3734775,76.6339459 54.9515916,76.6339459 C55.5543063,76.6339459 56.2431231,76.9783544 56.2431231,77.7901742 C56.2431231,78.6942462 55.2898498,79.5183664 54.1028709,80.4777898 L56.2615736,80.4777898 L56.2615736,80.7975976 Z M59.840961,80.7975976 L57.1348949,80.7975976 L57.1348949,80.5085405 C58.530979,79.3830631 59.4658018,78.5835435 59.4658018,77.7901742 C59.4658018,77.1997598 58.9799399,76.9537538 58.530979,76.9537538 C58.0205165,76.9537538 57.6269069,77.1751592 57.4055015,77.4888168 L57.1656456,77.2674114 C57.4547027,76.8738018 57.9528649,76.6339459 58.530979,76.6339459 C59.1336937,76.6339459 59.8225105,76.9783544 59.8225105,77.7901742 C59.8225105,78.6942462 58.8692372,79.5183664 57.6822583,80.4777898 L59.840961,80.4777898 L59.840961,80.7975976 Z M61.7536577,80.8713994 C61.2739459,80.8713994 60.9049369,80.7299459 60.6097297,80.3978378 L60.8003844,80.1641321 C60.991039,80.403988 61.3415976,80.6007928 61.7598078,80.6007928 C62.25797,80.6007928 62.5531772,80.3424865 62.5531772,79.9980781 C62.5531772,79.1862583 60.6773814,79.6475195 60.6773814,78.5773934 C60.6773814,78.1222823 61.0648408,77.7532733 61.7352072,77.7532733 C62.2456697,77.7532733 62.5839279,77.9500781 62.7991832,78.1899339 L62.6208288,78.4174895 C62.4486246,78.1837838 62.1288168,78.0238799 61.7352072,78.0238799 C61.2739459,78.0238799 60.9971892,78.2575856 60.9971892,78.5650931 C60.9971892,79.3092613 62.8668348,78.8541502 62.8668348,79.9980781 C62.8668348,80.4777898 62.4978258,80.8713994 61.7536577,80.8713994 Z M65.0070871,80.8713994 C64.1399159,80.8713994 63.5249009,80.2256336 63.5249009,79.3092613 C63.5249009,78.4482402 64.1276156,77.7532733 64.9517357,77.7532733 C65.8558078,77.7532733 66.35397,78.4666907 66.35397,79.3277117 L66.35397,79.4138138 L63.8693093,79.4138138 C63.9000601,80.0595796 64.3305706,80.5946426 65.0316877,80.5946426 C65.4068468,80.5946426 65.7512553,80.4531892 66.0034114,80.1825826 L66.1694655,80.3916877 C65.8742583,80.6991952 65.4990991,80.8713994 65.0070871,80.8713994 Z M66.028012,79.1616577 C66.0218619,78.6573453 65.6897538,78.03003 64.9455856,78.03003 C64.2444685,78.03003 63.8939099,78.645045 63.8693093,79.1616577 L66.028012,79.1616577 Z M68.3404685,80.7975976 L67.9776096,80.7975976 L66.722979,77.8270751 L67.0796877,77.8270751 L68.1621141,80.4224384 L69.2322402,77.8270751 L69.5950991,77.8270751 L68.3404685,80.7975976 Z M71.4524444,80.8713994 C70.5852733,80.8713994 69.9702583,80.2256336 69.9702583,79.3092613 C69.9702583,78.4482402 70.572973,77.7532733 71.3970931,77.7532733 C72.3011652,77.7532733 72.7993273,78.4666907 72.7993273,79.3277117 L72.7993273,79.4138138 L70.3146667,79.4138138 C70.3454174,80.0595796 70.7759279,80.5946426 71.477045,80.5946426 C71.8522042,80.5946426 72.1966126,80.4531892 72.4487688,80.1825826 L72.6148228,80.3916877 C72.3196156,80.6991952 71.9444565,80.8713994 71.4524444,80.8713994 Z M72.4733694,79.1616577 C72.4672192,78.6573453 72.1351111,78.03003 71.3909429,78.03003 C70.6898258,78.03003 70.3392673,78.645045 70.3146667,79.1616577 L72.4733694,79.1616577 Z M75.9482042,80.7975976 L75.6283964,80.7975976 L75.6283964,78.7864985 C75.6283964,78.2145345 75.3393393,78.0423303 74.9088288,78.0423303 C74.5275195,78.0423303 74.1339099,78.2821862 73.9432553,78.5527928 L73.9432553,80.7975976 L73.6234474,80.7975976 L73.6234474,77.8270751 L73.9432553,77.8270751 L73.9432553,78.276036 C74.1585105,78.0177297 74.5828709,77.7532733 75.0133814,77.7532733 C75.6160961,77.7532733 75.9482042,78.0484805 75.9482042,78.7188468 L75.9482042,80.7975976 Z M79.8104985,80.8713994 C78.9371772,80.8713994 78.3713634,80.1764324 78.3713634,79.3092613 C78.3713634,78.4420901 78.9371772,77.7532733 79.8104985,77.7532733 C80.3271111,77.7532733 80.6223183,77.9562282 80.8621742,78.2575856 L80.6407688,78.4543904 C80.4255135,78.1591832 80.1549069,78.0423303 79.8289489,78.0423303 C79.133982,78.0423303 78.7096216,78.5958438 78.7096216,79.3092613 C78.7096216,80.0226787 79.133982,80.5823423 79.8289489,80.5823423 C80.1549069,80.5823423 80.4255135,80.4593393 80.6407688,80.1641321 L80.8621742,80.3609369 C80.6223183,80.6684444 80.3271111,80.8713994 79.8104985,80.8713994 Z M83.9003483,80.7975976 L83.5805405,80.7975976 L83.5805405,80.3609369 C83.3406847,80.6315435 82.9409249,80.8713994 82.5104144,80.8713994 C81.9076997,80.8713994 81.5755916,80.5884925 81.5755916,79.9181261 L81.5755916,77.8270751 L81.8953994,77.8270751 L81.8953994,79.8443243 C81.8953994,80.4224384 82.1844565,80.5823423 82.614967,80.5823423 C82.9962763,80.5823423 83.3837357,80.3547868 83.5805405,80.0903303 L83.5805405,77.8270751 L83.9003483,77.8270751 L83.9003483,80.7975976 Z M85.7822943,80.8713994 C85.3025826,80.8713994 84.9335736,80.7299459 84.6383664,80.3978378 L84.829021,80.1641321 C85.0196757,80.403988 85.3702342,80.6007928 85.7884444,80.6007928 C86.2866066,80.6007928 86.5818138,80.3424865 86.5818138,79.9980781 C86.5818138,79.1862583 84.706018,79.6475195 84.706018,78.5773934 C84.706018,78.1222823 85.0934775,77.7532733 85.7638438,77.7532733 C86.2743063,77.7532733 86.6125646,77.9500781 86.8278198,78.1899339 L86.6494655,78.4174895 C86.4772613,78.1837838 86.1574535,78.0238799 85.7638438,78.0238799 C85.3025826,78.0238799 85.0258258,78.2575856 85.0258258,78.5650931 C85.0258258,79.3092613 86.8954715,78.8541502 86.8954715,79.9980781 C86.8954715,80.4777898 86.5264625,80.8713994 85.7822943,80.8713994 Z M88.3653574,80.8713994 C87.9717477,80.8713994 87.7810931,80.6315435 87.7810931,80.2256336 L87.7810931,78.109982 L87.2890811,78.109982 L87.2890811,77.8270751 L87.7810931,77.8270751 L87.7810931,77.0152553 L88.1070511,77.0152553 L88.1070511,77.8270751 L88.7097658,77.8270751 L88.7097658,78.109982 L88.1070511,78.109982 L88.1070511,80.1764324 C88.1070511,80.4162883 88.2054535,80.5823423 88.4145586,80.5823423 C88.556012,80.5823423 88.679015,80.5146907 88.7466667,80.4408889 L88.8696697,80.6868949 C88.7528168,80.7975976 88.6113634,80.8713994 88.3653574,80.8713994 Z M90.6655135,80.8713994 C89.7983423,80.8713994 89.2448288,80.1764324 89.2448288,79.3092613 C89.2448288,78.4420901 89.7983423,77.7532733 90.6655135,77.7532733 C91.544985,77.7532733 92.0984985,78.4420901 92.0984985,79.3092613 C92.0984985,80.1764324 91.544985,80.8713994 90.6655135,80.8713994 Z M90.6655135,80.5823423 C91.3666306,80.5823423 91.7540901,79.9734775 91.7540901,79.3092613 C91.7540901,78.6511952 91.3666306,78.0423303 90.6655135,78.0423303 C89.9766967,78.0423303 89.5830871,78.6511952 89.5830871,79.3092613 C89.5830871,79.9734775 89.9766967,80.5823423 90.6655135,80.5823423 Z M96.7787628,80.7975976 L96.458955,80.7975976 L96.458955,78.7188468 C96.458955,78.3006366 96.2806006,78.0423303 95.8623904,78.0423303 C95.5425826,78.0423303 95.1797237,78.276036 95.0136697,78.5466426 L95.0136697,80.7975976 L94.6877117,80.7975976 L94.6877117,78.7188468 C94.6877117,78.3006366 94.5155075,78.0423303 94.0972973,78.0423303 C93.7774895,78.0423303 93.4207808,78.2821862 93.2424264,78.5527928 L93.2424264,80.7975976 L92.9226186,80.7975976 L92.9226186,77.8270751 L93.2424264,77.8270751 L93.2424264,78.276036 C93.3654294,78.0853814 93.7713393,77.7532733 94.2018498,77.7532733 C94.6631111,77.7532733 94.9091171,78.0238799 94.9829189,78.3129369 C95.148973,78.0361802 95.5487327,77.7532733 95.9669429,77.7532733 C96.5143063,77.7532733 96.7787628,78.0607808 96.7787628,78.6573453 L96.7787628,80.7975976 Z M99.0912192,80.8713994 C98.224048,80.8713994 97.609033,80.2256336 97.609033,79.3092613 C97.609033,78.4482402 98.2117477,77.7532733 99.0358679,77.7532733 C99.9399399,77.7532733 100.438102,78.4666907 100.438102,79.3277117 L100.438102,79.4138138 L97.9534414,79.4138138 C97.9841922,80.0595796 98.4147027,80.5946426 99.1158198,80.5946426 C99.490979,80.5946426 99.8353874,80.4531892 100.087544,80.1825826 L100.253598,80.3916877 C99.9583904,80.6991952 99.5832312,80.8713994 99.0912192,80.8713994 Z M100.112144,79.1616577 C100.105994,78.6573453 99.7738859,78.03003 99.0297177,78.03003 C98.3286006,78.03003 97.978042,78.645045 97.9534414,79.1616577 L100.112144,79.1616577 Z M101.58203,80.7975976 L101.262222,80.7975976 L101.262222,77.8270751 L101.58203,77.8270751 L101.58203,78.3375375 C101.834186,78.0054294 102.172444,77.7655736 102.584505,77.7655736 L102.584505,78.1161321 C102.529153,78.1038318 102.486102,78.1038318 102.424601,78.1038318 C102.123243,78.1038318 101.717333,78.3744384 101.58203,78.6327447 L101.58203,80.7975976 Z M104.097441,80.8713994 C103.61773,80.8713994 103.248721,80.7299459 102.953514,80.3978378 L103.144168,80.1641321 C103.334823,80.403988 103.685381,80.6007928 104.103592,80.6007928 C104.601754,80.6007928 104.896961,80.3424865 104.896961,79.9980781 C104.896961,79.1862583 103.021165,79.6475195 103.021165,78.5773934 C103.021165,78.1222823 103.408625,77.7532733 104.078991,77.7532733 C104.589453,77.7532733 104.927712,77.9500781 105.142967,78.1899339 L104.964613,78.4174895 C104.792408,78.1837838 104.472601,78.0238799 104.078991,78.0238799 C103.61773,78.0238799 103.340973,78.2575856 103.340973,78.5650931 C103.340973,79.3092613 105.210619,78.8541502 105.210619,79.9980781 C105.210619,80.4777898 104.84161,80.8713994 104.097441,80.8713994 Z M51.3445285,88.4852853 L50.914018,88.4852853 L49.727039,87.0707508 L49.1735255,87.5935135 L49.1735255,88.4852853 L48.8537177,88.4852853 L48.8537177,84.3831351 L49.1735255,84.3831351 L49.1735255,87.2122042 L50.9201682,85.5147628 L51.3506787,85.5147628 L49.9668949,86.8554955 L51.3445285,88.4852853 Z M53.2756757,88.5590871 C52.4085045,88.5590871 51.7934895,87.9133213 51.7934895,86.9969489 C51.7934895,86.1359279 52.3962042,85.440961 53.2203243,85.440961 C54.1243964,85.440961 54.6225586,86.1543784 54.6225586,87.0153994 L54.6225586,87.1015015 L52.1378979,87.1015015 C52.1686486,87.7472673 52.5991592,88.2823303 53.3002763,88.2823303 C53.6754354,88.2823303 54.0198438,88.1408769 54.272,87.8702703 L54.4380541,88.0793754 C54.1428468,88.3868829 53.7676877,88.5590871 53.2756757,88.5590871 Z M54.2966006,86.8493453 C54.2904505,86.345033 53.9583423,85.7177177 53.2141742,85.7177177 C52.5130571,85.7177177 52.1624985,86.3327327 52.1378979,86.8493453 L54.2966006,86.8493453 Z M56.7628108,88.5590871 C55.8956396,88.5590871 55.2806246,87.9133213 55.2806246,86.9969489 C55.2806246,86.1359279 55.8833393,85.440961 56.7074595,85.440961 C57.6115315,85.440961 58.1096937,86.1543784 58.1096937,87.0153994 L58.1096937,87.1015015 L55.625033,87.1015015 C55.6557838,87.7472673 56.0862943,88.2823303 56.7874114,88.2823303 C57.1625706,88.2823303 57.506979,88.1408769 57.7591351,87.8702703 L57.9251892,88.0793754 C57.629982,88.3868829 57.2548228,88.5590871 56.7628108,88.5590871 Z M57.7837357,86.8493453 C57.7775856,86.345033 57.4454775,85.7177177 56.7013093,85.7177177 C56.0001922,85.7177177 55.6496336,86.3327327 55.625033,86.8493453 L57.7837357,86.8493453 Z M60.2868468,88.5590871 C59.8686366,88.5590871 59.4934775,88.3438318 59.2536216,88.0055736 L59.2536216,89.6169129 L58.9338138,89.6169129 L58.9338138,85.5147628 L59.2536216,85.5147628 L59.2536216,85.9821742 C59.4627267,85.6808168 59.844036,85.440961 60.2868468,85.440961 C61.0802162,85.440961 61.6152793,86.0436757 61.6152793,86.9969489 C61.6152793,87.9440721 61.0802162,88.5590871 60.2868468,88.5590871 Z M60.2314955,88.27003 C60.8957117,88.27003 61.2708709,87.7165165 61.2708709,86.9969489 C61.2708709,86.2773814 60.8957117,85.730018 60.2314955,85.730018 C59.8194354,85.730018 59.4258258,85.976024 59.2536216,86.2589309 L59.2536216,87.7288168 C59.4258258,88.0117237 59.8194354,88.27003 60.2314955,88.27003 Z M65.3791712,88.5590871 C64.5181502,88.5590871 63.7309309,88.1839279 63.7309309,87.4213093 C63.7309309,86.9231471 64.1183904,86.5418378 64.6104024,86.3696336 C64.1552913,86.2097297 63.7985826,85.9145225 63.7985826,85.4040601 C63.7985826,84.6291411 64.6165526,84.3216336 65.3791712,84.3216336 C66.1356396,84.3216336 66.9597598,84.6291411 66.9597598,85.4040601 C66.9597598,85.9145225 66.5969009,86.2097297 66.1479399,86.3696336 C66.6338018,86.5418378 67.0274114,86.9231471 67.0274114,87.4213093 C67.0274114,88.1839279 66.2401922,88.5590871 65.3791712,88.5590871 Z M65.3791712,86.0252252 C65.6313273,85.9821742 66.067988,85.853021 66.067988,85.5516637 C66.067988,85.2626066 65.7789309,85.0965526 65.3791712,85.0965526 C64.9732613,85.0965526 64.6842042,85.2626066 64.6842042,85.5516637 C64.6842042,85.853021 65.127015,85.9821742 65.3791712,86.0252252 Z M65.3791712,87.7841682 C65.7973814,87.7841682 66.1417898,87.5935135 66.1417898,87.2983063 C66.1417898,86.960048 65.6313273,86.8001441 65.3791712,86.7632432 C65.1208649,86.8001441 64.6165526,86.960048 64.6165526,87.2983063 C64.6165526,87.5935135 64.9486607,87.7841682 65.3791712,87.7841682 Z M68.4419459,86.3634835 C67.8146306,86.3634835 67.4025706,85.9206727 67.4025706,85.3487087 C67.4025706,84.7705946 67.8146306,84.3216336 68.4419459,84.3216336 C69.0754114,84.3216336 69.4874715,84.7705946 69.4874715,85.3487087 C69.4874715,85.9206727 69.0754114,86.3634835 68.4419459,86.3634835 Z M68.5034474,88.4852853 L68.0421862,88.4852853 L70.6621502,84.3831351 L71.1295616,84.3831351 L68.5034474,88.4852853 Z M70.6990511,88.5590871 C70.0717357,88.5590871 69.6596757,88.1162763 69.6596757,87.5443123 C69.6596757,86.9661982 70.0717357,86.5110871 70.6990511,86.5110871 C71.3263664,86.5110871 71.7445766,86.9661982 71.7445766,87.5443123 C71.7445766,88.1162763 71.3263664,88.5590871 70.6990511,88.5590871 Z M68.4419459,85.8837718 C68.7248529,85.8837718 68.933958,85.6746667 68.933958,85.3487087 C68.933958,85.0104505 68.7248529,84.8013453 68.4419459,84.8013453 C68.1651892,84.8013453 67.9560841,85.0104505 67.9560841,85.3487087 C67.9560841,85.6746667 68.1651892,85.8837718 68.4419459,85.8837718 Z M70.6990511,88.0793754 C70.981958,88.0793754 71.1910631,87.8764204 71.1910631,87.5443123 C71.1910631,87.2060541 70.981958,86.9969489 70.6990511,86.9969489 C70.4161441,86.9969489 70.2131892,87.2060541 70.2131892,87.5443123 C70.2131892,87.8764204 70.4161441,88.0793754 70.6990511,88.0793754 Z M72.009033,89.5615616 C72.3964925,88.7804925 72.6609489,88.0547748 72.6609489,86.9907988 C72.6609489,85.9206727 72.3964925,85.2011051 72.009033,84.4077357 L72.1996877,84.2724324 C72.7286006,85.071952 73.0238078,86.0006246 73.0238078,86.9907988 C73.0238078,87.980973 72.7286006,88.9096456 72.1996877,89.7091652 L72.009033,89.5615616 Z M73.9770811,88.5406366 C73.8294775,88.5406366 73.7003243,88.4176336 73.7003243,88.27003 C73.7003243,88.1285766 73.8294775,88.0055736 73.9770811,88.0055736 C74.1246847,88.0055736 74.2476877,88.1285766 74.2476877,88.27003 C74.2476877,88.4176336 74.1246847,88.5406366 73.9770811,88.5406366 Z" id="In-the-last-year,-yo" fill="#4E4B6B"></path>
                <path d="M17.7569648,107.948481 L11.2927489,107.948481 C10.8464879,107.948481 10.4847219,108.310247 10.4847219,108.756508 L10.4847219,113.60467 C10.4847219,114.050931 10.8464879,114.412697 11.2927489,114.412697 L17.7569648,114.412697 C18.2032258,114.412697 18.5649918,114.050931 18.5649918,113.60467 L18.5649918,108.756508 C18.5649918,108.310247 18.2032258,107.948481 17.7569648,107.948481 L17.7569648,107.948481 Z M17.7569648,113.60467 L11.2927489,113.60467 L11.2927489,109.564535 L14.5248568,111.584603 L17.7569648,109.564535 L17.7569648,113.60467 L17.7569648,113.60467 Z M17.7569648,108.756508 L14.5248568,110.776576 L11.2927489,108.756508 L17.7569648,108.756508 L17.7569648,108.756508 Z" id="Shape-Copy-8" fill="#000000" opacity="0.3"></path>
                <path d="M73.6595046,114.463386 L72.9031914,114.463386 L72.9031914,110.817569 L71.5974197,110.817569 L71.5974197,110.151754 L74.9652763,110.151754 L74.9652763,110.817569 L73.6595046,110.817569 L73.6595046,114.463386 Z M79.0700534,114.463386 L78.2103127,114.463386 L77.8935661,113.629503 L75.915516,113.629503 L75.5987694,114.463386 L74.7390287,114.463386 L76.4326533,110.151754 L77.3764288,110.151754 L79.0700534,114.463386 Z M77.680247,112.963688 L76.9045411,110.908068 L76.1288351,112.963688 L77.680247,112.963688 Z M83.0520105,114.463386 L82.1146991,114.463386 L80.673179,112.640478 L80.2917902,113.086508 L80.2917902,114.463386 L79.535477,114.463386 L79.535477,110.151754 L80.2917902,110.151754 L80.2917902,112.200911 L81.9789506,110.151754 L82.9162619,110.151754 L81.1644594,112.181518 L83.0520105,114.463386 Z M86.5039018,114.463386 L83.5497551,114.463386 L83.5497551,110.151754 L86.5039018,110.151754 L86.5039018,110.817569 L84.3060684,110.817569 L84.3060684,111.929414 L86.4586523,111.929414 L86.4586523,112.595228 L84.3060684,112.595228 L84.3060684,113.797572 L86.5039018,113.797572 L86.5039018,114.463386 Z M92.8323692,114.463386 L91.9726285,114.463386 L91.6558819,113.629503 L89.6778318,113.629503 L89.3610853,114.463386 L88.5013445,114.463386 L90.1949691,110.151754 L91.1387446,110.151754 L92.8323692,114.463386 Z M91.4425628,112.963688 L90.6668569,110.908068 L89.891151,112.963688 L91.4425628,112.963688 Z M97.5706396,114.463386 L94.9138468,114.463386 L94.9138468,110.151754 L95.6701601,110.151754 L95.6701601,113.797572 L97.5706396,113.797572 L97.5706396,114.463386 Z M100.059363,114.540957 C98.7665195,114.540957 97.8550651,113.597182 97.8550651,112.310803 C97.8550651,111.024424 98.7665195,110.080648 100.059363,110.080648 C101.345742,110.080648 102.26366,111.024424 102.26366,112.310803 C102.26366,113.597182 101.345742,114.540957 100.059363,114.540957 Z M100.059363,113.868679 C100.925568,113.868679 101.487954,113.1964 101.487954,112.310803 C101.487954,111.418741 100.925568,110.752927 100.059363,110.752927 C99.1866935,110.752927 98.630771,111.418741 98.630771,112.310803 C98.630771,113.1964 99.1866935,113.868679 100.059363,113.868679 Z M105.004488,114.540957 C103.711645,114.540957 102.80019,113.597182 102.80019,112.310803 C102.80019,111.024424 103.711645,110.080648 105.004488,110.080648 C106.290867,110.080648 107.208786,111.024424 107.208786,112.310803 C107.208786,113.597182 106.290867,114.540957 105.004488,114.540957 Z M105.004488,113.868679 C105.870693,113.868679 106.43308,113.1964 106.43308,112.310803 C106.43308,111.418741 105.870693,110.752927 105.004488,110.752927 C104.131819,110.752927 103.575896,111.418741 103.575896,112.310803 C103.575896,113.1964 104.131819,113.868679 105.004488,113.868679 Z M111.449311,114.463386 L110.512,114.463386 L109.07048,112.640478 L108.689091,113.086508 L108.689091,114.463386 L107.932778,114.463386 L107.932778,110.151754 L108.689091,110.151754 L108.689091,112.200911 L110.376251,110.151754 L111.313563,110.151754 L109.56176,112.181518 L111.449311,114.463386 Z" id="TAKE-A-LOOK" fill="#13C6B9"></path>
                <path d="M0.384384384,100.474231 L121.588434,100.474231" id="Line-Copy-5" stroke="#000000" stroke-width="0.5" opacity="0.1" stroke-linecap="square"></path>
                <g id="503-percent-purple-12m" transform="translate(46.363407, 11.232222)">
                    <g id="Shape">
                        <use fill="url(#linearGradient-3)" xlink:href="#path-4"></use>
                        <use fill-opacity="0.40064538" fill="#FFFFFF" xlink:href="#path-4"></use>
                    </g>
                    <polygon id="Shape" fill="#B3DBE8" points="15.6531742 14.8376306 15.9726267 14.8376306 15.9726267 22.0985988 15.6531742 22.0985988"></polygon>
                    <path d="M18.8476995,17.0474905 C16.2013547,17.0474905 14.0559115,19.2062079 14.0559115,21.8690891 C14.0559115,24.5319702 16.2013547,28.4124842 18.8476995,28.4124842 C21.4940443,28.4124842 23.6394875,24.5319702 23.6394875,21.8690891 C23.6394875,19.2062079 21.4940443,17.0474905 18.8476995,17.0474905 L18.8476995,17.0474905 Z" id="Shape" fill="#26A6D1"></path>
                    <path d="M14.6948166,21.8690891 C14.6948166,19.3144911 16.670311,17.2299618 19.167152,17.0635909 C19.0610938,17.0566457 18.9556745,17.0474905 18.8476995,17.0474905 C16.2013547,17.0474905 14.0559115,19.2062079 14.0559115,21.8690891 C14.0559115,24.5319702 16.2013547,28.4124842 18.8476995,28.4124842 C18.9550356,28.4124842 19.0614132,28.4039605 19.167152,28.3916484 C16.6699916,28.0971056 14.6948166,24.4236871 14.6948166,21.8690891 L14.6948166,21.8690891 Z" id="Shape" fill="#2295BC"></path>
                    <path d="M11.8197438,8.5272179 C11.8197438,10.7954812 13.6789575,14.1011159 15.9726267,14.1011159 C18.2662959,14.1011159 20.1255096,10.7951655 20.1255096,8.5272179 C20.1255096,6.25863888 18.2662959,4.41971976 15.9726267,4.41971976 C13.6789575,4.41971976 11.8197438,6.25863888 11.8197438,8.5272179 Z" id="Shape" fill="url(#linearGradient-5)"></path>
                    <path d="M7.02795575,22.8161719 C7.02795575,25.479053 9.17339896,29.359567 11.8197438,29.359567 C14.4660885,29.359567 16.6115318,25.479053 16.6115318,22.8161719 C16.6115318,20.1532907 14.4660885,17.9945733 11.8197438,17.9945733 C9.17339896,17.9945733 7.02795575,20.1532907 7.02795575,22.8161719 Z" id="Shape" fill="#F4B459"></path>
                    <path d="M14.6127173,23.0927201 C15.0212971,22.9746504 15.1519531,22.1749968 14.904058,21.3065219 C14.6561628,20.4383627 14.1239549,19.8300198 13.7147362,19.9484052 C13.3061564,20.0664748 13.1755003,20.8661284 13.4237149,21.7342876 C13.6716101,22.6030783 14.2041375,23.2111054 14.6127173,23.0927201 L14.6127173,23.0927201 Z M14.3868643,23.6770702 C14.1031905,23.6770702 13.8735041,23.9081584 13.8735041,24.1938617 C13.8735041,24.4789336 14.1035099,24.7106532 14.3868643,24.7106532 C14.6702187,24.7106532 14.8999051,24.4792493 14.8999051,24.1938617 C14.9002245,23.9081584 14.6705382,23.6770702 14.3868643,23.6770702 L14.3868643,23.6770702 Z" id="Shape" fill="#F6C37A"></path>
                    <path d="M7.66686081,22.8161719 C7.66686081,20.2615739 9.64235528,18.1770446 12.1391963,18.0106737 C12.033138,18.0037285 11.9273993,17.9945733 11.8197438,17.9945733 C9.17339896,17.9945733 7.02795575,20.1532907 7.02795575,22.8161719 C7.02795575,25.479053 9.17339896,29.359567 11.8197438,29.359567 C11.9270798,29.359567 12.0334575,29.3510433 12.1391963,29.3387312 C9.64203583,29.0441884 7.66686081,25.3707699 7.66686081,22.8161719 L7.66686081,22.8161719 Z" id="Shape" fill="#DBA250"></path>
                    <path d="M23.6394875,20.2044332 C20.9931427,20.2044332 18.8476995,22.3631506 18.8476995,25.0260318 C18.8476995,26.877263 19.8852813,29.3156855 21.4065143,30.6308678 C24.1672231,29.6440075 26.5727007,27.9259993 28.3865522,25.7139296 C28.4149834,25.4784217 28.4312755,25.2479648 28.4312755,25.0260318 C28.4312755,22.3631506 26.2858323,20.2044332 23.6394875,20.2044332 L23.6394875,20.2044332 Z" id="Shape" fill="#EFC75E"></path>
                    <path d="M7.66686081,21.151516 C5.36488586,21.151516 3.44369832,22.7855495 2.9820894,24.9635243 C4.88602651,27.5901006 7.5834837,29.6143323 10.7300912,30.6949538 C11.7862012,29.3355742 12.4586488,27.4638229 12.4586488,25.9731146 C12.4586488,23.3102334 10.3132056,21.151516 7.66686081,21.151516 L7.66686081,21.151516 Z" id="Shape" fill="#3DB39E"></path>
                    <path d="M10.4598343,26.2496628 C10.8684141,26.1315931 10.9990702,25.3319395 10.751175,24.4637803 C10.5032799,23.5953053 9.97107194,22.9869625 9.56185325,23.1053478 C9.15327346,23.2234175 9.02261737,24.0230711 9.27083199,24.8912303 C9.51872715,25.7600209 10.0512545,26.3677324 10.4598343,26.2496628 L10.4598343,26.2496628 Z M10.2339814,26.8340129 C9.95030753,26.8340129 9.72062116,27.0651011 9.72062116,27.3508044 C9.72062116,27.6358763 9.95062698,27.8675959 10.2339814,27.8675959 C10.5173358,27.8675959 10.7470221,27.636192 10.7470221,27.3508044 C10.7473416,27.0651011 10.5176552,26.8340129 10.2339814,26.8340129 L10.2339814,26.8340129 Z" id="Shape" fill="#5ABEAC"></path>
                    <path d="M26.432461,25.30258 C26.8410408,25.1845103 26.9716969,24.3848567 26.7238017,23.5166975 C26.4759066,22.6482225 25.9436986,22.0398797 25.5344799,22.1579493 C25.1259002,22.2763347 24.9952441,23.0759883 25.2434587,23.9444632 C25.4913539,24.8129381 26.0238812,25.4209653 26.432461,25.30258 L26.432461,25.30258 Z M26.2066081,25.8872457 C25.9229342,25.8872457 25.6932479,26.1180182 25.6932479,26.4037216 C25.6932479,26.6894249 25.9232537,26.9205131 26.2066081,26.9205131 C26.4899625,26.9205131 26.7196488,26.6894249 26.7196488,26.4037216 C26.7196488,26.1180182 26.4902819,25.8872457 26.2066081,25.8872457 L26.2066081,25.8872457 Z" id="Shape" fill="#F4D88F"></path>
                    <path d="M13.0975539,2.20985988 L8.30576588,2.20985988 C7.95309029,2.20985988 7.66686081,2.49272195 7.66686081,2.84124842 C7.66686081,3.18977489 7.95309029,3.47263696 8.30576588,3.47263696 C8.57027258,3.47263696 8.78494468,3.68478351 8.78494468,3.94617836 C8.78494468,4.20757322 8.57027258,4.41971976 8.30576588,4.41971976 L6.70850321,4.41971976 C6.35582762,4.41971976 6.06959814,4.70258183 6.06959814,5.0511083 C6.06959814,5.39963477 6.35582762,5.68249684 6.70850321,5.68249684 L11.1808387,5.68249684 C11.5335143,5.68249684 11.8197438,5.39963477 11.8197438,5.0511083 C11.8197438,4.70258183 11.5335143,4.41971976 11.1808387,4.41971976 L10.5419336,4.41971976 L10.5419336,4.41877268 C10.2822187,4.41340588 10.0726578,4.20410058 10.0726578,3.94617836 C10.0726578,3.68825614 10.2818993,3.47926654 10.5419336,3.47358404 L10.5419336,3.47263696 L13.0975539,3.47263696 C13.4502295,3.47263696 13.736459,3.18977489 13.736459,2.84124842 C13.736459,2.49272195 13.4502295,2.20985988 13.0975539,2.20985988 L13.0975539,2.20985988 Z" id="Shape" fill-opacity="0.478119339" fill="#FFFFFF"></path>
                    <polygon id="Shape" fill="#E2574C" points="15.9735851 13.8867595 15.6502991 13.8867595 15.3375551 14.8351051 16.2895236 14.8351051"></polygon>
                    <path d="M18.3931185,8.76272582 C18.7473914,8.66233504 18.8604776,7.98075112 18.645486,7.24139514 C18.4308139,6.50172347 17.9695245,5.98366917 17.6149322,6.08405995 C17.2609788,6.18476642 17.1475731,6.86635035 17.3625647,7.60570632 C17.5775562,8.34569369 18.0391651,8.86343229 18.3931185,8.76272582 L18.3931185,8.76272582 Z M18.1972941,9.26057568 C17.9516351,9.26057568 17.7522968,9.45756891 17.7522968,9.70065349 C17.7522968,9.94373808 17.9516351,10.1407313 18.1972941,10.1407313 C18.4432726,10.1407313 18.642611,9.94373808 18.642611,9.70065349 C18.642611,9.45756891 18.4429531,9.26057568 18.1972941,9.26057568 L18.1972941,9.26057568 Z" id="Shape" fill="#EE9A94"></path>
                    <path d="M30.3479907,10.4179109 C30.0882758,10.411597 29.878715,10.2022917 29.878715,9.94436947 C29.878715,9.68644725 30.0879564,9.47714195 30.3479907,9.47177515 L30.6124974,9.47082807 C30.3224345,8.81544676 29.9914817,8.18184837 29.6180417,7.57666245 L25.8756552,7.57666245 C25.3463224,7.57666245 24.9172976,8.00063986 24.9172976,8.52374526 C24.9172976,9.04685066 25.3463224,9.47082807 25.8756552,9.47082807 L28.111823,9.47082807 C28.3763297,9.47082807 28.5910018,9.68297461 28.5910018,9.94436947 C28.5910018,10.2057643 28.3763297,10.4179109 28.111823,10.4179109 L26.6742866,10.4179109 C26.2331226,10.4179109 25.8756552,10.7711728 25.8756552,11.2071465 C25.8756552,11.6431203 26.2331226,11.9963822 26.6742866,11.9963822 L31.4788527,11.9963822 C31.3450021,11.4590706 31.1846369,10.9318611 30.9967988,10.4179109 L30.3479907,10.4179109 Z" id="Shape" fill-opacity="0.43897192" fill="#FFFFFF"></path>
                    <polygon id="Shape" fill="#E2574C" points="15.9735851 13.8867595 15.6502991 13.8867595 15.3375551 14.8351051 16.2895236 14.8351051"></polygon>
                    <path d="M15.9726267,14.1011159 C15.8435679,14.1011159 15.7161063,14.0891195 15.590242,14.0689151 L15.5448798,14.2062421 L16.0799627,14.2062421 L16.0438646,14.097959 L15.9726267,14.1011159 L15.9726267,14.1011159 Z" id="Shape" fill="#AA4239"></path>
                    <path d="M12.4586488,8.5272179 C12.4586488,6.36534354 14.1482333,4.59777133 16.2920792,4.43582017 C16.1863404,4.42761212 16.0802822,4.41971976 15.9726267,4.41971976 C13.6789575,4.41971976 11.8197438,6.25863888 11.8197438,8.5272179 C11.8197438,10.7954812 13.6789575,14.1011159 15.9726267,14.1011159 C16.0802822,14.1011159 16.1866599,14.0916451 16.2920792,14.0774388 C14.1479138,13.7911041 12.4586488,10.6887766 12.4586488,8.5272179 L12.4586488,8.5272179 Z" id="Shape" fill="#CB4E44"></path>
                    <path d="M19.4866046,25.0260318 C19.4866046,22.4714338 21.4624185,20.3869045 23.95894,20.2205336 C23.8528818,20.2135883 23.7474625,20.2044332 23.6394875,20.2044332 C20.9931427,20.2044332 18.8476995,22.3631506 18.8476995,25.0260318 C18.8476995,26.877263 19.8852813,29.3156855 21.4065143,30.6308678 C21.5582543,30.5765684 21.7045635,30.5118511 21.8540673,30.4534476 C20.4385731,29.1054331 19.4866046,26.7983394 19.4866046,25.0260318 L19.4866046,25.0260318 Z" id="Shape" fill="#D7B354"></path>
                    <path d="M17.2504368,23.6770702 C14.604092,23.6770702 12.4586488,25.8357876 12.4586488,28.4986687 C12.4586488,29.3643024 12.6867379,30.3590551 13.0838174,31.3070849 C14.0214106,31.4762971 14.9858378,31.5694269 15.9726267,31.5694269 C17.9934834,31.5694269 19.9252129,31.1946978 21.704883,30.5178493 C21.9217912,29.8217434 22.0422248,29.1265846 22.0422248,28.4986687 C22.0422248,25.8357876 19.8967816,23.6770702 17.2504368,23.6770702 L17.2504368,23.6770702 Z" id="Shape" fill="#E19178"></path>
                    <path d="M18.7656002,29.7222997 C19.17418,29.6042301 19.3048361,28.8045765 19.0569409,27.9364172 C18.8090457,27.0679423 18.2768378,26.4595994 17.8676191,26.5779848 C17.4590393,26.6960545 17.3283833,27.495708 17.5765979,28.3638673 C17.824493,29.2326579 18.3570204,29.8406851 18.7656002,29.7222997 L18.7656002,29.7222997 Z M18.5397473,30.3066498 C18.2560734,30.3066498 18.026387,30.537738 18.026387,30.8234413 C18.026387,31.1085133 18.2563929,31.3402328 18.5397473,31.3402328 C18.8231017,31.3402328 19.052788,31.1088289 19.052788,30.8234413 C19.0531075,30.537738 18.8231017,30.3066498 18.5397473,30.3066498 L18.5397473,30.3066498 Z" id="Shape" fill="#EDBDAE"></path>
                    <path d="M13.7227225,31.3070849 C13.325643,30.3590551 13.0975539,29.3646181 13.0975539,28.4986687 C13.0975539,25.9440707 15.0730484,23.8595415 17.5698894,23.6931706 C17.4638311,23.6862253 17.3584118,23.6770702 17.2504368,23.6770702 C14.604092,23.6770702 12.4586488,25.8357876 12.4586488,28.4986687 C12.4586488,29.3643024 12.6867379,30.3590551 13.0838174,31.3070849 C14.0214106,31.4762971 14.5590492,31.4579868 13.7227225,31.3070849 L13.7227225,31.3070849 Z" id="Shape" fill="#CA826C"></path>
                    <path d="M9.58357602,26.5183186 C8.16616513,26.5183186 6.8963413,27.1411834 6.01912464,28.1255181 C8.35751719,29.9701197 11.2293955,31.1814386 14.3715306,31.4905033 L14.375364,31.3399172 C14.375364,28.677036 12.2299208,26.5183186 9.58357602,26.5183186 L9.58357602,26.5183186 Z" id="Shape" fill="#E2574C"></path>
                    <path d="M9.91740392,26.5353661 C9.80655389,26.5274737 9.69634276,26.5183186 9.58357602,26.5183186 C8.16616513,26.5183186 6.8963413,27.1411834 6.01912464,28.1255181 C6.1392388,28.2205421 6.26222802,28.3127248 6.38521725,28.4042761 C7.33750525,27.3372295 8.64981626,26.6622752 9.91740392,26.5353661 L9.91740392,26.5353661 Z" id="Shape" fill="#CA4E44"></path>
                    <path d="M7.96011824,21.1663536 C7.86268522,21.1603555 7.7658911,21.151516 7.66686081,21.151516 C5.36488586,21.151516 3.44369832,22.7855495 2.9820894,24.9635243 C3.1450102,25.1882986 3.3159173,25.4070748 3.49033839,25.6230096 C4.02414357,22.7896536 5.87153757,21.3125201 7.96011824,21.1663536 L7.96011824,21.1663536 Z" id="Shape" fill="#37A18E"></path>
                </g>
            </g>
        </g>
    </g>
</svg>