<?xml version="1.0" encoding="UTF-8"?>
<svg width="154px" height="154px" viewBox="0 0 154 154" version="1.1" xmlns="http://www.w3.org/2000/svg" xmlns:xlink="http://www.w3.org/1999/xlink">
    <!-- Generator: Sketch 52.6 (67491) - http://www.bohemiancoding.com/sketch -->
    <desc>Created with Sketch.</desc>
    <defs>
        <filter x="-69.2%" y="-69.2%" width="238.5%" height="238.5%" filterUnits="objectBoundingBox" id="filter-1">
            <feOffset dx="0" dy="6" in="SourceAlpha" result="shadowOffsetOuter1"></feOffset>
            <feGaussianBlur stdDeviation="11" in="shadowOffsetOuter1" result="shadowBlurOuter1"></feGaussianBlur>
            <feColorMatrix values="0 0 0 0 0   0 0 0 0 0   0 0 0 0 0  0 0 0 0.115404212 0" type="matrix" in="shadowBlurOuter1" result="shadowMatrixOuter1"></feColorMatrix>
            <feMerge>
                <feMergeNode in="shadowMatrixOuter1"></feMergeNode>
                <feMergeNode in="SourceGraphic"></feMergeNode>
            </feMerge>
        </filter>
    </defs>
    <g id="Page-1" stroke="none" stroke-width="1" fill="none" fill-rule="evenodd">
        <g id="icon/goals/rainyday">
            <g filter="url(#filter-1)" transform="translate(37.200000, 38.400000)">
                <path d="M39,78 C17.4613322,78 0,60.5391141 0,39 C0,17.4608859 17.4613322,0 39,0 C60.539114,0 78,17.4608859 78,39 C78,60.5391141 60.539114,78 39,78 Z" id="Fill-1-Copy-3" fill="#FFFFFF" fill-rule="nonzero"></path>
                <g id="protection" transform="translate(15.600000, 10.400000)" fill-rule="nonzero">
                    <g id="Group" transform="translate(14.357702, 8.248042)" fill="#415A6B">
                        <path d="M6.78447258,19.7705561 L6.78447258,39.072705 C6.78447258,40.1143003 5.93614621,40.9604883 4.8966893,40.9604883 C3.85509399,40.9604883 3.00676762,40.1144021 3.00676762,39.072705 L3.00676762,37.9040287 C3.00676762,37.1003029 2.35720888,36.4486057 1.55348303,36.4486057 C0.74975718,36.4486057 0.0980600522,37.1003029 0.0980600522,37.9040287 L0.0980600522,39.072705 C0.0980600522,41.7185953 2.24866057,43.8713342 4.8966893,43.8713342 C7.54257963,43.8713342 9.69318016,41.7185953 9.69318016,39.072705 L9.69318016,19.7705561 L6.78447258,19.7705561 Z" id="Shape"></path>
                        <path d="M9.69318016,4.41117493 L9.69318016,1.55348303 C9.69318016,0.74975718 9.04362141,0.099078329 8.23989556,0.099078329 C7.43616971,0.099078329 6.78447258,0.749655352 6.78447258,1.55348303 L6.78447258,4.41117493 L9.69318016,4.41117493 Z" id="Shape"></path>
                    </g>
                    <path d="M8.10385379,30.5732507 C11.0690757,30.5732507 12.4702245,31.1337102 14.2819426,32.5989086 C16.2359138,31.1325901 19.2392193,30.1952663 22.5975979,30.1952663 C25.9538381,30.1952663 28.959282,31.1325901 30.9111149,32.5989086 C32.7228329,31.1325901 34.1228616,30.5732507 37.0892037,30.5732507 C40.5811802,30.5732507 43.6083133,31.7354099 45.1246292,33.4353211 C44.1937206,20.3741906 34.4758982,10.0936684 22.5975979,10.0936684 C10.7192977,10.0936684 0.999234987,20.3741906 0.0705665796,33.4353211 C1.58474413,31.73653 4.61187728,30.5732507 8.10385379,30.5732507" id="Shape" fill="#F3705A"></path>
                    <path d="M22.5975979,10.0947885 C18.8514595,10.0947885 15.3724151,19.1859634 14.3156475,32.576201 C16.2674804,31.1250548 19.2587702,30.1963864 22.5975979,30.1963864 C25.9364256,30.1963864 28.925577,31.1250548 30.8774099,32.576201 C29.8205405,19.1859634 26.3437363,10.0947885 22.5975979,10.0947885" id="Shape" fill="#F05540"></path>
                    <path d="M8.16790339,13.7985666 C8.16790339,15.2865744 6.96338381,16.4933342 5.47425587,16.4933342 C3.98726632,16.4933342 2.78060836,15.2865744 2.78060836,13.7985666 C2.78060836,12.311577 5.47425587,8.82499739 5.47425587,8.82499739 C5.47425587,8.82499739 8.16790339,12.3116789 8.16790339,13.7985666" id="Shape" fill="#8AD7F8"></path>
                    <path d="M5.47313577,15.6342141 C4.46086684,15.6342141 3.63860836,14.8109373 3.63860836,13.7996867 C3.63860836,13.641141 3.76782768,13.5118198 3.92535509,13.5118198 C4.08288251,13.5118198 4.21210183,13.6410392 4.21210183,13.7996867 C4.21210183,14.4958825 4.77795822,15.0607206 5.47425587,15.0607206 C5.63178329,15.0607206 5.76100261,15.1899399 5.76100261,15.3485875 C5.76100261,15.507235 5.63066319,15.6342141 5.47313577,15.6342141" id="Shape" fill="#FFFFFF"></path>
                    <path d="M25.2912454,4.97458747 C25.2912454,6.4625953 24.0844856,7.66935509 22.5975979,7.66935509 C21.10847,7.66935509 19.9017102,6.4625953 19.9017102,4.97458747 C19.9017102,3.48657963 22.5975979,0 22.5975979,0 C22.5975979,0 25.2912454,3.48657963 25.2912454,4.97458747" id="Shape" fill="#8AD7F8"></path>
                    <path d="M22.5975979,6.81023499 C21.585329,6.81023499 20.7609321,5.98695822 20.7609321,4.97458747 C20.7609321,4.81706005 20.8901514,4.68784073 21.0476789,4.68784073 C21.2062245,4.68784073 21.336564,4.81706005 21.336564,4.97458747 C21.336564,5.67190339 21.9014021,6.23674151 22.598718,6.23674151 C22.7562454,6.23674151 22.8854648,6.36596084 22.8854648,6.52348825 C22.8843446,6.68203394 22.7551253,6.81023499 22.5975979,6.81023499" id="Shape" fill="#FFFFFF"></path>
                    <path d="M41.0688329,9.4865718 C41.0688329,10.9745796 39.8620731,12.1813394 38.3729452,12.1813394 C36.8859556,12.1813394 35.6792977,10.9745796 35.6792977,9.4865718 C35.6792977,7.99856397 38.3729452,4.51198433 38.3729452,4.51198433 C38.3729452,4.51198433 41.0688329,7.99846214 41.0688329,9.4865718" id="Shape" fill="#8AD7F8"></path>
                    <path d="M38.3719269,11.3232376 C37.359658,11.3232376 36.5373995,10.4999608 36.5373995,9.48759008 C36.5373995,9.33006266 36.6666188,9.20084334 36.8241462,9.20084334 C36.9816736,9.20084334 37.110893,9.33006266 37.110893,9.48759008 C37.110893,10.184906 37.6767493,10.7497441 38.373047,10.7497441 C38.5305744,10.7497441 38.6597937,10.8789634 38.6597937,11.0364909 C38.6586736,11.1940183 38.5294543,11.3232376 38.3719269,11.3232376" id="Shape" fill="#FFFFFF"></path>
                    <path d="M14.4557624,24.1768433 C14.4557624,25.6648512 13.2490026,26.871611 11.7621149,26.871611 C10.2729869,26.871611 9.06846736,25.6648512 9.06846736,24.1768433 C9.06846736,22.6888355 11.7621149,19.2022559 11.7621149,19.2022559 C11.7621149,19.2022559 14.4557624,22.6877154 14.4557624,24.1768433" id="Shape" fill="#8AD7F8"></path>
                    <path d="M11.7609948,26.0124909 C10.7487258,26.0124909 9.92432898,25.1892141 9.92432898,24.1768433 C9.92432898,24.0193159 10.0535483,23.8900966 10.2132141,23.8900966 C10.3707415,23.8900966 10.4999608,24.0193159 10.4999608,24.1768433 C10.4999608,24.8741593 11.064799,25.4389974 11.7621149,25.4389974 C11.9196423,25.4389974 12.0488616,25.5682167 12.0488616,25.7268642 C12.0487598,25.8854099 11.9184204,26.0124909 11.7609948,26.0124909" id="Shape" fill="#FFFFFF"></path>
                    <path d="M34.6170313,20.658799 C34.6170313,22.1468068 33.4102715,23.3535666 31.9233838,23.3535666 C30.4342559,23.3535666 29.2274961,22.1468068 29.2274961,20.658799 C29.2274961,19.1707911 31.9233838,15.6842115 31.9233838,15.6842115 C31.9233838,15.6842115 34.6170313,19.1707911 34.6170313,20.658799" id="Shape" fill="#8AD7F8"></path>
                    <path d="M31.9233838,22.4954648 C30.9111149,22.4954648 30.086718,21.672188 30.086718,20.6598172 C30.086718,20.5022898 30.2159373,20.3730705 30.3734648,20.3730705 C30.5320104,20.3730705 30.6623499,20.5022898 30.6623499,20.6598172 C30.6623499,21.3571332 31.227188,21.9219713 31.9245039,21.9219713 C32.0820313,21.9219713 32.2112507,22.0511906 32.2112507,22.2098381 C32.2112507,22.3684856 32.0797911,22.4954648 31.9233838,22.4954648" id="Shape" fill="#FFFFFF"></path>
                </g>
            </g>
        </g>
    </g>
</svg>