<?xml version="1.0" encoding="UTF-8"?>
<svg width="62.37px" height="72.27px" viewBox="0 0 62.37 72.27" version="1.1" xmlns="http://www.w3.org/2000/svg" xmlns:xlink="http://www.w3.org/1999/xlink">
    <!-- Generator: Sketch 52.6 (67491) - http://www.bohemiancoding.com/sketch -->
    <desc>Created with Sketch.</desc>
    <defs>
        <linearGradient x1="10.9906944%" y1="17.7734393%" x2="82.0081345%" y2="90.9801566%" id="linearGradient-1">
            <stop stop-color="#13C6B9" offset="0%"></stop>
            <stop stop-color="#26B1C9" offset="100%"></stop>
        </linearGradient>
        <linearGradient x1="-6.94175595%" y1="-11.2058725%" x2="151.750106%" y2="153.426944%" id="linearGradient-2">
            <stop stop-color="#2FCCAE" offset="0%"></stop>
            <stop stop-color="#00C0E8" offset="100%"></stop>
        </linearGradient>
    </defs>
    <g id="Page-1" stroke="none" stroke-width="1" fill="none" fill-rule="evenodd">
        <g id="icon---security" fill-rule="nonzero">
            <path d="M59.0126617,48.2614199 C57.0485465,53.5259612 54.0781217,58.1034877 50.1827843,61.8655283 C45.7488901,66.1475171 39.9429584,69.5500605 32.9261105,71.9772191 C32.695858,72.0566173 32.4555702,72.1216798 32.2141675,72.1696494 C31.8952704,72.2319551 31.5707984,72.265589 31.2491139,72.27 L31.186115,72.27 C30.8432451,72.27 30.4987025,72.2358146 30.1569476,72.1696494 C29.9155449,72.1216798 29.6786021,72.0566173 29.4494647,71.9788733 C22.424254,69.5555742 16.6110747,66.1546849 12.1727204,61.8726963 C8.27571045,58.1106555 5.30584316,53.535886 3.34451546,48.2713447 C-0.22188991,38.6994514 -0.018955342,28.1549302 0.144395684,19.6813786 L0.147183209,19.5512538 C0.180076462,18.8515572 0.201261853,18.1165725 0.212969715,17.3049465 C0.272623409,13.3201498 3.47608833,10.0234706 7.5057862,9.80126587 C15.9074943,9.3375584 22.4069711,6.62754364 27.9603497,1.27423076 L28.0088533,1.23012066 C28.9309783,0.393682638 30.0928336,-0.0165413609 31.2491139,0.000551376343 C32.3641382,0.0148871965 33.4747025,0.424559713 34.3639344,1.23012066 L34.4113229,1.27423076 C39.9658165,6.62754364 46.4652932,9.3375584 54.8670015,9.80126587 C58.8966992,10.0234706 62.1001641,13.3201498 62.159818,17.3049465 C62.1715257,18.1220863 62.1927111,18.8559682 62.2256043,19.5512538 L62.2272769,19.6063914 C62.3900704,28.0959329 62.5918899,38.6614065 59.0126617,48.2614199 Z" id="Shape" fill="url(#linearGradient-1)"></path>
            <path d="M49.396692,36.135 C49.396692,46.044887 41.2609172,54.1115229 31.2491139,54.146811 L31.185,54.146811 C21.1436485,54.146811 12.9727503,46.0663907 12.9727503,36.135 C12.9727503,26.2041607 21.1436485,18.1237405 31.185,18.1237405 L31.2491139,18.1237405 C41.2609172,18.1590285 49.396692,26.2256644 49.396692,36.135 Z" id="Shape" fill="#FFFFFF"></path>
            <path d="M39.4512328,33.5413257 L31.2491139,41.6542771 L29.4767828,43.4071025 C29.0580911,43.8211862 28.5089416,44.0279524 27.9603497,44.0279524 C27.4112002,44.0279524 26.8626083,43.8211862 26.4433591,43.4071025 L22.6327635,39.6367912 C21.7953803,38.8086239 21.7953803,37.4671252 22.6327635,36.6384066 C23.4690318,35.8102394 24.8271314,35.8102394 25.6645146,36.6384066 L27.9603497,38.9089744 L36.4194816,30.5429411 C37.2568649,29.7142225 38.6149645,29.7142225 39.4512328,30.5429411 C40.288616,31.3711084 40.288616,32.7142612 39.4512328,33.5413257 Z" id="Shape" fill="url(#linearGradient-2)"></path>
        </g>
    </g>
</svg>