<?xml version="1.0" encoding="UTF-8"?>
<svg width="74.7184035px" height="74.6132404px" viewBox="0 0 74.7184035 74.6132404" version="1.1" xmlns="http://www.w3.org/2000/svg" xmlns:xlink="http://www.w3.org/1999/xlink">
    <!-- Generator: Sketch 52.6 (67491) - http://www.bohemiancoding.com/sketch -->
    <desc>Created with Sketch.</desc>
    <defs>
        <filter x="-114.8%" y="-114.8%" width="329.6%" height="329.6%" filterUnits="objectBoundingBox" id="filter-1">
            <feOffset dx="0" dy="5" in="SourceAlpha" result="shadowOffsetOuter1"></feOffset>
            <feGaussianBlur stdDeviation="5.5" in="shadowOffsetOuter1" result="shadowBlurOuter1"></feGaussianBlur>
            <feColorMatrix values="0 0 0 0 0   0 0 0 0 0   0 0 0 0 0  0 0 0 0.115404212 0" type="matrix" in="shadowBlurOuter1" result="shadowMatrixOuter1"></feColorMatrix>
            <feMerge>
                <feMergeNode in="shadowMatrixOuter1"></feMergeNode>
                <feMergeNode in="SourceGraphic"></feMergeNode>
            </feMerge>
        </filter>
        <polygon id="path-2" points="3.18072289e-05 0.0836657143 6.52409205 0.0836657143 6.52409205 7.11428571 3.18072289e-05 7.11428571"></polygon>
        <polygon id="path-4" points="0.0714231325 0.0836657143 11.6455807 0.0836657143 11.6455807 7.11428571 0.0714231325 7.11428571"></polygon>
    </defs>
    <g id="Page-1" stroke="none" stroke-width="1" fill="none" fill-rule="evenodd">
        <g id="icon/institution/pick-n-pay">
            <g id="icon---pick-n-pay" filter="url(#filter-1)" transform="translate(24.300000, 24.300000)">
                <circle id="Oval-8" fill="#FFFFFF" fill-rule="nonzero" cx="13.5" cy="13.5" r="13.5"></circle>
                <g id="Group-7" transform="translate(3.600000, 9.900000)">
                    <g id="Group-3" transform="translate(0.000000, 0.002049)">
                        <mask id="mask-3" fill="white">
                            <use xlink:href="#path-2"></use>
                        </mask>
                        <g id="Clip-2"></g>
                        <path d="M6.52409205,0.717522857 L6.52409205,6.47863714 C6.52409205,6.82766571 6.25707036,7.11429429 5.93215952,7.11429429 L0.587352289,7.11429429 C0.263634217,7.11429429 3.18072289e-05,6.82766571 3.18072289e-05,6.47863714 L3.18072289e-05,0.717522857 C3.18072289e-05,0.370894286 0.263634217,0.0836657143 0.587352289,0.0836657143 L5.93215952,0.0836657143 C6.25707036,0.0836657143 6.52409205,0.370894286 6.52409205,0.717522857 M5.49059566,2.87315143 C5.49059566,1.94898 5.2307306,1.40709429 4.76364145,1.20575143 C4.54806795,1.11438 4.28160289,1.10255143 3.95438602,1.10255143 L1.52630169,1.10255143 C1.39764145,1.10255143 1.2940294,1.21432286 1.2940294,1.35198 L1.2940294,5.84718 C1.2940294,5.98243714 1.39764145,6.09549429 1.52630169,6.09549429 L2.19791133,6.09549429 C2.32291373,6.09549429 2.42421976,5.98243714 2.42421976,5.84718 L2.42421976,4.64409429 L3.95438602,4.64409429 C4.28160289,4.64409429 4.54806795,4.63278 4.76364145,4.53926571 C5.2307306,4.33912286 5.49059566,3.79792286 5.49059566,2.87315143 M4.35110169,2.87315143 C4.35110169,3.47409429 4.17576434,3.63215143 3.82015952,3.63215143 L2.42421976,3.63215143 L2.42421976,2.11380857 L3.82015952,2.11380857 C4.17576434,2.11380857 4.35110169,2.27186571 4.35110169,2.87315143" id="Fill-1" fill="#004774" mask="url(#mask-3)"></path>
                    </g>
                    <g id="Group-6" transform="translate(8.110843, 0.002049)">
                        <mask id="mask-5" fill="white">
                            <use xlink:href="#path-4"></use>
                        </mask>
                        <g id="Clip-5"></g>
                        <path d="M8.94198217,2.11380857 L7.54771229,2.11380857 L7.54771229,3.63215143 L8.94198217,3.63215143 C9.2980641,3.63215143 9.47204964,3.47409429 9.47204964,2.87315143 C9.47204964,2.27186571 9.2980641,2.11380857 8.94198217,2.11380857 M11.055652,0.0836657143 L5.70957253,0.0836657143 C5.38609301,0.0836657143 5.12209301,0.370894286 5.12209301,0.717522857 L5.12209301,6.47863714 C5.12209301,6.82766571 5.38609301,7.11429429 5.70957253,7.11429429 L11.055652,7.11429429 C11.3795292,7.11429429 11.6455966,6.82766571 11.6455966,6.47863714 L11.6455966,0.717522857 C11.6455966,0.370894286 11.3795292,0.0836657143 11.055652,0.0836657143 M9.88745205,4.53926571 C9.67211711,4.63278 9.40374361,4.64409429 9.07644723,4.64409429 L7.54771229,4.64409429 L7.54771229,5.84718 C7.54771229,5.98243714 7.44624723,6.09549429 7.3194159,6.09549429 L6.6497147,6.09549429 C6.52145205,6.09549429 6.41624964,5.98243714 6.41624964,5.84718 L6.41624964,1.35198 C6.41624964,1.21432286 6.52145205,1.10255143 6.6497147,1.10255143 L9.07644723,1.10255143 C9.40374361,1.10255143 9.67211711,1.11438 9.88745205,1.20575143 C10.3526328,1.40709429 10.6148834,1.94898 10.6148834,2.87315143 C10.6148834,3.79783714 10.3526328,4.33912286 9.88745205,4.53926571 M3.6005147,3.32178 L3.6005147,5.83740857 C3.6005147,5.97360857 3.49785687,6.08666571 3.36728819,6.08666571 L2.70148337,6.08666571 C2.57441349,6.08666571 2.46976771,5.97360857 2.46976771,5.83740857 L2.46976771,3.35863714 C2.46976771,3.04338 2.42857735,2.84786571 1.86057976,2.84786571 C1.56572675,2.84786571 1.41201831,2.88746571 1.20288578,2.92338 L1.20288578,5.84778 C1.20288578,5.98243714 1.10110265,6.09600857 0.973476145,6.09600857 L0.301786988,6.09600857 C0.172490602,6.09600857 0.0714231325,5.98243714 0.0714231325,5.84778 L0.0714231325,2.30778 C0.0714231325,2.22986571 0.0769893976,2.10035143 0.233560482,2.04798 C0.506068916,1.95635143 1.14444,1.81346571 1.78718458,1.81346571 C3.14010506,1.81346571 3.6005147,2.36383714 3.6005147,3.32178" id="Fill-4" fill="#D42358" mask="url(#mask-5)"></path>
                    </g>
                </g>
            </g>
        </g>
    </g>
</svg>