<?xml version="1.0" encoding="UTF-8"?>
<svg width="138.63747px" height="138.48062px" viewBox="0 0 138.63747 138.48062" version="1.1" xmlns="http://www.w3.org/2000/svg" xmlns:xlink="http://www.w3.org/1999/xlink">
    <!-- Generator: Sketch 52.6 (67491) - http://www.bohemiancoding.com/sketch -->
    <desc>Created with Sketch.</desc>
    <defs>
        <filter x="-74.3%" y="-74.9%" width="249.2%" height="251.0%" filterUnits="objectBoundingBox" id="filter-1">
            <feOffset dx="0" dy="6" in="SourceAlpha" result="shadowOffsetOuter1"></feOffset>
            <feGaussianBlur stdDeviation="10.5" in="shadowOffsetOuter1" result="shadowBlurOuter1"></feGaussianBlur>
            <feColorMatrix values="0 0 0 0 0   0 0 0 0 0   0 0 0 0 0  0 0 0 0.115404212 0" type="matrix" in="shadowBlurOuter1" result="shadowMatrixOuter1"></feColorMatrix>
            <feMerge>
                <feMergeNode in="shadowMatrixOuter1"></feMergeNode>
                <feMergeNode in="SourceGraphic"></feMergeNode>
            </feMerge>
        </filter>
    </defs>
    <g id="Page-1" stroke="none" stroke-width="1" fill="none" fill-rule="evenodd">
        <g id="icon/goals/rainyday">
            <g filter="url(#filter-1)" transform="translate(33.678237, 34.514526)">
                <path d="M35.3078289,70.1076316 C15.8082495,70.1076316 0,54.4135117 0,35.0538158 C0,15.6941199 15.8082495,0 35.3078289,0 C54.8078124,0 70.6156579,15.6941199 70.6156579,35.0538158 C70.6156579,54.4135117 54.8078124,70.1076316 35.3078289,70.1076316 Z" id="Fill-1-Copy-3" fill="#FFFFFF" fill-rule="nonzero"></path>
                <g id="protection" transform="translate(14.123132, 9.347684)" fill-rule="nonzero">
                    <g id="Group" transform="translate(12.998444, 7.413470)" fill="#415A6B">
                        <path d="M6.14217942,17.770088 L6.14217942,35.1191642 C6.14217942,36.0553665 5.374165,36.8159336 4.43311457,36.8159336 C3.49012819,36.8159336 2.72211377,36.055458 2.72211377,35.1191642 L2.72211377,34.0687395 C2.72211377,33.346338 2.13404943,32.7605823 1.40641316,32.7605823 C0.678776879,32.7605823 0.0887766039,33.346338 0.0887766039,34.0687395 L0.0887766039,35.1191642 C0.0887766039,37.4973322 2.03577751,39.4322479 4.43311457,39.4322479 C6.82851568,39.4322479 8.77551659,37.4973322 8.77551659,35.1191642 L8.77551659,17.770088 L6.14217942,17.770088 Z" id="Shape"></path>
                        <path d="M8.77551659,3.96483368 L8.77551659,1.39629507 C8.77551659,0.673893592 8.18745225,0.0890531665 7.45981597,0.0890531665 C6.7321797,0.0890531665 6.14217942,0.673802067 6.14217942,1.39629507 L6.14217942,3.96483368 L8.77551659,3.96483368 Z" id="Shape"></path>
                    </g>
                    <path d="M7.33665342,27.4797204 C10.0211547,27.4797204 11.2896553,27.9834703 12.929856,29.3004138 C14.6988428,27.9824635 17.4178222,27.1399821 20.4582595,27.1399821 C23.4967609,27.1399821 26.2176763,27.9824635 27.9847271,29.3004138 C29.6249279,27.9824635 30.8924144,27.4797204 33.5779297,27.4797204 C36.7393171,27.4797204 39.4798684,28.5242875 40.8526331,30.0521946 C40.0098546,18.3126442 31.2120286,9.07234854 20.4582595,9.07234854 C9.70449046,9.07234854 0.904636359,18.3126442 0.0638859673,30.0521946 C1.43471473,28.5252943 4.17526601,27.4797204 7.33665342,27.4797204" id="Shape" fill="#F3705A"></path>
                    <path d="M20.4582595,9.07335531 C17.066772,9.07335531 13.9170924,17.2446469 12.9603701,29.2800039 C14.7274209,27.9756907 17.4355222,27.1409889 20.4582595,27.1409889 C23.4809969,27.1409889 26.1871622,27.9756907 27.954213,29.2800039 C26.9973985,17.2446469 23.849747,9.07335531 20.4582595,9.07335531" id="Shape" fill="#F05540"></path>
                    <path d="M7.39463938,12.4023695 C7.39463938,13.7398144 6.30415294,14.8244692 4.95600231,14.8244692 C3.60978762,14.8244692 2.51736524,13.7398144 2.51736524,12.4023695 C2.51736524,11.0658398 4.95600231,7.932047 4.95600231,7.932047 C4.95600231,7.932047 7.39463938,11.0659313 7.39463938,12.4023695" id="Shape" fill="#8AD7F8"></path>
                    <path d="M4.95498825,14.0522785 C4.03855188,14.0522785 3.29413747,13.3123043 3.29413747,12.4033763 C3.29413747,12.2608729 3.41112346,12.144637 3.55373759,12.144637 C3.69635172,12.144637 3.81333771,12.2607814 3.81333771,12.4033763 C3.81333771,13.0291281 4.32562389,13.5368135 4.95600231,13.5368135 C5.09861644,13.5368135 5.21560243,13.6529579 5.21560243,13.7955528 C5.21560243,13.9381477 5.09760237,14.0522785 4.95498825,14.0522785" id="Shape" fill="#FFFFFF"></path>
                    <path d="M22.8968966,4.47123776 C22.8968966,5.8086827 21.804382,6.89333745 20.4582595,6.89333745 C19.1101089,6.89333745 18.0175943,5.8086827 18.0175943,4.47123776 C18.0175943,3.13379283 20.4582595,0 20.4582595,0 C20.4582595,0 22.8968966,3.13379283 22.8968966,4.47123776" id="Shape" fill="#8AD7F8"></path>
                    <path d="M20.4582595,6.12114674 C19.5418232,6.12114674 18.7954728,5.38117258 18.7954728,4.47123776 C18.7954728,4.32964963 18.9124588,4.21350527 19.0550729,4.21350527 C19.1986089,4.21350527 19.316609,4.32964963 19.316609,4.47123776 C19.316609,5.09799633 19.8279733,5.60568175 20.4592736,5.60568175 C20.6018877,5.60568175 20.7188737,5.72182611 20.7188737,5.86341424 C20.7178597,6.00591761 20.6008737,6.12114674 20.4582595,6.12114674" id="Shape" fill="#FFFFFF"></path>
                    <path d="M37.1808033,8.52668052 C37.1808033,9.86412546 36.0882887,10.9487802 34.7401381,10.9487802 C33.3939234,10.9487802 32.301501,9.86412546 32.301501,8.52668052 C32.301501,7.18923559 34.7401381,4.05544276 34.7401381,4.05544276 C34.7401381,4.05544276 37.1808033,7.18914406 37.1808033,8.52668052" id="Shape" fill="#8AD7F8"></path>
                    <path d="M34.7392162,10.1775047 C33.8227798,10.1775047 33.0783654,9.43753059 33.0783654,8.52759577 C33.0783654,8.38600764 33.1953514,8.26986327 33.3379655,8.26986327 C33.4805797,8.26986327 33.5975657,8.38600764 33.5975657,8.52759577 C33.5975657,9.15435433 34.1098518,9.66203975 34.7402302,9.66203975 C34.8828444,9.66203975 34.9998304,9.77818412 34.9998304,9.91977225 C34.9988163,10.0613604 34.8818303,10.1775047 34.7392162,10.1775047" id="Shape" fill="#FFFFFF"></path>
                    <path d="M13.0872202,21.7305285 C13.0872202,23.0679735 11.9947056,24.1526282 10.6485831,24.1526282 C9.30043246,24.1526282 8.20994601,23.0679735 8.20994601,21.7305285 C8.20994601,20.3930836 10.6485831,17.2592908 10.6485831,17.2592908 C10.6485831,17.2592908 13.0872202,20.3920768 13.0872202,21.7305285" id="Shape" fill="#8AD7F8"></path>
                    <path d="M10.647569,23.3804375 C9.73113266,23.3804375 8.98478231,22.6404634 8.98478231,21.7305285 C8.98478231,21.5889404 9.1017683,21.472796 9.24631837,21.472796 C9.3889325,21.472796 9.50591849,21.5889404 9.50591849,21.7305285 C9.50591849,22.3572871 10.0172828,22.8649725 10.6485831,22.8649725 C10.7911972,22.8649725 10.9081832,22.9811169 10.9081832,23.1237118 C10.908091,23.2662152 10.790091,23.3804375 10.647569,23.3804375" id="Shape" fill="#FFFFFF"></path>
                    <path d="M31.3398005,18.5684547 C31.3398005,19.9058996 30.247286,20.9905544 28.9011635,20.9905544 C27.5530128,20.9905544 26.4604983,19.9058996 26.4604983,18.5684547 C26.4604983,17.2310098 28.9011635,14.0972169 28.9011635,14.0972169 C28.9011635,14.0972169 31.3398005,17.2310098 31.3398005,18.5684547" id="Shape" fill="#8AD7F8"></path>
                    <path d="M28.9011635,20.2192789 C27.9847271,20.2192789 27.2383768,19.4793048 27.2383768,18.5693699 C27.2383768,18.4277818 27.3553627,18.3116374 27.4979769,18.3116374 C27.6415129,18.3116374 27.7595129,18.4277818 27.7595129,18.5693699 C27.7595129,19.1961285 28.2708772,19.7038139 28.9021775,19.7038139 C29.0447917,19.7038139 29.1617776,19.8199583 29.1617776,19.9625532 C29.1617776,20.1051481 29.0427635,20.2192789 28.9011635,20.2192789" id="Shape" fill="#FFFFFF"></path>
                </g>
            </g>
        </g>
    </g>
</svg>