<?xml version="1.0" encoding="UTF-8"?>
<svg width="199px" height="200px" viewBox="0 0 199 200" version="1.1" xmlns="http://www.w3.org/2000/svg" xmlns:xlink="http://www.w3.org/1999/xlink">
    <!-- Generator: Sketch 52.6 (67491) - http://www.bohemiancoding.com/sketch -->
    <desc>Created with Sketch.</desc>
    <defs>
        <rect id="path-1" x="0.36" y="5.68434189e-14" width="145.49396" height="145.645221" rx="0.945959731"></rect>
        <filter x="-18.2%" y="-14.8%" width="136.4%" height="136.4%" filterUnits="objectBoundingBox" id="filter-2">
            <feOffset dx="0" dy="5" in="SourceAlpha" result="shadowOffsetOuter1"></feOffset>
            <feGaussianBlur stdDeviation="8" in="shadowOffsetOuter1" result="shadowBlurOuter1"></feGaussianBlur>
            <feColorMatrix values="0 0 0 0 0   0 0 0 0 0   0 0 0 0 0  0 0 0 0.10377038 0" type="matrix" in="shadowBlurOuter1"></feColorMatrix>
        </filter>
        <linearGradient x1="-17.7886106%" y1="-34.9179731%" x2="81.1642342%" y2="112.132933%" id="linearGradient-3">
            <stop stop-color="#FBC471" offset="0%"></stop>
            <stop stop-color="#FA7D7B" offset="100%"></stop>
        </linearGradient>
        <path d="M18.4792134,0.369584267 C28.6849133,0.369584267 36.9584267,8.64309767 36.9584267,18.8487976 C36.9584267,29.0544976 28.6849133,37.328011 18.4792134,37.328011 C8.2735134,37.328011 0,29.0544976 0,18.8487976 C0,8.64309767 8.2735134,0.369584267 18.4792134,0.369584267 L18.4792134,0.369584267 Z" id="path-4"></path>
        <linearGradient x1="31.1715998%" y1="32.7947317%" x2="50%" y2="100%" id="linearGradient-5">
            <stop stop-color="#FFE8B3" offset="0%"></stop>
            <stop stop-color="#FFCC7C" offset="100%"></stop>
        </linearGradient>
        <linearGradient x1="50%" y1="91.8763689%" x2="43.6104749%" y2="0%" id="linearGradient-6">
            <stop stop-color="#D17DF9" offset="0%"></stop>
            <stop stop-color="#FD7DEE" offset="100%"></stop>
        </linearGradient>
        <path d="M13.6255814,0 C6.1004453,0 0,6.1004453 0,13.6255814 C0,14.5205096 0.0888387907,15.3944544 0.253708326,16.2414205 C1.14700144,16.6471903 2.13594614,16.9990028 2.99762791,18.2582791 C4.90439177,21.0452555 7.29213865,17.4982441 7.35781395,15.5331628 C7.4033234,14.1692421 8.56613051,13.6492899 9.27384321,13.4582593 C9.36240949,11.1282848 11.2740786,9.26539535 13.6255814,9.26539535 C16.0334941,9.26539535 17.9857674,11.2176687 17.9857674,13.6255814 C17.9857674,14.1531639 17.8873907,14.6559479 17.7159809,15.1241228 C18.5888357,15.3911842 19.5042022,14.7905686 19.6208372,14.1706047 C19.8415716,12.9960795 20.8125306,12.0390187 23.436,15.8056744 C25.1827995,18.3138714 26.5363648,15.5683168 27.24544,13.8435907 L27.2511628,13.6255814 C27.2511628,6.1004453 21.1507175,0 13.6255814,0 L13.6255814,0 Z" id="path-7"></path>
        <path d="M8.17534884,13.0805581 C8.17534884,13.3669679 8.20396256,13.6457473 8.24647437,13.9201665 C8.59092907,13.6809013 8.97326288,13.5394677 9.27384321,13.4582593 C9.36240949,11.1282848 11.2740786,9.26539535 13.6255814,9.26539535 C16.0334941,9.26539535 17.9857674,11.2176687 17.9857674,13.6255814 C17.9857674,14.1531639 17.8873907,14.6559479 17.7159809,15.1241228 C18.0487176,15.2257697 18.3871771,15.2009711 18.6858498,15.0976892 C18.9346529,14.4730926 19.075814,13.7937211 19.075814,13.0805581 C19.075814,10.0703947 16.6357448,7.63032558 13.6255814,7.63032558 C10.615418,7.63032558 8.17534884,10.0703947 8.17534884,13.0805581 Z" id="path-8"></path>
    </defs>
    <g id="Page-1" stroke="none" stroke-width="1" fill="none" fill-rule="evenodd">
        <g id="card/nudge/money-alert">
            <g transform="translate(26.100000, 18.000000)">
                <g id="Mask" fill-rule="nonzero">
                    <use fill="black" fill-opacity="1" filter="url(#filter-2)" xlink:href="#path-1"></use>
                    <use fill="#FFFFFF" xlink:href="#path-1"></use>
                </g>
                <path d="M21.5981342,129.090926 L14.0304564,129.090926 C13.5080172,129.090926 13.0844966,129.514447 13.0844966,130.036886 L13.0844966,135.712644 C13.0844966,136.235083 13.5080172,136.658604 14.0304564,136.658604 L21.5981342,136.658604 C22.1205734,136.658604 22.544094,136.235083 22.544094,135.712644 L22.544094,130.036886 C22.544094,129.514447 22.1205734,129.090926 21.5981342,129.090926 L21.5981342,129.090926 Z M21.5981342,135.712644 L14.0304564,135.712644 L14.0304564,130.982846 L17.8142953,133.347745 L21.5981342,130.982846 L21.5981342,135.712644 L21.5981342,135.712644 Z M21.5981342,130.036886 L17.8142953,132.401785 L14.0304564,130.036886 L21.5981342,130.036886 L21.5981342,130.036886 Z" id="Shape-Copy-8" fill="#000000" opacity="0.3"></path>
                <path d="M98.0841006,136.808758 C97.1532762,136.808758 96.4797529,136.475781 96.0256922,136.006585 L96.5251589,135.317926 C96.8657044,135.688742 97.4181449,136.02172 98.121939,136.02172 C98.848436,136.02172 99.1284401,135.666039 99.1284401,135.325494 C99.1284401,134.266019 96.1921811,134.924407 96.1921811,133.070326 C96.1921811,132.230313 96.9186782,131.587061 98.0311268,131.587061 C98.8105977,131.587061 99.4538503,131.844362 99.9154786,132.298422 L99.4160119,132.95681 C99.014925,132.555723 98.4776198,132.374099 97.9478824,132.374099 C97.4332803,132.374099 97.1003025,132.6314 97.1003025,133.002216 C97.1003025,133.948176 100.036561,133.365465 100.036561,135.242249 C100.036561,136.082261 99.4387149,136.808758 98.0841006,136.808758 Z M104.304732,136.717946 L100.846303,136.717946 L100.846303,131.670305 L104.304732,131.670305 L104.304732,132.449776 L101.731721,132.449776 L101.731721,133.751417 L104.251758,133.751417 L104.251758,134.530887 L101.731721,134.530887 L101.731721,135.938475 L104.304732,135.938475 L104.304732,136.717946 Z M108.671282,136.717946 L105.212853,136.717946 L105.212853,131.670305 L108.671282,131.670305 L108.671282,132.449776 L106.098271,132.449776 L106.098271,133.751417 L108.618308,133.751417 L108.618308,134.530887 L106.098271,134.530887 L106.098271,135.938475 L108.671282,135.938475 L108.671282,136.717946 Z M116.776265,136.717946 L115.890847,136.717946 L115.890847,132.820592 L114.34704,136.717946 L113.968656,136.717946 L112.417282,132.820592 L112.417282,136.717946 L111.531864,136.717946 L111.531864,131.670305 L112.780531,131.670305 L114.157848,135.136302 L115.527598,131.670305 L116.776265,131.670305 L116.776265,136.717946 Z M120.211991,136.808758 C118.698455,136.808758 117.631412,135.703877 117.631412,134.19791 C117.631412,132.691942 118.698455,131.587061 120.211991,131.587061 C121.717959,131.587061 122.792569,132.691942 122.792569,134.19791 C122.792569,135.703877 121.717959,136.808758 120.211991,136.808758 Z M120.211991,136.02172 C121.226059,136.02172 121.884447,135.234681 121.884447,134.19791 C121.884447,133.15357 121.226059,132.374099 120.211991,132.374099 C119.190354,132.374099 118.539534,133.15357 118.539534,134.19791 C118.539534,135.234681 119.190354,136.02172 120.211991,136.02172 Z M127.552638,136.717946 L126.523434,136.717946 L125.410985,134.833594 L124.525567,134.833594 L124.525567,136.717946 L123.640149,136.717946 L123.640149,131.670305 L125.857478,131.670305 C126.856412,131.670305 127.5148,132.313558 127.5148,133.25195 C127.5148,134.144936 126.924521,134.636835 126.311539,134.735215 L127.552638,136.717946 Z M125.743963,134.054124 C126.24343,134.054124 126.606678,133.736281 126.606678,133.244382 C126.606678,132.760051 126.24343,132.449776 125.743963,132.449776 L124.525567,132.449776 L124.525567,134.054124 L125.743963,134.054124 Z M131.858647,136.717946 L128.400218,136.717946 L128.400218,131.670305 L131.858647,131.670305 L131.858647,132.449776 L129.285636,132.449776 L129.285636,133.751417 L131.805673,133.751417 L131.805673,134.530887 L129.285636,134.530887 L129.285636,135.938475 L131.858647,135.938475 L131.858647,136.717946 Z" id="SEE-MORE" fill="#13C6B9"></path>
                <path d="M0.36,120.062134 L145.85396,120.062134" id="Line-Copy-5" stroke="#000000" stroke-width="0.5" opacity="0.1" stroke-linecap="square"></path>
                <path d="M20.6748,63.9 L20.2572,63.9 L20.2572,61.848 L18.3492,59.0976 L18.846,59.0976 L20.466,61.4592 L22.086,59.0976 L22.5828,59.0976 L20.6748,61.848 L20.6748,63.9 Z M24.7428,63.9864 C23.7276,63.9864 23.0796,63.1728 23.0796,62.1576 C23.0796,61.1424 23.7276,60.336 24.7428,60.336 C25.7724,60.336 26.4204,61.1424 26.4204,62.1576 C26.4204,63.1728 25.7724,63.9864 24.7428,63.9864 Z M24.7428,63.648 C25.5636,63.648 26.0172,62.9352 26.0172,62.1576 C26.0172,61.3872 25.5636,60.6744 24.7428,60.6744 C23.9364,60.6744 23.4756,61.3872 23.4756,62.1576 C23.4756,62.9352 23.9364,63.648 24.7428,63.648 Z M30.1068,63.9 L29.7324,63.9 L29.7324,63.3888 C29.4516,63.7056 28.9836,63.9864 28.4796,63.9864 C27.774,63.9864 27.3852,63.6552 27.3852,62.8704 L27.3852,60.4224 L27.7596,60.4224 L27.7596,62.784 C27.7596,63.4608 28.098,63.648 28.602,63.648 C29.0484,63.648 29.502,63.3816 29.7324,63.072 L29.7324,60.4224 L30.1068,60.4224 L30.1068,63.9 Z M34.1748,63.9864 C33.6132,63.9864 33.1812,63.8208 32.8356,63.432 L33.0588,63.1584 C33.282,63.4392 33.6924,63.6696 34.182,63.6696 C34.7652,63.6696 35.1108,63.3672 35.1108,62.964 C35.1108,62.0136 32.9148,62.5536 32.9148,61.3008 C32.9148,60.768 33.3684,60.336 34.1532,60.336 C34.7508,60.336 35.1468,60.5664 35.3988,60.8472 L35.19,61.1136 C34.9884,60.84 34.614,60.6528 34.1532,60.6528 C33.6132,60.6528 33.2892,60.9264 33.2892,61.2864 C33.2892,62.1576 35.478,61.6248 35.478,62.964 C35.478,63.5256 35.046,63.9864 34.1748,63.9864 Z M38.0268,63.9864 C37.5372,63.9864 37.098,63.7344 36.8172,63.3384 L36.8172,65.2248 L36.4428,65.2248 L36.4428,60.4224 L36.8172,60.4224 L36.8172,60.9696 C37.062,60.6168 37.5084,60.336 38.0268,60.336 C38.9556,60.336 39.582,61.0416 39.582,62.1576 C39.582,63.2664 38.9556,63.9864 38.0268,63.9864 Z M37.962,63.648 C38.7396,63.648 39.1788,63 39.1788,62.1576 C39.1788,61.3152 38.7396,60.6744 37.962,60.6744 C37.4796,60.6744 37.0188,60.9624 36.8172,61.2936 L36.8172,63.0144 C37.0188,63.3456 37.4796,63.648 37.962,63.648 Z M42.066,63.9864 C41.0508,63.9864 40.3308,63.2304 40.3308,62.1576 C40.3308,61.1496 41.0364,60.336 42.0012,60.336 C43.0596,60.336 43.6428,61.1712 43.6428,62.1792 L43.6428,62.28 L40.734,62.28 C40.77,63.036 41.274,63.6624 42.0948,63.6624 C42.534,63.6624 42.9372,63.4968 43.2324,63.18 L43.4268,63.4248 C43.0812,63.7848 42.642,63.9864 42.066,63.9864 Z M43.2612,61.9848 C43.254,61.3944 42.8652,60.66 41.994,60.66 C41.1732,60.66 40.7628,61.38 40.734,61.9848 L43.2612,61.9848 Z M47.3292,63.9 L46.9548,63.9 L46.9548,61.5456 C46.9548,60.876 46.6164,60.6744 46.1124,60.6744 C45.666,60.6744 45.2052,60.9552 44.982,61.272 L44.982,63.9 L44.6076,63.9 L44.6076,60.4224 L44.982,60.4224 L44.982,60.948 C45.234,60.6456 45.7308,60.336 46.2348,60.336 C46.9404,60.336 47.3292,60.6816 47.3292,61.4664 L47.3292,63.9 Z M49.2516,63.9864 C48.7908,63.9864 48.5676,63.7056 48.5676,63.2304 L48.5676,60.7536 L47.9916,60.7536 L47.9916,60.4224 L48.5676,60.4224 L48.5676,59.472 L48.9492,59.472 L48.9492,60.4224 L49.6548,60.4224 L49.6548,60.7536 L48.9492,60.7536 L48.9492,63.1728 C48.9492,63.4536 49.0644,63.648 49.3092,63.648 C49.4748,63.648 49.6188,63.5688 49.698,63.4824 L49.842,63.7704 C49.7052,63.9 49.5396,63.9864 49.2516,63.9864 Z M56.1276,63.9 L54.9468,63.9 L54.0036,62.1936 L53.2548,62.1936 L53.2548,63.9 L52.2324,63.9 L52.2324,59.0976 L54.4788,59.0976 C55.4796,59.0976 56.0988,59.7528 56.0988,60.6456 C56.0988,61.488 55.5588,61.9488 55.0404,62.0712 L56.1276,63.9 Z M54.3348,61.2936 C54.738,61.2936 55.0476,61.0488 55.0476,60.6384 C55.0476,60.2424 54.738,59.9976 54.3348,59.9976 L53.2548,59.9976 L53.2548,61.2936 L54.3348,61.2936 Z M60.3396,63.9 L56.7252,63.9 L56.7252,63.0936 C58.6908,61.6392 59.2668,61.1496 59.2668,60.5592 C59.2668,60.1344 58.8852,59.9328 58.4892,59.9328 C57.942,59.9328 57.5244,60.1488 57.2004,60.4872 L56.6172,59.8104 C57.0852,59.2704 57.798,59.0256 58.4676,59.0256 C59.4972,59.0256 60.3036,59.6016 60.3036,60.5592 C60.3036,61.38 59.6268,62.0928 58.3812,63 L60.3396,63 L60.3396,63.9 Z M62.2548,63.5472 C62.2548,64.0872 61.9596,64.5696 61.5132,64.8864 L61.1172,64.5624 C61.3476,64.44 61.614,64.1376 61.6716,63.8856 C61.65,63.8928 61.5924,63.9072 61.5348,63.9072 C61.2612,63.9072 61.0452,63.6912 61.0452,63.3888 C61.0452,63.072 61.3044,62.8128 61.614,62.8128 C61.9524,62.8128 62.2548,63.0792 62.2548,63.5472 Z M66.042,63.9 L65.0196,63.9 L65.0196,62.9064 L62.7228,62.9064 L62.7228,62.1 L64.6308,59.0976 L66.042,59.0976 L66.042,62.0064 L66.6612,62.0064 L66.6612,62.9064 L66.042,62.9064 L66.042,63.9 Z M65.0196,62.0064 L65.0196,60.0048 L63.7236,62.0064 L65.0196,62.0064 Z M70.3404,63.9 L69.318,63.9 L69.318,62.9064 L67.0212,62.9064 L67.0212,62.1 L68.9292,59.0976 L70.3404,59.0976 L70.3404,62.0064 L70.9596,62.0064 L70.9596,62.9064 L70.3404,62.9064 L70.3404,63.9 Z M69.318,62.0064 L69.318,60.0048 L68.022,62.0064 L69.318,62.0064 Z M73.0332,63.9792 C72.45,63.9792 71.9604,63.7848 71.622,63.4824 L72.0756,62.6976 C72.3348,62.9424 72.6084,63.072 73.0332,63.072 C73.8252,63.072 74.2356,62.4024 74.2356,61.7184 L74.2356,61.6104 C74.0052,61.9344 73.5228,62.2296 72.9972,62.2296 C72.1332,62.2296 71.3628,61.6896 71.3628,60.6672 C71.3628,59.7312 72.1044,59.0184 73.1988,59.0184 C74.6604,59.0184 75.2724,60.1416 75.2724,61.4952 C75.2724,62.9496 74.4516,63.9792 73.0332,63.9792 Z M73.2852,61.3512 C73.6524,61.3512 73.998,61.1856 74.2284,60.8976 C74.1852,60.4368 73.926,59.9256 73.2564,59.9256 C72.702,59.9256 72.3996,60.3 72.3996,60.6312 C72.3996,61.1352 72.8388,61.3512 73.2852,61.3512 Z M79.434,63.9864 C78.4188,63.9864 77.7708,63.1728 77.7708,62.1576 C77.7708,61.1424 78.4188,60.336 79.434,60.336 C80.4636,60.336 81.1116,61.1424 81.1116,62.1576 C81.1116,63.1728 80.4636,63.9864 79.434,63.9864 Z M79.434,63.648 C80.2548,63.648 80.7084,62.9352 80.7084,62.1576 C80.7084,61.3872 80.2548,60.6744 79.434,60.6744 C78.6276,60.6744 78.1668,61.3872 78.1668,62.1576 C78.1668,62.9352 78.6276,63.648 79.434,63.648 Z M84.798,63.9 L84.4236,63.9 L84.4236,61.5456 C84.4236,60.876 84.0852,60.6744 83.5812,60.6744 C83.1348,60.6744 82.674,60.9552 82.4508,61.272 L82.4508,63.9 L82.0764,63.9 L82.0764,60.4224 L82.4508,60.4224 L82.4508,60.948 C82.7028,60.6456 83.1996,60.336 83.7036,60.336 C84.4092,60.336 84.798,60.6816 84.798,61.4664 L84.798,63.9 Z M91.1196,63.9 L87.7212,63.9 L87.7212,59.0976 L91.1196,59.0976 L91.1196,59.9976 L88.7436,59.9976 L88.7436,61.0056 L91.0692,61.0056 L91.0692,61.9056 L88.7436,61.9056 L88.7436,63 L91.1196,63 L91.1196,63.9 Z M94.9068,63.9 L93.9852,63.9 L93.9852,63.5328 C93.7476,63.8208 93.3372,63.9864 92.8836,63.9864 C92.3292,63.9864 91.6812,63.612 91.6812,62.8344 C91.6812,62.0136 92.3292,61.7112 92.8836,61.7112 C93.3516,61.7112 93.7548,61.8624 93.9852,62.136 L93.9852,61.6968 C93.9852,61.344 93.6828,61.1136 93.222,61.1136 C92.8548,61.1136 92.5092,61.2576 92.2212,61.524 L91.8612,60.8832 C92.286,60.5016 92.8332,60.336 93.3804,60.336 C94.1796,60.336 94.9068,60.6528 94.9068,61.6536 L94.9068,63.9 Z M93.2508,63.3672 C93.546,63.3672 93.834,63.2664 93.9852,63.0648 L93.9852,62.6328 C93.834,62.4312 93.546,62.3232 93.2508,62.3232 C92.8908,62.3232 92.5956,62.5176 92.5956,62.8488 C92.5956,63.18 92.8908,63.3672 93.2508,63.3672 Z M96.9732,63.9864 C96.3324,63.9864 95.994,63.6552 95.994,63.0288 L95.994,61.2216 L95.418,61.2216 L95.418,60.4224 L95.994,60.4224 L95.994,59.472 L96.9084,59.472 L96.9084,60.4224 L97.614,60.4224 L97.614,61.2216 L96.9084,61.2216 L96.9084,62.784 C96.9084,63.0072 97.0236,63.1728 97.2252,63.1728 C97.362,63.1728 97.4916,63.1224 97.542,63.0648 L97.7364,63.7632 C97.5996,63.8856 97.3548,63.9864 96.9732,63.9864 Z M98.694,60.048 C98.3988,60.048 98.154,59.8032 98.154,59.5008 C98.154,59.1984 98.3988,58.9608 98.694,58.9608 C98.9964,58.9608 99.2412,59.1984 99.2412,59.5008 C99.2412,59.8032 98.9964,60.048 98.694,60.048 Z M99.1548,63.9 L98.2404,63.9 L98.2404,60.4224 L99.1548,60.4224 L99.1548,63.9 Z M103.3308,63.9 L102.4092,63.9 L102.4092,61.7976 C102.4092,61.3152 102.1572,61.1496 101.7684,61.1496 C101.4084,61.1496 101.1348,61.3512 100.9764,61.5528 L100.9764,63.9 L100.062,63.9 L100.062,60.4224 L100.9764,60.4224 L100.9764,60.8688 C101.1996,60.6096 101.6316,60.336 102.1932,60.336 C102.9636,60.336 103.3308,60.768 103.3308,61.4448 L103.3308,63.9 Z M105.6564,65.3112 C105.066,65.3112 104.598,65.1744 104.1588,64.7928 L104.5692,64.1376 C104.85,64.44 105.2244,64.5624 105.6564,64.5624 C106.0956,64.5624 106.6212,64.3752 106.6212,63.6696 L106.6212,63.3312 C106.3476,63.6768 105.9732,63.8712 105.5412,63.8712 C104.6772,63.8712 104.0076,63.2664 104.0076,62.1072 C104.0076,60.9696 104.6628,60.336 105.5412,60.336 C105.9588,60.336 106.3404,60.5088 106.6212,60.8688 L106.6212,60.4224 L107.5356,60.4224 L107.5356,63.6696 C107.5356,64.9872 106.5132,65.3112 105.6564,65.3112 Z M105.8364,63.0648 C106.1316,63.0648 106.4628,62.892 106.6212,62.6688 L106.6212,61.5384 C106.4628,61.3152 106.1316,61.1496 105.8364,61.1496 C105.3108,61.1496 104.9508,61.5096 104.9508,62.1072 C104.9508,62.7048 105.3108,63.0648 105.8364,63.0648 Z M112.5972,63.9864 C111.1428,63.9864 110.0844,62.9496 110.0844,61.5024 C110.0844,60.0552 111.1428,59.0184 112.5972,59.0184 C114.0444,59.0184 115.1028,60.0552 115.1028,61.5024 C115.1028,62.9496 114.0444,63.9864 112.5972,63.9864 Z M112.5972,63.0792 C113.4828,63.0792 114.0516,62.3952 114.0516,61.5024 C114.0516,60.6024 113.4828,59.9256 112.5972,59.9256 C111.7044,59.9256 111.1356,60.6024 111.1356,61.5024 C111.1356,62.3952 111.7044,63.0792 112.5972,63.0792 Z M119.0628,63.9 L118.1484,63.9 L118.1484,63.4608 C117.9108,63.72 117.4932,63.9864 116.9244,63.9864 C116.1612,63.9864 115.8012,63.5688 115.8012,62.892 L115.8012,60.4224 L116.7156,60.4224 L116.7156,62.532 C116.7156,63.0144 116.9676,63.1728 117.3564,63.1728 C117.7092,63.1728 117.99,62.9784 118.1484,62.7768 L118.1484,60.4224 L119.0628,60.4224 L119.0628,63.9 Z M121.1364,63.9864 C120.4956,63.9864 120.1572,63.6552 120.1572,63.0288 L120.1572,61.2216 L119.5812,61.2216 L119.5812,60.4224 L120.1572,60.4224 L120.1572,59.472 L121.0716,59.472 L121.0716,60.4224 L121.7772,60.4224 L121.7772,61.2216 L121.0716,61.2216 L121.0716,62.784 C121.0716,63.0072 121.1868,63.1728 121.3884,63.1728 C121.5252,63.1728 121.6548,63.1224 121.7052,63.0648 L121.8996,63.7632 C121.7628,63.8856 121.518,63.9864 121.1364,63.9864 Z M128.394,63.9 L127.2276,63.9 C127.1268,63.8064 127.0044,63.684 126.8676,63.54 C126.5076,63.8136 126.0684,63.9864 125.5572,63.9864 C124.6788,63.9864 123.9732,63.5256 123.9732,62.5968 C123.9732,61.8696 124.4556,61.488 125.01,61.2072 C124.8156,60.8544 124.6932,60.5016 124.6932,60.1776 C124.6932,59.5296 125.262,59.0256 126.0612,59.0256 C126.738,59.0256 127.3212,59.3928 127.3212,60.0408 C127.3212,60.7752 126.738,61.0848 126.1476,61.3584 C126.2916,61.5528 126.4356,61.7328 126.558,61.8768 C126.6948,62.0496 126.8316,62.2152 126.9684,62.3736 C127.17,62.0568 127.3212,61.7184 127.4076,61.4376 L128.1348,61.776 C127.962,62.1576 127.746,62.568 127.4652,62.928 C127.7532,63.2448 128.0628,63.5616 128.394,63.9 Z M125.6868,63.2664 C125.9316,63.2664 126.1692,63.1728 126.378,63.0216 C126.162,62.784 125.9604,62.5536 125.8452,62.4096 C125.6868,62.2152 125.514,61.9992 125.3628,61.776 C125.1108,61.956 124.9452,62.1792 124.9452,62.5104 C124.9452,62.9784 125.2908,63.2664 125.6868,63.2664 Z M125.6004,60.1992 C125.6004,60.3936 125.6796,60.6168 125.8092,60.8472 C126.2124,60.6528 126.5292,60.444 126.5292,60.0912 C126.5292,59.8392 126.342,59.688 126.1044,59.688 C125.8236,59.688 125.6004,59.8968 125.6004,60.1992 Z M25.344,72.9 L24.3144,72.9 L24.3144,68.9976 L22.9104,68.9976 L22.9104,68.0976 L26.7408,68.0976 L26.7408,68.9976 L25.344,68.9976 L25.344,72.9 Z M30.384,72.9 L29.4624,72.9 L29.4624,72.5328 C29.2248,72.8208 28.8144,72.9864 28.3608,72.9864 C27.8064,72.9864 27.1584,72.612 27.1584,71.8344 C27.1584,71.0136 27.8064,70.7112 28.3608,70.7112 C28.8288,70.7112 29.232,70.8624 29.4624,71.136 L29.4624,70.6968 C29.4624,70.344 29.16,70.1136 28.6992,70.1136 C28.332,70.1136 27.9864,70.2576 27.6984,70.524 L27.3384,69.8832 C27.7632,69.5016 28.3104,69.336 28.8576,69.336 C29.6568,69.336 30.384,69.6528 30.384,70.6536 L30.384,72.9 Z M28.728,72.3672 C29.0232,72.3672 29.3112,72.2664 29.4624,72.0648 L29.4624,71.6328 C29.3112,71.4312 29.0232,71.3232 28.728,71.3232 C28.368,71.3232 28.0728,71.5176 28.0728,71.8488 C28.0728,72.18 28.368,72.3672 28.728,72.3672 Z M34.6824,72.9 L33.5376,72.9 L32.616,71.5608 L32.1984,72.0072 L32.1984,72.9 L31.284,72.9 L31.284,68.0976 L32.1984,68.0976 L32.1984,70.9704 L33.516,69.4224 L34.6392,69.4224 L33.264,70.9992 L34.6824,72.9 Z M36.7776,72.9864 C35.7192,72.9864 34.92,72.2736 34.92,71.1576 C34.92,70.1496 35.6688,69.336 36.72,69.336 C37.764,69.336 38.4624,70.1136 38.4624,71.244 L38.4624,71.46 L35.8776,71.46 C35.9424,71.8848 36.288,72.2376 36.8784,72.2376 C37.1736,72.2376 37.5768,72.1152 37.8,71.8992 L38.2104,72.504 C37.8648,72.8208 37.3176,72.9864 36.7776,72.9864 Z M37.584,70.8264 C37.5552,70.4952 37.3248,70.0848 36.72,70.0848 C36.1512,70.0848 35.9064,70.4808 35.8704,70.8264 L37.584,70.8264 Z M40.7376,72.9864 C39.5928,72.9864 38.9016,72.144 38.9016,71.1576 C38.9016,70.1712 39.5928,69.336 40.7376,69.336 C41.8896,69.336 42.5808,70.1712 42.5808,71.1576 C42.5808,72.144 41.8896,72.9864 40.7376,72.9864 Z M40.7376,72.1728 C41.3136,72.1728 41.6304,71.7048 41.6304,71.1576 C41.6304,70.6176 41.3136,70.1496 40.7376,70.1496 C40.1688,70.1496 39.852,70.6176 39.852,71.1576 C39.852,71.7048 40.1688,72.1728 40.7376,72.1728 Z M46.5264,72.9 L45.612,72.9 L45.612,72.4608 C45.3744,72.72 44.9568,72.9864 44.388,72.9864 C43.6248,72.9864 43.2648,72.5688 43.2648,71.892 L43.2648,69.4224 L44.1792,69.4224 L44.1792,71.532 C44.1792,72.0144 44.4312,72.1728 44.82,72.1728 C45.1728,72.1728 45.4536,71.9784 45.612,71.7768 L45.612,69.4224 L46.5264,69.4224 L46.5264,72.9 Z M48.6,72.9864 C47.9592,72.9864 47.6208,72.6552 47.6208,72.0288 L47.6208,70.2216 L47.0448,70.2216 L47.0448,69.4224 L47.6208,69.4224 L47.6208,68.472 L48.5352,68.472 L48.5352,69.4224 L49.2408,69.4224 L49.2408,70.2216 L48.5352,70.2216 L48.5352,71.784 C48.5352,72.0072 48.6504,72.1728 48.852,72.1728 C48.9888,72.1728 49.1184,72.1224 49.1688,72.0648 L49.3632,72.7632 C49.2264,72.8856 48.9816,72.9864 48.6,72.9864 Z M51.12,72.9864 C50.5152,72.9864 49.932,72.7848 49.5648,72.4464 L49.9608,71.784 C50.22,72.0288 50.7312,72.2664 51.1632,72.2664 C51.5592,72.2664 51.7464,72.1152 51.7464,71.8992 C51.7464,71.3304 49.6872,71.7984 49.6872,70.4304 C49.6872,69.8472 50.1912,69.336 51.1128,69.336 C51.696,69.336 52.164,69.5376 52.5096,69.8112 L52.1424,70.4592 C51.9336,70.2432 51.5376,70.056 51.1128,70.056 C50.7816,70.056 50.5656,70.2 50.5656,70.3944 C50.5656,70.9056 52.632,70.4736 52.632,71.8776 C52.632,72.5184 52.0848,72.9864 51.12,72.9864 Z M56.7648,72.9864 C55.7496,72.9864 55.1016,72.1728 55.1016,71.1576 C55.1016,70.1424 55.7496,69.336 56.7648,69.336 C57.7944,69.336 58.4424,70.1424 58.4424,71.1576 C58.4424,72.1728 57.7944,72.9864 56.7648,72.9864 Z M56.7648,72.648 C57.5856,72.648 58.0392,71.9352 58.0392,71.1576 C58.0392,70.3872 57.5856,69.6744 56.7648,69.6744 C55.9584,69.6744 55.4976,70.3872 55.4976,71.1576 C55.4976,71.9352 55.9584,72.648 56.7648,72.648 Z M60.768,72.9 L60.3432,72.9 L58.8744,69.4224 L59.292,69.4224 L60.5592,72.4608 L61.812,69.4224 L62.2368,69.4224 L60.768,72.9 Z M64.4112,72.9864 C63.396,72.9864 62.676,72.2304 62.676,71.1576 C62.676,70.1496 63.3816,69.336 64.3464,69.336 C65.4048,69.336 65.988,70.1712 65.988,71.1792 L65.988,71.28 L63.0792,71.28 C63.1152,72.036 63.6192,72.6624 64.44,72.6624 C64.8792,72.6624 65.2824,72.4968 65.5776,72.18 L65.772,72.4248 C65.4264,72.7848 64.9872,72.9864 64.4112,72.9864 Z M65.6064,70.9848 C65.5992,70.3944 65.2104,69.66 64.3392,69.66 C63.5184,69.66 63.108,70.38 63.0792,70.9848 L65.6064,70.9848 Z M67.3272,72.9 L66.9528,72.9 L66.9528,69.4224 L67.3272,69.4224 L67.3272,70.02 C67.6224,69.6312 68.0184,69.3504 68.5008,69.3504 L68.5008,69.7608 C68.436,69.7464 68.3856,69.7464 68.3136,69.7464 C67.9608,69.7464 67.4856,70.0632 67.3272,70.3656 L67.3272,72.9 Z M71.856,72.9864 C71.3952,72.9864 71.172,72.7056 71.172,72.2304 L71.172,69.7536 L70.596,69.7536 L70.596,69.4224 L71.172,69.4224 L71.172,68.472 L71.5536,68.472 L71.5536,69.4224 L72.2592,69.4224 L72.2592,69.7536 L71.5536,69.7536 L71.5536,72.1728 C71.5536,72.4536 71.6688,72.648 71.9136,72.648 C72.0792,72.648 72.2232,72.5688 72.3024,72.4824 L72.4464,72.7704 C72.3096,72.9 72.144,72.9864 71.856,72.9864 Z M75.8016,72.9 L75.4272,72.9 L75.4272,70.5312 C75.4272,69.8616 75.0888,69.6744 74.5848,69.6744 C74.1384,69.6744 73.6776,69.9552 73.4544,70.272 L73.4544,72.9 L73.08,72.9 L73.08,68.0976 L73.4544,68.0976 L73.4544,69.948 C73.7064,69.6456 74.2032,69.336 74.7072,69.336 C75.4128,69.336 75.8016,69.6672 75.8016,70.452 L75.8016,72.9 Z M78.5088,72.9864 C77.4936,72.9864 76.7736,72.2304 76.7736,71.1576 C76.7736,70.1496 77.4792,69.336 78.444,69.336 C79.5024,69.336 80.0856,70.1712 80.0856,71.1792 L80.0856,71.28 L77.1768,71.28 C77.2128,72.036 77.7168,72.6624 78.5376,72.6624 C78.9768,72.6624 79.38,72.4968 79.6752,72.18 L79.8696,72.4248 C79.524,72.7848 79.0848,72.9864 78.5088,72.9864 Z M79.704,70.9848 C79.6968,70.3944 79.308,69.66 78.4368,69.66 C77.616,69.66 77.2056,70.38 77.1768,70.9848 L79.704,70.9848 Z M84.4992,72.9864 C84.0096,72.9864 83.5704,72.7344 83.2896,72.3384 L83.2896,74.2248 L82.9152,74.2248 L82.9152,69.4224 L83.2896,69.4224 L83.2896,69.9696 C83.5344,69.6168 83.9808,69.336 84.4992,69.336 C85.428,69.336 86.0544,70.0416 86.0544,71.1576 C86.0544,72.2664 85.428,72.9864 84.4992,72.9864 Z M84.4344,72.648 C85.212,72.648 85.6512,72 85.6512,71.1576 C85.6512,70.3152 85.212,69.6744 84.4344,69.6744 C83.952,69.6744 83.4912,69.9624 83.2896,70.2936 L83.2896,72.0144 C83.4912,72.3456 83.952,72.648 84.4344,72.648 Z M89.5824,72.9 L89.208,72.9 L89.208,72.4896 C88.8984,72.828 88.5096,72.9864 88.0272,72.9864 C87.4296,72.9864 86.8104,72.576 86.8104,71.8272 C86.8104,71.0712 87.4224,70.6752 88.0272,70.6752 C88.5096,70.6752 88.9056,70.8336 89.208,71.172 L89.208,70.4664 C89.208,69.948 88.7904,69.6672 88.2792,69.6672 C87.84,69.6672 87.5016,69.8184 87.1848,70.1784 L86.976,69.9192 C87.336,69.5304 87.7392,69.336 88.3152,69.336 C89.0208,69.336 89.5824,69.6744 89.5824,70.452 L89.5824,72.9 Z M88.1568,72.6912 C88.5744,72.6912 88.9632,72.5328 89.208,72.216 L89.208,71.4528 C88.9632,71.1288 88.5744,70.9704 88.1568,70.9704 C87.588,70.9704 87.2064,71.3376 87.2064,71.8344 C87.2064,72.324 87.588,72.6912 88.1568,72.6912 Z M91.7856,72.9864 C91.224,72.9864 90.792,72.8208 90.4464,72.432 L90.6696,72.1584 C90.8928,72.4392 91.3032,72.6696 91.7928,72.6696 C92.376,72.6696 92.7216,72.3672 92.7216,71.964 C92.7216,71.0136 90.5256,71.5536 90.5256,70.3008 C90.5256,69.768 90.9792,69.336 91.764,69.336 C92.3616,69.336 92.7576,69.5664 93.0096,69.8472 L92.8008,70.1136 C92.5992,69.84 92.2248,69.6528 91.764,69.6528 C91.224,69.6528 90.9,69.9264 90.9,70.2864 C90.9,71.1576 93.0888,70.6248 93.0888,71.964 C93.0888,72.5256 92.6568,72.9864 91.7856,72.9864 Z M94.8096,72.9864 C94.3488,72.9864 94.1256,72.7056 94.1256,72.2304 L94.1256,69.7536 L93.5496,69.7536 L93.5496,69.4224 L94.1256,69.4224 L94.1256,68.472 L94.5072,68.472 L94.5072,69.4224 L95.2128,69.4224 L95.2128,69.7536 L94.5072,69.7536 L94.5072,72.1728 C94.5072,72.4536 94.6224,72.648 94.8672,72.648 C95.0328,72.648 95.1768,72.5688 95.256,72.4824 L95.4,72.7704 C95.2632,72.9 95.0976,72.9864 94.8096,72.9864 Z M99.2664,72.9792 C98.64,72.9792 98.2584,72.7272 97.9704,72.3672 L98.2152,72.072 C98.4528,72.3816 98.7408,72.6048 99.2664,72.6048 C100.3248,72.6048 100.6848,71.5032 100.6848,70.4952 L100.6848,70.272 C100.4832,70.6032 99.9288,71.0712 99.2736,71.0712 C98.4096,71.0712 97.7256,70.5744 97.7256,69.552 C97.7256,68.7672 98.316,68.0184 99.3384,68.0184 C100.6344,68.0184 101.1024,69.2136 101.1024,70.5024 C101.1024,71.7336 100.5912,72.9792 99.2664,72.9792 Z M99.3456,70.704 C99.8712,70.704 100.3824,70.3656 100.656,69.8832 C100.5984,69.228 100.26,68.3928 99.3528,68.3928 C98.532,68.3928 98.1432,69.0264 98.1432,69.5448 C98.1432,70.3296 98.6616,70.704 99.3456,70.704 Z M103.716,72.9864 C102.42,72.9864 101.9376,71.64 101.9376,70.5024 C101.9376,69.3576 102.42,68.0256 103.716,68.0256 C104.9976,68.0256 105.4872,69.3576 105.4872,70.5024 C105.4872,71.64 104.9976,72.9864 103.716,72.9864 Z M103.716,72.612 C104.7168,72.612 105.048,71.4888 105.048,70.5024 C105.048,69.5088 104.724,68.4 103.716,68.4 C102.7008,68.4 102.3696,69.5088 102.3696,70.5024 C102.3696,71.4888 102.7008,72.612 103.716,72.612 Z M111.2904,72.9 L110.9088,72.9 L110.9088,72.3456 C110.664,72.7056 110.2176,72.9864 109.6992,72.9864 C108.7776,72.9864 108.1512,72.2808 108.1512,71.1648 C108.1512,70.0632 108.7776,69.336 109.6992,69.336 C110.196,69.336 110.6352,69.588 110.9088,69.984 L110.9088,68.0976 L111.2904,68.0976 L111.2904,72.9 Z M109.764,72.648 C110.2536,72.648 110.7072,72.36 110.9088,72.0288 L110.9088,70.308 C110.7072,69.9696 110.2536,69.6744 109.764,69.6744 C108.9936,69.6744 108.5472,70.3224 108.5472,71.1648 C108.5472,72.0072 108.9936,72.648 109.764,72.648 Z M115.0416,72.9 L114.6672,72.9 L114.6672,72.4896 C114.3576,72.828 113.9688,72.9864 113.4864,72.9864 C112.8888,72.9864 112.2696,72.576 112.2696,71.8272 C112.2696,71.0712 112.8816,70.6752 113.4864,70.6752 C113.9688,70.6752 114.3648,70.8336 114.6672,71.172 L114.6672,70.4664 C114.6672,69.948 114.2496,69.6672 113.7384,69.6672 C113.2992,69.6672 112.9608,69.8184 112.644,70.1784 L112.4352,69.9192 C112.7952,69.5304 113.1984,69.336 113.7744,69.336 C114.48,69.336 115.0416,69.6744 115.0416,70.452 L115.0416,72.9 Z M113.616,72.6912 C114.0336,72.6912 114.4224,72.5328 114.6672,72.216 L114.6672,71.4528 C114.4224,71.1288 114.0336,70.9704 113.616,70.9704 C113.0472,70.9704 112.6656,71.3376 112.6656,71.8344 C112.6656,72.324 113.0472,72.6912 113.616,72.6912 Z M115.9776,74.2608 L116.0424,73.9152 C116.1216,73.9512 116.2584,73.9728 116.3448,73.9728 C116.5752,73.9728 116.7336,73.8792 116.8776,73.548 L117.1512,72.9288 L115.6752,69.4224 L116.0928,69.4224 L117.36,72.4608 L118.6128,69.4224 L119.0376,69.4224 L117.2376,73.6632 C117.0504,74.1024 116.7552,74.3112 116.352,74.3112 C116.2296,74.3112 116.0712,74.2896 115.9776,74.2608 Z M120.708,72.9864 C120.1464,72.9864 119.7144,72.8208 119.3688,72.432 L119.592,72.1584 C119.8152,72.4392 120.2256,72.6696 120.7152,72.6696 C121.2984,72.6696 121.644,72.3672 121.644,71.964 C121.644,71.0136 119.448,71.5536 119.448,70.3008 C119.448,69.768 119.9016,69.336 120.6864,69.336 C121.284,69.336 121.68,69.5664 121.932,69.8472 L121.7232,70.1136 C121.5216,69.84 121.1472,69.6528 120.6864,69.6528 C120.1464,69.6528 119.8224,69.9264 119.8224,70.2864 C119.8224,71.1576 122.0112,70.6248 122.0112,71.964 C122.0112,72.5256 121.5792,72.9864 120.708,72.9864 Z M123.1848,72.9648 C123.012,72.9648 122.8608,72.8208 122.8608,72.648 C122.8608,72.4824 123.012,72.3384 123.1848,72.3384 C123.3576,72.3384 123.5016,72.4824 123.5016,72.648 C123.5016,72.8208 123.3576,72.9648 123.1848,72.9648 Z M24.1056,81.9 L23.688,81.9 L23.688,77.472 L22.1184,77.472 L22.1184,77.0976 L25.6752,77.0976 L25.6752,77.472 L24.1056,77.472 L24.1056,81.9 Z M29.232,81.9 L28.8576,81.9 L28.8576,79.5312 C28.8576,78.8616 28.5192,78.6744 28.0152,78.6744 C27.5688,78.6744 27.108,78.9552 26.8848,79.272 L26.8848,81.9 L26.5104,81.9 L26.5104,77.0976 L26.8848,77.0976 L26.8848,78.948 C27.1368,78.6456 27.6336,78.336 28.1376,78.336 C28.8432,78.336 29.232,78.6672 29.232,79.452 L29.232,81.9 Z M32.9832,81.9 L32.6088,81.9 L32.6088,81.4896 C32.2992,81.828 31.9104,81.9864 31.428,81.9864 C30.8304,81.9864 30.2112,81.576 30.2112,80.8272 C30.2112,80.0712 30.8232,79.6752 31.428,79.6752 C31.9104,79.6752 32.3064,79.8336 32.6088,80.172 L32.6088,79.4664 C32.6088,78.948 32.1912,78.6672 31.68,78.6672 C31.2408,78.6672 30.9024,78.8184 30.5856,79.1784 L30.3768,78.9192 C30.7368,78.5304 31.14,78.336 31.716,78.336 C32.4216,78.336 32.9832,78.6744 32.9832,79.452 L32.9832,81.9 Z M31.5576,81.6912 C31.9752,81.6912 32.364,81.5328 32.6088,81.216 L32.6088,80.4528 C32.364,80.1288 31.9752,79.9704 31.5576,79.9704 C30.9888,79.9704 30.6072,80.3376 30.6072,80.8344 C30.6072,81.324 30.9888,81.6912 31.5576,81.6912 Z M34.9056,81.9864 C34.4448,81.9864 34.2216,81.7056 34.2216,81.2304 L34.2216,78.7536 L33.6456,78.7536 L33.6456,78.4224 L34.2216,78.4224 L34.2216,77.472 L34.6032,77.472 L34.6032,78.4224 L35.3088,78.4224 L35.3088,78.7536 L34.6032,78.7536 L34.6032,81.1728 C34.6032,81.4536 34.7184,81.648 34.9632,81.648 C35.1288,81.648 35.2728,81.5688 35.352,81.4824 L35.496,81.7704 C35.3592,81.9 35.1936,81.9864 34.9056,81.9864 Z M36.6912,77.4864 C36.6912,77.8896 36.4536,78.264 36.1728,78.4656 L35.964,78.2928 C36.1944,78.1344 36.3672,77.8536 36.3816,77.6232 C36.3816,77.6304 36.3312,77.6376 36.3096,77.6376 C36.1368,77.6376 36.0144,77.508 36.0144,77.3352 C36.0144,77.1696 36.1512,77.0256 36.324,77.0256 C36.5184,77.0256 36.6912,77.1912 36.6912,77.4864 Z M38.7432,81.9864 C38.1816,81.9864 37.7496,81.8208 37.404,81.432 L37.6272,81.1584 C37.8504,81.4392 38.2608,81.6696 38.7504,81.6696 C39.3336,81.6696 39.6792,81.3672 39.6792,80.964 C39.6792,80.0136 37.4832,80.5536 37.4832,79.3008 C37.4832,78.768 37.9368,78.336 38.7216,78.336 C39.3192,78.336 39.7152,78.5664 39.9672,78.8472 L39.7584,79.1136 C39.5568,78.84 39.1824,78.6528 38.7216,78.6528 C38.1816,78.6528 37.8576,78.9264 37.8576,79.2864 C37.8576,80.1576 40.0464,79.6248 40.0464,80.964 C40.0464,81.5256 39.6144,81.9864 38.7432,81.9864 Z M46.6632,81.9 L45.4824,81.9 L44.5392,80.1936 L43.7904,80.1936 L43.7904,81.9 L42.768,81.9 L42.768,77.0976 L45.0144,77.0976 C46.0152,77.0976 46.6344,77.7528 46.6344,78.6456 C46.6344,79.488 46.0944,79.9488 45.576,80.0712 L46.6632,81.9 Z M44.8704,79.2936 C45.2736,79.2936 45.5832,79.0488 45.5832,78.6384 C45.5832,78.2424 45.2736,77.9976 44.8704,77.9976 L43.7904,77.9976 L43.7904,79.2936 L44.8704,79.2936 Z M49.2408,81.9864 C47.7792,81.9864 47.1672,80.8632 47.1672,79.5096 C47.1672,78.0552 47.988,77.0256 49.4064,77.0256 C49.9896,77.0256 50.4792,77.22 50.8248,77.5224 L50.364,78.3072 C50.1048,78.0624 49.8312,77.9328 49.4064,77.9328 C48.7008,77.9328 48.204,78.5304 48.204,79.2936 C48.204,79.3296 48.204,79.3584 48.2112,79.3944 C48.4344,79.0704 48.9168,78.7752 49.4424,78.7752 C50.3064,78.7752 51.084,79.3152 51.084,80.3376 C51.084,81.2736 50.3352,81.9864 49.2408,81.9864 Z M49.1832,81.0792 C49.7376,81.0792 50.04,80.7048 50.04,80.3736 C50.04,79.8696 49.608,79.6536 49.1544,79.6536 C48.7944,79.6536 48.4416,79.8192 48.2112,80.1072 C48.2544,80.568 48.5136,81.0792 49.1832,81.0792 Z M53.6184,81.9864 C52.1568,81.9864 51.5448,80.8632 51.5448,79.5096 C51.5448,78.0552 52.3656,77.0256 53.784,77.0256 C54.3672,77.0256 54.8568,77.22 55.2024,77.5224 L54.7416,78.3072 C54.4824,78.0624 54.2088,77.9328 53.784,77.9328 C53.0784,77.9328 52.5816,78.5304 52.5816,79.2936 C52.5816,79.3296 52.5816,79.3584 52.5888,79.3944 C52.812,79.0704 53.2944,78.7752 53.82,78.7752 C54.684,78.7752 55.4616,79.3152 55.4616,80.3376 C55.4616,81.2736 54.7128,81.9864 53.6184,81.9864 Z M53.5608,81.0792 C54.1152,81.0792 54.4176,80.7048 54.4176,80.3736 C54.4176,79.8696 53.9856,79.6536 53.532,79.6536 C53.172,79.6536 52.8192,79.8192 52.5888,80.1072 C52.632,80.568 52.8912,81.0792 53.5608,81.0792 Z M59.7096,81.9864 C59.22,81.9864 58.7808,81.7344 58.5,81.3384 L58.5,83.2248 L58.1256,83.2248 L58.1256,78.4224 L58.5,78.4224 L58.5,78.9696 C58.7448,78.6168 59.1912,78.336 59.7096,78.336 C60.6384,78.336 61.2648,79.0416 61.2648,80.1576 C61.2648,81.2664 60.6384,81.9864 59.7096,81.9864 Z M59.6448,81.648 C60.4224,81.648 60.8616,81 60.8616,80.1576 C60.8616,79.3152 60.4224,78.6744 59.6448,78.6744 C59.1624,78.6744 58.7016,78.9624 58.5,79.2936 L58.5,81.0144 C58.7016,81.3456 59.1624,81.648 59.6448,81.648 Z M63.7488,81.9864 C62.7336,81.9864 62.0136,81.2304 62.0136,80.1576 C62.0136,79.1496 62.7192,78.336 63.684,78.336 C64.7424,78.336 65.3256,79.1712 65.3256,80.1792 L65.3256,80.28 L62.4168,80.28 C62.4528,81.036 62.9568,81.6624 63.7776,81.6624 C64.2168,81.6624 64.62,81.4968 64.9152,81.18 L65.1096,81.4248 C64.764,81.7848 64.3248,81.9864 63.7488,81.9864 Z M64.944,79.9848 C64.9368,79.3944 64.548,78.66 63.6768,78.66 C62.856,78.66 62.4456,79.38 62.4168,79.9848 L64.944,79.9848 Z M66.6648,81.9 L66.2904,81.9 L66.2904,78.4224 L66.6648,78.4224 L66.6648,79.02 C66.96,78.6312 67.356,78.3504 67.8384,78.3504 L67.8384,78.7608 C67.7736,78.7464 67.7232,78.7464 67.6512,78.7464 C67.2984,78.7464 66.8232,79.0632 66.6648,79.3656 L66.6648,81.9 Z M73.3824,81.9 L73.0008,81.9 L73.0008,81.3456 C72.756,81.7056 72.3096,81.9864 71.7912,81.9864 C70.8696,81.9864 70.2432,81.2808 70.2432,80.1648 C70.2432,79.0632 70.8696,78.336 71.7912,78.336 C72.288,78.336 72.7272,78.588 73.0008,78.984 L73.0008,77.0976 L73.3824,77.0976 L73.3824,81.9 Z M71.856,81.648 C72.3456,81.648 72.7992,81.36 73.0008,81.0288 L73.0008,79.308 C72.7992,78.9696 72.3456,78.6744 71.856,78.6744 C71.0856,78.6744 70.6392,79.3224 70.6392,80.1648 C70.6392,81.0072 71.0856,81.648 71.856,81.648 Z M77.1336,81.9 L76.7592,81.9 L76.7592,81.4896 C76.4496,81.828 76.0608,81.9864 75.5784,81.9864 C74.9808,81.9864 74.3616,81.576 74.3616,80.8272 C74.3616,80.0712 74.9736,79.6752 75.5784,79.6752 C76.0608,79.6752 76.4568,79.8336 76.7592,80.172 L76.7592,79.4664 C76.7592,78.948 76.3416,78.6672 75.8304,78.6672 C75.3912,78.6672 75.0528,78.8184 74.736,79.1784 L74.5272,78.9192 C74.8872,78.5304 75.2904,78.336 75.8664,78.336 C76.572,78.336 77.1336,78.6744 77.1336,79.452 L77.1336,81.9 Z M75.708,81.6912 C76.1256,81.6912 76.5144,81.5328 76.7592,81.216 L76.7592,80.4528 C76.5144,80.1288 76.1256,79.9704 75.708,79.9704 C75.1392,79.9704 74.7576,80.3376 74.7576,80.8344 C74.7576,81.324 75.1392,81.6912 75.708,81.6912 Z M78.0696,83.2608 L78.1344,82.9152 C78.2136,82.9512 78.3504,82.9728 78.4368,82.9728 C78.6672,82.9728 78.8256,82.8792 78.9696,82.548 L79.2432,81.9288 L77.7672,78.4224 L78.1848,78.4224 L79.452,81.4608 L80.7048,78.4224 L81.1296,78.4224 L79.3296,82.6632 C79.1424,83.1024 78.8472,83.3112 78.444,83.3112 C78.3216,83.3112 78.1632,83.2896 78.0696,83.2608 Z M81.972,81.9648 C81.7992,81.9648 81.648,81.8208 81.648,81.648 C81.648,81.4824 81.7992,81.3384 81.972,81.3384 C82.1448,81.3384 82.2888,81.4824 82.2888,81.648 C82.2888,81.8208 82.1448,81.9648 81.972,81.9648 Z M89.2368,81.9864 C87.8256,81.9864 86.904,80.9064 86.904,79.5024 C86.904,78.0984 87.8256,77.0184 89.2368,77.0184 C90.6408,77.0184 91.5696,78.0984 91.5696,79.5024 C91.5696,80.9064 90.6408,81.9864 89.2368,81.9864 Z M89.2368,81.612 C90.3888,81.612 91.1376,80.712 91.1376,79.5024 C91.1376,78.2856 90.3888,77.3928 89.2368,77.3928 C88.0776,77.3928 87.336,78.2856 87.336,79.5024 C87.336,80.712 88.0776,81.612 89.2368,81.612 Z M95.292,81.9 L94.9176,81.9 L94.9176,79.5456 C94.9176,78.876 94.5792,78.6744 94.0752,78.6744 C93.6288,78.6744 93.168,78.9552 92.9448,79.272 L92.9448,81.9 L92.5704,81.9 L92.5704,78.4224 L92.9448,78.4224 L92.9448,78.948 C93.1968,78.6456 93.6936,78.336 94.1976,78.336 C94.9032,78.336 95.292,78.6816 95.292,79.4664 L95.292,81.9 Z M100.908,81.9 L100.5336,81.9 L100.5336,81.4896 C100.224,81.828 99.8352,81.9864 99.3528,81.9864 C98.7552,81.9864 98.136,81.576 98.136,80.8272 C98.136,80.0712 98.748,79.6752 99.3528,79.6752 C99.8352,79.6752 100.2312,79.8336 100.5336,80.172 L100.5336,79.4664 C100.5336,78.948 100.116,78.6672 99.6048,78.6672 C99.1656,78.6672 98.8272,78.8184 98.5104,79.1784 L98.3016,78.9192 C98.6616,78.5304 99.0648,78.336 99.6408,78.336 C100.3464,78.336 100.908,78.6744 100.908,79.452 L100.908,81.9 Z M99.4824,81.6912 C99.9,81.6912 100.2888,81.5328 100.5336,81.216 L100.5336,80.4528 C100.2888,80.1288 99.9,79.9704 99.4824,79.9704 C98.9136,79.9704 98.532,80.3376 98.532,80.8344 C98.532,81.324 98.9136,81.6912 99.4824,81.6912 Z M103.4352,81.9 L103.0104,81.9 L101.5416,78.4224 L101.9592,78.4224 L103.2264,81.4608 L104.4792,78.4224 L104.904,78.4224 L103.4352,81.9 Z M107.0784,81.9864 C106.0632,81.9864 105.3432,81.2304 105.3432,80.1576 C105.3432,79.1496 106.0488,78.336 107.0136,78.336 C108.072,78.336 108.6552,79.1712 108.6552,80.1792 L108.6552,80.28 L105.7464,80.28 C105.7824,81.036 106.2864,81.6624 107.1072,81.6624 C107.5464,81.6624 107.9496,81.4968 108.2448,81.18 L108.4392,81.4248 C108.0936,81.7848 107.6544,81.9864 107.0784,81.9864 Z M108.2736,79.9848 C108.2664,79.3944 107.8776,78.66 107.0064,78.66 C106.1856,78.66 105.7752,79.38 105.7464,79.9848 L108.2736,79.9848 Z M109.9944,81.9 L109.62,81.9 L109.62,78.4224 L109.9944,78.4224 L109.9944,79.02 C110.2896,78.6312 110.6856,78.3504 111.168,78.3504 L111.168,78.7608 C111.1032,78.7464 111.0528,78.7464 110.9808,78.7464 C110.628,78.7464 110.1528,79.0632 109.9944,79.3656 L109.9944,81.9 Z M114.4872,81.9 L114.1128,81.9 L114.1128,81.4896 C113.8032,81.828 113.4144,81.9864 112.932,81.9864 C112.3344,81.9864 111.7152,81.576 111.7152,80.8272 C111.7152,80.0712 112.3272,79.6752 112.932,79.6752 C113.4144,79.6752 113.8104,79.8336 114.1128,80.172 L114.1128,79.4664 C114.1128,78.948 113.6952,78.6672 113.184,78.6672 C112.7448,78.6672 112.4064,78.8184 112.0896,79.1784 L111.8808,78.9192 C112.2408,78.5304 112.644,78.336 113.22,78.336 C113.9256,78.336 114.4872,78.6744 114.4872,79.452 L114.4872,81.9 Z M113.0616,81.6912 C113.4792,81.6912 113.868,81.5328 114.1128,81.216 L114.1128,80.4528 C113.868,80.1288 113.4792,79.9704 113.0616,79.9704 C112.4928,79.9704 112.1112,80.3376 112.1112,80.8344 C112.1112,81.324 112.4928,81.6912 113.0616,81.6912 Z M117.036,83.3112 C116.4456,83.3112 116.0712,83.2032 115.6608,82.7856 L115.8768,82.4832 C116.1792,82.8432 116.5104,82.9728 117.036,82.9728 C117.6624,82.9728 118.2168,82.656 118.2168,81.8712 L118.2168,81.3168 C117.972,81.6768 117.5256,81.972 117.0072,81.972 C116.0856,81.972 115.4592,81.2736 115.4592,80.1576 C115.4592,79.056 116.0856,78.336 117.0072,78.336 C117.504,78.336 117.936,78.588 118.2168,78.984 L118.2168,78.4224 L118.5984,78.4224 L118.5984,81.8712 C118.5984,82.9296 117.8784,83.3112 117.036,83.3112 Z M117.072,81.6336 C117.5544,81.6336 118.0152,81.3384 118.2168,81 L118.2168,79.308 C118.0152,78.9696 117.5544,78.6744 117.072,78.6744 C116.3016,78.6744 115.8552,79.3152 115.8552,80.1576 C115.8552,81 116.3016,81.6336 117.072,81.6336 Z M121.2984,81.9864 C120.2832,81.9864 119.5632,81.2304 119.5632,80.1576 C119.5632,79.1496 120.2688,78.336 121.2336,78.336 C122.292,78.336 122.8752,79.1712 122.8752,80.1792 L122.8752,80.28 L119.9664,80.28 C120.0024,81.036 120.5064,81.6624 121.3272,81.6624 C121.7664,81.6624 122.1696,81.4968 122.4648,81.18 L122.6592,81.4248 C122.3136,81.7848 121.8744,81.9864 121.2984,81.9864 Z M122.4936,79.9848 C122.4864,79.3944 122.0976,78.66 121.2264,78.66 C120.4056,78.66 119.9952,79.38 119.9664,79.9848 L122.4936,79.9848 Z M124.4016,81.7992 C124.4016,82.2024 124.164,82.584 123.8832,82.7784 L123.6744,82.6056 C123.9048,82.4472 124.0776,82.1664 124.092,81.9432 C124.092,81.9432 124.0416,81.9504 124.02,81.9504 C123.8472,81.9504 123.7248,81.8208 123.7248,81.648 C123.7248,81.4824 123.8616,81.3384 124.0344,81.3384 C124.2288,81.3384 124.4016,81.504 124.4016,81.7992 Z M23.8752,90.9 L20.7072,90.9 L20.7072,90.5616 C22.3416,89.244 23.436,88.308 23.436,87.3792 C23.436,86.688 22.8672,86.4 22.3416,86.4 C21.744,86.4 21.2832,86.6592 21.024,87.0264 L20.7432,86.7672 C21.0816,86.3064 21.6648,86.0256 22.3416,86.0256 C23.0472,86.0256 23.8536,86.4288 23.8536,87.3792 C23.8536,88.4376 22.7376,89.4024 21.348,90.5256 L23.8752,90.5256 L23.8752,90.9 Z M28.0656,90.9 L24.8976,90.9 L24.8976,90.5616 C26.532,89.244 27.6264,88.308 27.6264,87.3792 C27.6264,86.688 27.0576,86.4 26.532,86.4 C25.9344,86.4 25.4736,86.6592 25.2144,87.0264 L24.9336,86.7672 C25.272,86.3064 25.8552,86.0256 26.532,86.0256 C27.2376,86.0256 28.044,86.4288 28.044,87.3792 C28.044,88.4376 26.928,89.4024 25.5384,90.5256 L28.0656,90.5256 L28.0656,90.9 Z M30.3048,90.9864 C29.7432,90.9864 29.3112,90.8208 28.9656,90.432 L29.1888,90.1584 C29.412,90.4392 29.8224,90.6696 30.312,90.6696 C30.8952,90.6696 31.2408,90.3672 31.2408,89.964 C31.2408,89.0136 29.0448,89.5536 29.0448,88.3008 C29.0448,87.768 29.4984,87.336 30.2832,87.336 C30.8808,87.336 31.2768,87.5664 31.5288,87.8472 L31.32,88.1136 C31.1184,87.84 30.744,87.6528 30.2832,87.6528 C29.7432,87.6528 29.4192,87.9264 29.4192,88.2864 C29.4192,89.1576 31.608,88.6248 31.608,89.964 C31.608,90.5256 31.176,90.9864 30.3048,90.9864 Z M34.1136,90.9864 C33.0984,90.9864 32.3784,90.2304 32.3784,89.1576 C32.3784,88.1496 33.084,87.336 34.0488,87.336 C35.1072,87.336 35.6904,88.1712 35.6904,89.1792 L35.6904,89.28 L32.7816,89.28 C32.8176,90.036 33.3216,90.6624 34.1424,90.6624 C34.5816,90.6624 34.9848,90.4968 35.28,90.18 L35.4744,90.4248 C35.1288,90.7848 34.6896,90.9864 34.1136,90.9864 Z M35.3088,88.9848 C35.3016,88.3944 34.9128,87.66 34.0416,87.66 C33.2208,87.66 32.8104,88.38 32.7816,88.9848 L35.3088,88.9848 Z M38.016,90.9 L37.5912,90.9 L36.1224,87.4224 L36.54,87.4224 L37.8072,90.4608 L39.06,87.4224 L39.4848,87.4224 L38.016,90.9 Z M41.6592,90.9864 C40.644,90.9864 39.924,90.2304 39.924,89.1576 C39.924,88.1496 40.6296,87.336 41.5944,87.336 C42.6528,87.336 43.236,88.1712 43.236,89.1792 L43.236,89.28 L40.3272,89.28 C40.3632,90.036 40.8672,90.6624 41.688,90.6624 C42.1272,90.6624 42.5304,90.4968 42.8256,90.18 L43.02,90.4248 C42.6744,90.7848 42.2352,90.9864 41.6592,90.9864 Z M42.8544,88.9848 C42.8472,88.3944 42.4584,87.66 41.5872,87.66 C40.7664,87.66 40.356,88.38 40.3272,88.9848 L42.8544,88.9848 Z M46.9224,90.9 L46.548,90.9 L46.548,88.5456 C46.548,87.876 46.2096,87.6744 45.7056,87.6744 C45.2592,87.6744 44.7984,87.9552 44.5752,88.272 L44.5752,90.9 L44.2008,90.9 L44.2008,87.4224 L44.5752,87.4224 L44.5752,87.948 C44.8272,87.6456 45.324,87.336 45.828,87.336 C46.5336,87.336 46.9224,87.6816 46.9224,88.4664 L46.9224,90.9 Z M51.444,90.9864 C50.4216,90.9864 49.7592,90.1728 49.7592,89.1576 C49.7592,88.1424 50.4216,87.336 51.444,87.336 C52.0488,87.336 52.3944,87.5736 52.6752,87.9264 L52.416,88.1568 C52.164,87.8112 51.8472,87.6744 51.4656,87.6744 C50.652,87.6744 50.1552,88.3224 50.1552,89.1576 C50.1552,89.9928 50.652,90.648 51.4656,90.648 C51.8472,90.648 52.164,90.504 52.416,90.1584 L52.6752,90.3888 C52.3944,90.7488 52.0488,90.9864 51.444,90.9864 Z M56.232,90.9 L55.8576,90.9 L55.8576,90.3888 C55.5768,90.7056 55.1088,90.9864 54.6048,90.9864 C53.8992,90.9864 53.5104,90.6552 53.5104,89.8704 L53.5104,87.4224 L53.8848,87.4224 L53.8848,89.784 C53.8848,90.4608 54.2232,90.648 54.7272,90.648 C55.1736,90.648 55.6272,90.3816 55.8576,90.072 L55.8576,87.4224 L56.232,87.4224 L56.232,90.9 Z M58.4352,90.9864 C57.8736,90.9864 57.4416,90.8208 57.096,90.432 L57.3192,90.1584 C57.5424,90.4392 57.9528,90.6696 58.4424,90.6696 C59.0256,90.6696 59.3712,90.3672 59.3712,89.964 C59.3712,89.0136 57.1752,89.5536 57.1752,88.3008 C57.1752,87.768 57.6288,87.336 58.4136,87.336 C59.0112,87.336 59.4072,87.5664 59.6592,87.8472 L59.4504,88.1136 C59.2488,87.84 58.8744,87.6528 58.4136,87.6528 C57.8736,87.6528 57.5496,87.9264 57.5496,88.2864 C57.5496,89.1576 59.7384,88.6248 59.7384,89.964 C59.7384,90.5256 59.3064,90.9864 58.4352,90.9864 Z M61.4592,90.9864 C60.9984,90.9864 60.7752,90.7056 60.7752,90.2304 L60.7752,87.7536 L60.1992,87.7536 L60.1992,87.4224 L60.7752,87.4224 L60.7752,86.472 L61.1568,86.472 L61.1568,87.4224 L61.8624,87.4224 L61.8624,87.7536 L61.1568,87.7536 L61.1568,90.1728 C61.1568,90.4536 61.272,90.648 61.5168,90.648 C61.6824,90.648 61.8264,90.5688 61.9056,90.4824 L62.0496,90.7704 C61.9128,90.9 61.7472,90.9864 61.4592,90.9864 Z M64.152,90.9864 C63.1368,90.9864 62.4888,90.1728 62.4888,89.1576 C62.4888,88.1424 63.1368,87.336 64.152,87.336 C65.1816,87.336 65.8296,88.1424 65.8296,89.1576 C65.8296,90.1728 65.1816,90.9864 64.152,90.9864 Z M64.152,90.648 C64.9728,90.648 65.4264,89.9352 65.4264,89.1576 C65.4264,88.3872 64.9728,87.6744 64.152,87.6744 C63.3456,87.6744 62.8848,88.3872 62.8848,89.1576 C62.8848,89.9352 63.3456,90.648 64.152,90.648 Z M71.3088,90.9 L70.9344,90.9 L70.9344,88.4664 C70.9344,87.9768 70.7256,87.6744 70.236,87.6744 C69.8616,87.6744 69.4368,87.948 69.2424,88.2648 L69.2424,90.9 L68.8608,90.9 L68.8608,88.4664 C68.8608,87.9768 68.6592,87.6744 68.1696,87.6744 C67.7952,87.6744 67.3776,87.9552 67.1688,88.272 L67.1688,90.9 L66.7944,90.9 L66.7944,87.4224 L67.1688,87.4224 L67.1688,87.948 C67.3128,87.7248 67.788,87.336 68.292,87.336 C68.832,87.336 69.12,87.6528 69.2064,87.9912 C69.4008,87.6672 69.8688,87.336 70.3584,87.336 C70.9992,87.336 71.3088,87.696 71.3088,88.3944 L71.3088,90.9 Z M74.016,90.9864 C73.0008,90.9864 72.2808,90.2304 72.2808,89.1576 C72.2808,88.1496 72.9864,87.336 73.9512,87.336 C75.0096,87.336 75.5928,88.1712 75.5928,89.1792 L75.5928,89.28 L72.684,89.28 C72.72,90.036 73.224,90.6624 74.0448,90.6624 C74.484,90.6624 74.8872,90.4968 75.1824,90.18 L75.3768,90.4248 C75.0312,90.7848 74.592,90.9864 74.016,90.9864 Z M75.2112,88.9848 C75.204,88.3944 74.8152,87.66 73.944,87.66 C73.1232,87.66 72.7128,88.38 72.684,88.9848 L75.2112,88.9848 Z M76.932,90.9 L76.5576,90.9 L76.5576,87.4224 L76.932,87.4224 L76.932,88.02 C77.2272,87.6312 77.6232,87.3504 78.1056,87.3504 L78.1056,87.7608 C78.0408,87.7464 77.9904,87.7464 77.9184,87.7464 C77.5656,87.7464 77.0904,88.0632 76.932,88.3656 L76.932,90.9 Z M79.8768,90.9864 C79.3152,90.9864 78.8832,90.8208 78.5376,90.432 L78.7608,90.1584 C78.984,90.4392 79.3944,90.6696 79.884,90.6696 C80.4672,90.6696 80.8128,90.3672 80.8128,89.964 C80.8128,89.0136 78.6168,89.5536 78.6168,88.3008 C78.6168,87.768 79.0704,87.336 79.8552,87.336 C80.4528,87.336 80.8488,87.5664 81.1008,87.8472 L80.892,88.1136 C80.6904,87.84 80.316,87.6528 79.8552,87.6528 C79.3152,87.6528 78.9912,87.9264 78.9912,88.2864 C78.9912,89.1576 81.18,88.6248 81.18,89.964 C81.18,90.5256 80.748,90.9864 79.8768,90.9864 Z M85.0464,90.9864 C84.4848,90.9864 84.0528,90.8208 83.7072,90.432 L83.9304,90.1584 C84.1536,90.4392 84.564,90.6696 85.0536,90.6696 C85.6368,90.6696 85.9824,90.3672 85.9824,89.964 C85.9824,89.0136 83.7864,89.5536 83.7864,88.3008 C83.7864,87.768 84.24,87.336 85.0248,87.336 C85.6224,87.336 86.0184,87.5664 86.2704,87.8472 L86.0616,88.1136 C85.86,87.84 85.4856,87.6528 85.0248,87.6528 C84.4848,87.6528 84.1608,87.9264 84.1608,88.2864 C84.1608,89.1576 86.3496,88.6248 86.3496,89.964 C86.3496,90.5256 85.9176,90.9864 85.0464,90.9864 Z M88.8984,90.9864 C88.4088,90.9864 87.9696,90.7344 87.6888,90.3384 L87.6888,92.2248 L87.3144,92.2248 L87.3144,87.4224 L87.6888,87.4224 L87.6888,87.9696 C87.9336,87.6168 88.38,87.336 88.8984,87.336 C89.8272,87.336 90.4536,88.0416 90.4536,89.1576 C90.4536,90.2664 89.8272,90.9864 88.8984,90.9864 Z M88.8336,90.648 C89.6112,90.648 90.0504,90 90.0504,89.1576 C90.0504,88.3152 89.6112,87.6744 88.8336,87.6744 C88.3512,87.6744 87.8904,87.9624 87.6888,88.2936 L87.6888,90.0144 C87.8904,90.3456 88.3512,90.648 88.8336,90.648 Z M92.9376,90.9864 C91.9224,90.9864 91.2024,90.2304 91.2024,89.1576 C91.2024,88.1496 91.908,87.336 92.8728,87.336 C93.9312,87.336 94.5144,88.1712 94.5144,89.1792 L94.5144,89.28 L91.6056,89.28 C91.6416,90.036 92.1456,90.6624 92.9664,90.6624 C93.4056,90.6624 93.8088,90.4968 94.104,90.18 L94.2984,90.4248 C93.9528,90.7848 93.5136,90.9864 92.9376,90.9864 Z M94.1328,88.9848 C94.1256,88.3944 93.7368,87.66 92.8656,87.66 C92.0448,87.66 91.6344,88.38 91.6056,88.9848 L94.1328,88.9848 Z M98.2008,90.9 L97.8264,90.9 L97.8264,88.5456 C97.8264,87.876 97.488,87.6744 96.984,87.6744 C96.5376,87.6744 96.0768,87.9552 95.8536,88.272 L95.8536,90.9 L95.4792,90.9 L95.4792,87.4224 L95.8536,87.4224 L95.8536,87.948 C96.1056,87.6456 96.6024,87.336 97.1064,87.336 C97.812,87.336 98.2008,87.6816 98.2008,88.4664 L98.2008,90.9 Z M100.1232,90.9864 C99.6624,90.9864 99.4392,90.7056 99.4392,90.2304 L99.4392,87.7536 L98.8632,87.7536 L98.8632,87.4224 L99.4392,87.4224 L99.4392,86.472 L99.8208,86.472 L99.8208,87.4224 L100.5264,87.4224 L100.5264,87.7536 L99.8208,87.7536 L99.8208,90.1728 C99.8208,90.4536 99.936,90.648 100.1808,90.648 C100.3464,90.648 100.4904,90.5688 100.5696,90.4824 L100.7136,90.7704 C100.5768,90.9 100.4112,90.9864 100.1232,90.9864 Z M106.9992,90.9 L105.8184,90.9 L104.8752,89.1936 L104.1264,89.1936 L104.1264,90.9 L103.104,90.9 L103.104,86.0976 L105.3504,86.0976 C106.3512,86.0976 106.9704,86.7528 106.9704,87.6456 C106.9704,88.488 106.4304,88.9488 105.912,89.0712 L106.9992,90.9 Z M105.2064,88.2936 C105.6096,88.2936 105.9192,88.0488 105.9192,87.6384 C105.9192,87.2424 105.6096,86.9976 105.2064,86.9976 L104.1264,86.9976 L104.1264,88.2936 L105.2064,88.2936 Z M109.296,90.9864 C108.4176,90.9864 107.7552,90.648 107.4024,90.216 L107.9424,89.532 C108.2664,89.8776 108.792,90.0792 109.26,90.0792 C109.8432,90.0792 110.1672,89.8272 110.1672,89.4672 C110.1672,89.0856 109.872,88.9128 109.2024,88.9128 C109.0008,88.9128 108.6768,88.92 108.6048,88.9272 L108.6048,88.0056 C108.6912,88.0128 109.0224,88.0128 109.2024,88.0128 C109.7352,88.0128 110.0952,87.8544 110.0952,87.5016 C110.0952,87.12 109.6992,86.9328 109.2024,86.9328 C108.7344,86.9328 108.3168,87.1056 107.9784,87.4296 L107.4672,86.7888 C107.856,86.3496 108.4608,86.0256 109.3032,86.0256 C110.4264,86.0256 111.1176,86.5296 111.1176,87.3288 C111.1176,87.9336 110.5992,88.3296 110.0664,88.4232 C110.556,88.4736 111.1896,88.8552 111.1896,89.5752 C111.1896,90.4032 110.448,90.9864 109.296,90.9864 Z M113.0328,90.5472 C113.0328,91.0872 112.7376,91.5696 112.2912,91.8864 L111.8952,91.5624 C112.1256,91.44 112.392,91.1376 112.4496,90.8856 C112.428,90.8928 112.3704,90.9072 112.3128,90.9072 C112.0392,90.9072 111.8232,90.6912 111.8232,90.3888 C111.8232,90.072 112.0824,89.8128 112.392,89.8128 C112.7304,89.8128 113.0328,90.0792 113.0328,90.5472 Z M117.2736,90.9 L113.6592,90.9 L113.6592,90.0936 C115.6248,88.6392 116.2008,88.1496 116.2008,87.5592 C116.2008,87.1344 115.8192,86.9328 115.4232,86.9328 C114.876,86.9328 114.4584,87.1488 114.1344,87.4872 L113.5512,86.8104 C114.0192,86.2704 114.732,86.0256 115.4016,86.0256 C116.4312,86.0256 117.2376,86.6016 117.2376,87.5592 C117.2376,88.38 116.5608,89.0928 115.3152,90 L117.2736,90 L117.2736,90.9 Z M119.5344,90.9792 C118.9512,90.9792 118.4616,90.7848 118.1232,90.4824 L118.5768,89.6976 C118.836,89.9424 119.1096,90.072 119.5344,90.072 C120.3264,90.072 120.7368,89.4024 120.7368,88.7184 L120.7368,88.6104 C120.5064,88.9344 120.024,89.2296 119.4984,89.2296 C118.6344,89.2296 117.864,88.6896 117.864,87.6672 C117.864,86.7312 118.6056,86.0184 119.7,86.0184 C121.1616,86.0184 121.7736,87.1416 121.7736,88.4952 C121.7736,89.9496 120.9528,90.9792 119.5344,90.9792 Z M119.7864,88.3512 C120.1536,88.3512 120.4992,88.1856 120.7296,87.8976 C120.6864,87.4368 120.4272,86.9256 119.7576,86.9256 C119.2032,86.9256 118.9008,87.3 118.9008,87.6312 C118.9008,88.1352 119.34,88.3512 119.7864,88.3512 Z M124.2216,90.9864 C123.3864,90.9864 122.7816,90.7128 122.3712,90.2664 L122.94,89.5536 C123.264,89.892 123.7104,90.0792 124.2144,90.0792 C124.7832,90.0792 125.1072,89.7552 125.1072,89.3664 C125.1072,88.9416 124.7904,88.6536 124.2432,88.6536 C123.8472,88.6536 123.5232,88.7688 123.2352,89.0424 L122.5224,88.848 L122.5224,86.0976 L125.82,86.0976 L125.82,86.9976 L123.5448,86.9976 L123.5448,88.1712 C123.7752,87.9408 124.164,87.768 124.6032,87.768 C125.4168,87.768 126.144,88.3512 126.144,89.3232 C126.144,90.3384 125.3808,90.9864 124.2216,90.9864 Z M21.4164,99.9864 C20.4012,99.9864 19.7532,99.1728 19.7532,98.1576 C19.7532,97.1424 20.4012,96.336 21.4164,96.336 C22.446,96.336 23.094,97.1424 23.094,98.1576 C23.094,99.1728 22.446,99.9864 21.4164,99.9864 Z M21.4164,99.648 C22.2372,99.648 22.6908,98.9352 22.6908,98.1576 C22.6908,97.3872 22.2372,96.6744 21.4164,96.6744 C20.61,96.6744 20.1492,97.3872 20.1492,98.1576 C20.1492,98.9352 20.61,99.648 21.4164,99.648 Z M25.4196,99.9 L24.9948,99.9 L23.526,96.4224 L23.9436,96.4224 L25.2108,99.4608 L26.4636,96.4224 L26.8884,96.4224 L25.4196,99.9 Z M29.0628,99.9864 C28.0476,99.9864 27.3276,99.2304 27.3276,98.1576 C27.3276,97.1496 28.0332,96.336 28.998,96.336 C30.0564,96.336 30.6396,97.1712 30.6396,98.1792 L30.6396,98.28 L27.7308,98.28 C27.7668,99.036 28.2708,99.6624 29.0916,99.6624 C29.5308,99.6624 29.934,99.4968 30.2292,99.18 L30.4236,99.4248 C30.078,99.7848 29.6388,99.9864 29.0628,99.9864 Z M30.258,97.9848 C30.2508,97.3944 29.862,96.66 28.9908,96.66 C28.17,96.66 27.7596,97.38 27.7308,97.9848 L30.258,97.9848 Z M31.9788,99.9 L31.6044,99.9 L31.6044,96.4224 L31.9788,96.4224 L31.9788,97.02 C32.274,96.6312 32.67,96.3504 33.1524,96.3504 L33.1524,96.7608 C33.0876,96.7464 33.0372,96.7464 32.9652,96.7464 C32.6124,96.7464 32.1372,97.0632 31.9788,97.3656 L31.9788,99.9 Z M36.5076,99.9864 C36.0468,99.9864 35.8236,99.7056 35.8236,99.2304 L35.8236,96.7536 L35.2476,96.7536 L35.2476,96.4224 L35.8236,96.4224 L35.8236,95.472 L36.2052,95.472 L36.2052,96.4224 L36.9108,96.4224 L36.9108,96.7536 L36.2052,96.7536 L36.2052,99.1728 C36.2052,99.4536 36.3204,99.648 36.5652,99.648 C36.7308,99.648 36.8748,99.5688 36.954,99.4824 L37.098,99.7704 C36.9612,99.9 36.7956,99.9864 36.5076,99.9864 Z M40.4532,99.9 L40.0788,99.9 L40.0788,97.5312 C40.0788,96.8616 39.7404,96.6744 39.2364,96.6744 C38.79,96.6744 38.3292,96.9552 38.106,97.272 L38.106,99.9 L37.7316,99.9 L37.7316,95.0976 L38.106,95.0976 L38.106,96.948 C38.358,96.6456 38.8548,96.336 39.3588,96.336 C40.0644,96.336 40.4532,96.6672 40.4532,97.452 L40.4532,99.9 Z M43.1604,99.9864 C42.1452,99.9864 41.4252,99.2304 41.4252,98.1576 C41.4252,97.1496 42.1308,96.336 43.0956,96.336 C44.154,96.336 44.7372,97.1712 44.7372,98.1792 L44.7372,98.28 L41.8284,98.28 C41.8644,99.036 42.3684,99.6624 43.1892,99.6624 C43.6284,99.6624 44.0316,99.4968 44.3268,99.18 L44.5212,99.4248 C44.1756,99.7848 43.7364,99.9864 43.1604,99.9864 Z M44.3556,97.9848 C44.3484,97.3944 43.9596,96.66 43.0884,96.66 C42.2676,96.66 41.8572,97.38 41.8284,97.9848 L44.3556,97.9848 Z M49.1508,99.9864 C48.6612,99.9864 48.222,99.7344 47.9412,99.3384 L47.9412,101.2248 L47.5668,101.2248 L47.5668,96.4224 L47.9412,96.4224 L47.9412,96.9696 C48.186,96.6168 48.6324,96.336 49.1508,96.336 C50.0796,96.336 50.706,97.0416 50.706,98.1576 C50.706,99.2664 50.0796,99.9864 49.1508,99.9864 Z M49.086,99.648 C49.8636,99.648 50.3028,99 50.3028,98.1576 C50.3028,97.3152 49.8636,96.6744 49.086,96.6744 C48.6036,96.6744 48.1428,96.9624 47.9412,97.2936 L47.9412,99.0144 C48.1428,99.3456 48.6036,99.648 49.086,99.648 Z M54.234,99.9 L53.8596,99.9 L53.8596,99.4896 C53.55,99.828 53.1612,99.9864 52.6788,99.9864 C52.0812,99.9864 51.462,99.576 51.462,98.8272 C51.462,98.0712 52.074,97.6752 52.6788,97.6752 C53.1612,97.6752 53.5572,97.8336 53.8596,98.172 L53.8596,97.4664 C53.8596,96.948 53.442,96.6672 52.9308,96.6672 C52.4916,96.6672 52.1532,96.8184 51.8364,97.1784 L51.6276,96.9192 C51.9876,96.5304 52.3908,96.336 52.9668,96.336 C53.6724,96.336 54.234,96.6744 54.234,97.452 L54.234,99.9 Z M52.8084,99.6912 C53.226,99.6912 53.6148,99.5328 53.8596,99.216 L53.8596,98.4528 C53.6148,98.1288 53.226,97.9704 52.8084,97.9704 C52.2396,97.9704 51.858,98.3376 51.858,98.8344 C51.858,99.324 52.2396,99.6912 52.8084,99.6912 Z M56.4372,99.9864 C55.8756,99.9864 55.4436,99.8208 55.098,99.432 L55.3212,99.1584 C55.5444,99.4392 55.9548,99.6696 56.4444,99.6696 C57.0276,99.6696 57.3732,99.3672 57.3732,98.964 C57.3732,98.0136 55.1772,98.5536 55.1772,97.3008 C55.1772,96.768 55.6308,96.336 56.4156,96.336 C57.0132,96.336 57.4092,96.5664 57.6612,96.8472 L57.4524,97.1136 C57.2508,96.84 56.8764,96.6528 56.4156,96.6528 C55.8756,96.6528 55.5516,96.9264 55.5516,97.2864 C55.5516,98.1576 57.7404,97.6248 57.7404,98.964 C57.7404,99.5256 57.3084,99.9864 56.4372,99.9864 Z M59.4612,99.9864 C59.0004,99.9864 58.7772,99.7056 58.7772,99.2304 L58.7772,96.7536 L58.2012,96.7536 L58.2012,96.4224 L58.7772,96.4224 L58.7772,95.472 L59.1588,95.472 L59.1588,96.4224 L59.8644,96.4224 L59.8644,96.7536 L59.1588,96.7536 L59.1588,99.1728 C59.1588,99.4536 59.274,99.648 59.5188,99.648 C59.6844,99.648 59.8284,99.5688 59.9076,99.4824 L60.0516,99.7704 C59.9148,99.9 59.7492,99.9864 59.4612,99.9864 Z M63.918,99.9792 C63.2916,99.9792 62.91,99.7272 62.622,99.3672 L62.8668,99.072 C63.1044,99.3816 63.3924,99.6048 63.918,99.6048 C64.9764,99.6048 65.3364,98.5032 65.3364,97.4952 L65.3364,97.272 C65.1348,97.6032 64.5804,98.0712 63.9252,98.0712 C63.0612,98.0712 62.3772,97.5744 62.3772,96.552 C62.3772,95.7672 62.9676,95.0184 63.99,95.0184 C65.286,95.0184 65.754,96.2136 65.754,97.5024 C65.754,98.7336 65.2428,99.9792 63.918,99.9792 Z M63.9972,97.704 C64.5228,97.704 65.034,97.3656 65.3076,96.8832 C65.25,96.228 64.9116,95.3928 64.0044,95.3928 C63.1836,95.3928 62.7948,96.0264 62.7948,96.5448 C62.7948,97.3296 63.3132,97.704 63.9972,97.704 Z M68.3676,99.9864 C67.0716,99.9864 66.5892,98.64 66.5892,97.5024 C66.5892,96.3576 67.0716,95.0256 68.3676,95.0256 C69.6492,95.0256 70.1388,96.3576 70.1388,97.5024 C70.1388,98.64 69.6492,99.9864 68.3676,99.9864 Z M68.3676,99.612 C69.3684,99.612 69.6996,98.4888 69.6996,97.5024 C69.6996,96.5088 69.3756,95.4 68.3676,95.4 C67.3524,95.4 67.0212,96.5088 67.0212,97.5024 C67.0212,98.4888 67.3524,99.612 68.3676,99.612 Z M75.942,99.9 L75.5604,99.9 L75.5604,99.3456 C75.3156,99.7056 74.8692,99.9864 74.3508,99.9864 C73.4292,99.9864 72.8028,99.2808 72.8028,98.1648 C72.8028,97.0632 73.4292,96.336 74.3508,96.336 C74.8476,96.336 75.2868,96.588 75.5604,96.984 L75.5604,95.0976 L75.942,95.0976 L75.942,99.9 Z M74.4156,99.648 C74.9052,99.648 75.3588,99.36 75.5604,99.0288 L75.5604,97.308 C75.3588,96.9696 74.9052,96.6744 74.4156,96.6744 C73.6452,96.6744 73.1988,97.3224 73.1988,98.1648 C73.1988,99.0072 73.6452,99.648 74.4156,99.648 Z M79.6932,99.9 L79.3188,99.9 L79.3188,99.4896 C79.0092,99.828 78.6204,99.9864 78.138,99.9864 C77.5404,99.9864 76.9212,99.576 76.9212,98.8272 C76.9212,98.0712 77.5332,97.6752 78.138,97.6752 C78.6204,97.6752 79.0164,97.8336 79.3188,98.172 L79.3188,97.4664 C79.3188,96.948 78.9012,96.6672 78.39,96.6672 C77.9508,96.6672 77.6124,96.8184 77.2956,97.1784 L77.0868,96.9192 C77.4468,96.5304 77.85,96.336 78.426,96.336 C79.1316,96.336 79.6932,96.6744 79.6932,97.452 L79.6932,99.9 Z M78.2676,99.6912 C78.6852,99.6912 79.074,99.5328 79.3188,99.216 L79.3188,98.4528 C79.074,98.1288 78.6852,97.9704 78.2676,97.9704 C77.6988,97.9704 77.3172,98.3376 77.3172,98.8344 C77.3172,99.324 77.6988,99.6912 78.2676,99.6912 Z M80.6292,101.2608 L80.694,100.9152 C80.7732,100.9512 80.91,100.9728 80.9964,100.9728 C81.2268,100.9728 81.3852,100.8792 81.5292,100.548 L81.8028,99.9288 L80.3268,96.4224 L80.7444,96.4224 L82.0116,99.4608 L83.2644,96.4224 L83.6892,96.4224 L81.8892,100.6632 C81.702,101.1024 81.4068,101.3112 81.0036,101.3112 C80.8812,101.3112 80.7228,101.2896 80.6292,101.2608 Z M85.3596,99.9864 C84.798,99.9864 84.366,99.8208 84.0204,99.432 L84.2436,99.1584 C84.4668,99.4392 84.8772,99.6696 85.3668,99.6696 C85.95,99.6696 86.2956,99.3672 86.2956,98.964 C86.2956,98.0136 84.0996,98.5536 84.0996,97.3008 C84.0996,96.768 84.5532,96.336 85.338,96.336 C85.9356,96.336 86.3316,96.5664 86.5836,96.8472 L86.3748,97.1136 C86.1732,96.84 85.7988,96.6528 85.338,96.6528 C84.798,96.6528 84.474,96.9264 84.474,97.2864 C84.474,98.1576 86.6628,97.6248 86.6628,98.964 C86.6628,99.5256 86.2308,99.9864 85.3596,99.9864 Z M92.8332,99.9 L92.4732,99.9 L91.5012,96.9264 L90.522,99.9 L90.162,99.9 L89.0316,96.4224 L89.4348,96.4224 L90.3564,99.3744 L91.3356,96.4224 L91.6596,96.4224 L92.6388,99.3744 L93.5604,96.4224 L93.9636,96.4224 L92.8332,99.9 Z M97.3908,99.9 L97.0164,99.9 L97.0164,97.5312 C97.0164,96.8616 96.678,96.6744 96.174,96.6744 C95.7276,96.6744 95.2668,96.9552 95.0436,97.272 L95.0436,99.9 L94.6692,99.9 L94.6692,95.0976 L95.0436,95.0976 L95.0436,96.948 C95.2956,96.6456 95.7924,96.336 96.2964,96.336 C97.002,96.336 97.3908,96.6672 97.3908,97.452 L97.3908,99.9 Z M98.7444,95.8752 C98.5932,95.8752 98.4564,95.7456 98.4564,95.5872 C98.4564,95.4288 98.5932,95.3064 98.7444,95.3064 C98.9028,95.3064 99.0324,95.4288 99.0324,95.5872 C99.0324,95.7456 98.9028,95.8752 98.7444,95.8752 Z M98.9316,99.9 L98.5572,99.9 L98.5572,96.4224 L98.9316,96.4224 L98.9316,99.9 Z M101.5884,99.9864 C100.566,99.9864 99.9036,99.1728 99.9036,98.1576 C99.9036,97.1424 100.566,96.336 101.5884,96.336 C102.1932,96.336 102.5388,96.5736 102.8196,96.9264 L102.5604,97.1568 C102.3084,96.8112 101.9916,96.6744 101.61,96.6744 C100.7964,96.6744 100.2996,97.3224 100.2996,98.1576 C100.2996,98.9928 100.7964,99.648 101.61,99.648 C101.9916,99.648 102.3084,99.504 102.5604,99.1584 L102.8196,99.3888 C102.5388,99.7488 102.1932,99.9864 101.5884,99.9864 Z M106.3764,99.9 L106.002,99.9 L106.002,97.5312 C106.002,96.8616 105.6636,96.6744 105.1596,96.6744 C104.7132,96.6744 104.2524,96.9552 104.0292,97.272 L104.0292,99.9 L103.6548,99.9 L103.6548,95.0976 L104.0292,95.0976 L104.0292,96.948 C104.2812,96.6456 104.778,96.336 105.282,96.336 C105.9876,96.336 106.3764,96.6672 106.3764,97.452 L106.3764,99.9 Z M112.7484,99.9 L112.3884,99.9 L111.4164,96.9264 L110.4372,99.9 L110.0772,99.9 L108.9468,96.4224 L109.35,96.4224 L110.2716,99.3744 L111.2508,96.4224 L111.5748,96.4224 L112.554,99.3744 L113.4756,96.4224 L113.8788,96.4224 L112.7484,99.9 Z M116.0532,99.9864 C115.038,99.9864 114.39,99.1728 114.39,98.1576 C114.39,97.1424 115.038,96.336 116.0532,96.336 C117.0828,96.336 117.7308,97.1424 117.7308,98.1576 C117.7308,99.1728 117.0828,99.9864 116.0532,99.9864 Z M116.0532,99.648 C116.874,99.648 117.3276,98.9352 117.3276,98.1576 C117.3276,97.3872 116.874,96.6744 116.0532,96.6744 C115.2468,96.6744 114.786,97.3872 114.786,98.1576 C114.786,98.9352 115.2468,99.648 116.0532,99.648 Z M119.07,99.9 L118.6956,99.9 L118.6956,96.4224 L119.07,96.4224 L119.07,97.02 C119.3652,96.6312 119.7612,96.3504 120.2436,96.3504 L120.2436,96.7608 C120.1788,96.7464 120.1284,96.7464 120.0564,96.7464 C119.7036,96.7464 119.2284,97.0632 119.07,97.3656 L119.07,99.9 Z M123.894,99.9 L123.39,99.9 L122.0004,98.244 L121.3524,98.856 L121.3524,99.9 L120.978,99.9 L120.978,95.0976 L121.3524,95.0976 L121.3524,98.4096 L123.3972,96.4224 L123.9012,96.4224 L122.2812,97.992 L123.894,99.9 Z M125.6508,99.9864 C125.0892,99.9864 124.6572,99.8208 124.3116,99.432 L124.5348,99.1584 C124.758,99.4392 125.1684,99.6696 125.658,99.6696 C126.2412,99.6696 126.5868,99.3672 126.5868,98.964 C126.5868,98.0136 124.3908,98.5536 124.3908,97.3008 C124.3908,96.768 124.8444,96.336 125.6292,96.336 C126.2268,96.336 126.6228,96.5664 126.8748,96.8472 L126.666,97.1136 C126.4644,96.84 126.09,96.6528 125.6292,96.6528 C125.0892,96.6528 124.7652,96.9264 124.7652,97.2864 C124.7652,98.1576 126.954,97.6248 126.954,98.964 C126.954,99.5256 126.522,99.9864 125.6508,99.9864 Z M45.3456,108.9864 C44.3304,108.9864 43.6824,108.1728 43.6824,107.1576 C43.6824,106.1424 44.3304,105.336 45.3456,105.336 C46.3752,105.336 47.0232,106.1424 47.0232,107.1576 C47.0232,108.1728 46.3752,108.9864 45.3456,108.9864 Z M45.3456,108.648 C46.1664,108.648 46.62,107.9352 46.62,107.1576 C46.62,106.3872 46.1664,105.6744 45.3456,105.6744 C44.5392,105.6744 44.0784,106.3872 44.0784,107.1576 C44.0784,107.9352 44.5392,108.648 45.3456,108.648 Z M50.7096,108.9 L50.3352,108.9 L50.3352,108.3888 C50.0544,108.7056 49.5864,108.9864 49.0824,108.9864 C48.3768,108.9864 47.988,108.6552 47.988,107.8704 L47.988,105.4224 L48.3624,105.4224 L48.3624,107.784 C48.3624,108.4608 48.7008,108.648 49.2048,108.648 C49.6512,108.648 50.1048,108.3816 50.3352,108.072 L50.3352,105.4224 L50.7096,105.4224 L50.7096,108.9 Z M52.632,108.9864 C52.1712,108.9864 51.948,108.7056 51.948,108.2304 L51.948,105.7536 L51.372,105.7536 L51.372,105.4224 L51.948,105.4224 L51.948,104.472 L52.3296,104.472 L52.3296,105.4224 L53.0352,105.4224 L53.0352,105.7536 L52.3296,105.7536 L52.3296,108.1728 C52.3296,108.4536 52.4448,108.648 52.6896,108.648 C52.8552,108.648 52.9992,108.5688 53.0784,108.4824 L53.2224,108.7704 C53.0856,108.9 52.92,108.9864 52.632,108.9864 Z M56.4768,108.9864 C56.016,108.9864 55.7928,108.7056 55.7928,108.2304 L55.7928,105.7536 L55.2168,105.7536 L55.2168,105.4224 L55.7928,105.4224 L55.7928,104.472 L56.1744,104.472 L56.1744,105.4224 L56.88,105.4224 L56.88,105.7536 L56.1744,105.7536 L56.1744,108.1728 C56.1744,108.4536 56.2896,108.648 56.5344,108.648 C56.7,108.648 56.844,108.5688 56.9232,108.4824 L57.0672,108.7704 C56.9304,108.9 56.7648,108.9864 56.4768,108.9864 Z M59.1696,108.9864 C58.1544,108.9864 57.5064,108.1728 57.5064,107.1576 C57.5064,106.1424 58.1544,105.336 59.1696,105.336 C60.1992,105.336 60.8472,106.1424 60.8472,107.1576 C60.8472,108.1728 60.1992,108.9864 59.1696,108.9864 Z M59.1696,108.648 C59.9904,108.648 60.444,107.9352 60.444,107.1576 C60.444,106.3872 59.9904,105.6744 59.1696,105.6744 C58.3632,105.6744 57.9024,106.3872 57.9024,107.1576 C57.9024,107.9352 58.3632,108.648 59.1696,108.648 Z M67.464,108.9 L66.2832,108.9 L65.34,107.1936 L64.5912,107.1936 L64.5912,108.9 L63.5688,108.9 L63.5688,104.0976 L65.8152,104.0976 C66.816,104.0976 67.4352,104.7528 67.4352,105.6456 C67.4352,106.488 66.8952,106.9488 66.3768,107.0712 L67.464,108.9 Z M65.6712,106.2936 C66.0744,106.2936 66.384,106.0488 66.384,105.6384 C66.384,105.2424 66.0744,104.9976 65.6712,104.9976 L64.5912,104.9976 L64.5912,106.2936 L65.6712,106.2936 Z M69.7608,108.9864 C68.8824,108.9864 68.22,108.648 67.8672,108.216 L68.4072,107.532 C68.7312,107.8776 69.2568,108.0792 69.7248,108.0792 C70.308,108.0792 70.632,107.8272 70.632,107.4672 C70.632,107.0856 70.3368,106.9128 69.6672,106.9128 C69.4656,106.9128 69.1416,106.92 69.0696,106.9272 L69.0696,106.0056 C69.156,106.0128 69.4872,106.0128 69.6672,106.0128 C70.2,106.0128 70.56,105.8544 70.56,105.5016 C70.56,105.12 70.164,104.9328 69.6672,104.9328 C69.1992,104.9328 68.7816,105.1056 68.4432,105.4296 L67.932,104.7888 C68.3208,104.3496 68.9256,104.0256 69.768,104.0256 C70.8912,104.0256 71.5824,104.5296 71.5824,105.3288 C71.5824,105.9336 71.064,106.3296 70.5312,106.4232 C71.0208,106.4736 71.6544,106.8552 71.6544,107.5752 C71.6544,108.4032 70.9128,108.9864 69.7608,108.9864 Z M74.268,108.9864 C72.8064,108.9864 72.1944,107.8632 72.1944,106.5096 C72.1944,105.0552 73.0152,104.0256 74.4336,104.0256 C75.0168,104.0256 75.5064,104.22 75.852,104.5224 L75.3912,105.3072 C75.132,105.0624 74.8584,104.9328 74.4336,104.9328 C73.728,104.9328 73.2312,105.5304 73.2312,106.2936 C73.2312,106.3296 73.2312,106.3584 73.2384,106.3944 C73.4616,106.0704 73.944,105.7752 74.4696,105.7752 C75.3336,105.7752 76.1112,106.3152 76.1112,107.3376 C76.1112,108.2736 75.3624,108.9864 74.268,108.9864 Z M74.2104,108.0792 C74.7648,108.0792 75.0672,107.7048 75.0672,107.3736 C75.0672,106.8696 74.6352,106.6536 74.1816,106.6536 C73.8216,106.6536 73.4688,106.8192 73.2384,107.1072 C73.2816,107.568 73.5408,108.0792 74.2104,108.0792 Z M80.3592,108.9864 C79.8696,108.9864 79.4304,108.7344 79.1496,108.3384 L79.1496,110.2248 L78.7752,110.2248 L78.7752,105.4224 L79.1496,105.4224 L79.1496,105.9696 C79.3944,105.6168 79.8408,105.336 80.3592,105.336 C81.288,105.336 81.9144,106.0416 81.9144,107.1576 C81.9144,108.2664 81.288,108.9864 80.3592,108.9864 Z M80.2944,108.648 C81.072,108.648 81.5112,108 81.5112,107.1576 C81.5112,106.3152 81.072,105.6744 80.2944,105.6744 C79.812,105.6744 79.3512,105.9624 79.1496,106.2936 L79.1496,108.0144 C79.3512,108.3456 79.812,108.648 80.2944,108.648 Z M84.3984,108.9864 C83.3832,108.9864 82.6632,108.2304 82.6632,107.1576 C82.6632,106.1496 83.3688,105.336 84.3336,105.336 C85.392,105.336 85.9752,106.1712 85.9752,107.1792 L85.9752,107.28 L83.0664,107.28 C83.1024,108.036 83.6064,108.6624 84.4272,108.6624 C84.8664,108.6624 85.2696,108.4968 85.5648,108.18 L85.7592,108.4248 C85.4136,108.7848 84.9744,108.9864 84.3984,108.9864 Z M85.5936,106.9848 C85.5864,106.3944 85.1976,105.66 84.3264,105.66 C83.5056,105.66 83.0952,106.38 83.0664,106.9848 L85.5936,106.9848 Z M87.3144,108.9 L86.94,108.9 L86.94,105.4224 L87.3144,105.4224 L87.3144,106.02 C87.6096,105.6312 88.0056,105.3504 88.488,105.3504 L88.488,105.7608 C88.4232,105.7464 88.3728,105.7464 88.3008,105.7464 C87.948,105.7464 87.4728,106.0632 87.3144,106.3656 L87.3144,108.9 Z M94.032,108.9 L93.6504,108.9 L93.6504,108.3456 C93.4056,108.7056 92.9592,108.9864 92.4408,108.9864 C91.5192,108.9864 90.8928,108.2808 90.8928,107.1648 C90.8928,106.0632 91.5192,105.336 92.4408,105.336 C92.9376,105.336 93.3768,105.588 93.6504,105.984 L93.6504,104.0976 L94.032,104.0976 L94.032,108.9 Z M92.5056,108.648 C92.9952,108.648 93.4488,108.36 93.6504,108.0288 L93.6504,106.308 C93.4488,105.9696 92.9952,105.6744 92.5056,105.6744 C91.7352,105.6744 91.2888,106.3224 91.2888,107.1648 C91.2888,108.0072 91.7352,108.648 92.5056,108.648 Z M97.7832,108.9 L97.4088,108.9 L97.4088,108.4896 C97.0992,108.828 96.7104,108.9864 96.228,108.9864 C95.6304,108.9864 95.0112,108.576 95.0112,107.8272 C95.0112,107.0712 95.6232,106.6752 96.228,106.6752 C96.7104,106.6752 97.1064,106.8336 97.4088,107.172 L97.4088,106.4664 C97.4088,105.948 96.9912,105.6672 96.48,105.6672 C96.0408,105.6672 95.7024,105.8184 95.3856,106.1784 L95.1768,105.9192 C95.5368,105.5304 95.94,105.336 96.516,105.336 C97.2216,105.336 97.7832,105.6744 97.7832,106.452 L97.7832,108.9 Z M96.3576,108.6912 C96.7752,108.6912 97.164,108.5328 97.4088,108.216 L97.4088,107.4528 C97.164,107.1288 96.7752,106.9704 96.3576,106.9704 C95.7888,106.9704 95.4072,107.3376 95.4072,107.8344 C95.4072,108.324 95.7888,108.6912 96.3576,108.6912 Z M98.7192,110.2608 L98.784,109.9152 C98.8632,109.9512 99,109.9728 99.0864,109.9728 C99.3168,109.9728 99.4752,109.8792 99.6192,109.548 L99.8928,108.9288 L98.4168,105.4224 L98.8344,105.4224 L100.1016,108.4608 L101.3544,105.4224 L101.7792,105.4224 L99.9792,109.6632 C99.792,110.1024 99.4968,110.3112 99.0936,110.3112 C98.9712,110.3112 98.8128,110.2896 98.7192,110.2608 Z M102.6216,108.9648 C102.4488,108.9648 102.2976,108.8208 102.2976,108.648 C102.2976,108.4824 102.4488,108.3384 102.6216,108.3384 C102.7944,108.3384 102.9384,108.4824 102.9384,108.648 C102.9384,108.8208 102.7944,108.9648 102.6216,108.9648 Z" id="You-spent-R2,449-on" fill="#4E4B6B"></path>
                <g id="money-alert-icon" transform="translate(55.260000, 12.600000)">
                    <g id="Shape">
                        <use fill="url(#linearGradient-3)" xlink:href="#path-4"></use>
                        <use fill-opacity="0.597429801" fill="#FFFFFF" xlink:href="#path-4"></use>
                    </g>
                    <g id="605-benchmark-eatingout" transform="translate(5.091000, 5.274419)">
                        <g id="Group">
                            <path d="M13.6255814,0 C6.1004453,0 0,6.1004453 0,13.6255814 C0,21.1507175 6.1004453,27.2511628 13.6255814,27.2511628 C21.1507175,27.2511628 27.2511628,21.1507175 27.2511628,13.6255814 C27.2511628,6.1004453 21.1507175,0 13.6255814,0 L13.6255814,0 Z M13.6255814,17.9857674 C11.2176687,17.9857674 9.26539535,16.0337667 9.26539535,13.6255814 C9.26539535,11.2176687 11.2176687,9.26539535 13.6255814,9.26539535 C16.0334941,9.26539535 17.9857674,11.2176687 17.9857674,13.6255814 C17.9857674,16.0337667 16.0334941,17.9857674 13.6255814,17.9857674 L13.6255814,17.9857674 Z" id="Shape" fill="url(#linearGradient-5)"></path>
                            <g id="Shape">
                                <use fill="url(#linearGradient-6)" xlink:href="#path-7"></use>
                                <use fill-opacity="0.25" fill="#F1692E" xlink:href="#path-7"></use>
                            </g>
                            <path d="M13.6283065,20.6555639 C11.7602393,20.6555639 9.89135456,19.7074959 8.72473228,18.2582791 C9.64118888,20.1519624 11.4923604,21.5295087 13.6283065,21.5295087 C15.7647977,21.5295087 17.6159692,20.1519624 18.5321533,18.2582791 C17.365531,19.7072234 15.4969187,20.6555639 13.6283065,20.6555639 L13.6283065,20.6555639 Z" id="Shape" fill="#E2AC57"></path>
                            <path d="M13.6217662,2.64281777 C17.0238014,2.64281777 20.4277441,4.26507949 22.6160125,6.76510116 C20.8523173,3.66964158 17.4865261,1.57593474 13.6217662,1.57593474 C9.75727884,1.57593474 6.39148772,3.66964158 4.62779247,6.76510116 C6.81633335,4.26507949 10.2197311,2.64281777 13.6217662,2.64281777 L13.6217662,2.64281777 Z" id="Shape" fill="#FFA5F5"></path>
                            <path d="M4.83217619,14.9845969 C4.68229479,14.7297985 4.35010312,14.6428673 4.09039953,14.7897511 C3.83069595,14.9366348 3.74185716,15.2620137 3.89173856,15.5165396 L4.70627581,16.8989911 C4.85615721,17.1535169 5.18834888,17.2407207 5.44805247,17.0938369 C5.70775605,16.9469531 5.79686735,16.6215742 5.64671344,16.3670484 L4.83217619,14.9845969 L4.83217619,14.9845969 Z M11.1558085,1.45330451 C11.084138,1.19114833 10.8097187,1.03554419 10.5426573,1.10585219 L9.09180544,1.48764098 C8.82474405,1.55794898 8.66614228,1.82746298 8.73781284,2.08961916 C8.8094834,2.35177535 9.0839026,2.50737949 9.350964,2.43707149 L10.8018159,2.05555521 C11.0688773,1.98524721 11.2272066,1.71573321 11.1558085,1.45330451 L11.1558085,1.45330451 Z" id="Shape" fill="#E4776E"></path>
                            <path d="M9.09207795,5.46549321 L7.48861953,5.89306395 C7.19348944,5.97181981 7.02453223,6.29910628 7.11173595,6.62448516 C7.19866716,6.94959153 7.5087854,7.14934256 7.80391549,7.0705867 L9.40737391,6.64301595 C9.702504,6.56426009 9.87146121,6.23670112 9.78425749,5.91186726 C9.69705377,5.58648837 9.38720805,5.38700986 9.09207795,5.46549321 L9.09207795,5.46549321 Z M20.9790352,7.62814549 C20.9784901,7.32647512 20.7356823,7.08175967 20.436737,7.08203219 C20.1375193,7.08203219 19.8955289,7.32647512 19.8955289,7.628418 L19.8974365,9.26757544 C19.897709,9.56924581 20.1405169,9.81396126 20.4397347,9.81368874 C20.7389524,9.81368874 20.9812153,9.5689733 20.9806702,9.26730293 L20.9790352,7.62814549 L20.9790352,7.62814549 Z" id="Shape" fill="#51B8DA"></path>
                            <path d="M25.8678938,11.834635 L25.4106193,10.2238187 C25.3264132,9.92732609 25.0040319,9.75128358 24.6900985,9.83085698 C24.3764376,9.91043037 24.1900397,10.2150984 24.2742458,10.511591 L24.7309753,12.1226798 C24.8151813,12.4191724 25.1375626,12.5949424 25.4517685,12.5156415 C25.7657019,12.4360681 25.9518273,12.1314001 25.8678938,11.834635 L25.8678938,11.834635 Z M3.13252116,5.04936795 C2.85428679,4.88340837 2.50710698,4.96734195 2.35668056,5.23658344 L1.54078074,6.69860833 C1.39062684,6.96784981 1.49418126,7.32047986 1.77241563,7.48616693 C2.05065,7.651854 2.39782981,7.56792042 2.54798372,7.29895144 L3.36415605,5.83665405 C3.51430995,5.56768507 3.41075553,5.21505502 3.13252116,5.04936795 L3.13252116,5.04936795 Z M16.087724,4.98042251 L14.705545,5.78732944 C14.4507466,5.93584828 14.3659955,6.26940251 14.5161494,6.53183121 C14.6663033,6.79453242 14.9941348,6.88718637 15.2486607,6.73866753 L16.6308396,5.9317606 C16.8853655,5.78324177 16.9701166,5.44968753 16.8202352,5.18725884 C16.6700813,4.92428512 16.3422498,4.83190367 16.087724,4.98042251 L16.087724,4.98042251 Z" id="Shape" fill="#75C9BA"></path>
                            <path d="M4.35773344,9.61203014 C4.09802986,9.46514637 3.7661107,9.55235009 3.61595679,9.80687595 L2.80141953,11.1893274 C2.65153814,11.4441258 2.74037693,11.7692322 3.00008051,11.9163885 C3.25978409,12.0632722 3.59197577,11.9760685 3.74185716,11.7215427 L4.55639442,10.3388187 C4.70654833,10.0845653 4.61743702,9.75918642 4.35773344,9.61203014 L4.35773344,9.61203014 Z M20.4462749,3.34399019 L19.0591907,2.5264553 C18.8035748,2.37602888 18.4771059,2.46514019 18.3296771,2.72593381 C18.1822483,2.98645493 18.2697246,3.32000916 18.5253405,3.47016307 L19.9124247,4.28769795 C20.167768,4.43812437 20.494237,4.34901307 20.6416658,4.08821944 C20.7890946,3.82797084 20.7018908,3.49468912 20.4462749,3.34399019 L20.4462749,3.34399019 Z" id="Shape" fill="#F4F4F4"></path>
                            <path d="M13.6255814,7.63032558 C10.615418,7.63032558 8.17534884,10.0703947 8.17534884,13.0805581 C8.17534884,16.0907216 10.615418,18.5307907 13.6255814,18.5307907 C16.6357448,18.5307907 19.075814,16.0907216 19.075814,13.0805581 C19.075814,10.0703947 16.6357448,7.63032558 13.6255814,7.63032558 L13.6255814,7.63032558 Z M13.6255814,17.9857674 C11.2176687,17.9857674 9.26539535,16.0337667 9.26539535,13.6255814 C9.26539535,11.2176687 11.2176687,9.26539535 13.6255814,9.26539535 C16.0334941,9.26539535 17.9857674,11.2176687 17.9857674,13.6255814 C17.9857674,16.0337667 16.0334941,17.9857674 13.6255814,17.9857674 L13.6255814,17.9857674 Z" id="Shape" fill="#E2AC57"></path>
                            <path d="M13.6255814,25.8016734 C6.34352567,25.8016734 0.396504419,20.0890122 0.0196208372,12.900973 C0.0068127907,13.1407832 4.84222481e-16,13.3822285 4.84222481e-16,13.6255814 C4.84222481e-16,21.1507175 6.1004453,27.2511628 13.6255814,27.2511628 C21.1507175,27.2511628 27.2511628,21.1507175 27.2511628,13.6255814 C27.2511628,13.3822285 27.24435,13.1407832 27.2318145,12.9007005 C26.8549309,20.0890122 20.9076371,25.8016734 13.6255814,25.8016734 L13.6255814,25.8016734 Z" id="Shape" fill="#E2AC57"></path>
                            <g transform="translate(1.362558, 5.177721)" fill="#64AB9E" id="Shape">
                                <path d="M15.268009,0.481800558 L13.88583,1.28870749 C13.6313041,1.43722633 13.3034727,1.34484488 13.1533187,1.08187116 C13.1263401,1.03499916 13.1097169,0.985402047 13.0977264,0.935532419 C13.0620273,1.07124321 13.0775605,1.22166963 13.1533187,1.35438279 C13.3034727,1.617084 13.6313041,1.70973795 13.88583,1.56121912 L15.268009,0.754312186 C15.4772979,0.632226977 15.5688618,0.385603953 15.5129969,0.155876651 C15.478388,0.289134837 15.3941819,0.407949907 15.268009,0.481800558 L15.268009,0.481800558 Z M2.00159791,0.386421488 L1.18542558,1.84871888 C1.03527167,2.11768786 0.68809186,2.20162144 0.409857488,2.03593437 C0.262156186,1.94791312 0.165414558,1.80647958 0.128080465,1.65332805 C0.0670378605,1.89668093 0.175497488,2.16864753 0.409857488,2.308446 C0.68809186,2.47413307 1.03527167,2.39019949 1.18542558,2.12123051 L2.00159791,0.658933116 C2.07190591,0.533032744 2.08471395,0.388874093 2.05174005,0.253980837 C2.04029456,0.299490279 2.02530642,0.344182186 2.00159791,0.386421488 L2.00159791,0.386421488 Z M24.0889379,7.06540898 C23.7750045,7.14470986 23.4523507,6.96893986 23.3681446,6.67244721 L22.9114151,5.06135847 L22.9108701,5.05808833 C22.8879791,5.14610958 22.884709,5.23985358 22.9114151,5.33387009 L23.3681446,6.94495884 C23.4523507,7.24145149 23.774732,7.41722149 24.0889379,7.3379206 C24.4017812,7.25861972 24.5876341,6.9558593 24.5056081,6.66018419 C24.456011,6.8503973 24.3039495,7.01090665 24.0889379,7.06540898 L24.0889379,7.06540898 Z"></path>
                            </g>
                            <g transform="translate(7.085302, 5.722744)" fill="#459DBA" id="Shape">
                                <path d="M2.32207158,0.647487628 L0.718613163,1.07505837 C0.42348307,1.15381423 0.113364837,0.954063209 0.0264336279,0.628956837 L0.0204383721,0.594075349 C-0.000817534884,0.691362 -0.0019075814,0.796006465 0.0264336279,0.901468465 C0.113364837,1.22657484 0.42348307,1.42632586 0.718613163,1.34757 L2.32207158,0.919999256 C2.60684623,0.844241023 2.77144326,0.536847907 2.70495042,0.223732047 C2.66080353,0.426753209 2.52155009,0.594620372 2.32207158,0.647487628 L2.32207158,0.647487628 Z M13.3544323,3.81843293 C13.054942,3.81843293 12.8124067,3.57399 12.8121342,3.27231963 L12.8104991,1.90267619 L12.8102266,1.90567381 L12.8121342,3.54483126 C12.8124067,3.84650163 13.0552146,4.09121707 13.3544323,4.09094456 C13.6536501,4.09094456 13.8959129,3.84622912 13.8953679,3.54455874 L13.8950954,3.27477223 C13.8942779,3.57535256 13.6528326,3.81843293 13.3544323,3.81843293 L13.3544323,3.81843293 Z"></path>
                            </g>
                            <g transform="translate(2.725116, 2.725116)" fill="#D3D3D3" id="Shape">
                                <path d="M17.9165495,1.09113656 C17.7691207,1.35193019 17.4426518,1.44104149 17.1873084,1.29061507 L15.8002242,0.473080186 C15.6724162,0.397866977 15.5868476,0.276871814 15.5514211,0.141978558 C15.4950112,0.371978372 15.5890277,0.621326512 15.8002242,0.745591814 L17.1873084,1.5631267 C17.4426518,1.71355312 17.7691207,1.62444181 17.9165495,1.36364819 C17.9904001,1.23311512 18.0051158,1.08486879 17.9699618,0.949975535 C17.9579713,0.998210093 17.9421656,1.04589963 17.9165495,1.09113656 L17.9165495,1.09113656 Z M1.83155065,7.34146326 L1.0170134,8.72418726 C0.867132,8.97871312 0.534940326,9.06591684 0.275236744,8.91903307 C0.146066233,8.84599995 0.0594075349,8.72881995 0.0231634884,8.59828688 C-0.0362440465,8.82392651 0.0591350233,9.06918698 0.275236744,9.1915447 C0.534940326,9.33842847 0.867132,9.25122474 1.0170134,8.99669888 L1.83155065,7.61397488 C1.90703637,7.48589442 1.921752,7.3401007 1.88496293,7.20766005 C1.87269991,7.253442 1.85662172,7.29867893 1.83155065,7.34146326 L1.83155065,7.34146326 Z"></path>
                            </g>
                            <g transform="translate(3.815163, 1.362558)" fill="#C5675F" id="Shape">
                                <path d="M1.63261716,15.4590396 C1.37291358,15.6059234 1.04099442,15.5187197 0.890840512,15.2641938 L0.0763032558,13.8817423 C0.0509596744,13.838958 0.0348814884,13.7937211 0.0228909767,13.7482116 C-0.013898093,13.8803798 0.000817534884,14.026446 0.0763032558,14.154254 L0.890840512,15.5367054 C1.04072191,15.7912313 1.37291358,15.878435 1.63261716,15.7315513 C1.84871888,15.609466 1.94437047,15.3639331 1.88469042,15.1382934 C1.84844637,15.268554 1.76178767,15.3860065 1.63261716,15.4590396 L1.63261716,15.4590396 Z M7.33655805,0.0803909302 C7.28968605,0.240627767 7.16269563,0.374158465 6.98665312,0.420485442 L5.53580121,0.802001721 C5.27255498,0.871219674 5.00276847,0.720248233 4.92673772,0.464904837 C4.90248419,0.547748372 4.89839651,0.637677209 4.92265005,0.727061023 C4.9943206,0.989217209 5.26873981,1.14482135 5.53580121,1.07451335 L6.98665312,0.69299707 C7.25371451,0.62268907 7.41231628,0.35317507 7.34064572,0.0907463721 L7.33655805,0.0803909302 L7.33655805,0.0803909302 Z"></path>
                            </g>
                            <g transform="translate(0.000000, 12.808047)" fill="#DFABA3" id="Shape">
                                <path d="M27.2318145,0.0934714884 C27.209196,0.526219953 27.1650491,0.953245674 27.1029165,1.37454865 C27.1530586,1.2584587 27.2004756,1.14482135 27.24544,1.03554419 L27.2511628,0.817534884 C27.2511628,0.574999535 27.24435,0.334099256 27.2318145,0.0948340465 L27.2318145,0.0934714884 L27.2318145,0.0934714884 Z M0.05859,2.05800781 L0.0654027907,2.14766414 C0.108187116,2.5825927 0.171409814,3.01125349 0.253435814,3.433374 L0.68291414,3.6254947 C0.314478419,2.50438186 0.0839335814,1.32113637 0.0196208372,0.0926539535 C0.0068127907,0.332736698 6.9388939e-17,0.574182 6.9388939e-17,0.817534884 C6.9388939e-17,1.04399205 0.00599525581,1.26908665 0.0168957209,1.49309121 C0.0267061395,1.68248679 0.0414217674,1.87051981 0.05859,2.05800781 L0.05859,2.05800781 Z"></path>
                            </g>
                            <g id="Shape">
                                <use fill="#C851BA" xlink:href="#path-8"></use>
                                <use fill-opacity="0.256482111" fill="#F1692E" xlink:href="#path-8"></use>
                            </g>
                            <g transform="translate(0.000000, 13.080558)" fill="#D69022" id="Shape">
                                <path d="M9.27384321,0.377701116 C8.56613051,0.568731767 7.4033234,1.08868395 7.35781395,2.45260465 C7.29213865,4.417686 4.90439177,7.96469735 2.99762791,5.17772093 C2.13594614,3.9184447 1.14700144,3.56663219 0.253708326,3.16086237 L0.312570837,3.45571995 C1.20586395,3.86148977 2.13594614,4.19095633 2.99762791,5.45023256 C4.90439177,8.23720898 7.29213865,4.69019763 7.35781395,2.72511628 C7.4033234,1.36119558 8.55495753,0.840698372 9.26267023,0.649667721 L9.27384321,0.377701116 L9.27384321,0.377701116 Z M27.24544,0.763032558 C26.5363648,2.48775865 25.1827995,5.2333133 23.436,2.72511628 C20.8125306,-1.04153944 19.8415716,-0.0844786047 19.6208372,1.09004651 C19.5080174,1.69093465 18.5626746,2.26647921 17.7148909,2.05909786 C17.6892748,2.14412149 17.6429478,2.22751005 17.612699,2.31035358 C18.4855538,2.57714247 19.5042022,1.98252209 19.6208372,1.36255814 C19.8415716,0.188033023 20.8125306,-0.769027814 23.436,2.99762791 C25.1827995,5.50582493 26.5363648,2.76027028 27.24544,1.03554419 L27.2511628,0.817534884 L27.2476201,0.680189023 L27.24544,0.763032558 L27.24544,0.763032558 Z"></path>
                            </g>
                            <path d="M9.26539535,13.6255814 L9.27384321,13.4582593 C8.97299037,13.5394677 8.59092907,13.6809013 8.24647437,13.9201665 C8.25900991,14.0011024 8.26745777,14.0834009 8.28353595,14.1629743 C8.61382005,13.9416949 8.97462544,13.8078917 9.26267023,13.7302259 L9.26621288,13.6446572 L9.26539535,13.6255814 L9.26539535,13.6255814 Z M0.787286093,16.7491097 C0.750224512,16.6450102 0.717523116,16.5390032 0.68291414,16.4335412 L0.253435814,16.2414205 L0.297037674,16.4597023 L0.315023442,16.5373681 L0.787286093,16.7491097 L0.787286093,16.7491097 Z M17.7148909,15.139656 C17.6990852,15.1917057 17.6761942,15.2434829 17.6533033,15.2944426 L17.6293222,15.3508525 L17.6124265,15.3906392 C17.9258149,15.4865633 18.257734,15.4699401 18.5604945,15.3824639 C18.608729,15.279182 18.654511,15.1750825 18.6962053,15.068803 C18.3909922,15.1813503 18.0459925,15.220592 17.7148909,15.139656 L17.7148909,15.139656 Z M27.2476201,13.7607472 L27.24544,13.8435907 C27.2004756,13.9528679 27.1527861,14.0665052 27.1029165,14.1825952 C27.080843,14.3324766 27.0535919,14.4807229 27.0266132,14.6289692 C27.1023714,14.4586494 27.172952,14.2921448 27.2383547,14.1338156 C27.2429874,14.0100953 27.2462576,13.886375 27.2476201,13.7618372 L27.2476201,13.7607472 L27.2476201,13.7607472 Z" id="Shape" fill="#BB7E1E"></path>
                        </g>
                    </g>
                </g>
            </g>
        </g>
    </g>
</svg>