<?xml version="1.0" encoding="UTF-8"?>
<svg width="183.076923px" height="144.684086px" viewBox="0 0 183.076923 144.684086" version="1.1" xmlns="http://www.w3.org/2000/svg" xmlns:xlink="http://www.w3.org/1999/xlink">
    <!-- Generator: Sketch 52.6 (67491) - http://www.bohemiancoding.com/sketch -->
    <desc>Created with Sketch.</desc>
    <defs>
        <rect id="path-1" x="0" y="0.0768768769" width="145.44486" height="106.659564" rx="0.808026998"></rect>
        <filter x="-16.2%" y="-17.3%" width="132.3%" height="144.1%" filterUnits="objectBoundingBox" id="filter-2">
            <feOffset dx="0" dy="5" in="SourceAlpha" result="shadowOffsetOuter1"></feOffset>
            <feGaussianBlur stdDeviation="7" in="shadowOffsetOuter1" result="shadowBlurOuter1"></feGaussianBlur>
            <feColorMatrix values="0 0 0 0 0   0 0 0 0 0   0 0 0 0 0  0 0 0 0.10377038 0" type="matrix" in="shadowBlurOuter1"></feColorMatrix>
        </filter>
        <linearGradient x1="67.236151%" y1="17.9919%" x2="-53.002714%" y2="75.8529284%" id="linearGradient-3">
            <stop stop-color="#7FE5C0" offset="0%"></stop>
            <stop stop-color="#3DB39E" offset="100%"></stop>
        </linearGradient>
        <linearGradient x1="38.1549092%" y1="11.2545687%" x2="38.1549092%" y2="100%" id="linearGradient-4">
            <stop stop-color="#F8E597" offset="0%"></stop>
            <stop stop-color="#EFC75E" offset="100%"></stop>
        </linearGradient>
    </defs>
    <g id="Page-1" stroke="none" stroke-width="1" fill="none" fill-rule="evenodd">
        <g id="card/nudge/bank-fees">
            <g transform="translate(18.450450, 18.450450)">
                <g id="Rectangle-11-Copy-5" fill-rule="nonzero">
                    <use fill="black" fill-opacity="1" filter="url(#filter-2)" xlink:href="#path-1"></use>
                    <use fill="#FFFFFF" xlink:href="#path-1"></use>
                </g>
                <g id="502-6months-bankfees-spend" transform="translate(56.561890, 8.561160)">
                    <path d="M0,16.1603783 C0,25.0859338 7.23539695,32.3210799 16.16054,32.3210799 C25.085683,32.3210799 32.3210799,25.0859338 32.3210799,16.1603783 C32.3210799,7.23514609 25.085683,7.10542736e-15 16.16054,7.10542736e-15 C7.23539695,9.40200118e-15 0,7.23514609 0,16.1603783 Z" id="Shape" fill="url(#linearGradient-3)"></path>
                    <g id="Group" transform="translate(19.392648, 9.292310)" fill="#37A18E">
                        <path d="M3.39835076,1.80625112 L5.62270856,1.80625112 C5.9151792,1.80625112 6.15864125,2.00483929 6.2288342,2.27242054 C6.24179777,2.22238502 6.25096712,2.17110639 6.25096712,2.11703073 C6.25096712,1.77393004 5.96956293,1.4954715 5.62270856,1.4954715 L3.39835076,1.4954715 C2.5848081,1.4954715 1.92366636,0.881060207 1.84367169,0.0969632397 C1.83829655,0.148863435 1.82786246,0.199209733 1.82786246,0.252353047 C1.82786246,1.11072634 2.53105674,1.80625112 3.39835076,1.80625112 L3.39835076,1.80625112 Z M5.62270856,3.67092881 L1.08451276,3.67092881 L0.457835123,3.04936958 L0.144496306,3.04936958 L1.08482894,3.98170842 L5.62334093,3.98170842 C6.49063495,3.98170842 7.19382923,3.28587286 7.19382923,2.42781035 C7.19382923,2.37466703 7.18339514,2.32432074 7.17802,2.27242054 C7.09739296,3.05651751 6.43625122,3.67092881 5.62270856,3.67092881 L5.62270856,3.67092881 Z" id="Shape"></path>
                    </g>
                    <path d="M22.7102865,8.67440747 L30.3010124,8.67440747 C30.1285545,8.33470342 29.9464261,8.0016537 29.752693,7.67625648 L22.7102865,7.67625648 C21.8260771,7.67625648 21.1091681,8.42120984 21.1091681,9.33984147 C21.1091681,10.2584731 21.8260771,11.0034265 22.7102865,11.0034265 L24.9780271,11.0034265 C25.3319687,11.0034265 25.6185389,11.3015409 25.6185389,11.6688605 C25.6185389,12.03618 25.3316464,12.3342945 24.9780271,12.3342945 L19.3926479,12.3342945 L20.3513204,13.3324455 L24.9783495,13.3324455 C25.8625588,13.3324455 26.5794679,12.5874921 26.5794679,11.6688605 C26.5794679,10.7502288 25.8625588,10.0052755 24.9783495,10.0052755 L22.7102865,10.0052755 C22.3563448,10.0052755 22.0697746,9.70716104 22.0697746,9.33984147 C22.0697746,8.97252191 22.3563448,8.67440747 22.7102865,8.67440747 L22.7102865,8.67440747 Z" id="Shape" fill="#E4E7E7"></path>
                    <g id="Group" transform="translate(8.080270, 9.696324)" fill="#37A18E">
                        <path d="M5.17137278,3.08490448 C5.17137278,2.45707543 4.66490146,1.9481214 4.04013499,1.9481214 C3.64484818,1.9481214 3.2983662,2.15241756 3.09603624,2.46097297 C3.27444861,2.34274753 3.48744452,2.27291657 3.71692419,2.27291657 C4.34169066,2.27291657 4.84816199,2.78187059 4.84816199,3.40969965 C4.84816199,3.64030422 4.77867166,3.85466903 4.66102293,4.03363116 C4.96807319,3.83063418 5.17137278,3.48212897 5.17137278,3.08490448 L5.17137278,3.08490448 Z M10.1387996,15.5856208 C9.70084892,16.0253935 8.99107801,16.0253935 8.55345059,15.5856208 L1.08501865,8.15690579 C1.03104245,8.102665 0.641573436,7.49692201 0.641573436,7.000635 L0.644805544,0.727541171 C0.644805544,0.462833111 0.677773046,0.263084084 0.745647313,0.108481585 C0.442798795,0.241972398 0.321594745,0.525843373 0.321594745,1.05233634 L0.318362637,7.32543017 C0.318362637,7.82139239 0.70783165,8.42746016 0.761807853,8.48170096 L8.23023979,15.910416 C8.66786721,16.3501886 9.37763812,16.3501886 9.81558876,15.910416 L16.1566614,9.54313156 L16.1579543,9.54183238 L10.1387996,15.5856208 L10.1387996,15.5856208 Z" id="Shape"></path>
                    </g>
                    <path d="M17.3251789,9.73779742 C17.2705765,9.68316222 16.7368297,9.2939269 16.185313,9.29231047 C14.6528912,9.30847473 11.5392607,9.29812961 9.9144348,9.29812961 C9.15452417,9.29812961 8.89152789,9.5486756 8.89152789,10.3355517 L8.88829697,16.5794811 C8.88829697,17.0731376 9.27762194,17.6763877 9.33157818,17.7303763 L16.7972478,25.1245544 C17.2347134,25.5622824 17.9442218,25.5622824 18.3820104,25.1245544 L24.7207378,18.7868722 C25.1582033,18.3491441 25.1582033,17.6398565 24.7207378,17.2021284 L17.3251789,9.73779742 Z M12.2856015,13.8134534 C11.6610661,13.8134534 11.1547821,13.3068655 11.1547821,12.6819553 C11.1547821,12.0570451 11.6610661,11.5504573 12.2856015,11.5504573 C12.9101369,11.5504573 13.4164209,12.0570451 13.4164209,12.6819553 C13.4164209,13.3068655 12.9101369,13.8134534 12.2856015,13.8134534 L12.2856015,13.8134534 Z" id="Shape" fill="url(#linearGradient-4)"></path>
                    <path d="M12.3224117,10.9083645 C11.3181811,10.9083645 10.504351,11.7221946 10.504351,12.7264252 C10.504351,13.7306559 11.3181811,14.544486 12.3224117,14.544486 C13.3266424,14.544486 14.1404725,13.7306559 14.1404725,12.7264252 C14.1404725,11.7221946 13.3266424,10.9083645 12.3224117,10.9083645 L12.3224117,10.9083645 Z M12.3224117,13.5528165 C11.8659132,13.5528165 11.4960205,13.1829237 11.4960205,12.7264252 C11.4960205,12.2699267 11.8659132,11.900034 12.3224117,11.900034 C12.7789102,11.900034 13.148803,12.2699267 13.148803,12.7264252 C13.148803,13.1829237 12.7789102,13.5528165 12.3224117,13.5528165 L12.3224117,13.5528165 Z" id="Shape" fill="#30444D"></path>
                    <path d="M17.3725804,16.6992246 C18.1027798,16.6992246 18.6948064,16.126384 18.6948064,15.4198485 C18.6948064,14.7133131 18.1027798,14.1404725 17.3725804,14.1404725 C16.6423811,14.1404725 16.0503545,14.7133131 16.0503545,15.4198485 C16.0503545,16.126384 16.6423811,16.6992246 17.3725804,16.6992246 L17.3725804,16.6992246 Z M17.3725804,14.7801605 C17.7375148,14.7801605 18.0336934,15.0667407 18.0336934,15.4198485 C18.0336934,15.7729563 17.7375148,16.0595366 17.3725804,16.0595366 C17.0076461,16.0595366 16.7114675,15.7729563 16.7114675,15.4198485 C16.7114675,15.0667407 17.0076461,14.7801605 17.3725804,14.7801605 L17.3725804,14.7801605 Z M17.3725804,19.2579768 C16.6423811,19.2579768 16.0503545,19.8308174 16.0503545,20.5373529 C16.0503545,21.2438883 16.6423811,21.8167289 17.3725804,21.8167289 C18.1027798,21.8167289 18.6948064,21.2438883 18.6948064,20.5373529 C18.6948064,19.8308174 18.1027798,19.2579768 17.3725804,19.2579768 L17.3725804,19.2579768 Z M17.3725804,21.1770409 C17.0076461,21.1770409 16.7114675,20.8904607 16.7114675,20.5373529 C16.7114675,20.1842451 17.0076461,19.8976648 17.3725804,19.8976648 C17.7375148,19.8976648 18.0336934,20.1842451 18.0336934,20.5373529 C18.0336934,20.8904607 17.7375148,21.1770409 17.3725804,21.1770409 L17.3725804,21.1770409 Z M20.6781454,17.6587567 L14.0670155,17.6587567 C13.8845483,17.6587567 13.736459,17.801727 13.736459,17.9786007 C13.736459,18.1554744 13.8845483,18.2984447 14.0670155,18.2984447 L20.6781454,18.2984447 C20.8609432,18.2984447 21.0087019,18.1554744 21.0087019,17.9786007 C21.0087019,17.801727 20.8609432,17.6587567 20.6781454,17.6587567 L20.6781454,17.6587567 Z" id="Shape" fill="#D07C40"></path>
                    <polygon id="Shape" fill="#CDCFCF" points="20.3629662 12.120405 19.3926479 12.120405 20.4332994 12.928432 21.4127154 12.928432"></polygon>
                    <path d="M0.607340284,12.120405 C0.529334411,12.3865152 0.462517904,12.6563962 0.404013499,12.928432 L12.7650672,12.928432 C12.8660912,12.8155775 12.928432,12.6765969 12.928432,12.5244185 C12.928432,12.37224 12.8660912,12.2332594 12.7650672,12.120405 L0.607340284,12.120405 L0.607340284,12.120405 Z" id="Shape" fill="#E4E7E7"></path>
                    <path d="M24.7186119,17.1052516 L17.2751348,9.73234125 C17.2201786,9.67837521 16.6829735,9.2939071 16.1278833,9.29231047 C14.5855324,9.30827676 11.4517277,9.29805833 9.81637402,9.29805833 C9.3077852,9.29805833 9.0235738,9.4120576 8.88829697,9.71413968 C9.04080858,9.64835859 9.23591939,9.617384 9.49118935,9.617384 C11.1265431,9.617384 14.2606729,9.62760243 15.8026986,9.61163614 C16.3577888,9.61323277 16.8949939,9.99738155 16.9499501,10.0516669 L24.3934272,17.4245773 C24.8334021,17.8566249 24.8337273,18.5559482 24.394728,18.9886344 L24.7186119,18.6705861 C25.1589119,18.2382191 25.1589119,17.5376186 24.7186119,17.1052516 L24.7186119,17.1052516 Z" id="Shape" fill="#F2D27E"></path>
                    <path d="M30.5396334,8.48428348 L22.9476959,8.48428348 C22.5936978,8.48428348 22.3070819,8.77033333 22.3070819,9.12278762 C22.3070819,9.17833748 22.3164315,9.23101407 22.32965,9.28241366 C22.4012234,9.00753762 22.6494735,8.80353555 22.9476959,8.80353555 L30.7050259,8.80353555 C30.6511847,8.6965861 30.5957314,8.59027516 30.5396334,8.48428348 L30.5396334,8.48428348 Z M12.8697117,13.0434636 L0.472362859,13.0434636 L0.404013499,13.3627157 L12.2284528,13.3627157 C12.491211,13.3627157 12.7223737,13.2362918 12.8697117,13.0434636 L12.8697117,13.0434636 Z" id="Shape" fill="#37A18E"></path>
                    <path d="M8.88829697,13.736459 L11.312378,13.736459 C11.2243115,13.6209111 11.1536781,13.4835465 11.100177,13.3324455 L8.88859754,13.3324455 L8.88829697,13.736459 L8.88829697,13.736459 Z" id="Shape" fill="#D7B354"></path>
                    <path d="M10.6244548,13.736459 L12.120405,13.736459 C11.8713346,13.736459 11.6522138,13.5764696 11.5125511,13.3324455 L10.504351,13.3324455 C10.5346061,13.4734462 10.5749464,13.6083867 10.6244548,13.736459 L10.6244548,13.736459 Z" id="Shape" fill="#273A45"></path>
                    <polygon id="Shape" fill="#319180" points="8.48428348 13.736459 8.88789296 13.736459 8.88829697 13.3324455 8.48468749 13.3324455"></polygon>
                </g>
                <path d="M15.6789559,51.0332672 L15.3040313,51.0332672 L15.3040313,49.1909656 L13.5910141,46.7216351 L14.037045,46.7216351 L15.4914936,48.8418979 L16.9459422,46.7216351 L17.3919731,46.7216351 L15.6789559,49.1909656 L15.6789559,51.0332672 Z M18.497354,51.1108378 C17.5858996,51.1108378 17.0041201,50.3803814 17.0041201,49.4689269 C17.0041201,48.5574724 17.5858996,47.8334803 18.497354,47.8334803 C19.4217369,47.8334803 20.0035164,48.5574724 20.0035164,49.4689269 C20.0035164,50.3803814 19.4217369,51.1108378 18.497354,51.1108378 Z M18.497354,50.8070196 C19.2342747,50.8070196 19.6415203,50.1670622 19.6415203,49.4689269 C19.6415203,48.7772558 19.2342747,48.1372984 18.497354,48.1372984 C17.7733618,48.1372984 17.359652,48.7772558 17.359652,49.4689269 C17.359652,50.1670622 17.7733618,50.8070196 18.497354,50.8070196 Z M23.3131949,51.0332672 L22.9770557,51.0332672 L22.9770557,50.5743078 C22.7249513,50.8587333 22.3047772,51.1108378 21.8522821,51.1108378 C21.218789,51.1108378 20.8697213,50.8134838 20.8697213,50.1088843 L20.8697213,47.9110508 L21.2058605,47.9110508 L21.2058605,50.0313137 C21.2058605,50.63895 21.5096787,50.8070196 21.9621738,50.8070196 C22.3629552,50.8070196 22.7702008,50.5678436 22.9770557,50.2898823 L22.9770557,47.9110508 L23.3131949,47.9110508 L23.3131949,51.0332672 Z M24.6965372,51.0332672 L24.3603979,51.0332672 L24.3603979,47.9110508 L24.6965372,47.9110508 L24.6965372,48.4475808 C24.96157,48.0985131 25.3171019,47.8464087 25.7502044,47.8464087 L25.7502044,48.214869 C25.6920264,48.2019406 25.6467769,48.2019406 25.5821347,48.2019406 C25.2653882,48.2019406 24.8387499,48.4863661 24.6965372,48.7578631 L24.6965372,51.0332672 Z M28.4199256,50.251097 C28.6009236,50.548451 29.0146334,50.8070196 29.4477359,50.8070196 C30.1458712,50.8070196 30.5401884,50.2317044 30.5401884,49.4753911 C30.5401884,48.7190778 30.1458712,48.1372984 29.4477359,48.1372984 C29.0146334,48.1372984 28.6009236,48.4087955 28.4199256,48.7061494 L28.4199256,50.251097 Z M28.4199256,51.0332672 L28.0837863,51.0332672 L28.0837863,46.7216351 L28.4199256,46.7216351 L28.4199256,48.4152597 C28.67203,48.0597278 29.0663472,47.8334803 29.5059138,47.8334803 C30.3397977,47.8334803 30.9021845,48.4863661 30.9021845,49.4753911 C30.9021845,50.4773446 30.3333335,51.1108378 29.5059138,51.1108378 C29.0404903,51.1108378 28.6397089,50.8587333 28.4199256,50.5355225 L28.4199256,51.0332672 Z M34.0955072,51.0332672 L33.759368,51.0332672 L33.759368,50.6648069 C33.4814067,50.968625 33.132339,51.1108378 32.6992365,51.1108378 C32.1627066,51.1108378 31.606784,50.7423774 31.606784,50.070099 C31.606784,49.3913563 32.1562424,49.0358244 32.6992365,49.0358244 C33.132339,49.0358244 33.4878709,49.1780372 33.759368,49.4818553 L33.759368,48.8483622 C33.759368,48.3829386 33.3844434,48.1308342 32.9254841,48.1308342 C32.5311669,48.1308342 32.2273488,48.2665827 31.9429233,48.5897935 L31.755461,48.3570818 C32.0786718,48.0080141 32.4406679,47.8334803 32.9578052,47.8334803 C33.5912983,47.8334803 34.0955072,48.1372984 34.0955072,48.8354337 L34.0955072,51.0332672 Z M32.8155924,50.8458049 C33.190517,50.8458049 33.5395846,50.7035922 33.759368,50.4191666 L33.759368,49.7339598 C33.5395846,49.44307 33.190517,49.3008573 32.8155924,49.3008573 C32.3049194,49.3008573 31.9623159,49.6305323 31.9623159,50.0765632 C31.9623159,50.5161299 32.3049194,50.8458049 32.8155924,50.8458049 Z M37.5861838,51.0332672 L37.2500446,51.0332672 L37.2500446,48.9194685 C37.2500446,48.3182965 36.9462264,48.1372984 36.4937313,48.1372984 C36.0929499,48.1372984 35.6792401,48.3894028 35.4788494,48.6738283 L35.4788494,51.0332672 L35.1427102,51.0332672 L35.1427102,47.9110508 L35.4788494,47.9110508 L35.4788494,48.3829386 C35.705097,48.1114415 36.1511279,47.8334803 36.603623,47.8334803 C37.2371162,47.8334803 37.5861838,48.1437626 37.5861838,48.8483622 L37.5861838,51.0332672 Z M41.2513943,51.0332672 L40.7988992,51.0332672 L39.5513055,49.5464975 L38.969526,50.0959558 L38.969526,51.0332672 L38.6333868,51.0332672 L38.6333868,46.7216351 L38.969526,46.7216351 L38.969526,49.6951745 L40.8053634,47.9110508 L41.2578585,47.9110508 L39.8034099,49.3202499 L41.2513943,51.0332672 Z M44.9101405,51.1108378 C43.9922219,51.1108378 43.397514,50.3803814 43.397514,49.4689269 C43.397514,48.5574724 43.9922219,47.8334803 44.9101405,47.8334803 C45.4531347,47.8334803 45.763417,48.0467994 46.0155215,48.363546 L45.7828097,48.5704009 C45.5565621,48.2601185 45.2721366,48.1372984 44.9295332,48.1372984 C44.1990768,48.1372984 43.7530459,48.7190778 43.7530459,49.4689269 C43.7530459,50.218776 44.1990768,50.8070196 44.9295332,50.8070196 C45.2721366,50.8070196 45.5565621,50.6777353 45.7828097,50.3674529 L46.0155215,50.5743078 C45.763417,50.8975186 45.4531347,51.1108378 44.9101405,51.1108378 Z M49.2088442,51.0332672 L48.8727049,51.0332672 L48.8727049,48.9065401 C48.8727049,48.305368 48.5688868,48.1372984 48.1163917,48.1372984 C47.7156103,48.1372984 47.3019004,48.3894028 47.1015097,48.6738283 L47.1015097,51.0332672 L46.7653705,51.0332672 L46.7653705,46.7216351 L47.1015097,46.7216351 L47.1015097,48.3829386 C47.3277573,48.1114415 47.7737882,47.8334803 48.2262833,47.8334803 C48.8597765,47.8334803 49.2088442,48.1308342 49.2088442,48.8354337 L49.2088442,51.0332672 Z M52.5767007,51.0332672 L52.2405615,51.0332672 L52.2405615,50.6648069 C51.9626002,50.968625 51.6135325,51.1108378 51.18043,51.1108378 C50.6439001,51.1108378 50.0879775,50.7423774 50.0879775,50.070099 C50.0879775,49.3913563 50.6374359,49.0358244 51.18043,49.0358244 C51.6135325,49.0358244 51.9690644,49.1780372 52.2405615,49.4818553 L52.2405615,48.8483622 C52.2405615,48.3829386 51.8656369,48.1308342 51.4066776,48.1308342 C51.0123604,48.1308342 50.7085423,48.2665827 50.4241168,48.5897935 L50.2366545,48.3570818 C50.5598653,48.0080141 50.9218614,47.8334803 51.4389987,47.8334803 C52.0724918,47.8334803 52.5767007,48.1372984 52.5767007,48.8354337 L52.5767007,51.0332672 Z M51.2967859,50.8458049 C51.6717104,50.8458049 52.0207781,50.7035922 52.2405615,50.4191666 L52.2405615,49.7339598 C52.0207781,49.44307 51.6717104,49.3008573 51.2967859,49.3008573 C50.7861129,49.3008573 50.4435094,49.6305323 50.4435094,50.0765632 C50.4435094,50.5161299 50.7861129,50.8458049 51.2967859,50.8458049 Z M53.9600429,51.0332672 L53.6239037,51.0332672 L53.6239037,47.9110508 L53.9600429,47.9110508 L53.9600429,48.4475808 C54.2250758,48.0985131 54.5806076,47.8464087 55.0137101,47.8464087 L55.0137101,48.214869 C54.9555322,48.2019406 54.9102827,48.2019406 54.8456405,48.2019406 C54.5288939,48.2019406 54.1022557,48.4863661 53.9600429,48.7578631 L53.9600429,51.0332672 Z M56.9141896,52.3002535 C56.3841239,52.3002535 56.0479847,52.2032903 55.6795244,51.8283657 L55.8734508,51.5568687 C56.1449479,51.8800795 56.4423018,51.9964353 56.9141896,51.9964353 C57.4765764,51.9964353 57.974321,51.7120098 57.974321,51.0074103 L57.974321,50.5096657 C57.7545377,50.8328765 57.3537563,51.0979093 56.8883327,51.0979093 C56.0609131,51.0979093 55.4985263,50.4708804 55.4985263,49.4689269 C55.4985263,48.4799019 56.0609131,47.8334803 56.8883327,47.8334803 C57.3343636,47.8334803 57.7222166,48.0597278 57.974321,48.4152597 L57.974321,47.9110508 L58.3169245,47.9110508 L58.3169245,51.0074103 C58.3169245,51.9576501 57.6705029,52.3002535 56.9141896,52.3002535 Z M56.9465107,50.7940912 C57.3796132,50.7940912 57.793323,50.5290583 57.974321,50.2252402 L57.974321,48.7061494 C57.793323,48.4023313 57.3796132,48.1372984 56.9465107,48.1372984 C56.2548396,48.1372984 55.8540582,48.7126136 55.8540582,49.4689269 C55.8540582,50.2252402 56.2548396,50.7940912 56.9465107,50.7940912 Z M60.7410055,51.1108378 C59.829551,51.1108378 59.1831294,50.4320951 59.1831294,49.4689269 C59.1831294,48.5639367 59.8166226,47.8334803 60.6828275,47.8334803 C61.6330673,47.8334803 62.1566688,48.5833293 62.1566688,49.4883195 L62.1566688,49.5788186 L59.5451255,49.5788186 C59.5774466,50.2575612 60.0299417,50.819948 60.7668623,50.819948 C61.1611795,50.819948 61.5231756,50.6712711 61.7882085,50.3868456 L61.9627423,50.6066289 C61.6524599,50.9298397 61.2581427,51.1108378 60.7410055,51.1108378 Z M61.8140653,49.3137857 C61.8076011,48.78372 61.4585334,48.12437 60.6763633,48.12437 C59.9394427,48.12437 59.5709824,48.7707916 59.5451255,49.3137857 L61.8140653,49.3137857 Z M63.9537208,51.1108378 C63.449512,51.1108378 63.061659,50.9621608 62.7513766,50.6130931 L62.9517673,50.3674529 C63.152158,50.6195573 63.5206183,50.8264123 63.960185,50.8264123 C64.4837865,50.8264123 64.7940689,50.5549152 64.7940689,50.1929191 C64.7940689,49.3396426 62.822483,49.8244588 62.822483,48.6996852 C62.822483,48.2213332 63.2297286,47.8334803 63.9343282,47.8334803 C64.4708581,47.8334803 64.82639,48.0403352 65.0526375,48.2924396 L64.8651753,48.5316156 C64.6841772,48.2859754 64.348038,48.1179058 63.9343282,48.1179058 C63.449512,48.1179058 63.1586222,48.363546 63.1586222,48.6867568 C63.1586222,49.4689269 65.1237439,48.9905749 65.1237439,50.1929191 C65.1237439,50.6971279 64.7358909,51.1108378 63.9537208,51.1108378 Z M69.9848343,51.0332672 L69.6486951,51.0332672 L69.6486951,50.6648069 C69.3707338,50.968625 69.0216661,51.1108378 68.5885637,51.1108378 C68.0520337,51.1108378 67.4961112,50.7423774 67.4961112,50.070099 C67.4961112,49.3913563 68.0455695,49.0358244 68.5885637,49.0358244 C69.0216661,49.0358244 69.377198,49.1780372 69.6486951,49.4818553 L69.6486951,48.8483622 C69.6486951,48.3829386 69.2737706,48.1308342 68.8148112,48.1308342 C68.4204941,48.1308342 68.1166759,48.2665827 67.8322504,48.5897935 L67.6447881,48.3570818 C67.9679989,48.0080141 68.329995,47.8334803 68.8471323,47.8334803 C69.4806255,47.8334803 69.9848343,48.1372984 69.9848343,48.8354337 L69.9848343,51.0332672 Z M68.7049196,50.8458049 C69.0798441,50.8458049 69.4289117,50.7035922 69.6486951,50.4191666 L69.6486951,49.7339598 C69.4289117,49.44307 69.0798441,49.3008573 68.7049196,49.3008573 C68.1942465,49.3008573 67.851643,49.6305323 67.851643,50.0765632 C67.851643,50.5161299 68.1942465,50.8458049 68.7049196,50.8458049 Z M73.4755109,51.0332672 L73.1393717,51.0332672 L73.1393717,48.9194685 C73.1393717,48.3182965 72.8355536,48.1372984 72.3830584,48.1372984 C71.9822771,48.1372984 71.5685672,48.3894028 71.3681765,48.6738283 L71.3681765,51.0332672 L71.0320373,51.0332672 L71.0320373,47.9110508 L71.3681765,47.9110508 L71.3681765,48.3829386 C71.5944241,48.1114415 72.040455,47.8334803 72.4929501,47.8334803 C73.1264433,47.8334803 73.4755109,48.1437626 73.4755109,48.8483622 L73.4755109,51.0332672 Z M77.1665783,51.0332672 L76.8239748,51.0332672 L76.8239748,50.5355225 C76.6041915,50.8587333 76.2034101,51.1108378 75.7379865,51.1108378 C74.9105669,51.1108378 74.3481801,50.4773446 74.3481801,49.4753911 C74.3481801,48.4863661 74.9105669,47.8334803 75.7379865,47.8334803 C76.1840174,47.8334803 76.5783346,48.0597278 76.8239748,48.4152597 L76.8239748,46.7216351 L77.1665783,46.7216351 L77.1665783,51.0332672 Z M75.7961645,50.8070196 C76.2357312,50.8070196 76.6429768,50.548451 76.8239748,50.251097 L76.8239748,48.7061494 C76.6429768,48.4023313 76.2357312,48.1372984 75.7961645,48.1372984 C75.1044934,48.1372984 74.703712,48.7190778 74.703712,49.4753911 C74.703712,50.2317044 75.1044934,50.8070196 75.7961645,50.8070196 Z M80.3405083,51.0332672 L79.9979049,51.0332672 L79.9979049,48.2084048 L79.4807676,48.2084048 L79.4807676,47.9110508 L79.9979049,47.9110508 L79.9979049,47.6266253 C79.9979049,47.018989 80.3211157,46.6569929 80.8447172,46.6569929 C81.0645005,46.6569929 81.2390343,46.7022425 81.439425,46.8767763 L81.2778196,47.1224165 C81.1743922,47.0254533 81.0451079,46.9608111 80.8770382,46.9608111 C80.5215064,46.9608111 80.3405083,47.2064513 80.3405083,47.6266253 L80.3405083,47.9110508 L80.9740015,47.9110508 L80.9740015,48.2084048 L80.3405083,48.2084048 L80.3405083,51.0332672 Z M82.9843727,51.1108378 C82.0729182,51.1108378 81.4264966,50.4320951 81.4264966,49.4689269 C81.4264966,48.5639367 82.0599898,47.8334803 82.9261947,47.8334803 C83.8764345,47.8334803 84.400036,48.5833293 84.400036,49.4883195 L84.400036,49.5788186 L81.7884927,49.5788186 C81.8208138,50.2575612 82.2733089,50.819948 83.0102295,50.819948 C83.4045467,50.819948 83.7665428,50.6712711 84.0315756,50.3868456 L84.2061095,50.6066289 C83.8958271,50.9298397 83.5015099,51.1108378 82.9843727,51.1108378 Z M84.0574325,49.3137857 C84.0509683,48.78372 83.7019006,48.12437 82.9197305,48.12437 C82.1828099,48.12437 81.8143496,48.7707916 81.7884927,49.3137857 L84.0574325,49.3137857 Z M86.6495831,51.1108378 C85.7381287,51.1108378 85.0917071,50.4320951 85.0917071,49.4689269 C85.0917071,48.5639367 85.7252002,47.8334803 86.5914052,47.8334803 C87.5416449,47.8334803 88.0652464,48.5833293 88.0652464,49.4883195 L88.0652464,49.5788186 L85.4537032,49.5788186 C85.4860242,50.2575612 85.9385194,50.819948 86.67544,50.819948 C87.0697572,50.819948 87.4317533,50.6712711 87.6967861,50.3868456 L87.8713199,50.6066289 C87.5610376,50.9298397 87.1667204,51.1108378 86.6495831,51.1108378 Z M87.722643,49.3137857 C87.7161788,48.78372 87.3671111,48.12437 86.584941,48.12437 C85.8480203,48.12437 85.47956,48.7707916 85.4537032,49.3137857 L87.722643,49.3137857 Z M89.8622985,51.1108378 C89.3580896,51.1108378 88.9702367,50.9621608 88.6599543,50.6130931 L88.860345,50.3674529 C89.0607357,50.6195573 89.429196,50.8264123 89.8687627,50.8264123 C90.3923642,50.8264123 90.7026465,50.5549152 90.7026465,50.1929191 C90.7026465,49.3396426 88.7310607,49.8244588 88.7310607,48.6996852 C88.7310607,48.2213332 89.1383063,47.8334803 89.8429058,47.8334803 C90.3794357,47.8334803 90.7349676,48.0403352 90.9612152,48.2924396 L90.7737529,48.5316156 C90.5927549,48.2859754 90.2566156,48.1179058 89.8429058,48.1179058 C89.3580896,48.1179058 89.0671999,48.363546 89.0671999,48.6867568 C89.0671999,49.4689269 91.0323216,48.9905749 91.0323216,50.1929191 C91.0323216,50.6971279 90.6444686,51.1108378 89.8622985,51.1108378 Z M96.0162321,51.0332672 L95.6800928,51.0332672 L95.6800928,48.9065401 C95.6800928,48.305368 95.3762747,48.1372984 94.9237796,48.1372984 C94.5229982,48.1372984 94.1092884,48.3894028 93.9088977,48.6738283 L93.9088977,51.0332672 L93.5727584,51.0332672 L93.5727584,46.7216351 L93.9088977,46.7216351 L93.9088977,48.3829386 C94.1351452,48.1114415 94.5811761,47.8334803 95.0336712,47.8334803 C95.6671644,47.8334803 96.0162321,48.1308342 96.0162321,48.8354337 L96.0162321,51.0332672 Z M99.3840886,51.0332672 L99.0479494,51.0332672 L99.0479494,50.6648069 C98.7699881,50.968625 98.4209204,51.1108378 97.9878179,51.1108378 C97.451288,51.1108378 96.8953654,50.7423774 96.8953654,50.070099 C96.8953654,49.3913563 97.4448238,49.0358244 97.9878179,49.0358244 C98.4209204,49.0358244 98.7764523,49.1780372 99.0479494,49.4818553 L99.0479494,48.8483622 C99.0479494,48.3829386 98.6730248,48.1308342 98.2140655,48.1308342 C97.8197483,48.1308342 97.5159302,48.2665827 97.2315047,48.5897935 L97.0440424,48.3570818 C97.3672532,48.0080141 97.7292493,47.8334803 98.2463866,47.8334803 C98.8798798,47.8334803 99.3840886,48.1372984 99.3840886,48.8354337 L99.3840886,51.0332672 Z M98.1041738,50.8458049 C98.4790984,50.8458049 98.828166,50.7035922 99.0479494,50.4191666 L99.0479494,49.7339598 C98.828166,49.44307 98.4790984,49.3008573 98.1041738,49.3008573 C97.5935008,49.3008573 97.2508973,49.6305323 97.2508973,50.0765632 C97.2508973,50.5161299 97.5935008,50.8458049 98.1041738,50.8458049 Z M101.653028,51.0332672 L101.27164,51.0332672 L99.9529396,47.9110508 L100.327864,47.9110508 L101.465566,50.63895 L102.59034,47.9110508 L102.971728,47.9110508 L101.653028,51.0332672 Z M104.923922,51.1108378 C104.012467,51.1108378 103.366046,50.4320951 103.366046,49.4689269 C103.366046,48.5639367 103.999539,47.8334803 104.865744,47.8334803 C105.815984,47.8334803 106.339585,48.5833293 106.339585,49.4883195 L106.339585,49.5788186 L103.728042,49.5788186 C103.760363,50.2575612 104.212858,50.819948 104.949779,50.819948 C105.344096,50.819948 105.706092,50.6712711 105.971125,50.3868456 L106.145659,50.6066289 C105.835376,50.9298397 105.441059,51.1108378 104.923922,51.1108378 Z M105.996982,49.3137857 C105.990517,48.78372 105.64145,48.12437 104.85928,48.12437 C104.122359,48.12437 103.753899,48.7707916 103.728042,49.3137857 L105.996982,49.3137857 Z M110.218115,51.1108378 C109.300196,51.1108378 108.705488,50.3803814 108.705488,49.4689269 C108.705488,48.5574724 109.300196,47.8334803 110.218115,47.8334803 C110.761109,47.8334803 111.071391,48.0467994 111.323496,48.363546 L111.090784,48.5704009 C110.864536,48.2601185 110.580111,48.1372984 110.237507,48.1372984 C109.507051,48.1372984 109.06102,48.7190778 109.06102,49.4689269 C109.06102,50.218776 109.507051,50.8070196 110.237507,50.8070196 C110.580111,50.8070196 110.864536,50.6777353 111.090784,50.3674529 L111.323496,50.5743078 C111.071391,50.8975186 110.761109,51.1108378 110.218115,51.1108378 Z M113.392045,51.1108378 C112.48059,51.1108378 111.898811,50.3803814 111.898811,49.4689269 C111.898811,48.5574724 112.48059,47.8334803 113.392045,47.8334803 C114.316428,47.8334803 114.898207,48.5574724 114.898207,49.4689269 C114.898207,50.3803814 114.316428,51.1108378 113.392045,51.1108378 Z M113.392045,50.8070196 C114.128965,50.8070196 114.536211,50.1670622 114.536211,49.4689269 C114.536211,48.7772558 114.128965,48.1372984 113.392045,48.1372984 C112.668052,48.1372984 112.254343,48.7772558 112.254343,49.4689269 C112.254343,50.1670622 112.668052,50.8070196 113.392045,50.8070196 Z M116.695259,51.1108378 C116.19105,51.1108378 115.803197,50.9621608 115.492915,50.6130931 L115.693306,50.3674529 C115.893696,50.6195573 116.262157,50.8264123 116.701723,50.8264123 C117.225325,50.8264123 117.535607,50.5549152 117.535607,50.1929191 C117.535607,49.3396426 115.564021,49.8244588 115.564021,48.6996852 C115.564021,48.2213332 115.971267,47.8334803 116.675866,47.8334803 C117.212396,47.8334803 117.567928,48.0403352 117.794176,48.2924396 L117.606713,48.5316156 C117.425715,48.2859754 117.089576,48.1179058 116.675866,48.1179058 C116.19105,48.1179058 115.90016,48.363546 115.90016,48.6867568 C115.90016,49.4689269 117.865282,48.9905749 117.865282,50.1929191 C117.865282,50.6971279 117.477429,51.1108378 116.695259,51.1108378 Z M119.41023,51.1108378 C118.99652,51.1108378 118.796129,50.8587333 118.796129,50.4320951 L118.796129,48.2084048 L118.278992,48.2084048 L118.278992,47.9110508 L118.796129,47.9110508 L118.796129,47.0577743 L119.138733,47.0577743 L119.138733,47.9110508 L119.772226,47.9110508 L119.772226,48.2084048 L119.138733,48.2084048 L119.138733,50.3803814 C119.138733,50.6324858 119.24216,50.8070196 119.461943,50.8070196 C119.61062,50.8070196 119.739905,50.7359132 119.811011,50.6583426 L119.940295,50.9169113 C119.817475,51.0332672 119.668798,51.1108378 119.41023,51.1108378 Z M121.976523,52.255004 L122.034701,51.9447216 C122.105808,51.9770427 122.228628,51.9964353 122.306198,51.9964353 C122.513053,51.9964353 122.655266,51.9124005 122.78455,51.6150466 L123.030191,51.059124 L121.705026,47.9110508 L122.079951,47.9110508 L123.217653,50.63895 L124.342427,47.9110508 L124.723815,47.9110508 L123.107761,51.7184741 C122.939692,52.1127912 122.674659,52.3002535 122.312663,52.3002535 C122.202771,52.3002535 122.060558,52.2808609 121.976523,52.255004 Z M126.611366,51.1108378 C125.699912,51.1108378 125.118132,50.3803814 125.118132,49.4689269 C125.118132,48.5574724 125.699912,47.8334803 126.611366,47.8334803 C127.535749,47.8334803 128.117529,48.5574724 128.117529,49.4689269 C128.117529,50.3803814 127.535749,51.1108378 126.611366,51.1108378 Z M126.611366,50.8070196 C127.348287,50.8070196 127.755533,50.1670622 127.755533,49.4689269 C127.755533,48.7772558 127.348287,48.1372984 126.611366,48.1372984 C125.887374,48.1372984 125.473664,48.7772558 125.473664,49.4689269 C125.473664,50.1670622 125.887374,50.8070196 126.611366,50.8070196 Z M131.427207,51.0332672 L131.091068,51.0332672 L131.091068,50.5743078 C130.838964,50.8587333 130.41879,51.1108378 129.966294,51.1108378 C129.332801,51.1108378 128.983734,50.8134838 128.983734,50.1088843 L128.983734,47.9110508 L129.319873,47.9110508 L129.319873,50.0313137 C129.319873,50.63895 129.623691,50.8070196 130.076186,50.8070196 C130.476967,50.8070196 130.884213,50.5678436 131.091068,50.2898823 L131.091068,47.9110508 L131.427207,47.9110508 L131.427207,51.0332672 Z M17.598828,59.4897236 L16.7196946,59.4897236 L15.7694549,57.8801338 L15.0131416,57.8801338 L15.0131416,59.4897236 L14.2568283,59.4897236 L14.2568283,55.1780916 L16.1508436,55.1780916 C17.0041201,55.1780916 17.5665069,55.7275499 17.5665069,56.5291127 C17.5665069,57.2918902 17.0622981,57.7120642 16.5386966,57.796099 L17.598828,59.4897236 Z M16.0538804,57.2143196 C16.4805186,57.2143196 16.790801,56.9428225 16.790801,56.5226485 C16.790801,56.1089387 16.4805186,55.8439058 16.0538804,55.8439058 L15.0131416,55.8439058 L15.0131416,57.2143196 L16.0538804,57.2143196 Z M21.309288,59.4897236 L18.1870717,59.4897236 L18.1870717,58.8885515 C19.8613036,57.6215652 20.5206536,57.0656426 20.5206536,56.4386137 C20.5206536,55.9861186 20.1263365,55.7857279 19.7320193,55.7857279 C19.2278104,55.7857279 18.8464217,55.9861186 18.5684604,56.2964009 L18.1288937,55.8051205 C18.5102825,55.339697 19.1179188,55.1134494 19.7255551,55.1134494 C20.5594389,55.1134494 21.2834311,55.578873 21.2834311,56.4386137 C21.2834311,57.2401765 20.5529747,57.9512402 19.4023443,58.8239094 L21.309288,58.8239094 L21.309288,59.4897236 Z M22.9899841,59.2440834 C22.9899841,59.6901143 22.7443439,60.0973599 22.3888121,60.3494643 L22.0785297,60.0973599 C22.2853846,59.9745398 22.5051679,59.709507 22.5439532,59.4897236 C22.5310248,59.4961878 22.4793111,59.5091163 22.4340616,59.5091163 C22.2207424,59.5091163 22.0526728,59.3345824 22.0526728,59.0954064 C22.0526728,58.8562305 22.2465993,58.6558398 22.4922395,58.6558398 C22.7572724,58.6558398 22.9899841,58.8691589 22.9899841,59.2440834 Z M25.2589239,59.5672942 C24.5220033,59.5672942 24.0113303,59.3087256 23.6622626,58.90148 L24.0953651,58.3778785 C24.3797906,58.7140177 24.7741077,58.8950158 25.2524597,58.8950158 C25.8019181,58.8950158 26.1380573,58.5588765 26.1380573,58.1322383 C26.1380573,57.6732789 25.8019181,57.3694608 25.2718524,57.3694608 C24.9098563,57.3694608 24.6060381,57.4793525 24.3280768,57.7379211 L23.7915469,57.5827799 L23.7915469,55.1780916 L26.6164093,55.1780916 L26.6164093,55.8439058 L24.5478602,55.8439058 L24.5478602,57.0850353 C24.7611793,56.8846446 25.110247,56.716575 25.5239568,56.716575 C26.2544132,56.716575 26.907299,57.2207838 26.907299,58.1063814 C26.907299,58.9984432 26.2220921,59.5672942 25.2589239,59.5672942 Z M29.1697746,59.5672942 C27.954502,59.5672942 27.4438289,58.4166638 27.4438289,57.3371397 C27.4438289,56.2511514 27.954502,55.1134494 29.1697746,55.1134494 C30.378583,55.1134494 30.8892561,56.2511514 30.8892561,57.3371397 C30.8892561,58.4166638 30.378583,59.5672942 29.1697746,59.5672942 Z M29.1697746,58.8950158 C29.8679099,58.8950158 30.1200144,58.1580951 30.1200144,57.3371397 C30.1200144,56.5097201 29.8743742,55.7857279 29.1697746,55.7857279 C28.4651751,55.7857279 28.2130706,56.5097201 28.2130706,57.3371397 C28.2130706,58.1580951 28.4651751,58.8950158 29.1697746,58.8950158 Z M33.1581959,59.5672942 C31.9429233,59.5672942 31.4322502,58.4166638 31.4322502,57.3371397 C31.4322502,56.2511514 31.9429233,55.1134494 33.1581959,55.1134494 C34.3670043,55.1134494 34.8776773,56.2511514 34.8776773,57.3371397 C34.8776773,58.4166638 34.3670043,59.5672942 33.1581959,59.5672942 Z M33.1581959,58.8950158 C33.8563312,58.8950158 34.1084356,58.1580951 34.1084356,57.3371397 C34.1084356,56.5097201 33.8627954,55.7857279 33.1581959,55.7857279 C32.4535963,55.7857279 32.2014919,56.5097201 32.2014919,57.3371397 C32.2014919,58.1580951 32.4535963,58.8950158 33.1581959,58.8950158 Z M37.5150774,55.8762269 C37.3793289,55.8762269 37.2565088,55.759871 37.2565088,55.6176583 C37.2565088,55.4754455 37.3793289,55.3655538 37.5150774,55.3655538 C37.6572902,55.3655538 37.7736461,55.4754455 37.7736461,55.6176583 C37.7736461,55.759871 37.6572902,55.8762269 37.5150774,55.8762269 Z M37.6831471,59.4897236 L37.3470078,59.4897236 L37.3470078,56.3675073 L37.6831471,56.3675073 L37.6831471,59.4897236 Z M41.1738237,59.4897236 L40.8376845,59.4897236 L40.8376845,57.375925 C40.8376845,56.7747529 40.5338663,56.5937549 40.0813712,56.5937549 C39.6805898,56.5937549 39.26688,56.8458593 39.0664893,57.1302848 L39.0664893,59.4897236 L38.73035,59.4897236 L38.73035,56.3675073 L39.0664893,56.3675073 L39.0664893,56.8393951 C39.2927368,56.567898 39.7387677,56.2899367 40.1912629,56.2899367 C40.824756,56.2899367 41.1738237,56.6002191 41.1738237,57.3048186 L41.1738237,59.4897236 Z M44.5740013,59.5672942 C44.1602915,59.5672942 43.9599008,59.3151898 43.9599008,58.8885515 L43.9599008,56.6648612 L43.4427635,56.6648612 L43.4427635,56.3675073 L43.9599008,56.3675073 L43.9599008,55.5142308 L44.3025042,55.5142308 L44.3025042,56.3675073 L44.9359974,56.3675073 L44.9359974,56.6648612 L44.3025042,56.6648612 L44.3025042,58.8368378 C44.3025042,59.0889422 44.4059317,59.2634761 44.625715,59.2634761 C44.774392,59.2634761 44.9036763,59.1923697 44.9747827,59.1147991 L45.104067,59.3733677 C44.9812469,59.4897236 44.8325699,59.5672942 44.5740013,59.5672942 Z M48.1163917,59.4897236 L47.7802524,59.4897236 L47.7802524,57.3629966 C47.7802524,56.7618245 47.4764343,56.5937549 47.0239392,56.5937549 C46.6231578,56.5937549 46.2094479,56.8458593 46.0090572,57.1302848 L46.0090572,59.4897236 L45.672918,59.4897236 L45.672918,55.1780916 L46.0090572,55.1780916 L46.0090572,56.8393951 C46.2353048,56.567898 46.6813357,56.2899367 47.1338308,56.2899367 C47.767324,56.2899367 48.1163917,56.5872906 48.1163917,57.2918902 L48.1163917,59.4897236 Z M50.5469369,59.5672942 C49.6354824,59.5672942 48.9890608,58.8885515 48.9890608,57.9253834 C48.9890608,57.0203931 49.622554,56.2899367 50.4887589,56.2899367 C51.4389987,56.2899367 51.9626002,57.0397858 51.9626002,57.944776 L51.9626002,58.035275 L49.3510569,58.035275 C49.383378,58.7140177 49.8358731,59.2764045 50.5727937,59.2764045 C50.9671109,59.2764045 51.329107,59.1277275 51.5941399,58.843302 L51.7686737,59.0630854 C51.4583913,59.3862962 51.0640741,59.5672942 50.5469369,59.5672942 Z M51.6199967,57.7702422 C51.6135325,57.2401765 51.2644648,56.5808264 50.4822947,56.5808264 C49.7453741,56.5808264 49.3769138,57.227248 49.3510569,57.7702422 L51.6199967,57.7702422 Z M54.8391763,59.4897236 L54.503037,59.4897236 L54.503037,55.1780916 L54.8391763,55.1780916 L54.8391763,59.4897236 Z M58.2070328,59.4897236 L57.8708936,59.4897236 L57.8708936,59.1212633 C57.5929323,59.4250815 57.2438646,59.5672942 56.8107621,59.5672942 C56.2742322,59.5672942 55.7183096,59.1988339 55.7183096,58.5265554 C55.7183096,57.8478128 56.267768,57.4922809 56.8107621,57.4922809 C57.2438646,57.4922809 57.5993965,57.6344936 57.8708936,57.9383118 L57.8708936,57.3048186 C57.8708936,56.8393951 57.495969,56.5872906 57.0370097,56.5872906 C56.6426925,56.5872906 56.3388744,56.7230392 56.0544489,57.04625 L55.8669866,56.8135382 C56.1901974,56.4644705 56.5521935,56.2899367 57.0693308,56.2899367 C57.702824,56.2899367 58.2070328,56.5937549 58.2070328,57.2918902 L58.2070328,59.4897236 Z M56.927118,59.3022614 C57.3020426,59.3022614 57.6511102,59.1600486 57.8708936,58.8756231 L57.8708936,58.1904162 C57.6511102,57.8995265 57.3020426,57.7573137 56.927118,57.7573137 C56.416445,57.7573137 56.0738415,58.0869888 56.0738415,58.5330197 C56.0738415,58.9725863 56.416445,59.3022614 56.927118,59.3022614 Z M60.1850829,59.5672942 C59.680874,59.5672942 59.2930211,59.4186172 58.9827387,59.0695496 L59.1831294,58.8239094 C59.3835201,59.0760138 59.7519804,59.2828687 60.1915471,59.2828687 C60.7151486,59.2828687 61.025431,59.0113716 61.025431,58.6493755 C61.025431,57.796099 59.0538451,58.2809152 59.0538451,57.1561417 C59.0538451,56.6777897 59.4610907,56.2899367 60.1656902,56.2899367 C60.7022202,56.2899367 61.057752,56.4967916 61.2839996,56.748896 L61.0965373,56.988072 C60.9155393,56.7424318 60.5794001,56.5743622 60.1656902,56.5743622 C59.680874,56.5743622 59.3899843,56.8200024 59.3899843,57.1432132 C59.3899843,57.9253834 61.355106,57.4470314 61.355106,58.6493755 C61.355106,59.1535844 60.967253,59.5672942 60.1850829,59.5672942 Z M62.9000536,59.5672942 C62.4863438,59.5672942 62.2859531,59.3151898 62.2859531,58.8885515 L62.2859531,56.6648612 L61.7688158,56.6648612 L61.7688158,56.3675073 L62.2859531,56.3675073 L62.2859531,55.5142308 L62.6285565,55.5142308 L62.6285565,56.3675073 L63.2620497,56.3675073 L63.2620497,56.6648612 L62.6285565,56.6648612 L62.6285565,58.8368378 C62.6285565,59.0889422 62.731984,59.2634761 62.9517673,59.2634761 C63.1004443,59.2634761 63.2297286,59.1923697 63.300835,59.1147991 L63.4301193,59.3733677 C63.3072992,59.4897236 63.1586222,59.5672942 62.9000536,59.5672942 Z M67.1082582,59.5672942 C65.9446993,59.5672942 65.5245253,58.4942344 65.5245253,57.3371397 C65.5245253,56.2317588 65.9899488,55.1134494 67.1729004,55.1134494 C67.7352872,55.1134494 68.0778906,55.339697 68.3364592,55.6629078 L68.1231401,55.9279406 C67.909821,55.6499793 67.6447881,55.4495886 67.1729004,55.4495886 C66.2420533,55.4495886 65.8994498,56.4256852 65.8994498,57.3436039 C65.8994498,57.4082461 65.8994498,57.4793525 65.905914,57.5439946 C66.0869121,57.2466407 66.5846567,56.8264666 67.1664362,56.8264666 C67.9421421,56.8264666 68.5562426,57.2724975 68.5562426,58.1904162 C68.5562426,58.8950158 68.0326411,59.5672942 67.1082582,59.5672942 Z M67.0953298,59.231155 C67.8322504,59.231155 68.1813181,58.662304 68.1813181,58.1968804 C68.1813181,57.4922809 67.7223587,57.1561417 67.101794,57.1561417 C66.6299062,57.1561417 66.1709469,57.4599598 65.9253067,57.8930623 C65.9770204,58.4813059 66.2873028,59.231155 67.0953298,59.231155 Z M75.1755998,59.4897236 L74.8394605,59.4897236 L74.8394605,57.3048186 C74.8394605,56.8652519 74.6519983,56.5937549 74.2124316,56.5937549 C73.8762923,56.5937549 73.4949036,56.8393951 73.3203698,57.1238206 L73.3203698,59.4897236 L72.9777663,59.4897236 L72.9777663,57.3048186 C72.9777663,56.8652519 72.7967683,56.5937549 72.3572016,56.5937549 C72.0210624,56.5937549 71.6461378,56.8458593 71.4586756,57.1302848 L71.4586756,59.4897236 L71.1225363,59.4897236 L71.1225363,56.3675073 L71.4586756,56.3675073 L71.4586756,56.8393951 C71.5879599,56.6390044 72.0145981,56.2899367 72.4670933,56.2899367 C72.9519095,56.2899367 73.2104781,56.5743622 73.2880487,56.8781804 C73.4625825,56.5872906 73.8827566,56.2899367 74.3223232,56.2899367 C74.8976385,56.2899367 75.1755998,56.6131475 75.1755998,57.2401765 L75.1755998,59.4897236 Z M77.5415028,59.5672942 C76.6300483,59.5672942 76.0482689,58.8368378 76.0482689,57.9253834 C76.0482689,57.0139289 76.6300483,56.2899367 77.5415028,56.2899367 C78.4658857,56.2899367 79.0476651,57.0139289 79.0476651,57.9253834 C79.0476651,58.8368378 78.4658857,59.5672942 77.5415028,59.5672942 Z M77.5415028,59.2634761 C78.2784234,59.2634761 78.685669,58.6235187 78.685669,57.9253834 C78.685669,57.2337122 78.2784234,56.5937549 77.5415028,56.5937549 C76.8175106,56.5937549 76.4038008,57.2337122 76.4038008,57.9253834 C76.4038008,58.6235187 76.8175106,59.2634761 77.5415028,59.2634761 Z M82.3573437,59.4897236 L82.0212045,59.4897236 L82.0212045,57.375925 C82.0212045,56.7747529 81.7173863,56.5937549 81.2648912,56.5937549 C80.8641098,56.5937549 80.4504,56.8458593 80.2500093,57.1302848 L80.2500093,59.4897236 L79.9138701,59.4897236 L79.9138701,56.3675073 L80.2500093,56.3675073 L80.2500093,56.8393951 C80.4762569,56.567898 80.9222878,56.2899367 81.3747829,56.2899367 C82.008276,56.2899367 82.3573437,56.6002191 82.3573437,57.3048186 L82.3573437,59.4897236 Z M84.0832894,59.5672942 C83.6695795,59.5672942 83.4691889,59.3151898 83.4691889,58.8885515 L83.4691889,56.6648612 L82.9520516,56.6648612 L82.9520516,56.3675073 L83.4691889,56.3675073 L83.4691889,55.5142308 L83.8117923,55.5142308 L83.8117923,56.3675073 L84.4452855,56.3675073 L84.4452855,56.6648612 L83.8117923,56.6648612 L83.8117923,58.8368378 C83.8117923,59.0889422 83.9152198,59.2634761 84.1350031,59.2634761 C84.2836801,59.2634761 84.4129644,59.1923697 84.4840708,59.1147991 L84.6133551,59.3733677 C84.490535,59.4897236 84.341858,59.5672942 84.0832894,59.5672942 Z M87.6256797,59.4897236 L87.2895405,59.4897236 L87.2895405,57.3629966 C87.2895405,56.7618245 86.9857223,56.5937549 86.5332272,56.5937549 C86.1324458,56.5937549 85.718736,56.8458593 85.5183453,57.1302848 L85.5183453,59.4897236 L85.1822061,59.4897236 L85.1822061,55.1780916 L85.5183453,55.1780916 L85.5183453,56.8393951 C85.7445929,56.567898 86.1906238,56.2899367 86.6431189,56.2899367 C87.2766121,56.2899367 87.6256797,56.5872906 87.6256797,57.2918902 L87.6256797,59.4897236 Z M89.6037298,59.5672942 C89.099521,59.5672942 88.711668,59.4186172 88.4013856,59.0695496 L88.6017763,58.8239094 C88.802167,59.0760138 89.1706273,59.2828687 89.610194,59.2828687 C90.1337955,59.2828687 90.4440779,59.0113716 90.4440779,58.6493755 C90.4440779,57.796099 88.472492,58.2809152 88.472492,57.1561417 C88.472492,56.6777897 88.8797376,56.2899367 89.5843372,56.2899367 C90.1208671,56.2899367 90.476399,56.4967916 90.7026465,56.748896 L90.5151843,56.988072 C90.3341862,56.7424318 89.998047,56.5743622 89.5843372,56.5743622 C89.099521,56.5743622 88.8086313,56.8200024 88.8086313,57.1432132 C88.8086313,57.9253834 90.7737529,57.4470314 90.7737529,58.6493755 C90.7737529,59.1535844 90.3859,59.5672942 89.6037298,59.5672942 Z M91.8274201,59.5479016 C91.6722789,59.5479016 91.5365304,59.4186172 91.5365304,59.2634761 C91.5365304,59.1147991 91.6722789,58.9855148 91.8274201,58.9855148 C91.9825613,58.9855148 92.1118456,59.1147991 92.1118456,59.2634761 C92.1118456,59.4186172 91.9825613,59.5479016 91.8274201,59.5479016 Z M96.2166228,59.4897236 L95.8416982,59.4897236 L95.8416982,55.5142308 L94.4324992,55.5142308 L94.4324992,55.1780916 L97.6258219,55.1780916 L97.6258219,55.5142308 L96.2166228,55.5142308 L96.2166228,59.4897236 Z M100.819145,59.4897236 L100.483005,59.4897236 L100.483005,57.3629966 C100.483005,56.7618245 100.179187,56.5937549 99.726692,56.5937549 C99.3259107,56.5937549 98.9122008,56.8458593 98.7118101,57.1302848 L98.7118101,59.4897236 L98.3756709,59.4897236 L98.3756709,55.1780916 L98.7118101,55.1780916 L98.7118101,56.8393951 C98.9380577,56.567898 99.3840886,56.2899367 99.8365837,56.2899367 C100.470077,56.2899367 100.819145,56.5872906 100.819145,57.2918902 L100.819145,59.4897236 Z M104.187001,59.4897236 L103.850862,59.4897236 L103.850862,59.1212633 C103.572901,59.4250815 103.223833,59.5672942 102.79073,59.5672942 C102.2542,59.5672942 101.698278,59.1988339 101.698278,58.5265554 C101.698278,57.8478128 102.247736,57.4922809 102.79073,57.4922809 C103.223833,57.4922809 103.579365,57.6344936 103.850862,57.9383118 L103.850862,57.3048186 C103.850862,56.8393951 103.475937,56.5872906 103.016978,56.5872906 C102.622661,56.5872906 102.318843,56.7230392 102.034417,57.04625 L101.846955,56.8135382 C102.170166,56.4644705 102.532162,56.2899367 103.049299,56.2899367 C103.682792,56.2899367 104.187001,56.5937549 104.187001,57.2918902 L104.187001,59.4897236 Z M102.907086,59.3022614 C103.282011,59.3022614 103.631078,59.1600486 103.850862,58.8756231 L103.850862,58.1904162 C103.631078,57.8995265 103.282011,57.7573137 102.907086,57.7573137 C102.396413,57.7573137 102.05381,58.0869888 102.05381,58.5330197 C102.05381,58.9725863 102.396413,59.3022614 102.907086,59.3022614 Z M105.912947,59.5672942 C105.499237,59.5672942 105.298846,59.3151898 105.298846,58.8885515 L105.298846,56.6648612 L104.781709,56.6648612 L104.781709,56.3675073 L105.298846,56.3675073 L105.298846,55.5142308 L105.64145,55.5142308 L105.64145,56.3675073 L106.274943,56.3675073 L106.274943,56.6648612 L105.64145,56.6648612 L105.64145,58.8368378 C105.64145,59.0889422 105.744877,59.2634761 105.96466,59.2634761 C106.113337,59.2634761 106.242622,59.1923697 106.313728,59.1147991 L106.443012,59.3733677 C106.320192,59.4897236 106.171515,59.5672942 105.912947,59.5672942 Z M107.192862,56.7295034 L106.998935,56.7295034 C106.998935,56.7295034 106.863186,55.430196 106.863186,55.3461612 C106.863186,55.2168769 106.96015,55.1134494 107.095898,55.1134494 C107.225183,55.1134494 107.32861,55.2168769 107.32861,55.3461612 C107.32861,55.430196 107.192862,56.7295034 107.192862,56.7295034 Z M108.957592,59.5672942 C108.453384,59.5672942 108.065531,59.4186172 107.755248,59.0695496 L107.955639,58.8239094 C108.15603,59.0760138 108.52449,59.2828687 108.964057,59.2828687 C109.487658,59.2828687 109.797941,59.0113716 109.797941,58.6493755 C109.797941,57.796099 107.826355,58.2809152 107.826355,57.1561417 C107.826355,56.6777897 108.2336,56.2899367 108.9382,56.2899367 C109.47473,56.2899367 109.830262,56.4967916 110.056509,56.748896 L109.869047,56.988072 C109.688049,56.7424318 109.35191,56.5743622 108.9382,56.5743622 C108.453384,56.5743622 108.162494,56.8200024 108.162494,57.1432132 C108.162494,57.9253834 110.127616,57.4470314 110.127616,58.6493755 C110.127616,59.1535844 109.739763,59.5672942 108.957592,59.5672942 Z M115.137383,59.4897236 L114.38107,59.4897236 L114.38107,58.513627 L112.325449,58.513627 L112.325449,57.9059907 L114.096644,55.1780916 L115.137383,55.1780916 L115.137383,57.8478128 L115.712698,57.8478128 L115.712698,58.513627 L115.137383,58.513627 L115.137383,59.4897236 Z M114.38107,57.8478128 L114.38107,55.8568342 L113.068834,57.8478128 L114.38107,57.8478128 Z M119.339123,59.4897236 L116.216907,59.4897236 L116.216907,58.8885515 C117.891139,57.6215652 118.550489,57.0656426 118.550489,56.4386137 C118.550489,55.9861186 118.156172,55.7857279 117.761855,55.7857279 C117.257646,55.7857279 116.876257,55.9861186 116.598296,56.2964009 L116.158729,55.8051205 C116.540118,55.339697 117.147754,55.1134494 117.75539,55.1134494 C118.589274,55.1134494 119.313266,55.578873 119.313266,56.4386137 C119.313266,57.2401765 118.58281,57.9512402 117.43218,58.8239094 L119.339123,58.8239094 L119.339123,59.4897236 Z M120.993963,57.2531049 C120.354005,57.2531049 119.920903,56.7876813 119.920903,56.1865093 C119.920903,55.578873 120.354005,55.1134494 120.993963,55.1134494 C121.640384,55.1134494 122.067022,55.578873 122.067022,56.1865093 C122.067022,56.7876813 121.640384,57.2531049 120.993963,57.2531049 Z M121.006891,59.4897236 L120.573789,59.4897236 L123.327545,55.1780916 L123.767111,55.1780916 L121.006891,59.4897236 Z M123.314616,59.5672942 C122.674659,59.5672942 122.241556,59.1018707 122.241556,58.5006986 C122.241556,57.8930623 122.674659,57.4276387 123.314616,57.4276387 C123.954574,57.4276387 124.387676,57.8930623 124.387676,58.5006986 C124.387676,59.1018707 123.954574,59.5672942 123.314616,59.5672942 Z M120.993963,56.8200024 C121.330102,56.8200024 121.569278,56.5614338 121.569278,56.1865093 C121.569278,55.8051205 121.330102,55.5400877 120.993963,55.5400877 C120.664288,55.5400877 120.425112,55.8051205 120.425112,56.1865093 C120.425112,56.5614338 120.664288,56.8200024 120.993963,56.8200024 Z M123.314616,59.1341917 C123.650755,59.1341917 123.889931,58.8756231 123.889931,58.5006986 C123.889931,58.1193098 123.650755,57.854277 123.314616,57.854277 C122.978477,57.854277 122.739301,58.1193098 122.739301,58.5006986 C122.739301,58.8756231 122.978477,59.1341917 123.314616,59.1341917 Z M128.085208,59.5672942 C127.173753,59.5672942 126.591974,58.8368378 126.591974,57.9253834 C126.591974,57.0139289 127.173753,56.2899367 128.085208,56.2899367 C129.00959,56.2899367 129.59137,57.0139289 129.59137,57.9253834 C129.59137,58.8368378 129.00959,59.5672942 128.085208,59.5672942 Z M128.085208,59.2634761 C128.822128,59.2634761 129.229374,58.6235187 129.229374,57.9253834 C129.229374,57.2337122 128.822128,56.5937549 128.085208,56.5937549 C127.361215,56.5937549 126.947506,57.2337122 126.947506,57.9253834 C126.947506,58.6235187 127.361215,59.2634761 128.085208,59.2634761 Z M130.91007,59.4897236 L130.567466,59.4897236 L130.567466,56.6648612 L130.050329,56.6648612 L130.050329,56.3675073 L130.567466,56.3675073 L130.567466,56.0830818 C130.567466,55.4754455 130.890677,55.1134494 131.414279,55.1134494 C131.634062,55.1134494 131.808596,55.1586989 132.008987,55.3332327 L131.847381,55.578873 C131.743954,55.4819097 131.614669,55.4172676 131.4466,55.4172676 C131.091068,55.4172676 130.91007,55.6629078 130.91007,56.0830818 L130.91007,56.3675073 L131.543563,56.3675073 L131.543563,56.6648612 L130.91007,56.6648612 L130.91007,59.4897236 Z M28.6300126,67.9461801 L28.3068018,67.9461801 L27.4341326,65.2764589 L26.5549992,67.9461801 L26.2317885,67.9461801 L25.2169065,64.8239638 L25.5789026,64.8239638 L26.4063223,67.4742923 L27.2854557,64.8239638 L27.5763454,64.8239638 L28.4554787,67.4742923 L29.2828984,64.8239638 L29.6448945,64.8239638 L28.6300126,67.9461801 Z M32.7218613,67.9461801 L32.3857221,67.9461801 L32.3857221,65.819453 C32.3857221,65.2182809 32.0819039,65.0502113 31.6294088,65.0502113 C31.2286274,65.0502113 30.8149176,65.3023157 30.6145269,65.5867412 L30.6145269,67.9461801 L30.2783877,67.9461801 L30.2783877,63.634548 L30.6145269,63.634548 L30.6145269,65.2958515 C30.8407744,65.0243545 31.2868053,64.7463932 31.7393005,64.7463932 C32.3727936,64.7463932 32.7218613,65.0437471 32.7218613,65.7483466 L32.7218613,67.9461801 Z M36.0897178,67.9461801 L35.7535786,67.9461801 L35.7535786,67.5777198 C35.4756173,67.8815379 35.1265496,68.0237507 34.6934472,68.0237507 C34.1569172,68.0237507 33.6009947,67.6552904 33.6009947,66.9830119 C33.6009947,66.3042692 34.150453,65.9487373 34.6934472,65.9487373 C35.1265496,65.9487373 35.4820815,66.0909501 35.7535786,66.3947682 L35.7535786,65.7612751 C35.7535786,65.2958515 35.3786541,65.0437471 34.9196947,65.0437471 C34.5253776,65.0437471 34.2215594,65.1794956 33.9371339,65.5027064 L33.7496716,65.2699947 C34.0728824,64.920927 34.4348785,64.7463932 34.9520158,64.7463932 C35.585509,64.7463932 36.0897178,65.0502113 36.0897178,65.7483466 L36.0897178,67.9461801 Z M34.8098031,67.7587178 C35.1847276,67.7587178 35.5337952,67.6165051 35.7535786,67.3320796 L35.7535786,66.6468727 C35.5337952,66.3559829 35.1847276,66.2137702 34.8098031,66.2137702 C34.29913,66.2137702 33.9565265,66.5434452 33.9565265,66.9894761 C33.9565265,67.4290428 34.29913,67.7587178 34.8098031,67.7587178 Z M37.8156635,68.0237507 C37.4019537,68.0237507 37.201563,67.7716462 37.201563,67.345008 L37.201563,65.1213177 L36.6844257,65.1213177 L36.6844257,64.8239638 L37.201563,64.8239638 L37.201563,63.9706873 L37.5441664,63.9706873 L37.5441664,64.8239638 L38.1776596,64.8239638 L38.1776596,65.1213177 L37.5441664,65.1213177 L37.5441664,67.2932943 C37.5441664,67.5453987 37.6475939,67.7199325 37.8673772,67.7199325 C38.0160542,67.7199325 38.1453385,67.6488261 38.2164449,67.5712556 L38.3457292,67.8298242 C38.2229091,67.9461801 38.0742321,68.0237507 37.8156635,68.0237507 Z M40.3819572,69.1679169 L40.4401352,68.8576345 C40.5112416,68.8899556 40.6340617,68.9093483 40.7116322,68.9093483 C40.9184872,68.9093483 41.0606999,68.8253135 41.1899842,68.5279595 L41.4356244,67.9720369 L40.1104602,64.8239638 L40.4853847,64.8239638 L41.6230867,67.5518629 L42.7478603,64.8239638 L43.129249,64.8239638 L41.513195,68.631387 C41.3451254,69.0257041 41.0800926,69.2131664 40.7180965,69.2131664 C40.6082048,69.2131664 40.465992,69.1937738 40.3819572,69.1679169 Z M45.0168001,68.0237507 C44.1053456,68.0237507 43.5235662,67.2932943 43.5235662,66.3818398 C43.5235662,65.4703854 44.1053456,64.7463932 45.0168001,64.7463932 C45.941183,64.7463932 46.5229624,65.4703854 46.5229624,66.3818398 C46.5229624,67.2932943 45.941183,68.0237507 45.0168001,68.0237507 Z M45.0168001,67.7199325 C45.7537207,67.7199325 46.1609663,67.0799751 46.1609663,66.3818398 C46.1609663,65.6901687 45.7537207,65.0502113 45.0168001,65.0502113 C44.2928079,65.0502113 43.8790981,65.6901687 43.8790981,66.3818398 C43.8790981,67.0799751 44.2928079,67.7199325 45.0168001,67.7199325 Z M49.832641,67.9461801 L49.4965018,67.9461801 L49.4965018,67.4872207 C49.2443973,67.7716462 48.8242233,68.0237507 48.3717282,68.0237507 C47.738235,68.0237507 47.3891674,67.7263967 47.3891674,67.0217972 L47.3891674,64.8239638 L47.7253066,64.8239638 L47.7253066,66.9442266 C47.7253066,67.5518629 48.0291247,67.7199325 48.4816199,67.7199325 C48.8824012,67.7199325 49.2896469,67.4807565 49.4965018,67.2027952 L49.4965018,64.8239638 L49.832641,64.8239638 L49.832641,67.9461801 Z M53.484923,68.0237507 C52.9807142,68.0237507 52.5928612,67.8750737 52.2825789,67.526006 L52.4829695,67.2803658 C52.6833602,67.5324703 53.0518206,67.7393252 53.4913872,67.7393252 C54.0149887,67.7393252 54.3252711,67.4678281 54.3252711,67.105832 C54.3252711,66.2525555 52.3536852,66.7373717 52.3536852,65.6125981 C52.3536852,65.1342461 52.7609308,64.7463932 53.4655304,64.7463932 C54.0020603,64.7463932 54.3575922,64.9532481 54.5838397,65.2053525 L54.3963775,65.4445285 C54.2153794,65.1988883 53.8792402,65.0308187 53.4655304,65.0308187 C52.9807142,65.0308187 52.6898245,65.2764589 52.6898245,65.5996697 C52.6898245,66.3818398 54.6549461,65.9034878 54.6549461,67.105832 C54.6549461,67.6100408 54.2670932,68.0237507 53.484923,68.0237507 Z M56.9432786,68.0237507 C56.5037119,68.0237507 56.1093947,67.7975031 55.8572903,67.4419712 L55.8572903,69.1355958 L55.5211511,69.1355958 L55.5211511,64.8239638 L55.8572903,64.8239638 L55.8572903,65.3152442 C56.0770736,64.9984976 56.477855,64.7463932 56.9432786,64.7463932 C57.7771624,64.7463932 58.3395492,65.3798863 58.3395492,66.3818398 C58.3395492,67.3773291 57.7771624,68.0237507 56.9432786,68.0237507 Z M56.8851006,67.7199325 C57.583236,67.7199325 57.9775531,67.1381531 57.9775531,66.3818398 C57.9775531,65.6255265 57.583236,65.0502113 56.8851006,65.0502113 C56.4519982,65.0502113 56.0382883,65.30878 55.8572903,65.6061339 L55.8572903,67.1510815 C56.0382883,67.4484354 56.4519982,67.7199325 56.8851006,67.7199325 Z M60.5697037,68.0237507 C59.6582493,68.0237507 59.0118277,67.345008 59.0118277,66.3818398 C59.0118277,65.4768496 59.6453209,64.7463932 60.5115258,64.7463932 C61.4617655,64.7463932 61.985367,65.4962422 61.985367,66.4012325 L61.985367,66.4917315 L59.3738238,66.4917315 C59.4061449,67.1704742 59.85864,67.732861 60.5955606,67.732861 C60.9898778,67.732861 61.3518739,67.584184 61.6169067,67.2997585 L61.7914406,67.5195418 C61.4811582,67.8427526 61.086841,68.0237507 60.5697037,68.0237507 Z M61.6427636,66.2266986 C61.6362994,65.6966329 61.2872317,65.0372829 60.5050616,65.0372829 C59.768141,65.0372829 59.3996806,65.6837045 59.3738238,66.2266986 L61.6427636,66.2266986 Z M65.2950456,67.9461801 L64.9589064,67.9461801 L64.9589064,65.8323815 C64.9589064,65.2312094 64.6550882,65.0502113 64.2025931,65.0502113 C63.8018117,65.0502113 63.3881019,65.3023157 63.1877112,65.5867412 L63.1877112,67.9461801 L62.851572,67.9461801 L62.851572,64.8239638 L63.1877112,64.8239638 L63.1877112,65.2958515 C63.4139588,65.0243545 63.8599897,64.7463932 64.3124848,64.7463932 C64.945978,64.7463932 65.2950456,65.0566755 65.2950456,65.7612751 L65.2950456,67.9461801 Z M67.0209913,68.0237507 C66.6072815,68.0237507 66.4068908,67.7716462 66.4068908,67.345008 L66.4068908,65.1213177 L65.8897535,65.1213177 L65.8897535,64.8239638 L66.4068908,64.8239638 L66.4068908,63.9706873 L66.7494942,63.9706873 L66.7494942,64.8239638 L67.3829874,64.8239638 L67.3829874,65.1213177 L66.7494942,65.1213177 L66.7494942,67.2932943 C66.7494942,67.5453987 66.8529217,67.7199325 67.072705,67.7199325 C67.221382,67.7199325 67.3506663,67.6488261 67.4217727,67.5712556 L67.551057,67.8298242 C67.4282369,67.9461801 67.2795599,68.0237507 67.0209913,68.0237507 Z M71.11284,68.0237507 C70.2013856,68.0237507 69.6196061,67.2932943 69.6196061,66.3818398 C69.6196061,65.4703854 70.2013856,64.7463932 71.11284,64.7463932 C72.0372229,64.7463932 72.6190023,65.4703854 72.6190023,66.3818398 C72.6190023,67.2932943 72.0372229,68.0237507 71.11284,68.0237507 Z M71.11284,67.7199325 C71.8497606,67.7199325 72.2570062,67.0799751 72.2570062,66.3818398 C72.2570062,65.6901687 71.8497606,65.0502113 71.11284,65.0502113 C70.3888478,65.0502113 69.975138,65.6901687 69.975138,66.3818398 C69.975138,67.0799751 70.3888478,67.7199325 71.11284,67.7199325 Z M75.9286809,67.9461801 L75.5925417,67.9461801 L75.5925417,65.8323815 C75.5925417,65.2312094 75.2887235,65.0502113 74.8362284,65.0502113 C74.435447,65.0502113 74.0217372,65.3023157 73.8213465,65.5867412 L73.8213465,67.9461801 L73.4852073,67.9461801 L73.4852073,64.8239638 L73.8213465,64.8239638 L73.8213465,65.2958515 C74.0475941,65.0243545 74.493625,64.7463932 74.9461201,64.7463932 C75.5796132,64.7463932 75.9286809,65.0566755 75.9286809,65.7612751 L75.9286809,67.9461801 Z M81.5396204,67.9461801 L78.5854737,67.9461801 L78.5854737,63.634548 L81.5396204,63.634548 L81.5396204,64.3003623 L79.341787,64.3003623 L79.341787,65.4122074 L81.4943709,65.4122074 L81.4943709,66.0780217 L79.341787,66.0780217 L79.341787,67.2803658 L81.5396204,67.2803658 L81.5396204,67.9461801 Z M85.088475,67.9461801 L84.4097323,67.9461801 L84.4097323,65.9939869 C84.4097323,65.5027064 84.1576279,65.3475653 83.7762391,65.3475653 C83.4336357,65.3475653 83.1362817,65.5544202 82.9746763,65.7612751 L82.9746763,67.9461801 L82.2959337,67.9461801 L82.2959337,64.8239638 L82.9746763,64.8239638 L82.9746763,65.2441378 C83.1815312,64.9984976 83.5887768,64.7463932 84.0800573,64.7463932 C84.7523357,64.7463932 85.088475,65.1083893 85.088475,65.7483466 L85.088475,67.9461801 Z M86.9113839,68.0237507 C86.3813182,68.0237507 86.1098211,67.7393252 86.1098211,67.2157237 L86.1098211,65.4122074 L85.5926838,65.4122074 L85.5926838,64.8239638 L86.1098211,64.8239638 L86.1098211,63.9706873 L86.7885638,63.9706873 L86.7885638,64.8239638 L87.4220569,64.8239638 L87.4220569,65.4122074 L86.7885638,65.4122074 L86.7885638,67.0476541 C86.7885638,67.2609732 86.8919912,67.4225786 87.0859177,67.4225786 C87.215202,67.4225786 87.3315579,67.3644006 87.3832716,67.3062227 L87.544877,67.82336 C87.4220569,67.9332516 87.2216662,68.0237507 86.9113839,68.0237507 Z M89.4776776,68.0237507 C88.5339021,68.0237507 87.842231,67.3708649 87.842231,66.3818398 C87.842231,65.4768496 88.501581,64.7463932 89.4259639,64.7463932 C90.3632752,64.7463932 90.9579831,65.4574569 90.9579831,66.4400178 L90.9579831,66.6080874 L88.5532947,66.6080874 C88.6050085,67.0735109 88.9540761,67.4678281 89.5423198,67.4678281 C89.8526021,67.4678281 90.208134,67.345008 90.4343816,67.1187604 L90.7446639,67.5647913 C90.4279174,67.8621453 89.968958,68.0237507 89.4776776,68.0237507 Z M90.3050973,66.1232712 C90.2857046,65.7548109 90.0336002,65.3023157 89.4194997,65.3023157 C88.8441844,65.3023157 88.5726874,65.7483466 88.5468305,66.1232712 L90.3050973,66.1232712 Z M92.3090042,67.9461801 L91.6302615,67.9461801 L91.6302615,64.8239638 L92.3090042,64.8239638 L92.3090042,65.2764589 C92.5481802,64.9791049 92.9231047,64.7463932 93.3238861,64.7463932 L93.3238861,65.4186716 C93.2657082,65.4057432 93.201066,65.399279 93.1170312,65.399279 C92.8261415,65.399279 92.4447527,65.5932055 92.3090042,65.819453 L92.3090042,67.9461801 Z M94.81712,68.0237507 C94.2870543,68.0237507 94.0155572,67.7393252 94.0155572,67.2157237 L94.0155572,65.4122074 L93.4984199,65.4122074 L93.4984199,64.8239638 L94.0155572,64.8239638 L94.0155572,63.9706873 L94.6942999,63.9706873 L94.6942999,64.8239638 L95.3277931,64.8239638 L95.3277931,65.4122074 L94.6942999,65.4122074 L94.6942999,67.0476541 C94.6942999,67.2609732 94.7977274,67.4225786 94.9916538,67.4225786 C95.1209382,67.4225786 95.237294,67.3644006 95.2890078,67.3062227 L95.4506132,67.82336 C95.3277931,67.9332516 95.1274024,68.0237507 94.81712,68.0237507 Z M98.52758,67.9461801 L97.8488373,67.9461801 L97.8488373,67.6035766 C97.6161255,67.8750737 97.2476652,68.0237507 96.8339554,68.0237507 C96.3297465,68.0237507 95.7544313,67.674683 95.7544313,66.9894761 C95.7544313,66.2654839 96.3232823,65.96813 96.8339554,65.96813 C97.2605936,65.96813 97.6161255,66.1038785 97.8488373,66.3689114 L97.8488373,65.9034878 C97.8488373,65.5414917 97.5450192,65.3217084 97.1183809,65.3217084 C96.7693132,65.3217084 96.4590309,65.4509927 96.193998,65.7224898 L95.9095725,65.250602 C96.2715686,64.9015344 96.7240637,64.7463932 97.2218084,64.7463932 C97.9199437,64.7463932 98.52758,65.0372829 98.52758,65.8711667 L98.52758,67.9461801 Z M97.1054525,67.5583271 C97.3963422,67.5583271 97.6872319,67.4484354 97.8488373,67.2351163 L97.8488373,66.7567643 C97.6872319,66.5434452 97.3963422,66.4335535 97.1054525,66.4335535 C96.7240637,66.4335535 96.433174,66.6598011 96.433174,66.9959403 C96.433174,67.3385438 96.7240637,67.5583271 97.1054525,67.5583271 Z M99.7493168,64.442575 C99.516605,64.442575 99.3291428,64.2551128 99.3291428,64.022401 C99.3291428,63.7896892 99.516605,63.6022269 99.7493168,63.6022269 C99.9820286,63.6022269 100.169491,63.7896892 100.169491,64.022401 C100.169491,64.2551128 99.9820286,64.442575 99.7493168,64.442575 Z M100.085456,67.9461801 L99.4067134,67.9461801 L99.4067134,64.8239638 L100.085456,64.8239638 L100.085456,67.9461801 Z M103.757131,67.9461801 L103.078388,67.9461801 L103.078388,65.9939869 C103.078388,65.5027064 102.826284,65.3475653 102.444895,65.3475653 C102.102291,65.3475653 101.804937,65.5544202 101.643332,65.7612751 L101.643332,67.9461801 L100.964589,67.9461801 L100.964589,64.8239638 L101.643332,64.8239638 L101.643332,65.2441378 C101.850187,64.9984976 102.257433,64.7463932 102.748713,64.7463932 C103.420991,64.7463932 103.757131,65.1083893 103.757131,65.7483466 L103.757131,67.9461801 Z M109.148287,67.9461801 L108.469544,67.9461801 L108.469544,65.909952 C108.469544,65.5738128 108.320867,65.3475653 107.952407,65.3475653 C107.648589,65.3475653 107.364163,65.5544202 107.228415,65.7612751 L107.228415,67.9461801 L106.549672,67.9461801 L106.549672,65.909952 C106.549672,65.5738128 106.407459,65.3475653 106.038999,65.3475653 C105.735181,65.3475653 105.45722,65.5608844 105.315007,65.7612751 L105.315007,67.9461801 L104.636264,67.9461801 L104.636264,64.8239638 L105.315007,64.8239638 L105.315007,65.2441378 C105.450755,65.0566755 105.858001,64.7463932 106.336353,64.7463932 C106.801776,64.7463932 107.086202,64.9791049 107.189629,65.3152442 C107.364163,65.0372829 107.777873,64.7463932 108.249761,64.7463932 C108.818612,64.7463932 109.148287,65.0566755 109.148287,65.6901687 L109.148287,67.9461801 Z M111.475405,68.0237507 C110.531629,68.0237507 109.839958,67.3708649 109.839958,66.3818398 C109.839958,65.4768496 110.499308,64.7463932 111.423691,64.7463932 C112.361002,64.7463932 112.95571,65.4574569 112.95571,66.4400178 L112.95571,66.6080874 L110.551022,66.6080874 C110.602735,67.0735109 110.951803,67.4678281 111.540047,67.4678281 C111.850329,67.4678281 112.205861,67.345008 112.432109,67.1187604 L112.742391,67.5647913 C112.425644,67.8621453 111.966685,68.0237507 111.475405,68.0237507 Z M112.302824,66.1232712 C112.283432,65.7548109 112.031327,65.3023157 111.417227,65.3023157 C110.841911,65.3023157 110.570414,65.7483466 110.544557,66.1232712 L112.302824,66.1232712 Z M116.42053,67.9461801 L115.741787,67.9461801 L115.741787,65.9939869 C115.741787,65.5027064 115.489683,65.3475653 115.108294,65.3475653 C114.765691,65.3475653 114.468337,65.5544202 114.306731,65.7612751 L114.306731,67.9461801 L113.627989,67.9461801 L113.627989,64.8239638 L114.306731,64.8239638 L114.306731,65.2441378 C114.513586,64.9984976 114.920832,64.7463932 115.412112,64.7463932 C116.084391,64.7463932 116.42053,65.1083893 116.42053,65.7483466 L116.42053,67.9461801 Z M118.243439,68.0237507 C117.713373,68.0237507 117.441876,67.7393252 117.441876,67.2157237 L117.441876,65.4122074 L116.924739,65.4122074 L116.924739,64.8239638 L117.441876,64.8239638 L117.441876,63.9706873 L118.120619,63.9706873 L118.120619,64.8239638 L118.754112,64.8239638 L118.754112,65.4122074 L118.120619,65.4122074 L118.120619,67.0476541 C118.120619,67.2609732 118.224046,67.4225786 118.417973,67.4225786 C118.547257,67.4225786 118.663613,67.3644006 118.715326,67.3062227 L118.876932,67.82336 C118.754112,67.9332516 118.553721,68.0237507 118.243439,68.0237507 Z M119.633245,68.004358 C119.478104,68.004358 119.342355,67.8750737 119.342355,67.7199325 C119.342355,67.5712556 119.478104,67.4419712 119.633245,67.4419712 C119.788386,67.4419712 119.917671,67.5712556 119.917671,67.7199325 C119.917671,67.8750737 119.788386,68.004358 119.633245,68.004358 Z" id="Your-bank-charges-an" fill="#4E4B6B"></path>
                <path d="M99.9400112,99.1108735 L99.1836979,99.1108735 L99.1836979,95.4650557 L97.8779263,95.4650557 L97.8779263,94.7992415 L101.245783,94.7992415 L101.245783,95.4650557 L99.9400112,95.4650557 L99.9400112,99.1108735 Z M105.35056,99.1108735 L104.490819,99.1108735 L104.174073,98.2769897 L102.196023,98.2769897 L101.879276,99.1108735 L101.019535,99.1108735 L102.71316,94.7992415 L103.656935,94.7992415 L105.35056,99.1108735 Z M103.960754,97.6111754 L103.185048,95.5555547 L102.409342,97.6111754 L103.960754,97.6111754 Z M109.332517,99.1108735 L108.395206,99.1108735 L106.953686,97.2879646 L106.572297,97.7339955 L106.572297,99.1108735 L105.815984,99.1108735 L105.815984,94.7992415 L106.572297,94.7992415 L106.572297,96.8483979 L108.259457,94.7992415 L109.196768,94.7992415 L107.444966,96.8290053 L109.332517,99.1108735 Z M112.784408,99.1108735 L109.830262,99.1108735 L109.830262,94.7992415 L112.784408,94.7992415 L112.784408,95.4650557 L110.586575,95.4650557 L110.586575,96.5769009 L112.739159,96.5769009 L112.739159,97.2427151 L110.586575,97.2427151 L110.586575,98.4450593 L112.784408,98.4450593 L112.784408,99.1108735 Z M119.112876,99.1108735 L118.253135,99.1108735 L117.936388,98.2769897 L115.958338,98.2769897 L115.641592,99.1108735 L114.781851,99.1108735 L116.475476,94.7992415 L117.419251,94.7992415 L119.112876,99.1108735 Z M117.723069,97.6111754 L116.947363,95.5555547 L116.171658,97.6111754 L117.723069,97.6111754 Z M123.851146,99.1108735 L121.194353,99.1108735 L121.194353,94.7992415 L121.950667,94.7992415 L121.950667,98.4450593 L123.851146,98.4450593 L123.851146,99.1108735 Z M126.339869,99.1884441 C125.047026,99.1884441 124.135572,98.2446686 124.135572,96.9582896 C124.135572,95.6719106 125.047026,94.7281351 126.339869,94.7281351 C127.626248,94.7281351 128.544167,95.6719106 128.544167,96.9582896 C128.544167,98.2446686 127.626248,99.1884441 126.339869,99.1884441 Z M126.339869,98.5161657 C127.206074,98.5161657 127.768461,97.8438872 127.768461,96.9582896 C127.768461,96.0662278 127.206074,95.4004136 126.339869,95.4004136 C125.4672,95.4004136 124.911278,96.0662278 124.911278,96.9582896 C124.911278,97.8438872 125.4672,98.5161657 126.339869,98.5161657 Z M131.284994,99.1884441 C129.992151,99.1884441 129.080697,98.2446686 129.080697,96.9582896 C129.080697,95.6719106 129.992151,94.7281351 131.284994,94.7281351 C132.571373,94.7281351 133.489292,95.6719106 133.489292,96.9582896 C133.489292,98.2446686 132.571373,99.1884441 131.284994,99.1884441 Z M131.284994,98.5161657 C132.151199,98.5161657 132.713586,97.8438872 132.713586,96.9582896 C132.713586,96.0662278 132.151199,95.4004136 131.284994,95.4004136 C130.412325,95.4004136 129.856403,96.0662278 129.856403,96.9582896 C129.856403,97.8438872 130.412325,98.5161657 131.284994,98.5161657 Z M137.729818,99.1108735 L136.792506,99.1108735 L135.350986,97.2879646 L134.969598,97.7339955 L134.969598,99.1108735 L134.213284,99.1108735 L134.213284,94.7992415 L134.969598,94.7992415 L134.969598,96.8483979 L136.656758,94.7992415 L137.594069,94.7992415 L135.842267,96.8290053 L137.729818,99.1108735 Z" id="TAKE-A-LOOK" fill="#13C6B9"></path>
                <path d="M15.352513,92.5959681 L8.88829697,92.5959681 C8.44203599,92.5959681 8.08026998,92.9577341 8.08026998,93.4039951 L8.08026998,98.2521571 C8.08026998,98.6984181 8.44203599,99.0601841 8.88829697,99.0601841 L15.352513,99.0601841 C15.7987739,99.0601841 16.16054,98.6984181 16.16054,98.2521571 L16.16054,93.4039951 C16.16054,92.9577341 15.7987739,92.5959681 15.352513,92.5959681 L15.352513,92.5959681 Z M15.352513,98.2521571 L8.88829697,98.2521571 L8.88829697,94.2120221 L12.120405,96.2320896 L15.352513,94.2120221 L15.352513,98.2521571 L15.352513,98.2521571 Z M15.352513,93.4039951 L12.120405,95.4240626 L8.88829697,93.4039951 L15.352513,93.4039951 L15.352513,93.4039951 Z" id="Shape-Copy-8" fill="#000000" opacity="0.3"></path>
                <path d="M-1.79418035e-16,85.3237251 L145.44486,85.3237251" id="Line-Copy-6" stroke="#AEAEAE" stroke-width="0.5" opacity="0.3" stroke-linecap="square"></path>
            </g>
        </g>
    </g>
</svg>