<?xml version="1.0" encoding="UTF-8"?>
<svg width="214px" height="169px" viewBox="0 0 214 169" version="1.1" xmlns="http://www.w3.org/2000/svg" xmlns:xlink="http://www.w3.org/1999/xlink">
    <!-- Generator: Sketch 52.6 (67491) - http://www.bohemiancoding.com/sketch -->
    <desc>Created with Sketch.</desc>
    <defs>
        <rect id="path-1" x="0" y="0.09" width="170.272752" height="124.866685" rx="0.945959731"></rect>
        <filter x="-15.6%" y="-17.2%" width="131.1%" height="142.4%" filterUnits="objectBoundingBox" id="filter-2">
            <feOffset dx="0" dy="5" in="SourceAlpha" result="shadowOffsetOuter1"></feOffset>
            <feGaussianBlur stdDeviation="8" in="shadowOffsetOuter1" result="shadowBlurOuter1"></feGaussianBlur>
            <feColorMatrix values="0 0 0 0 0   0 0 0 0 0   0 0 0 0 0  0 0 0 0.10377038 0" type="matrix" in="shadowBlurOuter1"></feColorMatrix>
        </filter>
        <linearGradient x1="67.236151%" y1="17.9919%" x2="-53.002714%" y2="75.8529284%" id="linearGradient-3">
            <stop stop-color="#7FE5C0" offset="0%"></stop>
            <stop stop-color="#3DB39E" offset="100%"></stop>
        </linearGradient>
        <linearGradient x1="38.1549092%" y1="11.2545687%" x2="38.1549092%" y2="100%" id="linearGradient-4">
            <stop stop-color="#F8E597" offset="0%"></stop>
            <stop stop-color="#EFC75E" offset="100%"></stop>
        </linearGradient>
    </defs>
    <g id="Page-1" stroke="none" stroke-width="1" fill="none" fill-rule="evenodd">
        <g id="card/nudge/bank-fees">
            <g transform="translate(21.600000, 21.600000)">
                <g id="Rectangle-11-Copy-5" fill-rule="nonzero">
                    <use fill="black" fill-opacity="1" filter="url(#filter-2)" xlink:href="#path-1"></use>
                    <use fill="#FFFFFF" xlink:href="#path-1"></use>
                </g>
                <g id="502-6months-bankfees-spend" transform="translate(66.217181, 10.022577)">
                    <path d="M0,18.9190054 C0,29.3681811 8.47050182,37.8383892 18.9191946,37.8383892 C29.3678874,37.8383892 37.8383892,29.3681811 37.8383892,18.9190054 C37.8383892,8.47020814 29.3678874,7.10542736e-15 18.9191946,7.10542736e-15 C8.47050182,9.7940335e-15 0,8.47020814 0,18.9190054 Z" id="Shape" fill="url(#linearGradient-3)"></path>
                    <g id="Group" transform="translate(22.703034, 10.878537)" fill="#37A18E">
                        <path d="M3.97845986,2.11458383 L6.58252248,2.11458383 C6.92491878,2.11458383 7.20994056,2.34707163 7.29211567,2.66032983 C7.30729215,2.60175309 7.31802674,2.54172103 7.31802674,2.4784145 C7.31802674,2.07674544 6.98858598,1.75075316 6.58252248,1.75075316 L3.97845986,1.75075316 C3.02604292,1.75075316 2.25204222,1.03145994 2.15839221,0.113515168 C2.15209952,0.174274889 2.1398843,0.233215457 2.1398843,0.295430501 C2.1398843,1.3003308 2.96311604,2.11458383 3.97845986,2.11458383 L3.97845986,2.11458383 Z M6.58252248,4.29756782 L1.26964247,4.29756782 L0.535989009,3.56990649 L0.169162277,3.56990649 L1.27001263,4.66139849 L6.5832628,4.66139849 C7.59860662,4.66139849 8.42183836,3.84678163 8.42183836,2.84224516 C8.42183836,2.78003012 8.40962314,2.72108955 8.40333045,2.66032983 C8.30894012,3.5782746 7.53493942,4.29756782 6.58252248,4.29756782 L6.58252248,4.29756782 Z" id="Shape"></path>
                    </g>
                    <path d="M26.5870033,10.1551559 L35.4734899,10.1551559 C35.2715929,9.75746334 35.0583746,9.36756099 34.8315707,8.98661745 L26.5870033,8.98661745 C25.5518567,8.98661745 24.712569,9.85873667 24.712569,10.9341816 C24.712569,12.0096265 25.5518567,12.8817458 26.5870033,12.8817458 L29.2418544,12.8817458 C29.656215,12.8817458 29.9917036,13.2307492 29.9917036,13.6607714 C29.9917036,14.0907936 29.6558376,14.4397971 29.2418544,14.4397971 L22.7030335,14.4397971 L23.8253544,15.6083356 L29.2422318,15.6083356 C30.2773784,15.6083356 31.1166661,14.7362163 31.1166661,13.6607714 C31.1166661,12.5853265 30.2773784,11.7132073 29.2422318,11.7132073 L26.5870033,11.7132073 C26.1726428,11.7132073 25.8371541,11.3642038 25.8371541,10.9341816 C25.8371541,10.5041594 26.1726428,10.1551559 26.5870033,10.1551559 L26.5870033,10.1551559 Z" id="Shape" fill="#E4E7E7"></path>
                    <g id="Group" transform="translate(9.459597, 11.351517)" fill="#37A18E">
                        <path d="M6.05414228,3.61150732 C6.05414228,2.87650588 5.46121472,2.28067182 4.72979866,2.28067182 C4.26703516,2.28067182 3.86140762,2.51984197 3.62453931,2.88106875 C3.83340721,2.74266185 4.0827622,2.66091053 4.35141476,2.66091053 C5.08283083,2.66091053 5.67575839,3.2567446 5.67575839,3.99174604 C5.67575839,4.26171552 5.59440585,4.51267308 5.45667411,4.72218461 C5.81613881,4.48453541 6.05414228,4.07653927 6.05414228,3.61150732 L6.05414228,3.61150732 Z M11.8695243,18.246135 C11.3568141,18.7609782 10.5258831,18.7609782 10.0135513,18.246135 L1.27023473,9.5493151 C1.20704462,9.48581524 0.751092027,8.77667003 0.751092027,8.19566527 L0.754875865,0.851734723 C0.754875865,0.54184017 0.793471023,0.30799336 0.87293164,0.126999731 C0.518385933,0.283277843 0.376491973,0.61560648 0.376491973,1.23197344 L0.372708134,8.57590399 C0.372708134,9.15652851 0.828660725,9.86605395 0.891850835,9.92955382 L9.63516744,18.6263737 C10.1474992,19.1412169 10.9784303,19.1412169 11.4911404,18.6263737 L18.914654,11.1721739 L18.9161676,11.170653 L11.8695243,18.246135 L11.8695243,18.246135 Z" id="Shape"></path>
                    </g>
                    <path d="M20.2826411,11.4000699 C20.2187179,11.3361083 19.5938589,10.8804293 18.9481965,10.8785369 C17.1541855,10.8974605 13.5090486,10.8853494 11.6068598,10.8853494 C10.7172301,10.8853494 10.4093395,11.1786644 10.4093395,12.0998626 L10.405557,19.4096504 C10.405557,19.9875755 10.861341,20.6938023 10.9245077,20.7570069 L19.6645905,29.4133943 C20.1767328,29.9258439 21.0073565,29.9258439 21.519877,29.4133943 L28.9406449,21.99385 C29.4527872,21.4814003 29.4527872,20.6510351 28.9406449,20.1385854 L20.2826411,11.4000699 Z M14.3827921,16.171453 C13.6516466,16.171453 13.0589383,15.5783891 13.0589383,14.8468047 C13.0589383,14.1152204 13.6516466,13.5221564 14.3827921,13.5221564 C15.1139376,13.5221564 15.7066459,14.1152204 15.7066459,14.8468047 C15.7066459,15.5783891 15.1139376,16.171453 14.3827921,16.171453 L14.3827921,16.171453 Z" id="Shape" fill="url(#linearGradient-4)"></path>
                    <path d="M14.4258859,12.7704564 C13.2502299,12.7704564 12.2974765,13.7232098 12.2974765,14.8988658 C12.2974765,16.0745217 13.2502299,17.0272752 14.4258859,17.0272752 C15.6015419,17.0272752 16.5542953,16.0745217 16.5542953,14.8988658 C16.5542953,13.7232098 15.6015419,12.7704564 14.4258859,12.7704564 L14.4258859,12.7704564 Z M14.4258859,15.8663246 C13.8914617,15.8663246 13.4584271,15.43329 13.4584271,14.8988658 C13.4584271,14.3644415 13.8914617,13.931407 14.4258859,13.931407 C14.9603102,13.931407 15.3933447,14.3644415 15.3933447,14.8988658 C15.3933447,15.43329 14.9603102,15.8663246 14.4258859,15.8663246 L14.4258859,15.8663246 Z" id="Shape" fill="#30444D"></path>
                    <path d="M20.3381342,19.5498344 C21.1929808,19.5498344 21.8860683,18.8792081 21.8860683,18.0520649 C21.8860683,17.2249216 21.1929808,16.5542953 20.3381342,16.5542953 C19.4832876,16.5542953 18.7902001,17.2249216 18.7902001,18.0520649 C18.7902001,18.8792081 19.4832876,19.5498344 20.3381342,19.5498344 L20.3381342,19.5498344 Z M20.3381342,17.3031801 C20.765364,17.3031801 21.1121013,17.6386805 21.1121013,18.0520649 C21.1121013,18.4654493 20.765364,18.8009497 20.3381342,18.8009497 C19.9109044,18.8009497 19.5641672,18.4654493 19.5641672,18.0520649 C19.5641672,17.6386805 19.9109044,17.3031801 20.3381342,17.3031801 L20.3381342,17.3031801 Z M20.3381342,22.5453736 C19.4832876,22.5453736 18.7902001,23.2159999 18.7902001,24.0431432 C18.7902001,24.8702864 19.4832876,25.5409127 20.3381342,25.5409127 C21.1929808,25.5409127 21.8860683,24.8702864 21.8860683,24.0431432 C21.8860683,23.2159999 21.1929808,22.5453736 20.3381342,22.5453736 L20.3381342,22.5453736 Z M20.3381342,24.792028 C19.9109044,24.792028 19.5641672,24.4565276 19.5641672,24.0431432 C19.5641672,23.6297588 19.9109044,23.2942584 20.3381342,23.2942584 C20.765364,23.2942584 21.1121013,23.6297588 21.1121013,24.0431432 C21.1121013,24.4565276 20.765364,24.792028 20.3381342,24.792028 L20.3381342,24.792028 Z M24.2079695,20.6731616 L16.468299,20.6731616 C16.2546841,20.6731616 16.0813154,20.8405374 16.0813154,21.047604 C16.0813154,21.2546707 16.2546841,21.4220464 16.468299,21.4220464 L24.2079695,21.4220464 C24.4219714,21.4220464 24.594953,21.2546707 24.594953,21.047604 C24.594953,20.8405374 24.4219714,20.6731616 24.2079695,20.6731616 L24.2079695,20.6731616 Z" id="Shape" fill="#D07C40"></path>
                    <polygon id="Shape" fill="#CDCFCF" points="23.8389881 14.189396 22.7030335 14.189396 23.9213274 15.1353557 25.0679329 15.1353557"></polygon>
                    <path d="M0.711015169,14.189396 C0.619693449,14.500932 0.541471156,14.8168826 0.472979866,15.1353557 L14.9441041,15.1353557 C15.0623732,15.0032367 15.1353557,14.8405316 15.1353557,14.6623758 C15.1353557,14.4842201 15.0623732,14.321515 14.9441041,14.189396 L0.711015169,14.189396 L0.711015169,14.189396 Z" id="Shape" fill="#E4E7E7"></path>
                    <path d="M28.9381562,20.0251716 L20.2240543,11.3936823 C20.1597169,11.3305041 19.5308092,10.8804061 18.8809634,10.8785369 C17.0753284,10.8972287 13.4065734,10.8852659 11.4920597,10.8852659 C10.8966532,10.8852659 10.563926,11.0187252 10.405557,11.3723737 C10.5841029,11.2953636 10.8125197,11.2591015 11.111365,11.2591015 C13.0258787,11.2591015 16.6950143,11.2710642 18.5002686,11.2523725 C19.1501145,11.2542416 19.7790222,11.7039658 19.8433596,11.7675179 L28.5574615,20.3990071 C29.0725414,20.9048066 29.0729221,21.7235065 28.5589843,22.2300537 L28.9381562,21.8577135 C29.4536168,21.3515401 29.4536168,20.5313449 28.9381562,20.0251716 L28.9381562,20.0251716 Z" id="Shape" fill="#F2D27E"></path>
                    <path d="M35.7528442,9.93257718 L26.8649393,9.93257718 C26.4505126,9.93257718 26.1149704,10.2674566 26.1149704,10.680076 C26.1149704,10.7451084 26.1259161,10.806777 26.1413911,10.8669507 C26.2251823,10.5451524 26.5158094,10.3063266 26.8649393,10.3063266 L35.9464698,10.3063266 C35.8834377,10.1811205 35.8185184,10.056662 35.7528442,9.93257718 L35.7528442,9.93257718 Z M15.0666117,15.2700236 L0.552996675,15.2700236 L0.472979866,15.643773 L14.3158879,15.643773 C14.6234997,15.643773 14.8941226,15.4957682 15.0666117,15.2700236 L15.0666117,15.2700236 Z" id="Shape" fill="#37A18E"></path>
                    <path d="M10.405557,16.0813154 L13.2434362,16.0813154 C13.1403366,15.9460432 13.0576458,15.78523 12.9950118,15.6083356 L10.4059089,15.6083356 L10.405557,16.0813154 L10.405557,16.0813154 Z" id="Shape" fill="#D7B354"></path>
                    <path d="M12.4380825,16.0813154 L14.189396,16.0813154 C13.8978085,16.0813154 13.6412831,15.8940154 13.4777795,15.6083356 L12.2974765,15.6083356 C12.3328963,15.7734055 12.3801228,15.9313808 12.4380825,16.0813154 L12.4380825,16.0813154 Z" id="Shape" fill="#273A45"></path>
                    <polygon id="Shape" fill="#319180" points="9.93257718 16.0813154 10.4050841 16.0813154 10.405557 15.6083356 9.93305016 15.6083356"></polygon>
                </g>
                <path d="M18.3554026,59.7448054 L17.9164773,59.7448054 L17.9164773,57.5880172 L15.9110427,54.6971642 L16.4332125,54.6971642 L18.13594,57.1793626 L19.8386675,54.6971642 L20.3608373,54.6971642 L18.3554026,57.5880172 L18.3554026,59.7448054 Z M21.6549102,59.8356175 C20.5878676,59.8356175 19.9067766,58.9804699 19.9067766,57.9134273 C19.9067766,56.8463847 20.5878676,55.9988048 21.6549102,55.9988048 C22.7370881,55.9988048 23.4181791,56.8463847 23.4181791,57.9134273 C23.4181791,58.9804699 22.7370881,59.8356175 21.6549102,59.8356175 Z M21.6549102,59.4799366 C22.5176254,59.4799366 22.9943891,58.7307365 22.9943891,57.9134273 C22.9943891,57.1036858 22.5176254,56.3544857 21.6549102,56.3544857 C20.8073302,56.3544857 20.3229989,57.1036858 20.3229989,57.9134273 C20.3229989,58.7307365 20.8073302,59.4799366 21.6549102,59.4799366 Z M27.2928302,59.7448054 L26.8993109,59.7448054 L26.8993109,59.2075002 C26.6041715,59.540478 26.1122724,59.8356175 25.582535,59.8356175 C24.8409025,59.8356175 24.4322479,59.4875043 24.4322479,58.6626274 L24.4322479,56.0896169 L24.8257672,56.0896169 L24.8257672,58.5718153 C24.8257672,59.283177 25.181448,59.4799366 25.7111855,59.4799366 C26.1803815,59.4799366 26.6571452,59.1999325 26.8993109,58.8745224 L26.8993109,56.0896169 L27.2928302,56.0896169 L27.2928302,59.7448054 Z M28.9123132,59.7448054 L28.518794,59.7448054 L28.518794,56.0896169 L28.9123132,56.0896169 L28.9123132,56.7177342 C29.222588,56.3090796 29.6388103,56.0139402 30.1458447,56.0139402 L30.1458447,56.4452978 C30.0777356,56.4301625 30.0247619,56.4301625 29.9490851,56.4301625 C29.5782689,56.4301625 29.0788021,56.7631403 28.9123132,57.0809827 L28.9123132,59.7448054 Z M33.2712957,58.8291163 C33.4831906,59.1772295 33.967522,59.4799366 34.4745564,59.4799366 C35.2918657,59.4799366 35.753494,58.8064133 35.753494,57.920995 C35.753494,57.0355767 35.2918657,56.3544857 34.4745564,56.3544857 C33.967522,56.3544857 33.4831906,56.6723281 33.2712957,57.0204413 L33.2712957,58.8291163 Z M33.2712957,59.7448054 L32.8777764,59.7448054 L32.8777764,54.6971642 L33.2712957,54.6971642 L33.2712957,56.6798958 C33.5664351,56.2636735 34.0280635,55.9988048 34.5426655,55.9988048 C35.518896,55.9988048 36.177284,56.7631403 36.177284,57.920995 C36.177284,59.0939851 35.5113283,59.8356175 34.5426655,59.8356175 C33.9977927,59.8356175 33.5285967,59.540478 33.2712957,59.1620942 L33.2712957,59.7448054 Z M39.9157168,59.7448054 L39.5221976,59.7448054 L39.5221976,59.3134477 C39.1967874,59.6691286 38.7881328,59.8356175 38.2810984,59.8356175 C37.6529811,59.8356175 37.0021608,59.4042598 37.0021608,58.6172214 C37.0021608,57.8226152 37.6454135,57.4063929 38.2810984,57.4063929 C38.7881328,57.4063929 39.2043551,57.5728818 39.5221976,57.9285627 L39.5221976,57.1869302 C39.5221976,56.6420574 39.0832723,56.346918 38.5459671,56.346918 C38.0843388,56.346918 37.7286579,56.5058392 37.3956801,56.8842231 L37.1762174,56.6117867 C37.5546013,56.2031321 37.9783913,55.9988048 38.5838055,55.9988048 C39.3254379,55.9988048 39.9157168,56.3544857 39.9157168,57.1717949 L39.9157168,59.7448054 Z M38.4173166,59.5253427 C38.8562419,59.5253427 39.2648965,59.3588538 39.5221976,59.025876 L39.5221976,58.2237021 C39.2648965,57.8831566 38.8562419,57.7166677 38.4173166,57.7166677 C37.8194701,57.7166677 37.4183831,58.1026193 37.4183831,58.624789 C37.4183831,59.1393911 37.8194701,59.5253427 38.4173166,59.5253427 Z M44.0022629,59.7448054 L43.6087436,59.7448054 L43.6087436,57.2701747 C43.6087436,56.5663807 43.2530627,56.3544857 42.7233253,56.3544857 C42.2541293,56.3544857 41.7697979,56.6496251 41.5351999,56.9826029 L41.5351999,59.7448054 L41.1416806,59.7448054 L41.1416806,56.0896169 L41.5351999,56.0896169 L41.5351999,56.6420574 C41.8000686,56.324215 42.3222384,55.9988048 42.8519758,55.9988048 C43.5936083,55.9988048 44.0022629,56.3620534 44.0022629,57.1869302 L44.0022629,59.7448054 Z M48.2931362,59.7448054 L47.7633987,59.7448054 L46.3028369,58.0042394 L45.6217459,58.6474921 L45.6217459,59.7448054 L45.2282267,59.7448054 L45.2282267,54.6971642 L45.6217459,54.6971642 L45.6217459,58.178296 L47.7709664,56.0896169 L48.3007039,56.0896169 L46.5979764,57.7393707 L48.2931362,59.7448054 Z M52.5764419,59.8356175 C51.5018316,59.8356175 50.8056052,58.9804699 50.8056052,57.9134273 C50.8056052,56.8463847 51.5018316,55.9988048 52.5764419,55.9988048 C53.2121268,55.9988048 53.5753753,56.2485382 53.8705148,56.6193544 L53.5980784,56.8615201 C53.3332096,56.4982716 53.0002318,56.3544857 52.5991449,56.3544857 C51.7439973,56.3544857 51.2218275,57.0355767 51.2218275,57.9134273 C51.2218275,58.7912779 51.7439973,59.4799366 52.5991449,59.4799366 C53.0002318,59.4799366 53.3332096,59.3285831 53.5980784,58.9653345 L53.8705148,59.2075002 C53.5753753,59.5858841 53.2121268,59.8356175 52.5764419,59.8356175 Z M57.6089476,59.7448054 L57.2154284,59.7448054 L57.2154284,57.2550393 C57.2154284,56.5512453 56.8597475,56.3544857 56.3300101,56.3544857 C55.860814,56.3544857 55.3764827,56.6496251 55.1418847,56.9826029 L55.1418847,59.7448054 L54.7483654,59.7448054 L54.7483654,54.6971642 L55.1418847,54.6971642 L55.1418847,56.6420574 C55.4067534,56.324215 55.9289231,55.9988048 56.4586606,55.9988048 C57.200293,55.9988048 57.6089476,56.346918 57.6089476,57.1717949 L57.6089476,59.7448054 Z M61.5517078,59.7448054 L61.1581885,59.7448054 L61.1581885,59.3134477 C60.8327784,59.6691286 60.4241238,59.8356175 59.9170894,59.8356175 C59.2889721,59.8356175 58.6381518,59.4042598 58.6381518,58.6172214 C58.6381518,57.8226152 59.2814044,57.4063929 59.9170894,57.4063929 C60.4241238,57.4063929 60.8403461,57.5728818 61.1581885,57.9285627 L61.1581885,57.1869302 C61.1581885,56.6420574 60.7192632,56.346918 60.1819581,56.346918 C59.7203298,56.346918 59.3646489,56.5058392 59.0316711,56.8842231 L58.8122084,56.6117867 C59.1905923,56.2031321 59.6143823,55.9988048 60.2197965,55.9988048 C60.9614289,55.9988048 61.5517078,56.3544857 61.5517078,57.1717949 L61.5517078,59.7448054 Z M60.0533076,59.5253427 C60.4922329,59.5253427 60.9008875,59.3588538 61.1581885,59.025876 L61.1581885,58.2237021 C60.9008875,57.8831566 60.4922329,57.7166677 60.0533076,57.7166677 C59.455461,57.7166677 59.0543741,58.1026193 59.0543741,58.624789 C59.0543741,59.1393911 59.455461,59.5253427 60.0533076,59.5253427 Z M63.1711908,59.7448054 L62.7776716,59.7448054 L62.7776716,56.0896169 L63.1711908,56.0896169 L63.1711908,56.7177342 C63.4814656,56.3090796 63.8976879,56.0139402 64.4047223,56.0139402 L64.4047223,56.4452978 C64.3366132,56.4301625 64.2836395,56.4301625 64.2079627,56.4301625 C63.8371465,56.4301625 63.3376798,56.7631403 63.1711908,57.0809827 L63.1711908,59.7448054 Z M66.6296196,61.2280702 C66.00907,61.2280702 65.6155508,61.114555 65.1841932,60.6756297 L65.4112235,60.3577873 C65.729066,60.7361711 66.0771791,60.8723893 66.6296196,60.8723893 C67.2880076,60.8723893 67.8707188,60.5394115 67.8707188,59.7145346 L67.8707188,59.1318234 C67.6134177,59.5102073 67.1442217,59.8204821 66.5993489,59.8204821 C65.6306862,59.8204821 64.9722982,59.0864174 64.9722982,57.9134273 C64.9722982,56.7555726 65.6306862,55.9988048 66.5993489,55.9988048 C67.1215187,55.9988048 67.5755794,56.2636735 67.8707188,56.6798958 L67.8707188,56.0896169 L68.2718057,56.0896169 L68.2718057,59.7145346 C68.2718057,60.8269833 67.5150379,61.2280702 66.6296196,61.2280702 Z M66.667458,59.4648013 C67.1744924,59.4648013 67.6588238,59.1545265 67.8707188,58.7988456 L67.8707188,57.0204413 C67.6588238,56.6647605 67.1744924,56.3544857 66.667458,56.3544857 C65.8577165,56.3544857 65.3885205,57.028009 65.3885205,57.9134273 C65.3885205,58.7988456 65.8577165,59.4648013 66.667458,59.4648013 Z M71.1096849,59.8356175 C70.0426423,59.8356175 69.2858746,59.0410113 69.2858746,57.9134273 C69.2858746,56.8539524 70.027507,55.9988048 71.0415758,55.9988048 C72.1540245,55.9988048 72.7670064,56.8766554 72.7670064,57.9361303 L72.7670064,58.0420778 L69.7096645,58.0420778 C69.7475029,58.836684 70.2772404,59.495072 71.1399556,59.495072 C71.601584,59.495072 72.0253739,59.3210154 72.3356487,58.9880376 L72.539976,59.2453386 C72.1767275,59.6237225 71.7150991,59.8356175 71.1096849,59.8356175 Z M72.3659194,57.731803 C72.3583518,57.1112535 71.9496972,56.3393503 71.0340081,56.3393503 C70.1712929,56.3393503 69.7399352,57.0961181 69.7096645,57.731803 L72.3659194,57.731803 Z M74.8708208,59.8356175 C74.2805419,59.8356175 73.8264813,59.6615609 73.4632327,59.2529063 L73.6978307,58.9653345 C73.9324288,59.260474 74.3637864,59.5026397 74.8783885,59.5026397 C75.4913704,59.5026397 75.8546189,59.1847972 75.8546189,58.7610072 C75.8546189,57.7620738 73.5464772,58.3296496 73.5464772,57.0128736 C73.5464772,56.4528655 74.0232409,55.9988048 74.8481178,55.9988048 C75.476235,55.9988048 75.8924573,56.2409705 76.157326,56.5361099 L75.9378634,56.816114 C75.7259684,56.5285423 75.3324492,56.3317826 74.8481178,56.3317826 C74.2805419,56.3317826 73.9399964,56.6193544 73.9399964,56.9977383 C73.9399964,57.9134273 76.2405705,57.3534191 76.2405705,58.7610072 C76.2405705,59.3512861 75.7865098,59.8356175 74.8708208,59.8356175 Z M81.9314642,59.7448054 L81.537945,59.7448054 L81.537945,59.3134477 C81.2125348,59.6691286 80.8038802,59.8356175 80.2968458,59.8356175 C79.6687286,59.8356175 79.0179083,59.4042598 79.0179083,58.6172214 C79.0179083,57.8226152 79.6611609,57.4063929 80.2968458,57.4063929 C80.8038802,57.4063929 81.2201025,57.5728818 81.537945,57.9285627 L81.537945,57.1869302 C81.537945,56.6420574 81.0990197,56.346918 80.5617145,56.346918 C80.1000862,56.346918 79.7444053,56.5058392 79.4114275,56.8842231 L79.1919649,56.6117867 C79.5703487,56.2031321 79.9941387,55.9988048 80.5995529,55.9988048 C81.3411854,55.9988048 81.9314642,56.3544857 81.9314642,57.1717949 L81.9314642,59.7448054 Z M80.433064,59.5253427 C80.8719893,59.5253427 81.2806439,59.3588538 81.537945,59.025876 L81.537945,58.2237021 C81.2806439,57.8831566 80.8719893,57.7166677 80.433064,57.7166677 C79.8352175,57.7166677 79.4341305,58.1026193 79.4341305,58.624789 C79.4341305,59.1393911 79.8352175,59.5253427 80.433064,59.5253427 Z M86.0180103,59.7448054 L85.624491,59.7448054 L85.624491,57.2701747 C85.624491,56.5663807 85.2688102,56.3544857 84.7390727,56.3544857 C84.2698767,56.3544857 83.7855453,56.6496251 83.5509473,56.9826029 L83.5509473,59.7448054 L83.1574281,59.7448054 L83.1574281,56.0896169 L83.5509473,56.0896169 L83.5509473,56.6420574 C83.815816,56.324215 84.3379858,55.9988048 84.8677232,55.9988048 C85.6093557,55.9988048 86.0180103,56.3620534 86.0180103,57.1869302 L86.0180103,59.7448054 Z M90.3391543,59.7448054 L89.9380674,59.7448054 L89.9380674,59.1620942 C89.6807664,59.540478 89.2115703,59.8356175 88.6666975,59.8356175 C87.6980348,59.8356175 87.0396468,59.0939851 87.0396468,57.920995 C87.0396468,56.7631403 87.6980348,55.9988048 88.6666975,55.9988048 C89.1888673,55.9988048 89.6504956,56.2636735 89.9380674,56.6798958 L89.9380674,54.6971642 L90.3391543,54.6971642 L90.3391543,59.7448054 Z M88.7348066,59.4799366 C89.2494087,59.4799366 89.7261724,59.1772295 89.9380674,58.8291163 L89.9380674,57.0204413 C89.7261724,56.6647605 89.2494087,56.3544857 88.7348066,56.3544857 C87.9250651,56.3544857 87.4558691,57.0355767 87.4558691,57.920995 C87.4558691,58.8064133 87.9250651,59.4799366 88.7348066,59.4799366 Z M94.0548842,59.7448054 L93.6537972,59.7448054 L93.6537972,56.4377301 L93.048383,56.4377301 L93.048383,56.0896169 L93.6537972,56.0896169 L93.6537972,55.7566391 C93.6537972,55.0452774 94.0321811,54.6214874 94.645163,54.6214874 C94.9024641,54.6214874 95.1067914,54.6744612 95.3413894,54.8787885 L95.1521974,55.1663603 C95.0311146,55.0528451 94.879761,54.9771683 94.6830014,54.9771683 C94.2667791,54.9771683 94.0548842,55.2647401 94.0548842,55.7566391 L94.0548842,56.0896169 L94.7965166,56.0896169 L94.7965166,56.4377301 L94.0548842,56.4377301 L94.0548842,59.7448054 Z M97.1500644,59.8356175 C96.0830218,59.8356175 95.326254,59.0410113 95.326254,57.9134273 C95.326254,56.8539524 96.0678865,55.9988048 97.0819553,55.9988048 C98.1944039,55.9988048 98.8073858,56.8766554 98.8073858,57.9361303 L98.8073858,58.0420778 L95.750044,58.0420778 C95.7878824,58.836684 96.3176198,59.495072 97.1803351,59.495072 C97.6419635,59.495072 98.0657534,59.3210154 98.3760282,58.9880376 L98.5803555,59.2453386 C98.217107,59.6237225 97.7554786,59.8356175 97.1500644,59.8356175 Z M98.4062989,57.731803 C98.3987312,57.1112535 97.9900766,56.3393503 97.0743876,56.3393503 C96.2116723,56.3393503 95.7803147,57.0961181 95.750044,57.731803 L98.4062989,57.731803 Z M101.440938,59.8356175 C100.373895,59.8356175 99.6171274,59.0410113 99.6171274,57.9134273 C99.6171274,56.8539524 100.35876,55.9988048 101.372829,55.9988048 C102.485277,55.9988048 103.098259,56.8766554 103.098259,57.9361303 L103.098259,58.0420778 L100.040917,58.0420778 C100.078756,58.836684 100.608493,59.495072 101.471208,59.495072 C101.932837,59.495072 102.356627,59.3210154 102.666902,58.9880376 L102.871229,59.2453386 C102.50798,59.6237225 102.046352,59.8356175 101.440938,59.8356175 Z M102.697172,57.731803 C102.689605,57.1112535 102.28095,56.3393503 101.365261,56.3393503 C100.502546,56.3393503 100.071188,57.0961181 100.040917,57.731803 L102.697172,57.731803 Z M105.202074,59.8356175 C104.611795,59.8356175 104.157734,59.6615609 103.794486,59.2529063 L104.029084,58.9653345 C104.263682,59.260474 104.695039,59.5026397 105.209641,59.5026397 C105.822623,59.5026397 106.185872,59.1847972 106.185872,58.7610072 C106.185872,57.7620738 103.87773,58.3296496 103.87773,57.0128736 C103.87773,56.4528655 104.354494,55.9988048 105.179371,55.9988048 C105.807488,55.9988048 106.22371,56.2409705 106.488579,56.5361099 L106.269116,56.816114 C106.057221,56.5285423 105.663702,56.3317826 105.179371,56.3317826 C104.611795,56.3317826 104.271249,56.6193544 104.271249,56.9977383 C104.271249,57.9134273 106.571823,57.3534191 106.571823,58.7610072 C106.571823,59.3512861 106.117763,59.8356175 105.202074,59.8356175 Z M112.406503,59.7448054 L112.012984,59.7448054 L112.012984,57.2550393 C112.012984,56.5512453 111.657303,56.3544857 111.127565,56.3544857 C110.658369,56.3544857 110.174038,56.6496251 109.93944,56.9826029 L109.93944,59.7448054 L109.545921,59.7448054 L109.545921,54.6971642 L109.93944,54.6971642 L109.93944,56.6420574 C110.204309,56.324215 110.726478,55.9988048 111.256216,55.9988048 C111.997848,55.9988048 112.406503,56.346918 112.406503,57.1717949 L112.406503,59.7448054 Z M116.349263,59.7448054 L115.955744,59.7448054 L115.955744,59.3134477 C115.630334,59.6691286 115.221679,59.8356175 114.714645,59.8356175 C114.086527,59.8356175 113.435707,59.4042598 113.435707,58.6172214 C113.435707,57.8226152 114.07896,57.4063929 114.714645,57.4063929 C115.221679,57.4063929 115.637901,57.5728818 115.955744,57.9285627 L115.955744,57.1869302 C115.955744,56.6420574 115.516819,56.346918 114.979513,56.346918 C114.517885,56.346918 114.162204,56.5058392 113.829226,56.8842231 L113.609764,56.6117867 C113.988148,56.2031321 114.411938,55.9988048 115.017352,55.9988048 C115.758984,55.9988048 116.349263,56.3544857 116.349263,57.1717949 L116.349263,59.7448054 Z M114.850863,59.5253427 C115.289788,59.5253427 115.698443,59.3588538 115.955744,59.025876 L115.955744,58.2237021 C115.698443,57.8831566 115.289788,57.7166677 114.850863,57.7166677 C114.253016,57.7166677 113.851929,58.1026193 113.851929,58.624789 C113.851929,59.1393911 114.253016,59.5253427 114.850863,59.5253427 Z M119.005518,59.7448054 L118.559025,59.7448054 L117.015219,56.0896169 L117.454144,56.0896169 L118.786055,59.283177 L120.102831,56.0896169 L120.549324,56.0896169 L119.005518,59.7448054 Z M122.834763,59.8356175 C121.76772,59.8356175 121.010953,59.0410113 121.010953,57.9134273 C121.010953,56.8539524 121.752585,55.9988048 122.766654,55.9988048 C123.879103,55.9988048 124.492084,56.8766554 124.492084,57.9361303 L124.492084,58.0420778 L121.434743,58.0420778 C121.472581,58.836684 122.002318,59.495072 122.865034,59.495072 C123.326662,59.495072 123.750452,59.3210154 124.060727,58.9880376 L124.265054,59.2453386 C123.901806,59.6237225 123.440177,59.8356175 122.834763,59.8356175 Z M124.090998,57.731803 C124.08343,57.1112535 123.674775,56.3393503 122.759086,56.3393503 C121.896371,56.3393503 121.465013,57.0961181 121.434743,57.731803 L124.090998,57.731803 Z M129.032691,59.8356175 C127.958081,59.8356175 127.261855,58.9804699 127.261855,57.9134273 C127.261855,56.8463847 127.958081,55.9988048 129.032691,55.9988048 C129.668376,55.9988048 130.031625,56.2485382 130.326764,56.6193544 L130.054328,56.8615201 C129.789459,56.4982716 129.456481,56.3544857 129.055394,56.3544857 C128.200247,56.3544857 127.678077,57.0355767 127.678077,57.9134273 C127.678077,58.7912779 128.200247,59.4799366 129.055394,59.4799366 C129.456481,59.4799366 129.789459,59.3285831 130.054328,58.9653345 L130.326764,59.2075002 C130.031625,59.5858841 129.668376,59.8356175 129.032691,59.8356175 Z M132.748421,59.8356175 C131.681378,59.8356175 131.000287,58.9804699 131.000287,57.9134273 C131.000287,56.8463847 131.681378,55.9988048 132.748421,55.9988048 C133.830599,55.9988048 134.51169,56.8463847 134.51169,57.9134273 C134.51169,58.9804699 133.830599,59.8356175 132.748421,59.8356175 Z M132.748421,59.4799366 C133.611136,59.4799366 134.0879,58.7307365 134.0879,57.9134273 C134.0879,57.1036858 133.611136,56.3544857 132.748421,56.3544857 C131.900841,56.3544857 131.41651,57.1036858 131.41651,57.9134273 C131.41651,58.7307365 131.900841,59.4799366 132.748421,59.4799366 Z M136.615504,59.8356175 C136.025226,59.8356175 135.571165,59.6615609 135.207916,59.2529063 L135.442514,58.9653345 C135.677112,59.260474 136.10847,59.5026397 136.623072,59.5026397 C137.236054,59.5026397 137.599303,59.1847972 137.599303,58.7610072 C137.599303,57.7620738 135.291161,58.3296496 135.291161,57.0128736 C135.291161,56.4528655 135.767924,55.9988048 136.592801,55.9988048 C137.220919,55.9988048 137.637141,56.2409705 137.90201,56.5361099 L137.682547,56.816114 C137.470652,56.5285423 137.077133,56.3317826 136.592801,56.3317826 C136.025226,56.3317826 135.68468,56.6193544 135.68468,56.9977383 C135.68468,57.9134273 137.985254,57.3534191 137.985254,58.7610072 C137.985254,59.3512861 137.531193,59.8356175 136.615504,59.8356175 Z M139.793929,59.8356175 C139.309598,59.8356175 139.075,59.540478 139.075,59.0410113 L139.075,56.4377301 L138.469585,56.4377301 L138.469585,56.0896169 L139.075,56.0896169 L139.075,55.0906835 L139.476087,55.0906835 L139.476087,56.0896169 L140.217719,56.0896169 L140.217719,56.4377301 L139.476087,56.4377301 L139.476087,58.9804699 C139.476087,59.2756093 139.597169,59.4799366 139.85447,59.4799366 C140.028527,59.4799366 140.179881,59.3966922 140.263125,59.30588 L140.414479,59.6085871 C140.270693,59.7448054 140.096636,59.8356175 139.793929,59.8356175 Z M142.798297,61.1750965 L142.866406,60.8118479 C142.949651,60.8496863 143.093437,60.8723893 143.184249,60.8723893 C143.426414,60.8723893 143.592903,60.7740095 143.744257,60.4258964 L144.031829,59.7750761 L142.480455,56.0896169 L142.91938,56.0896169 L144.251291,59.283177 L145.568067,56.0896169 L146.01456,56.0896169 L144.122641,60.5469792 C143.925881,61.0086076 143.615606,61.2280702 143.191816,61.2280702 C143.063166,61.2280702 142.896677,61.2053672 142.798297,61.1750965 Z M148.224322,59.8356175 C147.15728,59.8356175 146.476189,58.9804699 146.476189,57.9134273 C146.476189,56.8463847 147.15728,55.9988048 148.224322,55.9988048 C149.3065,55.9988048 149.987591,56.8463847 149.987591,57.9134273 C149.987591,58.9804699 149.3065,59.8356175 148.224322,59.8356175 Z M148.224322,59.4799366 C149.087037,59.4799366 149.563801,58.7307365 149.563801,57.9134273 C149.563801,57.1036858 149.087037,56.3544857 148.224322,56.3544857 C147.376742,56.3544857 146.892411,57.1036858 146.892411,57.9134273 C146.892411,58.7307365 147.376742,59.4799366 148.224322,59.4799366 Z M153.862242,59.7448054 L153.468723,59.7448054 L153.468723,59.2075002 C153.173584,59.540478 152.681684,59.8356175 152.151947,59.8356175 C151.410315,59.8356175 151.00166,59.4875043 151.00166,58.6626274 L151.00166,56.0896169 L151.395179,56.0896169 L151.395179,58.5718153 C151.395179,59.283177 151.75086,59.4799366 152.280598,59.4799366 C152.749794,59.4799366 153.226557,59.1999325 153.468723,58.8745224 L153.468723,56.0896169 L153.862242,56.0896169 L153.862242,59.7448054 Z M20.6030029,69.6448054 L19.5737988,69.6448054 L18.4613501,67.7604536 L17.5759318,67.7604536 L17.5759318,69.6448054 L16.6905135,69.6448054 L16.6905135,64.5971642 L18.9078431,64.5971642 C19.9067766,64.5971642 20.5651646,65.2404168 20.5651646,66.1788089 C20.5651646,67.0717949 19.9748857,67.5636939 19.3619038,67.6620738 L20.6030029,69.6448054 Z M18.7943279,66.9809827 C19.2937947,66.9809827 19.6570432,66.6631403 19.6570432,66.1712412 C19.6570432,65.6869098 19.2937947,65.376635 18.7943279,65.376635 L17.5759318,65.376635 L17.5759318,66.9809827 L18.7943279,66.9809827 Z M24.94685,69.6448054 L21.2916616,69.6448054 L21.2916616,68.9410113 C23.2516902,67.4577465 24.0235933,66.8069262 24.0235933,66.0728614 C24.0235933,65.543124 23.561965,65.3085259 23.1003366,65.3085259 C22.5100578,65.3085259 22.0635648,65.543124 21.7381546,65.9063725 L21.2235525,65.331229 C21.6700455,64.7863562 22.3814072,64.5214874 23.092769,64.5214874 C24.0689994,64.5214874 24.9165793,65.0663603 24.9165793,66.0728614 C24.9165793,67.0112535 24.0614317,67.843698 22.7143851,68.8653345 L24.94685,68.8653345 L24.94685,69.6448054 Z M26.9144463,69.3572336 C26.9144463,69.8794034 26.6268745,70.3561671 26.2106522,70.6513065 L25.8474037,70.3561671 C26.0895694,70.2123812 26.3468704,69.9021064 26.3922765,69.6448054 C26.3771411,69.652373 26.3165997,69.6675084 26.263626,69.6675084 C26.0138926,69.6675084 25.817133,69.4631811 25.817133,69.183177 C25.817133,68.9031729 26.0441633,68.6685749 26.3317351,68.6685749 C26.6420099,68.6685749 26.9144463,68.9183083 26.9144463,69.3572336 Z M29.5707012,69.7356175 C28.7079859,69.7356175 28.1101394,69.4329104 27.7014848,68.9561467 L28.2085192,68.3431648 C28.541497,68.736684 29.0031254,68.948579 29.5631335,68.948579 C30.2063861,68.948579 30.5999054,68.5550597 30.5999054,68.055593 C30.5999054,67.5182879 30.2063861,67.162607 29.5858366,67.162607 C29.1620466,67.162607 28.8063657,67.2912575 28.4809556,67.5939647 L27.8528383,67.4123404 L27.8528383,64.5971642 L31.1599135,64.5971642 L31.1599135,65.376635 L28.7382566,65.376635 L28.7382566,66.8296292 C28.98799,66.5950312 29.3966446,66.3982716 29.880976,66.3982716 C30.7361236,66.3982716 31.500459,66.9885504 31.500459,68.0253223 C31.500459,69.0696618 30.6982852,69.7356175 29.5707012,69.7356175 Z M34.1491463,69.7356175 C32.7264229,69.7356175 32.1285763,68.3885708 32.1285763,67.1247686 C32.1285763,65.8533987 32.7264229,64.5214874 34.1491463,64.5214874 C35.5643021,64.5214874 36.1621486,65.8533987 36.1621486,67.1247686 C36.1621486,68.3885708 35.5643021,69.7356175 34.1491463,69.7356175 Z M34.1491463,68.948579 C34.9664555,68.948579 35.2615949,68.0858637 35.2615949,67.1247686 C35.2615949,66.1561059 34.9740232,65.3085259 34.1491463,65.3085259 C33.3242694,65.3085259 33.02913,66.1561059 33.02913,67.1247686 C33.02913,68.0858637 33.3242694,68.948579 34.1491463,68.948579 Z M38.8184035,69.7356175 C37.3956801,69.7356175 36.7978335,68.3885708 36.7978335,67.1247686 C36.7978335,65.8533987 37.3956801,64.5214874 38.8184035,64.5214874 C40.2335593,64.5214874 40.8314058,65.8533987 40.8314058,67.1247686 C40.8314058,68.3885708 40.2335593,69.7356175 38.8184035,69.7356175 Z M38.8184035,68.948579 C39.6357127,68.948579 39.9308522,68.0858637 39.9308522,67.1247686 C39.9308522,66.1561059 39.6432804,65.3085259 38.8184035,65.3085259 C37.9935266,65.3085259 37.6983872,66.1561059 37.6983872,67.1247686 C37.6983872,68.0858637 37.9935266,68.948579 38.8184035,68.948579 Z M43.9190184,65.4144734 C43.7600972,65.4144734 43.6163113,65.2782552 43.6163113,65.1117663 C43.6163113,64.9452774 43.7600972,64.8166269 43.9190184,64.8166269 C44.0855073,64.8166269 44.2217255,64.9452774 44.2217255,65.1117663 C44.2217255,65.2782552 44.0855073,65.4144734 43.9190184,65.4144734 Z M44.115778,69.6448054 L43.7222588,69.6448054 L43.7222588,65.9896169 L44.115778,65.9896169 L44.115778,69.6448054 Z M48.2023241,69.6448054 L47.8088048,69.6448054 L47.8088048,67.1701747 C47.8088048,66.4663807 47.453124,66.2544857 46.9233865,66.2544857 C46.4541905,66.2544857 45.9698591,66.5496251 45.7352611,66.8826029 L45.7352611,69.6448054 L45.3417418,69.6448054 L45.3417418,65.9896169 L45.7352611,65.9896169 L45.7352611,66.5420574 C46.0001298,66.224215 46.5222996,65.8988048 47.052037,65.8988048 C47.7936695,65.8988048 48.2023241,66.2620534 48.2023241,67.0869302 L48.2023241,69.6448054 Z M52.1829226,69.7356175 C51.6985912,69.7356175 51.4639932,69.440478 51.4639932,68.9410113 L51.4639932,66.3377301 L50.858579,66.3377301 L50.858579,65.9896169 L51.4639932,65.9896169 L51.4639932,64.9906835 L51.8650801,64.9906835 L51.8650801,65.9896169 L52.6067126,65.9896169 L52.6067126,66.3377301 L51.8650801,66.3377301 L51.8650801,68.8804699 C51.8650801,69.1756093 51.986163,69.3799366 52.243464,69.3799366 C52.4175206,69.3799366 52.5688742,69.2966922 52.6521186,69.20588 L52.8034722,69.5085871 C52.6596863,69.6448054 52.4856297,69.7356175 52.1829226,69.7356175 Z M56.3300101,69.6448054 L55.9364908,69.6448054 L55.9364908,67.1550393 C55.9364908,66.4512453 55.58081,66.2544857 55.0510725,66.2544857 C54.5818765,66.2544857 54.0975451,66.5496251 53.8629471,66.8826029 L53.8629471,69.6448054 L53.4694278,69.6448054 L53.4694278,64.5971642 L53.8629471,64.5971642 L53.8629471,66.5420574 C54.1278158,66.224215 54.6499856,65.8988048 55.179723,65.8988048 C55.9213555,65.8988048 56.3300101,66.246918 56.3300101,67.0717949 L56.3300101,69.6448054 Z M59.1754569,69.7356175 C58.1084144,69.7356175 57.3516466,68.9410113 57.3516466,67.8134273 C57.3516466,66.7539524 58.093279,65.8988048 59.1073478,65.8988048 C60.2197965,65.8988048 60.8327784,66.7766554 60.8327784,67.8361303 L60.8327784,67.9420778 L57.7754365,67.9420778 C57.8132749,68.736684 58.3430124,69.395072 59.2057277,69.395072 C59.667356,69.395072 60.091146,69.2210154 60.4014208,68.8880376 L60.6057481,69.1453386 C60.2424995,69.5237225 59.7808712,69.7356175 59.1754569,69.7356175 Z M60.4316915,67.631803 C60.4241238,67.0112535 60.0154692,66.2393503 59.0997802,66.2393503 C58.2370649,66.2393503 57.8057073,66.9961181 57.7754365,67.631803 L60.4316915,67.631803 Z M64.200395,69.6448054 L63.8068758,69.6448054 L63.8068758,64.5971642 L64.200395,64.5971642 L64.200395,69.6448054 Z M68.1431552,69.6448054 L67.7496359,69.6448054 L67.7496359,69.2134477 C67.4242258,69.5691286 67.0155712,69.7356175 66.5085368,69.7356175 C65.8804195,69.7356175 65.2295992,69.3042598 65.2295992,68.5172214 C65.2295992,67.7226152 65.8728518,67.3063929 66.5085368,67.3063929 C67.0155712,67.3063929 67.4317935,67.4728818 67.7496359,67.8285627 L67.7496359,67.0869302 C67.7496359,66.5420574 67.3107106,66.246918 66.7734055,66.246918 C66.3117772,66.246918 65.9560963,66.4058392 65.6231185,66.7842231 L65.4036558,66.5117867 C65.7820397,66.1031321 66.2058297,65.8988048 66.8112439,65.8988048 C67.5528763,65.8988048 68.1431552,66.2544857 68.1431552,67.0717949 L68.1431552,69.6448054 Z M66.644755,69.4253427 C67.0836803,69.4253427 67.4923349,69.2588538 67.7496359,68.925876 L67.7496359,68.1237021 C67.4923349,67.7831566 67.0836803,67.6166677 66.644755,67.6166677 C66.0469084,67.6166677 65.6458215,68.0026193 65.6458215,68.524789 C65.6458215,69.0393911 66.0469084,69.4253427 66.644755,69.4253427 Z M70.4588646,69.7356175 C69.8685857,69.7356175 69.4145251,69.5615609 69.0512765,69.1529063 L69.2858746,68.8653345 C69.5204726,69.160474 69.9518302,69.4026397 70.4664323,69.4026397 C71.0794142,69.4026397 71.4426627,69.0847972 71.4426627,68.6610072 C71.4426627,67.6620738 69.134521,68.2296496 69.134521,66.9128736 C69.134521,66.3528655 69.6112847,65.8988048 70.4361616,65.8988048 C71.0642788,65.8988048 71.4805011,66.1409705 71.7453699,66.4361099 L71.5259072,66.716114 C71.3140122,66.4285423 70.920493,66.2317826 70.4361616,66.2317826 C69.8685857,66.2317826 69.5280402,66.5193544 69.5280402,66.8977383 C69.5280402,67.8134273 71.8286143,67.2534191 71.8286143,68.6610072 C71.8286143,69.2512861 71.3745536,69.7356175 70.4588646,69.7356175 Z M73.6372893,69.7356175 C73.1529579,69.7356175 72.9183599,69.440478 72.9183599,68.9410113 L72.9183599,66.3377301 L72.3129457,66.3377301 L72.3129457,65.9896169 L72.9183599,65.9896169 L72.9183599,64.9906835 L73.3194468,64.9906835 L73.3194468,65.9896169 L74.0610793,65.9896169 L74.0610793,66.3377301 L73.3194468,66.3377301 L73.3194468,68.8804699 C73.3194468,69.1756093 73.4405297,69.3799366 73.6978307,69.3799366 C73.8718873,69.3799366 74.0232409,69.2966922 74.1064853,69.20588 L74.2578389,69.5085871 C74.114053,69.6448054 73.9399964,69.7356175 73.6372893,69.7356175 Z M78.5638476,69.7356175 C77.2016656,69.7356175 76.7097665,68.479383 76.7097665,67.1247686 C76.7097665,65.8306957 77.2546393,64.5214874 78.6395244,64.5214874 C79.2979123,64.5214874 79.6989993,64.7863562 80.0017064,65.1647401 L79.751973,65.4750149 C79.5022396,65.1496047 79.1919649,64.9150067 78.6395244,64.9150067 C77.5497788,64.9150067 77.1486918,66.057726 77.1486918,67.1323363 C77.1486918,67.2080131 77.1486918,67.2912575 77.1562595,67.3669343 C77.3681545,67.0188211 77.9508657,66.5269221 78.6319567,66.5269221 C79.540078,66.5269221 80.2590074,67.0490918 80.2590074,68.1237021 C80.2590074,68.948579 79.6460255,69.7356175 78.5638476,69.7356175 Z M78.5487122,69.3420982 C79.4114275,69.3420982 79.8200821,68.6761426 79.8200821,68.1312698 C79.8200821,67.3063929 79.282777,66.9128736 78.5562799,66.9128736 C78.0038394,66.9128736 77.4665343,67.2685545 77.1789625,67.7755889 C77.239504,68.4642476 77.6027525,69.3420982 78.5487122,69.3420982 Z M88.0083096,69.6448054 L87.6147903,69.6448054 L87.6147903,67.0869302 C87.6147903,66.5723281 87.3953276,66.2544857 86.8807256,66.2544857 C86.4872063,66.2544857 86.0407133,66.5420574 85.836386,66.8750353 L85.836386,69.6448054 L85.4352991,69.6448054 L85.4352991,67.0869302 C85.4352991,66.5723281 85.2234041,66.2544857 84.708802,66.2544857 C84.3152828,66.2544857 83.8763574,66.5496251 83.6568948,66.8826029 L83.6568948,69.6448054 L83.2633755,69.6448054 L83.2633755,65.9896169 L83.6568948,65.9896169 L83.6568948,66.5420574 C83.8082483,66.3074594 84.3077151,65.8988048 84.8374525,65.8988048 C85.4050284,65.8988048 85.7077355,66.2317826 85.7985476,66.5874635 C86.0028749,66.246918 86.494774,65.8988048 87.0093761,65.8988048 C87.6828994,65.8988048 88.0083096,66.2771887 88.0083096,67.0112535 L88.0083096,69.6448054 Z M90.7780796,69.7356175 C89.7110371,69.7356175 89.0299461,68.8804699 89.0299461,67.8134273 C89.0299461,66.7463847 89.7110371,65.8988048 90.7780796,65.8988048 C91.8602576,65.8988048 92.5413486,66.7463847 92.5413486,67.8134273 C92.5413486,68.8804699 91.8602576,69.7356175 90.7780796,69.7356175 Z M90.7780796,69.3799366 C91.6407949,69.3799366 92.1175586,68.6307365 92.1175586,67.8134273 C92.1175586,67.0036858 91.6407949,66.2544857 90.7780796,66.2544857 C89.9304997,66.2544857 89.4461683,67.0036858 89.4461683,67.8134273 C89.4461683,68.6307365 89.9304997,69.3799366 90.7780796,69.3799366 Z M96.4159996,69.6448054 L96.0224804,69.6448054 L96.0224804,67.1701747 C96.0224804,66.4663807 95.6667995,66.2544857 95.1370621,66.2544857 C94.6678661,66.2544857 94.1835347,66.5496251 93.9489367,66.8826029 L93.9489367,69.6448054 L93.5554174,69.6448054 L93.5554174,65.9896169 L93.9489367,65.9896169 L93.9489367,66.5420574 C94.2138054,66.224215 94.7359752,65.8988048 95.2657126,65.8988048 C96.007345,65.8988048 96.4159996,66.2620534 96.4159996,67.0869302 L96.4159996,69.6448054 Z M98.4365696,69.7356175 C97.9522382,69.7356175 97.7176402,69.440478 97.7176402,68.9410113 L97.7176402,66.3377301 L97.112226,66.3377301 L97.112226,65.9896169 L97.7176402,65.9896169 L97.7176402,64.9906835 L98.1187272,64.9906835 L98.1187272,65.9896169 L98.8603596,65.9896169 L98.8603596,66.3377301 L98.1187272,66.3377301 L98.1187272,68.8804699 C98.1187272,69.1756093 98.23981,69.3799366 98.4971111,69.3799366 C98.6711676,69.3799366 98.8225212,69.2966922 98.9057657,69.20588 L99.0571192,69.5085871 C98.9133333,69.6448054 98.7392767,69.7356175 98.4365696,69.7356175 Z M102.583657,69.6448054 L102.190138,69.6448054 L102.190138,67.1550393 C102.190138,66.4512453 101.834457,66.2544857 101.30472,66.2544857 C100.835524,66.2544857 100.351192,66.5496251 100.116594,66.8826029 L100.116594,69.6448054 L99.7230749,69.6448054 L99.7230749,64.5971642 L100.116594,64.5971642 L100.116594,66.5420574 C100.381463,66.224215 100.903633,65.8988048 101.43337,65.8988048 C102.175002,65.8988048 102.583657,66.246918 102.583657,67.0717949 L102.583657,69.6448054 Z M104.899367,69.7356175 C104.309088,69.7356175 103.855027,69.5615609 103.491778,69.1529063 L103.726376,68.8653345 C103.960974,69.160474 104.392332,69.4026397 104.906934,69.4026397 C105.519916,69.4026397 105.883165,69.0847972 105.883165,68.6610072 C105.883165,67.6620738 103.575023,68.2296496 103.575023,66.9128736 C103.575023,66.3528655 104.051787,65.8988048 104.876663,65.8988048 C105.504781,65.8988048 105.921003,66.1409705 106.185872,66.4361099 L105.966409,66.716114 C105.754514,66.4285423 105.360995,66.2317826 104.876663,66.2317826 C104.309088,66.2317826 103.968542,66.5193544 103.968542,66.8977383 C103.968542,67.8134273 106.269116,67.2534191 106.269116,68.6610072 C106.269116,69.2512861 105.815056,69.7356175 104.899367,69.7356175 Z M107.502648,69.7129145 C107.321023,69.7129145 107.162102,69.5615609 107.162102,69.3799366 C107.162102,69.20588 107.321023,69.0545265 107.502648,69.0545265 C107.684272,69.0545265 107.835626,69.20588 107.835626,69.3799366 C107.835626,69.5615609 107.684272,69.7129145 107.502648,69.7129145 Z M112.641101,69.6448054 L112.202176,69.6448054 L112.202176,64.9906835 L110.552422,64.9906835 L110.552422,64.5971642 L114.290855,64.5971642 L114.290855,64.9906835 L112.641101,64.9906835 L112.641101,69.6448054 Z M118.029288,69.6448054 L117.635768,69.6448054 L117.635768,67.1550393 C117.635768,66.4512453 117.280087,66.2544857 116.75035,66.2544857 C116.281154,66.2544857 115.796823,66.5496251 115.562225,66.8826029 L115.562225,69.6448054 L115.168705,69.6448054 L115.168705,64.5971642 L115.562225,64.5971642 L115.562225,66.5420574 C115.827093,66.224215 116.349263,65.8988048 116.879001,65.8988048 C117.620633,65.8988048 118.029288,66.246918 118.029288,67.0717949 L118.029288,69.6448054 Z M121.972048,69.6448054 L121.578528,69.6448054 L121.578528,69.2134477 C121.253118,69.5691286 120.844464,69.7356175 120.337429,69.7356175 C119.709312,69.7356175 119.058492,69.3042598 119.058492,68.5172214 C119.058492,67.7226152 119.701744,67.3063929 120.337429,67.3063929 C120.844464,67.3063929 121.260686,67.4728818 121.578528,67.8285627 L121.578528,67.0869302 C121.578528,66.5420574 121.139603,66.246918 120.602298,66.246918 C120.14067,66.246918 119.784989,66.4058392 119.452011,66.7842231 L119.232548,66.5117867 C119.610932,66.1031321 120.034722,65.8988048 120.640136,65.8988048 C121.381769,65.8988048 121.972048,66.2544857 121.972048,67.0717949 L121.972048,69.6448054 Z M120.473648,69.4253427 C120.912573,69.4253427 121.321227,69.2588538 121.578528,68.925876 L121.578528,68.1237021 C121.321227,67.7831566 120.912573,67.6166677 120.473648,67.6166677 C119.875801,67.6166677 119.474714,68.0026193 119.474714,68.524789 C119.474714,69.0393911 119.875801,69.4253427 120.473648,69.4253427 Z M123.992618,69.7356175 C123.508286,69.7356175 123.273688,69.440478 123.273688,68.9410113 L123.273688,66.3377301 L122.668274,66.3377301 L122.668274,65.9896169 L123.273688,65.9896169 L123.273688,64.9906835 L123.674775,64.9906835 L123.674775,65.9896169 L124.416408,65.9896169 L124.416408,66.3377301 L123.674775,66.3377301 L123.674775,68.8804699 C123.674775,69.1756093 123.795858,69.3799366 124.053159,69.3799366 C124.227216,69.3799366 124.378569,69.2966922 124.461814,69.20588 L124.613167,69.5085871 C124.469381,69.6448054 124.295325,69.7356175 123.992618,69.7356175 Z M125.491018,66.4134069 L125.263988,66.4134069 C125.263988,66.4134069 125.105066,64.8923037 125.105066,64.7939238 C125.105066,64.6425703 125.218582,64.5214874 125.377503,64.5214874 C125.528856,64.5214874 125.649939,64.6425703 125.649939,64.7939238 C125.649939,64.8923037 125.491018,66.4134069 125.491018,66.4134069 Z M127.556994,69.7356175 C126.966715,69.7356175 126.512654,69.5615609 126.149406,69.1529063 L126.384004,68.8653345 C126.618602,69.160474 127.04996,69.4026397 127.564562,69.4026397 C128.177544,69.4026397 128.540792,69.0847972 128.540792,68.6610072 C128.540792,67.6620738 126.23265,68.2296496 126.23265,66.9128736 C126.23265,66.3528655 126.709414,65.8988048 127.534291,65.8988048 C128.162408,65.8988048 128.578631,66.1409705 128.843499,66.4361099 L128.624037,66.716114 C128.412142,66.4285423 128.018622,66.2317826 127.534291,66.2317826 C126.966715,66.2317826 126.62617,66.5193544 126.62617,66.8977383 C126.62617,67.8134273 128.926744,67.2534191 128.926744,68.6610072 C128.926744,69.2512861 128.472683,69.7356175 127.556994,69.7356175 Z M134.791694,69.6448054 L133.906276,69.6448054 L133.906276,68.502086 L131.499754,68.502086 L131.499754,67.7907243 L133.573298,64.5971642 L134.791694,64.5971642 L134.791694,67.7226152 L135.465217,67.7226152 L135.465217,68.502086 L134.791694,68.502086 L134.791694,69.6448054 Z M133.906276,67.7226152 L133.906276,65.3917704 L132.370037,67.7226152 L133.906276,67.7226152 Z M139.710685,69.6448054 L136.055496,69.6448054 L136.055496,68.9410113 C138.015525,67.4577465 138.787428,66.8069262 138.787428,66.0728614 C138.787428,65.543124 138.3258,65.3085259 137.864171,65.3085259 C137.273892,65.3085259 136.827399,65.543124 136.501989,65.9063725 L135.987387,65.331229 C136.43388,64.7863562 137.145242,64.5214874 137.856604,64.5214874 C138.832834,64.5214874 139.680414,65.0663603 139.680414,66.0728614 C139.680414,67.0112535 138.825266,67.843698 137.47822,68.8653345 L139.710685,68.8653345 L139.710685,69.6448054 Z M141.64801,67.0263888 C140.89881,67.0263888 140.391776,66.481516 140.391776,65.777722 C140.391776,65.0663603 140.89881,64.5214874 141.64801,64.5214874 C142.404778,64.5214874 142.904245,65.0663603 142.904245,65.777722 C142.904245,66.481516 142.404778,67.0263888 141.64801,67.0263888 Z M141.663146,69.6448054 L141.156111,69.6448054 L144.379942,64.5971642 L144.894544,64.5971642 L141.663146,69.6448054 Z M144.364806,69.7356175 C143.615606,69.7356175 143.108572,69.1907447 143.108572,68.4869506 C143.108572,67.7755889 143.615606,67.2307161 144.364806,67.2307161 C145.114007,67.2307161 145.621041,67.7755889 145.621041,68.4869506 C145.621041,69.1907447 145.114007,69.7356175 144.364806,69.7356175 Z M141.64801,66.5193544 C142.041529,66.5193544 142.321533,66.2166473 142.321533,65.777722 C142.321533,65.331229 142.041529,65.0209542 141.64801,65.0209542 C141.262059,65.0209542 140.982054,65.331229 140.982054,65.777722 C140.982054,66.2166473 141.262059,66.5193544 141.64801,66.5193544 Z M144.364806,69.2285831 C144.758326,69.2285831 145.03833,68.925876 145.03833,68.4869506 C145.03833,68.0404576 144.758326,67.7301829 144.364806,67.7301829 C143.971287,67.7301829 143.691283,68.0404576 143.691283,68.4869506 C143.691283,68.925876 143.971287,69.2285831 144.364806,69.2285831 Z M149.949753,69.7356175 C148.88271,69.7356175 148.201619,68.8804699 148.201619,67.8134273 C148.201619,66.7463847 148.88271,65.8988048 149.949753,65.8988048 C151.031931,65.8988048 151.713022,66.7463847 151.713022,67.8134273 C151.713022,68.8804699 151.031931,69.7356175 149.949753,69.7356175 Z M149.949753,69.3799366 C150.812468,69.3799366 151.289232,68.6307365 151.289232,67.8134273 C151.289232,67.0036858 150.812468,66.2544857 149.949753,66.2544857 C149.102173,66.2544857 148.617841,67.0036858 148.617841,67.8134273 C148.617841,68.6307365 149.102173,69.3799366 149.949753,69.3799366 Z M153.256828,69.6448054 L152.855741,69.6448054 L152.855741,66.3377301 L152.250327,66.3377301 L152.250327,65.9896169 L152.855741,65.9896169 L152.855741,65.6566391 C152.855741,64.9452774 153.234125,64.5214874 153.847107,64.5214874 C154.104408,64.5214874 154.308735,64.5744612 154.543333,64.7787885 L154.354141,65.0663603 C154.233058,64.9528451 154.081705,64.8771683 153.884945,64.8771683 C153.468723,64.8771683 153.256828,65.1647401 153.256828,65.6566391 L153.256828,65.9896169 L153.99846,65.9896169 L153.99846,66.3377301 L153.256828,66.3377301 L153.256828,69.6448054 Z M33.5172452,79.5448054 L33.1388613,79.5448054 L32.1172248,76.4193544 L31.0880206,79.5448054 L30.7096367,79.5448054 L29.5215113,75.8896169 L29.9453013,75.8896169 L30.913964,78.9923649 L31.9431682,75.8896169 L32.2837137,75.8896169 L33.3129179,78.9923649 L34.2815807,75.8896169 L34.7053706,75.8896169 L33.5172452,79.5448054 Z M38.3075853,79.5448054 L37.914066,79.5448054 L37.914066,77.0550393 C37.914066,76.3512453 37.5583852,76.1544857 37.0286477,76.1544857 C36.5594517,76.1544857 36.0751203,76.4496251 35.8405223,76.7826029 L35.8405223,79.5448054 L35.447003,79.5448054 L35.447003,74.4971642 L35.8405223,74.4971642 L35.8405223,76.4420574 C36.105391,76.124215 36.6275608,75.7988048 37.1572982,75.7988048 C37.8989307,75.7988048 38.3075853,76.146918 38.3075853,76.9717949 L38.3075853,79.5448054 Z M42.2503454,79.5448054 L41.8568262,79.5448054 L41.8568262,79.1134477 C41.531416,79.4691286 41.1227614,79.6356175 40.615727,79.6356175 C39.9876098,79.6356175 39.3367895,79.2042598 39.3367895,78.4172214 C39.3367895,77.6226152 39.9800421,77.2063929 40.615727,77.2063929 C41.1227614,77.2063929 41.5389837,77.3728818 41.8568262,77.7285627 L41.8568262,76.9869302 C41.8568262,76.4420574 41.4179009,76.146918 40.8805957,76.146918 C40.4189674,76.146918 40.0632865,76.3058392 39.7303087,76.6842231 L39.5108461,76.4117867 C39.8892299,76.0031321 40.3130199,75.7988048 40.9184341,75.7988048 C41.6600666,75.7988048 42.2503454,76.1544857 42.2503454,76.9717949 L42.2503454,79.5448054 Z M40.7519452,79.3253427 C41.1908705,79.3253427 41.5995251,79.1588538 41.8568262,78.825876 L41.8568262,78.0237021 C41.5995251,77.6831566 41.1908705,77.5166677 40.7519452,77.5166677 C40.1540987,77.5166677 39.7530117,77.9026193 39.7530117,78.424789 C39.7530117,78.9393911 40.1540987,79.3253427 40.7519452,79.3253427 Z M44.2709154,79.6356175 C43.786584,79.6356175 43.551986,79.340478 43.551986,78.8410113 L43.551986,76.2377301 L42.9465718,76.2377301 L42.9465718,75.8896169 L43.551986,75.8896169 L43.551986,74.8906835 L43.953073,74.8906835 L43.953073,75.8896169 L44.6947054,75.8896169 L44.6947054,76.2377301 L43.953073,76.2377301 L43.953073,78.7804699 C43.953073,79.0756093 44.0741558,79.2799366 44.3314568,79.2799366 C44.5055134,79.2799366 44.656867,79.1966922 44.7401114,79.10588 L44.891465,79.4085871 C44.7476791,79.5448054 44.5736225,79.6356175 44.2709154,79.6356175 Z M47.2752835,80.9750965 L47.3433926,80.6118479 C47.4266371,80.6496863 47.570423,80.6723893 47.6612351,80.6723893 C47.9034008,80.6723893 48.0698897,80.5740095 48.2212433,80.2258964 L48.508815,79.5750761 L46.9574411,75.8896169 L47.3963664,75.8896169 L48.7282777,79.083177 L50.0450536,75.8896169 L50.4915466,75.8896169 L48.5996272,80.3469792 C48.4028675,80.8086076 48.0925927,81.0280702 47.6688028,81.0280702 C47.5401523,81.0280702 47.3736633,81.0053672 47.2752835,80.9750965 Z M52.7013085,79.6356175 C51.634266,79.6356175 50.953175,78.7804699 50.953175,77.7134273 C50.953175,76.6463847 51.634266,75.7988048 52.7013085,75.7988048 C53.7834865,75.7988048 54.4645775,76.6463847 54.4645775,77.7134273 C54.4645775,78.7804699 53.7834865,79.6356175 52.7013085,79.6356175 Z M52.7013085,79.2799366 C53.5640238,79.2799366 54.0407875,78.5307365 54.0407875,77.7134273 C54.0407875,76.9036858 53.5640238,76.1544857 52.7013085,76.1544857 C51.8537286,76.1544857 51.3693972,76.9036858 51.3693972,77.7134273 C51.3693972,78.5307365 51.8537286,79.2799366 52.7013085,79.2799366 Z M58.3392285,79.5448054 L57.9457093,79.5448054 L57.9457093,79.0075002 C57.6505699,79.340478 57.1586708,79.6356175 56.6289333,79.6356175 C55.8873009,79.6356175 55.4786463,79.2875043 55.4786463,78.4626274 L55.4786463,75.8896169 L55.8721656,75.8896169 L55.8721656,78.3718153 C55.8721656,79.083177 56.2278464,79.2799366 56.7575839,79.2799366 C57.2267799,79.2799366 57.7035436,78.9999325 57.9457093,78.6745224 L57.9457093,75.8896169 L58.3392285,75.8896169 L58.3392285,79.5448054 Z M62.6149665,79.6356175 C62.0246877,79.6356175 61.570627,79.4615609 61.2073784,79.0529063 L61.4419765,78.7653345 C61.6765745,79.060474 62.1079321,79.3026397 62.6225342,79.3026397 C63.2355161,79.3026397 63.5987646,78.9847972 63.5987646,78.5610072 C63.5987646,77.5620738 61.2906229,78.1296496 61.2906229,76.8128736 C61.2906229,76.2528655 61.7673866,75.7988048 62.5922635,75.7988048 C63.2203808,75.7988048 63.636603,76.0409705 63.9014718,76.3361099 L63.6820091,76.616114 C63.4701141,76.3285423 63.0765949,76.1317826 62.5922635,76.1317826 C62.0246877,76.1317826 61.6841422,76.4193544 61.6841422,76.7977383 C61.6841422,77.7134273 63.9847162,77.1534191 63.9847162,78.5610072 C63.9847162,79.1512861 63.5306555,79.6356175 62.6149665,79.6356175 Z M66.6636742,79.6356175 C66.1490721,79.6356175 65.6874437,79.3707488 65.3923043,78.9545265 L65.3923043,80.9372581 L64.9987851,80.9372581 L64.9987851,75.8896169 L65.3923043,75.8896169 L65.3923043,76.4647605 C65.6496053,76.0939443 66.1188014,75.7988048 66.6636742,75.7988048 C67.6399046,75.7988048 68.2982926,76.5404372 68.2982926,77.7134273 C68.2982926,78.8788497 67.6399046,79.6356175 66.6636742,79.6356175 Z M66.5955651,79.2799366 C67.4128743,79.2799366 67.8745026,78.5988456 67.8745026,77.7134273 C67.8745026,76.828009 67.4128743,76.1544857 66.5955651,76.1544857 C66.0885307,76.1544857 65.6041993,76.4571928 65.3923043,76.805306 L65.3923043,78.613981 C65.6041993,78.9620942 66.0885307,79.2799366 66.5955651,79.2799366 Z M70.9091415,79.6356175 C69.8420989,79.6356175 69.0853311,78.8410113 69.0853311,77.7134273 C69.0853311,76.6539524 69.8269635,75.7988048 70.8410324,75.7988048 C71.953481,75.7988048 72.5664629,76.6766554 72.5664629,77.7361303 L72.5664629,77.8420778 L69.509121,77.8420778 C69.5469594,78.636684 70.0766969,79.295072 70.9394122,79.295072 C71.4010405,79.295072 71.8248305,79.1210154 72.1351053,78.7880376 L72.3394326,79.0453386 C71.976184,79.4237225 71.5145557,79.6356175 70.9091415,79.6356175 Z M72.165376,77.531803 C72.1578083,76.9112535 71.7491537,76.1393503 70.8334647,76.1393503 C69.9707494,76.1393503 69.5393918,76.8961181 69.509121,77.531803 L72.165376,77.531803 Z M76.441114,79.5448054 L76.0475947,79.5448054 L76.0475947,77.0701747 C76.0475947,76.3663807 75.6919139,76.1544857 75.1621764,76.1544857 C74.6929804,76.1544857 74.208649,76.4496251 73.974051,76.7826029 L73.974051,79.5448054 L73.5805317,79.5448054 L73.5805317,75.8896169 L73.974051,75.8896169 L73.974051,76.4420574 C74.2389197,76.124215 74.7610895,75.7988048 75.2908269,75.7988048 C76.0324594,75.7988048 76.441114,76.1620534 76.441114,76.9869302 L76.441114,79.5448054 Z M78.4616839,79.6356175 C77.9773526,79.6356175 77.7427545,79.340478 77.7427545,78.8410113 L77.7427545,76.2377301 L77.1373403,76.2377301 L77.1373403,75.8896169 L77.7427545,75.8896169 L77.7427545,74.8906835 L78.1438415,74.8906835 L78.1438415,75.8896169 L78.8854739,75.8896169 L78.8854739,76.2377301 L78.1438415,76.2377301 L78.1438415,78.7804699 C78.1438415,79.0756093 78.2649243,79.2799366 78.5222254,79.2799366 C78.696282,79.2799366 78.8476355,79.1966922 78.93088,79.10588 L79.0822335,79.4085871 C78.9384476,79.5448054 78.7643911,79.6356175 78.4616839,79.6356175 Z M83.252024,79.6356175 C82.1849814,79.6356175 81.5038904,78.7804699 81.5038904,77.7134273 C81.5038904,76.6463847 82.1849814,75.7988048 83.252024,75.7988048 C84.334202,75.7988048 85.015293,76.6463847 85.015293,77.7134273 C85.015293,78.7804699 84.334202,79.6356175 83.252024,79.6356175 Z M83.252024,79.2799366 C84.1147393,79.2799366 84.591503,78.5307365 84.591503,77.7134273 C84.591503,76.9036858 84.1147393,76.1544857 83.252024,76.1544857 C82.4044441,76.1544857 81.9201127,76.9036858 81.9201127,77.7134273 C81.9201127,78.5307365 82.4044441,79.2799366 83.252024,79.2799366 Z M88.889944,79.5448054 L88.4964248,79.5448054 L88.4964248,77.0701747 C88.4964248,76.3663807 88.1407439,76.1544857 87.6110065,76.1544857 C87.1418104,76.1544857 86.6574791,76.4496251 86.422881,76.7826029 L86.422881,79.5448054 L86.0293618,79.5448054 L86.0293618,75.8896169 L86.422881,75.8896169 L86.422881,76.4420574 C86.6877498,76.124215 87.2099195,75.7988048 87.739657,75.7988048 C88.4812894,75.7988048 88.889944,76.1620534 88.889944,76.9869302 L88.889944,79.5448054 Z M95.4586884,79.5448054 L92.0002596,79.5448054 L92.0002596,74.4971642 L95.4586884,74.4971642 L95.4586884,75.276635 L92.8856779,75.276635 L92.8856779,76.5782756 L95.4057146,76.5782756 L95.4057146,77.3577465 L92.8856779,77.3577465 L92.8856779,78.7653345 L95.4586884,78.7653345 L95.4586884,79.5448054 Z M99.6133435,79.5448054 L98.8187374,79.5448054 L98.8187374,77.2593666 C98.8187374,76.6842231 98.5235979,76.5025989 98.0771049,76.5025989 C97.676018,76.5025989 97.3279048,76.7447645 97.1387129,76.9869302 L97.1387129,79.5448054 L96.3441067,79.5448054 L96.3441067,75.8896169 L97.1387129,75.8896169 L97.1387129,76.381516 C97.3808786,76.0939443 97.8576423,75.7988048 98.4327858,75.7988048 C99.2198243,75.7988048 99.6133435,76.2225948 99.6133435,76.9717949 L99.6133435,79.5448054 Z M101.747429,79.6356175 C101.126879,79.6356175 100.809037,79.3026397 100.809037,78.6896578 L100.809037,76.5782756 L100.203622,76.5782756 L100.203622,75.8896169 L100.809037,75.8896169 L100.809037,74.8906835 L101.603643,74.8906835 L101.603643,75.8896169 L102.345275,75.8896169 L102.345275,76.5782756 L101.603643,76.5782756 L101.603643,78.4928981 C101.603643,78.7426315 101.724726,78.9318234 101.951756,78.9318234 C102.10311,78.9318234 102.239328,78.8637143 102.299869,78.7956052 L102.489061,79.4010195 C102.345275,79.52967 102.110677,79.6356175 101.747429,79.6356175 Z M104.751797,79.6356175 C103.646916,79.6356175 102.837174,78.871282 102.837174,77.7134273 C102.837174,76.6539524 103.609077,75.7988048 104.691255,75.7988048 C105.788569,75.7988048 106.484795,76.6312494 106.484795,77.7815364 L106.484795,77.978296 L103.669619,77.978296 C103.73016,78.5231688 104.138815,78.9847972 104.827474,78.9847972 C105.190722,78.9847972 105.606944,78.8410113 105.871813,78.5761426 L106.235062,79.0983124 C105.864245,79.4464255 105.32694,79.6356175 104.751797,79.6356175 Z M105.72046,77.4107202 C105.697757,76.9793626 105.402617,76.4496251 104.683688,76.4496251 C104.010164,76.4496251 103.692322,76.9717949 103.662051,77.4107202 L105.72046,77.4107202 Z M108.06644,79.5448054 L107.271834,79.5448054 L107.271834,75.8896169 L108.06644,75.8896169 L108.06644,76.4193544 C108.346444,76.0712412 108.785369,75.7988048 109.254565,75.7988048 L109.254565,76.5858433 C109.186456,76.570708 109.110779,76.5631403 109.012399,76.5631403 C108.671854,76.5631403 108.225361,76.7901706 108.06644,77.0550393 L108.06644,79.5448054 Z M111.002699,79.6356175 C110.382149,79.6356175 110.064307,79.3026397 110.064307,78.6896578 L110.064307,76.5782756 L109.458892,76.5782756 L109.458892,75.8896169 L110.064307,75.8896169 L110.064307,74.8906835 L110.858913,74.8906835 L110.858913,75.8896169 L111.600545,75.8896169 L111.600545,76.5782756 L110.858913,76.5782756 L110.858913,78.4928981 C110.858913,78.7426315 110.979996,78.9318234 111.207026,78.9318234 C111.35838,78.9318234 111.494598,78.8637143 111.555139,78.7956052 L111.744331,79.4010195 C111.600545,79.52967 111.365947,79.6356175 111.002699,79.6356175 Z M115.346546,79.5448054 L114.55194,79.5448054 L114.55194,79.1437184 C114.279503,79.4615609 113.848146,79.6356175 113.363814,79.6356175 C112.773535,79.6356175 112.100012,79.2269629 112.100012,78.424789 C112.100012,77.5772091 112.765968,77.2290959 113.363814,77.2290959 C113.863281,77.2290959 114.279503,77.3880172 114.55194,77.698292 L114.55194,77.1534191 C114.55194,76.7296292 114.196259,76.4723281 113.696792,76.4723281 C113.288137,76.4723281 112.924889,76.6236817 112.614614,76.9415242 L112.281636,76.3890837 C112.705426,75.9804291 113.235164,75.7988048 113.817875,75.7988048 C114.635184,75.7988048 115.346546,76.1393503 115.346546,77.1155808 L115.346546,79.5448054 Z M113.681657,79.0907447 C114.022202,79.0907447 114.362748,78.9620942 114.55194,78.7123608 L114.55194,78.1523526 C114.362748,77.9026193 114.022202,77.7739687 113.681657,77.7739687 C113.235164,77.7739687 112.894618,78.0388375 112.894618,78.4323567 C112.894618,78.8334436 113.235164,79.0907447 113.681657,79.0907447 Z M116.776837,75.443124 C116.5044,75.443124 116.284938,75.2236613 116.284938,74.9512249 C116.284938,74.6787885 116.5044,74.4593258 116.776837,74.4593258 C117.049273,74.4593258 117.268736,74.6787885 117.268736,74.9512249 C117.268736,75.2236613 117.049273,75.443124 116.776837,75.443124 Z M117.170356,79.5448054 L116.37575,79.5448054 L116.37575,75.8896169 L117.170356,75.8896169 L117.170356,79.5448054 Z M121.468797,79.5448054 L120.674191,79.5448054 L120.674191,77.2593666 C120.674191,76.6842231 120.379052,76.5025989 119.932559,76.5025989 C119.531472,76.5025989 119.183358,76.7447645 118.994167,76.9869302 L118.994167,79.5448054 L118.19956,79.5448054 L118.19956,75.8896169 L118.994167,75.8896169 L118.994167,76.381516 C119.236332,76.0939443 119.713096,75.7988048 120.288239,75.7988048 C121.075278,75.7988048 121.468797,76.2225948 121.468797,76.9717949 L121.468797,79.5448054 Z M127.78024,79.5448054 L126.985634,79.5448054 L126.985634,77.1609868 C126.985634,76.7674676 126.811578,76.5025989 126.38022,76.5025989 C126.024539,76.5025989 125.691561,76.7447645 125.53264,76.9869302 L125.53264,79.5448054 L124.738034,79.5448054 L124.738034,77.1609868 C124.738034,76.7674676 124.571545,76.5025989 124.140187,76.5025989 C123.784507,76.5025989 123.459096,76.7523322 123.292608,76.9869302 L123.292608,79.5448054 L122.498001,79.5448054 L122.498001,75.8896169 L123.292608,75.8896169 L123.292608,76.381516 C123.451529,76.1620534 123.928292,75.7988048 124.488301,75.7988048 C125.033173,75.7988048 125.366151,76.0712412 125.487234,76.4647605 C125.691561,76.1393503 126.175893,75.7988048 126.728333,75.7988048 C127.394289,75.7988048 127.78024,76.1620534 127.78024,76.9036858 L127.78024,79.5448054 Z M130.504605,79.6356175 C129.399724,79.6356175 128.589982,78.871282 128.589982,77.7134273 C128.589982,76.6539524 129.361885,75.7988048 130.444063,75.7988048 C131.541376,75.7988048 132.237603,76.6312494 132.237603,77.7815364 L132.237603,77.978296 L129.422427,77.978296 C129.482968,78.5231688 129.891623,78.9847972 130.580281,78.9847972 C130.94353,78.9847972 131.359752,78.8410113 131.624621,78.5761426 L131.987869,79.0983124 C131.617053,79.4464255 131.079748,79.6356175 130.504605,79.6356175 Z M131.473267,77.4107202 C131.450564,76.9793626 131.155425,76.4496251 130.436495,76.4496251 C129.762972,76.4496251 129.44513,76.9717949 129.414859,77.4107202 L131.473267,77.4107202 Z M136.293878,79.5448054 L135.499272,79.5448054 L135.499272,77.2593666 C135.499272,76.6842231 135.204132,76.5025989 134.757639,76.5025989 C134.356553,76.5025989 134.008439,76.7447645 133.819247,76.9869302 L133.819247,79.5448054 L133.024641,79.5448054 L133.024641,75.8896169 L133.819247,75.8896169 L133.819247,76.381516 C134.061413,76.0939443 134.538177,75.7988048 135.11332,75.7988048 C135.900359,75.7988048 136.293878,76.2225948 136.293878,76.9717949 L136.293878,79.5448054 Z M138.427963,79.6356175 C137.807414,79.6356175 137.489571,79.3026397 137.489571,78.6896578 L137.489571,76.5782756 L136.884157,76.5782756 L136.884157,75.8896169 L137.489571,75.8896169 L137.489571,74.8906835 L138.284177,74.8906835 L138.284177,75.8896169 L139.02581,75.8896169 L139.02581,76.5782756 L138.284177,76.5782756 L138.284177,78.4928981 C138.284177,78.7426315 138.40526,78.9318234 138.632291,78.9318234 C138.783644,78.9318234 138.919862,78.8637143 138.980404,78.7956052 L139.169596,79.4010195 C139.02581,79.52967 138.791212,79.6356175 138.427963,79.6356175 Z M140.055014,79.6129145 C139.87339,79.6129145 139.714468,79.4615609 139.714468,79.2799366 C139.714468,79.10588 139.87339,78.9545265 140.055014,78.9545265 C140.236638,78.9545265 140.387992,79.10588 140.387992,79.2799366 C140.387992,79.4615609 140.236638,79.6129145 140.055014,79.6129145 Z" id="Your-bank-charges-an" fill="#4E4B6B"></path>
                <path d="M117.000083,116.029409 L116.114665,116.029409 L116.114665,111.761239 L114.585994,111.761239 L114.585994,110.981768 L118.528754,110.981768 L118.528754,111.761239 L117.000083,111.761239 L117.000083,116.029409 Z M123.33423,116.029409 L122.327729,116.029409 L121.956912,115.053179 L119.641203,115.053179 L119.270387,116.029409 L118.263886,116.029409 L120.246617,110.981768 L121.351498,110.981768 L123.33423,116.029409 Z M121.707179,114.273708 L120.799058,111.867187 L119.890936,114.273708 L121.707179,114.273708 Z M127.995919,116.029409 L126.898606,116.029409 L125.211014,113.895324 L124.764521,114.417494 L124.764521,116.029409 L123.879103,116.029409 L123.879103,110.981768 L124.764521,110.981768 L124.764521,113.380722 L126.739685,110.981768 L127.836998,110.981768 L125.786157,113.358019 L127.995919,116.029409 Z M132.037059,116.029409 L128.578631,116.029409 L128.578631,110.981768 L132.037059,110.981768 L132.037059,111.761239 L129.464049,111.761239 L129.464049,113.06288 L131.984086,113.06288 L131.984086,113.84235 L129.464049,113.84235 L129.464049,115.249939 L132.037059,115.249939 L132.037059,116.029409 Z M139.445816,116.029409 L138.439315,116.029409 L138.068499,115.053179 L135.752789,115.053179 L135.381973,116.029409 L134.375472,116.029409 L136.358203,110.981768 L137.463084,110.981768 L139.445816,116.029409 Z M137.818765,114.273708 L136.910644,111.867187 L136.002522,114.273708 L137.818765,114.273708 Z M144.992924,116.029409 L141.882608,116.029409 L141.882608,110.981768 L142.768026,110.981768 L142.768026,115.249939 L144.992924,115.249939 L144.992924,116.029409 Z M147.90648,116.120221 C146.392944,116.120221 145.325902,115.015341 145.325902,113.509373 C145.325902,112.003405 146.392944,110.898524 147.90648,110.898524 C149.412448,110.898524 150.487058,112.003405 150.487058,113.509373 C150.487058,115.015341 149.412448,116.120221 147.90648,116.120221 Z M147.90648,115.333183 C148.920549,115.333183 149.578937,114.546144 149.578937,113.509373 C149.578937,112.465033 148.920549,111.685562 147.90648,111.685562 C146.884843,111.685562 146.234023,112.465033 146.234023,113.509373 C146.234023,114.546144 146.884843,115.333183 147.90648,115.333183 Z M153.695753,116.120221 C152.182218,116.120221 151.115175,115.015341 151.115175,113.509373 C151.115175,112.003405 152.182218,110.898524 153.695753,110.898524 C155.201721,110.898524 156.276331,112.003405 156.276331,113.509373 C156.276331,115.015341 155.201721,116.120221 153.695753,116.120221 Z M153.695753,115.333183 C154.709822,115.333183 155.36821,114.546144 155.36821,113.509373 C155.36821,112.465033 154.709822,111.685562 153.695753,111.685562 C152.674117,111.685562 152.023296,112.465033 152.023296,113.509373 C152.023296,114.546144 152.674117,115.333183 153.695753,115.333183 Z M161.240728,116.029409 L160.143415,116.029409 L158.455823,113.895324 L158.00933,114.417494 L158.00933,116.029409 L157.123911,116.029409 L157.123911,110.981768 L158.00933,110.981768 L158.00933,113.380722 L159.984494,110.981768 L161.081807,110.981768 L159.030966,113.358019 L161.240728,116.029409 Z" id="TAKE-A-LOOK" fill="#13C6B9"></path>
                <path d="M17.9732349,108.402389 L10.405557,108.402389 C9.88311791,108.402389 9.45959731,108.82591 9.45959731,109.348349 L9.45959731,115.024107 C9.45959731,115.546546 9.88311791,115.970067 10.405557,115.970067 L17.9732349,115.970067 C18.495674,115.970067 18.9191946,115.546546 18.9191946,115.024107 L18.9191946,109.348349 C18.9191946,108.82591 18.495674,108.402389 17.9732349,108.402389 L17.9732349,108.402389 Z M17.9732349,115.024107 L10.405557,115.024107 L10.405557,110.294309 L14.189396,112.659208 L17.9732349,110.294309 L17.9732349,115.024107 L17.9732349,115.024107 Z M17.9732349,109.348349 L14.189396,111.713248 L10.405557,109.348349 L17.9732349,109.348349 L17.9732349,109.348349 Z" id="Shape-Copy-8" fill="#000000" opacity="0.3"></path>
                <path d="M-2.10045255e-16,99.8887516 L170.272752,99.8887516" id="Line-Copy-6" stroke="#AEAEAE" stroke-width="0.5" opacity="0.3" stroke-linecap="square"></path>
            </g>
        </g>
    </g>
</svg>