<?xml version="1.0" encoding="UTF-8"?>
<svg width="226px" height="206px" viewBox="0 0 226 206" version="1.1" xmlns="http://www.w3.org/2000/svg" xmlns:xlink="http://www.w3.org/1999/xlink">
    <!-- Generator: Sketch 52.6 (67491) - http://www.bohemiancoding.com/sketch -->
    <desc>Created with Sketch.</desc>
    <defs>
        <rect id="path-1" x="0.51683941" y="0.926194518" width="162.969756" height="147.105444" rx="1.08165768"></rect>
        <filter x="-19.3%" y="-17.3%" width="138.7%" height="142.8%" filterUnits="objectBoundingBox" id="filter-2">
            <feOffset dx="0" dy="6" in="SourceAlpha" result="shadowOffsetOuter1"></feOffset>
            <feGaussianBlur stdDeviation="9.5" in="shadowOffsetOuter1" result="shadowBlurOuter1"></feGaussianBlur>
            <feColorMatrix values="0 0 0 0 0   0 0 0 0 0   0 0 0 0 0  0 0 0 0.10377038 0" type="matrix" in="shadowBlurOuter1"></feColorMatrix>
        </filter>
    </defs>
    <g id="Page-1" stroke="none" stroke-width="1" fill="none" fill-rule="evenodd">
        <g id="card/nudge/scorecard">
            <g transform="translate(31.010365, 28.814941)">
                <g id="Mask" fill-rule="nonzero">
                    <use fill="black" fill-opacity="1" filter="url(#filter-2)" xlink:href="#path-1"></use>
                    <use fill="#FFFFFF" xlink:href="#path-1"></use>
                </g>
                <path d="M23.8758378,129.102629 L15.1841175,129.102629 C14.5840794,129.102629 14.0976524,129.586904 14.0976524,130.184287 L14.0976524,136.674233 C14.0976524,137.271616 14.5840794,137.75589 15.1841175,137.75589 L23.8758378,137.75589 C24.4758759,137.75589 24.9623029,137.271616 24.9623029,136.674233 L24.9623029,130.184287 C24.9623029,129.586904 24.4758759,129.102629 23.8758378,129.102629 L23.8758378,129.102629 Z M23.8758378,136.674233 L15.1841175,136.674233 L15.1841175,131.265944 L19.5299777,133.970089 L23.8758378,131.265944 L23.8758378,136.674233 L23.8758378,136.674233 Z M23.8758378,130.184287 L19.5299777,132.888431 L15.1841175,130.184287 L23.8758378,130.184287 L23.8758378,130.184287 Z" id="Shape-Copy-8" fill="#000000" opacity="0.3"></path>
                <path d="M20.9641115,25.175884 L20.2470446,25.175884 L19.5299777,23.4019654 L15.6947561,23.4019654 L14.9776891,25.175884 L14.2606222,25.175884 L17.2266718,17.9612273 L17.998062,17.9612273 L20.9641115,25.175884 Z M19.3235493,22.8395034 L17.6177992,18.6210385 L15.9011844,22.8395034 L19.3235493,22.8395034 Z M22.5503504,25.3056829 C21.8550128,25.3056829 21.5182086,24.8838364 21.5182086,24.1699424 L21.5182086,20.44904 L20.6490366,20.44904 L20.6490366,19.9514774 L21.5182086,19.9514774 L21.5182086,18.5236893 L22.0940351,18.5236893 L22.0940351,19.9514774 L23.1587709,19.9514774 L23.1587709,20.44904 L22.0940351,20.44904 L22.0940351,24.0834097 C22.0940351,24.5052562 22.2678695,24.7973038 22.6372676,24.7973038 C22.8871546,24.7973038 23.1044476,24.6783215 23.2239588,24.5485225 L23.4412518,24.9811856 C23.2348234,25.175884 22.9849364,25.3056829 22.5503504,25.3056829 Z M25.7771515,27.220217 L25.8749334,26.7010213 C25.9944445,26.7551042 26.2008729,26.7875539 26.3312487,26.7875539 C26.6789175,26.7875539 26.9179398,26.6469384 27.1352328,26.1493759 L27.5480895,25.2191503 L25.3208362,19.9514774 L25.9509859,19.9514774 L27.8631644,24.5160728 L29.7536136,19.9514774 L30.3946279,19.9514774 L27.6784653,26.3224411 C27.3959844,26.9822523 26.9505338,27.295933 26.3421133,27.295933 C26.1574143,27.295933 25.918392,27.2634833 25.7771515,27.220217 Z M33.0238733,25.3056829 C31.4919576,25.3056829 30.514139,24.0834097 30.514139,22.5582724 C30.514139,21.0331351 31.4919576,19.8216785 33.0238733,19.8216785 C34.5775183,19.8216785 35.5553368,21.0331351 35.5553368,22.5582724 C35.5553368,24.0834097 34.5775183,25.3056829 33.0238733,25.3056829 Z M33.0238733,24.7973038 C34.2624434,24.7973038 34.9469164,23.7264627 34.9469164,22.5582724 C34.9469164,21.4008987 34.2624434,20.3300576 33.0238733,20.3300576 C31.8070324,20.3300576 31.1116948,21.4008987 31.1116948,22.5582724 C31.1116948,23.7264627 31.8070324,24.7973038 33.0238733,24.7973038 Z M40.5748053,25.175884 L40.0098435,25.175884 L40.0098435,24.407907 C39.5861221,24.8838364 38.8799198,25.3056829 38.1193943,25.3056829 C37.0546586,25.3056829 36.4679674,24.8081204 36.4679674,23.6291135 L36.4679674,19.9514774 L37.0329293,19.9514774 L37.0329293,23.4993146 C37.0329293,24.5160728 37.5435678,24.7973038 38.3040934,24.7973038 C38.9777017,24.7973038 39.6621747,24.3970905 40.0098435,23.9319777 L40.0098435,19.9514774 L40.5748053,19.9514774 L40.5748053,25.175884 Z M42.3566079,25.175884 L41.7916461,25.175884 L41.7916461,19.9514774 L42.3566079,19.9514774 L42.3566079,20.8492533 C42.8020586,20.2651581 43.3996144,19.8433117 44.1275459,19.8433117 L44.1275459,20.4598565 C44.0297641,20.4382234 43.9537115,20.4382234 43.845065,20.4382234 C43.3126972,20.4382234 42.5956302,20.9141528 42.3566079,21.368449 L42.3566079,25.175884 Z M49.2122022,25.3056829 C47.6694219,25.3056829 46.669874,24.0834097 46.669874,22.5582724 C46.669874,21.0331351 47.6694219,19.8216785 49.2122022,19.8216785 C50.1248329,19.8216785 50.6463361,20.1786255 51.0700575,20.7086378 L50.67893,21.0547683 C50.2986673,20.5355726 49.8206227,20.3300576 49.2447962,20.3300576 C48.0170907,20.3300576 47.2674298,21.3035495 47.2674298,22.5582724 C47.2674298,23.8129953 48.0170907,24.7973038 49.2447962,24.7973038 C49.8206227,24.7973038 50.2986673,24.5809723 50.67893,24.0617766 L51.0700575,24.407907 C50.6463361,24.9487359 50.1248329,25.3056829 49.2122022,25.3056829 Z M55.8939622,25.175884 L55.3290004,25.175884 L55.3290004,24.407907 C54.905279,24.8838364 54.1990767,25.3056829 53.4385512,25.3056829 C52.3738155,25.3056829 51.7871243,24.8081204 51.7871243,23.6291135 L51.7871243,19.9514774 L52.3520862,19.9514774 L52.3520862,23.4993146 C52.3520862,24.5160728 52.8627247,24.7973038 53.6232503,24.7973038 C54.2968586,24.7973038 54.9813316,24.3970905 55.3290004,23.9319777 L55.3290004,19.9514774 L55.8939622,19.9514774 L55.8939622,25.175884 Z M57.6757648,25.175884 L57.110803,25.175884 L57.110803,19.9514774 L57.6757648,19.9514774 L57.6757648,20.8492533 C58.1212155,20.2651581 58.7187713,19.8433117 59.4467028,19.8433117 L59.4467028,20.4598565 C59.348921,20.4382234 59.2728684,20.4382234 59.1642219,20.4382234 C58.6318541,20.4382234 57.9147871,20.9141528 57.6757648,21.368449 L57.6757648,25.175884 Z M60.5766264,25.175884 L60.0116646,25.175884 L60.0116646,19.9514774 L60.5766264,19.9514774 L60.5766264,20.8492533 C61.0220771,20.2651581 61.6196329,19.8433117 62.3475645,19.8433117 L62.3475645,20.4598565 C62.2497826,20.4382234 62.17373,20.4382234 62.0650835,20.4382234 C61.5327157,20.4382234 60.8156487,20.9141528 60.5766264,21.368449 L60.5766264,25.175884 Z M65.2375614,25.3056829 C63.7056457,25.3056829 62.6191807,24.1699424 62.6191807,22.5582724 C62.6191807,21.0439517 63.6839164,19.8216785 65.1397796,19.8216785 C66.7368832,19.8216785 67.6169199,21.0764014 67.6169199,22.5907222 L67.6169199,22.7421542 L63.2276011,22.7421542 C63.2819243,23.8778948 64.0424499,24.818937 65.28102,24.818937 C65.9437637,24.818937 66.5521841,24.5701557 66.9976348,24.0942263 L67.2909804,24.4619899 C66.7694771,25.0028188 66.1067335,25.3056829 65.2375614,25.3056829 Z M67.0410934,22.2986746 C67.0302287,21.4117153 66.4435376,20.3084245 65.1289149,20.3084245 C63.8903448,20.3084245 63.2710597,21.3900821 63.2276011,22.2986746 L67.0410934,22.2986746 Z M72.6363883,25.175884 L72.0714265,25.175884 L72.0714265,21.6388634 C72.0714265,20.6329218 71.5607879,20.3300576 70.8002624,20.3300576 C70.1266541,20.3300576 69.4313164,20.7519041 69.0945123,21.2278335 L69.0945123,25.175884 L68.5295505,25.175884 L68.5295505,19.9514774 L69.0945123,19.9514774 L69.0945123,20.7410875 C69.474775,20.2867913 70.2244359,19.8216785 70.9849614,19.8216785 C72.0496972,19.8216785 72.6363883,20.3408742 72.6363883,21.5198811 L72.6363883,25.175884 Z M74.9940174,25.3056829 C74.2986798,25.3056829 73.9618756,24.8838364 73.9618756,24.1699424 L73.9618756,20.44904 L73.0927036,20.44904 L73.0927036,19.9514774 L73.9618756,19.9514774 L73.9618756,18.5236893 L74.5377021,18.5236893 L74.5377021,19.9514774 L75.6024378,19.9514774 L75.6024378,20.44904 L74.5377021,20.44904 L74.5377021,24.0834097 C74.5377021,24.5052562 74.7115365,24.7973038 75.0809346,24.7973038 C75.3308216,24.7973038 75.5481146,24.6783215 75.6676257,24.5485225 L75.8849187,24.9811856 C75.6784904,25.175884 75.4286034,25.3056829 74.9940174,25.3056829 Z M79.1334491,25.175884 L78.5684873,25.175884 L78.5684873,19.9514774 L79.1334491,19.9514774 L79.1334491,20.8492533 C79.5788998,20.2651581 80.1764556,19.8433117 80.9043871,19.8433117 L80.9043871,20.4598565 C80.8066053,20.4382234 80.7305527,20.4382234 80.6219062,20.4382234 C80.0895384,20.4382234 79.3724714,20.9141528 79.1334491,21.368449 L79.1334491,25.175884 Z M85.3697584,25.175884 L84.8047966,25.175884 L84.8047966,24.5593391 C84.3376166,25.0677182 83.7509255,25.3056829 83.0229939,25.3056829 C82.1212279,25.3056829 81.186868,24.689138 81.186868,23.5642141 C81.186868,22.4284735 82.1103633,21.8335618 83.0229939,21.8335618 C83.7509255,21.8335618 84.3484813,22.0715265 84.8047966,22.5799056 L84.8047966,21.5198811 C84.8047966,20.7410875 84.1746469,20.319241 83.4032567,20.319241 C82.740513,20.319241 82.2298744,20.5463891 81.7518298,21.087218 L81.436755,20.6978212 C81.9799875,20.1137261 82.5884079,19.8216785 83.4575799,19.8216785 C84.5223157,19.8216785 85.3697584,20.3300576 85.3697584,21.4982479 L85.3697584,25.175884 Z M83.2185576,24.8622033 C83.8487074,24.8622033 84.4353985,24.6242386 84.8047966,24.1483092 L84.8047966,23.0017521 C84.4353985,22.5150061 83.8487074,22.2770414 83.2185576,22.2770414 C82.3602502,22.2770414 81.7844238,22.8286868 81.7844238,23.5750306 C81.7844238,24.3105579 82.3602502,24.8622033 83.2185576,24.8622033 Z M87.7273875,25.3056829 C87.0320499,25.3056829 86.6952457,24.8838364 86.6952457,24.1699424 L86.6952457,20.44904 L85.8260737,20.44904 L85.8260737,19.9514774 L86.6952457,19.9514774 L86.6952457,18.5236893 L87.2710722,18.5236893 L87.2710722,19.9514774 L88.3358079,19.9514774 L88.3358079,20.44904 L87.2710722,20.44904 L87.2710722,24.0834097 C87.2710722,24.5052562 87.4449066,24.7973038 87.8143047,24.7973038 C88.0641917,24.7973038 88.2814847,24.6783215 88.4009958,24.5485225 L88.6182888,24.9811856 C88.4118605,25.175884 88.1619735,25.3056829 87.7273875,25.3056829 Z M91.3561807,25.3056829 C89.824265,25.3056829 88.7378,24.1699424 88.7378,22.5582724 C88.7378,21.0439517 89.8025357,19.8216785 91.2583989,19.8216785 C92.8555025,19.8216785 93.7355391,21.0764014 93.7355391,22.5907222 L93.7355391,22.7421542 L89.3462204,22.7421542 C89.4005436,23.8778948 90.1610692,24.818937 91.3996393,24.818937 C92.062383,24.818937 92.6708034,24.5701557 93.1162541,24.0942263 L93.4095996,24.4619899 C92.8880964,25.0028188 92.2253527,25.3056829 91.3561807,25.3056829 Z M93.1597127,22.2986746 C93.148848,21.4117153 92.5621569,20.3084245 91.2475342,20.3084245 C90.0089641,20.3084245 89.389679,21.3900821 89.3462204,22.2986746 L93.1597127,22.2986746 Z M99.1352703,25.3056829 C97.6033546,25.3056829 96.6255361,24.0834097 96.6255361,22.5582724 C96.6255361,21.0331351 97.6033546,19.8216785 99.1352703,19.8216785 C100.688915,19.8216785 101.666734,21.0331351 101.666734,22.5582724 C101.666734,24.0834097 100.688915,25.3056829 99.1352703,25.3056829 Z M99.1352703,24.7973038 C100.37384,24.7973038 101.058313,23.7264627 101.058313,22.5582724 C101.058313,21.4008987 100.37384,20.3300576 99.1352703,20.3300576 C97.9184295,20.3300576 97.2230918,21.4008987 97.2230918,22.5582724 C97.2230918,23.7264627 97.9184295,24.7973038 99.1352703,24.7973038 Z M103.33989,25.175884 L102.764064,25.175884 L102.764064,20.44904 L101.894891,20.44904 L101.894891,19.9514774 L102.764064,19.9514774 L102.764064,19.475548 C102.764064,18.4587898 103.307296,17.8530615 104.187333,17.8530615 C104.556731,17.8530615 104.850076,17.9287776 105.186881,18.2208251 L104.915264,18.6318551 C104.74143,18.4696064 104.524137,18.3614406 104.241656,18.3614406 C103.6441,18.3614406 103.33989,18.7724706 103.33989,19.475548 L103.33989,19.9514774 L104.404626,19.9514774 L104.404626,20.44904 L103.33989,20.44904 L103.33989,25.175884 Z M16.5421988,37.3462116 C15.6947561,37.3462116 15.042877,37.0974304 14.5213738,36.5133352 L14.858178,36.1023053 C15.1949821,36.5241518 15.8142672,36.8702823 16.5530634,36.8702823 C17.4331001,36.8702823 17.9546033,36.415986 17.9546033,35.8102577 C17.9546033,34.3824696 14.640885,35.1937129 14.640885,33.3116285 C14.640885,32.5112018 15.3253579,31.8622072 16.5096048,31.8622072 C17.4113708,31.8622072 18.0089266,32.2083377 18.3891894,32.6301842 L18.0741145,33.0303975 C17.7699043,32.6193676 17.2049425,32.3381366 16.5096048,32.3381366 C15.6947561,32.3381366 15.2058468,32.7491665 15.2058468,33.2899954 C15.2058468,34.5988012 18.5087005,33.7983745 18.5087005,35.8102577 C18.5087005,36.6539507 17.8568215,37.3462116 16.5421988,37.3462116 Z M21.8115542,37.3462116 C21.072758,37.3462116 20.4100143,36.9676315 19.9862929,36.3727197 L19.9862929,39.2066629 L19.4213311,39.2066629 L19.4213311,31.9920062 L19.9862929,31.9920062 L19.9862929,32.814066 C20.355691,32.2840537 21.0292994,31.8622072 21.8115542,31.8622072 C23.2130941,31.8622072 24.1583187,32.9222318 24.1583187,34.5988012 C24.1583187,36.264554 23.2130941,37.3462116 21.8115542,37.3462116 Z M21.7137723,36.8378325 C22.8871546,36.8378325 23.5498983,35.8643406 23.5498983,34.5988012 C23.5498983,33.3332617 22.8871546,32.3705863 21.7137723,32.3705863 C20.9858408,32.3705863 20.2905031,32.8032494 19.9862929,33.3008119 L19.9862929,35.8859738 C20.2905031,36.3835363 20.9858408,36.8378325 21.7137723,36.8378325 Z M27.3633905,37.3462116 C25.8314748,37.3462116 24.7450098,36.2104711 24.7450098,34.5988012 C24.7450098,33.0844804 25.8097455,31.8622072 27.2656087,31.8622072 C28.8627123,31.8622072 29.742749,33.1169301 29.742749,34.6312509 L29.742749,34.782683 L25.3534302,34.782683 C25.4077534,35.9184235 26.168279,36.8594657 27.4068491,36.8594657 C28.0695928,36.8594657 28.6780132,36.6106844 29.1234639,36.1347551 L29.4168095,36.5025187 C28.8953062,37.0433475 28.2325626,37.3462116 27.3633905,37.3462116 Z M29.1669225,34.3392033 C29.1560578,33.452244 28.5693667,32.3489532 27.254744,32.3489532 C26.0161739,32.3489532 25.3968888,33.4306109 25.3534302,34.3392033 L29.1669225,34.3392033 Z M34.7622174,37.2164127 L34.1972556,37.2164127 L34.1972556,33.6793921 C34.1972556,32.6734505 33.686617,32.3705863 32.9260915,32.3705863 C32.2524832,32.3705863 31.5571455,32.7924328 31.2203414,33.2683622 L31.2203414,37.2164127 L30.6553796,37.2164127 L30.6553796,31.9920062 L31.2203414,31.9920062 L31.2203414,32.7816163 C31.6006041,32.32732 32.350265,31.8622072 33.1107905,31.8622072 C34.1755263,31.8622072 34.7622174,32.3814029 34.7622174,33.5604098 L34.7622174,37.2164127 Z M40.4227002,37.2164127 L39.8468738,37.2164127 L39.8468738,36.3835363 C39.4774757,36.9243652 38.8038673,37.3462116 38.0216125,37.3462116 C36.6309372,37.3462116 35.6857127,36.2861871 35.6857127,34.6096177 C35.6857127,32.9546815 36.6309372,31.8622072 38.0216125,31.8622072 C38.7712734,31.8622072 39.434017,32.2407874 39.8468738,32.8356991 L39.8468738,30.001756 L40.4227002,30.001756 L40.4227002,37.2164127 Z M38.1193943,36.8378325 C38.8581906,36.8378325 39.5426636,36.4051695 39.8468738,35.9076069 L39.8468738,33.3224451 C39.5426636,32.814066 38.8581906,32.3705863 38.1193943,32.3705863 C36.9568768,32.3705863 36.2832684,33.3440782 36.2832684,34.6096177 C36.2832684,35.8751572 36.9568768,36.8378325 38.1193943,36.8378325 Z M41.9220219,31.1699463 C41.6938643,31.1699463 41.4874359,30.9752479 41.4874359,30.7372833 C41.4874359,30.4993186 41.6938643,30.3154368 41.9220219,30.3154368 C42.1610443,30.3154368 42.356608,30.4993186 42.356608,30.7372833 C42.356608,30.9752479 42.1610443,31.1699463 41.9220219,31.1699463 Z M42.2045029,37.2164127 L41.639541,37.2164127 L41.639541,31.9920062 L42.2045029,31.9920062 L42.2045029,37.2164127 Z M47.5281815,37.2164127 L46.9632197,37.2164127 L46.9632197,33.6793921 C46.9632197,32.6734505 46.4525811,32.3705863 45.6920556,32.3705863 C45.0184473,32.3705863 44.3231096,32.7924328 43.9863055,33.2683622 L43.9863055,37.2164127 L43.4213437,37.2164127 L43.4213437,31.9920062 L43.9863055,31.9920062 L43.9863055,32.7816163 C44.3665682,32.32732 45.1162291,31.8622072 45.8767547,31.8622072 C46.9414904,31.8622072 47.5281815,32.3814029 47.5281815,33.5604098 L47.5281815,37.2164127 Z M50.8310352,39.3364618 C49.9401339,39.3364618 49.375172,39.1742131 48.755887,38.5468517 L49.0818265,38.0925554 C49.5381418,38.6333843 50.0379157,38.8280827 50.8310352,38.8280827 C51.7762598,38.8280827 52.6128379,38.3521533 52.6128379,37.1731464 L52.6128379,36.34027 C52.2434398,36.8810988 51.5698314,37.3245785 50.7875766,37.3245785 C49.3969013,37.3245785 48.4516768,36.2753705 48.4516768,34.5988012 C48.4516768,32.9438649 49.3969013,31.8622072 50.7875766,31.8622072 C51.5372375,31.8622072 52.1891165,32.2407874 52.6128379,32.8356991 L52.6128379,31.9920062 L53.1886643,31.9920062 L53.1886643,37.1731464 C53.1886643,38.7631832 52.1021993,39.3364618 50.8310352,39.3364618 Z M50.8853585,36.8161994 C51.61329,36.8161994 52.3086277,36.3727197 52.6128379,35.8643406 L52.6128379,33.3224451 C52.3086277,32.814066 51.61329,32.3705863 50.8853585,32.3705863 C49.7228409,32.3705863 49.0492325,33.3332617 49.0492325,34.5988012 C49.0492325,35.8643406 49.7228409,36.8161994 50.8853585,36.8161994 Z M55.2420832,37.0649807 C55.2420832,37.670709 54.8835498,38.2439875 54.4598284,38.5360351 L54.1447535,38.2764372 C54.4924223,38.0384726 54.753174,37.6166261 54.7749033,37.2813122 C54.7749033,37.2813122 54.6988507,37.2921288 54.6662568,37.2921288 C54.4055051,37.2921288 54.2208061,37.0974304 54.2208061,36.8378325 C54.2208061,36.5890513 54.4272344,36.3727197 54.6879861,36.3727197 C54.9813316,36.3727197 55.2420832,36.621501 55.2420832,37.0649807 Z M58.7839592,31.1699463 C58.5558015,31.1699463 58.3493731,30.9752479 58.3493731,30.7372833 C58.3493731,30.4993186 58.5558015,30.3154368 58.7839592,30.3154368 C59.0229815,30.3154368 59.2185452,30.4993186 59.2185452,30.7372833 C59.2185452,30.9752479 59.0229815,31.1699463 58.7839592,31.1699463 Z M59.0664401,37.2164127 L58.5014783,37.2164127 L58.5014783,31.9920062 L59.0664401,31.9920062 L59.0664401,37.2164127 Z M61.4240692,37.3462116 C60.7287315,37.3462116 60.3919274,36.9243652 60.3919274,36.2104711 L60.3919274,32.4895687 L59.5227553,32.4895687 L59.5227553,31.9920062 L60.3919274,31.9920062 L60.3919274,30.564218 L60.9677539,30.564218 L60.9677539,31.9920062 L62.0324896,31.9920062 L62.0324896,32.4895687 L60.9677539,32.4895687 L60.9677539,36.1239385 C60.9677539,36.545785 61.1415883,36.8378325 61.5109864,36.8378325 C61.7608733,36.8378325 61.9781663,36.7188502 62.0976775,36.5890513 L62.3149705,37.0217143 C62.1085421,37.2164127 61.8586552,37.3462116 61.4240692,37.3462116 Z M65.5635009,37.2164127 L64.9985391,37.2164127 L64.9985391,30.001756 L65.5635009,30.001756 L65.5635009,37.2164127 Z M68.9967304,37.3462116 C67.4648147,37.3462116 66.4869961,36.1239385 66.4869961,34.5988012 C66.4869961,33.0736638 67.4648147,31.8622072 68.9967304,31.8622072 C70.5503754,31.8622072 71.5281939,33.0736638 71.5281939,34.5988012 C71.5281939,36.1239385 70.5503754,37.3462116 68.9967304,37.3462116 Z M68.9967304,36.8378325 C70.2353005,36.8378325 70.9197735,35.7669914 70.9197735,34.5988012 C70.9197735,33.4414274 70.2353005,32.3705863 68.9967304,32.3705863 C67.7798895,32.3705863 67.0845519,33.4414274 67.0845519,34.5988012 C67.0845519,35.7669914 67.7798895,36.8378325 68.9967304,36.8378325 Z M74.6572132,37.3462116 C73.1252975,37.3462116 72.1474789,36.1239385 72.1474789,34.5988012 C72.1474789,33.0736638 73.1252975,31.8622072 74.6572132,31.8622072 C76.2108582,31.8622072 77.1886767,33.0736638 77.1886767,34.5988012 C77.1886767,36.1239385 76.2108582,37.3462116 74.6572132,37.3462116 Z M74.6572132,36.8378325 C75.8957833,36.8378325 76.5802563,35.7669914 76.5802563,34.5988012 C76.5802563,33.4414274 75.8957833,32.3705863 74.6572132,32.3705863 C73.4403723,32.3705863 72.7450347,33.4414274 72.7450347,34.5988012 C72.7450347,35.7669914 73.4403723,36.8378325 74.6572132,36.8378325 Z M82.5014908,37.2164127 L81.7409652,37.2164127 L79.6440877,34.7286001 L78.6662692,35.6480091 L78.6662692,37.2164127 L78.1013073,37.2164127 L78.1013073,30.001756 L78.6662692,30.001756 L78.6662692,34.9773813 L81.7518299,31.9920062 L82.5123554,31.9920062 L80.0678091,34.3500199 L82.5014908,37.2164127 Z M84.6092329,37.3462116 C83.7617902,37.3462116 83.1099111,37.0974304 82.5884079,36.5133352 L82.9252121,36.1023053 C83.2620162,36.5241518 83.8813013,36.8702823 84.6200975,36.8702823 C85.5001342,36.8702823 86.0216374,36.415986 86.0216374,35.8102577 C86.0216374,34.3824696 82.7079191,35.1937129 82.7079191,33.3116285 C82.7079191,32.5112018 83.392392,31.8622072 84.5766389,31.8622072 C85.4784049,31.8622072 86.0759607,32.2083377 86.4562235,32.6301842 L86.1411486,33.0303975 C85.8369384,32.6193676 85.2719766,32.3381366 84.5766389,32.3381366 C83.7617902,32.3381366 83.2728809,32.7491665 83.2728809,33.2899954 C83.2728809,34.5988012 86.5757346,33.7983745 86.5757346,35.8102577 C86.5757346,36.6539507 85.9238556,37.3462116 84.6092329,37.3462116 Z M90.3240389,37.2164127 L89.7590771,37.2164127 L89.7590771,30.001756 L90.3240389,30.001756 L90.3240389,37.2164127 Z M91.8233606,31.1699463 C91.595203,31.1699463 91.3887746,30.9752479 91.3887746,30.7372833 C91.3887746,30.4993186 91.595203,30.3154368 91.8233606,30.3154368 C92.0623829,30.3154368 92.2579466,30.4993186 92.2579466,30.7372833 C92.2579466,30.9752479 92.0623829,31.1699463 91.8233606,31.1699463 Z M92.1058415,37.2164127 L91.5408797,37.2164127 L91.5408797,31.9920062 L92.1058415,31.9920062 L92.1058415,37.2164127 Z M97.7228658,37.2164127 L96.9623402,37.2164127 L94.8654627,34.7286001 L93.8876442,35.6480091 L93.8876442,37.2164127 L93.3226823,37.2164127 L93.3226823,30.001756 L93.8876442,30.001756 L93.8876442,34.9773813 L96.9732049,31.9920062 L97.7337304,31.9920062 L95.2891841,34.3500199 L97.7228658,37.2164127 Z M100.569404,37.3462116 C99.0374884,37.3462116 97.9510234,36.2104711 97.9510234,34.5988012 C97.9510234,33.0844804 99.0157591,31.8622072 100.471622,31.8622072 C102.068726,31.8622072 102.948763,33.1169301 102.948763,34.6312509 L102.948763,34.782683 L98.5594438,34.782683 C98.613767,35.9184235 99.3742926,36.8594657 100.612863,36.8594657 C101.275606,36.8594657 101.884027,36.6106844 102.329477,36.1347551 L102.622823,36.5025187 C102.10132,37.0433475 101.438576,37.3462116 100.569404,37.3462116 Z M102.372936,34.3392033 C102.362071,33.452244 101.77538,32.3489532 100.460758,32.3489532 C99.2221875,32.3489532 98.6029024,33.4306109 98.5594438,34.3392033 L102.372936,34.3392033 Z M105.784436,39.2607457 L105.882218,38.74155 C106.001729,38.7956329 106.208158,38.8280827 106.338533,38.8280827 C106.686202,38.8280827 106.925225,38.6874672 107.142518,38.1899046 L107.555374,37.259679 L105.328121,31.9920062 L105.958271,31.9920062 L107.870449,36.5566015 L109.760898,31.9920062 L110.401913,31.9920062 L107.68575,38.3629699 C107.403269,39.022781 106.957818,39.3364618 106.349398,39.3364618 C106.164699,39.3364618 105.925677,39.304012 105.784436,39.2607457 Z M113.031158,37.3462116 C111.499242,37.3462116 110.521424,36.1239385 110.521424,34.5988012 C110.521424,33.0736638 111.499242,31.8622072 113.031158,31.8622072 C114.584803,31.8622072 115.562622,33.0736638 115.562622,34.5988012 C115.562622,36.1239385 114.584803,37.3462116 113.031158,37.3462116 Z M113.031158,36.8378325 C114.269728,36.8378325 114.954201,35.7669914 114.954201,34.5988012 C114.954201,33.4414274 114.269728,32.3705863 113.031158,32.3705863 C111.814317,32.3705863 111.11898,33.4414274 111.11898,34.5988012 C111.11898,35.7669914 111.814317,36.8378325 113.031158,36.8378325 Z M120.58209,37.2164127 L120.017128,37.2164127 L120.017128,36.4484358 C119.593407,36.9243652 118.887205,37.3462116 118.126679,37.3462116 C117.061943,37.3462116 116.475252,36.8486491 116.475252,35.6696423 L116.475252,31.9920062 L117.040214,31.9920062 L117.040214,35.5398433 C117.040214,36.5566015 117.550853,36.8378325 118.311378,36.8378325 C118.984986,36.8378325 119.669459,36.4376192 120.017128,35.9725064 L120.017128,31.9920062 L120.58209,31.9920062 L120.58209,37.2164127 Z M122.103141,32.5977345 L121.777202,32.5977345 C121.777202,32.5977345 121.549044,30.4236025 121.549044,30.282987 C121.549044,30.0666555 121.712014,29.8935903 121.940171,29.8935903 C122.157464,29.8935903 122.331299,30.0666555 122.331299,30.282987 C122.331299,30.4236025 122.103141,32.5977345 122.103141,32.5977345 Z M123.85235,37.2164127 L123.287388,37.2164127 L123.287388,31.9920062 L123.85235,31.9920062 L123.85235,32.889782 C124.2978,32.3056869 124.895356,31.8838404 125.623288,31.8838404 L125.623288,32.5003853 C125.525506,32.4787521 125.449453,32.4787521 125.340807,32.4787521 C124.808439,32.4787521 124.091372,32.9546815 123.85235,33.4089777 L123.85235,37.2164127 Z M128.513285,37.3462116 C126.981369,37.3462116 125.894904,36.2104711 125.894904,34.5988012 C125.894904,33.0844804 126.95964,31.8622072 128.415503,31.8622072 C130.012606,31.8622072 130.892643,33.1169301 130.892643,34.6312509 L130.892643,34.782683 L126.503324,34.782683 C126.557648,35.9184235 127.318173,36.8594657 128.556743,36.8594657 C129.219487,36.8594657 129.827907,36.6106844 130.273358,36.1347551 L130.566704,36.5025187 C130.0452,37.0433475 129.382457,37.3462116 128.513285,37.3462116 Z M130.316817,34.3392033 C130.305952,33.452244 129.719261,32.3489532 128.404638,32.3489532 C127.166068,32.3489532 126.546783,33.4306109 126.503324,34.3392033 L130.316817,34.3392033 Z M17.063702,51.3769905 C16.1728007,51.3769905 15.6078389,51.2147419 14.9885538,50.5873804 L15.3144933,50.1330842 C15.7708086,50.673913 16.2705825,50.8686114 17.063702,50.8686114 C18.0089266,50.8686114 18.8455047,50.392682 18.8455047,49.2136752 L18.8455047,48.3807987 C18.4761066,48.9216276 17.8024982,49.3651072 17.0202434,49.3651072 C15.6295682,49.3651072 14.6843436,48.3158993 14.6843436,46.6393299 C14.6843436,44.9843936 15.6295682,43.902736 17.0202434,43.902736 C17.7699043,43.902736 18.4217833,44.2813162 18.8455047,44.8762279 L18.8455047,44.0325349 L19.4213312,44.0325349 L19.4213312,49.2136752 C19.4213312,50.8037119 18.3348661,51.3769905 17.063702,51.3769905 Z M17.1180253,48.8567281 C17.8459568,48.8567281 18.5412945,48.4132485 18.8455047,47.9048694 L18.8455047,45.3629738 C18.5412945,44.8545947 17.8459568,44.4111151 17.1180253,44.4111151 C15.9555077,44.4111151 15.2818993,45.3737904 15.2818993,46.6393299 C15.2818993,47.9048694 15.9555077,48.8567281 17.1180253,48.8567281 Z M22.843696,49.3867404 C21.3117803,49.3867404 20.3339617,48.1644672 20.3339617,46.6393299 C20.3339617,45.1141926 21.3117803,43.902736 22.843696,43.902736 C24.397341,43.902736 25.3751595,45.1141926 25.3751595,46.6393299 C25.3751595,48.1644672 24.397341,49.3867404 22.843696,49.3867404 Z M22.843696,48.8783613 C24.0822661,48.8783613 24.7667391,47.8075202 24.7667391,46.6393299 C24.7667391,45.4819562 24.0822661,44.4111151 22.843696,44.4111151 C21.6268551,44.4111151 20.9315175,45.4819562 20.9315175,46.6393299 C20.9315175,47.8075202 21.6268551,48.8783613 22.843696,48.8783613 Z M26.570271,43.2104751 C26.3421134,43.2104751 26.135685,43.0157767 26.135685,42.777812 C26.135685,42.5398473 26.3421134,42.3559655 26.570271,42.3559655 C26.8092933,42.3559655 27.0048571,42.5398473 27.0048571,42.777812 C27.0048571,43.0157767 26.8092933,43.2104751 26.570271,43.2104751 Z M26.852752,49.2569415 L26.2877901,49.2569415 L26.2877901,44.0325349 L26.852752,44.0325349 L26.852752,49.2569415 Z M32.1764306,49.2569415 L31.6114688,49.2569415 L31.6114688,45.7199209 C31.6114688,44.7139792 31.1008302,44.4111151 30.3403047,44.4111151 C29.6666964,44.4111151 28.9713587,44.8329616 28.6345546,45.3088909 L28.6345546,49.2569415 L28.0695927,49.2569415 L28.0695927,44.0325349 L28.6345546,44.0325349 L28.6345546,44.822145 C29.0148173,44.3678488 29.7644782,43.902736 30.5250037,43.902736 C31.5897395,43.902736 32.1764306,44.4219316 32.1764306,45.6009385 L32.1764306,49.2569415 Z M35.4792843,51.3769905 C34.588383,51.3769905 34.0234211,51.2147419 33.4041361,50.5873804 L33.7300756,50.1330842 C34.1863909,50.673913 34.6861648,50.8686114 35.4792843,50.8686114 C36.4245089,50.8686114 37.261087,50.392682 37.261087,49.2136752 L37.261087,48.3807987 C36.8916888,48.9216276 36.2180805,49.3651072 35.4358257,49.3651072 C34.0451504,49.3651072 33.0999258,48.3158993 33.0999258,46.6393299 C33.0999258,44.9843936 34.0451504,43.902736 35.4358257,43.902736 C36.1854866,43.902736 36.8373656,44.2813162 37.261087,44.8762279 L37.261087,44.0325349 L37.8369134,44.0325349 L37.8369134,49.2136752 C37.8369134,50.8037119 36.7504484,51.3769905 35.4792843,51.3769905 Z M35.5336075,48.8567281 C36.2615391,48.8567281 36.9568768,48.4132485 37.261087,47.9048694 L37.261087,45.3629738 C36.9568768,44.8545947 36.2615391,44.4111151 35.5336075,44.4111151 C34.3710899,44.4111151 33.6974816,45.3737904 33.6974816,46.6393299 C33.6974816,47.9048694 34.3710899,48.8567281 35.5336075,48.8567281 Z M42.4543898,49.3867404 C41.7590521,49.3867404 41.422248,48.9648939 41.422248,48.2509998 L41.422248,44.5300974 L40.5530759,44.5300974 L40.5530759,44.0325349 L41.422248,44.0325349 L41.422248,42.6047468 L41.9980745,42.6047468 L41.9980745,44.0325349 L43.0628102,44.0325349 L43.0628102,44.5300974 L41.9980745,44.5300974 L41.9980745,48.1644672 C41.9980745,48.5863137 42.1719089,48.8783613 42.541307,48.8783613 C42.7911939,48.8783613 43.0084869,48.7593789 43.1279981,48.62958 L43.3452911,49.0622431 C43.1388627,49.2569415 42.8889758,49.3867404 42.4543898,49.3867404 Z M45.9745365,49.3867404 C44.4426207,49.3867404 43.4648022,48.1644672 43.4648022,46.6393299 C43.4648022,45.1141926 44.4426207,43.902736 45.9745365,43.902736 C47.5281815,43.902736 48.506,45.1141926 48.506,46.6393299 C48.506,48.1644672 47.5281815,49.3867404 45.9745365,49.3867404 Z M45.9745365,48.8783613 C47.2131066,48.8783613 47.8975796,47.8075202 47.8975796,46.6393299 C47.8975796,45.4819562 47.2131066,44.4111151 45.9745365,44.4111151 C44.7576956,44.4111151 44.062358,45.4819562 44.062358,46.6393299 C44.062358,47.8075202 44.7576956,48.8783613 45.9745365,48.8783613 Z M53.2538521,49.3867404 C52.4064094,49.3867404 51.7545304,49.1379591 51.2330272,48.553864 L51.5698313,48.1428341 C51.9066355,48.5646805 52.5259206,48.910811 53.2647168,48.910811 C54.1447535,48.910811 54.6662567,48.4565148 54.6662567,47.8507865 C54.6662567,46.4229983 51.3525383,47.2342416 51.3525383,45.3521573 C51.3525383,44.5517306 52.0370113,43.902736 53.2212582,43.902736 C54.1230242,43.902736 54.72058,44.2488664 55.1008427,44.6707129 L54.7857679,45.0709263 C54.4815576,44.6598963 53.9165958,44.3786653 53.2212582,44.3786653 C52.4064094,44.3786653 51.9175001,44.7896953 51.9175001,45.3305241 C51.9175001,46.6393299 55.2203539,45.8389032 55.2203539,47.8507865 C55.2203539,48.6944795 54.5684748,49.3867404 53.2538521,49.3867404 Z M58.5232076,49.3867404 C57.7844113,49.3867404 57.1216676,49.0081602 56.6979463,48.4132485 L56.6979463,51.2471916 L56.1329845,51.2471916 L56.1329845,44.0325349 L56.6979463,44.0325349 L56.6979463,44.8545947 C57.0673444,44.3245825 57.7409527,43.902736 58.5232076,43.902736 C59.9247475,43.902736 60.869972,44.9627605 60.869972,46.6393299 C60.869972,48.3050827 59.9247475,49.3867404 58.5232076,49.3867404 Z M58.4254257,48.8783613 C59.5988079,48.8783613 60.2615516,47.9048694 60.2615516,46.6393299 C60.2615516,45.3737904 59.5988079,44.4111151 58.4254257,44.4111151 C57.6974941,44.4111151 57.0021565,44.8437781 56.6979463,45.3413407 L56.6979463,47.9265025 C57.0021565,48.424065 57.6974941,48.8783613 58.4254257,48.8783613 Z M64.0750439,49.3867404 C62.5431282,49.3867404 61.4566631,48.2509998 61.4566631,46.6393299 C61.4566631,45.1250091 62.5213989,43.902736 63.977262,43.902736 C65.5743656,43.902736 66.4544023,45.1574589 66.4544023,46.6717796 L66.4544023,46.8232117 L62.0650835,46.8232117 C62.1194068,47.9589522 62.8799323,48.8999944 64.1185025,48.8999944 C64.7812462,48.8999944 65.3896666,48.6512132 65.8351172,48.1752838 L66.1284628,48.5430474 C65.6069596,49.0838762 64.9442159,49.3867404 64.0750439,49.3867404 Z M65.8785758,46.379732 C65.8677112,45.4927727 65.2810201,44.3894819 63.9663974,44.3894819 C62.7278272,44.3894819 62.1085421,45.4711396 62.0650835,46.379732 L65.8785758,46.379732 Z M71.4738708,49.2569415 L70.9089089,49.2569415 L70.9089089,45.7199209 C70.9089089,44.7139792 70.3982704,44.4111151 69.6377448,44.4111151 C68.9641365,44.4111151 68.2687989,44.8329616 67.9319947,45.3088909 L67.9319947,49.2569415 L67.3670329,49.2569415 L67.3670329,44.0325349 L67.9319947,44.0325349 L67.9319947,44.822145 C68.3122575,44.3678488 69.0619184,43.902736 69.8224439,43.902736 C70.8871796,43.902736 71.4738708,44.4219316 71.4738708,45.6009385 L71.4738708,49.2569415 Z M77.1343536,49.2569415 L76.5585271,49.2569415 L76.5585271,48.424065 C76.189129,48.9648939 75.5155207,49.3867404 74.7332658,49.3867404 C73.3425906,49.3867404 72.397366,48.3267159 72.397366,46.6501465 C72.397366,44.9952102 73.3425906,43.902736 74.7332658,43.902736 C75.4829267,43.902736 76.1456704,44.2813162 76.5585271,44.8762279 L76.5585271,42.0422848 L77.1343536,42.0422848 L77.1343536,49.2569415 Z M74.8310477,48.8783613 C75.5698439,48.8783613 76.2543169,48.4456982 76.5585271,47.9481357 L76.5585271,45.3629738 C76.2543169,44.8545947 75.5698439,44.4111151 74.8310477,44.4111151 C73.6685301,44.4111151 72.9949218,45.384607 72.9949218,46.6501465 C72.9949218,47.9156859 73.6685301,48.8783613 74.8310477,48.8783613 Z M25.5967985,70.5594154 L22.937132,70.5594154 L20.0623455,65.7114257 L17.7742502,65.7114257 L17.7742502,70.5594154 L15.4861548,70.5594154 L15.4861548,57.5730333 L21.2161714,57.5730333 C23.7976123,57.5730333 25.4990166,59.2279696 25.4990166,61.6422295 C25.4990166,63.9396704 23.9736197,65.2052099 22.3895537,65.4583178 L25.5967985,70.5594154 Z M20.9228258,63.7060323 C22.2135463,63.7060323 23.1522521,62.8882991 23.1522521,61.6227597 C23.1522521,60.37669 22.2135463,59.5784266 20.9228258,59.5784266 L17.7742502,59.5784266 L17.7742502,63.7060323 L20.9228258,63.7060323 Z M31.8982957,70.5594154 L29.6102003,70.5594154 L29.6102003,60.5129789 L27.4785559,62.7325404 L26.1487227,61.3501819 L29.9035458,57.5730333 L31.8982957,57.5730333 L31.8982957,70.5594154 Z M38.6887021,70.7930534 C36.4592759,70.7930534 34.9143226,70.0142599 33.8582785,68.7876601 L35.1685554,67.2106032 C36.0290357,68.2230348 37.2219743,68.7681903 38.6691458,68.7681903 C40.3314373,68.7681903 41.3483686,67.7557587 41.3483686,66.4707494 C41.3483686,65.0883908 40.3314373,64.1733085 38.7278149,64.1733085 C37.6326581,64.1733085 36.7135087,64.5042957 35.8725847,65.2830892 L34.249406,64.8158131 L34.249406,57.5730333 L42.79554,57.5730333 L42.79554,59.5784266 L36.5375013,59.5784266 L36.5375013,63.3166356 C37.1828616,62.7130706 38.2389056,62.2068548 39.4905133,62.2068548 C41.7003832,62.2068548 43.6755767,63.7255022 43.6755767,66.39287 C43.6755767,69.0797077 41.6026014,70.7930534 38.6887021,70.7930534 Z M47.8063167,69.8195615 C47.8063167,71.1629804 47.0631746,72.3895802 45.9875742,73.1489038 L45.0488684,72.3895802 C45.6746723,72.0196532 46.3395889,71.2213899 46.4569271,70.5594154 C46.4178144,70.5788852 46.2613634,70.6178249 46.1244688,70.6178249 C45.4791086,70.6178249 44.970643,70.0921393 44.970643,69.3717552 C44.970643,68.6513712 45.5573341,68.0478062 46.3004762,68.0478062 C47.1022874,68.0478062 47.8063167,68.6903109 47.8063167,69.8195615 Z M51.7023803,70.5594154 L49.1796085,70.5594154 L54.1078139,59.5784266 L47.3413096,59.5784266 L47.3413096,57.5730333 L56.747924,57.5730333 L56.747924,59.1500902 L51.7023803,70.5594154 Z M61.8760389,70.7735836 C60.2528602,70.7735836 59.0012524,70.1894884 58.1212157,69.3328156 L59.1968161,67.6 C59.8812891,68.320384 60.6244312,68.7487204 61.8760389,68.7487204 C64.2423598,68.7487204 65.3179602,66.5875684 65.3179602,64.465356 C65.3179602,64.348537 65.3179602,64.2122481 65.2984038,64.0954291 C64.7117127,64.9715718 63.3427667,65.906124 61.7978134,65.906124 C59.4510489,65.906124 57.4367428,64.4848259 57.4367428,61.7201088 C57.4367428,59.3058489 59.3337107,57.3588651 62.24761,57.3588651 C66.0806586,57.3588651 67.6256119,60.4545694 67.6256119,64.0564894 C67.6256119,67.8141682 65.6504185,70.7735836 61.8760389,70.7735836 Z M62.4236173,63.9591402 C63.5383304,63.9591402 64.6139308,63.3555753 65.2788474,62.421023 C65.1419528,61.0191947 64.3792544,59.3837283 62.3649482,59.3837283 C60.6439876,59.3837283 59.7443945,60.5908582 59.7443945,61.6422295 C59.7443945,63.2387562 60.9960022,63.9591402 62.4236173,63.9591402 Z M78.3077362,70.5594154 L68.8620091,70.5594154 L68.8620091,68.7487204 C73.9271091,64.9326321 75.921859,63.2582261 75.921859,61.3696518 C75.921859,60.0067631 74.7289203,59.4031981 73.5359817,59.4031981 C72.0105848,59.4031981 70.8567589,60.0067631 70.015835,60.9413153 L68.6860018,59.4616076 C69.8398276,58.0597793 71.6781265,57.3783349 73.5164253,57.3783349 C76.0391972,57.3783349 78.2295107,58.7801633 78.2295107,61.3696518 C78.2295107,63.7839117 76.0196408,65.9255939 72.5386068,68.554022 L78.3077362,68.554022 L78.3077362,70.5594154 Z M16.1184774,83.3581801 C15.4231398,83.3581801 15.0863356,82.9363336 15.0863356,82.2224395 L15.0863356,78.5015371 L14.2171636,78.5015371 L14.2171636,78.0039746 L15.0863356,78.0039746 L15.0863356,76.5761865 L15.6621621,76.5761865 L15.6621621,78.0039746 L16.7268979,78.0039746 L16.7268979,78.5015371 L15.6621621,78.5015371 L15.6621621,82.1359069 C15.6621621,82.5577534 15.8359965,82.849801 16.2053946,82.849801 C16.4552816,82.849801 16.6725746,82.7308186 16.7920858,82.6010197 L17.0093788,83.0336828 C16.8029504,83.2283812 16.5530634,83.3581801 16.1184774,83.3581801 Z M21.5290733,83.2283812 L20.9641115,83.2283812 L20.9641115,79.6697274 C20.9641115,78.6637858 20.4534729,78.3825548 19.6929474,78.3825548 C19.019339,78.3825548 18.3240014,78.8044013 17.9871973,79.2803306 L17.9871973,83.2283812 L17.4222354,83.2283812 L17.4222354,76.0137245 L17.9871973,76.0137245 L17.9871973,78.7935847 C18.36746,78.3392885 19.1171209,77.8741757 19.8776464,77.8741757 C20.9423822,77.8741757 21.5290733,78.3717382 21.5290733,79.5507451 L21.5290733,83.2283812 Z M23.028395,77.1819148 C22.8002373,77.1819148 22.593809,76.9872164 22.593809,76.7492517 C22.593809,76.511287 22.8002373,76.3274052 23.028395,76.3274052 C23.2674173,76.3274052 23.462981,76.511287 23.462981,76.7492517 C23.462981,76.9872164 23.2674173,77.1819148 23.028395,77.1819148 Z M23.3108759,83.2283812 L22.7459141,83.2283812 L22.7459141,78.0039746 L23.3108759,78.0039746 L23.3108759,83.2283812 Z M26.0922264,83.3581801 C25.2447836,83.3581801 24.5929046,83.1093988 24.0714014,82.5253037 L24.4082056,82.1142738 C24.7450097,82.5361202 25.3642948,82.8822507 26.103091,82.8822507 C26.9831277,82.8822507 27.5046309,82.4279545 27.5046309,81.8222262 C27.5046309,80.3944381 24.1909125,81.2056813 24.1909125,79.323597 C24.1909125,78.5231703 24.8753855,77.8741757 26.0596324,77.8741757 C26.9613984,77.8741757 27.5589542,78.2203061 27.9392169,78.6421526 L27.6241421,79.042366 C27.3199319,78.631336 26.75497,78.350105 26.0596324,78.350105 C25.2447836,78.350105 24.7558744,78.761135 24.7558744,79.3019638 C24.7558744,80.6107696 28.0587281,79.8103429 28.0587281,81.8222262 C28.0587281,82.6659192 27.4068491,83.3581801 26.0922264,83.3581801 Z M38.0542064,83.2283812 L37.4892446,83.2283812 L37.4892446,79.5723782 C37.4892446,78.836851 37.1741697,78.3825548 36.4353735,78.3825548 C35.8704117,78.3825548 35.2293973,78.7935847 34.9360517,79.2695141 L34.9360517,83.2283812 L34.3602252,83.2283812 L34.3602252,79.5723782 C34.3602252,78.836851 34.056015,78.3825548 33.3172188,78.3825548 C32.752257,78.3825548 32.1221073,78.8044013 31.8070324,79.2803306 L31.8070324,83.2283812 L31.2420706,83.2283812 L31.2420706,78.0039746 L31.8070324,78.0039746 L31.8070324,78.7935847 C32.0243254,78.4582708 32.7413923,77.8741757 33.5019179,77.8741757 C34.3167666,77.8741757 34.7513527,78.350105 34.8817285,78.8584842 C35.175074,78.3717382 35.8812763,77.8741757 36.6200725,77.8741757 C37.5870264,77.8741757 38.0542064,78.4150045 38.0542064,79.4642124 L38.0542064,83.2283812 Z M41.4874359,83.3581801 C39.9555202,83.3581801 38.9777016,82.1359069 38.9777016,80.6107696 C38.9777016,79.0856323 39.9555202,77.8741757 41.4874359,77.8741757 C43.0410809,77.8741757 44.0188994,79.0856323 44.0188994,80.6107696 C44.0188994,82.1359069 43.0410809,83.3581801 41.4874359,83.3581801 Z M41.4874359,82.849801 C42.726006,82.849801 43.410479,81.7789599 43.410479,80.6107696 C43.410479,79.4533959 42.726006,78.3825548 41.4874359,78.3825548 C40.270595,78.3825548 39.5752574,79.4533959 39.5752574,80.6107696 C39.5752574,81.7789599 40.270595,82.849801 41.4874359,82.849801 Z M49.0383679,83.2283812 L48.4734061,83.2283812 L48.4734061,79.6913606 C48.4734061,78.6854189 47.9627675,78.3825548 47.202242,78.3825548 C46.5286336,78.3825548 45.833296,78.8044013 45.4964918,79.2803306 L45.4964918,83.2283812 L44.93153,83.2283812 L44.93153,78.0039746 L45.4964918,78.0039746 L45.4964918,78.7935847 C45.8767546,78.3392885 46.6264155,77.8741757 47.386941,77.8741757 C48.4516768,77.8741757 49.0383679,78.3933714 49.0383679,79.5723782 L49.0383679,83.2283812 Z M52.5802439,83.3581801 C51.0483282,83.3581801 49.9618631,82.2224395 49.9618631,80.6107696 C49.9618631,79.0964488 51.0265989,77.8741757 52.482462,77.8741757 C54.0795656,77.8741757 54.9596023,79.1288986 54.9596023,80.6432193 L54.9596023,80.7946514 L50.5702835,80.7946514 C50.6246068,81.9303919 51.3851323,82.8714341 52.6237025,82.8714341 C53.2864461,82.8714341 53.8948666,82.6226529 54.3403172,82.1467235 L54.6336628,82.5144871 C54.1121596,83.0553159 53.4494159,83.3581801 52.5802439,83.3581801 Z M54.3837758,80.3511717 C54.3729112,79.4642124 53.7862201,78.3609216 52.4715974,78.3609216 C51.2330272,78.3609216 50.6137421,79.4425793 50.5702835,80.3511717 L54.3837758,80.3511717 Z M55.5245641,85.2727142 L55.6223459,84.7535185 C55.7418571,84.8076014 55.9482855,84.8400511 56.0786613,84.8400511 C56.4263301,84.8400511 56.6653524,84.6994356 56.8826454,84.2018731 L57.2955021,83.2716475 L55.0682488,78.0039746 L55.6983985,78.0039746 L57.610577,82.56857 L59.5010261,78.0039746 L60.1420405,78.0039746 L57.4258779,84.3749383 C57.143397,85.0347495 56.6979463,85.3484302 56.0895259,85.3484302 C55.9048269,85.3484302 55.6658045,85.3159805 55.5245641,85.2727142 Z M69.6377449,83.2283812 L69.0727831,83.2283812 L69.0727831,79.5723782 C69.0727831,78.836851 68.7577082,78.3825548 68.018912,78.3825548 C67.4539502,78.3825548 66.8129358,78.7935847 66.5195902,79.2695141 L66.5195902,83.2283812 L65.9437637,83.2283812 L65.9437637,79.5723782 C65.9437637,78.836851 65.6395535,78.3825548 64.9007573,78.3825548 C64.3357955,78.3825548 63.7056458,78.8044013 63.3905709,79.2803306 L63.3905709,83.2283812 L62.8256091,83.2283812 L62.8256091,78.0039746 L63.3905709,78.0039746 L63.3905709,78.7935847 C63.6078639,78.4582708 64.3249308,77.8741757 65.0854564,77.8741757 C65.9003051,77.8741757 66.3348912,78.350105 66.465267,78.8584842 C66.7586125,78.3717382 67.4648148,77.8741757 68.203611,77.8741757 C69.1705649,77.8741757 69.6377449,78.4150045 69.6377449,79.4642124 L69.6377449,83.2283812 Z M73.0709744,83.3581801 C71.5390587,83.3581801 70.5612401,82.1359069 70.5612401,80.6107696 C70.5612401,79.0856323 71.5390587,77.8741757 73.0709744,77.8741757 C74.6246194,77.8741757 75.6024379,79.0856323 75.6024379,80.6107696 C75.6024379,82.1359069 74.6246194,83.3581801 73.0709744,83.3581801 Z M73.0709744,82.849801 C74.3095445,82.849801 74.9940175,81.7789599 74.9940175,80.6107696 C74.9940175,79.4533959 74.3095445,78.3825548 73.0709744,78.3825548 C71.8541335,78.3825548 71.1587959,79.4533959 71.1587959,80.6107696 C71.1587959,81.7789599 71.8541335,82.849801 73.0709744,82.849801 Z M80.6219064,83.2283812 L80.0569446,83.2283812 L80.0569446,79.6913606 C80.0569446,78.6854189 79.546306,78.3825548 78.7857805,78.3825548 C78.1121721,78.3825548 77.4168345,78.8044013 77.0800303,79.2803306 L77.0800303,83.2283812 L76.5150685,83.2283812 L76.5150685,78.0039746 L77.0800303,78.0039746 L77.0800303,78.7935847 C77.4602931,78.3392885 78.209954,77.8741757 78.9704795,77.8741757 C80.0352153,77.8741757 80.6219064,78.3933714 80.6219064,79.5723782 L80.6219064,83.2283812 Z M82.9795355,83.3581801 C82.2841978,83.3581801 81.9473937,82.9363336 81.9473937,82.2224395 L81.9473937,78.5015371 L81.0782216,78.5015371 L81.0782216,78.0039746 L81.9473937,78.0039746 L81.9473937,76.5761865 L82.5232202,76.5761865 L82.5232202,78.0039746 L83.5879559,78.0039746 L83.5879559,78.5015371 L82.5232202,78.5015371 L82.5232202,82.1359069 C82.5232202,82.5577534 82.6970546,82.849801 83.0664527,82.849801 C83.3163396,82.849801 83.5336326,82.7308186 83.6531438,82.6010197 L83.8704368,83.0336828 C83.6640084,83.2283812 83.4141215,83.3581801 82.9795355,83.3581801 Z M88.3901313,83.2283812 L87.8251695,83.2283812 L87.8251695,79.6697274 C87.8251695,78.6637858 87.3145309,78.3825548 86.5540054,78.3825548 C85.8803971,78.3825548 85.1850595,78.8044013 84.8482553,79.2803306 L84.8482553,83.2283812 L84.2832935,83.2283812 L84.2832935,76.0137245 L84.8482553,76.0137245 L84.8482553,78.7935847 C85.2285181,78.3392885 85.9781789,77.8741757 86.7387045,77.8741757 C87.8034402,77.8741757 88.3901313,78.3717382 88.3901313,79.5507451 L88.3901313,83.2283812 Z M89.922047,83.3257304 C89.6612954,83.3257304 89.4331377,83.1093988 89.4331377,82.849801 C89.4331377,82.6010197 89.6612954,82.3846882 89.922047,82.3846882 C90.1827986,82.3846882 90.4000916,82.6010197 90.4000916,82.849801 C90.4000916,83.1093988 90.1827986,83.3257304 89.922047,83.3257304 Z" id="At-your-current-rate" fill="#4E4B6B"></path>
                <path d="M42.5891117,137.927585 C41.5200301,137.927585 40.746467,137.546841 40.2249638,137.010339 L40.7986173,136.222892 C41.1897448,136.646902 41.8242403,137.027645 42.6325703,137.027645 C43.4669755,137.027645 43.7885691,136.620942 43.7885691,136.231545 C43.7885691,135.020089 40.4161816,135.772922 40.4161816,133.652873 C40.4161816,132.692361 41.2505868,131.956834 42.5282697,131.956834 C43.4235169,131.956834 44.1623131,132.251045 44.6925081,132.770241 L44.1188545,133.523074 C43.6581933,133.064452 43.0410812,132.856773 42.4326608,132.856773 C41.8416238,132.856773 41.4591881,133.150984 41.4591881,133.574994 C41.4591881,134.656652 44.8315756,133.990351 44.8315756,136.136359 C44.8315756,137.096871 44.1449297,137.927585 42.5891117,137.927585 Z M49.7337059,137.823745 L45.7615897,137.823745 L45.7615897,132.05202 L49.7337059,132.05202 L49.7337059,132.943306 L46.7785209,132.943306 L46.7785209,134.431667 L49.6728638,134.431667 L49.6728638,135.322953 L46.7785209,135.322953 L46.7785209,136.932459 L49.7337059,136.932459 L49.7337059,137.823745 Z M54.7488285,137.823745 L50.7767123,137.823745 L50.7767123,132.05202 L54.7488285,132.05202 L54.7488285,132.943306 L51.7936436,132.943306 L51.7936436,134.431667 L54.6879865,134.431667 L54.6879865,135.322953 L51.7936436,135.322953 L51.7936436,136.932459 L54.7488285,136.932459 L54.7488285,137.823745 Z M60.7026569,137.823745 L59.6857256,137.823745 L59.6857256,135.426792 L57.4345701,132.05202 L58.5992606,132.05202 L60.1898454,134.5182 L61.7804303,132.05202 L62.9451208,132.05202 L60.7026569,135.426792 L60.7026569,137.823745 Z M65.9350726,137.927585 C64.1967285,137.927585 62.9711959,136.664208 62.9711959,134.942209 C62.9711959,133.22021 64.1967285,131.956834 65.9350726,131.956834 C67.6647249,131.956834 68.8989492,133.22021 68.8989492,134.942209 C68.8989492,136.664208 67.6647249,137.927585 65.9350726,137.927585 Z M65.9350726,137.027645 C67.0997631,137.027645 67.8559428,136.127706 67.8559428,134.942209 C67.8559428,133.748059 67.0997631,132.856773 65.9350726,132.856773 C64.7616903,132.856773 64.0142024,133.748059 64.0142024,134.942209 C64.0142024,136.127706 64.7616903,137.027645 65.9350726,137.027645 Z M72.3843291,137.927585 C70.706827,137.927585 69.8724219,136.967073 69.8724219,135.539284 L69.8724219,132.05202 L70.9067366,132.05202 L70.9067366,135.513325 C70.9067366,136.43057 71.4195481,137.027645 72.3843291,137.027645 C73.34911,137.027645 73.8619215,136.43057 73.8619215,135.513325 L73.8619215,132.05202 L74.8962362,132.05202 L74.8962362,135.539284 C74.8962362,136.967073 74.0705228,137.927585 72.3843291,137.927585 Z M80.62408,137.823745 L79.442006,137.823745 L78.1643231,135.669083 L77.1473918,135.669083 L77.1473918,137.823745 L76.1304605,137.823745 L76.1304605,132.05202 L78.6771346,132.05202 C79.8244417,132.05202 80.5806214,132.787547 80.5806214,133.860552 C80.5806214,134.881637 79.9026672,135.444099 79.1986378,135.556591 L80.62408,137.823745 Z M78.5467588,134.777797 C79.1204123,134.777797 79.5376149,134.41436 79.5376149,133.851898 C79.5376149,133.29809 79.1204123,132.943306 78.5467588,132.943306 L77.1473918,132.943306 L77.1473918,134.777797 L78.5467588,134.777797 Z M85.8304204,137.927585 C84.7613388,137.927585 83.9877757,137.546841 83.4662725,137.010339 L84.039926,136.222892 C84.4310535,136.646902 85.0655491,137.027645 85.873879,137.027645 C86.7082842,137.027645 87.0298778,136.620942 87.0298778,136.231545 C87.0298778,135.020089 83.6574904,135.772922 83.6574904,133.652873 C83.6574904,132.692361 84.4918955,131.956834 85.7695784,131.956834 C86.6648256,131.956834 87.4036218,132.251045 87.9338168,132.770241 L87.3601632,133.523074 C86.899502,133.064452 86.2823899,132.856773 85.6739695,132.856773 C85.0829325,132.856773 84.7004968,133.150984 84.7004968,133.574994 C84.7004968,134.656652 88.0728843,133.990351 88.0728843,136.136359 C88.0728843,137.096871 87.3862384,137.927585 85.8304204,137.927585 Z M90.0198296,137.823745 L89.0028984,137.823745 L89.0028984,132.05202 L91.5582641,132.05202 C92.775105,132.05202 93.4443675,132.87408 93.4443675,133.860552 C93.4443675,134.83837 92.7664133,135.66043 91.5582641,135.66043 L90.0198296,135.66043 L90.0198296,137.823745 Z M91.4191966,134.769144 C91.9928502,134.769144 92.401361,134.405707 92.401361,133.860552 C92.401361,133.306743 91.9928502,132.943306 91.4191966,132.943306 L90.0198296,132.943306 L90.0198296,134.769144 L91.4191966,134.769144 Z M98.2682723,137.823745 L94.2961561,137.823745 L94.2961561,132.05202 L98.2682723,132.05202 L98.2682723,132.943306 L95.3130873,132.943306 L95.3130873,134.431667 L98.2074302,134.431667 L98.2074302,135.322953 L95.3130873,135.322953 L95.3130873,136.932459 L98.2682723,136.932459 L98.2682723,137.823745 Z M104.335093,137.823745 L103.352929,137.823745 L100.32821,133.69614 L100.32821,137.823745 L99.3112787,137.823745 L99.3112787,132.05202 L100.354285,132.05202 L103.318162,136.049827 L103.318162,132.05202 L104.335093,132.05202 L104.335093,137.823745 Z M107.733556,137.823745 L105.569317,137.823745 L105.569317,132.05202 L107.724864,132.05202 C109.541434,132.05202 110.758274,133.24617 110.758274,134.933556 C110.758274,136.638249 109.541434,137.823745 107.733556,137.823745 Z M107.724864,136.932459 C108.985163,136.932459 109.715268,136.03252 109.715268,134.933556 C109.715268,133.825939 109.01993,132.943306 107.733556,132.943306 L106.586249,132.943306 L106.586249,136.932459 L107.724864,136.932459 Z M112.75737,137.823745 L111.740439,137.823745 L111.740439,132.05202 L112.75737,132.05202 L112.75737,137.823745 Z M119.015409,137.823745 L118.033244,137.823745 L115.008526,133.69614 L115.008526,137.823745 L113.991594,137.823745 L113.991594,132.05202 L115.034601,132.05202 L117.998477,136.049827 L117.998477,132.05202 L119.015409,132.05202 L119.015409,137.823745 Z M123.039675,137.936238 C121.353481,137.936238 119.997573,136.750741 119.997573,134.942209 C119.997573,133.125024 121.353481,131.956834 123.039675,131.956834 C124.169599,131.956834 124.908395,132.493336 125.369056,133.150984 L124.543343,133.626914 C124.230441,133.194251 123.682863,132.856773 123.039675,132.856773 C121.892368,132.856773 121.04058,133.722099 121.04058,134.942209 C121.04058,136.145013 121.892368,137.027645 123.039675,137.027645 C123.630712,137.027645 124.152215,136.759394 124.412967,136.50845 L124.412967,135.617164 L122.674623,135.617164 L122.674623,134.725878 L125.421207,134.725878 L125.421207,136.88054 C124.856245,137.512228 124.039223,137.936238 123.039675,137.936238 Z M129.740992,137.823745 L128.72406,137.823745 L128.72406,132.05202 L131.279426,132.05202 C132.496267,132.05202 133.165529,132.87408 133.165529,133.860552 C133.165529,134.83837 132.487575,135.66043 131.279426,135.66043 L129.740992,135.66043 L129.740992,137.823745 Z M131.140359,134.769144 C131.714012,134.769144 132.122523,134.405707 132.122523,133.860552 C132.122523,133.306743 131.714012,132.943306 131.140359,132.943306 L129.740992,132.943306 L129.740992,134.769144 L131.140359,134.769144 Z M137.520081,137.823745 L133.947784,137.823745 L133.947784,132.05202 L134.964716,132.05202 L134.964716,136.932459 L137.520081,136.932459 L137.520081,137.823745 Z M143.639052,137.823745 L142.483054,137.823745 L142.057159,136.707475 L139.397493,136.707475 L138.971599,137.823745 L137.8156,137.823745 L140.092831,132.05202 L141.361822,132.05202 L143.639052,137.823745 Z M141.770333,135.816189 L140.727326,133.064452 L139.68432,135.816189 L141.770333,135.816189 Z M149.288671,137.823745 L148.306506,137.823745 L145.281788,133.69614 L145.281788,137.823745 L144.264856,137.823745 L144.264856,132.05202 L145.307863,132.05202 L148.271739,136.049827 L148.271739,132.05202 L149.288671,132.05202 L149.288671,137.823745 Z" id="SEE-YOUR-SPENDING-PL" fill="#13C6B9"></path>
                <path d="M0.51683941,119.097296 L163.486596,119.097296" id="Line-Copy-5" stroke="#000000" stroke-width="0.540828838" opacity="0.1" stroke-linecap="square"></path>
                <text id="2-minutes-ago-copy-18" opacity="0.7" font-family="Helvetica" font-size="6.48994605" font-weight="normal" fill="#B3B3B3">
                    <tspan x="14.0976524" y="102.652899">2 minutes ago</tspan>
                </text>
            </g>
        </g>
    </g>
</svg>