<?xml version="1.0" encoding="UTF-8"?>
<svg width="238px" height="188px" viewBox="0 0 238 188" version="1.1" xmlns="http://www.w3.org/2000/svg" xmlns:xlink="http://www.w3.org/1999/xlink">
    <!-- Generator: Sketch 52.6 (67491) - http://www.bohemiancoding.com/sketch -->
    <desc>Created with Sketch.</desc>
    <defs>
        <rect id="path-1" x="0" y="0.1" width="189.191946" height="138.740761" rx="1.05106637"></rect>
        <filter x="-15.9%" y="-17.3%" width="131.7%" height="143.2%" filterUnits="objectBoundingBox" id="filter-2">
            <feOffset dx="0" dy="6" in="SourceAlpha" result="shadowOffsetOuter1"></feOffset>
            <feGaussianBlur stdDeviation="9" in="shadowOffsetOuter1" result="shadowBlurOuter1"></feGaussianBlur>
            <feColorMatrix values="0 0 0 0 0   0 0 0 0 0   0 0 0 0 0  0 0 0 0.10377038 0" type="matrix" in="shadowBlurOuter1"></feColorMatrix>
        </filter>
        <linearGradient x1="67.236151%" y1="17.9919%" x2="-53.002714%" y2="75.8529284%" id="linearGradient-3">
            <stop stop-color="#7FE5C0" offset="0%"></stop>
            <stop stop-color="#3DB39E" offset="100%"></stop>
        </linearGradient>
        <linearGradient x1="38.1549092%" y1="11.2545687%" x2="38.1549092%" y2="100%" id="linearGradient-4">
            <stop stop-color="#F8E597" offset="0%"></stop>
            <stop stop-color="#EFC75E" offset="100%"></stop>
        </linearGradient>
    </defs>
    <g id="Page-1" stroke="none" stroke-width="1" fill="none" fill-rule="evenodd">
        <g id="card/nudge/bank-fees">
            <g transform="translate(24.000000, 24.000000)">
                <g id="Rectangle-11-Copy-5" fill-rule="nonzero">
                    <use fill="black" fill-opacity="1" filter="url(#filter-2)" xlink:href="#path-1"></use>
                    <use fill="#FFFFFF" xlink:href="#path-1"></use>
                </g>
                <g id="502-6months-bankfees-spend" transform="translate(73.574646, 11.136197)">
                    <path d="M0,21.0211171 C0,32.6313123 9.41166869,42.0426547 21.0213274,42.0426547 C32.630986,42.0426547 42.0426547,32.6313123 42.0426547,21.0211171 C42.0426547,9.41134237 32.630986,7.10542736e-15 21.0213274,7.10542736e-15 C9.41166869,1.00927675e-14 0,9.41134237 0,21.0211171 Z" id="Shape" fill="url(#linearGradient-3)"></path>
                    <g id="Group" transform="translate(25.225593, 12.087263)" fill="#37A18E">
                        <path d="M4.42051095,2.34953759 L7.31391387,2.34953759 C7.6943542,2.34953759 8.01104506,2.60785736 8.10235074,2.95592203 C8.1192135,2.89083677 8.13114082,2.82413448 8.13114082,2.75379388 C8.13114082,2.30749493 7.76509553,1.94528129 7.31391387,1.94528129 L4.42051095,1.94528129 C3.36226991,1.94528129 2.50226913,1.1460666 2.39821356,0.126127964 C2.39122169,0.193638765 2.37764922,0.259128285 2.37764922,0.328256112 C2.37764922,1.444812 3.29235115,2.34953759 4.42051095,2.34953759 L4.42051095,2.34953759 Z M7.31391387,4.77507536 L1.41071386,4.77507536 L0.595543344,3.96656277 L0.187958086,3.96656277 L1.41112515,5.17933166 L7.31473644,5.17933166 C8.44289624,5.17933166 9.35759818,4.27420181 9.35759818,3.15805018 C9.35759818,3.08892235 9.34402571,3.02343283 9.33703383,2.95592203 C9.23215569,3.97586067 8.37215491,4.77507536 7.31391387,4.77507536 L7.31391387,4.77507536 Z" id="Shape"></path>
                    </g>
                    <path d="M29.5411148,11.2835066 L39.4149888,11.2835066 C39.1906588,10.8416259 38.9537496,10.4084011 38.7017452,9.9851305 L29.5411148,9.9851305 C28.3909519,9.9851305 27.45841,10.9541519 27.45841,12.1490907 C27.45841,13.3440295 28.3909519,14.3130508 29.5411148,14.3130508 L32.4909493,14.3130508 C32.9513499,14.3130508 33.3241151,14.7008325 33.3241151,15.1786349 C33.3241151,15.6564373 32.9509306,16.044219 32.4909493,16.044219 L25.2255928,16.044219 L26.472616,17.3425951 L32.4913686,17.3425951 C33.6415316,17.3425951 34.5740734,16.3735737 34.5740734,15.1786349 C34.5740734,13.9836961 33.6415316,13.0146747 32.4913686,13.0146747 L29.5411148,13.0146747 C29.0807142,13.0146747 28.707949,12.6268931 28.707949,12.1490907 C28.707949,11.6712883 29.0807142,11.2835066 29.5411148,11.2835066 L29.5411148,11.2835066 Z" id="Shape" fill="#E4E7E7"></path>
                    <g id="Group" transform="translate(10.510664, 12.612796)" fill="#37A18E">
                        <path d="M6.72682476,4.01278591 C6.72682476,3.19611765 6.06801636,2.53407979 5.25533184,2.53407979 C4.74115017,2.53407979 4.29045291,2.79982441 4.0272659,3.2011875 C4.25934135,3.04740206 4.53640244,2.95656726 4.83490529,2.95656726 C5.64758981,2.95656726 6.30639821,3.61860511 6.30639821,4.43527337 C6.30639821,4.73523947 6.2160065,5.01408119 6.06297124,5.24687179 C6.46237646,4.98281712 6.72682476,4.52948808 6.72682476,4.01278591 L6.72682476,4.01278591 Z M13.1883604,20.2734833 C12.6186824,20.8455314 11.6954257,20.8455314 11.1261681,20.2734833 L1.41137192,10.6103501 C1.34116069,10.5397947 0.834546696,9.75185559 0.834546696,9.10629475 L0.838750962,0.946371914 C0.838750962,0.602044633 0.881634469,0.342214844 0.969924044,0.141110812 C0.57598437,0.314753159 0.418324414,0.6840072 0.418324414,1.36885938 L0.414120149,9.52878221 C0.414120149,10.1739206 0.920734138,10.9622822 0.990945372,11.0328376 L10.7057416,20.6959708 C11.2749991,21.2680188 12.1982558,21.2680188 12.7679338,20.6959708 L21.0162822,12.4135266 L21.0179639,12.4118366 L13.1883604,20.2734833 L13.1883604,20.2734833 Z" id="Shape"></path>
                    </g>
                    <path d="M22.5362679,12.6667443 C22.4652421,12.5956759 21.7709543,12.0893658 21.0535516,12.0872632 C19.0602061,12.1082894 15.010054,12.0948327 12.8965109,12.0948327 C11.9080334,12.0948327 11.5659328,12.4207382 11.5659328,13.4442918 L11.56173,21.5662782 C11.56173,22.2084172 12.0681567,22.9931137 12.1383419,23.063341 L21.849545,32.6815492 C22.418592,33.2509377 23.3415072,33.2509377 23.9109745,32.6815492 L32.1562722,24.4376111 C32.7253192,23.8682226 32.7253192,22.9455945 32.1562722,22.376206 L22.5362679,12.6667443 Z M15.9808801,17.9682811 C15.1684962,17.9682811 14.5099314,17.3093212 14.5099314,16.4964497 C14.5099314,15.6835782 15.1684962,15.0246183 15.9808801,15.0246183 C16.793264,15.0246183 17.4518288,15.6835782 17.4518288,16.4964497 C17.4518288,17.3093212 16.793264,17.9682811 15.9808801,17.9682811 L15.9808801,17.9682811 Z" id="Shape" fill="url(#linearGradient-4)"></path>
                    <path d="M16.0287621,14.189396 C14.7224777,14.189396 13.6638628,15.2480109 13.6638628,16.5542953 C13.6638628,17.8605797 14.7224777,18.9191946 16.0287621,18.9191946 C17.3350465,18.9191946 18.3936614,17.8605797 18.3936614,16.5542953 C18.3936614,15.2480109 17.3350465,14.189396 16.0287621,14.189396 L16.0287621,14.189396 Z M16.0287621,17.6292495 C15.4349574,17.6292495 14.9538079,17.1481 14.9538079,16.5542953 C14.9538079,15.9604906 15.4349574,15.4793411 16.0287621,15.4793411 C16.6225668,15.4793411 17.1037164,15.9604906 17.1037164,16.5542953 C17.1037164,17.1481 16.6225668,17.6292495 16.0287621,17.6292495 L16.0287621,17.6292495 Z" id="Shape" fill="#30444D"></path>
                    <path d="M22.5979269,21.7220383 C23.5477565,21.7220383 24.3178537,20.9768979 24.3178537,20.0578499 C24.3178537,19.1388018 23.5477565,18.3936614 22.5979269,18.3936614 C21.6480973,18.3936614 20.8780001,19.1388018 20.8780001,20.0578499 C20.8780001,20.9768979 21.6480973,21.7220383 22.5979269,21.7220383 L22.5979269,21.7220383 Z M22.5979269,19.2257556 C23.0726267,19.2257556 23.4578903,19.5985339 23.4578903,20.0578499 C23.4578903,20.5171659 23.0726267,20.8899441 22.5979269,20.8899441 C22.1232271,20.8899441 21.7379635,20.5171659 21.7379635,20.0578499 C21.7379635,19.5985339 22.1232271,19.2257556 22.5979269,19.2257556 L22.5979269,19.2257556 Z M22.5979269,25.0504151 C21.6480973,25.0504151 20.8780001,25.7955555 20.8780001,26.7146035 C20.8780001,27.6336516 21.6480973,28.3787919 22.5979269,28.3787919 C23.5477565,28.3787919 24.3178537,27.6336516 24.3178537,26.7146035 C24.3178537,25.7955555 23.5477565,25.0504151 22.5979269,25.0504151 L22.5979269,25.0504151 Z M22.5979269,27.5466977 C22.1232271,27.5466977 21.7379635,27.1739195 21.7379635,26.7146035 C21.7379635,26.2552875 22.1232271,25.8825093 22.5979269,25.8825093 C23.0726267,25.8825093 23.4578903,26.2552875 23.4578903,26.7146035 C23.4578903,27.1739195 23.0726267,27.5466977 22.5979269,27.5466977 L22.5979269,27.5466977 Z M26.8977439,22.9701796 L18.29811,22.9701796 C18.0607601,22.9701796 17.8681283,23.1561526 17.8681283,23.3862267 C17.8681283,23.6163007 18.0607601,23.8022738 18.29811,23.8022738 L26.8977439,23.8022738 C27.1355237,23.8022738 27.3277256,23.6163007 27.3277256,23.3862267 C27.3277256,23.1561526 27.1355237,22.9701796 26.8977439,22.9701796 L26.8977439,22.9701796 Z" id="Shape" fill="#D07C40"></path>
                    <polygon id="Shape" fill="#CDCFCF" points="26.4877646 15.7659955 25.2255928 15.7659955 26.5792527 16.8170619 27.8532588 16.8170619"></polygon>
                    <path d="M0.790016854,15.7659955 C0.688548276,16.1121467 0.601634617,16.4632029 0.525533184,16.8170619 L16.6045601,16.8170619 C16.7359702,16.670263 16.8170619,16.4894795 16.8170619,16.2915287 C16.8170619,16.0935779 16.7359702,15.9127945 16.6045601,15.7659955 L0.790016854,15.7659955 L0.790016854,15.7659955 Z" id="Shape" fill="#E4E7E7"></path>
                    <path d="M32.1535069,22.2501906 L22.4711714,12.659647 C22.3996854,12.589449 21.7008991,12.0893401 20.9788482,12.0872632 C18.9725871,12.1080319 14.8961927,12.0947399 12.7689553,12.0947399 C12.1073925,12.0947399 11.7376956,12.243028 11.56173,12.6359708 C11.7601143,12.550404 12.0139108,12.5101128 12.3459611,12.5101128 C14.4731986,12.5101128 18.5500159,12.5234047 20.5558541,12.5026361 C21.277905,12.5047129 21.9766913,13.0044065 22.0481773,13.0750199 L31.7305128,22.6655635 C32.3028238,23.2275629 32.3032468,24.1372294 31.7322047,24.7000596 L32.1535069,24.2863483 C32.7262409,23.7239335 32.7262409,22.8126054 32.1535069,22.2501906 L32.1535069,22.2501906 Z" id="Shape" fill="#F2D27E"></path>
                    <path d="M39.7253824,11.0361969 L29.8499326,11.0361969 C29.3894585,11.0361969 29.0166338,11.4082852 29.0166338,11.8667511 C29.0166338,11.9390093 29.0287957,12.00753 29.0459901,12.0743896 C29.1390914,11.716836 29.4620104,11.451474 29.8499326,11.451474 L39.940522,11.451474 C39.8704863,11.3123561 39.7983538,11.1740689 39.7253824,11.0361969 L39.7253824,11.0361969 Z M16.7406797,16.9666929 L0.61444075,16.9666929 L0.525533184,17.38197 L15.9065422,17.38197 C16.248333,17.38197 16.5490251,17.2175202 16.7406797,16.9666929 L16.7406797,16.9666929 Z" id="Shape" fill="#37A18E"></path>
                    <path d="M11.56173,17.8681283 L14.7149292,17.8681283 C14.600374,17.7178258 14.5084953,17.5391445 14.4389021,17.3425951 L11.562121,17.3425951 L11.56173,17.8681283 L11.56173,17.8681283 Z" id="Shape" fill="#D7B354"></path>
                    <path d="M13.8200916,17.8681283 L15.7659955,17.8681283 C15.4420095,17.8681283 15.1569813,17.6600171 14.9753106,17.3425951 L13.6638628,17.3425951 C13.7032181,17.5260062 13.755692,17.7015342 13.8200916,17.8681283 L13.8200916,17.8681283 Z" id="Shape" fill="#273A45"></path>
                    <polygon id="Shape" fill="#319180" points="11.0361969 17.8681283 11.5612045 17.8681283 11.56173 17.3425951 11.0367224 17.3425951"></polygon>
                </g>
                <path d="M20.3948918,66.3831171 L19.907197,66.3831171 L19.907197,63.9866857 L17.6789363,60.7746269 L18.2591249,60.7746269 L20.1510444,63.5326251 L22.0429639,60.7746269 L22.6231525,60.7746269 L20.3948918,63.9866857 L20.3948918,66.3831171 Z M24.0610113,66.4840194 C22.8754084,66.4840194 22.1186406,65.5338554 22.1186406,64.3482526 C22.1186406,63.1626497 22.8754084,62.2208942 24.0610113,62.2208942 C25.2634312,62.2208942 26.020199,63.1626497 26.020199,64.3482526 C26.020199,65.5338554 25.2634312,66.4840194 24.0610113,66.4840194 Z M24.0610113,66.0888185 C25.0195838,66.0888185 25.5493213,65.2563739 25.5493213,64.3482526 C25.5493213,63.4485398 25.0195838,62.6160952 24.0610113,62.6160952 C23.1192558,62.6160952 22.5811099,63.4485398 22.5811099,64.3482526 C22.5811099,65.2563739 23.1192558,66.0888185 24.0610113,66.0888185 Z M30.3253668,66.3831171 L29.8881232,66.3831171 L29.8881232,65.7861114 C29.5601905,66.1560867 29.013636,66.4840194 28.4250389,66.4840194 C27.6010028,66.4840194 27.1469422,66.097227 27.1469422,65.1806971 L27.1469422,62.3217966 L27.5841858,62.3217966 L27.5841858,65.0797948 C27.5841858,65.8701967 27.9793867,66.0888185 28.5679839,66.0888185 C29.0893128,66.0888185 29.6190503,65.7777028 29.8881232,65.416136 L29.8881232,62.3217966 L30.3253668,62.3217966 L30.3253668,66.3831171 Z M32.1247925,66.3831171 L31.6875489,66.3831171 L31.6875489,62.3217966 L32.1247925,62.3217966 L32.1247925,63.0197047 C32.4695422,62.565644 32.9320114,62.2377113 33.495383,62.2377113 L33.495383,62.7169976 C33.4197062,62.7001805 33.3608465,62.7001805 33.2767612,62.7001805 C32.8647432,62.7001805 32.3097802,63.0701559 32.1247925,63.4233142 L32.1247925,66.3831171 Z M36.9681063,65.3656848 C37.2035452,65.7524772 37.7416911,66.0888185 38.3050627,66.0888185 C39.2131841,66.0888185 39.7261044,65.3404592 39.7261044,64.3566611 C39.7261044,63.372863 39.2131841,62.6160952 38.3050627,62.6160952 C37.7416911,62.6160952 37.2035452,62.9692535 36.9681063,63.3560459 L36.9681063,65.3656848 Z M36.9681063,66.3831171 L36.5308627,66.3831171 L36.5308627,60.7746269 L36.9681063,60.7746269 L36.9681063,62.977662 C37.296039,62.5151928 37.8089594,62.2208942 38.3807395,62.2208942 C39.46544,62.2208942 40.1969822,63.0701559 40.1969822,64.3566611 C40.1969822,65.6599834 39.4570315,66.4840194 38.3807395,66.4840194 C37.7753253,66.4840194 37.2539963,66.1560867 36.9681063,65.7356602 L36.9681063,66.3831171 Z M44.3507965,66.3831171 L43.9135529,66.3831171 L43.9135529,65.9038308 C43.551986,66.2990317 43.0979254,66.4840194 42.5345538,66.4840194 C41.8366457,66.4840194 41.1135121,66.0047332 41.1135121,65.1302459 C41.1135121,64.2473502 41.8282372,63.784881 42.5345538,63.784881 C43.0979254,63.784881 43.5603946,63.9698687 43.9135529,64.3650696 L43.9135529,63.5410336 C43.9135529,62.9356194 43.4258581,62.6076867 42.8288524,62.6076867 C42.315932,62.6076867 41.920731,62.7842658 41.5507557,63.2046924 L41.3069083,62.9019852 C41.7273348,62.4479246 42.1982125,62.2208942 42.870895,62.2208942 C43.6949311,62.2208942 44.3507965,62.6160952 44.3507965,63.5242165 L44.3507965,66.3831171 Z M42.6859073,66.1392697 C43.1736021,66.1392697 43.6276628,65.954282 43.9135529,65.5843066 L43.9135529,64.6930023 C43.6276628,64.3146184 43.1736021,64.1296308 42.6859073,64.1296308 C42.0216334,64.1296308 41.5759813,64.5584658 41.5759813,65.1386545 C41.5759813,65.7104346 42.0216334,66.1392697 42.6859073,66.1392697 Z M48.8914032,66.3831171 L48.4541596,66.3831171 L48.4541596,63.6335274 C48.4541596,62.8515341 48.0589586,62.6160952 47.4703614,62.6160952 C46.9490325,62.6160952 46.4108865,62.9440279 46.1502221,63.3140033 L46.1502221,66.3831171 L45.7129785,66.3831171 L45.7129785,62.3217966 L46.1502221,62.3217966 L46.1502221,62.9356194 C46.4445207,62.5824611 47.0247093,62.2208942 47.6133065,62.2208942 C48.4373425,62.2208942 48.8914032,62.6245037 48.8914032,63.5410336 L48.8914032,66.3831171 Z M53.6590402,66.3831171 L53.0704431,66.3831171 L51.4475966,64.4491549 L50.6908288,65.1638801 L50.6908288,66.3831171 L50.2535852,66.3831171 L50.2535852,60.7746269 L50.6908288,60.7746269 L50.6908288,64.6425512 L53.0788516,62.3217966 L53.6674488,62.3217966 L51.7755293,64.1548564 L53.6590402,66.3831171 Z M58.4182687,66.4840194 C57.2242573,66.4840194 56.4506725,65.5338554 56.4506725,64.3482526 C56.4506725,63.1626497 57.2242573,62.2208942 58.4182687,62.2208942 C59.1245853,62.2208942 59.5281948,62.4983758 59.8561275,62.9103938 L59.5534204,63.1794668 C59.2591218,62.7758573 58.8891465,62.6160952 58.4434943,62.6160952 C57.4933303,62.6160952 56.9131417,63.372863 56.9131417,64.3482526 C56.9131417,65.3236422 57.4933303,66.0888185 58.4434943,66.0888185 C58.8891465,66.0888185 59.2591218,65.9206479 59.5534204,65.5170384 L59.8561275,65.7861114 C59.5281948,66.2065379 59.1245853,66.4840194 58.4182687,66.4840194 Z M64.0099418,66.3831171 L63.5726982,66.3831171 L63.5726982,63.6167104 C63.5726982,62.834717 63.1774972,62.6160952 62.5889001,62.6160952 C62.0675712,62.6160952 61.5294252,62.9440279 61.2687607,63.3140033 L61.2687607,66.3831171 L60.8315171,66.3831171 L60.8315171,60.7746269 L61.2687607,60.7746269 L61.2687607,62.9356194 C61.5630593,62.5824611 62.1432479,62.2208942 62.7318451,62.2208942 C63.5558811,62.2208942 64.0099418,62.6076867 64.0099418,63.5242165 L64.0099418,66.3831171 Z M68.3907864,66.3831171 L67.9535428,66.3831171 L67.9535428,65.9038308 C67.591976,66.2990317 67.1379153,66.4840194 66.5745437,66.4840194 C65.8766357,66.4840194 65.153502,66.0047332 65.153502,65.1302459 C65.153502,64.2473502 65.8682271,63.784881 66.5745437,63.784881 C67.1379153,63.784881 67.6003845,63.9698687 67.9535428,64.3650696 L67.9535428,63.5410336 C67.9535428,62.9356194 67.465848,62.6076867 66.8688423,62.6076867 C66.3559219,62.6076867 65.960721,62.7842658 65.5907456,63.2046924 L65.3468982,62.9019852 C65.7673248,62.4479246 66.2382025,62.2208942 66.910885,62.2208942 C67.734921,62.2208942 68.3907864,62.6160952 68.3907864,63.5242165 L68.3907864,66.3831171 Z M66.7258973,66.1392697 C67.2135921,66.1392697 67.6676528,65.954282 67.9535428,65.5843066 L67.9535428,64.6930023 C67.6676528,64.3146184 67.2135921,64.1296308 66.7258973,64.1296308 C66.0616234,64.1296308 65.6159712,64.5584658 65.6159712,65.1386545 C65.6159712,65.7104346 66.0616234,66.1392697 66.7258973,66.1392697 Z M70.1902121,66.3831171 L69.7529684,66.3831171 L69.7529684,62.3217966 L70.1902121,62.3217966 L70.1902121,63.0197047 C70.5349618,62.565644 70.997431,62.2377113 71.5608026,62.2377113 L71.5608026,62.7169976 C71.4851258,62.7001805 71.4262661,62.7001805 71.3421808,62.7001805 C70.9301628,62.7001805 70.3751997,63.0701559 70.1902121,63.4233142 L70.1902121,66.3831171 Z M74.0329107,68.0311891 C73.3434112,68.0311891 72.9061675,67.9050612 72.4268813,67.4173664 L72.6791372,67.0642081 C73.0322955,67.4846346 73.4190879,67.6359882 74.0329107,67.6359882 C74.7644529,67.6359882 75.4119098,67.2660128 75.4119098,66.3494829 L75.4119098,65.702026 C75.1260197,66.1224526 74.6046908,66.4672024 73.9992766,66.4672024 C72.9229846,66.4672024 72.1914424,65.6515749 72.1914424,64.3482526 C72.1914424,63.0617473 72.9229846,62.2208942 73.9992766,62.2208942 C74.5794652,62.2208942 75.0839771,62.5151928 75.4119098,62.977662 L75.4119098,62.3217966 L75.8575619,62.3217966 L75.8575619,66.3494829 C75.8575619,67.585537 75.0167088,68.0311891 74.0329107,68.0311891 Z M74.0749534,66.0720014 C74.6383249,66.0720014 75.1764709,65.7272516 75.4119098,65.3320507 L75.4119098,63.3560459 C75.1764709,62.960845 74.6383249,62.6160952 74.0749534,62.6160952 C73.1752405,62.6160952 72.6539116,63.3644544 72.6539116,64.3482526 C72.6539116,65.3320507 73.1752405,66.0720014 74.0749534,66.0720014 Z M79.010761,66.4840194 C77.8251582,66.4840194 76.9843051,65.6011237 76.9843051,64.3482526 C76.9843051,63.1710582 77.8083411,62.2208942 78.9350842,62.2208942 C80.1711383,62.2208942 80.8522293,63.1962838 80.8522293,64.3734782 L80.8522293,64.4911976 L77.4551828,64.4911976 C77.4972254,65.3740933 78.0858226,66.1056355 79.0443951,66.1056355 C79.5573155,66.1056355 80.0281933,65.9122393 80.372943,65.542264 L80.5999734,65.828154 C80.1963639,66.2485806 79.6834435,66.4840194 79.010761,66.4840194 Z M80.4065772,64.1464478 C80.3981686,63.4569483 79.944108,62.5992781 78.9266757,62.5992781 C77.9681032,62.5992781 77.4888169,63.4401312 77.4551828,64.1464478 L80.4065772,64.1464478 Z M83.1898009,66.4840194 C82.5339355,66.4840194 82.0294236,66.2906232 81.6258141,65.8365625 L81.8864786,65.5170384 C82.1471431,65.8449711 82.6264293,66.1140441 83.1982094,66.1140441 C83.8793004,66.1140441 84.2829099,65.7608858 84.2829099,65.290008 C84.2829099,64.1800819 81.718308,64.8107218 81.718308,63.3476374 C81.718308,62.7254061 82.2480454,62.2208942 83.1645753,62.2208942 C83.8624834,62.2208942 84.3249526,62.4899672 84.6192512,62.8178999 L84.3754038,63.1290156 C84.1399649,62.8094914 83.7027213,62.5908696 83.1645753,62.5908696 C82.5339355,62.5908696 82.1555516,62.9103938 82.1555516,63.3308203 C82.1555516,64.3482526 84.711745,63.7260213 84.711745,65.290008 C84.711745,65.9458734 84.2072331,66.4840194 83.1898009,66.4840194 Z M91.0349603,66.3831171 L90.5977167,66.3831171 L90.5977167,65.9038308 C90.2361498,66.2990317 89.7820892,66.4840194 89.2187176,66.4840194 C88.5208095,66.4840194 87.7976759,66.0047332 87.7976759,65.1302459 C87.7976759,64.2473502 88.512401,63.784881 89.2187176,63.784881 C89.7820892,63.784881 90.2445584,63.9698687 90.5977167,64.3650696 L90.5977167,63.5410336 C90.5977167,62.9356194 90.1100219,62.6076867 89.5130162,62.6076867 C89.0000958,62.6076867 88.6048948,62.7842658 88.2349195,63.2046924 L87.9910721,62.9019852 C88.4114986,62.4479246 88.8823763,62.2208942 89.5550588,62.2208942 C90.3790949,62.2208942 91.0349603,62.6160952 91.0349603,63.5242165 L91.0349603,66.3831171 Z M89.3700711,66.1392697 C89.8577659,66.1392697 90.3118266,65.954282 90.5977167,65.5843066 L90.5977167,64.6930023 C90.3118266,64.3146184 89.8577659,64.1296308 89.3700711,64.1296308 C88.7057972,64.1296308 88.2601451,64.5584658 88.2601451,65.1386545 C88.2601451,65.7104346 88.7057972,66.1392697 89.3700711,66.1392697 Z M95.575567,66.3831171 L95.1383234,66.3831171 L95.1383234,63.6335274 C95.1383234,62.8515341 94.7431224,62.6160952 94.1545252,62.6160952 C93.6331963,62.6160952 93.0950503,62.9440279 92.8343859,63.3140033 L92.8343859,66.3831171 L92.3971423,66.3831171 L92.3971423,62.3217966 L92.8343859,62.3217966 L92.8343859,62.9356194 C93.1286845,62.5824611 93.7088731,62.2208942 94.2974703,62.2208942 C95.1215063,62.2208942 95.575567,62.6245037 95.575567,63.5410336 L95.575567,66.3831171 Z M100.376838,66.3831171 L99.931186,66.3831171 L99.931186,65.7356602 C99.645296,66.1560867 99.123967,66.4840194 98.5185528,66.4840194 C97.4422608,66.4840194 96.7107187,65.6599834 96.7107187,64.3566611 C96.7107187,63.0701559 97.4422608,62.2208942 98.5185528,62.2208942 C99.0987414,62.2208942 99.6116618,62.5151928 99.931186,62.977662 L99.931186,60.7746269 L100.376838,60.7746269 L100.376838,66.3831171 Z M98.5942296,66.0888185 C99.1660097,66.0888185 99.6957471,65.7524772 99.931186,65.3656848 L99.931186,63.3560459 C99.6957471,62.960845 99.1660097,62.6160952 98.5942296,62.6160952 C97.6945168,62.6160952 97.1731879,63.372863 97.1731879,64.3566611 C97.1731879,65.3404592 97.6945168,66.0888185 98.5942296,66.0888185 Z M104.505427,66.3831171 L104.059775,66.3831171 L104.059775,62.708589 L103.387092,62.708589 L103.387092,62.3217966 L104.059775,62.3217966 L104.059775,61.9518212 C104.059775,61.1614193 104.480201,60.6905416 105.161292,60.6905416 C105.447182,60.6905416 105.674213,60.7494013 105.934877,60.9764317 L105.724664,61.2959558 C105.590127,61.1698279 105.421957,61.0857426 105.203335,61.0857426 C104.740866,61.0857426 104.505427,61.4052667 104.505427,61.9518212 L104.505427,62.3217966 L105.329463,62.3217966 L105.329463,62.708589 L104.505427,62.708589 L104.505427,66.3831171 Z M107.944516,66.4840194 C106.758913,66.4840194 105.91806,65.6011237 105.91806,64.3482526 C105.91806,63.1710582 106.742096,62.2208942 107.868839,62.2208942 C109.104893,62.2208942 109.785984,63.1962838 109.785984,64.3734782 L109.785984,64.4911976 L106.388938,64.4911976 C106.43098,65.3740933 107.019578,66.1056355 107.97815,66.1056355 C108.491071,66.1056355 108.961948,65.9122393 109.306698,65.542264 L109.533728,65.828154 C109.130119,66.2485806 108.617198,66.4840194 107.944516,66.4840194 Z M109.340332,64.1464478 C109.331924,63.4569483 108.877863,62.5992781 107.860431,62.5992781 C106.901858,62.5992781 106.422572,63.4401312 106.388938,64.1464478 L109.340332,64.1464478 Z M112.712153,66.4840194 C111.52655,66.4840194 110.685697,65.6011237 110.685697,64.3482526 C110.685697,63.1710582 111.509733,62.2208942 112.636476,62.2208942 C113.87253,62.2208942 114.553621,63.1962838 114.553621,64.3734782 L114.553621,64.4911976 L111.156575,64.4911976 C111.198617,65.3740933 111.787215,66.1056355 112.745787,66.1056355 C113.258708,66.1056355 113.729585,65.9122393 114.074335,65.542264 L114.301365,65.828154 C113.897756,66.2485806 113.384836,66.4840194 112.712153,66.4840194 Z M114.107969,64.1464478 C114.099561,63.4569483 113.6455,62.5992781 112.628068,62.5992781 C111.669495,62.5992781 111.190209,63.4401312 111.156575,64.1464478 L114.107969,64.1464478 Z M116.891193,66.4840194 C116.235328,66.4840194 115.730816,66.2906232 115.327206,65.8365625 L115.587871,65.5170384 C115.848535,65.8449711 116.327821,66.1140441 116.899601,66.1140441 C117.580692,66.1140441 117.984302,65.7608858 117.984302,65.290008 C117.984302,64.1800819 115.4197,64.8107218 115.4197,63.3476374 C115.4197,62.7254061 115.949437,62.2208942 116.865967,62.2208942 C117.563875,62.2208942 118.026345,62.4899672 118.320643,62.8178999 L118.076796,63.1290156 C117.841357,62.8094914 117.404113,62.5908696 116.865967,62.5908696 C116.235328,62.5908696 115.856944,62.9103938 115.856944,63.3308203 C115.856944,64.3482526 118.413137,63.7260213 118.413137,65.290008 C118.413137,65.9458734 117.908625,66.4840194 116.891193,66.4840194 Z M124.896114,66.3831171 L124.458871,66.3831171 L124.458871,63.6167104 C124.458871,62.834717 124.06367,62.6160952 123.475073,62.6160952 C122.953744,62.6160952 122.415598,62.9440279 122.154933,63.3140033 L122.154933,66.3831171 L121.71769,66.3831171 L121.71769,60.7746269 L122.154933,60.7746269 L122.154933,62.9356194 C122.449232,62.5824611 123.029421,62.2208942 123.618018,62.2208942 C124.442054,62.2208942 124.896114,62.6076867 124.896114,63.5242165 L124.896114,66.3831171 Z M129.276959,66.3831171 L128.839715,66.3831171 L128.839715,65.9038308 C128.478149,66.2990317 128.024088,66.4840194 127.460716,66.4840194 C126.762808,66.4840194 126.039675,66.0047332 126.039675,65.1302459 C126.039675,64.2473502 126.7544,63.784881 127.460716,63.784881 C128.024088,63.784881 128.486557,63.9698687 128.839715,64.3650696 L128.839715,63.5410336 C128.839715,62.9356194 128.352021,62.6076867 127.755015,62.6076867 C127.242095,62.6076867 126.846894,62.7842658 126.476918,63.2046924 L126.233071,62.9019852 C126.653497,62.4479246 127.124375,62.2208942 127.797058,62.2208942 C128.621094,62.2208942 129.276959,62.6160952 129.276959,63.5242165 L129.276959,66.3831171 Z M127.61207,66.1392697 C128.099765,66.1392697 128.553825,65.954282 128.839715,65.5843066 L128.839715,64.6930023 C128.553825,64.3146184 128.099765,64.1296308 127.61207,64.1296308 C126.947796,64.1296308 126.502144,64.5584658 126.502144,65.1386545 C126.502144,65.7104346 126.947796,66.1392697 127.61207,66.1392697 Z M132.228353,66.3831171 L131.73225,66.3831171 L130.01691,62.3217966 L130.504605,62.3217966 L131.984506,65.8701967 L133.44759,62.3217966 L133.943694,62.3217966 L132.228353,66.3831171 Z M136.48307,66.4840194 C135.297467,66.4840194 134.456614,65.6011237 134.456614,64.3482526 C134.456614,63.1710582 135.28065,62.2208942 136.407393,62.2208942 C137.643447,62.2208942 138.324538,63.1962838 138.324538,64.3734782 L138.324538,64.4911976 L134.927492,64.4911976 C134.969534,65.3740933 135.558132,66.1056355 136.516704,66.1056355 C137.029625,66.1056355 137.500502,65.9122393 137.845252,65.542264 L138.072282,65.828154 C137.668673,66.2485806 137.155752,66.4840194 136.48307,66.4840194 Z M137.878886,64.1464478 C137.870478,63.4569483 137.416417,62.5992781 136.398985,62.5992781 C135.440412,62.5992781 134.961126,63.4401312 134.927492,64.1464478 L137.878886,64.1464478 Z M143.369657,66.4840194 C142.175645,66.4840194 141.402061,65.5338554 141.402061,64.3482526 C141.402061,63.1626497 142.175645,62.2208942 143.369657,62.2208942 C144.075973,62.2208942 144.479583,62.4983758 144.807516,62.9103938 L144.504809,63.1794668 C144.21051,62.7758573 143.840535,62.6160952 143.394882,62.6160952 C142.444718,62.6160952 141.86453,63.372863 141.86453,64.3482526 C141.86453,65.3236422 142.444718,66.0888185 143.394882,66.0888185 C143.840535,66.0888185 144.21051,65.9206479 144.504809,65.5170384 L144.807516,65.7861114 C144.479583,66.2065379 144.075973,66.4840194 143.369657,66.4840194 Z M147.498246,66.4840194 C146.312643,66.4840194 145.555875,65.5338554 145.555875,64.3482526 C145.555875,63.1626497 146.312643,62.2208942 147.498246,62.2208942 C148.700665,62.2208942 149.457433,63.1626497 149.457433,64.3482526 C149.457433,65.5338554 148.700665,66.4840194 147.498246,66.4840194 Z M147.498246,66.0888185 C148.456818,66.0888185 148.986556,65.2563739 148.986556,64.3482526 C148.986556,63.4485398 148.456818,62.6160952 147.498246,62.6160952 C146.55649,62.6160952 146.018344,63.4485398 146.018344,64.3482526 C146.018344,65.2563739 146.55649,66.0888185 147.498246,66.0888185 Z M151.795005,66.4840194 C151.139139,66.4840194 150.634628,66.2906232 150.231018,65.8365625 L150.491683,65.5170384 C150.752347,65.8449711 151.231633,66.1140441 151.803413,66.1140441 C152.484504,66.1140441 152.888114,65.7608858 152.888114,65.290008 C152.888114,64.1800819 150.323512,64.8107218 150.323512,63.3476374 C150.323512,62.7254061 150.853249,62.2208942 151.769779,62.2208942 C152.467687,62.2208942 152.930157,62.4899672 153.224455,62.8178999 L152.980608,63.1290156 C152.745169,62.8094914 152.307925,62.5908696 151.769779,62.5908696 C151.139139,62.5908696 150.760756,62.9103938 150.760756,63.3308203 C150.760756,64.3482526 153.316949,63.7260213 153.316949,65.290008 C153.316949,65.9458734 152.812437,66.4840194 151.795005,66.4840194 Z M155.326588,66.4840194 C154.788442,66.4840194 154.527777,66.1560867 154.527777,65.6011237 L154.527777,62.708589 L153.855095,62.708589 L153.855095,62.3217966 L154.527777,62.3217966 L154.527777,61.2118705 L154.97343,61.2118705 L154.97343,62.3217966 L155.797466,62.3217966 L155.797466,62.708589 L154.97343,62.708589 L154.97343,65.5338554 C154.97343,65.8617881 155.107966,66.0888185 155.393856,66.0888185 C155.587252,66.0888185 155.755423,65.9963246 155.847917,65.8954223 L156.016087,66.2317635 C155.856325,66.3831171 155.662929,66.4840194 155.326588,66.4840194 Z M158.664775,67.9723294 L158.740451,67.5687199 C158.832945,67.6107626 158.992707,67.6359882 159.09361,67.6359882 C159.362683,67.6359882 159.54767,67.5266773 159.715841,67.1398848 L160.035365,66.4167512 L158.311616,62.3217966 L158.799311,62.3217966 L160.279213,65.8701967 L161.742297,62.3217966 L162.2384,62.3217966 L160.136268,67.2744213 C159.917646,67.7873417 159.572896,68.0311891 159.102018,68.0311891 C158.959073,68.0311891 158.774086,68.0059635 158.664775,67.9723294 Z M164.693691,66.4840194 C163.508088,66.4840194 162.751321,65.5338554 162.751321,64.3482526 C162.751321,63.1626497 163.508088,62.2208942 164.693691,62.2208942 C165.896111,62.2208942 166.652879,63.1626497 166.652879,64.3482526 C166.652879,65.5338554 165.896111,66.4840194 164.693691,66.4840194 Z M164.693691,66.0888185 C165.652264,66.0888185 166.182001,65.2563739 166.182001,64.3482526 C166.182001,63.4485398 165.652264,62.6160952 164.693691,62.6160952 C163.751936,62.6160952 163.21379,63.4485398 163.21379,64.3482526 C163.21379,65.2563739 163.751936,66.0888185 164.693691,66.0888185 Z M170.958047,66.3831171 L170.520803,66.3831171 L170.520803,65.7861114 C170.192871,66.1560867 169.646316,66.4840194 169.057719,66.4840194 C168.233683,66.4840194 167.779622,66.097227 167.779622,65.1806971 L167.779622,62.3217966 L168.216866,62.3217966 L168.216866,65.0797948 C168.216866,65.8701967 168.612067,66.0888185 169.200664,66.0888185 C169.721993,66.0888185 170.25173,65.7777028 170.520803,65.416136 L170.520803,62.3217966 L170.958047,62.3217966 L170.958047,66.3831171 Z M22.8922255,77.3831171 L21.7486653,77.3831171 L20.5126112,75.2893929 L19.5288131,75.2893929 L19.5288131,77.3831171 L18.545015,77.3831171 L18.545015,71.7746269 L21.0087146,71.7746269 C22.1186406,71.7746269 22.8501828,72.489352 22.8501828,73.5320099 C22.8501828,74.5242165 22.1943174,75.070771 21.5132264,75.1800819 L22.8922255,77.3831171 Z M20.8825866,74.4233142 C21.4375496,74.4233142 21.8411591,74.0701559 21.8411591,73.5236014 C21.8411591,72.9854554 21.4375496,72.6407056 20.8825866,72.6407056 L19.5288131,72.6407056 L19.5288131,74.4233142 L20.8825866,74.4233142 Z M27.7187223,77.3831171 L23.6574018,77.3831171 L23.6574018,76.6011237 C25.8352113,74.9530516 26.6928815,74.229918 26.6928815,73.4142905 C26.6928815,72.8256933 26.1799611,72.5650288 25.6670407,72.5650288 C25.0111753,72.5650288 24.515072,72.8256933 24.1535051,73.2293028 L23.581725,72.5902544 C24.0778284,71.9848402 24.8682303,71.6905416 25.6586322,71.6905416 C26.7433327,71.6905416 27.6850881,72.2959558 27.6850881,73.4142905 C27.6850881,74.4569483 26.7349241,75.3818867 25.2382056,76.5170384 L27.7187223,76.5170384 L27.7187223,77.3831171 Z M29.9049403,77.0635929 C29.9049403,77.6437815 29.5854161,78.173519 29.1229469,78.5014517 L28.7193374,78.173519 C28.9884104,78.0137569 29.2743005,77.6690071 29.3247517,77.3831171 C29.3079346,77.3915256 29.2406664,77.4083426 29.1818066,77.4083426 C28.9043251,77.4083426 28.6857033,77.1813123 28.6857033,76.8701967 C28.6857033,76.559081 28.9379592,76.2984166 29.2574834,76.2984166 C29.6022332,76.2984166 29.9049403,76.5758981 29.9049403,77.0635929 Z M32.8563347,77.4840194 C31.8977621,77.4840194 31.2334882,77.1476782 30.7794275,76.6179407 L31.3427991,75.9368497 C31.7127745,76.3740933 32.2256948,76.6095322 32.8479261,76.6095322 C33.5626513,76.6095322 33.9998949,76.1722886 33.9998949,75.6173256 C33.9998949,75.0203199 33.5626513,74.6251189 32.8731517,74.6251189 C32.402274,74.6251189 32.007073,74.7680639 31.6455062,75.1044052 L30.9475981,74.9026004 L30.9475981,71.7746269 L34.6221262,71.7746269 L34.6221262,72.6407056 L31.9313963,72.6407056 L31.9313963,74.2551435 C32.2088778,73.9944791 32.6629385,73.7758573 33.2010844,73.7758573 C34.1512484,73.7758573 35.0005101,74.4317227 35.0005101,75.5836914 C35.0005101,76.7440687 34.1092058,77.4840194 32.8563347,77.4840194 Z M37.9434959,77.4840194 C36.3626921,77.4840194 35.6984181,75.9873009 35.6984181,74.5830763 C35.6984181,73.1704431 36.3626921,71.6905416 37.9434959,71.6905416 C39.5158912,71.6905416 40.1801651,73.1704431 40.1801651,74.5830763 C40.1801651,75.9873009 39.5158912,77.4840194 37.9434959,77.4840194 Z M37.9434959,76.6095322 C38.8516172,76.6095322 39.1795499,75.6509597 39.1795499,74.5830763 C39.1795499,73.5067843 38.8600258,72.5650288 37.9434959,72.5650288 C37.026966,72.5650288 36.6990333,73.5067843 36.6990333,74.5830763 C36.6990333,75.6509597 37.026966,76.6095322 37.9434959,76.6095322 Z M43.1315595,77.4840194 C41.5507557,77.4840194 40.8864817,75.9873009 40.8864817,74.5830763 C40.8864817,73.1704431 41.5507557,71.6905416 43.1315595,71.6905416 C44.7039548,71.6905416 45.3682287,73.1704431 45.3682287,74.5830763 C45.3682287,75.9873009 44.7039548,77.4840194 43.1315595,77.4840194 Z M43.1315595,76.6095322 C44.0396808,76.6095322 44.3676135,75.6509597 44.3676135,74.5830763 C44.3676135,73.5067843 44.0480894,72.5650288 43.1315595,72.5650288 C42.2150296,72.5650288 41.8870969,73.5067843 41.8870969,74.5830763 C41.8870969,75.6509597 42.2150296,76.6095322 43.1315595,76.6095322 Z M48.7989093,72.6827483 C48.6223302,72.6827483 48.4625681,72.5313947 48.4625681,72.346407 C48.4625681,72.1614193 48.6223302,72.0184743 48.7989093,72.0184743 C48.983897,72.0184743 49.1352506,72.1614193 49.1352506,72.346407 C49.1352506,72.5313947 48.983897,72.6827483 48.7989093,72.6827483 Z M49.0175311,77.3831171 L48.5802875,77.3831171 L48.5802875,73.3217966 L49.0175311,73.3217966 L49.0175311,77.3831171 Z M53.5581378,77.3831171 L53.1208942,77.3831171 L53.1208942,74.6335274 C53.1208942,73.8515341 52.7256933,73.6160952 52.1370961,73.6160952 C51.6157672,73.6160952 51.0776212,73.9440279 50.8169568,74.3140033 L50.8169568,77.3831171 L50.3797132,77.3831171 L50.3797132,73.3217966 L50.8169568,73.3217966 L50.8169568,73.9356194 C51.1112553,73.5824611 51.691444,73.2208942 52.2800411,73.2208942 C53.1040772,73.2208942 53.5581378,73.6245037 53.5581378,74.5410336 L53.5581378,77.3831171 Z M57.9810251,77.4840194 C57.4428791,77.4840194 57.1822147,77.1560867 57.1822147,76.6011237 L57.1822147,73.708589 L56.5095322,73.708589 L56.5095322,73.3217966 L57.1822147,73.3217966 L57.1822147,72.2118705 L57.6278668,72.2118705 L57.6278668,73.3217966 L58.4519029,73.3217966 L58.4519029,73.708589 L57.6278668,73.708589 L57.6278668,76.5338554 C57.6278668,76.8617881 57.7624033,77.0888185 58.0482934,77.0888185 C58.2416896,77.0888185 58.4098602,76.9963246 58.502354,76.8954223 L58.6705247,77.2317635 C58.5107626,77.3831171 58.3173664,77.4840194 57.9810251,77.4840194 Z M62.5889001,77.3831171 L62.1516565,77.3831171 L62.1516565,74.6167104 C62.1516565,73.834717 61.7564555,73.6160952 61.1678584,73.6160952 C60.6465294,73.6160952 60.1083835,73.9440279 59.847719,74.3140033 L59.847719,77.3831171 L59.4104754,77.3831171 L59.4104754,71.7746269 L59.847719,71.7746269 L59.847719,73.9356194 C60.1420176,73.5824611 60.7222062,73.2208942 61.3108034,73.2208942 C62.1348394,73.2208942 62.5889001,73.6076867 62.5889001,74.5242165 L62.5889001,77.3831171 Z M65.7505077,77.4840194 C64.5649049,77.4840194 63.7240518,76.6011237 63.7240518,75.3482526 C63.7240518,74.1710582 64.5480878,73.2208942 65.6748309,73.2208942 C66.910885,73.2208942 67.591976,74.1962838 67.591976,75.3734782 L67.591976,75.4911976 L64.1949295,75.4911976 C64.2369721,76.3740933 64.8255693,77.1056355 65.7841418,77.1056355 C66.2970622,77.1056355 66.76794,76.9122393 67.1126897,76.542264 L67.3397201,76.828154 C66.9361106,77.2485806 66.4231902,77.4840194 65.7505077,77.4840194 Z M67.1463239,75.1464478 C67.1379153,74.4569483 66.6838547,73.5992781 65.6664224,73.5992781 C64.7078499,73.5992781 64.2285636,74.4401312 64.1949295,75.1464478 L67.1463239,75.1464478 Z M71.3337723,77.3831171 L70.8965287,77.3831171 L70.8965287,71.7746269 L71.3337723,71.7746269 L71.3337723,77.3831171 Z M75.7146169,77.3831171 L75.2773733,77.3831171 L75.2773733,76.9038308 C74.9158064,77.2990317 74.4617458,77.4840194 73.8983742,77.4840194 C73.2004661,77.4840194 72.4773325,77.0047332 72.4773325,76.1302459 C72.4773325,75.2473502 73.1920576,74.784881 73.8983742,74.784881 C74.4617458,74.784881 74.924215,74.9698687 75.2773733,75.3650696 L75.2773733,74.5410336 C75.2773733,73.9356194 74.7896785,73.6076867 74.1926728,73.6076867 C73.6797524,73.6076867 73.2845514,73.7842658 72.9145761,74.2046924 L72.6707287,73.9019852 C73.0911552,73.4479246 73.562033,73.2208942 74.2347154,73.2208942 C75.0587515,73.2208942 75.7146169,73.6160952 75.7146169,74.5242165 L75.7146169,77.3831171 Z M74.0497278,77.1392697 C74.5374226,77.1392697 74.9914832,76.954282 75.2773733,76.5843066 L75.2773733,75.6930023 C74.9914832,75.3146184 74.5374226,75.1296308 74.0497278,75.1296308 C73.3854538,75.1296308 72.9398017,75.5584658 72.9398017,76.1386545 C72.9398017,76.7104346 73.3854538,77.1392697 74.0497278,77.1392697 Z M78.2876274,77.4840194 C77.6317619,77.4840194 77.1272501,77.2906232 76.7236406,76.8365625 L76.9843051,76.5170384 C77.2449695,76.8449711 77.7242558,77.1140441 78.2960359,77.1140441 C78.9771269,77.1140441 79.3807364,76.7608858 79.3807364,76.290008 C79.3807364,75.1800819 76.8161344,75.8107218 76.8161344,74.3476374 C76.8161344,73.7254061 77.3458719,73.2208942 78.2624018,73.2208942 C78.9603098,73.2208942 79.422779,73.4899672 79.7170776,73.8178999 L79.4732302,74.1290156 C79.2377914,73.8094914 78.8005477,73.5908696 78.2624018,73.5908696 C77.6317619,73.5908696 77.253378,73.9103938 77.253378,74.3308203 C77.253378,75.3482526 79.8095715,74.7260213 79.8095715,76.290008 C79.8095715,76.9458734 79.3050596,77.4840194 78.2876274,77.4840194 Z M81.8192104,77.4840194 C81.2810644,77.4840194 81.0203999,77.1560867 81.0203999,76.6011237 L81.0203999,73.708589 L80.3477174,73.708589 L80.3477174,73.3217966 L81.0203999,73.3217966 L81.0203999,72.2118705 L81.4660521,72.2118705 L81.4660521,73.3217966 L82.2900881,73.3217966 L82.2900881,73.708589 L81.4660521,73.708589 L81.4660521,76.5338554 C81.4660521,76.8617881 81.6005885,77.0888185 81.8864786,77.0888185 C82.0798748,77.0888185 82.2480454,76.9963246 82.3405393,76.8954223 L82.5087099,77.2317635 C82.3489478,77.3831171 82.1555516,77.4840194 81.8192104,77.4840194 Z M87.293164,77.4840194 C85.7796284,77.4840194 85.2330739,76.0882033 85.2330739,74.5830763 C85.2330739,73.1452175 85.8384881,71.6905416 87.3772493,71.6905416 C88.1087915,71.6905416 88.5544436,71.9848402 88.8907849,72.4052667 L88.6133034,72.7500165 C88.3358218,72.3884497 87.9910721,72.1277852 87.3772493,72.1277852 C86.1664208,72.1277852 85.7207687,73.3974734 85.7207687,74.5914848 C85.7207687,74.6755701 85.7207687,74.7680639 85.7291772,74.8521492 C85.9646161,74.4653568 86.612073,73.9188023 87.3688408,73.9188023 C88.3778645,73.9188023 89.1766749,74.4989909 89.1766749,75.6930023 C89.1766749,76.6095322 88.4955839,77.4840194 87.293164,77.4840194 Z M87.2763469,77.0467758 C88.2349195,77.0467758 88.6889801,76.3068251 88.6889801,75.7014109 C88.6889801,74.784881 88.0919744,74.3476374 87.2847555,74.3476374 C86.6709327,74.3476374 86.073927,74.7428383 85.7544028,75.3062099 C85.8216711,76.0713862 86.2252806,77.0467758 87.2763469,77.0467758 Z M97.7870106,77.3831171 L97.349767,77.3831171 L97.349767,74.5410336 C97.349767,73.9692535 97.1059196,73.6160952 96.5341395,73.6160952 C96.0968959,73.6160952 95.6007926,73.9356194 95.3737622,74.3055947 L95.3737622,77.3831171 L94.9281101,77.3831171 L94.9281101,74.5410336 C94.9281101,73.9692535 94.6926712,73.6160952 94.1208911,73.6160952 C93.6836475,73.6160952 93.1959527,73.9440279 92.9521053,74.3140033 L92.9521053,77.3831171 L92.5148617,77.3831171 L92.5148617,73.3217966 L92.9521053,73.3217966 L92.9521053,73.9356194 C93.1202759,73.6749549 93.675239,73.2208942 94.2638361,73.2208942 C94.894476,73.2208942 95.2308172,73.5908696 95.3317196,73.9860706 C95.5587499,73.6076867 96.1053044,73.2208942 96.6770845,73.2208942 C97.4254438,73.2208942 97.7870106,73.6413208 97.7870106,74.4569483 L97.7870106,77.3831171 Z M100.864533,77.4840194 C99.6789301,77.4840194 98.9221623,76.5338554 98.9221623,75.3482526 C98.9221623,74.1626497 99.6789301,73.2208942 100.864533,73.2208942 C102.066953,73.2208942 102.823721,74.1626497 102.823721,75.3482526 C102.823721,76.5338554 102.066953,77.4840194 100.864533,77.4840194 Z M100.864533,77.0888185 C101.823105,77.0888185 102.352843,76.2563739 102.352843,75.3482526 C102.352843,74.4485398 101.823105,73.6160952 100.864533,73.6160952 C99.9227775,73.6160952 99.3846315,74.4485398 99.3846315,75.3482526 C99.3846315,76.2563739 99.9227775,77.0888185 100.864533,77.0888185 Z M107.128888,77.3831171 L106.691645,77.3831171 L106.691645,74.6335274 C106.691645,73.8515341 106.296444,73.6160952 105.707847,73.6160952 C105.186518,73.6160952 104.648372,73.9440279 104.387707,74.3140033 L104.387707,77.3831171 L103.950464,77.3831171 L103.950464,73.3217966 L104.387707,73.3217966 L104.387707,73.9356194 C104.682006,73.5824611 105.262195,73.2208942 105.850792,73.2208942 C106.674828,73.2208942 107.128888,73.6245037 107.128888,74.5410336 L107.128888,77.3831171 Z M109.373966,77.4840194 C108.83582,77.4840194 108.575156,77.1560867 108.575156,76.6011237 L108.575156,73.708589 L107.902473,73.708589 L107.902473,73.3217966 L108.575156,73.3217966 L108.575156,72.2118705 L109.020808,72.2118705 L109.020808,73.3217966 L109.844844,73.3217966 L109.844844,73.708589 L109.020808,73.708589 L109.020808,76.5338554 C109.020808,76.8617881 109.155344,77.0888185 109.441235,77.0888185 C109.634631,77.0888185 109.802801,76.9963246 109.895295,76.8954223 L110.063466,77.2317635 C109.903704,77.3831171 109.710307,77.4840194 109.373966,77.4840194 Z M113.981841,77.3831171 L113.544598,77.3831171 L113.544598,74.6167104 C113.544598,73.834717 113.149397,73.6160952 112.560799,73.6160952 C112.039471,73.6160952 111.501325,73.9440279 111.24066,74.3140033 L111.24066,77.3831171 L110.803417,77.3831171 L110.803417,71.7746269 L111.24066,71.7746269 L111.24066,73.9356194 C111.534959,73.5824611 112.115147,73.2208942 112.703745,73.2208942 C113.527781,73.2208942 113.981841,73.6076867 113.981841,74.5242165 L113.981841,77.3831171 Z M116.554852,77.4840194 C115.898986,77.4840194 115.394474,77.2906232 114.990865,76.8365625 L115.251529,76.5170384 C115.512194,76.8449711 115.99148,77.1140441 116.56326,77.1140441 C117.244351,77.1140441 117.647961,76.7608858 117.647961,76.290008 C117.647961,75.1800819 115.083359,75.8107218 115.083359,74.3476374 C115.083359,73.7254061 115.613096,73.2208942 116.529626,73.2208942 C117.227534,73.2208942 117.690003,73.4899672 117.984302,73.8178999 L117.740455,74.1290156 C117.505016,73.8094914 117.067772,73.5908696 116.529626,73.5908696 C115.898986,73.5908696 115.520602,73.9103938 115.520602,74.3308203 C115.520602,75.3482526 118.076796,74.7260213 118.076796,76.290008 C118.076796,76.9458734 117.572284,77.4840194 116.554852,77.4840194 Z M119.447386,77.4587938 C119.245582,77.4587938 119.069002,77.2906232 119.069002,77.0888185 C119.069002,76.8954223 119.245582,76.7272516 119.447386,76.7272516 C119.649191,76.7272516 119.817362,76.8954223 119.817362,77.0888185 C119.817362,77.2906232 119.649191,77.4587938 119.447386,77.4587938 Z M125.156779,77.3831171 L124.669084,77.3831171 L124.669084,72.2118705 L122.836024,72.2118705 L122.836024,71.7746269 L126.989839,71.7746269 L126.989839,72.2118705 L125.156779,72.2118705 L125.156779,77.3831171 Z M131.143653,77.3831171 L130.706409,77.3831171 L130.706409,74.6167104 C130.706409,73.834717 130.311208,73.6160952 129.722611,73.6160952 C129.201282,73.6160952 128.663136,73.9440279 128.402472,74.3140033 L128.402472,77.3831171 L127.965228,77.3831171 L127.965228,71.7746269 L128.402472,71.7746269 L128.402472,73.9356194 C128.69677,73.5824611 129.276959,73.2208942 129.865556,73.2208942 C130.689592,73.2208942 131.143653,73.6076867 131.143653,74.5242165 L131.143653,77.3831171 Z M135.524497,77.3831171 L135.087254,77.3831171 L135.087254,76.9038308 C134.725687,77.2990317 134.271626,77.4840194 133.708255,77.4840194 C133.010347,77.4840194 132.287213,77.0047332 132.287213,76.1302459 C132.287213,75.2473502 133.001938,74.784881 133.708255,74.784881 C134.271626,74.784881 134.734096,74.9698687 135.087254,75.3650696 L135.087254,74.5410336 C135.087254,73.9356194 134.599559,73.6076867 134.002553,73.6076867 C133.489633,73.6076867 133.094432,73.7842658 132.724457,74.2046924 L132.480609,73.9019852 C132.901036,73.4479246 133.371914,73.2208942 134.044596,73.2208942 C134.868632,73.2208942 135.524497,73.6160952 135.524497,74.5242165 L135.524497,77.3831171 Z M133.859608,77.1392697 C134.347303,77.1392697 134.801364,76.954282 135.087254,76.5843066 L135.087254,75.6930023 C134.801364,75.3146184 134.347303,75.1296308 133.859608,75.1296308 C133.195334,75.1296308 132.749682,75.5584658 132.749682,76.1386545 C132.749682,76.7104346 133.195334,77.1392697 133.859608,77.1392697 Z M137.769575,77.4840194 C137.231429,77.4840194 136.970765,77.1560867 136.970765,76.6011237 L136.970765,73.708589 L136.298082,73.708589 L136.298082,73.3217966 L136.970765,73.3217966 L136.970765,72.2118705 L137.416417,72.2118705 L137.416417,73.3217966 L138.240453,73.3217966 L138.240453,73.708589 L137.416417,73.708589 L137.416417,76.5338554 C137.416417,76.8617881 137.550953,77.0888185 137.836843,77.0888185 C138.03024,77.0888185 138.19841,76.9963246 138.290904,76.8954223 L138.459075,77.2317635 C138.299313,77.3831171 138.105916,77.4840194 137.769575,77.4840194 Z M139.434464,73.7926743 L139.182208,73.7926743 C139.182208,73.7926743 139.005629,72.1025596 139.005629,71.9932487 C139.005629,71.8250781 139.131757,71.6905416 139.308336,71.6905416 C139.476507,71.6905416 139.611044,71.8250781 139.611044,71.9932487 C139.611044,72.1025596 139.434464,73.7926743 139.434464,73.7926743 Z M141.729993,77.4840194 C141.074128,77.4840194 140.569616,77.2906232 140.166007,76.8365625 L140.426671,76.5170384 C140.687335,76.8449711 141.166622,77.1140441 141.738402,77.1140441 C142.419493,77.1140441 142.823102,76.7608858 142.823102,76.290008 C142.823102,75.1800819 140.2585,75.8107218 140.2585,74.3476374 C140.2585,73.7254061 140.788238,73.2208942 141.704768,73.2208942 C142.402676,73.2208942 142.865145,73.4899672 143.159444,73.8178999 L142.915596,74.1290156 C142.680157,73.8094914 142.242914,73.5908696 141.704768,73.5908696 C141.074128,73.5908696 140.695744,73.9103938 140.695744,74.3308203 C140.695744,75.3482526 143.251937,74.7260213 143.251937,76.290008 C143.251937,76.9458734 142.747426,77.4840194 141.729993,77.4840194 Z M149.768549,77.3831171 L148.784751,77.3831171 L148.784751,76.1134289 L146.110838,76.1134289 L146.110838,75.323027 L148.414775,71.7746269 L149.768549,71.7746269 L149.768549,75.2473502 L150.516908,75.2473502 L150.516908,76.1134289 L149.768549,76.1134289 L149.768549,77.3831171 Z M148.784751,75.2473502 L148.784751,72.6575227 L147.077819,75.2473502 L148.784751,75.2473502 Z M155.234094,77.3831171 L151.172774,77.3831171 L151.172774,76.6011237 C153.350583,74.9530516 154.208253,74.229918 154.208253,73.4142905 C154.208253,72.8256933 153.695333,72.5650288 153.182412,72.5650288 C152.526547,72.5650288 152.030444,72.8256933 151.668877,73.2293028 L151.097097,72.5902544 C151.5932,71.9848402 152.383602,71.6905416 153.174004,71.6905416 C154.258704,71.6905416 155.20046,72.2959558 155.20046,73.4142905 C155.20046,74.4569483 154.250296,75.3818867 152.753577,76.5170384 L155.234094,76.5170384 L155.234094,77.3831171 Z M157.386678,74.4737653 C156.554233,74.4737653 155.990862,73.8683511 155.990862,73.0863577 C155.990862,72.2959558 156.554233,71.6905416 157.386678,71.6905416 C158.227531,71.6905416 158.782494,72.2959558 158.782494,73.0863577 C158.782494,73.8683511 158.227531,74.4737653 157.386678,74.4737653 Z M157.403495,77.3831171 L156.840123,77.3831171 L160.422158,71.7746269 L160.993938,71.7746269 L157.403495,77.3831171 Z M160.405341,77.4840194 C159.572896,77.4840194 159.009524,76.8786052 159.009524,76.0966118 C159.009524,75.3062099 159.572896,74.7007957 160.405341,74.7007957 C161.237785,74.7007957 161.801157,75.3062099 161.801157,76.0966118 C161.801157,76.8786052 161.237785,77.4840194 160.405341,77.4840194 Z M157.386678,73.9103938 C157.823922,73.9103938 158.135037,73.5740525 158.135037,73.0863577 C158.135037,72.5902544 157.823922,72.2455046 157.386678,72.2455046 C156.957843,72.2455046 156.646727,72.5902544 156.646727,73.0863577 C156.646727,73.5740525 156.957843,73.9103938 157.386678,73.9103938 Z M160.405341,76.9206479 C160.842584,76.9206479 161.1537,76.5843066 161.1537,76.0966118 C161.1537,75.6005085 160.842584,75.2557587 160.405341,75.2557587 C159.968097,75.2557587 159.656981,75.6005085 159.656981,76.0966118 C159.656981,76.5843066 159.968097,76.9206479 160.405341,76.9206479 Z M166.610836,77.4840194 C165.425234,77.4840194 164.668466,76.5338554 164.668466,75.3482526 C164.668466,74.1626497 165.425234,73.2208942 166.610836,73.2208942 C167.813256,73.2208942 168.570024,74.1626497 168.570024,75.3482526 C168.570024,76.5338554 167.813256,77.4840194 166.610836,77.4840194 Z M166.610836,77.0888185 C167.569409,77.0888185 168.099146,76.2563739 168.099146,75.3482526 C168.099146,74.4485398 167.569409,73.6160952 166.610836,73.6160952 C165.669081,73.6160952 165.130935,74.4485398 165.130935,75.3482526 C165.130935,76.2563739 165.669081,77.0888185 166.610836,77.0888185 Z M170.285364,77.3831171 L169.839712,77.3831171 L169.839712,73.708589 L169.16703,73.708589 L169.16703,73.3217966 L169.839712,73.3217966 L169.839712,72.9518212 C169.839712,72.1614193 170.260139,71.6905416 170.94123,71.6905416 C171.22712,71.6905416 171.45415,71.7494013 171.714815,71.9764317 L171.504601,72.2959558 C171.370065,72.1698279 171.201894,72.0857426 170.983272,72.0857426 C170.520803,72.0857426 170.285364,72.4052667 170.285364,72.9518212 L170.285364,73.3217966 L171.1094,73.3217966 L171.1094,73.708589 L170.285364,73.708589 L170.285364,77.3831171 Z M37.2413836,88.3831171 L36.820957,88.3831171 L35.6858053,84.9103938 L34.5422451,88.3831171 L34.1218186,88.3831171 L32.8016792,84.3217966 L33.2725569,84.3217966 L34.3488489,87.7692943 L35.4924091,84.3217966 L35.870793,84.3217966 L37.0143532,87.7692943 L38.0906452,84.3217966 L38.5615229,84.3217966 L37.2413836,88.3831171 Z M42.5639836,88.3831171 L42.12674,88.3831171 L42.12674,85.6167104 C42.12674,84.834717 41.7315391,84.6160952 41.1429419,84.6160952 C40.621613,84.6160952 40.083467,84.9440279 39.8228026,85.3140033 L39.8228026,88.3831171 L39.3855589,88.3831171 L39.3855589,82.7746269 L39.8228026,82.7746269 L39.8228026,84.9356194 C40.1171011,84.5824611 40.6972898,84.2208942 41.2858869,84.2208942 C42.109923,84.2208942 42.5639836,84.6076867 42.5639836,85.5242165 L42.5639836,88.3831171 Z M46.9448283,88.3831171 L46.5075847,88.3831171 L46.5075847,87.9038308 C46.1460178,88.2990317 45.6919571,88.4840194 45.1285856,88.4840194 C44.4306775,88.4840194 43.7075438,88.0047332 43.7075438,87.1302459 C43.7075438,86.2473502 44.422269,85.784881 45.1285856,85.784881 C45.6919571,85.784881 46.1544264,85.9698687 46.5075847,86.3650696 L46.5075847,85.5410336 C46.5075847,84.9356194 46.0198899,84.6076867 45.4228842,84.6076867 C44.9099638,84.6076867 44.5147628,84.7842658 44.1447875,85.2046924 L43.9009401,84.9019852 C44.3213666,84.4479246 44.7922443,84.2208942 45.4649268,84.2208942 C46.2889628,84.2208942 46.9448283,84.6160952 46.9448283,85.5242165 L46.9448283,88.3831171 Z M45.2799391,88.1392697 C45.7676339,88.1392697 46.2216946,87.954282 46.5075847,87.5843066 L46.5075847,86.6930023 C46.2216946,86.3146184 45.7676339,86.1296308 45.2799391,86.1296308 C44.6156652,86.1296308 44.170013,86.5584658 44.170013,87.1386545 C44.170013,87.7104346 44.6156652,88.1392697 45.2799391,88.1392697 Z M49.189906,88.4840194 C48.65176,88.4840194 48.3910956,88.1560867 48.3910956,87.6011237 L48.3910956,84.708589 L47.7184131,84.708589 L47.7184131,84.3217966 L48.3910956,84.3217966 L48.3910956,83.2118705 L48.8367477,83.2118705 L48.8367477,84.3217966 L49.6607838,84.3217966 L49.6607838,84.708589 L48.8367477,84.708589 L48.8367477,87.5338554 C48.8367477,87.8617881 48.9712842,88.0888185 49.2571743,88.0888185 C49.4505705,88.0888185 49.6187411,87.9963246 49.7112349,87.8954223 L49.8794056,88.2317635 C49.7196435,88.3831171 49.5262473,88.4840194 49.189906,88.4840194 Z M52.5280928,89.9723294 L52.6037696,89.5687199 C52.6962634,89.6107626 52.8560255,89.6359882 52.9569279,89.6359882 C53.2260009,89.6359882 53.4109886,89.5266773 53.5791592,89.1398848 L53.8986834,88.4167512 L52.1749345,84.3217966 L52.6626293,84.3217966 L54.1425307,87.8701967 L55.6056151,84.3217966 L56.1017185,84.3217966 L53.9995857,89.2744213 C53.7809639,89.7873417 53.4362141,90.0311891 52.9653364,90.0311891 C52.8223914,90.0311891 52.6374037,90.0059635 52.5280928,89.9723294 Z M58.5570095,88.4840194 C57.3714066,88.4840194 56.6146388,87.5338554 56.6146388,86.3482526 C56.6146388,85.1626497 57.3714066,84.2208942 58.5570095,84.2208942 C59.7594294,84.2208942 60.5161972,85.1626497 60.5161972,86.3482526 C60.5161972,87.5338554 59.7594294,88.4840194 58.5570095,88.4840194 Z M58.5570095,88.0888185 C59.515582,88.0888185 60.0453195,87.2563739 60.0453195,86.3482526 C60.0453195,85.4485398 59.515582,84.6160952 58.5570095,84.6160952 C57.615254,84.6160952 57.077108,85.4485398 57.077108,86.3482526 C57.077108,87.2563739 57.615254,88.0888185 58.5570095,88.0888185 Z M64.821365,88.3831171 L64.3841214,88.3831171 L64.3841214,87.7861114 C64.0561887,88.1560867 63.5096342,88.4840194 62.9210371,88.4840194 C62.097001,88.4840194 61.6429404,88.097227 61.6429404,87.1806971 L61.6429404,84.3217966 L62.080184,84.3217966 L62.080184,87.0797948 C62.080184,87.8701967 62.4753849,88.0888185 63.0639821,88.0888185 C63.585311,88.0888185 64.1150484,87.7777028 64.3841214,87.416136 L64.3841214,84.3217966 L64.821365,84.3217966 L64.821365,88.3831171 Z M69.572185,88.4840194 C68.9163196,88.4840194 68.4118078,88.2906232 68.0081983,87.8365625 L68.2688627,87.5170384 C68.5295272,87.8449711 69.0088135,88.1140441 69.5805936,88.1140441 C70.2616846,88.1140441 70.6652941,87.7608858 70.6652941,87.290008 C70.6652941,86.1800819 68.1006921,86.8107218 68.1006921,85.3476374 C68.1006921,84.7254061 68.6304296,84.2208942 69.5469594,84.2208942 C70.2448675,84.2208942 70.7073367,84.4899672 71.0016353,84.8178999 L70.7577879,85.1290156 C70.522349,84.8094914 70.0851054,84.5908696 69.5469594,84.5908696 C68.9163196,84.5908696 68.5379357,84.9103938 68.5379357,85.3308203 C68.5379357,86.3482526 71.0941291,85.7260213 71.0941291,87.290008 C71.0941291,87.9458734 70.5896173,88.4840194 69.572185,88.4840194 Z M74.0707491,88.4840194 C73.498969,88.4840194 72.9860486,88.1897208 72.6581159,87.7272516 L72.6581159,89.9302867 L72.2208723,89.9302867 L72.2208723,84.3217966 L72.6581159,84.3217966 L72.6581159,84.960845 C72.9440059,84.5488269 73.4653349,84.2208942 74.0707491,84.2208942 C75.1554496,84.2208942 75.8869918,85.0449303 75.8869918,86.3482526 C75.8869918,87.6431663 75.1554496,88.4840194 74.0707491,88.4840194 Z M73.9950723,88.0888185 C74.9031936,88.0888185 75.416114,87.3320507 75.416114,86.3482526 C75.416114,85.3644544 74.9031936,84.6160952 73.9950723,84.6160952 C73.4317007,84.6160952 72.8935548,84.9524364 72.6581159,85.3392289 L72.6581159,87.3488677 C72.8935548,87.7356602 73.4317007,88.0888185 73.9950723,88.0888185 Z M78.7879349,88.4840194 C77.6023321,88.4840194 76.761479,87.6011237 76.761479,86.3482526 C76.761479,85.1710582 77.585515,84.2208942 78.7122582,84.2208942 C79.9483122,84.2208942 80.6294032,85.1962838 80.6294032,86.3734782 L80.6294032,86.4911976 L77.2323567,86.4911976 C77.2743994,87.3740933 77.8629965,88.1056355 78.8215691,88.1056355 C79.3344895,88.1056355 79.8053672,87.9122393 80.150117,87.542264 L80.3771473,87.828154 C79.9735378,88.2485806 79.4606174,88.4840194 78.7879349,88.4840194 Z M80.1837511,86.1464478 C80.1753426,85.4569483 79.7212819,84.5992781 78.7038496,84.5992781 C77.7452771,84.5992781 77.2659908,85.4401312 77.2323567,86.1464478 L80.1837511,86.1464478 Z M84.9345711,88.3831171 L84.4973275,88.3831171 L84.4973275,85.6335274 C84.4973275,84.8515341 84.1021265,84.6160952 83.5135293,84.6160952 C82.9922004,84.6160952 82.4540544,84.9440279 82.19339,85.3140033 L82.19339,88.3831171 L81.7561464,88.3831171 L81.7561464,84.3217966 L82.19339,84.3217966 L82.19339,84.9356194 C82.4876886,84.5824611 83.0678772,84.2208942 83.6564744,84.2208942 C84.4805104,84.2208942 84.9345711,84.6245037 84.9345711,85.5410336 L84.9345711,88.3831171 Z M87.1796488,88.4840194 C86.6415028,88.4840194 86.3808384,88.1560867 86.3808384,87.6011237 L86.3808384,84.708589 L85.7081559,84.708589 L85.7081559,84.3217966 L86.3808384,84.3217966 L86.3808384,83.2118705 L86.8264905,83.2118705 L86.8264905,84.3217966 L87.6505266,84.3217966 L87.6505266,84.708589 L86.8264905,84.708589 L86.8264905,87.5338554 C86.8264905,87.8617881 86.961027,88.0888185 87.2469171,88.0888185 C87.4403133,88.0888185 87.6084839,87.9963246 87.7009777,87.8954223 L87.8691484,88.2317635 C87.7093863,88.3831171 87.5159901,88.4840194 87.1796488,88.4840194 Z M92.5022489,88.4840194 C91.3166461,88.4840194 90.5598783,87.5338554 90.5598783,86.3482526 C90.5598783,85.1626497 91.3166461,84.2208942 92.5022489,84.2208942 C93.7046688,84.2208942 94.4614366,85.1626497 94.4614366,86.3482526 C94.4614366,87.5338554 93.7046688,88.4840194 92.5022489,88.4840194 Z M92.5022489,88.0888185 C93.4608214,88.0888185 93.9905589,87.2563739 93.9905589,86.3482526 C93.9905589,85.4485398 93.4608214,84.6160952 92.5022489,84.6160952 C91.5604934,84.6160952 91.0223475,85.4485398 91.0223475,86.3482526 C91.0223475,87.2563739 91.5604934,88.0888185 92.5022489,88.0888185 Z M98.7666045,88.3831171 L98.3293609,88.3831171 L98.3293609,85.6335274 C98.3293609,84.8515341 97.9341599,84.6160952 97.3455627,84.6160952 C96.8242338,84.6160952 96.2860878,84.9440279 96.0254234,85.3140033 L96.0254234,88.3831171 L95.5881798,88.3831171 L95.5881798,84.3217966 L96.0254234,84.3217966 L96.0254234,84.9356194 C96.319722,84.5824611 96.8999106,84.2208942 97.4885078,84.2208942 C98.3125438,84.2208942 98.7666045,84.6245037 98.7666045,85.5410336 L98.7666045,88.3831171 Z M106.065209,88.3831171 L102.222511,88.3831171 L102.222511,82.7746269 L106.065209,82.7746269 L106.065209,83.6407056 L103.206309,83.6407056 L103.206309,85.0869729 L106.00635,85.0869729 L106.00635,85.9530516 L103.206309,85.9530516 L103.206309,87.5170384 L106.065209,87.5170384 L106.065209,88.3831171 Z M110.681493,88.3831171 L109.798597,88.3831171 L109.798597,85.8437407 C109.798597,85.2046924 109.470664,85.0028876 108.974561,85.0028876 C108.528909,85.0028876 108.142116,85.2719606 107.931903,85.5410336 L107.931903,88.3831171 L107.049007,88.3831171 L107.049007,84.3217966 L107.931903,84.3217966 L107.931903,84.8683511 C108.200976,84.5488269 108.730714,84.2208942 109.369762,84.2208942 C110.244249,84.2208942 110.681493,84.691772 110.681493,85.5242165 L110.681493,88.3831171 Z M113.052699,88.4840194 C112.363199,88.4840194 112.010041,88.1140441 112.010041,87.4329531 L112.010041,85.0869729 L111.337358,85.0869729 L111.337358,84.3217966 L112.010041,84.3217966 L112.010041,83.2118705 L112.892936,83.2118705 L112.892936,84.3217966 L113.716972,84.3217966 L113.716972,85.0869729 L112.892936,85.0869729 L112.892936,87.2143313 C112.892936,87.4918128 113.027473,87.702026 113.279729,87.702026 C113.447899,87.702026 113.599253,87.6263493 113.666521,87.5506725 L113.876735,88.223355 C113.716972,88.3663 113.456308,88.4840194 113.052699,88.4840194 Z M116.390885,88.4840194 C115.16324,88.4840194 114.263527,87.6347578 114.263527,86.3482526 C114.263527,85.1710582 115.121197,84.2208942 116.323617,84.2208942 C117.542854,84.2208942 118.316439,85.1458326 118.316439,86.4239293 L118.316439,86.6425512 L115.188465,86.6425512 C115.255734,87.2479654 115.709794,87.7608858 116.474971,87.7608858 C116.87858,87.7608858 117.341049,87.6011237 117.635348,87.3068251 L118.038957,87.8870137 C117.626939,88.2738062 117.029934,88.4840194 116.390885,88.4840194 Z M117.467177,86.0119113 C117.441952,85.5326251 117.114019,84.9440279 116.315209,84.9440279 C115.566849,84.9440279 115.213691,85.5242165 115.180057,86.0119113 L117.467177,86.0119113 Z M120.073822,88.3831171 L119.190926,88.3831171 L119.190926,84.3217966 L120.073822,84.3217966 L120.073822,84.9103938 C120.384938,84.5236014 120.872632,84.2208942 121.393961,84.2208942 L121.393961,85.0953815 C121.318284,85.0785644 121.234199,85.0701559 121.124888,85.0701559 C120.746504,85.0701559 120.250401,85.3224118 120.073822,85.6167104 L120.073822,88.3831171 Z M123.336332,88.4840194 C122.646832,88.4840194 122.293674,88.1140441 122.293674,87.4329531 L122.293674,85.0869729 L121.620992,85.0869729 L121.620992,84.3217966 L122.293674,84.3217966 L122.293674,83.2118705 L123.17657,83.2118705 L123.17657,84.3217966 L124.000606,84.3217966 L124.000606,85.0869729 L123.17657,85.0869729 L123.17657,87.2143313 C123.17657,87.4918128 123.311106,87.702026 123.563362,87.702026 C123.731533,87.702026 123.882886,87.6263493 123.950155,87.5506725 L124.160368,88.223355 C124.000606,88.3663 123.739941,88.4840194 123.336332,88.4840194 Z M128.162829,88.3831171 L127.279933,88.3831171 L127.279933,87.9374649 C126.977226,88.2906232 126.49794,88.4840194 125.959794,88.4840194 C125.303928,88.4840194 124.555569,88.0299588 124.555569,87.1386545 C124.555569,86.196899 125.29552,85.8101066 125.959794,85.8101066 C126.514757,85.8101066 126.977226,85.9866857 127.279933,86.3314355 L127.279933,85.7260213 C127.279933,85.2551435 126.884732,84.9692535 126.329769,84.9692535 C125.875708,84.9692535 125.472099,85.1374241 125.127349,85.4905824 L124.757374,84.8767597 C125.228251,84.422699 125.816849,84.2208942 126.464305,84.2208942 C127.372427,84.2208942 128.162829,84.5992781 128.162829,85.6839786 L128.162829,88.3831171 Z M126.312952,87.8786052 C126.691336,87.8786052 127.06972,87.7356602 127.279933,87.4581787 L127.279933,86.8359474 C127.06972,86.5584658 126.691336,86.4155208 126.312952,86.4155208 C125.816849,86.4155208 125.438465,86.7098194 125.438465,87.147063 C125.438465,87.5927151 125.816849,87.8786052 126.312952,87.8786052 Z M129.752041,83.8256933 C129.449334,83.8256933 129.205486,83.5818459 129.205486,83.2791388 C129.205486,82.9764317 129.449334,82.7325843 129.752041,82.7325843 C130.054748,82.7325843 130.298596,82.9764317 130.298596,83.2791388 C130.298596,83.5818459 130.054748,83.8256933 129.752041,83.8256933 Z M130.189285,88.3831171 L129.306389,88.3831171 L129.306389,84.3217966 L130.189285,84.3217966 L130.189285,88.3831171 Z M134.96533,88.3831171 L134.082434,88.3831171 L134.082434,85.8437407 C134.082434,85.2046924 133.754502,85.0028876 133.258398,85.0028876 C132.812746,85.0028876 132.425954,85.2719606 132.215741,85.5410336 L132.215741,88.3831171 L131.332845,88.3831171 L131.332845,84.3217966 L132.215741,84.3217966 L132.215741,84.8683511 C132.484814,84.5488269 133.014551,84.2208942 133.653599,84.2208942 C134.528087,84.2208942 134.96533,84.691772 134.96533,85.5242165 L134.96533,88.3831171 Z M141.978045,88.3831171 L141.095149,88.3831171 L141.095149,85.7344298 C141.095149,85.2971862 140.901753,85.0028876 140.422467,85.0028876 C140.027266,85.0028876 139.65729,85.2719606 139.480711,85.5410336 L139.480711,88.3831171 L138.597816,88.3831171 L138.597816,85.7344298 C138.597816,85.2971862 138.412828,85.0028876 137.933542,85.0028876 C137.538341,85.0028876 137.176774,85.2803691 136.991786,85.5410336 L136.991786,88.3831171 L136.10889,88.3831171 L136.10889,84.3217966 L136.991786,84.3217966 L136.991786,84.8683511 C137.168365,84.6245037 137.698103,84.2208942 138.320334,84.2208942 C138.925748,84.2208942 139.295724,84.5236014 139.43026,84.960845 C139.65729,84.5992781 140.195436,84.2208942 140.809259,84.2208942 C141.54921,84.2208942 141.978045,84.6245037 141.978045,85.4485398 L141.978045,88.3831171 Z M145.005116,88.4840194 C143.777471,88.4840194 142.877758,87.6347578 142.877758,86.3482526 C142.877758,85.1710582 143.735428,84.2208942 144.937848,84.2208942 C146.157085,84.2208942 146.93067,85.1458326 146.93067,86.4239293 L146.93067,86.6425512 L143.802696,86.6425512 C143.869964,87.2479654 144.324025,87.7608858 145.089201,87.7608858 C145.492811,87.7608858 145.95528,87.6011237 146.249579,87.3068251 L146.653188,87.8870137 C146.24117,88.2738062 145.644164,88.4840194 145.005116,88.4840194 Z M146.081408,86.0119113 C146.056182,85.5326251 145.72825,84.9440279 144.929439,84.9440279 C144.18108,84.9440279 143.827922,85.5242165 143.794288,86.0119113 L146.081408,86.0119113 Z M151.437642,88.3831171 L150.554747,88.3831171 L150.554747,85.8437407 C150.554747,85.2046924 150.226814,85.0028876 149.730711,85.0028876 C149.285058,85.0028876 148.898266,85.2719606 148.688053,85.5410336 L148.688053,88.3831171 L147.805157,88.3831171 L147.805157,84.3217966 L148.688053,84.3217966 L148.688053,84.8683511 C148.957126,84.5488269 149.486863,84.2208942 150.125911,84.2208942 C151.000399,84.2208942 151.437642,84.691772 151.437642,85.5242165 L151.437642,88.3831171 Z M153.808848,88.4840194 C153.119348,88.4840194 152.76619,88.1140441 152.76619,87.4329531 L152.76619,85.0869729 L152.093508,85.0869729 L152.093508,84.3217966 L152.76619,84.3217966 L152.76619,83.2118705 L153.649086,83.2118705 L153.649086,84.3217966 L154.473122,84.3217966 L154.473122,85.0869729 L153.649086,85.0869729 L153.649086,87.2143313 C153.649086,87.4918128 153.783622,87.702026 154.035878,87.702026 C154.204049,87.702026 154.355403,87.6263493 154.422671,87.5506725 L154.632884,88.223355 C154.473122,88.3663 154.212458,88.4840194 153.808848,88.4840194 Z M155.616682,88.4587938 C155.414877,88.4587938 155.238298,88.2906232 155.238298,88.0888185 C155.238298,87.8954223 155.414877,87.7272516 155.616682,87.7272516 C155.818487,87.7272516 155.986658,87.8954223 155.986658,88.0888185 C155.986658,88.2906232 155.818487,88.4587938 155.616682,88.4587938 Z" id="Your-bank-charges-an" fill="#4E4B6B"></path>
                <path d="M130.000093,128.921566 L129.016295,128.921566 L129.016295,124.179154 L127.317771,124.179154 L127.317771,123.313076 L131.698616,123.313076 L131.698616,124.179154 L130.000093,124.179154 L130.000093,128.921566 Z M137.038033,128.921566 L135.919698,128.921566 L135.50768,127.836865 L132.93467,127.836865 L132.522652,128.921566 L131.404317,128.921566 L133.607352,123.313076 L134.834998,123.313076 L137.038033,128.921566 Z M135.230199,126.970787 L134.221175,124.296874 L133.212151,126.970787 L135.230199,126.970787 Z M142.217688,128.921566 L140.998451,128.921566 L139.123349,126.55036 L138.627245,127.130549 L138.627245,128.921566 L137.643447,128.921566 L137.643447,123.313076 L138.627245,123.313076 L138.627245,125.97858 L140.821872,123.313076 L142.041109,123.313076 L139.762397,125.953355 L142.217688,128.921566 Z M146.707844,128.921566 L142.865145,128.921566 L142.865145,123.313076 L146.707844,123.313076 L146.707844,124.179154 L143.848943,124.179154 L143.848943,125.625422 L146.648984,125.625422 L146.648984,126.491501 L143.848943,126.491501 L143.848943,128.055487 L146.707844,128.055487 L146.707844,128.921566 Z M154.939795,128.921566 L153.821461,128.921566 L153.409443,127.836865 L150.836432,127.836865 L150.424414,128.921566 L149.30608,128.921566 L151.509115,123.313076 L152.73676,123.313076 L154.939795,128.921566 Z M153.131961,126.970787 L152.122938,124.296874 L151.113914,126.970787 L153.131961,126.970787 Z M161.103249,128.921566 L157.647342,128.921566 L157.647342,123.313076 L158.631141,123.313076 L158.631141,128.055487 L161.103249,128.055487 L161.103249,128.921566 Z M164.340533,129.022468 C162.658827,129.022468 161.473224,127.794823 161.473224,126.121525 C161.473224,124.448227 162.658827,123.220582 164.340533,123.220582 C166.013831,123.220582 167.207842,124.448227 167.207842,126.121525 C167.207842,127.794823 166.013831,129.022468 164.340533,129.022468 Z M164.340533,128.147981 C165.467276,128.147981 166.198818,127.273494 166.198818,126.121525 C166.198818,124.961148 165.467276,124.095069 164.340533,124.095069 C163.205381,124.095069 162.482248,124.961148 162.482248,126.121525 C162.482248,127.273494 163.205381,128.147981 164.340533,128.147981 Z M170.773059,129.022468 C169.091353,129.022468 167.90575,127.794823 167.90575,126.121525 C167.90575,124.448227 169.091353,123.220582 170.773059,123.220582 C172.446357,123.220582 173.640368,124.448227 173.640368,126.121525 C173.640368,127.794823 172.446357,129.022468 170.773059,129.022468 Z M170.773059,128.147981 C171.899802,128.147981 172.631345,127.273494 172.631345,126.121525 C172.631345,124.961148 171.899802,124.095069 170.773059,124.095069 C169.637908,124.095069 168.914774,124.961148 168.914774,126.121525 C168.914774,127.273494 169.637908,128.147981 170.773059,128.147981 Z M179.156365,128.921566 L177.937128,128.921566 L176.062025,126.55036 L175.565922,127.130549 L175.565922,128.921566 L174.582124,128.921566 L174.582124,123.313076 L175.565922,123.313076 L175.565922,125.97858 L177.760548,123.313076 L178.979785,123.313076 L176.701074,125.953355 L179.156365,128.921566 Z" id="TAKE-A-LOOK" fill="#13C6B9"></path>
                <path d="M19.970261,120.447099 L11.56173,120.447099 C10.9812421,120.447099 10.5106637,120.917678 10.5106637,121.498166 L10.5106637,127.804564 C10.5106637,128.385052 10.9812421,128.85563 11.56173,128.85563 L19.970261,128.85563 C20.5507489,128.85563 21.0213274,128.385052 21.0213274,127.804564 L21.0213274,121.498166 C21.0213274,120.917678 20.5507489,120.447099 19.970261,120.447099 L19.970261,120.447099 Z M19.970261,127.804564 L11.56173,127.804564 L11.56173,122.549232 L15.7659955,125.176898 L19.970261,122.549232 L19.970261,127.804564 L19.970261,127.804564 Z M19.970261,121.498166 L15.7659955,124.125831 L11.56173,121.498166 L19.970261,121.498166 L19.970261,121.498166 Z" id="Shape-Copy-8" fill="#000000" opacity="0.3"></path>
                <path d="M-2.33383616e-16,110.987502 L189.191946,110.987502" id="Line-Copy-6" stroke="#AEAEAE" stroke-width="0.525533184" opacity="0.3" stroke-linecap="square"></path>
            </g>
        </g>
    </g>
</svg>