<?xml version="1.0" encoding="UTF-8"?>
<svg width="88.2238443px" height="87.2248062px" viewBox="0 0 88.2238443 87.2248062" version="1.1" xmlns="http://www.w3.org/2000/svg" xmlns:xlink="http://www.w3.org/1999/xlink">
    <!-- Generator: Sketch 52.6 (67491) - http://www.bohemiancoding.com/sketch -->
    <desc>Created with Sketch.</desc>
    <defs>
        <filter x="-82.9%" y="-83.0%" width="267.2%" height="267.5%" filterUnits="objectBoundingBox" id="filter-1">
            <feOffset dx="0" dy="4" in="SourceAlpha" result="shadowOffsetOuter1"></feOffset>
            <feGaussianBlur stdDeviation="6.5" in="shadowOffsetOuter1" result="shadowBlurOuter1"></feGaussianBlur>
            <feColorMatrix values="0 0 0 0 0   0 0 0 0 0   0 0 0 0 0  0 0 0 0.115404212 0" type="matrix" in="shadowBlurOuter1" result="shadowMatrixOuter1"></feColorMatrix>
            <feMerge>
                <feMergeNode in="shadowMatrixOuter1"></feMergeNode>
                <feMergeNode in="SourceGraphic"></feMergeNode>
            </feMerge>
        </filter>
    </defs>
    <g id="Page-1" stroke="none" stroke-width="1" fill="none" fill-rule="evenodd">
        <g id="icon/goals/holiday">
            <g filter="url(#filter-1)" transform="translate(23.351753, 23.326875)">
                <path d="M20.2082474,40.3734375 C9.04776723,40.3734375 0,31.3355403 0,20.1867187 C0,9.03789725 9.04776723,0 20.2082474,0 C31.3689589,0 40.4164948,9.03789725 40.4164948,20.1867187 C40.4164948,31.3355403 31.3689589,40.3734375 20.2082474,40.3734375 Z" id="Fill-1-Copy-2" fill="#FFFFFF" fill-rule="nonzero"></path>
                <g id="002-sun-umbrella" transform="translate(8.213976, 8.438328)" fill-rule="nonzero">
                    <path d="M11.9116651,17.9502821 L16.0485687,7.58176792 C16.2216689,7.14791664 16.7140874,6.93635237 17.1484014,7.10926817 C17.5827154,7.28218396 17.7945053,7.77407789 17.6214051,8.20792917 L13.6706227,18.1099576 L11.9116651,17.9502821 Z" id="Shape" fill="#90A4AE"></path>
                    <path d="M13.5423727,8.93819887 C13.5443935,8.93348864 13.5464143,8.9287784 13.5484351,8.92406817 C13.5464143,8.92429246 13.5443935,8.92474106 13.5425972,8.92496535 L13.5423727,8.93819887 Z" id="Shape" fill="#FFF9C5"></path>
                    <path d="M17.1484947,7.10926817 C16.7141808,6.93635237 16.2217623,7.14787002 16.048662,7.58176792 L14.9653973,10.2968117 C15.2414056,10.3408681 15.5159204,10.4161138 15.7861882,10.5237607 C16.056456,10.6313611 16.308569,10.765302 16.5385604,10.9221337 L17.6214984,8.20797579 C17.7945519,7.77403127 17.5828087,7.28218396 17.1484947,7.10926817 Z" id="Shape" fill="#000000" opacity="0.1"></path>
                    <path d="M18.6464719,3.35486482 L15.5249744,3.6900203 L13.5423727,5.99657436 L13.5426994,8.92355534 L13.5440995,8.92299589 C13.5439595,8.92332224 13.5438194,8.9236952 13.5436328,8.92402155 C14.4094605,8.76341359 15.3734826,8.84765701 16.3066089,9.21917655 C17.2338081,9.58831844 17.9875804,10.1844094 18.5052009,10.8899189 L18.5142549,10.9064226 L20.1450091,9.2935364 L20.32693,5.26887346 L18.6464719,3.35486482 Z" id="Shape" fill="#FFF9C5"></path>
                    <path d="M21.5435785,19.7736136 C20.407623,17.959746 16.5603087,16.6249051 11.9889511,16.6249051 C7.41773357,16.6249051 3.5705593,17.9596528 2.43446377,19.7734272 L3.07268036,19.7736136 L4.45771536,20.6608968 L5.91406262,20.8190339 L6.94043624,20.2266726 L8.56960368,19.6330992 L9.44387873,19.8702581 L11.3038309,20.8190339 L12.5306069,20.6213626 L14.113524,20.0313789 L15.2611471,19.6726334 L16.725335,20.0313789 L17.9125345,20.8190339 L19.8120631,20.5818749 L21.5435785,19.7736136 Z" id="Shape" fill="#FFCA28"></path>
                    <path d="M19.9454002,20.5196364 L21.5436252,19.7736136 C20.4076697,17.9597927 16.5603554,16.6249051 11.9889978,16.6249051 C10.9379356,16.6249051 9.9253764,16.6956285 8.97507539,16.8263061 C13.6907376,17.3665456 17.6348461,18.7212935 19.9454002,20.5196364 Z" id="Shape" fill="#000000" opacity="0.1"></path>
                    <path d="M23.7410038,19.9683479 C22.6184426,19.2078261 21.1676958,19.2078261 20.0451347,19.9683479 C19.1622256,20.5664901 18.0212764,20.5664901 17.1382739,19.9683479 C16.0157128,19.2078261 14.564966,19.2078261 13.4424048,19.9683479 C12.5594958,20.5664901 11.4184999,20.5664901 10.5355441,19.9683479 C9.41298298,19.2078261 7.96223617,19.2078261 6.83967502,19.9683479 C5.95671929,20.5664901 4.81577004,20.5664901 3.9328143,19.9683479 C2.81025316,19.2078261 1.35950635,19.2078261 0.236945201,19.9683479 C0.0763059689,20.0771603 0.0343960239,20.2954846 0.143324545,20.4559527 C0.252253065,20.6164208 0.470856832,20.6582395 0.631449394,20.5494736 C1.51435846,19.9513314 2.65535438,19.9512847 3.53831011,20.5494736 C4.66091793,21.3099488 6.11166474,21.3099488 7.23417921,20.5494736 C8.11708828,19.9513314 9.2580842,19.9512847 10.1410399,20.5494736 C11.2636477,21.3099488 12.7143946,21.3099488 13.836909,20.5494736 C14.7198181,19.9513314 15.860814,19.9512847 16.7437698,20.5494736 C17.3050737,20.9297112 17.948424,21.11983 18.5917276,21.11983 C19.2350313,21.11983 19.8783816,20.9297112 20.4396389,20.5494736 C21.3225479,19.9513314 22.4635438,19.9513314 23.3464996,20.5494736 C23.5071855,20.6583327 23.7256959,20.6164208 23.8346244,20.4559527 C23.9435529,20.2955312 23.901643,20.077207 23.7410038,19.9683479 Z" id="Shape" fill="#1EB8E8"></path>
                    <g id="Group" transform="translate(8.540668, 2.797236)" fill="#EF495B">
                        <path d="M5.00203128,6.12636611 C4.48408409,5.41498241 3.72634482,4.81371656 2.79326517,4.44219702 C1.85971881,4.07049099 0.895136687,3.98634082 0.0290756077,4.1472285 C0.0290756077,4.1472285 4.23155101,-1.78109331 10.1058505,0.557675588 C10.1058505,0.557675588 7.02528287,1.38076224 5.00175125,6.12981603 L5.00203128,6.12636611 Z" id="Shape"></path>
                        <path d="M9.97573367,8.10657599 C10.8415614,7.94606127 11.8055835,8.03030469 12.7387098,8.40182423 C13.6722562,8.77353026 14.4303688,9.37516907 14.948176,10.0870656 C14.948176,10.0870656 15.9800567,2.89639787 10.1057572,0.557582347 C10.1057572,0.557582347 11.7750144,3.2717403 9.9736335,8.10918674 L9.97573367,8.10657599 Z" id="Shape"></path>
                    </g>
                    <ellipse id="Oval" fill="#FFCA28" cx="3.99941285" cy="4.0413065" rx="1.91464977" ry="1.91261002"></ellipse>
                    <g id="Group" fill="#FF9800">
                        <path d="M3.99945952,1.4542363 C3.80535767,1.4542363 3.64803203,1.29703165 3.64803203,1.1031832 L3.64803203,0.396974388 C3.64803203,0.203079323 3.80540434,0.0459212886 3.99945952,0.0459212886 C4.1935147,0.0459212886 4.35088701,0.203125944 4.35088701,0.396974388 L4.35088701,1.1031832 C4.35088701,1.29707827 4.1935147,1.4542363 3.99945952,1.4542363 Z" id="Shape"></path>
                        <path d="M6.07904219,2.31475929 C5.98910849,2.31475929 5.89917479,2.28049315 5.83056942,2.21191425 C5.69331202,2.07480307 5.69331202,1.85251607 5.83056942,1.71540489 L6.33045519,1.21605167 C6.46771259,1.07894049 6.69023667,1.07894049 6.8274474,1.21605167 C6.9647048,1.35316284 6.9647048,1.57544985 6.8274474,1.71256103 L6.32756163,2.21191425 C6.25890959,2.28049315 6.16897589,2.31475929 6.07904219,2.31475929 Z" id="Shape"></path>
                        <path d="M7.6473982,4.39217312 L6.94048291,4.39217312 C6.74638106,4.39217312 6.58905542,4.23496846 6.58905542,4.04112002 C6.58905542,3.84727157 6.74642773,3.69006692 6.94048291,3.69006692 L7.6473982,3.69006692 C7.84150005,3.69006692 7.99882569,3.84727157 7.99882569,4.04112002 C7.99882569,4.23496846 7.84150005,4.39217312 7.6473982,4.39217312 Z" id="Shape"></path>
                        <path d="M6.57892796,6.96894017 C6.48899426,6.96894017 6.39901389,6.93467403 6.33045519,6.86609513 L5.83056942,6.36674191 C5.69331202,6.22963073 5.69331202,6.00734372 5.83056942,5.87023254 C5.96782682,5.73312137 6.1903509,5.73312137 6.32756163,5.87023254 L6.8274474,6.36958576 C6.9647048,6.50669694 6.9647048,6.72898395 6.8274474,6.86609513 C6.75879536,6.93462741 6.66890833,6.96894017 6.57892796,6.96894017 Z" id="Shape"></path>
                        <path d="M3.99945952,8.03622551 C3.80535767,8.03622551 3.64803203,7.87902085 3.64803203,7.68517241 L3.64803203,6.9789636 C3.64803203,6.78506853 3.80540434,6.6279105 3.99945952,6.6279105 C4.1935147,6.6279105 4.35088701,6.78511515 4.35088701,6.9789636 L4.35088701,7.68517241 C4.35088701,7.87911409 4.1935147,8.03622551 3.99945952,8.03622551 Z" id="Shape"></path>
                        <path d="M1.41989774,6.96894017 C1.32996403,6.96894017 1.24003033,6.93467403 1.17142497,6.86609513 C1.03416756,6.72898395 1.03416756,6.50669694 1.17142497,6.36958576 L1.67126407,5.87023254 C1.80852147,5.73312137 2.03104554,5.73312137 2.16825627,5.87023254 C2.30551368,6.00734372 2.30551368,6.22963073 2.16825627,6.36674191 L1.66841718,6.86609513 C1.59981181,6.93462741 1.50987811,6.96894017 1.41989774,6.96894017 Z" id="Shape"></path>
                        <path d="M1.05838946,4.39217312 L0.35142749,4.39217312 C0.15732564,4.39217312 0,4.23496846 0,4.04112002 C0,3.84727157 0.15737231,3.69006692 0.35142749,3.69006692 L1.05838946,3.69006692 C1.25249131,3.69006692 1.40981695,3.84727157 1.40981695,4.04112002 C1.40981695,4.23496846 1.25249131,4.39217312 1.05838946,4.39217312 Z" id="Shape"></path>
                        <path d="M1.91978351,2.31475929 C1.8298498,2.31475929 1.7399161,2.28049315 1.67131074,2.21191425 L1.17142497,1.71260765 C1.03416756,1.57549647 1.03416756,1.35320947 1.17142497,1.21609829 C1.30868237,1.07898711 1.53120644,1.07898711 1.66841718,1.21609829 L2.16825627,1.71545151 C2.30551368,1.85256269 2.30551368,2.0748497 2.16825627,2.21196087 C2.09969758,2.28049315 2.00971721,2.31475929 1.91978351,2.31475929 Z" id="Shape"></path>
                    </g>
                </g>
            </g>
        </g>
    </g>
</svg>