<?xml version="1.0" encoding="UTF-8"?>
<svg width="100px" height="102px" viewBox="0 0 100 102" version="1.1" xmlns="http://www.w3.org/2000/svg" xmlns:xlink="http://www.w3.org/1999/xlink">
    <!-- Generator: Sketch 52.6 (67491) - http://www.bohemiancoding.com/sketch -->
    <desc>Created with Sketch.</desc>
    <defs>
        <filter x="-230.8%" y="-226.3%" width="562.3%" height="554.0%" filterUnits="objectBoundingBox" id="filter-1">
            <feOffset dx="0" dy="11" in="SourceAlpha" result="shadowOffsetOuter1"></feOffset>
            <feGaussianBlur stdDeviation="16" in="shadowOffsetOuter1" result="shadowBlurOuter1"></feGaussianBlur>
            <feColorMatrix values="0 0 0 0 0   0 0 0 0 0   0 0 0 0 0  0 0 0 0.115404212 0" type="matrix" in="shadowBlurOuter1" result="shadowMatrixOuter1"></feColorMatrix>
            <feMerge>
                <feMergeNode in="shadowMatrixOuter1"></feMergeNode>
                <feMergeNode in="SourceGraphic"></feMergeNode>
            </feMerge>
        </filter>
        <linearGradient x1="-38.5860095%" y1="-21.511115%" x2="91.7174755%" y2="91.7507424%" id="linearGradient-2">
            <stop stop-color="#F6D365" offset="0%"></stop>
            <stop stop-color="#FDE885" offset="100%"></stop>
        </linearGradient>
        <path d="M17.8725664,36.4600354 C8.002021,36.4600354 0,28.2981826 0,18.2300177 C0,8.16185279 8.002021,0 17.8725664,0 C27.7433163,0 35.7451327,8.16185279 35.7451327,18.2300177 C35.7451327,28.2981826 27.7433163,36.4600354 17.8725664,36.4600354 Z" id="path-3"></path>
    </defs>
    <g id="Page-1" stroke="none" stroke-width="1" fill="none" fill-rule="evenodd">
        <g id="icon/goals/car">
            <g filter="url(#filter-1)" transform="translate(31.539823, 33.242973)">
                <g id="Fill-1" fill-rule="nonzero">
                    <use fill="url(#linearGradient-2)" xlink:href="#path-3"></use>
                    <use fill="#FFFFFF" xlink:href="#path-3"></use>
                </g>
                <g id="car" transform="translate(5.640939, 11.037821)" fill-rule="nonzero">
                    <path d="M25.8767708,7.33956365 C25.4824806,6.39606482 24.615618,5.68976172 23.5449908,5.56470556 L19.4846661,5.09148836 L17.3186607,1.50067392 C16.7649277,0.582421177 15.7835195,0.0228976068 14.7267069,0.0228976068 L7.73309396,0.0228976068 C5.91072536,0.0228976068 4.31226749,1.26465244 3.82875845,3.05712406 L3.77407588,3.25967982 C3.62096468,3.82859728 3.32683001,4.33528022 2.9325399,4.7398046 C2.53824979,5.14491611 2.04265302,5.44728194 1.48661762,5.60756519 C0.885684956,5.78017791 0.470097422,6.33970149 0.470097422,6.97613753 L0.470097422,10.9616715 L2.68100008,10.4342633 C2.72762416,10.3238851 2.78057992,10.2164424 2.83929173,10.1119354 C3.39129788,9.13673222 4.4187546,8.53082632 5.5216157,8.53082632 C6.6244768,8.53082632 7.65135791,9.13673222 8.20278846,10.1119354 C8.26150027,10.2164424 8.31503163,10.3238851 8.36108011,10.4342633 L17.7480628,10.4342633 C17.7935357,10.3250593 17.8459158,10.2187909 17.904052,10.1154581 C18.4554826,9.13790646 19.4840905,8.53082632 20.5886784,8.53082632 C21.6915395,8.53082632 22.7184206,9.13673222 23.2698512,10.1119354 C23.328563,10.2164424 23.3820943,10.3238851 23.4281428,10.4342633 L25.8928877,10.4342633 L25.9084291,10.4360246 L26.0880182,8.82732097 C26.095501,8.76156374 26.1006815,8.69639363 26.1035595,8.63122352 C26.1248569,8.17561985 26.0425453,7.7364555 25.8767708,7.33956365 Z" id="Shape" fill="#008DB3"></path>
                    <path d="M26.6045094,11.1430323 C26.6045094,11.5337007 26.2940275,11.8503922 25.9110193,11.8503922 L23.6779558,11.8503922 C23.6808339,11.7963773 23.6825607,11.7417753 23.6825607,11.6871733 C23.6825607,11.2544673 23.5956442,10.8270453 23.4281428,10.4342633 L25.9114222,10.4356724 C26.2942578,10.4358485 26.6045094,10.7524813 26.6045094,11.1430323 Z" id="Shape" fill="#CCCCCC"></path>
                    <path d="M23.0493941,11.6871733 C23.0493941,11.7417753 23.0476673,11.7963773 23.0442136,11.8503922 C22.961902,13.1602527 21.8941528,14.1971033 20.5886784,14.1971033 C19.2826284,14.1971033 18.2148793,13.1602527 18.1325676,11.8503922 C18.129114,11.7963773 18.1273871,11.7417753 18.1273871,11.6871733 C18.1273871,11.2321568 18.245962,10.8053219 18.4531801,10.4371989 C18.8779774,9.68392631 19.6751917,9.17665625 20.5886784,9.17665625 C21.5004383,9.17665625 22.2965014,9.68275207 22.7212987,10.4342633 C22.9302436,10.8029735 23.0493941,11.2309826 23.0493941,11.6871733 Z M21.5977157,11.6871733 C21.5977157,11.1194301 21.1452894,10.6573682 20.5886784,10.6573682 C20.0314918,10.6573682 19.5790655,11.1194301 19.5790655,11.6871733 C19.5790655,12.2549166 20.0314918,12.7169785 20.5886784,12.7169785 C21.1452894,12.7169785 21.5977157,12.2549166 21.5977157,11.6871733 Z" id="Shape" fill="#666666"></path>
                    <path d="M20.5886784,10.6573682 C21.1452894,10.6573682 21.5977157,11.1194301 21.5977157,11.6871733 C21.5977157,12.2549166 21.1452894,12.7169785 20.5886784,12.7169785 C20.0314918,12.7169785 19.5790655,12.2549166 19.5790655,11.6871733 C19.5790655,11.1194301 20.0314918,10.6573682 20.5886784,10.6573682 Z" id="Shape" fill="#E6E6E6"></path>
                    <path d="M17.4942205,11.6871733 C17.4942205,11.7417753 17.4959474,11.7969644 17.4988254,11.8503922 L8.61089311,11.8503922 C8.61377114,11.7957902 8.61549796,11.7411882 8.61549796,11.6871733 C8.61549796,11.2544673 8.52858145,10.8270453 8.36108011,10.4342633 L17.7480628,10.4342633 C17.5811371,10.8282195 17.4942205,11.2550544 17.4942205,11.6871733 Z" id="Shape" fill="#CCCCCC"></path>
                    <path d="M6.67513013,1.66682835 L6.67513013,5.09148836 L4.74857684,5.09148836 C4.74857684,5.09148836 4.97306318,4.16208037 5.11523786,3.63602253 L5.16992043,3.43346678 C5.19870073,3.32602416 5.2338127,3.22210426 5.27468072,3.12111994 C5.5406107,2.46237341 6.0494464,1.94453522 6.67513013,1.66682835 Z" id="Shape" fill="#76CDCE"></path>
                    <path d="M11.5136742,1.44137499 L11.5136742,5.09148836 L7.53853913,5.09148836 L7.53853913,1.44900753 C7.603007,1.44372346 7.66805048,1.44137499 7.73309396,1.44137499 L11.5136742,1.44137499 Z" id="Shape" fill="#76CDCE"></path>
                    <path d="M17.8516719,5.09148836 L12.3770832,5.09148836 L12.3770832,1.44137499 L14.7267069,1.44137499 C15.2959812,1.44137499 15.8358997,1.74902489 16.1340636,2.24396546 L17.8516719,5.09148836 Z" id="Shape" fill="#76CDCE"></path>
                    <path d="M7.9771509,11.8503922 C7.89483925,13.1602527 6.82709011,14.1971033 5.5216157,14.1971033 C4.21556568,14.1971033 3.14781654,13.1602527 3.06550489,11.8503922 C3.06205125,11.7963773 3.06032443,11.7417753 3.06032443,11.6871733 C3.06032443,11.2309826 3.17947487,10.8029735 3.38784425,10.4342633 C3.81321708,9.68275207 4.60928018,9.17665625 5.5216157,9.17665625 C6.43337561,9.17665625 7.22943871,9.68275207 7.65423594,10.4342633 C7.86318092,10.8029735 7.98233136,11.2309826 7.98233136,11.6871733 C7.98233136,11.7417753 7.98060454,11.7963773 7.9771509,11.8503922 Z M6.53122863,11.6871733 C6.53122863,11.1194301 6.0782267,10.6573682 5.5216157,10.6573682 C4.96442909,10.6573682 4.51200277,11.1194301 4.51200277,11.6871733 C4.51200277,12.2549166 4.96442909,12.7169785 5.5216157,12.7169785 C6.0782267,12.7169785 6.53122863,12.2549166 6.53122863,11.6871733 Z" id="Shape" fill="#666666"></path>
                    <path d="M5.5216157,10.6573682 C6.0782267,10.6573682 6.53122863,11.1194301 6.53122863,11.6871733 C6.53122863,12.2549166 6.0782267,12.7169785 5.5216157,12.7169785 C4.96442909,12.7169785 4.51200277,12.2549166 4.51200277,11.6871733 C4.51200277,11.1194301 4.96442909,10.6573682 5.5216157,10.6573682 Z" id="Shape" fill="#E6E6E6"></path>
                    <path d="M2.42715783,11.6871733 C2.42715783,11.7417753 2.42888465,11.7963773 2.43176268,11.8503922 L0.694180839,11.8503922 C0.310769681,11.8503922 0,11.5334071 0,11.1423277 C0,10.7512483 0.310769681,10.4342633 0.694180839,10.4342633 L2.68100008,10.4342633 C2.51407434,10.8276324 2.42715783,11.2544673 2.42715783,11.6871733 Z" id="Shape" fill="#CCCCCC"></path>
                    <path d="M14.749098,7.02375281 L13.8419429,7.02375281 C13.6512446,7.02375281 13.4965793,6.86605288 13.4965793,6.67148194 C13.4965793,6.47691099 13.6512446,6.31921106 13.8419429,6.31921106 L14.749098,6.31921106 C14.9397962,6.31921106 15.0944616,6.47691099 15.0944616,6.67148194 C15.0944616,6.86605288 14.9398538,7.02375281 14.749098,7.02375281 Z" id="Shape" fill="#CCCCCC"></path>
                    <path d="M8.51994736,7.02375281 L7.6127923,7.02375281 C7.42209404,7.02375281 7.2674287,6.86605288 7.2674287,6.67148194 C7.2674287,6.47691099 7.42209404,6.31921106 7.6127923,6.31921106 L8.51994736,6.31921106 C8.71064563,6.31921106 8.86531097,6.47691099 8.86531097,6.67148194 C8.86531097,6.86605288 8.71064563,7.02375281 8.51994736,7.02375281 Z" id="Shape" fill="#CCCCCC"></path>
                    <path d="M26.1035595,8.63122352 L25.4099543,8.63122352 C24.710593,8.63122352 24.1436211,8.05291217 24.1436211,7.33956365 L25.8767708,7.33956365 C26.0672963,7.76434361 26.1536372,8.18266527 26.1035595,8.63122352 Z" id="Shape" fill="#FFFFFF"></path>
                    <polygon id="Shape" fill="#96E0DE" points="11.5136742 1.44900753 11.5136742 5.09148836 11.1090232 5.09148836 7.53853913 1.44900753"></polygon>
                    <path d="M17.8516719,5.09148836 L15.9556257,5.09148836 L12.3770832,1.44137499 L14.7267069,1.44137499 C15.2959812,1.44137499 15.8358997,1.74902489 16.1340636,2.24396546 L17.8516719,5.09148836 Z" id="Shape" fill="#96E0DE"></path>
                    <path d="M6.67513013,1.66682835 L6.67513013,4.54957833 L5.27468072,3.12111994 C5.5406107,2.46237341 6.0494464,1.94453522 6.67513013,1.66682835 Z" id="Shape" fill="#96E0DE"></path>
                </g>
            </g>
        </g>
    </g>
</svg>