<?xml version="1.0" encoding="UTF-8"?>
<svg width="90.0221729px" height="89.8954704px" viewBox="0 0 90.0221729 89.8954704" version="1.1" xmlns="http://www.w3.org/2000/svg" xmlns:xlink="http://www.w3.org/1999/xlink">
    <!-- Generator: Sketch 52.6 (67491) - http://www.bohemiancoding.com/sketch -->
    <desc>Created with Sketch.</desc>
    <defs>
        <filter x="-94.3%" y="-94.3%" width="289.4%" height="289.4%" filterUnits="objectBoundingBox" id="filter-1">
            <feOffset dx="0" dy="5" in="SourceAlpha" result="shadowOffsetOuter1"></feOffset>
            <feGaussianBlur stdDeviation="7" in="shadowOffsetOuter1" result="shadowBlurOuter1"></feGaussianBlur>
            <feColorMatrix values="0 0 0 0 0   0 0 0 0 0   0 0 0 0 0  0 0 0 0.115404212 0" type="matrix" in="shadowBlurOuter1" result="shadowMatrixOuter1"></feColorMatrix>
            <feMerge>
                <feMergeNode in="shadowMatrixOuter1"></feMergeNode>
                <feMergeNode in="SourceGraphic"></feMergeNode>
            </feMerge>
        </filter>
        <circle id="path-2" cx="19.35" cy="19.35" r="19.35"></circle>
    </defs>
    <g id="Page-1" stroke="none" stroke-width="1" fill="none" fill-rule="evenodd">
        <g id="icon/institution/standard-bank">
            <g id="icon---standard-bank" filter="url(#filter-1)" transform="translate(26.100000, 26.100000)">
                <mask id="mask-3" fill="white">
                    <use xlink:href="#path-2"></use>
                </mask>
                <use id="Oval" fill="#FFFFFF" xlink:href="#path-2"></use>
                <path d="M9.72785418,16.3294783 L18.1259219,33.0060756 L17.5270131,32.7360081 C13.2483744,30.6834476 10.1693,27.2608901 9.65225013,22.4820498 C9.51016942,21.1713919 9.58410819,18.7710523 9.72775833,16.3294783 L9.72785418,16.3294783 Z M29.0751548,22.3798375 C28.6893264,25.9504145 26.9636889,28.7050275 24.4089363,30.7394864 L20.8920099,23.909918 C20.6141019,23.3702444 20.1734814,23.0130467 20.1734814,23.0130467 C21.2696387,23.3554351 22.5672729,24.1917832 24.6715563,24.1917832 C26.6840359,24.1917832 28.3943885,23.0082044 29.0751548,22.3798375 Z M12.9372223,10.0201962 C14.7384639,9.7692401 16.9496522,9.55786818 19.3533899,9.55786818 C23.2363497,9.55786818 26.6166316,10.1092444 28.5347227,10.482166 L28.6398812,11.5696541 C27.5239225,12.174064 26.0437792,12.8648655 23.9278941,12.7548783 C21.1824393,12.611985 19.6690504,11.2073431 17.3777497,11.0879438 C16.5333482,11.0440593 15.7185969,11.1473329 14.9533851,11.3734578 L12.8841833,10.0275097 L12.9375911,10.0183637 L12.9372223,10.0201962 Z M23.649986,34.0969495 L17.2005826,21.5173419 C17.8974672,21.0615951 18.705957,20.7944538 19.6024779,20.7944538 C21.4261789,20.7944538 22.7381802,22.0111275 24.6715563,22.0111275 C25.8351194,22.0111275 27.8773371,21.1227554 29.1281955,20.1118805 L29.0968864,18.5275872 C29.0369962,16.9287603 28.9215601,15.1578731 28.8001939,13.5588623 C27.6671161,14.1818271 26.1464551,14.9471431 23.9280777,14.8315829 C21.1826229,14.6888655 19.6026615,13.1695779 17.3113543,13.0503609 C15.8662973,12.975393 14.4239081,13.266401 13.2539892,13.9280337 L13.2447773,12.6787248 C13.2447773,12.4871885 13.165586,12.2970249 13.0002043,12.1731495 L10.479617,10.2877989 C10.4280499,10.252107 10.3599973,10.2319939 10.2925036,10.2319939 C10.1180985,10.2319939 9.97693245,10.3722386 9.97693245,10.5453958 L9.97693245,13.6791407 C9.97693245,13.8853928 10.0811697,14.0633053 10.2367904,14.1774025 L11.2591925,14.9306497 L21.6643995,35.1096229 C20.9135531,35.4457865 20.1393195,35.7424611 19.3497977,36 C13.234927,34.0036606 8.03812511,29.6605555 7.28728028,22.7338914 C6.97161975,19.8130702 7.59391739,12.517417 7.85736262,9.6952384 C7.91997906,9.01778494 8.33490535,8.44930886 8.98952906,8.31354686 C10.7817375,7.94236565 14.726763,7.2 19.3497977,7.2 C23.9737472,7.2 27.9178515,7.94236565 29.710068,8.31354686 C30.3656048,8.44930886 30.7801623,9.01778494 30.8430582,9.6952384 C31.1066009,12.517417 31.7288027,19.8130702 31.4123168,22.7338914 C30.8466471,27.9562258 27.7550481,31.7098271 23.6463955,34.0965478 L23.649986,34.0969495 Z" id="path6648" fill="#003895" mask="url(#mask-3)"></path>
            </g>
        </g>
    </g>
</svg>