<?xml version="1.0" encoding="UTF-8"?>
<svg width="80px" height="8.8px" viewBox="0 0 80 8.8" version="1.1" xmlns="http://www.w3.org/2000/svg" xmlns:xlink="http://www.w3.org/1999/xlink">
    <!-- Generator: Sketch 52.6 (67491) - http://www.bohemiancoding.com/sketch -->
    <desc>Created with Sketch.</desc>
    <g id="Page-1" stroke="none" stroke-width="1" fill="none" fill-rule="evenodd">
        <g id="Stars" fill="#BD4D9C">
            <path d="M4.75079786,0.240547467 L6.08388035,2.78634621 L9.06464976,3.19450416 C9.38558171,3.23839724 9.51365077,3.61029569 9.28130414,3.82355881 L7.12463129,5.80494978 L7.63387032,8.60313374 C7.68854011,8.90418303 7.35318141,9.13414461 7.06591188,8.99173064 L4.4,7.67088285 L1.73408812,8.99173064 C1.44681859,9.13414461 1.11145989,8.90418303 1.16638278,8.60313374 L1.67536871,5.80494978 L-0.481304136,3.82355881 C-0.713650771,3.61029569 -0.585581711,3.23839724 -0.264649758,3.19450416 L2.71611965,2.78634621 L4.04920214,0.240547467 C4.19271036,-0.0335457449 4.60728964,-0.0335457449 4.75079786,0.240547467" id="Fill-172"></path>
            <path d="M22.7507979,0.240547467 L24.0838803,2.78634621 L27.0646498,3.19450416 C27.3855817,3.23839724 27.5136508,3.61029569 27.2813041,3.82355881 L25.1246313,5.80494978 L25.6338703,8.60313374 C25.6885401,8.90418303 25.3531814,9.13414461 25.0659119,8.99173064 L22.4,7.67088285 L19.7340881,8.99173064 C19.4468186,9.13414461 19.1114599,8.90418303 19.1663828,8.60313374 L19.6753687,5.80494978 L17.5186959,3.82355881 C17.2863492,3.61029569 17.4144183,3.23839724 17.7353502,3.19450416 L20.7161197,2.78634621 L22.0492021,0.240547467 C22.1927104,-0.0335457449 22.6072896,-0.0335457449 22.7507979,0.240547467" id="Fill-172-Copy"></path>
            <path d="M40.7507979,0.240547467 L42.0838803,2.78634621 L45.0646498,3.19450416 C45.3855817,3.23839724 45.5136508,3.61029569 45.2813041,3.82355881 L43.1246313,5.80494978 L43.6338703,8.60313374 C43.6885401,8.90418303 43.3531814,9.13414461 43.0659119,8.99173064 L40.4,7.67088285 L37.7340881,8.99173064 C37.4468186,9.13414461 37.1114599,8.90418303 37.1663828,8.60313374 L37.6753687,5.80494978 L35.5186959,3.82355881 C35.2863492,3.61029569 35.4144183,3.23839724 35.7353502,3.19450416 L38.7161197,2.78634621 L40.0492021,0.240547467 C40.1927104,-0.0335457449 40.6072896,-0.0335457449 40.7507979,0.240547467" id="Fill-172-Copy-2"></path>
            <path d="M57.7507979,0.240547467 L59.0838803,2.78634621 L62.0646498,3.19450416 C62.3855817,3.23839724 62.5136508,3.61029569 62.2813041,3.82355881 L60.1246313,5.80494978 L60.6338703,8.60313374 C60.6885401,8.90418303 60.3531814,9.13414461 60.0659119,8.99173064 L57.4,7.67088285 L54.7340881,8.99173064 C54.4468186,9.13414461 54.1114599,8.90418303 54.1663828,8.60313374 L54.6753687,5.80494978 L52.5186959,3.82355881 C52.2863492,3.61029569 52.4144183,3.23839724 52.7353502,3.19450416 L55.7161197,2.78634621 L57.0492021,0.240547467 C57.1927104,-0.0335457449 57.6072896,-0.0335457449 57.7507979,0.240547467" id="Fill-172-Copy-3"></path>
            <path d="M75.7507979,0.240547467 L77.0838803,2.78634621 L80.0646498,3.19450416 C80.3855817,3.23839724 80.5136508,3.61029569 80.2813041,3.82355881 L78.1246313,5.80494978 L78.6338703,8.60313374 C78.6885401,8.90418303 78.3531814,9.13414461 78.0659119,8.99173064 L75.4,7.67088285 L72.7340881,8.99173064 C72.4468186,9.13414461 72.1114599,8.90418303 72.1663828,8.60313374 L72.6753687,5.80494978 L70.5186959,3.82355881 C70.2863492,3.61029569 70.4144183,3.23839724 70.7353502,3.19450416 L73.7161197,2.78634621 L75.0492021,0.240547467 C75.1927104,-0.0335457449 75.6072896,-0.0335457449 75.7507979,0.240547467" id="Fill-172-Copy-5"></path>
        </g>
    </g>
</svg>