<?xml version="1.0" encoding="UTF-8"?>
<svg width="199px" height="200px" viewBox="0 0 199 200" version="1.1" xmlns="http://www.w3.org/2000/svg" xmlns:xlink="http://www.w3.org/1999/xlink">
    <!-- Generator: Sketch 52.6 (67491) - http://www.bohemiancoding.com/sketch -->
    <desc>Created with Sketch.</desc>
    <defs>
        <rect id="path-1" x="0.45" y="0.09" width="146.7" height="145.8" rx="0.945959731"></rect>
        <filter x="-18.1%" y="-14.7%" width="136.1%" height="136.4%" filterUnits="objectBoundingBox" id="filter-2">
            <feOffset dx="0" dy="5" in="SourceAlpha" result="shadowOffsetOuter1"></feOffset>
            <feGaussianBlur stdDeviation="8" in="shadowOffsetOuter1" result="shadowBlurOuter1"></feGaussianBlur>
            <feColorMatrix values="0 0 0 0 0   0 0 0 0 0   0 0 0 0 0  0 0 0 0.10377038 0" type="matrix" in="shadowBlurOuter1"></feColorMatrix>
        </filter>
        <linearGradient x1="109.692766%" y1="3.1207851%" x2="16.2006672%" y2="70.4938757%" id="linearGradient-3">
            <stop stop-color="#C9FAFE" offset="0%"></stop>
            <stop stop-color="#53D9F1" offset="100%"></stop>
        </linearGradient>
        <path d="M37.398408,18.4792134 C37.398408,28.6849133 29.0264004,36.9584267 18.699204,36.9584267 C8.37200761,36.9584267 0,28.6849133 0,18.4792134 C0,8.2735134 8.37200761,0 18.699204,0 C29.0264004,0 37.398408,8.2735134 37.398408,18.4792134 Z" id="path-4"></path>
        <linearGradient x1="126.189809%" y1="26.7983544%" x2="-17.5949777%" y2="72.1532116%" id="linearGradient-5">
            <stop stop-color="#F39083" offset="0%"></stop>
            <stop stop-color="#E2574C" offset="100%"></stop>
        </linearGradient>
    </defs>
    <g id="Page-1" stroke="none" stroke-width="1" fill="none" fill-rule="evenodd">
        <g id="card/nudge/hey-lookie">
            <g transform="translate(27.900000, 18.000000)">
                <g id="Mask" fill-rule="nonzero">
                    <use fill="black" fill-opacity="1" filter="url(#filter-2)" xlink:href="#path-1"></use>
                    <use fill="#FFFFFF" xlink:href="#path-1"></use>
                </g>
                <path d="M22.6296,67.59 L22.2192,67.59 L22.2192,62.7876 L22.6296,62.7876 L22.6296,67.59 Z M26.532,67.59 L26.1576,67.59 L26.1576,65.2356 C26.1576,64.566 25.8192,64.3644 25.3152,64.3644 C24.8688,64.3644 24.408,64.6452 24.1848,64.962 L24.1848,67.59 L23.8104,67.59 L23.8104,64.1124 L24.1848,64.1124 L24.1848,64.638 C24.4368,64.3356 24.9336,64.026 25.4376,64.026 C26.1432,64.026 26.532,64.3716 26.532,65.1564 L26.532,67.59 Z M30.3192,67.6764 C29.8584,67.6764 29.6352,67.3956 29.6352,66.9204 L29.6352,64.4436 L29.0592,64.4436 L29.0592,64.1124 L29.6352,64.1124 L29.6352,63.162 L30.0168,63.162 L30.0168,64.1124 L30.7224,64.1124 L30.7224,64.4436 L30.0168,64.4436 L30.0168,66.8628 C30.0168,67.1436 30.132,67.338 30.3768,67.338 C30.5424,67.338 30.6864,67.2588 30.7656,67.1724 L30.9096,67.4604 C30.7728,67.59 30.6072,67.6764 30.3192,67.6764 Z M34.2648,67.59 L33.8904,67.59 L33.8904,65.2212 C33.8904,64.5516 33.552,64.3644 33.048,64.3644 C32.6016,64.3644 32.1408,64.6452 31.9176,64.962 L31.9176,67.59 L31.5432,67.59 L31.5432,62.7876 L31.9176,62.7876 L31.9176,64.638 C32.1696,64.3356 32.6664,64.026 33.1704,64.026 C33.876,64.026 34.2648,64.3572 34.2648,65.142 L34.2648,67.59 Z M36.972,67.6764 C35.9568,67.6764 35.2368,66.9204 35.2368,65.8476 C35.2368,64.8396 35.9424,64.026 36.9072,64.026 C37.9656,64.026 38.5488,64.8612 38.5488,65.8692 L38.5488,65.97 L35.64,65.97 C35.676,66.726 36.18,67.3524 37.0008,67.3524 C37.44,67.3524 37.8432,67.1868 38.1384,66.87 L38.3328,67.1148 C37.9872,67.4748 37.548,67.6764 36.972,67.6764 Z M38.1672,65.6748 C38.16,65.0844 37.7712,64.35 36.9,64.35 C36.0792,64.35 35.6688,65.07 35.64,65.6748 L38.1672,65.6748 Z M41.7528,67.59 L41.3784,67.59 L41.3784,62.7876 L41.7528,62.7876 L41.7528,67.59 Z M45.504,67.59 L45.1296,67.59 L45.1296,67.1796 C44.82,67.518 44.4312,67.6764 43.9488,67.6764 C43.3512,67.6764 42.732,67.266 42.732,66.5172 C42.732,65.7612 43.344,65.3652 43.9488,65.3652 C44.4312,65.3652 44.8272,65.5236 45.1296,65.862 L45.1296,65.1564 C45.1296,64.638 44.712,64.3572 44.2008,64.3572 C43.7616,64.3572 43.4232,64.5084 43.1064,64.8684 L42.8976,64.6092 C43.2576,64.2204 43.6608,64.026 44.2368,64.026 C44.9424,64.026 45.504,64.3644 45.504,65.142 L45.504,67.59 Z M44.0784,67.3812 C44.496,67.3812 44.8848,67.2228 45.1296,66.906 L45.1296,66.1428 C44.8848,65.8188 44.496,65.6604 44.0784,65.6604 C43.5096,65.6604 43.128,66.0276 43.128,66.5244 C43.128,67.014 43.5096,67.3812 44.0784,67.3812 Z M47.7072,67.6764 C47.1456,67.6764 46.7136,67.5108 46.368,67.122 L46.5912,66.8484 C46.8144,67.1292 47.2248,67.3596 47.7144,67.3596 C48.2976,67.3596 48.6432,67.0572 48.6432,66.654 C48.6432,65.7036 46.4472,66.2436 46.4472,64.9908 C46.4472,64.458 46.9008,64.026 47.6856,64.026 C48.2832,64.026 48.6792,64.2564 48.9312,64.5372 L48.7224,64.8036 C48.5208,64.53 48.1464,64.3428 47.6856,64.3428 C47.1456,64.3428 46.8216,64.6164 46.8216,64.9764 C46.8216,65.8476 49.0104,65.3148 49.0104,66.654 C49.0104,67.2156 48.5784,67.6764 47.7072,67.6764 Z M50.7312,67.6764 C50.2704,67.6764 50.0472,67.3956 50.0472,66.9204 L50.0472,64.4436 L49.4712,64.4436 L49.4712,64.1124 L50.0472,64.1124 L50.0472,63.162 L50.4288,63.162 L50.4288,64.1124 L51.1344,64.1124 L51.1344,64.4436 L50.4288,64.4436 L50.4288,66.8628 C50.4288,67.1436 50.544,67.338 50.7888,67.338 C50.9544,67.338 51.0984,67.2588 51.1776,67.1724 L51.3216,67.4604 C51.1848,67.59 51.0192,67.6764 50.7312,67.6764 Z M53.5896,68.9508 L53.6544,68.6052 C53.7336,68.6412 53.8704,68.6628 53.9568,68.6628 C54.1872,68.6628 54.3456,68.5692 54.4896,68.238 L54.7632,67.6188 L53.2872,64.1124 L53.7048,64.1124 L54.972,67.1508 L56.2248,64.1124 L56.6496,64.1124 L54.8496,68.3532 C54.6624,68.7924 54.3672,69.0012 53.964,69.0012 C53.8416,69.0012 53.6832,68.9796 53.5896,68.9508 Z M58.824,67.6764 C57.8088,67.6764 57.0888,66.9204 57.0888,65.8476 C57.0888,64.8396 57.7944,64.026 58.7592,64.026 C59.8176,64.026 60.4008,64.8612 60.4008,65.8692 L60.4008,65.97 L57.492,65.97 C57.528,66.726 58.032,67.3524 58.8528,67.3524 C59.292,67.3524 59.6952,67.1868 59.9904,66.87 L60.1848,67.1148 C59.8392,67.4748 59.4,67.6764 58.824,67.6764 Z M60.0192,65.6748 C60.012,65.0844 59.6232,64.35 58.752,64.35 C57.9312,64.35 57.5208,65.07 57.492,65.6748 L60.0192,65.6748 Z M63.9504,67.59 L63.576,67.59 L63.576,67.1796 C63.2664,67.518 62.8776,67.6764 62.3952,67.6764 C61.7976,67.6764 61.1784,67.266 61.1784,66.5172 C61.1784,65.7612 61.7904,65.3652 62.3952,65.3652 C62.8776,65.3652 63.2736,65.5236 63.576,65.862 L63.576,65.1564 C63.576,64.638 63.1584,64.3572 62.6472,64.3572 C62.208,64.3572 61.8696,64.5084 61.5528,64.8684 L61.344,64.6092 C61.704,64.2204 62.1072,64.026 62.6832,64.026 C63.3888,64.026 63.9504,64.3644 63.9504,65.142 L63.9504,67.59 Z M62.5248,67.3812 C62.9424,67.3812 63.3312,67.2228 63.576,66.906 L63.576,66.1428 C63.3312,65.8188 62.9424,65.6604 62.5248,65.6604 C61.956,65.6604 61.5744,66.0276 61.5744,66.5244 C61.5744,67.014 61.956,67.3812 62.5248,67.3812 Z M65.4912,67.59 L65.1168,67.59 L65.1168,64.1124 L65.4912,64.1124 L65.4912,64.71 C65.7864,64.3212 66.1824,64.0404 66.6648,64.0404 L66.6648,64.4508 C66.6,64.4364 66.5496,64.4364 66.4776,64.4364 C66.1248,64.4364 65.6496,64.7532 65.4912,65.0556 L65.4912,67.59 Z M67.9608,67.4892 C67.9608,67.8924 67.7232,68.274 67.4424,68.4684 L67.2336,68.2956 C67.464,68.1372 67.6368,67.8564 67.6512,67.6332 C67.6512,67.6332 67.6008,67.6404 67.5792,67.6404 C67.4064,67.6404 67.284,67.5108 67.284,67.338 C67.284,67.1724 67.4208,67.0284 67.5936,67.0284 C67.788,67.0284 67.9608,67.194 67.9608,67.4892 Z M70.596,68.9436 L70.7256,68.13 C70.8048,68.166 70.9272,68.1876 71.0136,68.1876 C71.2512,68.1876 71.4096,68.1228 71.496,67.9356 L71.6256,67.6332 L70.2144,64.1124 L71.1936,64.1124 L72.1008,66.5316 L73.0152,64.1124 L73.9944,64.1124 L72.36,68.1588 C72.1008,68.814 71.64,68.9868 71.0424,69.0012 C70.9416,69.0012 70.704,68.9796 70.596,68.9436 Z M76.0176,67.6764 C74.8728,67.6764 74.1816,66.834 74.1816,65.8476 C74.1816,64.8612 74.8728,64.026 76.0176,64.026 C77.1696,64.026 77.8608,64.8612 77.8608,65.8476 C77.8608,66.834 77.1696,67.6764 76.0176,67.6764 Z M76.0176,66.8628 C76.5936,66.8628 76.9104,66.3948 76.9104,65.8476 C76.9104,65.3076 76.5936,64.8396 76.0176,64.8396 C75.4488,64.8396 75.132,65.3076 75.132,65.8476 C75.132,66.3948 75.4488,66.8628 76.0176,66.8628 Z M81.8064,67.59 L80.892,67.59 L80.892,67.1508 C80.6544,67.41 80.2368,67.6764 79.668,67.6764 C78.9048,67.6764 78.5448,67.2588 78.5448,66.582 L78.5448,64.1124 L79.4592,64.1124 L79.4592,66.222 C79.4592,66.7044 79.7112,66.8628 80.1,66.8628 C80.4528,66.8628 80.7336,66.6684 80.892,66.4668 L80.892,64.1124 L81.8064,64.1124 L81.8064,67.59 Z M87.9624,67.59 L86.8176,67.59 L85.896,66.2508 L85.4784,66.6972 L85.4784,67.59 L84.564,67.59 L84.564,62.7876 L85.4784,62.7876 L85.4784,65.6604 L86.796,64.1124 L87.9192,64.1124 L86.544,65.6892 L87.9624,67.59 Z M90.0576,67.6764 C88.9992,67.6764 88.2,66.9636 88.2,65.8476 C88.2,64.8396 88.9488,64.026 90,64.026 C91.044,64.026 91.7424,64.8036 91.7424,65.934 L91.7424,66.15 L89.1576,66.15 C89.2224,66.5748 89.568,66.9276 90.1584,66.9276 C90.4536,66.9276 90.8568,66.8052 91.08,66.5892 L91.4904,67.194 C91.1448,67.5108 90.5976,67.6764 90.0576,67.6764 Z M90.864,65.5164 C90.8352,65.1852 90.6048,64.7748 90,64.7748 C89.4312,64.7748 89.1864,65.1708 89.1504,65.5164 L90.864,65.5164 Z M94.392,67.6764 C93.9816,67.6764 93.6072,67.5036 93.3192,67.1436 L93.3192,68.9148 L92.4048,68.9148 L92.4048,64.1124 L93.3192,64.1124 L93.3192,64.5516 C93.5856,64.2132 93.9672,64.026 94.392,64.026 C95.2848,64.026 95.9328,64.6884 95.9328,65.8476 C95.9328,67.0068 95.2848,67.6764 94.392,67.6764 Z M94.104,66.8628 C94.6296,66.8628 94.9896,66.4524 94.9896,65.8476 C94.9896,65.25 94.6296,64.8396 94.104,64.8396 C93.8088,64.8396 93.4776,65.0052 93.3192,65.2356 L93.3192,66.4596 C93.4704,66.6828 93.8088,66.8628 94.104,66.8628 Z M97.7688,67.6764 C97.128,67.6764 96.7896,67.3452 96.7896,66.7188 L96.7896,64.9116 L96.2136,64.9116 L96.2136,64.1124 L96.7896,64.1124 L96.7896,63.162 L97.704,63.162 L97.704,64.1124 L98.4096,64.1124 L98.4096,64.9116 L97.704,64.9116 L97.704,66.474 C97.704,66.6972 97.8192,66.8628 98.0208,66.8628 C98.1576,66.8628 98.2872,66.8124 98.3376,66.7548 L98.532,67.4532 C98.3952,67.5756 98.1504,67.6764 97.7688,67.6764 Z M102.4704,67.6764 C101.592,67.6764 100.9296,67.338 100.5768,66.906 L101.1168,66.222 C101.4408,66.5676 101.9664,66.7692 102.4344,66.7692 C103.0176,66.7692 103.3416,66.5172 103.3416,66.1572 C103.3416,65.7756 103.0464,65.6028 102.3768,65.6028 C102.1752,65.6028 101.8512,65.61 101.7792,65.6172 L101.7792,64.6956 C101.8656,64.7028 102.1968,64.7028 102.3768,64.7028 C102.9096,64.7028 103.2696,64.5444 103.2696,64.1916 C103.2696,63.81 102.8736,63.6228 102.3768,63.6228 C101.9088,63.6228 101.4912,63.7956 101.1528,64.1196 L100.6416,63.4788 C101.0304,63.0396 101.6352,62.7156 102.4776,62.7156 C103.6008,62.7156 104.292,63.2196 104.292,64.0188 C104.292,64.6236 103.7736,65.0196 103.2408,65.1132 C103.7304,65.1636 104.364,65.5452 104.364,66.2652 C104.364,67.0932 103.6224,67.6764 102.4704,67.6764 Z M106.9776,67.6764 C105.516,67.6764 104.904,66.5532 104.904,65.1996 C104.904,63.7452 105.7248,62.7156 107.1432,62.7156 C107.7264,62.7156 108.216,62.91 108.5616,63.2124 L108.1008,63.9972 C107.8416,63.7524 107.568,63.6228 107.1432,63.6228 C106.4376,63.6228 105.9408,64.2204 105.9408,64.9836 C105.9408,65.0196 105.9408,65.0484 105.948,65.0844 C106.1712,64.7604 106.6536,64.4652 107.1792,64.4652 C108.0432,64.4652 108.8208,65.0052 108.8208,66.0276 C108.8208,66.9636 108.072,67.6764 106.9776,67.6764 Z M106.92,66.7692 C107.4744,66.7692 107.7768,66.3948 107.7768,66.0636 C107.7768,65.5596 107.3448,65.3436 106.8912,65.3436 C106.5312,65.3436 106.1784,65.5092 105.948,65.7972 C105.9912,66.258 106.2504,66.7692 106.92,66.7692 Z M110.4408,65.106 C109.7064,65.106 109.224,64.5876 109.224,63.918 C109.224,63.2412 109.7064,62.7156 110.4408,62.7156 C111.1824,62.7156 111.6648,63.2412 111.6648,63.918 C111.6648,64.5876 111.1824,65.106 110.4408,65.106 Z M110.5128,67.59 L109.9728,67.59 L113.04,62.7876 L113.5872,62.7876 L110.5128,67.59 Z M113.0832,67.6764 C112.3488,67.6764 111.8664,67.158 111.8664,66.4884 C111.8664,65.8116 112.3488,65.2788 113.0832,65.2788 C113.8176,65.2788 114.3072,65.8116 114.3072,66.4884 C114.3072,67.158 113.8176,67.6764 113.0832,67.6764 Z M110.4408,64.5444 C110.772,64.5444 111.0168,64.2996 111.0168,63.918 C111.0168,63.522 110.772,63.2772 110.4408,63.2772 C110.1168,63.2772 109.872,63.522 109.872,63.918 C109.872,64.2996 110.1168,64.5444 110.4408,64.5444 Z M113.0832,67.1148 C113.4144,67.1148 113.6592,66.8772 113.6592,66.4884 C113.6592,66.0924 113.4144,65.8476 113.0832,65.8476 C112.752,65.8476 112.5144,66.0924 112.5144,66.4884 C112.5144,66.8772 112.752,67.1148 113.0832,67.1148 Z M118.4112,67.6764 C117.396,67.6764 116.748,66.8628 116.748,65.8476 C116.748,64.8324 117.396,64.026 118.4112,64.026 C119.4408,64.026 120.0888,64.8324 120.0888,65.8476 C120.0888,66.8628 119.4408,67.6764 118.4112,67.6764 Z M118.4112,67.338 C119.232,67.338 119.6856,66.6252 119.6856,65.8476 C119.6856,65.0772 119.232,64.3644 118.4112,64.3644 C117.6048,64.3644 117.144,65.0772 117.144,65.8476 C117.144,66.6252 117.6048,67.338 118.4112,67.338 Z M121.5576,67.59 L121.176,67.59 L121.176,64.4436 L120.6,64.4436 L120.6,64.1124 L121.176,64.1124 L121.176,63.7956 C121.176,63.1188 121.536,62.7156 122.1192,62.7156 C122.364,62.7156 122.5584,62.766 122.7816,62.9604 L122.6016,63.234 C122.4864,63.126 122.3424,63.054 122.1552,63.054 C121.7592,63.054 121.5576,63.3276 121.5576,63.7956 L121.5576,64.1124 L122.2632,64.1124 L122.2632,64.4436 L121.5576,64.4436 L121.5576,67.59 Z M19.7784,77.9508 L19.8432,77.6052 C19.9224,77.6412 20.0592,77.6628 20.1456,77.6628 C20.376,77.6628 20.5344,77.5692 20.6784,77.238 L20.952,76.6188 L19.476,73.1124 L19.8936,73.1124 L21.1608,76.1508 L22.4136,73.1124 L22.8384,73.1124 L21.0384,77.3532 C20.8512,77.7924 20.556,78.0012 20.1528,78.0012 C20.0304,78.0012 19.872,77.9796 19.7784,77.9508 Z M24.9408,76.6764 C23.9256,76.6764 23.2776,75.8628 23.2776,74.8476 C23.2776,73.8324 23.9256,73.026 24.9408,73.026 C25.9704,73.026 26.6184,73.8324 26.6184,74.8476 C26.6184,75.8628 25.9704,76.6764 24.9408,76.6764 Z M24.9408,76.338 C25.7616,76.338 26.2152,75.6252 26.2152,74.8476 C26.2152,74.0772 25.7616,73.3644 24.9408,73.3644 C24.1344,73.3644 23.6736,74.0772 23.6736,74.8476 C23.6736,75.6252 24.1344,76.338 24.9408,76.338 Z M30.3048,76.59 L29.9304,76.59 L29.9304,76.0788 C29.6496,76.3956 29.1816,76.6764 28.6776,76.6764 C27.972,76.6764 27.5832,76.3452 27.5832,75.5604 L27.5832,73.1124 L27.9576,73.1124 L27.9576,75.474 C27.9576,76.1508 28.296,76.338 28.8,76.338 C29.2464,76.338 29.7,76.0716 29.9304,75.762 L29.9304,73.1124 L30.3048,73.1124 L30.3048,76.59 Z M31.8456,76.59 L31.4712,76.59 L31.4712,73.1124 L31.8456,73.1124 L31.8456,73.71 C32.1408,73.3212 32.5368,73.0404 33.0192,73.0404 L33.0192,73.4508 C32.9544,73.4364 32.904,73.4364 32.832,73.4364 C32.4792,73.4364 32.004,73.7532 31.8456,74.0556 L31.8456,76.59 Z M35.8056,72.5652 C35.6544,72.5652 35.5176,72.4356 35.5176,72.2772 C35.5176,72.1188 35.6544,71.9964 35.8056,71.9964 C35.964,71.9964 36.0936,72.1188 36.0936,72.2772 C36.0936,72.4356 35.964,72.5652 35.8056,72.5652 Z M35.9928,76.59 L35.6184,76.59 L35.6184,73.1124 L35.9928,73.1124 L35.9928,76.59 Z M39.8808,76.59 L39.5064,76.59 L39.5064,74.2356 C39.5064,73.566 39.168,73.3644 38.664,73.3644 C38.2176,73.3644 37.7568,73.6452 37.5336,73.962 L37.5336,76.59 L37.1592,76.59 L37.1592,73.1124 L37.5336,73.1124 L37.5336,73.638 C37.7856,73.3356 38.2824,73.026 38.7864,73.026 C39.492,73.026 39.8808,73.3716 39.8808,74.1564 L39.8808,76.59 Z M42.5376,76.6764 C41.5152,76.6764 40.8528,75.8628 40.8528,74.8476 C40.8528,73.8324 41.5152,73.026 42.5376,73.026 C43.1424,73.026 43.488,73.2636 43.7688,73.6164 L43.5096,73.8468 C43.2576,73.5012 42.9408,73.3644 42.5592,73.3644 C41.7456,73.3644 41.2488,74.0124 41.2488,74.8476 C41.2488,75.6828 41.7456,76.338 42.5592,76.338 C42.9408,76.338 43.2576,76.194 43.5096,75.8484 L43.7688,76.0788 C43.488,76.4388 43.1424,76.6764 42.5376,76.6764 Z M46.0728,76.6764 C45.0576,76.6764 44.4096,75.8628 44.4096,74.8476 C44.4096,73.8324 45.0576,73.026 46.0728,73.026 C47.1024,73.026 47.7504,73.8324 47.7504,74.8476 C47.7504,75.8628 47.1024,76.6764 46.0728,76.6764 Z M46.0728,76.338 C46.8936,76.338 47.3472,75.6252 47.3472,74.8476 C47.3472,74.0772 46.8936,73.3644 46.0728,73.3644 C45.2664,73.3644 44.8056,74.0772 44.8056,74.8476 C44.8056,75.6252 45.2664,76.338 46.0728,76.338 Z M53.2296,76.59 L52.8552,76.59 L52.8552,74.1564 C52.8552,73.6668 52.6464,73.3644 52.1568,73.3644 C51.7824,73.3644 51.3576,73.638 51.1632,73.9548 L51.1632,76.59 L50.7816,76.59 L50.7816,74.1564 C50.7816,73.6668 50.58,73.3644 50.0904,73.3644 C49.716,73.3644 49.2984,73.6452 49.0896,73.962 L49.0896,76.59 L48.7152,76.59 L48.7152,73.1124 L49.0896,73.1124 L49.0896,73.638 C49.2336,73.4148 49.7088,73.026 50.2128,73.026 C50.7528,73.026 51.0408,73.3428 51.1272,73.6812 C51.3216,73.3572 51.7896,73.026 52.2792,73.026 C52.92,73.026 53.2296,73.386 53.2296,74.0844 L53.2296,76.59 Z M55.9368,76.6764 C54.9216,76.6764 54.2016,75.9204 54.2016,74.8476 C54.2016,73.8396 54.9072,73.026 55.872,73.026 C56.9304,73.026 57.5136,73.8612 57.5136,74.8692 L57.5136,74.97 L54.6048,74.97 C54.6408,75.726 55.1448,76.3524 55.9656,76.3524 C56.4048,76.3524 56.808,76.1868 57.1032,75.87 L57.2976,76.1148 C56.952,76.4748 56.5128,76.6764 55.9368,76.6764 Z M57.132,74.6748 C57.1248,74.0844 56.736,73.35 55.8648,73.35 C55.044,73.35 54.6336,74.07 54.6048,74.6748 L57.132,74.6748 Z M60.8472,76.59 L60.4656,76.59 L60.4656,73.4436 L59.8896,73.4436 L59.8896,73.1124 L60.4656,73.1124 L60.4656,72.7956 C60.4656,72.1188 60.8256,71.7156 61.4088,71.7156 C61.6536,71.7156 61.848,71.766 62.0712,71.9604 L61.8912,72.234 C61.776,72.126 61.632,72.054 61.4448,72.054 C61.0488,72.054 60.8472,72.3276 60.8472,72.7956 L60.8472,73.1124 L61.5528,73.1124 L61.5528,73.4436 L60.8472,73.4436 L60.8472,76.59 Z M63.72,76.6764 C62.7048,76.6764 62.0568,75.8628 62.0568,74.8476 C62.0568,73.8324 62.7048,73.026 63.72,73.026 C64.7496,73.026 65.3976,73.8324 65.3976,74.8476 C65.3976,75.8628 64.7496,76.6764 63.72,76.6764 Z M63.72,76.338 C64.5408,76.338 64.9944,75.6252 64.9944,74.8476 C64.9944,74.0772 64.5408,73.3644 63.72,73.3644 C62.9136,73.3644 62.4528,74.0772 62.4528,74.8476 C62.4528,75.6252 62.9136,76.338 63.72,76.338 Z M66.7368,76.59 L66.3624,76.59 L66.3624,73.1124 L66.7368,73.1124 L66.7368,73.71 C67.032,73.3212 67.428,73.0404 67.9104,73.0404 L67.9104,73.4508 C67.8456,73.4364 67.7952,73.4364 67.7232,73.4364 C67.3704,73.4364 66.8952,73.7532 66.7368,74.0556 L66.7368,76.59 Z M70.8192,72.738 C70.524,72.738 70.2792,72.4932 70.2792,72.1908 C70.2792,71.8884 70.524,71.6508 70.8192,71.6508 C71.1216,71.6508 71.3664,71.8884 71.3664,72.1908 C71.3664,72.4932 71.1216,72.738 70.8192,72.738 Z M71.28,76.59 L70.3656,76.59 L70.3656,73.1124 L71.28,73.1124 L71.28,76.59 Z M75.456,76.59 L74.5344,76.59 L74.5344,74.4876 C74.5344,74.0052 74.2824,73.8396 73.8936,73.8396 C73.5336,73.8396 73.26,74.0412 73.1016,74.2428 L73.1016,76.59 L72.1872,76.59 L72.1872,73.1124 L73.1016,73.1124 L73.1016,73.5588 C73.3248,73.2996 73.7568,73.026 74.3184,73.026 C75.0888,73.026 75.456,73.458 75.456,74.1348 L75.456,76.59 Z M78.2424,76.59 L77.256,76.59 L75.8592,73.1124 L76.8384,73.1124 L77.7456,75.5316 L78.66,73.1124 L79.6392,73.1124 L78.2424,76.59 Z M81.684,76.6764 C80.6256,76.6764 79.8264,75.9636 79.8264,74.8476 C79.8264,73.8396 80.5752,73.026 81.6264,73.026 C82.6704,73.026 83.3688,73.8036 83.3688,74.934 L83.3688,75.15 L80.784,75.15 C80.8488,75.5748 81.1944,75.9276 81.7848,75.9276 C82.08,75.9276 82.4832,75.8052 82.7064,75.5892 L83.1168,76.194 C82.7712,76.5108 82.224,76.6764 81.684,76.6764 Z M82.4904,74.5164 C82.4616,74.1852 82.2312,73.7748 81.6264,73.7748 C81.0576,73.7748 80.8128,74.1708 80.7768,74.5164 L82.4904,74.5164 Z M85.284,76.6764 C84.6792,76.6764 84.096,76.4748 83.7288,76.1364 L84.1248,75.474 C84.384,75.7188 84.8952,75.9564 85.3272,75.9564 C85.7232,75.9564 85.9104,75.8052 85.9104,75.5892 C85.9104,75.0204 83.8512,75.4884 83.8512,74.1204 C83.8512,73.5372 84.3552,73.026 85.2768,73.026 C85.86,73.026 86.328,73.2276 86.6736,73.5012 L86.3064,74.1492 C86.0976,73.9332 85.7016,73.746 85.2768,73.746 C84.9456,73.746 84.7296,73.89 84.7296,74.0844 C84.7296,74.5956 86.796,74.1636 86.796,75.5676 C86.796,76.2084 86.2488,76.6764 85.284,76.6764 Z M88.632,76.6764 C87.9912,76.6764 87.6528,76.3452 87.6528,75.7188 L87.6528,73.9116 L87.0768,73.9116 L87.0768,73.1124 L87.6528,73.1124 L87.6528,72.162 L88.5672,72.162 L88.5672,73.1124 L89.2728,73.1124 L89.2728,73.9116 L88.5672,73.9116 L88.5672,75.474 C88.5672,75.6972 88.6824,75.8628 88.884,75.8628 C89.0208,75.8628 89.1504,75.8124 89.2008,75.7548 L89.3952,76.4532 C89.2584,76.5756 89.0136,76.6764 88.632,76.6764 Z M90.3528,72.738 C90.0576,72.738 89.8128,72.4932 89.8128,72.1908 C89.8128,71.8884 90.0576,71.6508 90.3528,71.6508 C90.6552,71.6508 90.9,71.8884 90.9,72.1908 C90.9,72.4932 90.6552,72.738 90.3528,72.738 Z M90.8136,76.59 L89.8992,76.59 L89.8992,73.1124 L90.8136,73.1124 L90.8136,76.59 Z M94.9896,76.59 L94.068,76.59 L94.068,74.4876 C94.068,74.0052 93.816,73.8396 93.4272,73.8396 C93.0672,73.8396 92.7936,74.0412 92.6352,74.2428 L92.6352,76.59 L91.7208,76.59 L91.7208,73.1124 L92.6352,73.1124 L92.6352,73.5588 C92.8584,73.2996 93.2904,73.026 93.852,73.026 C94.6224,73.026 94.9896,73.458 94.9896,74.1348 L94.9896,76.59 Z M97.3152,78.0012 C96.7248,78.0012 96.2568,77.8644 95.8176,77.4828 L96.228,76.8276 C96.5088,77.13 96.8832,77.2524 97.3152,77.2524 C97.7544,77.2524 98.28,77.0652 98.28,76.3596 L98.28,76.0212 C98.0064,76.3668 97.632,76.5612 97.2,76.5612 C96.336,76.5612 95.6664,75.9564 95.6664,74.7972 C95.6664,73.6596 96.3216,73.026 97.2,73.026 C97.6176,73.026 97.9992,73.1988 98.28,73.5588 L98.28,73.1124 L99.1944,73.1124 L99.1944,76.3596 C99.1944,77.6772 98.172,78.0012 97.3152,78.0012 Z M97.4952,75.7548 C97.7904,75.7548 98.1216,75.582 98.28,75.3588 L98.28,74.2284 C98.1216,74.0052 97.7904,73.8396 97.4952,73.8396 C96.9696,73.8396 96.6096,74.1996 96.6096,74.7972 C96.6096,75.3948 96.9696,75.7548 97.4952,75.7548 Z M101.196,76.2372 C101.196,76.7772 100.9008,77.2596 100.4544,77.5764 L100.0584,77.2524 C100.2888,77.13 100.5552,76.8276 100.6128,76.5756 C100.5912,76.5828 100.5336,76.5972 100.476,76.5972 C100.2024,76.5972 99.9864,76.3812 99.9864,76.0788 C99.9864,75.762 100.2456,75.5028 100.5552,75.5028 C100.8936,75.5028 101.196,75.7692 101.196,76.2372 Z M105.0408,76.6764 C104.436,76.6764 103.8528,76.4748 103.4856,76.1364 L103.8816,75.474 C104.1408,75.7188 104.652,75.9564 105.084,75.9564 C105.48,75.9564 105.6672,75.8052 105.6672,75.5892 C105.6672,75.0204 103.608,75.4884 103.608,74.1204 C103.608,73.5372 104.112,73.026 105.0336,73.026 C105.6168,73.026 106.0848,73.2276 106.4304,73.5012 L106.0632,74.1492 C105.8544,73.9332 105.4584,73.746 105.0336,73.746 C104.7024,73.746 104.4864,73.89 104.4864,74.0844 C104.4864,74.5956 106.5528,74.1636 106.5528,75.5676 C106.5528,76.2084 106.0056,76.6764 105.0408,76.6764 Z M110.232,76.59 L109.3104,76.59 L109.3104,76.2228 C109.0728,76.5108 108.6624,76.6764 108.2088,76.6764 C107.6544,76.6764 107.0064,76.302 107.0064,75.5244 C107.0064,74.7036 107.6544,74.4012 108.2088,74.4012 C108.6768,74.4012 109.08,74.5524 109.3104,74.826 L109.3104,74.3868 C109.3104,74.034 109.008,73.8036 108.5472,73.8036 C108.18,73.8036 107.8344,73.9476 107.5464,74.214 L107.1864,73.5732 C107.6112,73.1916 108.1584,73.026 108.7056,73.026 C109.5048,73.026 110.232,73.3428 110.232,74.3436 L110.232,76.59 Z M108.576,76.0572 C108.8712,76.0572 109.1592,75.9564 109.3104,75.7548 L109.3104,75.3228 C109.1592,75.1212 108.8712,75.0132 108.576,75.0132 C108.216,75.0132 107.9208,75.2076 107.9208,75.5388 C107.9208,75.87 108.216,76.0572 108.576,76.0572 Z M113.0184,76.59 L112.032,76.59 L110.6352,73.1124 L111.6144,73.1124 L112.5216,75.5316 L113.436,73.1124 L114.4152,73.1124 L113.0184,76.59 Z M115.2792,72.738 C114.984,72.738 114.7392,72.4932 114.7392,72.1908 C114.7392,71.8884 114.984,71.6508 115.2792,71.6508 C115.5816,71.6508 115.8264,71.8884 115.8264,72.1908 C115.8264,72.4932 115.5816,72.738 115.2792,72.738 Z M115.74,76.59 L114.8256,76.59 L114.8256,73.1124 L115.74,73.1124 L115.74,76.59 Z M119.916,76.59 L118.9944,76.59 L118.9944,74.4876 C118.9944,74.0052 118.7424,73.8396 118.3536,73.8396 C117.9936,73.8396 117.72,74.0412 117.5616,74.2428 L117.5616,76.59 L116.6472,76.59 L116.6472,73.1124 L117.5616,73.1124 L117.5616,73.5588 C117.7848,73.2996 118.2168,73.026 118.7784,73.026 C119.5488,73.026 119.916,73.458 119.916,74.1348 L119.916,76.59 Z M122.2416,78.0012 C121.6512,78.0012 121.1832,77.8644 120.744,77.4828 L121.1544,76.8276 C121.4352,77.13 121.8096,77.2524 122.2416,77.2524 C122.6808,77.2524 123.2064,77.0652 123.2064,76.3596 L123.2064,76.0212 C122.9328,76.3668 122.5584,76.5612 122.1264,76.5612 C121.2624,76.5612 120.5928,75.9564 120.5928,74.7972 C120.5928,73.6596 121.248,73.026 122.1264,73.026 C122.544,73.026 122.9256,73.1988 123.2064,73.5588 L123.2064,73.1124 L124.1208,73.1124 L124.1208,76.3596 C124.1208,77.6772 123.0984,78.0012 122.2416,78.0012 Z M122.4216,75.7548 C122.7168,75.7548 123.048,75.582 123.2064,75.3588 L123.2064,74.2284 C123.048,74.0052 122.7168,73.8396 122.4216,73.8396 C121.896,73.8396 121.536,74.1996 121.536,74.7972 C121.536,75.3948 121.896,75.7548 122.4216,75.7548 Z M25.8516,85.6764 C24.7068,85.6764 24.0156,84.834 24.0156,83.8476 C24.0156,82.8612 24.7068,82.026 25.8516,82.026 C27.0036,82.026 27.6948,82.8612 27.6948,83.8476 C27.6948,84.834 27.0036,85.6764 25.8516,85.6764 Z M25.8516,84.8628 C26.4276,84.8628 26.7444,84.3948 26.7444,83.8476 C26.7444,83.3076 26.4276,82.8396 25.8516,82.8396 C25.2828,82.8396 24.966,83.3076 24.966,83.8476 C24.966,84.3948 25.2828,84.8628 25.8516,84.8628 Z M29.2932,85.59 L28.3788,85.59 L28.3788,82.1124 L29.2932,82.1124 L29.2932,82.5804 C29.5452,82.278 29.97,82.026 30.402,82.026 L30.402,82.9188 C30.3372,82.9044 30.258,82.8972 30.15,82.8972 C29.8476,82.8972 29.4444,83.07 29.2932,83.2932 L29.2932,85.59 Z M33.7356,85.59 L32.8212,85.59 L32.8212,82.1124 L33.7356,82.1124 L33.7356,82.5804 C33.9876,82.278 34.4124,82.026 34.8444,82.026 L34.8444,82.9188 C34.7796,82.9044 34.7004,82.8972 34.5924,82.8972 C34.29,82.8972 33.8868,83.07 33.7356,83.2932 L33.7356,85.59 Z M37.0476,85.6764 C35.9892,85.6764 35.19,84.9636 35.19,83.8476 C35.19,82.8396 35.9388,82.026 36.99,82.026 C38.034,82.026 38.7324,82.8036 38.7324,83.934 L38.7324,84.15 L36.1476,84.15 C36.2124,84.5748 36.558,84.9276 37.1484,84.9276 C37.4436,84.9276 37.8468,84.8052 38.07,84.5892 L38.4804,85.194 C38.1348,85.5108 37.5876,85.6764 37.0476,85.6764 Z M37.854,83.5164 C37.8252,83.1852 37.5948,82.7748 36.99,82.7748 C36.4212,82.7748 36.1764,83.1708 36.1404,83.5164 L37.854,83.5164 Z M41.382,85.6764 C40.9716,85.6764 40.5972,85.5036 40.3092,85.1436 L40.3092,86.9148 L39.3948,86.9148 L39.3948,82.1124 L40.3092,82.1124 L40.3092,82.5516 C40.5756,82.2132 40.9572,82.026 41.382,82.026 C42.2748,82.026 42.9228,82.6884 42.9228,83.8476 C42.9228,85.0068 42.2748,85.6764 41.382,85.6764 Z M41.094,84.8628 C41.6196,84.8628 41.9796,84.4524 41.9796,83.8476 C41.9796,83.25 41.6196,82.8396 41.094,82.8396 C40.7988,82.8396 40.4676,83.0052 40.3092,83.2356 L40.3092,84.4596 C40.4604,84.6828 40.7988,84.8628 41.094,84.8628 Z M46.602,85.59 L45.6804,85.59 L45.6804,85.2228 C45.4428,85.5108 45.0324,85.6764 44.5788,85.6764 C44.0244,85.6764 43.3764,85.302 43.3764,84.5244 C43.3764,83.7036 44.0244,83.4012 44.5788,83.4012 C45.0468,83.4012 45.45,83.5524 45.6804,83.826 L45.6804,83.3868 C45.6804,83.034 45.378,82.8036 44.9172,82.8036 C44.55,82.8036 44.2044,82.9476 43.9164,83.214 L43.5564,82.5732 C43.9812,82.1916 44.5284,82.026 45.0756,82.026 C45.8748,82.026 46.602,82.3428 46.602,83.3436 L46.602,85.59 Z M44.946,85.0572 C45.2412,85.0572 45.5292,84.9564 45.6804,84.7548 L45.6804,84.3228 C45.5292,84.1212 45.2412,84.0132 44.946,84.0132 C44.586,84.0132 44.2908,84.2076 44.2908,84.5388 C44.2908,84.87 44.586,85.0572 44.946,85.0572 Z M47.3868,86.9436 L47.5164,86.13 C47.5956,86.166 47.718,86.1876 47.8044,86.1876 C48.042,86.1876 48.2004,86.1228 48.2868,85.9356 L48.4164,85.6332 L47.0052,82.1124 L47.9844,82.1124 L48.8916,84.5316 L49.806,82.1124 L50.7852,82.1124 L49.1508,86.1588 C48.8916,86.814 48.4308,86.9868 47.8332,87.0012 C47.7324,87.0012 47.4948,86.9796 47.3868,86.9436 Z M51.6492,81.738 C51.354,81.738 51.1092,81.4932 51.1092,81.1908 C51.1092,80.8884 51.354,80.6508 51.6492,80.6508 C51.9516,80.6508 52.1964,80.8884 52.1964,81.1908 C52.1964,81.4932 51.9516,81.738 51.6492,81.738 Z M52.11,85.59 L51.1956,85.59 L51.1956,82.1124 L52.11,82.1124 L52.11,85.59 Z M56.286,85.59 L55.3644,85.59 L55.3644,83.4876 C55.3644,83.0052 55.1124,82.8396 54.7236,82.8396 C54.3636,82.8396 54.09,83.0412 53.9316,83.2428 L53.9316,85.59 L53.0172,85.59 L53.0172,82.1124 L53.9316,82.1124 L53.9316,82.5588 C54.1548,82.2996 54.5868,82.026 55.1484,82.026 C55.9188,82.026 56.286,82.458 56.286,83.1348 L56.286,85.59 Z M58.6116,87.0012 C58.0212,87.0012 57.5532,86.8644 57.114,86.4828 L57.5244,85.8276 C57.8052,86.13 58.1796,86.2524 58.6116,86.2524 C59.0508,86.2524 59.5764,86.0652 59.5764,85.3596 L59.5764,85.0212 C59.3028,85.3668 58.9284,85.5612 58.4964,85.5612 C57.6324,85.5612 56.9628,84.9564 56.9628,83.7972 C56.9628,82.6596 57.618,82.026 58.4964,82.026 C58.914,82.026 59.2956,82.1988 59.5764,82.5588 L59.5764,82.1124 L60.4908,82.1124 L60.4908,85.3596 C60.4908,86.6772 59.4684,87.0012 58.6116,87.0012 Z M58.7916,84.7548 C59.0868,84.7548 59.418,84.582 59.5764,84.3588 L59.5764,83.2284 C59.418,83.0052 59.0868,82.8396 58.7916,82.8396 C58.266,82.8396 57.906,83.1996 57.906,83.7972 C57.906,84.3948 58.266,84.7548 58.7916,84.7548 Z M66.5604,85.59 L65.6388,85.59 L65.6388,85.1436 C65.3652,85.4892 64.9908,85.6764 64.566,85.6764 C63.6948,85.6764 63.0252,85.014 63.0252,83.8476 C63.0252,82.7172 63.6804,82.026 64.566,82.026 C64.9764,82.026 65.3652,82.1988 65.6388,82.5588 L65.6388,80.7876 L66.5604,80.7876 L66.5604,85.59 Z M64.854,84.8628 C65.1564,84.8628 65.4876,84.6972 65.6388,84.4668 L65.6388,83.2356 C65.4876,83.0052 65.1564,82.8396 64.854,82.8396 C64.3284,82.8396 63.9684,83.25 63.9684,83.8476 C63.9684,84.4524 64.3284,84.8628 64.854,84.8628 Z M69.102,85.6764 C68.0436,85.6764 67.2444,84.9636 67.2444,83.8476 C67.2444,82.8396 67.9932,82.026 69.0444,82.026 C70.0884,82.026 70.7868,82.8036 70.7868,83.934 L70.7868,84.15 L68.202,84.15 C68.2668,84.5748 68.6124,84.9276 69.2028,84.9276 C69.498,84.9276 69.9012,84.8052 70.1244,84.5892 L70.5348,85.194 C70.1892,85.5108 69.642,85.6764 69.102,85.6764 Z M69.9084,83.5164 C69.8796,83.1852 69.6492,82.7748 69.0444,82.7748 C68.4756,82.7748 68.2308,83.1708 68.1948,83.5164 L69.9084,83.5164 Z M72.3636,84.474 C72.522,84.6972 72.8532,84.8628 73.1556,84.8628 C73.6812,84.8628 74.034,84.4524 74.034,83.8476 C74.034,83.25 73.6812,82.8396 73.1556,82.8396 C72.8532,82.8396 72.522,83.0124 72.3636,83.2428 L72.3636,84.474 Z M72.3636,85.59 L71.4492,85.59 L71.4492,80.7876 L72.3636,80.7876 L72.3636,82.5588 C72.6372,82.1988 73.026,82.026 73.4364,82.026 C74.322,82.026 74.9772,82.7172 74.9772,83.8476 C74.9772,85.014 74.3148,85.6764 73.4364,85.6764 C73.0188,85.6764 72.6372,85.4892 72.3636,85.1436 L72.3636,85.59 Z M76.8348,85.6764 C76.194,85.6764 75.8556,85.3452 75.8556,84.7188 L75.8556,82.9116 L75.2796,82.9116 L75.2796,82.1124 L75.8556,82.1124 L75.8556,81.162 L76.77,81.162 L76.77,82.1124 L77.4756,82.1124 L77.4756,82.9116 L76.77,82.9116 L76.77,84.474 C76.77,84.6972 76.8852,84.8628 77.0868,84.8628 C77.2236,84.8628 77.3532,84.8124 77.4036,84.7548 L77.598,85.4532 C77.4612,85.5756 77.2164,85.6764 76.8348,85.6764 Z M78.57,85.6692 C78.2532,85.6692 77.9868,85.4028 77.9868,85.086 C77.9868,84.7692 78.2532,84.5028 78.57,84.5028 C78.8868,84.5028 79.1532,84.7692 79.1532,85.086 C79.1532,85.4028 78.8868,85.6692 78.57,85.6692 Z M85.7988,85.59 L85.3956,85.59 L82.3716,81.4644 L82.3716,85.59 L81.9612,85.59 L81.9612,80.7876 L82.3788,80.7876 L85.3884,84.8556 L85.3884,80.7876 L85.7988,80.7876 L85.7988,85.59 Z M87.1668,81.5652 C87.0156,81.5652 86.8788,81.4356 86.8788,81.2772 C86.8788,81.1188 87.0156,80.9964 87.1668,80.9964 C87.3252,80.9964 87.4548,81.1188 87.4548,81.2772 C87.4548,81.4356 87.3252,81.5652 87.1668,81.5652 Z M87.354,85.59 L86.9796,85.59 L86.9796,82.1124 L87.354,82.1124 L87.354,85.59 Z M90.0108,85.6764 C88.9884,85.6764 88.326,84.8628 88.326,83.8476 C88.326,82.8324 88.9884,82.026 90.0108,82.026 C90.6156,82.026 90.9612,82.2636 91.242,82.6164 L90.9828,82.8468 C90.7308,82.5012 90.414,82.3644 90.0324,82.3644 C89.2188,82.3644 88.722,83.0124 88.722,83.8476 C88.722,84.6828 89.2188,85.338 90.0324,85.338 C90.414,85.338 90.7308,85.194 90.9828,84.8484 L91.242,85.0788 C90.9612,85.4388 90.6156,85.6764 90.0108,85.6764 Z M93.618,85.6764 C92.6028,85.6764 91.8828,84.9204 91.8828,83.8476 C91.8828,82.8396 92.5884,82.026 93.5532,82.026 C94.6116,82.026 95.1948,82.8612 95.1948,83.8692 L95.1948,83.97 L92.286,83.97 C92.322,84.726 92.826,85.3524 93.6468,85.3524 C94.086,85.3524 94.4892,85.1868 94.7844,84.87 L94.9788,85.1148 C94.6332,85.4748 94.194,85.6764 93.618,85.6764 Z M94.8132,83.6748 C94.806,83.0844 94.4172,82.35 93.546,82.35 C92.7252,82.35 92.3148,83.07 92.286,83.6748 L94.8132,83.6748 Z M96.534,85.59 L96.1596,85.59 L96.1596,80.7876 L96.534,80.7876 L96.534,85.59 Z M97.47,86.9508 L97.5348,86.6052 C97.614,86.6412 97.7508,86.6628 97.8372,86.6628 C98.0676,86.6628 98.226,86.5692 98.37,86.238 L98.6436,85.6188 L97.1676,82.1124 L97.5852,82.1124 L98.8524,85.1508 L100.1052,82.1124 L100.53,82.1124 L98.73,86.3532 C98.5428,86.7924 98.2476,87.0012 97.8444,87.0012 C97.722,87.0012 97.5636,86.9796 97.47,86.9508 Z M105.9732,85.59 L105.5916,85.59 L105.5916,85.0356 C105.3468,85.3956 104.9004,85.6764 104.382,85.6764 C103.4604,85.6764 102.834,84.9708 102.834,83.8548 C102.834,82.7532 103.4604,82.026 104.382,82.026 C104.8788,82.026 105.318,82.278 105.5916,82.674 L105.5916,80.7876 L105.9732,80.7876 L105.9732,85.59 Z M104.4468,85.338 C104.9364,85.338 105.39,85.05 105.5916,84.7188 L105.5916,82.998 C105.39,82.6596 104.9364,82.3644 104.4468,82.3644 C103.6764,82.3644 103.23,83.0124 103.23,83.8548 C103.23,84.6972 103.6764,85.338 104.4468,85.338 Z M108.6084,85.6764 C107.5932,85.6764 106.9452,84.8628 106.9452,83.8476 C106.9452,82.8324 107.5932,82.026 108.6084,82.026 C109.638,82.026 110.286,82.8324 110.286,83.8476 C110.286,84.8628 109.638,85.6764 108.6084,85.6764 Z M108.6084,85.338 C109.4292,85.338 109.8828,84.6252 109.8828,83.8476 C109.8828,83.0772 109.4292,82.3644 108.6084,82.3644 C107.802,82.3644 107.3412,83.0772 107.3412,83.8476 C107.3412,84.6252 107.802,85.338 108.6084,85.338 Z M113.9724,85.59 L113.598,85.59 L113.598,83.2356 C113.598,82.566 113.2596,82.3644 112.7556,82.3644 C112.3092,82.3644 111.8484,82.6452 111.6252,82.962 L111.6252,85.59 L111.2508,85.59 L111.2508,82.1124 L111.6252,82.1124 L111.6252,82.638 C111.8772,82.3356 112.374,82.026 112.878,82.026 C113.5836,82.026 113.9724,82.3716 113.9724,83.1564 L113.9724,85.59 Z M116.6796,85.6764 C115.6644,85.6764 114.9444,84.9204 114.9444,83.8476 C114.9444,82.8396 115.65,82.026 116.6148,82.026 C117.6732,82.026 118.2564,82.8612 118.2564,83.8692 L118.2564,83.97 L115.3476,83.97 C115.3836,84.726 115.8876,85.3524 116.7084,85.3524 C117.1476,85.3524 117.5508,85.1868 117.846,84.87 L118.0404,85.1148 C117.6948,85.4748 117.2556,85.6764 116.6796,85.6764 Z M117.8748,83.6748 C117.8676,83.0844 117.4788,82.35 116.6076,82.35 C115.7868,82.35 115.3764,83.07 115.3476,83.6748 L117.8748,83.6748 Z M119.43,85.6548 C119.2572,85.6548 119.106,85.5108 119.106,85.338 C119.106,85.1724 119.2572,85.0284 119.43,85.0284 C119.6028,85.0284 119.7468,85.1724 119.7468,85.338 C119.7468,85.5108 119.6028,85.6548 119.43,85.6548 Z M21.96,95.85 L21.7368,96.0228 C21.1176,95.0868 20.772,93.9996 20.772,92.8404 C20.772,91.6812 21.1176,90.594 21.7368,89.658 L21.96,89.8164 C21.5064,90.7452 21.1968,91.5876 21.1968,92.8404 C21.1968,94.086 21.5064,94.9356 21.96,95.85 Z M24.8328,94.6764 C23.4216,94.6764 22.5,93.5964 22.5,92.1924 C22.5,90.7884 23.4216,89.7084 24.8328,89.7084 C26.2368,89.7084 27.1656,90.7884 27.1656,92.1924 C27.1656,93.5964 26.2368,94.6764 24.8328,94.6764 Z M24.8328,94.302 C25.9848,94.302 26.7336,93.402 26.7336,92.1924 C26.7336,90.9756 25.9848,90.0828 24.8328,90.0828 C23.6736,90.0828 22.932,90.9756 22.932,92.1924 C22.932,93.402 23.6736,94.302 24.8328,94.302 Z M30.888,94.59 L30.5136,94.59 L30.5136,92.2356 C30.5136,91.566 30.1752,91.3644 29.6712,91.3644 C29.2248,91.3644 28.764,91.6452 28.5408,91.962 L28.5408,94.59 L28.1664,94.59 L28.1664,91.1124 L28.5408,91.1124 L28.5408,91.638 C28.7928,91.3356 29.2896,91.026 29.7936,91.026 C30.4992,91.026 30.888,91.3716 30.888,92.1564 L30.888,94.59 Z M36.504,94.59 L36.1296,94.59 L36.1296,94.1796 C35.82,94.518 35.4312,94.6764 34.9488,94.6764 C34.3512,94.6764 33.732,94.266 33.732,93.5172 C33.732,92.7612 34.344,92.3652 34.9488,92.3652 C35.4312,92.3652 35.8272,92.5236 36.1296,92.862 L36.1296,92.1564 C36.1296,91.638 35.712,91.3572 35.2008,91.3572 C34.7616,91.3572 34.4232,91.5084 34.1064,91.8684 L33.8976,91.6092 C34.2576,91.2204 34.6608,91.026 35.2368,91.026 C35.9424,91.026 36.504,91.3644 36.504,92.142 L36.504,94.59 Z M35.0784,94.3812 C35.496,94.3812 35.8848,94.2228 36.1296,93.906 L36.1296,93.1428 C35.8848,92.8188 35.496,92.6604 35.0784,92.6604 C34.5096,92.6604 34.128,93.0276 34.128,93.5244 C34.128,94.014 34.5096,94.3812 35.0784,94.3812 Z M39.0312,94.59 L38.6064,94.59 L37.1376,91.1124 L37.5552,91.1124 L38.8224,94.1508 L40.0752,91.1124 L40.5,91.1124 L39.0312,94.59 Z M42.6744,94.6764 C41.6592,94.6764 40.9392,93.9204 40.9392,92.8476 C40.9392,91.8396 41.6448,91.026 42.6096,91.026 C43.668,91.026 44.2512,91.8612 44.2512,92.8692 L44.2512,92.97 L41.3424,92.97 C41.3784,93.726 41.8824,94.3524 42.7032,94.3524 C43.1424,94.3524 43.5456,94.1868 43.8408,93.87 L44.0352,94.1148 C43.6896,94.4748 43.2504,94.6764 42.6744,94.6764 Z M43.8696,92.6748 C43.8624,92.0844 43.4736,91.35 42.6024,91.35 C41.7816,91.35 41.3712,92.07 41.3424,92.6748 L43.8696,92.6748 Z M45.5904,94.59 L45.216,94.59 L45.216,91.1124 L45.5904,91.1124 L45.5904,91.71 C45.8856,91.3212 46.2816,91.0404 46.764,91.0404 L46.764,91.4508 C46.6992,91.4364 46.6488,91.4364 46.5768,91.4364 C46.224,91.4364 45.7488,91.7532 45.5904,92.0556 L45.5904,94.59 Z M50.0832,94.59 L49.7088,94.59 L49.7088,94.1796 C49.3992,94.518 49.0104,94.6764 48.528,94.6764 C47.9304,94.6764 47.3112,94.266 47.3112,93.5172 C47.3112,92.7612 47.9232,92.3652 48.528,92.3652 C49.0104,92.3652 49.4064,92.5236 49.7088,92.862 L49.7088,92.1564 C49.7088,91.638 49.2912,91.3572 48.78,91.3572 C48.3408,91.3572 48.0024,91.5084 47.6856,91.8684 L47.4768,91.6092 C47.8368,91.2204 48.24,91.026 48.816,91.026 C49.5216,91.026 50.0832,91.3644 50.0832,92.142 L50.0832,94.59 Z M48.6576,94.3812 C49.0752,94.3812 49.464,94.2228 49.7088,93.906 L49.7088,93.1428 C49.464,92.8188 49.0752,92.6604 48.6576,92.6604 C48.0888,92.6604 47.7072,93.0276 47.7072,93.5244 C47.7072,94.014 48.0888,94.3812 48.6576,94.3812 Z M52.632,96.0012 C52.0416,96.0012 51.6672,95.8932 51.2568,95.4756 L51.4728,95.1732 C51.7752,95.5332 52.1064,95.6628 52.632,95.6628 C53.2584,95.6628 53.8128,95.346 53.8128,94.5612 L53.8128,94.0068 C53.568,94.3668 53.1216,94.662 52.6032,94.662 C51.6816,94.662 51.0552,93.9636 51.0552,92.8476 C51.0552,91.746 51.6816,91.026 52.6032,91.026 C53.1,91.026 53.532,91.278 53.8128,91.674 L53.8128,91.1124 L54.1944,91.1124 L54.1944,94.5612 C54.1944,95.6196 53.4744,96.0012 52.632,96.0012 Z M52.668,94.3236 C53.1504,94.3236 53.6112,94.0284 53.8128,93.69 L53.8128,91.998 C53.6112,91.6596 53.1504,91.3644 52.668,91.3644 C51.8976,91.3644 51.4512,92.0052 51.4512,92.8476 C51.4512,93.69 51.8976,94.3236 52.668,94.3236 Z M56.8944,94.6764 C55.8792,94.6764 55.1592,93.9204 55.1592,92.8476 C55.1592,91.8396 55.8648,91.026 56.8296,91.026 C57.888,91.026 58.4712,91.8612 58.4712,92.8692 L58.4712,92.97 L55.5624,92.97 C55.5984,93.726 56.1024,94.3524 56.9232,94.3524 C57.3624,94.3524 57.7656,94.1868 58.0608,93.87 L58.2552,94.1148 C57.9096,94.4748 57.4704,94.6764 56.8944,94.6764 Z M58.0896,92.6748 C58.0824,92.0844 57.6936,91.35 56.8224,91.35 C56.0016,91.35 55.5912,92.07 55.5624,92.6748 L58.0896,92.6748 Z M59.9976,94.4892 C59.9976,94.8924 59.76,95.274 59.4792,95.4684 L59.2704,95.2956 C59.5008,95.1372 59.6736,94.8564 59.688,94.6332 C59.688,94.6332 59.6376,94.6404 59.616,94.6404 C59.4432,94.6404 59.3208,94.5108 59.3208,94.338 C59.3208,94.1724 59.4576,94.0284 59.6304,94.0284 C59.8248,94.0284 59.9976,94.194 59.9976,94.4892 Z M65.8656,94.59 L62.6976,94.59 L62.6976,94.2516 C64.332,92.934 65.4264,91.998 65.4264,91.0692 C65.4264,90.378 64.8576,90.09 64.332,90.09 C63.7344,90.09 63.2736,90.3492 63.0144,90.7164 L62.7336,90.4572 C63.072,89.9964 63.6552,89.7156 64.332,89.7156 C65.0376,89.7156 65.844,90.1188 65.844,91.0692 C65.844,92.1276 64.728,93.0924 63.3384,94.2156 L65.8656,94.2156 L65.8656,94.59 Z M70.056,94.59 L66.888,94.59 L66.888,94.2516 C68.5224,92.934 69.6168,91.998 69.6168,91.0692 C69.6168,90.378 69.048,90.09 68.5224,90.09 C67.9248,90.09 67.464,90.3492 67.2048,90.7164 L66.924,90.4572 C67.2624,89.9964 67.8456,89.7156 68.5224,89.7156 C69.228,89.7156 70.0344,90.1188 70.0344,91.0692 C70.0344,92.1276 68.9184,93.0924 67.5288,94.2156 L70.056,94.2156 L70.056,94.59 Z M72.2952,94.6764 C71.7336,94.6764 71.3016,94.5108 70.956,94.122 L71.1792,93.8484 C71.4024,94.1292 71.8128,94.3596 72.3024,94.3596 C72.8856,94.3596 73.2312,94.0572 73.2312,93.654 C73.2312,92.7036 71.0352,93.2436 71.0352,91.9908 C71.0352,91.458 71.4888,91.026 72.2736,91.026 C72.8712,91.026 73.2672,91.2564 73.5192,91.5372 L73.3104,91.8036 C73.1088,91.53 72.7344,91.3428 72.2736,91.3428 C71.7336,91.3428 71.4096,91.6164 71.4096,91.9764 C71.4096,92.8476 73.5984,92.3148 73.5984,93.654 C73.5984,94.2156 73.1664,94.6764 72.2952,94.6764 Z M76.104,94.6764 C75.0888,94.6764 74.3688,93.9204 74.3688,92.8476 C74.3688,91.8396 75.0744,91.026 76.0392,91.026 C77.0976,91.026 77.6808,91.8612 77.6808,92.8692 L77.6808,92.97 L74.772,92.97 C74.808,93.726 75.312,94.3524 76.1328,94.3524 C76.572,94.3524 76.9752,94.1868 77.2704,93.87 L77.4648,94.1148 C77.1192,94.4748 76.68,94.6764 76.104,94.6764 Z M77.2992,92.6748 C77.292,92.0844 76.9032,91.35 76.032,91.35 C75.2112,91.35 74.8008,92.07 74.772,92.6748 L77.2992,92.6748 Z M80.0064,94.59 L79.5816,94.59 L78.1128,91.1124 L78.5304,91.1124 L79.7976,94.1508 L81.0504,91.1124 L81.4752,91.1124 L80.0064,94.59 Z M83.6496,94.6764 C82.6344,94.6764 81.9144,93.9204 81.9144,92.8476 C81.9144,91.8396 82.62,91.026 83.5848,91.026 C84.6432,91.026 85.2264,91.8612 85.2264,92.8692 L85.2264,92.97 L82.3176,92.97 C82.3536,93.726 82.8576,94.3524 83.6784,94.3524 C84.1176,94.3524 84.5208,94.1868 84.816,93.87 L85.0104,94.1148 C84.6648,94.4748 84.2256,94.6764 83.6496,94.6764 Z M84.8448,92.6748 C84.8376,92.0844 84.4488,91.35 83.5776,91.35 C82.7568,91.35 82.3464,92.07 82.3176,92.6748 L84.8448,92.6748 Z M88.9128,94.59 L88.5384,94.59 L88.5384,92.2356 C88.5384,91.566 88.2,91.3644 87.696,91.3644 C87.2496,91.3644 86.7888,91.6452 86.5656,91.962 L86.5656,94.59 L86.1912,94.59 L86.1912,91.1124 L86.5656,91.1124 L86.5656,91.638 C86.8176,91.3356 87.3144,91.026 87.8184,91.026 C88.524,91.026 88.9128,91.3716 88.9128,92.1564 L88.9128,94.59 Z M93.4344,94.6764 C92.412,94.6764 91.7496,93.8628 91.7496,92.8476 C91.7496,91.8324 92.412,91.026 93.4344,91.026 C94.0392,91.026 94.3848,91.2636 94.6656,91.6164 L94.4064,91.8468 C94.1544,91.5012 93.8376,91.3644 93.456,91.3644 C92.6424,91.3644 92.1456,92.0124 92.1456,92.8476 C92.1456,93.6828 92.6424,94.338 93.456,94.338 C93.8376,94.338 94.1544,94.194 94.4064,93.8484 L94.6656,94.0788 C94.3848,94.4388 94.0392,94.6764 93.4344,94.6764 Z M98.2224,94.59 L97.848,94.59 L97.848,94.0788 C97.5672,94.3956 97.0992,94.6764 96.5952,94.6764 C95.8896,94.6764 95.5008,94.3452 95.5008,93.5604 L95.5008,91.1124 L95.8752,91.1124 L95.8752,93.474 C95.8752,94.1508 96.2136,94.338 96.7176,94.338 C97.164,94.338 97.6176,94.0716 97.848,93.762 L97.848,91.1124 L98.2224,91.1124 L98.2224,94.59 Z M100.4256,94.6764 C99.864,94.6764 99.432,94.5108 99.0864,94.122 L99.3096,93.8484 C99.5328,94.1292 99.9432,94.3596 100.4328,94.3596 C101.016,94.3596 101.3616,94.0572 101.3616,93.654 C101.3616,92.7036 99.1656,93.2436 99.1656,91.9908 C99.1656,91.458 99.6192,91.026 100.404,91.026 C101.0016,91.026 101.3976,91.2564 101.6496,91.5372 L101.4408,91.8036 C101.2392,91.53 100.8648,91.3428 100.404,91.3428 C99.864,91.3428 99.54,91.6164 99.54,91.9764 C99.54,92.8476 101.7288,92.3148 101.7288,93.654 C101.7288,94.2156 101.2968,94.6764 100.4256,94.6764 Z M103.4496,94.6764 C102.9888,94.6764 102.7656,94.3956 102.7656,93.9204 L102.7656,91.4436 L102.1896,91.4436 L102.1896,91.1124 L102.7656,91.1124 L102.7656,90.162 L103.1472,90.162 L103.1472,91.1124 L103.8528,91.1124 L103.8528,91.4436 L103.1472,91.4436 L103.1472,93.8628 C103.1472,94.1436 103.2624,94.338 103.5072,94.338 C103.6728,94.338 103.8168,94.2588 103.896,94.1724 L104.04,94.4604 C103.9032,94.59 103.7376,94.6764 103.4496,94.6764 Z M106.1424,94.6764 C105.1272,94.6764 104.4792,93.8628 104.4792,92.8476 C104.4792,91.8324 105.1272,91.026 106.1424,91.026 C107.172,91.026 107.82,91.8324 107.82,92.8476 C107.82,93.8628 107.172,94.6764 106.1424,94.6764 Z M106.1424,94.338 C106.9632,94.338 107.4168,93.6252 107.4168,92.8476 C107.4168,92.0772 106.9632,91.3644 106.1424,91.3644 C105.336,91.3644 104.8752,92.0772 104.8752,92.8476 C104.8752,93.6252 105.336,94.338 106.1424,94.338 Z M113.2992,94.59 L112.9248,94.59 L112.9248,92.1564 C112.9248,91.6668 112.716,91.3644 112.2264,91.3644 C111.852,91.3644 111.4272,91.638 111.2328,91.9548 L111.2328,94.59 L110.8512,94.59 L110.8512,92.1564 C110.8512,91.6668 110.6496,91.3644 110.16,91.3644 C109.7856,91.3644 109.368,91.6452 109.1592,91.962 L109.1592,94.59 L108.7848,94.59 L108.7848,91.1124 L109.1592,91.1124 L109.1592,91.638 C109.3032,91.4148 109.7784,91.026 110.2824,91.026 C110.8224,91.026 111.1104,91.3428 111.1968,91.6812 C111.3912,91.3572 111.8592,91.026 112.3488,91.026 C112.9896,91.026 113.2992,91.386 113.2992,92.0844 L113.2992,94.59 Z M116.0064,94.6764 C114.9912,94.6764 114.2712,93.9204 114.2712,92.8476 C114.2712,91.8396 114.9768,91.026 115.9416,91.026 C117,91.026 117.5832,91.8612 117.5832,92.8692 L117.5832,92.97 L114.6744,92.97 C114.7104,93.726 115.2144,94.3524 116.0352,94.3524 C116.4744,94.3524 116.8776,94.1868 117.1728,93.87 L117.3672,94.1148 C117.0216,94.4748 116.5824,94.6764 116.0064,94.6764 Z M117.2016,92.6748 C117.1944,92.0844 116.8056,91.35 115.9344,91.35 C115.1136,91.35 114.7032,92.07 114.6744,92.6748 L117.2016,92.6748 Z M118.9224,94.59 L118.548,94.59 L118.548,91.1124 L118.9224,91.1124 L118.9224,91.71 C119.2176,91.3212 119.6136,91.0404 120.096,91.0404 L120.096,91.4508 C120.0312,91.4364 119.9808,91.4364 119.9088,91.4364 C119.556,91.4364 119.0808,91.7532 118.9224,92.0556 L118.9224,94.59 Z M121.8672,94.6764 C121.3056,94.6764 120.8736,94.5108 120.528,94.122 L120.7512,93.8484 C120.9744,94.1292 121.3848,94.3596 121.8744,94.3596 C122.4576,94.3596 122.8032,94.0572 122.8032,93.654 C122.8032,92.7036 120.6072,93.2436 120.6072,91.9908 C120.6072,91.458 121.0608,91.026 121.8456,91.026 C122.4432,91.026 122.8392,91.2564 123.0912,91.5372 L122.8824,91.8036 C122.6808,91.53 122.3064,91.3428 121.8456,91.3428 C121.3056,91.3428 120.9816,91.6164 120.9816,91.9764 C120.9816,92.8476 123.1704,92.3148 123.1704,93.654 C123.1704,94.2156 122.7384,94.6764 121.8672,94.6764 Z M60.1092,103.59 L59.6052,103.59 L58.2156,101.934 L57.5676,102.546 L57.5676,103.59 L57.1932,103.59 L57.1932,98.7876 L57.5676,98.7876 L57.5676,102.0996 L59.6124,100.1124 L60.1164,100.1124 L58.4964,101.682 L60.1092,103.59 Z M62.37,103.6764 C61.3548,103.6764 60.6348,102.9204 60.6348,101.8476 C60.6348,100.8396 61.3404,100.026 62.3052,100.026 C63.3636,100.026 63.9468,100.8612 63.9468,101.8692 L63.9468,101.97 L61.038,101.97 C61.074,102.726 61.578,103.3524 62.3988,103.3524 C62.838,103.3524 63.2412,103.1868 63.5364,102.87 L63.7308,103.1148 C63.3852,103.4748 62.946,103.6764 62.37,103.6764 Z M63.5652,101.6748 C63.558,101.0844 63.1692,100.35 62.298,100.35 C61.4772,100.35 61.0668,101.07 61.038,101.6748 L63.5652,101.6748 Z M66.4524,103.6764 C65.4372,103.6764 64.7172,102.9204 64.7172,101.8476 C64.7172,100.8396 65.4228,100.026 66.3876,100.026 C67.446,100.026 68.0292,100.8612 68.0292,101.8692 L68.0292,101.97 L65.1204,101.97 C65.1564,102.726 65.6604,103.3524 66.4812,103.3524 C66.9204,103.3524 67.3236,103.1868 67.6188,102.87 L67.8132,103.1148 C67.4676,103.4748 67.0284,103.6764 66.4524,103.6764 Z M67.6476,101.6748 C67.6404,101.0844 67.2516,100.35 66.3804,100.35 C65.5596,100.35 65.1492,101.07 65.1204,101.6748 L67.6476,101.6748 Z M70.578,103.6764 C70.0884,103.6764 69.6492,103.4244 69.3684,103.0284 L69.3684,104.9148 L68.994,104.9148 L68.994,100.1124 L69.3684,100.1124 L69.3684,100.6596 C69.6132,100.3068 70.0596,100.026 70.578,100.026 C71.5068,100.026 72.1332,100.7316 72.1332,101.8476 C72.1332,102.9564 71.5068,103.6764 70.578,103.6764 Z M70.5132,103.338 C71.2908,103.338 71.73,102.69 71.73,101.8476 C71.73,101.0052 71.2908,100.3644 70.5132,100.3644 C70.0308,100.3644 69.57,100.6524 69.3684,100.9836 L69.3684,102.7044 C69.57,103.0356 70.0308,103.338 70.5132,103.338 Z M76.5396,103.6764 C75.5316,103.6764 74.61,103.2372 74.61,102.3444 C74.61,101.7612 75.0636,101.3148 75.6396,101.1132 C75.1068,100.926 74.6892,100.5804 74.6892,99.9828 C74.6892,99.0756 75.6468,98.7156 76.5396,98.7156 C77.4252,98.7156 78.39,99.0756 78.39,99.9828 C78.39,100.5804 77.9652,100.926 77.4396,101.1132 C78.0084,101.3148 78.4692,101.7612 78.4692,102.3444 C78.4692,103.2372 77.5476,103.6764 76.5396,103.6764 Z M76.5396,100.71 C76.8348,100.6596 77.346,100.5084 77.346,100.1556 C77.346,99.8172 77.0076,99.6228 76.5396,99.6228 C76.0644,99.6228 75.726,99.8172 75.726,100.1556 C75.726,100.5084 76.2444,100.6596 76.5396,100.71 Z M76.5396,102.7692 C77.0292,102.7692 77.4324,102.546 77.4324,102.2004 C77.4324,101.8044 76.8348,101.6172 76.5396,101.574 C76.2372,101.6172 75.6468,101.8044 75.6468,102.2004 C75.6468,102.546 76.0356,102.7692 76.5396,102.7692 Z M80.1252,101.106 C79.3908,101.106 78.9084,100.5876 78.9084,99.918 C78.9084,99.2412 79.3908,98.7156 80.1252,98.7156 C80.8668,98.7156 81.3492,99.2412 81.3492,99.918 C81.3492,100.5876 80.8668,101.106 80.1252,101.106 Z M80.1972,103.59 L79.6572,103.59 L82.7244,98.7876 L83.2716,98.7876 L80.1972,103.59 Z M82.7676,103.6764 C82.0332,103.6764 81.5508,103.158 81.5508,102.4884 C81.5508,101.8116 82.0332,101.2788 82.7676,101.2788 C83.502,101.2788 83.9916,101.8116 83.9916,102.4884 C83.9916,103.158 83.502,103.6764 82.7676,103.6764 Z M80.1252,100.5444 C80.4564,100.5444 80.7012,100.2996 80.7012,99.918 C80.7012,99.522 80.4564,99.2772 80.1252,99.2772 C79.8012,99.2772 79.5564,99.522 79.5564,99.918 C79.5564,100.2996 79.8012,100.5444 80.1252,100.5444 Z M82.7676,103.1148 C83.0988,103.1148 83.3436,102.8772 83.3436,102.4884 C83.3436,102.0924 83.0988,101.8476 82.7676,101.8476 C82.4364,101.8476 82.1988,102.0924 82.1988,102.4884 C82.1988,102.8772 82.4364,103.1148 82.7676,103.1148 Z M84.3012,104.85 C84.7548,103.9356 85.0644,103.086 85.0644,101.8404 C85.0644,100.5876 84.7548,99.7452 84.3012,98.8164 L84.5244,98.658 C85.1436,99.594 85.4892,100.6812 85.4892,101.8404 C85.4892,102.9996 85.1436,104.0868 84.5244,105.0228 L84.3012,104.85 Z M86.6052,103.6548 C86.4324,103.6548 86.2812,103.5108 86.2812,103.338 C86.2812,103.1724 86.4324,103.0284 86.6052,103.0284 C86.778,103.0284 86.922,103.1724 86.922,103.338 C86.922,103.5108 86.778,103.6548 86.6052,103.6548 Z" id="In-the-last-year,-yo" fill="#4E4B6B"></path>
                <path d="M20.7881342,126.375624 L13.2204564,126.375624 C12.6980172,126.375624 12.2744966,126.799145 12.2744966,127.321584 L12.2744966,132.997342 C12.2744966,133.519781 12.6980172,133.943302 13.2204564,133.943302 L20.7881342,133.943302 C21.3105734,133.943302 21.734094,133.519781 21.734094,132.997342 L21.734094,127.321584 C21.734094,126.799145 21.3105734,126.375624 20.7881342,126.375624 L20.7881342,126.375624 Z M20.7881342,132.997342 L13.2204564,132.997342 L13.2204564,128.267544 L17.0042953,130.632443 L20.7881342,128.267544 L20.7881342,132.997342 L20.7881342,132.997342 Z M20.7881342,127.321584 L17.0042953,129.686483 L13.2204564,127.321584 L20.7881342,127.321584 L20.7881342,127.321584 Z" id="Shape-Copy-8" fill="#000000" opacity="0.3"></path>
                <path d="M86.2334123,134.002644 L85.347994,134.002644 L85.347994,129.734474 L83.819323,129.734474 L83.819323,128.955003 L87.7620832,128.955003 L87.7620832,129.734474 L86.2334123,129.734474 L86.2334123,134.002644 Z M92.5675586,134.002644 L91.5610575,134.002644 L91.1902413,133.026414 L88.8745318,133.026414 L88.5037156,134.002644 L87.4972145,134.002644 L89.4799461,128.955003 L90.584827,128.955003 L92.5675586,134.002644 Z M90.9405079,132.246943 L90.0323865,129.840421 L89.1242652,132.246943 L90.9405079,132.246943 Z M97.2292482,134.002644 L96.1319349,134.002644 L94.4443427,131.868559 L93.9978497,132.390729 L93.9978497,134.002644 L93.1124314,134.002644 L93.1124314,128.955003 L93.9978497,128.955003 L93.9978497,131.353957 L95.9730137,128.955003 L97.0703269,128.955003 L95.0194862,131.331254 L97.2292482,134.002644 Z M101.270388,134.002644 L97.8119594,134.002644 L97.8119594,128.955003 L101.270388,128.955003 L101.270388,129.734474 L98.6973777,129.734474 L98.6973777,131.036115 L101.217414,131.036115 L101.217414,131.815585 L98.6973777,131.815585 L98.6973777,133.223173 L101.270388,133.223173 L101.270388,134.002644 Z M108.679145,134.002644 L107.672644,134.002644 L107.301827,133.026414 L104.986118,133.026414 L104.615302,134.002644 L103.608801,134.002644 L105.591532,128.955003 L106.696413,128.955003 L108.679145,134.002644 Z M107.052094,132.246943 L106.143973,129.840421 L105.235851,132.246943 L107.052094,132.246943 Z M114.226253,134.002644 L111.115937,134.002644 L111.115937,128.955003 L112.001355,128.955003 L112.001355,133.223173 L114.226253,133.223173 L114.226253,134.002644 Z M117.139809,134.093456 C115.626273,134.093456 114.55923,132.988575 114.55923,131.482608 C114.55923,129.97664 115.626273,128.871759 117.139809,128.871759 C118.645776,128.871759 119.720387,129.97664 119.720387,131.482608 C119.720387,132.988575 118.645776,134.093456 117.139809,134.093456 Z M117.139809,133.306418 C118.153877,133.306418 118.812265,132.519379 118.812265,131.482608 C118.812265,130.438268 118.153877,129.658797 117.139809,129.658797 C116.118172,129.658797 115.467352,130.438268 115.467352,131.482608 C115.467352,132.519379 116.118172,133.306418 117.139809,133.306418 Z M122.929082,134.093456 C121.415547,134.093456 120.348504,132.988575 120.348504,131.482608 C120.348504,129.97664 121.415547,128.871759 122.929082,128.871759 C124.43505,128.871759 125.50966,129.97664 125.50966,131.482608 C125.50966,132.988575 124.43505,134.093456 122.929082,134.093456 Z M122.929082,133.306418 C123.943151,133.306418 124.601539,132.519379 124.601539,131.482608 C124.601539,130.438268 123.943151,129.658797 122.929082,129.658797 C121.907446,129.658797 121.256625,130.438268 121.256625,131.482608 C121.256625,132.519379 121.907446,133.306418 122.929082,133.306418 Z M130.474057,134.002644 L129.376744,134.002644 L127.689152,131.868559 L127.242659,132.390729 L127.242659,134.002644 L126.35724,134.002644 L126.35724,128.955003 L127.242659,128.955003 L127.242659,131.353957 L129.217822,128.955003 L130.315136,128.955003 L128.264295,131.331254 L130.474057,134.002644 Z" id="TAKE-A-LOOK" fill="#13C6B9"></path>
                <path d="M0.45,117.625497 L142.34396,117.625497" id="Line-Copy-5" stroke="#000000" stroke-width="0.5" opacity="0.1" stroke-linecap="square"></path>
                <g id="503-percent-purple-12m" transform="translate(54.277785, 13.149597)">
                    <g id="Shape">
                        <use fill="url(#linearGradient-3)" xlink:href="#path-4"></use>
                        <use fill-opacity="0.40064538" fill="#FFFFFF" xlink:href="#path-4"></use>
                    </g>
                    <polygon id="Shape" fill="#B3DBE8" points="18.3252199 17.3704606 18.699204 17.3704606 18.699204 25.8708987 18.3252199 25.8708987"></polygon>
                    <path d="M22.0650607,19.9575504 C18.9669766,19.9575504 16.4552995,22.4847676 16.4552995,25.6022109 C16.4552995,28.7196542 18.9669766,33.262584 22.0650607,33.262584 C25.1631448,33.262584 27.6748219,28.7196542 27.6748219,25.6022109 C27.6748219,22.4847676 25.1631448,19.9575504 22.0650607,19.9575504 L22.0650607,19.9575504 Z" id="Shape" fill="#26A6D1"></path>
                    <path d="M17.2032677,25.6022109 C17.2032677,22.611535 19.5159852,20.1711701 22.4390448,19.9763992 C22.3148821,19.9682684 22.1914673,19.9575504 22.0650607,19.9575504 C18.9669766,19.9575504 16.4552995,22.4847676 16.4552995,25.6022109 C16.4552995,28.7196542 18.9669766,33.262584 22.0650607,33.262584 C22.1907194,33.262584 22.3152561,33.2526053 22.4390448,33.2381915 C19.5156112,32.8933694 17.2032677,28.5928868 17.2032677,25.6022109 L17.2032677,25.6022109 Z" id="Shape" fill="#2295BC"></path>
                    <path d="M13.837411,9.98284064 C13.837411,12.6383036 16.0139983,16.5082205 18.699204,16.5082205 C21.3844097,16.5082205 23.560997,12.637934 23.560997,9.98284064 C23.560997,7.32700809 21.3844097,5.17417974 18.699204,5.17417974 C16.0139983,5.17417974 13.837411,7.32700809 13.837411,9.98284064 Z" id="Shape" fill="url(#linearGradient-5)"></path>
                    <path d="M8.22764976,26.7109637 C8.22764976,29.828407 10.7393268,34.3713368 13.837411,34.3713368 C16.9354951,34.3713368 19.4471721,29.828407 19.4471721,26.7109637 C19.4471721,23.5935204 16.9354951,21.0663032 13.837411,21.0663032 C10.7393268,21.0663032 8.22764976,23.5935204 8.22764976,26.7109637 Z" id="Shape" fill="#F4B459"></path>
                    <path d="M17.1071538,27.0347196 C17.5854794,26.896495 17.7384389,25.9603381 17.4482272,24.9436118 C17.1580156,23.927255 16.5349581,23.2150662 16.0558845,23.3536603 C15.5775589,23.4918848 15.4245994,24.4280417 15.715185,25.4443985 C16.0053967,26.4614944 16.6288281,27.1733137 17.1071538,27.0347196 L17.1071538,27.0347196 Z M16.842747,27.71882 C16.5106492,27.71882 16.2417546,27.9893557 16.2417546,28.3238295 C16.2417546,28.6575641 16.5110231,28.9288389 16.842747,28.9288389 C17.1744709,28.9288389 17.4433654,28.6579337 17.4433654,28.3238295 C17.4437394,27.9893557 17.1748449,27.71882 16.842747,27.71882 L16.842747,27.71882 Z" id="Shape" fill="#F6C37A"></path>
                    <path d="M8.97561791,26.7109637 C8.97561791,23.7202878 11.2883355,21.2799229 14.211395,21.085152 C14.0872323,21.0770212 13.9634436,21.0663032 13.837411,21.0663032 C10.7393268,21.0663032 8.22764976,23.5935204 8.22764976,26.7109637 C8.22764976,29.828407 10.7393268,34.3713368 13.837411,34.3713368 C13.9630696,34.3713368 14.0876063,34.3613581 14.211395,34.3469443 C11.2879615,34.0021222 8.97561791,29.7016396 8.97561791,26.7109637 L8.97561791,26.7109637 Z" id="Shape" fill="#DBA250"></path>
                    <path d="M27.6748219,23.6533931 C24.5767378,23.6533931 22.0650607,26.1806103 22.0650607,29.2980536 C22.0650607,31.4652957 23.279761,34.3199646 25.0606732,35.8596527 C28.2926436,34.7043323 31.1087437,32.6930547 33.2322253,30.1033777 C33.2655099,29.8276679 33.2845831,29.5578713 33.2845831,29.2980536 C33.2845831,26.1806103 30.772906,23.6533931 27.6748219,23.6533931 L27.6748219,23.6533931 Z" id="Shape" fill="#EFC75E"></path>
                    <path d="M8.97561791,24.7621459 C6.28068864,24.7621459 4.03154838,26.6751141 3.49114138,29.2248759 C5.7200865,32.299817 8.87800807,34.6695913 12.5617513,35.9346783 C13.7981426,34.3432484 14.5853791,32.1519833 14.5853791,30.4068064 C14.5853791,27.2893631 12.073702,24.7621459 8.97561791,24.7621459 L8.97561791,24.7621459 Z" id="Shape" fill="#3DB39E"></path>
                    <path d="M12.2453607,30.7305622 C12.7236864,30.5923377 12.8766459,29.6561808 12.5864342,28.639824 C12.2962226,27.6230977 11.6731651,26.9109088 11.1940915,27.0495029 C10.7157658,27.1877274 10.5628063,28.1238844 10.853392,29.1402411 C11.1436036,30.157337 11.7670351,30.8687867 12.2453607,30.7305622 L12.2453607,30.7305622 Z M11.980954,31.4146627 C11.6488561,31.4146627 11.3799616,31.6851984 11.3799616,32.0196721 C11.3799616,32.3534067 11.6492301,32.6246816 11.980954,32.6246816 C12.3126779,32.6246816 12.5815724,32.3537763 12.5815724,32.0196721 C12.5819464,31.6851984 12.3130518,31.4146627 11.980954,31.4146627 L11.980954,31.4146627 Z" id="Shape" fill="#5ABEAC"></path>
                    <path d="M30.9445647,29.6218094 C31.4228904,29.4835849 31.5758498,28.547428 31.2856382,27.5310712 C30.9954265,26.5143449 30.3723691,25.802156 29.8932955,25.9403805 C29.4149698,26.0789746 29.2620103,27.0151316 29.552596,28.0318579 C29.8428076,29.0485842 30.4662391,29.7604035 30.9445647,29.6218094 L30.9445647,29.6218094 Z M30.680158,30.3062795 C30.3480601,30.3062795 30.0791656,30.5764456 30.0791656,30.9109193 C30.0791656,31.2453931 30.3484341,31.5159288 30.680158,31.5159288 C31.0118818,31.5159288 31.2807764,31.2453931 31.2807764,30.9109193 C31.2807764,30.5764456 31.0122558,30.3062795 30.680158,30.3062795 L30.680158,30.3062795 Z" id="Shape" fill="#F4D88F"></path>
                    <path d="M15.3333473,2.58708987 L9.72358607,2.58708987 C9.31070765,2.58708987 8.97561791,2.91823737 8.97561791,3.3262584 C8.97561791,3.73427943 9.31070765,4.06542694 9.72358607,4.06542694 C10.0332449,4.06542694 10.2845622,4.31378757 10.2845622,4.61980334 C10.2845622,4.92581911 10.0332449,5.17417974 9.72358607,5.17417974 L7.85366568,5.17417974 C7.44078725,5.17417974 7.10569752,5.50532724 7.10569752,5.91334827 C7.10569752,6.3213693 7.44078725,6.65251681 7.85366568,6.65251681 L13.0894428,6.65251681 C13.5023212,6.65251681 13.837411,6.3213693 13.837411,5.91334827 C13.837411,5.50532724 13.5023212,5.17417974 13.0894428,5.17417974 L12.3414746,5.17417974 L12.3414746,5.17307099 C12.0374256,5.16678805 11.792092,4.92175368 11.792092,4.61980334 C11.792092,4.31785299 12.0370516,4.07318821 12.3414746,4.06653569 L12.3414746,4.06542694 L15.3333473,4.06542694 C15.7462257,4.06542694 16.0813154,3.73427943 16.0813154,3.3262584 C16.0813154,2.91823737 15.7462257,2.58708987 15.3333473,2.58708987 L15.3333473,2.58708987 Z" id="Shape" fill-opacity="0.478119339" fill="#FFFFFF"></path>
                    <polygon id="Shape" fill="#E2574C" points="18.7003259 16.2572727 18.3218541 16.2572727 17.9557236 17.3675039 19.0701962 17.3675039"></polygon>
                    <path d="M21.5328814,10.2585505 C21.9476297,10.1410227 22.0800201,9.34309027 21.8283288,8.47752392 C21.5770115,7.61158798 21.0369785,7.0051002 20.6218561,7.122628 C20.2074818,7.24052538 20.0747174,8.03845781 20.3264087,8.90402416 C20.5781,9.77032968 21.118507,10.3764479 21.5328814,10.2585505 L21.5328814,10.2585505 Z M21.3036291,10.8413849 C21.0160354,10.8413849 20.7826693,11.0720055 20.7826693,11.3565854 C20.7826693,11.6411652 21.0160354,11.8717858 21.3036291,11.8717858 C21.5915969,11.8717858 21.8249629,11.6411652 21.8249629,11.3565854 C21.8249629,11.0720055 21.5912229,10.8413849 21.3036291,10.8413849 L21.3036291,10.8413849 Z" id="Shape" fill="#EE9A94"></path>
                    <path d="M35.5284876,12.1962808 C35.2244385,12.1888891 34.979105,11.9438548 34.979105,11.6419044 C34.979105,11.3399541 35.2240645,11.0949197 35.5284876,11.0886368 L35.8381464,11.087528 C35.4985689,10.3202711 35.1111213,9.57851545 34.673934,8.87002241 L30.2927105,8.87002241 C29.6730188,8.87002241 29.1707582,9.36637408 29.1707582,9.97877521 C29.1707582,10.5911763 29.6730188,11.087528 30.2927105,11.087528 L32.910599,11.087528 C33.2202578,11.087528 33.4715751,11.3358886 33.4715751,11.6419044 C33.4715751,11.9479202 33.2202578,12.1962808 32.910599,12.1962808 L31.2276707,12.1962808 C30.7111986,12.1962808 30.2927105,12.6098456 30.2927105,13.1202415 C30.2927105,13.6306374 30.7111986,14.0442021 31.2276707,14.0442021 L36.8523912,14.0442021 C36.6956919,13.4151697 36.5079519,12.797964 36.2880492,12.1962808 L35.5284876,12.1962808 Z" id="Shape" fill-opacity="0.43897192" fill="#FFFFFF"></path>
                    <polygon id="Shape" fill="#E2574C" points="18.7003259 16.2572727 18.3218541 16.2572727 17.9557236 17.3675039 19.0701962 17.3675039"></polygon>
                    <path d="M18.699204,16.5082205 C18.5481144,16.5082205 18.3988948,16.4941763 18.251545,16.4705229 L18.1984393,16.631292 L18.8248626,16.631292 L18.7826024,16.5045246 L18.699204,16.5082205 L18.699204,16.5082205 Z" id="Shape" fill="#AA4239"></path>
                    <path d="M14.5853791,9.98284064 C14.5853791,7.45192758 16.5633809,5.38262527 19.0731881,5.19302854 C18.9493993,5.18341935 18.8252366,5.17417974 18.699204,5.17417974 C16.0139983,5.17417974 13.837411,7.32700809 13.837411,9.98284064 C13.837411,12.6383036 16.0139983,16.5082205 18.699204,16.5082205 C18.8252366,16.5082205 18.9497733,16.4971329 19.0731881,16.4805016 C16.5630069,16.1452887 14.5853791,12.5133841 14.5853791,9.98284064 L14.5853791,9.98284064 Z" id="Shape" fill="#CB4E44"></path>
                    <path d="M22.8130289,29.2980536 C22.8130289,26.3073777 25.1261204,23.8670128 28.048806,23.6722419 C27.9246433,23.664111 27.8012285,23.6533931 27.6748219,23.6533931 C24.5767378,23.6533931 22.0650607,26.1806103 22.0650607,29.2980536 C22.0650607,31.4652957 23.279761,34.3199646 25.0606732,35.8596527 C25.2383156,35.7960842 25.4096003,35.7203194 25.5846249,35.6519463 C23.9275014,34.0738215 22.8130289,31.3728997 22.8130289,29.2980536 L22.8130289,29.2980536 Z" id="Shape" fill="#D7B354"></path>
                    <path d="M20.1951403,27.71882 C17.0970562,27.71882 14.5853791,30.2460372 14.5853791,33.3634805 C14.5853791,34.3768806 14.8524037,35.5414406 15.317266,36.6513022 C16.4149092,36.8493993 17.5439672,36.9584267 18.699204,36.9584267 C21.0650273,36.9584267 23.326509,36.5197302 25.4099743,35.7273415 C25.6639095,34.9124082 25.8049015,34.0985836 25.8049015,33.3634805 C25.8049015,30.2460372 23.2932244,27.71882 20.1951403,27.71882 L20.1951403,27.71882 Z" id="Shape" fill="#E19178"></path>
                    <path d="M21.9689468,34.7959892 C22.4472724,34.6577646 22.6002319,33.7216077 22.3100203,32.705251 C22.0198086,31.6885246 21.3967512,30.9763358 20.9176776,31.1149299 C20.4393519,31.2531544 20.2863924,32.1893113 20.5769781,33.2056681 C20.8671897,34.222764 21.4906212,34.9345833 21.9689468,34.7959892 L21.9689468,34.7959892 Z M21.7045401,35.4800896 C21.3724422,35.4800896 21.1035476,35.7506253 21.1035476,36.0850991 C21.1035476,36.4188337 21.3728162,36.6901085 21.7045401,36.6901085 C22.0362639,36.6901085 22.3051585,36.4192033 22.3051585,36.0850991 C22.3055325,35.7506253 22.0362639,35.4800896 21.7045401,35.4800896 L21.7045401,35.4800896 Z" id="Shape" fill="#EDBDAE"></path>
                    <path d="M16.0652341,36.6513022 C15.6003719,35.5414406 15.3333473,34.3772502 15.3333473,33.3634805 C15.3333473,30.3728047 17.6460648,27.9324397 20.5691244,27.7376688 C20.4449617,27.729538 20.3215469,27.71882 20.1951403,27.71882 C17.0970562,27.71882 14.5853791,30.2460372 14.5853791,33.3634805 C14.5853791,34.3768806 14.8524037,35.5414406 15.317266,36.6513022 C16.4149092,36.8493993 17.0443244,36.8279635 16.0652341,36.6513022 L16.0652341,36.6513022 Z" id="Shape" fill="#CA826C"></path>
                    <path d="M11.2195224,31.0450784 C9.56015503,31.0450784 8.07356831,31.7742682 7.04660803,32.9266319 C9.7841715,35.0861128 13.1462884,36.5042076 16.8247958,36.8660306 L16.8292836,36.6897389 C16.8292836,33.5722957 14.3176065,31.0450784 11.2195224,31.0450784 L11.2195224,31.0450784 Z" id="Shape" fill="#E2574C"></path>
                    <path d="M11.6103358,31.065036 C11.4805633,31.0557964 11.3515388,31.0450784 11.2195224,31.0450784 C9.56015503,31.0450784 8.07356831,31.7742682 7.04660803,32.9266319 C7.18722605,33.0378768 7.33120992,33.1457954 7.47519379,33.2529748 C8.59004033,32.00378 10.1263669,31.2136089 11.6103358,31.065036 L11.6103358,31.065036 Z" id="Shape" fill="#CA4E44"></path>
                    <path d="M9.3189353,24.7795164 C9.20487016,24.7724943 9.09155298,24.7621459 8.97561791,24.7621459 C6.28068864,24.7621459 4.03154838,26.6751141 3.49114138,29.2248759 C3.68187327,29.4880199 3.88195475,29.7441418 4.08615006,29.9969375 C4.71107745,26.6799187 6.87382739,24.9506339 9.3189353,24.7795164 L9.3189353,24.7795164 Z" id="Shape" fill="#37A18E"></path>
                </g>
            </g>
        </g>
    </g>
</svg>