<?xml version="1.0" encoding="UTF-8"?>
<svg width="145px" height="145px" viewBox="0 0 145 145" version="1.1" xmlns="http://www.w3.org/2000/svg" xmlns:xlink="http://www.w3.org/1999/xlink">
    <!-- Generator: Sketch 52.6 (67491) - http://www.bohemiancoding.com/sketch -->
    <desc>Created with Sketch.</desc>
    <defs>
        <circle id="path-1" cx="41.4" cy="41.4" r="41.4"></circle>
        <filter x="-65.8%" y="-50.1%" width="231.6%" height="231.6%" filterUnits="objectBoundingBox" id="filter-2">
            <feOffset dx="0" dy="13" in="SourceAlpha" result="shadowOffsetOuter1"></feOffset>
            <feGaussianBlur stdDeviation="16" in="shadowOffsetOuter1" result="shadowBlurOuter1"></feGaussianBlur>
            <feColorMatrix values="0 0 0 0 0   0 0 0 0 0   0 0 0 0 0  0 0 0 0.07 0" type="matrix" in="shadowBlurOuter1"></feColorMatrix>
        </filter>
        <linearGradient x1="50%" y1="0%" x2="50%" y2="100%" id="linearGradient-3">
            <stop stop-color="#039775" offset="0%"></stop>
            <stop stop-color="#50B848" offset="100%"></stop>
        </linearGradient>
    </defs>
    <g id="Page-1" stroke="none" stroke-width="1" fill="none" fill-rule="evenodd">
        <g id="icon/Old-Mutual" transform="translate(30.000000, 18.000000)">
            <g transform="translate(0.900000, 0.000000)">
                <g id="Oval-Copy-8" fill-rule="nonzero">
                    <use fill="black" fill-opacity="1" filter="url(#filter-2)" xlink:href="#path-1"></use>
                    <use fill="#FFFFFF" xlink:href="#path-1"></use>
                </g>
                <path d="M32.0005104,46.5696883 C31.6718456,45.987681 31.8662785,45.270508 32.4471367,44.9389546 C33.0271814,44.6161472 33.7447121,44.812535 34.0798851,45.3810258 C34.4109906,45.9439509 34.2100494,46.6738454 33.6413942,46.9894969 C33.4485883,47.0992196 33.2484607,47.1604417 33.0442654,47.1604417 C32.6318073,47.1604417 32.2339927,46.937816 32.0005104,46.5696883 M36.1364811,43.0394798 C35.6288403,42.125919 33.6820705,42.4248736 34.3141809,43.7272344 C33.5405168,43.2986798 32.5675387,43.274827 31.7483171,43.7439313 C30.5166374,44.4539485 30.0879088,46.030616 30.7940501,47.2518773 C31.5197161,48.4858601 33.1012123,48.8889718 34.3345191,48.1956515 C35.1537406,47.7265472 35.6255862,46.8726184 35.6288403,45.9988123 C36.4602648,47.1954258 37.6992662,45.6640785 37.1574573,44.7791411 C37.6585899,44.3967018 38.6510927,43.7820957 39.5524805,43.2390479 C39.5988515,42.575146 39.628952,41.8985227 39.644409,41.2195141 C38.5526559,41.8309399 36.9272292,42.7031558 36.1364811,43.0394798 M43.3614133,28.0488147 C44.4336417,28.5242798 45.5839687,29.2923387 46.6635189,30.3688933 C47.6763599,31.3707092 48.467108,32.4242061 48.9495294,33.416481 C48.5598501,34.9700908 45.9476152,37.1947583 43.0237996,39.1459141 C43.0164779,39.5267632 43.0164779,39.8853497 43.0164779,40.1715828 C43.0164779,40.5476613 43.0164779,40.915789 43.0237996,41.2998184 C46.4934918,39.5267632 50.2544265,38.1226307 51.9652736,38.6076368 C52.5916893,39.5267632 53.1261764,40.7265571 53.4955176,42.0917301 C53.8827564,43.5594699 53.9950231,44.9246429 53.8729941,46.0735509 C54.5636784,46.9648491 55.3202584,47.6502184 56.0272133,48.0994454 C56.4494337,45.9121472 56.7,43.5992245 56.7,41.209973 C56.7,38.3182233 56.3745892,35.5449423 55.7644441,32.9855411 C53.8209284,31.1711411 51.5633913,29.5014479 49.0300686,28.0647166 C46.9393045,26.867308 44.7850853,25.934665 42.6747966,25.2 C42.701643,26.0356417 42.9375658,27.0175804 43.3614133,28.0488147 M49.073999,46.9894969 C48.4955814,46.6738454 48.2970809,45.9439509 48.633881,45.3810258 C48.95197,44.812535 49.6890254,44.6161472 50.2593077,44.9389546 C50.84342,45.270508 51.0354123,45.987681 50.7067475,46.5696883 C50.4797735,46.937816 50.0835859,47.1604417 49.6703142,47.1604417 C49.4555431,47.1604417 49.2586696,47.0992196 49.073999,46.9894969 M43.1157282,43.2151951 C44.0407082,43.7646037 45.0340246,44.3951117 45.5563088,44.7791411 C45.0128729,45.6640785 46.2494337,47.1954258 47.0719094,45.9988123 C47.0906205,46.8726184 47.5478226,47.7265472 48.3637901,48.1956515 C48.680252,48.3658012 49.0243739,48.4858601 49.3538523,48.5144834 L49.966438,48.5144834 C50.7441697,48.4198675 51.4771574,47.9809767 51.9099537,47.2518773 C52.6339927,46.030616 52.2028234,44.4650798 50.9621949,43.7439313 C50.1348381,43.274827 49.1740628,43.2986798 48.4060935,43.7272344 C49.0300686,42.4248736 47.0824852,42.125919 46.5780986,43.0394798 C45.7670123,42.6920245 44.1204339,41.8277595 43.0237996,41.209973 C43.0408837,41.8778503 43.0750518,42.5481129 43.1157282,43.2151951 M33.6820705,28.0647166 C31.1544425,29.5014479 28.8912107,31.1711411 26.9550167,32.9855411 C26.5319828,34.7538258 26.2448078,36.639784 26.1,38.5821939 L26.1,43.7391607 C26.2081991,45.2418847 26.4091402,46.6945178 26.6816717,48.0994454 C27.4114053,47.6502184 28.1484607,46.9648491 28.8334503,46.0735509 C28.7106078,44.9246429 28.8261286,43.5594699 29.2182485,42.0917301 C29.5859627,40.7265571 30.1049928,39.5267632 30.7403573,38.6076368 C32.4471367,38.1226307 36.1901739,39.5267632 39.644409,41.2775558 C39.644409,40.8967067 39.6590525,40.5476613 39.6590525,40.1715828 C39.6590525,39.8726282 39.6590525,39.5140417 39.644409,39.1236515 C36.7336098,37.1820368 34.1547296,34.9700908 33.7699314,33.416481 C34.2564205,32.4242061 35.043101,31.3627583 36.0526878,30.3688933 C37.1338651,29.2923387 38.2752433,28.5242798 39.3474717,28.0488147 C39.7705057,27.0175804 40.0121231,26.0356417 40.0405966,25.2 C37.9148509,25.934665 35.7720211,26.867308 33.6820705,28.0647166 M40.144728,31.7006724 C40.144728,31.0415411 40.6686393,30.5096245 41.3316637,30.5096245 C41.9995693,30.5096245 42.5283618,31.0415411 42.5283618,31.7006724 C42.5283618,32.3566233 41.9995693,32.8869497 41.3316637,32.8869497 C40.674334,32.8869497 40.144728,32.3566233 40.144728,31.7006724 M38.7576647,31.7006724 C38.7576647,32.6436515 39.2555431,33.4482847 40.0121231,33.9030773 C38.5607912,34.0151853 39.2612378,35.835946 40.3261445,35.818454 C40.4278354,36.7741546 40.4847823,38.9678135 40.4847823,40.1715828 C40.4847823,44.6543117 39.8640613,50.118184 38.3175467,51.6018258 C37.1989472,51.6940564 35.8818472,51.5374233 34.5029191,51.1772466 C33.0271814,50.7836761 31.7637741,50.1897423 30.8347264,49.5162994 C29.7088052,49.660211 28.732573,49.9496245 27.9735524,50.3384245 C29.6835859,51.7950331 31.5758494,53.1681571 33.6723082,54.3576147 C36.1137023,55.7561816 38.6331951,56.8462528 41.1046897,57.6 L41.5627054,57.6 C44.0464029,56.8462528 46.5504387,55.7561816 49.0015952,54.3576147 C51.0980539,53.1681571 52.9919445,51.7950331 54.6840804,50.3384245 C53.9429574,49.9591656 52.9667252,49.660211 51.8448716,49.5162994 C50.8930451,50.1897423 49.6507896,50.7836761 48.1628489,51.1772466 C46.7896156,51.5374233 45.4635668,51.6940564 44.3596108,51.6018258 C42.8057744,50.118184 42.1809858,44.6543117 42.1809858,40.1715828 C42.1809858,38.9678135 42.2346786,36.7741546 42.3493859,35.818454 C43.3955814,35.835946 44.1131121,34.0151853 42.6544584,33.9030773 C43.4183602,33.4482847 43.9316956,32.6436515 43.9316956,31.7006724 C43.9316956,30.2830233 42.7691657,29.1317301 41.3316637,29.1317301 C39.902297,29.1317301 38.7576647,30.2830233 38.7576647,31.7006724" id="Fill-14" fill="url(#linearGradient-3)"></path>
            </g>
        </g>
    </g>
</svg>