<?xml version="1.0" encoding="UTF-8"?>
<svg width="219px" height="200px" viewBox="0 0 219 200" version="1.1" xmlns="http://www.w3.org/2000/svg" xmlns:xlink="http://www.w3.org/1999/xlink">
    <!-- Generator: Sketch 52.6 (67491) - http://www.bohemiancoding.com/sketch -->
    <desc>Created with Sketch.</desc>
    <defs>
        <rect id="path-1" x="0.5" y="0.9" width="157.659955" height="142.945026" rx="1.05106637"></rect>
        <filter x="-19.0%" y="-16.8%" width="138.1%" height="142.0%" filterUnits="objectBoundingBox" id="filter-2">
            <feOffset dx="0" dy="6" in="SourceAlpha" result="shadowOffsetOuter1"></feOffset>
            <feGaussianBlur stdDeviation="9" in="shadowOffsetOuter1" result="shadowBlurOuter1"></feGaussianBlur>
            <feColorMatrix values="0 0 0 0 0   0 0 0 0 0   0 0 0 0 0  0 0 0 0.10377038 0" type="matrix" in="shadowBlurOuter1"></feColorMatrix>
        </filter>
    </defs>
    <g id="Page-1" stroke="none" stroke-width="1" fill="none" fill-rule="evenodd">
        <g id="card/nudge/scorecard">
            <g transform="translate(30.000000, 28.000000)">
                <g id="Mask" fill-rule="nonzero">
                    <use fill="black" fill-opacity="1" filter="url(#filter-2)" xlink:href="#path-1"></use>
                    <use fill="#FFFFFF" xlink:href="#path-1"></use>
                </g>
                <path d="M23.0979269,125.451365 L14.689396,125.451365 C14.108908,125.451365 13.6383296,125.921943 13.6383296,126.502431 L13.6383296,132.808829 C13.6383296,133.389317 14.108908,133.859896 14.689396,133.859896 L23.0979269,133.859896 C23.6784148,133.859896 24.1489933,133.389317 24.1489933,132.808829 L24.1489933,126.502431 C24.1489933,125.921943 23.6784148,125.451365 23.0979269,125.451365 L23.0979269,125.451365 Z M23.0979269,132.808829 L14.689396,132.808829 L14.689396,127.553497 L18.8936614,130.181163 L23.0979269,127.553497 L23.0979269,132.808829 L23.0979269,132.808829 Z M23.0979269,126.502431 L18.8936614,129.130097 L14.689396,126.502431 L23.0979269,126.502431 L23.0979269,126.502431 Z" id="Shape-Copy-8" fill="#000000" opacity="0.3"></path>
                <path d="M20.281069,24.4638628 L19.5873652,24.4638628 L18.8936614,22.7401139 L15.1833972,22.7401139 L14.4896934,24.4638628 L13.7959896,24.4638628 L16.6654007,17.4532501 L17.4116579,17.4532501 L20.281069,24.4638628 Z M18.6939588,22.1935594 L17.0437846,18.0944006 L15.3830998,22.1935594 L18.6939588,22.1935594 Z M21.8156259,24.5899907 C21.1429434,24.5899907 20.8171128,24.1800749 20.8171128,23.4863711 L20.8171128,19.8707028 L19.9762598,19.8707028 L19.9762598,19.3872122 L20.8171128,19.3872122 L20.8171128,17.9998046 L21.374178,17.9998046 L21.374178,19.3872122 L22.4042231,19.3872122 L22.4042231,19.8707028 L21.374178,19.8707028 L21.374178,23.4022858 C21.374178,23.8122016 21.5423486,24.0959896 21.8997112,24.0959896 C22.1414565,24.0959896 22.3516697,23.9803723 22.467287,23.8542443 L22.6775003,24.2746708 C22.4777977,24.4638628 22.2360524,24.5899907 21.8156259,24.5899907 Z M24.9372929,26.4503782 L25.0318889,25.9458664 C25.1475062,25.9984197 25.3472088,26.0299517 25.4733368,26.0299517 C25.809678,26.0299517 26.0409126,25.893313 26.2511259,25.4098225 L26.6505311,24.5059054 L24.495845,19.3872122 L25.1054635,19.3872122 L26.9553403,23.8227123 L28.7841958,19.3872122 L29.404325,19.3872122 L26.7766591,25.5779931 C26.5033818,26.2191436 26.0724446,26.5239529 25.4838474,26.5239529 C25.3051661,26.5239529 25.0739315,26.4924209 24.9372929,26.4503782 Z M31.9479055,24.5899907 C30.465902,24.5899907 29.5199422,23.4022858 29.5199422,21.9202822 C29.5199422,20.4382786 30.465902,19.2610843 31.9479055,19.2610843 C33.4509304,19.2610843 34.3968902,20.4382786 34.3968902,21.9202822 C34.3968902,23.4022858 33.4509304,24.5899907 31.9479055,24.5899907 Z M31.9479055,24.0959896 C33.1461212,24.0959896 33.808293,23.0554339 33.808293,21.9202822 C33.808293,20.7956412 33.1461212,19.7550855 31.9479055,19.7550855 C30.7707112,19.7550855 30.0980287,20.7956412 30.0980287,21.9202822 C30.0980287,23.0554339 30.7707112,24.0959896 31.9479055,24.0959896 Z M39.2528167,24.4638628 L38.7062622,24.4638628 L38.7062622,23.7176057 C38.2963464,24.1800749 37.6131532,24.5899907 36.8774068,24.5899907 C35.8473617,24.5899907 35.2797859,24.1065002 35.2797859,22.9608379 L35.2797859,19.3872122 L35.8263404,19.3872122 L35.8263404,22.8347099 C35.8263404,23.8227123 36.3203416,24.0959896 37.056088,24.0959896 C37.7077492,24.0959896 38.369921,23.707095 38.7062622,23.2551365 L38.7062622,19.3872122 L39.2528167,19.3872122 L39.2528167,24.4638628 Z M40.9765655,24.4638628 L40.430011,24.4638628 L40.430011,19.3872122 L40.9765655,19.3872122 L40.9765655,20.2595973 C41.4075028,19.6920215 41.9855893,19.2821056 42.6898037,19.2821056 L42.6898037,19.8812134 C42.5952077,19.8601921 42.5216331,19.8601921 42.4165265,19.8601921 C41.9015039,19.8601921 41.2078001,20.3226613 40.9765655,20.7641092 L40.9765655,24.4638628 Z M47.6087942,24.5899907 C46.11628,24.5899907 45.1492989,23.4022858 45.1492989,21.9202822 C45.1492989,20.4382786 46.11628,19.2610843 47.6087942,19.2610843 C48.49169,19.2610843 48.9962018,19.6079362 49.4061177,20.1229587 L49.0277338,20.4592999 C48.6598606,19.9547881 48.1973914,19.7550855 47.6403262,19.7550855 C46.4526212,19.7550855 45.7273854,20.7010452 45.7273854,21.9202822 C45.7273854,23.1395192 46.4526212,24.0959896 47.6403262,24.0959896 C48.1973914,24.0959896 48.6598606,23.8857763 49.0277338,23.3812644 L49.4061177,23.7176057 C48.9962018,24.2431388 48.49169,24.5899907 47.6087942,24.5899907 Z M54.0728523,24.4638628 L53.5262978,24.4638628 L53.5262978,23.7176057 C53.1163819,24.1800749 52.4331888,24.5899907 51.6974424,24.5899907 C50.6673973,24.5899907 50.0998215,24.1065002 50.0998215,22.9608379 L50.0998215,19.3872122 L50.646376,19.3872122 L50.646376,22.8347099 C50.646376,23.8227123 51.1403772,24.0959896 51.8761236,24.0959896 C52.5277848,24.0959896 53.1899566,23.707095 53.5262978,23.2551365 L53.5262978,19.3872122 L54.0728523,19.3872122 L54.0728523,24.4638628 Z M55.7966011,24.4638628 L55.2500466,24.4638628 L55.2500466,19.3872122 L55.7966011,19.3872122 L55.7966011,20.2595973 C56.2275384,19.6920215 56.8056249,19.2821056 57.5098393,19.2821056 L57.5098393,19.8812134 C57.4152433,19.8601921 57.3416687,19.8601921 57.2365621,19.8601921 C56.7215395,19.8601921 56.0278357,20.3226613 55.7966011,20.7641092 L55.7966011,24.4638628 Z M58.6029483,24.4638628 L58.0563938,24.4638628 L58.0563938,19.3872122 L58.6029483,19.3872122 L58.6029483,20.2595973 C59.0338855,19.6920215 59.611972,19.2821056 60.3161865,19.2821056 L60.3161865,19.8812134 C60.2215905,19.8601921 60.1480159,19.8601921 60.0429092,19.8601921 C59.5278867,19.8601921 58.8341829,20.3226613 58.6029483,20.7641092 L58.6029483,24.4638628 Z M63.112023,24.5899907 C61.6300194,24.5899907 60.578953,23.4863711 60.578953,21.9202822 C60.578953,20.4487893 61.6089981,19.2610843 63.017427,19.2610843 C64.5624946,19.2610843 65.4138583,20.4803212 65.4138583,21.9518142 L65.4138583,22.0989635 L61.1675502,22.0989635 C61.2201035,23.2025831 61.95585,24.1170109 63.1540656,24.1170109 C63.7952161,24.1170109 64.3838133,23.8752656 64.8147505,23.4127964 L65.0985384,23.770159 C64.5940265,24.2956922 63.9528761,24.5899907 63.112023,24.5899907 Z M64.8567931,21.6680262 C64.8462825,20.8061518 64.2787066,19.7340641 63.0069163,19.7340641 C61.8087007,19.7340641 61.2095928,20.7851305 61.1675502,21.6680262 L64.8567931,21.6680262 Z M70.2697849,24.4638628 L69.7232304,24.4638628 L69.7232304,21.0268758 C69.7232304,20.049384 69.2292292,19.7550855 68.4934827,19.7550855 C67.8418216,19.7550855 67.1691391,20.1650013 66.8433085,20.6274705 L66.8433085,24.4638628 L66.296754,24.4638628 L66.296754,19.3872122 L66.8433085,19.3872122 L66.8433085,20.1544907 C67.2111818,19.7130428 67.9364175,19.2610843 68.672164,19.2610843 C69.702209,19.2610843 70.2697849,19.7655961 70.2697849,20.9112585 L70.2697849,24.4638628 Z M72.5505989,24.5899907 C71.8779164,24.5899907 71.5520858,24.1800749 71.5520858,23.4863711 L71.5520858,19.8707028 L70.7112327,19.8707028 L70.7112327,19.3872122 L71.5520858,19.3872122 L71.5520858,17.9998046 L72.109151,17.9998046 L72.109151,19.3872122 L73.139196,19.3872122 L73.139196,19.8707028 L72.109151,19.8707028 L72.109151,23.4022858 C72.109151,23.8122016 72.2773216,24.0959896 72.6346842,24.0959896 C72.8764294,24.0959896 73.0866427,23.9803723 73.20226,23.8542443 L73.4124733,24.2746708 C73.2127707,24.4638628 72.9710254,24.5899907 72.5505989,24.5899907 Z M76.5551616,24.4638628 L76.0086071,24.4638628 L76.0086071,19.3872122 L76.5551616,19.3872122 L76.5551616,20.2595973 C76.9860988,19.6920215 77.5641853,19.2821056 78.2683998,19.2821056 L78.2683998,19.8812134 C78.1738038,19.8601921 78.1002292,19.8601921 77.9951225,19.8601921 C77.4801,19.8601921 76.7863962,20.3226613 76.5551616,20.7641092 L76.5551616,24.4638628 Z M82.5882825,24.4638628 L82.041728,24.4638628 L82.041728,23.864755 C81.5897695,24.3587561 81.0221936,24.5899907 80.3179792,24.5899907 C79.4455941,24.5899907 78.541677,23.9908829 78.541677,22.8977739 C78.541677,21.7941542 79.4350834,21.2160677 80.3179792,21.2160677 C81.0221936,21.2160677 81.6002801,21.4473023 82.041728,21.9413035 L82.041728,20.9112585 C82.041728,20.1544907 81.4321095,19.7445748 80.6858524,19.7445748 C80.0447019,19.7445748 79.5507007,19.9652987 79.0882315,20.4908319 L78.7834223,20.112448 C79.3089555,19.5448722 79.8975526,19.2610843 80.7384057,19.2610843 C81.7684508,19.2610843 82.5882825,19.7550855 82.5882825,20.8902371 L82.5882825,24.4638628 Z M80.5071711,24.1590535 C81.1167896,24.1590535 81.6843654,23.9278189 82.041728,23.4653497 L82.041728,22.3512194 C81.6843654,21.8782395 81.1167896,21.6470049 80.5071711,21.6470049 C79.6768287,21.6470049 79.1197635,22.1830488 79.1197635,22.9082846 C79.1197635,23.6230097 79.6768287,24.1590535 80.5071711,24.1590535 Z M84.8690965,24.5899907 C84.196414,24.5899907 83.8705834,24.1800749 83.8705834,23.4863711 L83.8705834,19.8707028 L83.0297303,19.8707028 L83.0297303,19.3872122 L83.8705834,19.3872122 L83.8705834,17.9998046 L84.4276486,17.9998046 L84.4276486,19.3872122 L85.4576937,19.3872122 L85.4576937,19.8707028 L84.4276486,19.8707028 L84.4276486,23.4022858 C84.4276486,23.8122016 84.5958192,24.0959896 84.9531818,24.0959896 C85.1949271,24.0959896 85.4051403,23.9803723 85.5207576,23.8542443 L85.7309709,24.2746708 C85.5312683,24.4638628 85.289523,24.5899907 84.8690965,24.5899907 Z M88.3796581,24.5899907 C86.8976545,24.5899907 85.8465882,23.4863711 85.8465882,21.9202822 C85.8465882,20.4487893 86.8766332,19.2610843 88.2850621,19.2610843 C89.8301297,19.2610843 90.6814935,20.4803212 90.6814935,21.9518142 L90.6814935,22.0989635 L86.4351853,22.0989635 C86.4877387,23.2025831 87.2234851,24.1170109 88.4217008,24.1170109 C89.0628513,24.1170109 89.6514484,23.8752656 90.0823856,23.4127964 L90.3661736,23.770159 C89.8616617,24.2956922 89.2205112,24.5899907 88.3796581,24.5899907 Z M90.1244283,21.6680262 C90.1139176,20.8061518 89.5463418,19.7340641 88.2745515,19.7340641 C87.0763358,19.7340641 86.477228,20.7851305 86.4351853,21.6680262 L90.1244283,21.6680262 Z M95.9052932,24.5899907 C94.4232896,24.5899907 93.4773299,23.4022858 93.4773299,21.9202822 C93.4773299,20.4382786 94.4232896,19.2610843 95.9052932,19.2610843 C97.4083181,19.2610843 98.3542779,20.4382786 98.3542779,21.9202822 C98.3542779,23.4022858 97.4083181,24.5899907 95.9052932,24.5899907 Z M95.9052932,24.0959896 C97.1035089,24.0959896 97.7656807,23.0554339 97.7656807,21.9202822 C97.7656807,20.7956412 97.1035089,19.7550855 95.9052932,19.7550855 C94.7280989,19.7550855 94.0554164,20.7956412 94.0554164,21.9202822 C94.0554164,23.0554339 94.7280989,24.0959896 95.9052932,24.0959896 Z M99.97292,24.4638628 L99.4158548,24.4638628 L99.4158548,19.8707028 L98.5750017,19.8707028 L98.5750017,19.3872122 L99.4158548,19.3872122 L99.4158548,18.924743 C99.4158548,17.9367406 99.941388,17.3481435 100.792752,17.3481435 C101.150114,17.3481435 101.433902,17.4217181 101.759733,17.705506 L101.496966,18.1049113 C101.328796,17.9472513 101.118582,17.8421447 100.845305,17.8421447 C100.267219,17.8421447 99.97292,18.2415499 99.97292,18.924743 L99.97292,19.3872122 L101.002965,19.3872122 L101.002965,19.8707028 L99.97292,19.8707028 L99.97292,24.4638628 Z M16.0032289,36.2899907 C15.1833972,36.2899907 14.5527573,36.0482455 14.0482455,35.4806696 L14.3740761,35.0812644 C14.6999066,35.4911803 15.2990145,35.8275215 16.0137396,35.8275215 C16.8651033,35.8275215 17.3696152,35.3860737 17.3696152,34.7974765 C17.3696152,33.4100689 14.1638628,34.1983687 14.1638628,32.3695132 C14.1638628,31.5917241 14.8260346,30.9610843 15.9716969,30.9610843 C16.844082,30.9610843 17.4221685,31.2974255 17.7900418,31.7073414 L17.4852325,32.0962359 C17.1909339,31.6968307 16.6443794,31.4235535 15.9716969,31.4235535 C15.1833972,31.4235535 14.7104173,31.8229587 14.7104173,32.3484919 C14.7104173,33.6202822 17.9056591,32.8424931 17.9056591,34.7974765 C17.9056591,35.6173083 17.2750192,36.2899907 16.0032289,36.2899907 Z M21.1009008,36.2899907 C20.3861756,36.2899907 19.7450251,35.9221175 19.3351093,35.344031 L19.3351093,38.0978249 L18.7885548,38.0978249 L18.7885548,31.0872122 L19.3351093,31.0872122 L19.3351093,31.8860227 C19.6924718,31.3710001 20.344133,30.9610843 21.1009008,30.9610843 C22.4567764,30.9610843 23.3712041,31.9911293 23.3712041,33.6202822 C23.3712041,35.2389244 22.4567764,36.2899907 21.1009008,36.2899907 Z M21.0063048,35.7959896 C22.1414565,35.7959896 22.782607,34.8500298 22.782607,33.6202822 C22.782607,32.3905345 22.1414565,31.4550855 21.0063048,31.4550855 C20.3020903,31.4550855 19.6294078,31.875512 19.3351093,32.3590025 L19.3351093,34.8710512 C19.6294078,35.3545417 20.3020903,35.7959896 21.0063048,35.7959896 Z M26.4718499,36.2899907 C24.9898463,36.2899907 23.9387799,35.1863711 23.9387799,33.6202822 C23.9387799,32.1487893 24.968825,30.9610843 26.3772539,30.9610843 C27.9223214,30.9610843 28.7736852,32.1803212 28.7736852,33.6518142 L28.7736852,33.7989635 L24.5273771,33.7989635 C24.5799304,34.9025831 25.3156769,35.8170109 26.5138925,35.8170109 C27.155043,35.8170109 27.7436402,35.5752656 28.1745774,35.1127964 L28.4583653,35.470159 C27.9538534,35.9956922 27.312703,36.2899907 26.4718499,36.2899907 Z M28.21662,33.3680262 C28.2061094,32.5061518 27.6385335,31.4340641 26.3667432,31.4340641 C25.1685276,31.4340641 24.5694197,32.4851305 24.5273771,33.3680262 L28.21662,33.3680262 Z M33.6296118,36.1638628 L33.0830573,36.1638628 L33.0830573,32.7268758 C33.0830573,31.749384 32.5890561,31.4550855 31.8533096,31.4550855 C31.2016485,31.4550855 30.528966,31.8650013 30.2031354,32.3274705 L30.2031354,36.1638628 L29.6565809,36.1638628 L29.6565809,31.0872122 L30.2031354,31.0872122 L30.2031354,31.8544907 C30.5710086,31.4130428 31.2962444,30.9610843 32.0319909,30.9610843 C33.0620359,30.9610843 33.6296118,31.4655961 33.6296118,32.6112585 L33.6296118,36.1638628 Z M39.1056675,36.1638628 L38.5486023,36.1638628 L38.5486023,35.3545417 C38.1912398,35.8800749 37.5395786,36.2899907 36.7828108,36.2899907 C35.4374459,36.2899907 34.5230181,35.2599457 34.5230181,33.6307928 C34.5230181,32.0226613 35.4374459,30.9610843 36.7828108,30.9610843 C37.5080466,30.9610843 38.1491971,31.3289575 38.5486023,31.907044 L38.5486023,29.1532501 L39.1056675,29.1532501 L39.1056675,36.1638628 Z M36.8774068,35.7959896 C37.5921319,35.7959896 38.2543037,35.375563 38.5486023,34.8920725 L38.5486023,32.3800239 C38.2543037,31.8860227 37.5921319,31.4550855 36.8774068,31.4550855 C35.7527658,31.4550855 35.1011046,32.4010452 35.1011046,33.6307928 C35.1011046,34.8605405 35.7527658,35.7959896 36.8774068,35.7959896 Z M40.556139,30.2884018 C40.3354151,30.2884018 40.1357125,30.0992098 40.1357125,29.8679752 C40.1357125,29.6367406 40.3354151,29.4580594 40.556139,29.4580594 C40.7873736,29.4580594 40.9765656,29.6367406 40.9765656,29.8679752 C40.9765656,30.0992098 40.7873736,30.2884018 40.556139,30.2884018 Z M40.8294163,36.1638628 L40.2828618,36.1638628 L40.2828618,31.0872122 L40.8294163,31.0872122 L40.8294163,36.1638628 Z M45.9796415,36.1638628 L45.4330869,36.1638628 L45.4330869,32.7268758 C45.4330869,31.749384 44.9390858,31.4550855 44.2033393,31.4550855 C43.5516781,31.4550855 42.8789957,31.8650013 42.5531651,32.3274705 L42.5531651,36.1638628 L42.0066106,36.1638628 L42.0066106,31.0872122 L42.5531651,31.0872122 L42.5531651,31.8544907 C42.9210383,31.4130428 43.6462741,30.9610843 44.3820206,30.9610843 C45.4120656,30.9610843 45.9796415,31.4655961 45.9796415,32.6112585 L45.9796415,36.1638628 Z M49.1748832,38.2239529 C48.3130087,38.2239529 47.7664542,38.0662929 47.1673464,37.4566744 L47.4826663,37.0152265 C47.9241142,37.5407597 48.4076047,37.7299517 49.1748832,37.7299517 C50.0893109,37.7299517 50.898632,37.2674825 50.898632,36.1218201 L50.898632,35.312499 C50.5412694,35.8380322 49.8896083,36.2689694 49.1328405,36.2689694 C47.7874756,36.2689694 46.8730478,35.249435 46.8730478,33.6202822 C46.8730478,32.0121506 47.7874756,30.9610843 49.1328405,30.9610843 C49.8580763,30.9610843 50.4887161,31.3289575 50.898632,31.907044 L50.898632,31.0872122 L51.4556972,31.0872122 L51.4556972,36.1218201 C51.4556972,37.6668877 50.4046308,38.2239529 49.1748832,38.2239529 Z M49.2274365,35.7749682 C49.931651,35.7749682 50.6043334,35.344031 50.898632,34.8500298 L50.898632,32.3800239 C50.6043334,31.8860227 49.931651,31.4550855 49.2274365,31.4550855 C48.1027955,31.4550855 47.4511343,32.3905345 47.4511343,33.6202822 C47.4511343,34.8500298 48.1027955,35.7749682 49.2274365,35.7749682 Z M53.4422126,36.0167135 C53.4422126,36.6053107 53.0953607,37.1623758 52.6854448,37.4461638 L52.3806355,37.1939078 C52.7169768,36.9626732 52.9692327,36.5527573 52.990254,36.2269268 C52.990254,36.2269268 52.9166794,36.2374374 52.8851474,36.2374374 C52.6328915,36.2374374 52.4542102,36.0482455 52.4542102,35.7959896 C52.4542102,35.5542443 52.6539128,35.344031 52.9061687,35.344031 C53.1899566,35.344031 53.4422126,35.5857763 53.4422126,36.0167135 Z M56.8686888,30.2884018 C56.6479649,30.2884018 56.4482623,30.0992098 56.4482623,29.8679752 C56.4482623,29.6367406 56.6479649,29.4580594 56.8686888,29.4580594 C57.0999234,29.4580594 57.2891154,29.6367406 57.2891154,29.8679752 C57.2891154,30.0992098 57.0999234,30.2884018 56.8686888,30.2884018 Z M57.1419661,36.1638628 L56.5954116,36.1638628 L56.5954116,31.0872122 L57.1419661,31.0872122 L57.1419661,36.1638628 Z M59.4227801,36.2899907 C58.7500976,36.2899907 58.424267,35.8800749 58.424267,35.1863711 L58.424267,31.5707028 L57.5834139,31.5707028 L57.5834139,31.0872122 L58.424267,31.0872122 L58.424267,29.6998046 L58.9813322,29.6998046 L58.9813322,31.0872122 L60.0113772,31.0872122 L60.0113772,31.5707028 L58.9813322,31.5707028 L58.9813322,35.1022858 C58.9813322,35.5122016 59.1495028,35.7959896 59.5068654,35.7959896 C59.7486106,35.7959896 59.9588239,35.6803723 60.0744412,35.5542443 L60.2846545,35.9746708 C60.0849519,36.1638628 59.8432066,36.2899907 59.4227801,36.2899907 Z M63.4273428,36.1638628 L62.8807883,36.1638628 L62.8807883,29.1532501 L63.4273428,29.1532501 L63.4273428,36.1638628 Z M66.7487125,36.2899907 C65.2667089,36.2899907 64.3207492,35.1022858 64.3207492,33.6202822 C64.3207492,32.1382786 65.2667089,30.9610843 66.7487125,30.9610843 C68.2517374,30.9610843 69.1976971,32.1382786 69.1976971,33.6202822 C69.1976971,35.1022858 68.2517374,36.2899907 66.7487125,36.2899907 Z M66.7487125,35.7959896 C67.9469282,35.7959896 68.6091,34.7554339 68.6091,33.6202822 C68.6091,32.4956412 67.9469282,31.4550855 66.7487125,31.4550855 C65.5715182,31.4550855 64.8988357,32.4956412 64.8988357,33.6202822 C64.8988357,34.7554339 65.5715182,35.7959896 66.7487125,35.7959896 Z M72.2247682,36.2899907 C70.7427647,36.2899907 69.7968049,35.1022858 69.7968049,33.6202822 C69.7968049,32.1382786 70.7427647,30.9610843 72.2247682,30.9610843 C73.7277931,30.9610843 74.6737529,32.1382786 74.6737529,33.6202822 C74.6737529,35.1022858 73.7277931,36.2899907 72.2247682,36.2899907 Z M72.2247682,35.7959896 C73.4229839,35.7959896 74.0851557,34.7554339 74.0851557,33.6202822 C74.0851557,32.4956412 73.4229839,31.4550855 72.2247682,31.4550855 C71.0475739,31.4550855 70.3748914,32.4956412 70.3748914,33.6202822 C70.3748914,34.7554339 71.0475739,35.7959896 72.2247682,35.7959896 Z M79.8134674,36.1638628 L79.0777209,36.1638628 L77.0491628,33.7464101 L76.1032031,34.6398166 L76.1032031,36.1638628 L75.5566486,36.1638628 L75.5566486,29.1532501 L76.1032031,29.1532501 L76.1032031,33.9881554 L79.0882316,31.0872122 L79.823978,31.0872122 L77.4590787,33.3785369 L79.8134674,36.1638628 Z M81.8525361,36.2899907 C81.0327043,36.2899907 80.4020645,36.0482455 79.8975526,35.4806696 L80.2233832,35.0812644 C80.5492138,35.4911803 81.1483216,35.8275215 81.8630467,35.8275215 C82.7144105,35.8275215 83.2189223,35.3860737 83.2189223,34.7974765 C83.2189223,33.4100689 80.0131699,34.1983687 80.0131699,32.3695132 C80.0131699,31.5917241 80.6753417,30.9610843 81.8210041,30.9610843 C82.6933892,30.9610843 83.2714757,31.2974255 83.6393489,31.7073414 L83.3345396,32.0962359 C83.0402411,31.6968307 82.4936866,31.4235535 81.8210041,31.4235535 C81.0327043,31.4235535 80.5597244,31.8229587 80.5597244,32.3484919 C80.5597244,33.6202822 83.7549662,32.8424931 83.7549662,34.7974765 C83.7549662,35.6173083 83.1243264,36.2899907 81.8525361,36.2899907 Z M87.3811451,36.1638628 L86.8345906,36.1638628 L86.8345906,29.1532501 L87.3811451,29.1532501 L87.3811451,36.1638628 Z M88.8316166,30.2884018 C88.6108927,30.2884018 88.4111901,30.0992098 88.4111901,29.8679752 C88.4111901,29.6367406 88.6108927,29.4580594 88.8316166,29.4580594 C89.0628512,29.4580594 89.2520432,29.6367406 89.2520432,29.8679752 C89.2520432,30.0992098 89.0628512,30.2884018 88.8316166,30.2884018 Z M89.1048939,36.1638628 L88.5583393,36.1638628 L88.5583393,31.0872122 L89.1048939,31.0872122 L89.1048939,36.1638628 Z M94.5389069,36.1638628 L93.8031605,36.1638628 L91.7746024,33.7464101 L90.8286427,34.6398166 L90.8286427,36.1638628 L90.2820881,36.1638628 L90.2820881,29.1532501 L90.8286427,29.1532501 L90.8286427,33.9881554 L93.8136711,31.0872122 L94.5494176,31.0872122 L92.1845183,33.3785369 L94.5389069,36.1638628 Z M97.2927008,36.2899907 C95.8106972,36.2899907 94.7596308,35.1863711 94.7596308,33.6202822 C94.7596308,32.1487893 95.7896759,30.9610843 97.1981048,30.9610843 C98.7431724,30.9610843 99.5945361,32.1803212 99.5945361,33.6518142 L99.5945361,33.7989635 L95.348228,33.7989635 C95.4007813,34.9025831 96.1365278,35.8170109 97.3347434,35.8170109 C97.9758939,35.8170109 98.5644911,35.5752656 98.9954283,35.1127964 L99.2792162,35.470159 C98.7747043,35.9956922 98.1335539,36.2899907 97.2927008,36.2899907 Z M99.0374709,33.3680262 C99.0269603,32.5061518 98.4593844,31.4340641 97.1875941,31.4340641 C95.9893785,31.4340641 95.3902706,32.4851305 95.348228,33.3680262 L99.0374709,33.3680262 Z M102.337819,38.1503782 L102.432415,37.6458664 C102.548033,37.6984197 102.747735,37.7299517 102.873863,37.7299517 C103.210204,37.7299517 103.441439,37.593313 103.651652,37.1098225 L104.051057,36.2059054 L101.896371,31.0872122 L102.50599,31.0872122 L104.355867,35.5227123 L106.184722,31.0872122 L106.804851,31.0872122 L104.177185,37.2779931 C103.903908,37.9191436 103.472971,38.2239529 102.884374,38.2239529 C102.705692,38.2239529 102.474458,38.1924209 102.337819,38.1503782 Z M109.348432,36.2899907 C107.866428,36.2899907 106.920469,35.1022858 106.920469,33.6202822 C106.920469,32.1382786 107.866428,30.9610843 109.348432,30.9610843 C110.851457,30.9610843 111.797417,32.1382786 111.797417,33.6202822 C111.797417,35.1022858 110.851457,36.2899907 109.348432,36.2899907 Z M109.348432,35.7959896 C110.546648,35.7959896 111.208819,34.7554339 111.208819,33.6202822 C111.208819,32.4956412 110.546648,31.4550855 109.348432,31.4550855 C108.171238,31.4550855 107.498555,32.4956412 107.498555,33.6202822 C107.498555,34.7554339 108.171238,35.7959896 109.348432,35.7959896 Z M116.653343,36.1638628 L116.106789,36.1638628 L116.106789,35.4176057 C115.696873,35.8800749 115.01368,36.2899907 114.277933,36.2899907 C113.247888,36.2899907 112.680312,35.8065002 112.680312,34.6608379 L112.680312,31.0872122 L113.226867,31.0872122 L113.226867,34.5347099 C113.226867,35.5227123 113.720868,35.7959896 114.456614,35.7959896 C115.108276,35.7959896 115.770447,35.407095 116.106789,34.9551365 L116.106789,31.0872122 L116.653343,31.0872122 L116.653343,36.1638628 Z M118.124836,31.6758094 L117.809516,31.6758094 C117.809516,31.6758094 117.588792,29.563166 117.588792,29.4265274 C117.588792,29.2163141 117.746452,29.0481435 117.967176,29.0481435 C118.177389,29.0481435 118.34556,29.2163141 118.34556,29.4265274 C118.34556,29.563166 118.124836,31.6758094 118.124836,31.6758094 Z M119.817053,36.1638628 L119.270498,36.1638628 L119.270498,31.0872122 L119.817053,31.0872122 L119.817053,31.9595973 C120.24799,31.3920215 120.826076,30.9821056 121.530291,30.9821056 L121.530291,31.5812134 C121.435695,31.5601921 121.36212,31.5601921 121.257014,31.5601921 C120.741991,31.5601921 120.048287,32.0226613 119.817053,32.4641092 L119.817053,36.1638628 Z M124.326127,36.2899907 C122.844124,36.2899907 121.793057,35.1863711 121.793057,33.6202822 C121.793057,32.1487893 122.823103,30.9610843 124.231531,30.9610843 C125.776599,30.9610843 126.627963,32.1803212 126.627963,33.6518142 L126.627963,33.7989635 L122.381655,33.7989635 C122.434208,34.9025831 123.169954,35.8170109 124.36817,35.8170109 C125.009321,35.8170109 125.597918,35.5752656 126.028855,35.1127964 L126.312643,35.470159 C125.808131,35.9956922 125.166981,36.2899907 124.326127,36.2899907 Z M126.070898,33.3680262 C126.060387,32.5061518 125.492811,31.4340641 124.221021,31.4340641 C123.022805,31.4340641 122.423697,32.4851305 122.381655,33.3680262 L126.070898,33.3680262 Z M16.5077408,49.9239529 C15.6458664,49.9239529 15.0993119,49.7662929 14.500204,49.1566744 L14.8155239,48.7152265 C15.2569718,49.2407597 15.7404623,49.4299517 16.5077408,49.4299517 C17.4221685,49.4299517 18.2314896,48.9674825 18.2314896,47.8218201 L18.2314896,47.012499 C17.8741271,47.5380322 17.2224659,47.9689694 16.4656981,47.9689694 C15.1203332,47.9689694 14.2059054,46.949435 14.2059054,45.3202822 C14.2059054,43.7121506 15.1203332,42.6610843 16.4656981,42.6610843 C17.1909339,42.6610843 17.8215737,43.0289575 18.2314896,43.607044 L18.2314896,42.7872122 L18.7885548,42.7872122 L18.7885548,47.8218201 C18.7885548,49.3668877 17.7374884,49.9239529 16.5077408,49.9239529 Z M16.5602941,47.4749682 C17.2645086,47.4749682 17.937191,47.044031 18.2314896,46.5500298 L18.2314896,44.0800239 C17.937191,43.5860227 17.2645086,43.1550855 16.5602941,43.1550855 C15.4356531,43.1550855 14.7839919,44.0905345 14.7839919,45.3202822 C14.7839919,46.5500298 15.4356531,47.4749682 16.5602941,47.4749682 Z M22.0994138,47.9899907 C20.6174102,47.9899907 19.6714505,46.8022858 19.6714505,45.3202822 C19.6714505,43.8382786 20.6174102,42.6610843 22.0994138,42.6610843 C23.6024387,42.6610843 24.5483985,43.8382786 24.5483985,45.3202822 C24.5483985,46.8022858 23.6024387,47.9899907 22.0994138,47.9899907 Z M22.0994138,47.4959896 C23.2976295,47.4959896 23.9598013,46.4554339 23.9598013,45.3202822 C23.9598013,44.1956412 23.2976295,43.1550855 22.0994138,43.1550855 C20.9222195,43.1550855 20.249537,44.1956412 20.249537,45.3202822 C20.249537,46.4554339 20.9222195,47.4959896 22.0994138,47.4959896 Z M25.7045714,41.9884018 C25.4838475,41.9884018 25.2841449,41.7992098 25.2841449,41.5679752 C25.2841449,41.3367406 25.4838475,41.1580594 25.7045714,41.1580594 C25.935806,41.1580594 26.124998,41.3367406 26.124998,41.5679752 C26.124998,41.7992098 25.935806,41.9884018 25.7045714,41.9884018 Z M25.9778487,47.8638628 L25.4312942,47.8638628 L25.4312942,42.7872122 L25.9778487,42.7872122 L25.9778487,47.8638628 Z M31.1280738,47.8638628 L30.5815193,47.8638628 L30.5815193,44.4268758 C30.5815193,43.449384 30.0875181,43.1550855 29.3517717,43.1550855 C28.7001105,43.1550855 28.027428,43.5650013 27.7015975,44.0274705 L27.7015975,47.8638628 L27.1550429,47.8638628 L27.1550429,42.7872122 L27.7015975,42.7872122 L27.7015975,43.5544907 C28.0694707,43.1130428 28.7947065,42.6610843 29.5304529,42.6610843 C30.560498,42.6610843 31.1280738,43.1655961 31.1280738,44.3112585 L31.1280738,47.8638628 Z M34.3233155,49.9239529 C33.4614411,49.9239529 32.9148866,49.7662929 32.3157788,49.1566744 L32.6310987,48.7152265 C33.0725466,49.2407597 33.5560371,49.4299517 34.3233155,49.4299517 C35.2377433,49.4299517 36.0470644,48.9674825 36.0470644,47.8218201 L36.0470644,47.012499 C35.6897018,47.5380322 35.0380407,47.9689694 34.2812729,47.9689694 C32.9359079,47.9689694 32.0214802,46.949435 32.0214802,45.3202822 C32.0214802,43.7121506 32.9359079,42.6610843 34.2812729,42.6610843 C35.0065087,42.6610843 35.6371485,43.0289575 36.0470644,43.607044 L36.0470644,42.7872122 L36.6041295,42.7872122 L36.6041295,47.8218201 C36.6041295,49.3668877 35.5530632,49.9239529 34.3233155,49.9239529 Z M34.3758688,47.4749682 C35.0800833,47.4749682 35.7527658,47.044031 36.0470644,46.5500298 L36.0470644,44.0800239 C35.7527658,43.5860227 35.0800833,43.1550855 34.3758688,43.1550855 C33.2512278,43.1550855 32.5995667,44.0905345 32.5995667,45.3202822 C32.5995667,46.5500298 33.2512278,47.4749682 34.3758688,47.4749682 Z M41.0711615,47.9899907 C40.398479,47.9899907 40.0726485,47.5800749 40.0726485,46.8863711 L40.0726485,43.2707028 L39.2317954,43.2707028 L39.2317954,42.7872122 L40.0726485,42.7872122 L40.0726485,41.3998046 L40.6297136,41.3998046 L40.6297136,42.7872122 L41.6597587,42.7872122 L41.6597587,43.2707028 L40.6297136,43.2707028 L40.6297136,46.8022858 C40.6297136,47.2122016 40.7978843,47.4959896 41.1552468,47.4959896 C41.3969921,47.4959896 41.6072054,47.3803723 41.7228227,47.2542443 L41.9330359,47.6746708 C41.7333333,47.8638628 41.4915881,47.9899907 41.0711615,47.9899907 Z M44.4766165,47.9899907 C42.9946129,47.9899907 42.0486532,46.8022858 42.0486532,45.3202822 C42.0486532,43.8382786 42.9946129,42.6610843 44.4766165,42.6610843 C45.9796414,42.6610843 46.9256011,43.8382786 46.9256011,45.3202822 C46.9256011,46.8022858 45.9796414,47.9899907 44.4766165,47.9899907 Z M44.4766165,47.4959896 C45.6748322,47.4959896 46.337004,46.4554339 46.337004,45.3202822 C46.337004,44.1956412 45.6748322,43.1550855 44.4766165,43.1550855 C43.2994222,43.1550855 42.6267397,44.1956412 42.6267397,45.3202822 C42.6267397,46.4554339 43.2994222,47.4959896 44.4766165,47.4959896 Z M51.5187611,47.9899907 C50.6989293,47.9899907 50.0682895,47.7482455 49.5637776,47.1806696 L49.8896082,46.7812644 C50.2154388,47.1911803 50.8145466,47.5275215 51.5292717,47.5275215 C52.3806355,47.5275215 52.8851473,47.0860737 52.8851473,46.4974765 C52.8851473,45.1100689 49.6793949,45.8983687 49.6793949,44.0695132 C49.6793949,43.2917241 50.3415667,42.6610843 51.4872291,42.6610843 C52.3596142,42.6610843 52.9377007,42.9974255 53.3055739,43.4073414 L53.0007646,43.7962359 C52.7064661,43.3968307 52.1599116,43.1235535 51.4872291,43.1235535 C50.6989293,43.1235535 50.2259494,43.5229587 50.2259494,44.0484919 C50.2259494,45.3202822 53.4211912,44.5424931 53.4211912,46.4974765 C53.4211912,47.3173083 52.7905514,47.9899907 51.5187611,47.9899907 Z M56.6164329,47.9899907 C55.9017078,47.9899907 55.2605573,47.6221175 54.8506414,47.044031 L54.8506414,49.7978249 L54.3040869,49.7978249 L54.3040869,42.7872122 L54.8506414,42.7872122 L54.8506414,43.5860227 C55.208004,43.0710001 55.8596651,42.6610843 56.6164329,42.6610843 C57.9723085,42.6610843 58.8867363,43.6911293 58.8867363,45.3202822 C58.8867363,46.9389244 57.9723085,47.9899907 56.6164329,47.9899907 Z M56.5218369,47.4959896 C57.6569886,47.4959896 58.2981391,46.5500298 58.2981391,45.3202822 C58.2981391,44.0905345 57.6569886,43.1550855 56.5218369,43.1550855 C55.8176225,43.1550855 55.14494,43.575512 54.8506414,44.0590025 L54.8506414,46.5710512 C55.14494,47.0545417 55.8176225,47.4959896 56.5218369,47.4959896 Z M61.987382,47.9899907 C60.5053784,47.9899907 59.4543121,46.8863711 59.4543121,45.3202822 C59.4543121,43.8487893 60.4843571,42.6610843 61.892786,42.6610843 C63.4378536,42.6610843 64.2892173,43.8803212 64.2892173,45.3518142 L64.2892173,45.4989635 L60.0429092,45.4989635 C60.0954625,46.6025831 60.831209,47.5170109 62.0294247,47.5170109 C62.6705751,47.5170109 63.2591723,47.2752656 63.6901095,46.8127964 L63.9738974,47.170159 C63.4693856,47.6956922 62.8282351,47.9899907 61.987382,47.9899907 Z M63.7321522,45.0680262 C63.7216415,44.2061518 63.1540657,43.1340641 61.8822754,43.1340641 C60.6840597,43.1340641 60.0849519,44.1851305 60.0429092,45.0680262 L63.7321522,45.0680262 Z M69.1451439,47.8638628 L68.5985894,47.8638628 L68.5985894,44.4268758 C68.5985894,43.449384 68.1045882,43.1550855 67.3688418,43.1550855 C66.7171806,43.1550855 66.0444981,43.5650013 65.7186676,44.0274705 L65.7186676,47.8638628 L65.172113,47.8638628 L65.172113,42.7872122 L65.7186676,42.7872122 L65.7186676,43.5544907 C66.0865408,43.1130428 66.8117766,42.6610843 67.547523,42.6610843 C68.5775681,42.6610843 69.1451439,43.1655961 69.1451439,44.3112585 L69.1451439,47.8638628 Z M74.6211996,47.8638628 L74.0641345,47.8638628 L74.0641345,47.0545417 C73.7067719,47.5800749 73.0551108,47.9899907 72.298343,47.9899907 C70.952978,47.9899907 70.0385503,46.9599457 70.0385503,45.3307928 C70.0385503,43.7226613 70.952978,42.6610843 72.298343,42.6610843 C73.0235788,42.6610843 73.6647293,43.0289575 74.0641345,43.607044 L74.0641345,40.8532501 L74.6211996,40.8532501 L74.6211996,47.8638628 Z M72.3929389,47.4959896 C73.1076641,47.4959896 73.7698359,47.075563 74.0641345,46.5920725 L74.0641345,44.0800239 C73.7698359,43.5860227 73.1076641,43.1550855 72.3929389,43.1550855 C71.2682979,43.1550855 70.6166368,44.1010452 70.6166368,45.3307928 C70.6166368,46.5605405 71.2682979,47.4959896 72.3929389,47.4959896 Z M24.762816,68.5638628 L22.1898056,68.5638628 L19.408684,63.8529833 L17.1951382,63.8529833 L17.1951382,68.5638628 L14.9815924,68.5638628 L14.9815924,55.94476 L20.5249164,55.94476 C23.0222501,55.94476 24.6682201,57.5528915 24.6682201,59.8988716 C24.6682201,62.1313366 23.1925229,63.3610843 21.6600681,63.6070338 L24.762816,68.5638628 Z M20.2411285,61.9043063 C21.4897954,61.9043063 22.3979167,61.1097001 22.3979167,59.8799525 C22.3979167,58.669124 21.4897954,57.893437 20.2411285,57.893437 L17.1951382,57.893437 L17.1951382,61.9043063 L20.2411285,61.9043063 Z M30.8590009,68.5638628 L28.6454552,68.5638628 L28.6454552,58.8015584 L26.5832629,60.9583465 L25.2967577,59.6150837 L28.9292431,55.94476 L30.8590009,55.94476 L30.8590009,68.5638628 Z M37.4281657,68.7908931 C35.2713775,68.7908931 33.7767611,68.0341253 32.7551246,66.8422161 L34.0227106,65.3097613 C34.8551552,66.2935594 36.0092261,66.8232969 37.4092465,66.8232969 C39.017378,66.8232969 40.0011761,65.8394988 40.0011761,64.5908319 C40.0011761,63.2475691 39.017378,62.3583669 37.4660041,62.3583669 C36.4065292,62.3583669 35.517327,62.6799933 34.7038017,63.436761 L33.1335085,62.9827004 L33.1335085,55.94476 L41.4011965,55.94476 L41.4011965,57.893437 L35.3470543,57.893437 L35.3470543,61.5259224 C35.9713877,60.9394274 36.9930242,60.4475283 38.2038527,60.4475283 C40.3417216,60.4475283 42.2525603,61.9232255 42.2525603,64.5151551 C42.2525603,67.126004 40.2471257,68.7908931 37.4281657,68.7908931 Z M46.2487146,67.8449334 C46.2487146,69.1503578 45.5297852,70.3422671 44.4892295,71.0801157 L43.5811081,70.3422671 C44.1865224,69.9828024 44.829775,69.2071154 44.9432902,68.5638628 C44.9054518,68.582782 44.7540982,68.6206204 44.6216639,68.6206204 C43.9973304,68.6206204 43.5054314,68.1098021 43.5054314,67.4097919 C43.5054314,66.7097817 44.0730072,66.1232867 44.7919366,66.1232867 C45.5676236,66.1232867 46.2487146,66.7476201 46.2487146,67.8449334 Z M50.0178385,68.5638628 L47.5772624,68.5638628 L52.3448995,57.893437 L45.7988581,57.893437 L45.7988581,55.94476 L54.8989907,55.94476 L54.8989907,57.4772147 L50.0178385,68.5638628 Z M59.860024,68.7719739 C58.2897308,68.7719739 57.0789023,68.2043981 56.2275386,67.3719535 L57.2680943,65.6881452 C57.9302661,66.3881554 58.6491955,66.8043777 59.860024,66.8043777 C62.1492465,66.8043777 63.1898022,64.7043471 63.1898022,62.6421549 C63.1898022,62.5286397 63.1898022,62.3962053 63.170883,62.2826902 C62.6033072,63.1340539 61.2789636,64.0421753 59.7843472,64.0421753 C57.5140438,64.0421753 55.5653668,62.6610741 55.5653668,59.9745484 C55.5653668,57.6285683 57.4005287,55.7366488 60.2194887,55.7366488 C63.9276508,55.7366488 65.4222672,58.7448008 65.4222672,62.2448518 C65.4222672,65.8962563 63.5114285,68.7719739 59.860024,68.7719739 Z M60.3897614,62.1502558 C61.4681555,62.1502558 62.5087112,61.5637608 63.1519638,60.6556394 C63.0195295,59.2934574 62.2816809,57.7042451 60.3330038,57.7042451 C58.6681147,57.7042451 57.7978317,58.8772351 57.7978317,59.8988716 C57.7978317,61.4502456 59.0086602,62.1502558 60.3897614,62.1502558 Z M75.7563517,68.5638628 L66.6183807,68.5638628 L66.6183807,66.8043777 C71.5184521,63.0962155 73.4482099,61.4691648 73.4482099,59.6340029 C73.4482099,58.3096593 72.294139,57.7231643 71.1400682,57.7231643 C69.664371,57.7231643 68.5481385,58.3096593 67.7346131,59.2177806 L66.4481079,57.7799218 C67.5643404,56.4177398 69.3427447,55.755568 71.121149,55.755568 C73.5617251,55.755568 75.6806749,57.11775 75.6806749,59.6340029 C75.6806749,61.9799831 73.5428059,64.0610945 70.1751892,66.6151857 L75.7563517,66.6151857 L75.7563517,68.5638628 Z M15.593313,81.0006544 C14.9206306,81.0006544 14.5948,80.5907385 14.5948,79.8970347 L14.5948,76.2813664 L13.7539469,76.2813664 L13.7539469,75.7978759 L14.5948,75.7978759 L14.5948,74.4104683 L15.1518652,74.4104683 L15.1518652,75.7978759 L16.1819102,75.7978759 L16.1819102,76.2813664 L15.1518652,76.2813664 L15.1518652,79.8129494 C15.1518652,80.2228653 15.3200358,80.5066532 15.6773984,80.5066532 C15.9191436,80.5066532 16.1293569,80.3910359 16.2449742,80.264908 L16.4551875,80.6853345 C16.2554849,80.8745265 16.0137396,81.0006544 15.593313,81.0006544 Z M20.8276235,80.8745265 L20.281069,80.8745265 L20.281069,77.4165181 C20.281069,76.4390264 19.7870678,76.1657491 19.0513213,76.1657491 C18.3996602,76.1657491 17.7269777,76.575665 17.4011471,77.0381342 L17.4011471,80.8745265 L16.8545926,80.8745265 L16.8545926,73.8639138 L17.4011471,73.8639138 L17.4011471,76.5651544 C17.7690204,76.1237065 18.4942562,75.6717479 19.2300026,75.6717479 C20.2600477,75.6717479 20.8276235,76.1552385 20.8276235,77.3009008 L20.8276235,80.8745265 Z M22.278095,74.9990655 C22.0573711,74.9990655 21.8576685,74.8098735 21.8576685,74.5786389 C21.8576685,74.3474043 22.0573711,74.168723 22.278095,74.168723 C22.5093296,74.168723 22.6985216,74.3474043 22.6985216,74.5786389 C22.6985216,74.8098735 22.5093296,74.9990655 22.278095,74.9990655 Z M22.5513723,80.8745265 L22.0048178,80.8745265 L22.0048178,75.7978759 L22.5513723,75.7978759 L22.5513723,80.8745265 Z M25.2421022,81.0006544 C24.4222704,81.0006544 23.7916306,80.7589092 23.2871187,80.1913333 L23.6129493,79.7919281 C23.9387799,80.201844 24.5378877,80.5381852 25.2526128,80.5381852 C26.1039766,80.5381852 26.6084884,80.0967374 26.6084884,79.5081402 C26.6084884,78.1207326 23.402736,78.9090324 23.402736,77.0801769 C23.402736,76.3023878 24.0649078,75.6717479 25.2105702,75.6717479 C26.0829553,75.6717479 26.6610418,76.0080892 27.028915,76.4180051 L26.7241057,76.8068996 C26.4298072,76.4074944 25.8832526,76.1342171 25.2105702,76.1342171 C24.4222704,76.1342171 23.9492905,76.5336224 23.9492905,77.0591555 C23.9492905,78.3309459 27.1445323,77.5531567 27.1445323,79.5081402 C27.1445323,80.327972 26.5138925,81.0006544 25.2421022,81.0006544 Z M36.8143428,80.8745265 L36.2677883,80.8745265 L36.2677883,77.3219221 C36.2677883,76.607197 35.962979,76.1657491 35.2482539,76.1657491 C34.7016994,76.1657491 34.0815702,76.5651544 33.7977823,77.0276236 L33.7977823,80.8745265 L33.2407171,80.8745265 L33.2407171,77.3219221 C33.2407171,76.607197 32.9464185,76.1657491 32.2316934,76.1657491 C31.6851389,76.1657491 31.0755204,76.575665 30.7707112,77.0381342 L30.7707112,80.8745265 L30.2241566,80.8745265 L30.2241566,75.7978759 L30.7707112,75.7978759 L30.7707112,76.5651544 C30.9809244,76.2393238 31.6746282,75.6717479 32.4103747,75.6717479 C33.1986745,75.6717479 33.619101,76.1342171 33.745229,76.6282183 C34.0290169,76.1552385 34.71221,75.6717479 35.4269352,75.6717479 C36.3623842,75.6717479 36.8143428,76.1972811 36.8143428,77.2168155 L36.8143428,80.8745265 Z M40.1357124,81.0006544 C38.6537089,81.0006544 37.7077491,79.8129494 37.7077491,78.3309459 C37.7077491,76.8489423 38.6537089,75.6717479 40.1357124,75.6717479 C41.6387374,75.6717479 42.5846971,76.8489423 42.5846971,78.3309459 C42.5846971,79.8129494 41.6387374,81.0006544 40.1357124,81.0006544 Z M40.1357124,80.5066532 C41.3339281,80.5066532 41.9960999,79.4660975 41.9960999,78.3309459 C41.9960999,77.2063048 41.3339281,76.1657491 40.1357124,76.1657491 C38.9585181,76.1657491 38.2858356,77.2063048 38.2858356,78.3309459 C38.2858356,79.4660975 38.9585181,80.5066532 40.1357124,80.5066532 Z M47.4406237,80.8745265 L46.8940691,80.8745265 L46.8940691,77.4375394 C46.8940691,76.4600477 46.400068,76.1657491 45.6643215,76.1657491 C45.0126603,76.1657491 44.3399779,76.575665 44.0141473,77.0381342 L44.0141473,80.8745265 L43.4675928,80.8745265 L43.4675928,75.7978759 L44.0141473,75.7978759 L44.0141473,76.5651544 C44.3820205,76.1237065 45.1072563,75.6717479 45.8430028,75.6717479 C46.8730478,75.6717479 47.4406237,76.1762598 47.4406237,77.3219221 L47.4406237,80.8745265 Z M50.8671,81.0006544 C49.3850964,81.0006544 48.33403,79.8970347 48.33403,78.3309459 C48.33403,76.8594529 49.3640751,75.6717479 50.772504,75.6717479 C52.3175716,75.6717479 53.1689353,76.8909849 53.1689353,78.3624778 L53.1689353,78.5096271 L48.9226272,78.5096271 C48.9751805,79.6132468 49.710927,80.5276746 50.9091426,80.5276746 C51.5502931,80.5276746 52.1388903,80.2859293 52.5698275,79.8234601 L52.8536154,80.1808227 C52.3491035,80.7063558 51.7079531,81.0006544 50.8671,81.0006544 Z M52.6118701,78.0786899 C52.6013595,77.2168155 52.0337836,76.1447278 50.7619933,76.1447278 C49.5637777,76.1447278 48.9646698,77.1957942 48.9226272,78.0786899 L52.6118701,78.0786899 Z M53.7154898,82.8610419 L53.8100858,82.35653 C53.9257031,82.4090834 54.1254057,82.4406154 54.2515336,82.4406154 C54.5878749,82.4406154 54.8191095,82.3039767 55.0293227,81.8204862 L55.428728,80.9165691 L53.2740419,75.7978759 L53.8836604,75.7978759 L55.7335372,80.233376 L57.5623927,75.7978759 L58.1825218,75.7978759 L55.5548559,81.9886568 C55.2815787,82.6298073 54.8506415,82.9346165 54.2620443,82.9346165 C54.083363,82.9346165 53.8521284,82.9030846 53.7154898,82.8610419 Z M67.3688418,80.8745265 L66.8222873,80.8745265 L66.8222873,77.3219221 C66.8222873,76.607197 66.517478,76.1657491 65.8027529,76.1657491 C65.2561984,76.1657491 64.6360692,76.5651544 64.3522813,77.0276236 L64.3522813,80.8745265 L63.7952162,80.8745265 L63.7952162,77.3219221 C63.7952162,76.607197 63.5009176,76.1657491 62.7861924,76.1657491 C62.2396379,76.1657491 61.6300194,76.575665 61.3252102,77.0381342 L61.3252102,80.8745265 L60.7786557,80.8745265 L60.7786557,75.7978759 L61.3252102,75.7978759 L61.3252102,76.5651544 C61.5354235,76.2393238 62.2291273,75.6717479 62.9648737,75.6717479 C63.7531735,75.6717479 64.1736,76.1342171 64.299728,76.6282183 C64.5835159,76.1552385 65.2667091,75.6717479 65.9814342,75.6717479 C66.9168833,75.6717479 67.3688418,76.1972811 67.3688418,77.2168155 L67.3688418,80.8745265 Z M70.6902115,81.0006544 C69.2082079,81.0006544 68.2622482,79.8129494 68.2622482,78.3309459 C68.2622482,76.8489423 69.2082079,75.6717479 70.6902115,75.6717479 C72.1932364,75.6717479 73.1391961,76.8489423 73.1391961,78.3309459 C73.1391961,79.8129494 72.1932364,81.0006544 70.6902115,81.0006544 Z M70.6902115,80.5066532 C71.8884271,80.5066532 72.5505989,79.4660975 72.5505989,78.3309459 C72.5505989,77.2063048 71.8884271,76.1657491 70.6902115,76.1657491 C69.5130171,76.1657491 68.8403347,77.2063048 68.8403347,78.3309459 C68.8403347,79.4660975 69.5130171,80.5066532 70.6902115,80.5066532 Z M77.9951227,80.8745265 L77.4485682,80.8745265 L77.4485682,77.4375394 C77.4485682,76.4600477 76.954567,76.1657491 76.2188205,76.1657491 C75.5671594,76.1657491 74.8944769,76.575665 74.5686463,77.0381342 L74.5686463,80.8745265 L74.0220918,80.8745265 L74.0220918,75.7978759 L74.5686463,75.7978759 L74.5686463,76.5651544 C74.9365196,76.1237065 75.6617554,75.6717479 76.3975018,75.6717479 C77.4275468,75.6717479 77.9951227,76.1762598 77.9951227,77.3219221 L77.9951227,80.8745265 Z M80.2759367,81.0006544 C79.6032542,81.0006544 79.2774236,80.5907385 79.2774236,79.8970347 L79.2774236,76.2813664 L78.4365705,76.2813664 L78.4365705,75.7978759 L79.2774236,75.7978759 L79.2774236,74.4104683 L79.8344888,74.4104683 L79.8344888,75.7978759 L80.8645338,75.7978759 L80.8645338,76.2813664 L79.8344888,76.2813664 L79.8344888,79.8129494 C79.8344888,80.2228653 80.0026594,80.5066532 80.360022,80.5066532 C80.6017672,80.5066532 80.8119805,80.3910359 80.9275978,80.264908 L81.1378111,80.6853345 C80.9381085,80.8745265 80.6963632,81.0006544 80.2759367,81.0006544 Z M85.5102471,80.8745265 L84.9636926,80.8745265 L84.9636926,77.4165181 C84.9636926,76.4390264 84.4696914,76.1657491 83.733945,76.1657491 C83.0822838,76.1657491 82.4096013,76.575665 82.0837708,77.0381342 L82.0837708,80.8745265 L81.5372163,80.8745265 L81.5372163,73.8639138 L82.0837708,73.8639138 L82.0837708,76.5651544 C82.451644,76.1237065 83.1768798,75.6717479 83.9126262,75.6717479 C84.9426713,75.6717479 85.5102471,76.1552385 85.5102471,77.3009008 L85.5102471,80.8745265 Z M86.9922507,80.9691224 C86.7399947,80.9691224 86.5192708,80.7589092 86.5192708,80.5066532 C86.5192708,80.264908 86.7399947,80.0546947 86.9922507,80.0546947 C87.2445066,80.0546947 87.4547199,80.264908 87.4547199,80.5066532 C87.4547199,80.7589092 87.2445066,80.9691224 86.9922507,80.9691224 Z" id="At-your-current-rate" fill="#4E4B6B"></path>
                <path d="M41.201494,134.026734 C40.1672447,134.026734 39.4188855,133.656758 38.9143736,133.13543 L39.4693367,132.370253 C39.8477206,132.782271 40.4615433,133.152247 41.2435367,133.152247 C42.0507557,133.152247 42.3618713,132.757046 42.3618713,132.378662 C42.3618713,131.201467 39.0993613,131.93301 39.0993613,129.87292 C39.0993613,128.939573 39.9065803,128.224847 41.1426343,128.224847 C42.008713,128.224847 42.7234381,128.510737 43.2363585,129.015249 L42.6813955,129.746792 C42.2357433,129.301139 41.6387376,129.099335 41.0501405,129.099335 C40.4783604,129.099335 40.108385,129.385225 40.108385,129.797243 C40.108385,130.848309 43.370895,130.200852 43.370895,132.286168 C43.370895,133.219515 42.7066211,134.026734 41.201494,134.026734 Z M48.1133065,133.925831 L44.2706078,133.925831 L44.2706078,128.317341 L48.1133065,128.317341 L48.1133065,129.18342 L45.2544059,129.18342 L45.2544059,130.629687 L48.0544468,130.629687 L48.0544468,131.495766 L45.2544059,131.495766 L45.2544059,133.059753 L48.1133065,133.059753 L48.1133065,133.925831 Z M52.9650288,133.925831 L49.1223302,133.925831 L49.1223302,128.317341 L52.9650288,128.317341 L52.9650288,129.18342 L50.1061283,129.18342 L50.1061283,130.629687 L52.9061691,130.629687 L52.9061691,131.495766 L50.1061283,131.495766 L50.1061283,133.059753 L52.9650288,133.059753 L52.9650288,133.925831 Z M58.7248725,133.925831 L57.7410744,133.925831 L57.7410744,131.596668 L55.5632649,128.317341 L56.690008,128.317341 L58.2287692,130.713773 L59.7675304,128.317341 L60.8942735,128.317341 L58.7248725,131.596668 L58.7248725,133.925831 Z M63.7868082,134.026734 C62.105102,134.026734 60.9194991,132.799088 60.9194991,131.125791 C60.9194991,129.452493 62.105102,128.224847 63.7868082,128.224847 C65.4601058,128.224847 66.6541172,129.452493 66.6541172,131.125791 C66.6541172,132.799088 65.4601058,134.026734 63.7868082,134.026734 Z M63.7868082,133.152247 C64.9135513,133.152247 65.6450935,132.277759 65.6450935,131.125791 C65.6450935,129.965413 64.9135513,129.099335 63.7868082,129.099335 C62.6516565,129.099335 61.9285228,129.965413 61.9285228,131.125791 C61.9285228,132.277759 62.6516565,133.152247 63.7868082,133.152247 Z M70.0259381,134.026734 C68.4030916,134.026734 67.5958727,133.093387 67.5958727,131.705979 L67.5958727,128.317341 L68.5964878,128.317341 L68.5964878,131.680754 C68.5964878,132.572058 69.0925912,133.152247 70.0259381,133.152247 C70.959285,133.152247 71.4553884,132.572058 71.4553884,131.680754 L71.4553884,128.317341 L72.4560036,128.317341 L72.4560036,131.705979 C72.4560036,133.093387 71.6571931,134.026734 70.0259381,134.026734 Z M77.9972254,133.925831 L76.8536652,133.925831 L75.6176112,131.832107 L74.6338131,131.832107 L74.6338131,133.925831 L73.6500149,133.925831 L73.6500149,128.317341 L76.1137145,128.317341 C77.2236406,128.317341 77.9551828,129.032066 77.9551828,130.074724 C77.9551828,131.066931 77.2993174,131.613485 76.6182264,131.722796 L77.9972254,133.925831 Z M75.9875865,130.966029 C76.5425496,130.966029 76.9461591,130.61287 76.9461591,130.066316 C76.9461591,129.52817 76.5425496,129.18342 75.9875865,129.18342 L74.6338131,129.18342 L74.6338131,130.966029 L75.9875865,130.966029 Z M83.0339355,134.026734 C81.9996862,134.026734 81.2513269,133.656758 80.7468151,133.13543 L81.3017781,132.370253 C81.680162,132.782271 82.2939848,133.152247 83.0759781,133.152247 C83.8831971,133.152247 84.1943128,132.757046 84.1943128,132.378662 C84.1943128,131.201467 80.9318027,131.93301 80.9318027,129.87292 C80.9318027,128.939573 81.7390217,128.224847 82.9750758,128.224847 C83.8411545,128.224847 84.5558796,128.510737 85.0688,129.015249 L84.5138369,129.746792 C84.0681848,129.301139 83.4711791,129.099335 82.8825819,129.099335 C82.3108018,129.099335 81.9408265,129.385225 81.9408265,129.797243 C81.9408265,130.848309 85.2033365,130.200852 85.2033365,132.286168 C85.2033365,133.219515 84.5390625,134.026734 83.0339355,134.026734 Z M87.0868474,133.925831 L86.1030493,133.925831 L86.1030493,128.317341 L88.5751574,128.317341 C89.7523517,128.317341 90.3998086,129.116152 90.3998086,130.074724 C90.3998086,131.024888 89.7439432,131.823699 88.5751574,131.823699 L87.0868474,131.823699 L87.0868474,133.925831 Z M88.4406209,130.95762 C88.9955839,130.95762 89.3907849,130.604462 89.3907849,130.074724 C89.3907849,129.536578 88.9955839,129.18342 88.4406209,129.18342 L87.0868474,129.18342 L87.0868474,130.95762 L88.4406209,130.95762 Z M95.0665433,133.925831 L91.2238446,133.925831 L91.2238446,128.317341 L95.0665433,128.317341 L95.0665433,129.18342 L92.2076427,129.18342 L92.2076427,130.629687 L95.0076835,130.629687 L95.0076835,131.495766 L92.2076427,131.495766 L92.2076427,133.059753 L95.0665433,133.059753 L95.0665433,133.925831 Z M100.935698,133.925831 L99.9855339,133.925831 L97.0593651,129.914962 L97.0593651,133.925831 L96.075567,133.925831 L96.075567,128.317341 L97.0845907,128.317341 L99.9518997,132.202083 L99.9518997,128.317341 L100.935698,128.317341 L100.935698,133.925831 Z M104.223433,133.925831 L102.129709,133.925831 L102.129709,128.317341 L104.215025,128.317341 C105.972408,128.317341 107.149602,129.477719 107.149602,131.117382 C107.149602,132.773863 105.972408,133.925831 104.223433,133.925831 Z M104.215025,133.059753 C105.434262,133.059753 106.140579,132.185266 106.140579,131.117382 C106.140579,130.04109 105.467896,129.18342 104.223433,129.18342 L103.113507,129.18342 L103.113507,133.059753 L104.215025,133.059753 Z M109.083564,133.925831 L108.099766,133.925831 L108.099766,128.317341 L109.083564,128.317341 L109.083564,133.925831 Z M115.137707,133.925831 L114.187543,133.925831 L111.261374,129.914962 L111.261374,133.925831 L110.277576,133.925831 L110.277576,128.317341 L111.286599,128.317341 L114.153909,132.202083 L114.153909,128.317341 L115.137707,128.317341 L115.137707,133.925831 Z M119.030856,134.035142 C117.399601,134.035142 116.087871,132.883174 116.087871,131.125791 C116.087871,129.359999 117.399601,128.224847 119.030856,128.224847 C120.123965,128.224847 120.838691,128.746176 121.284343,129.385225 L120.485532,129.847694 C120.182825,129.427267 119.653088,129.099335 119.030856,129.099335 C117.92093,129.099335 117.096894,129.940188 117.096894,131.125791 C117.096894,132.294576 117.92093,133.152247 119.030856,133.152247 C119.602637,133.152247 120.107148,132.891582 120.359404,132.647735 L120.359404,131.781656 L118.677698,131.781656 L118.677698,130.915577 L121.334794,130.915577 L121.334794,133.009302 C120.788239,133.623124 119.997838,134.035142 119.030856,134.035142 Z M125.513834,133.925831 L124.530036,133.925831 L124.530036,128.317341 L127.002144,128.317341 C128.179338,128.317341 128.826795,129.116152 128.826795,130.074724 C128.826795,131.024888 128.17093,131.823699 127.002144,131.823699 L125.513834,131.823699 L125.513834,133.925831 Z M126.867607,130.95762 C127.42257,130.95762 127.817771,130.604462 127.817771,130.074724 C127.817771,129.536578 127.42257,129.18342 126.867607,129.18342 L125.513834,129.18342 L125.513834,130.95762 L126.867607,130.95762 Z M133.039469,133.925831 L129.583563,133.925831 L129.583563,128.317341 L130.567361,128.317341 L130.567361,133.059753 L133.039469,133.059753 L133.039469,133.925831 Z M138.959075,133.925831 L137.84074,133.925831 L137.428722,132.841131 L134.855712,132.841131 L134.443694,133.925831 L133.325359,133.925831 L135.528394,128.317341 L136.75604,128.317341 L138.959075,133.925831 Z M137.151241,131.975052 L136.142217,129.301139 L135.133193,131.975052 L137.151241,131.975052 Z M144.42462,133.925831 L143.474456,133.925831 L140.548287,129.914962 L140.548287,133.925831 L139.564489,133.925831 L139.564489,128.317341 L140.573513,128.317341 L143.440822,132.202083 L143.440822,128.317341 L144.42462,128.317341 L144.42462,133.925831 Z" id="SEE-YOUR-SPENDING-PL" fill="#13C6B9"></path>
                <path d="M0.5,115.729001 L158.159955,115.729001" id="Line-Copy-5" stroke="#000000" stroke-width="0.525533184" opacity="0.1" stroke-linecap="square"></path>
                <text id="2-minutes-ago-copy-18" opacity="0.7" font-family="Helvetica" font-size="6.30639821" font-weight="normal" fill="#B3B3B3">
                    <tspan x="13.6383296" y="99.9193736">2 minutes ago</tspan>
                </text>
            </g>
        </g>
    </g>
</svg>