<?xml version="1.0" encoding="UTF-8"?>
<svg width="88.3555556px" height="87.1203704px" viewBox="0 0 88.3555556 87.1203704" version="1.1" xmlns="http://www.w3.org/2000/svg" xmlns:xlink="http://www.w3.org/1999/xlink">
    <!-- Generator: Sketch 52.6 (67491) - http://www.bohemiancoding.com/sketch -->
    <desc>Created with Sketch.</desc>
    <defs>
        <filter x="-63.4%" y="-63.3%" width="228.8%" height="228.2%" filterUnits="objectBoundingBox" id="filter-1">
            <feOffset dx="0" dy="3" in="SourceAlpha" result="shadowOffsetOuter1"></feOffset>
            <feGaussianBlur stdDeviation="5" in="shadowOffsetOuter1" result="shadowBlurOuter1"></feGaussianBlur>
            <feColorMatrix values="0 0 0 0 0   0 0 0 0 0   0 0 0 0 0  0 0 0 0.115404212 0" type="matrix" in="shadowBlurOuter1" result="shadowMatrixOuter1"></feColorMatrix>
            <feMerge>
                <feMergeNode in="shadowMatrixOuter1"></feMergeNode>
                <feMergeNode in="SourceGraphic"></feMergeNode>
            </feMerge>
        </filter>
    </defs>
    <g id="Page-1" stroke="none" stroke-width="1" fill="none" fill-rule="evenodd">
        <g id="icon/goals/holiday">
            <g filter="url(#filter-1)" transform="translate(23.230350, 23.289839)">
                <path d="M20.1031875,40.3093363 C9.00072912,40.3093363 0,31.2857886 0,20.1546681 C0,9.02354771 9.00072912,0 20.1031875,0 C31.2058759,0 40.206375,9.02354771 40.206375,20.1546681 C40.206375,31.2857886 31.2058759,40.3093363 20.1031875,40.3093363 Z" id="Fill-1-Copy-2" fill="#FFFFFF" fill-rule="nonzero"></path>
                <g id="002-sun-umbrella" transform="translate(8.171273, 8.424931)" fill-rule="nonzero">
                    <path d="M11.849738,17.9217823 L15.9651344,7.56973029 C16.1373347,7.13656784 16.6271932,6.92533947 17.0592492,7.09798072 C17.4913052,7.27062198 17.7019941,7.76173492 17.5297938,8.19489737 L13.599551,18.0812043 L11.849738,17.9217823 Z" id="Shape" fill="#90A4AE"></path>
                    <path d="M13.4719677,8.92400762 C13.473978,8.91930486 13.4759884,8.91460211 13.4779987,8.90989935 C13.4759884,8.91012329 13.473978,8.91057117 13.4721911,8.91079512 L13.4719677,8.92400762 Z" id="Shape" fill="#FFF9C5"></path>
                    <path d="M17.0593421,7.09798072 C16.627286,6.92533947 16.1374275,7.13652129 15.9652272,7.56973029 L14.8875942,10.2804633 C15.1621676,10.3244498 15.4352552,10.399576 15.7041179,10.5070521 C15.9729807,10.6144816 16.223783,10.7482099 16.4525786,10.9047926 L17.5298866,8.19494392 C17.7020405,7.76168837 17.4913981,7.27062198 17.0593421,7.09798072 Z" id="Shape" fill="#000000" opacity="0.1"></path>
                    <path d="M18.5495315,3.34953828 L15.4442622,3.68416162 L13.4719677,5.98705355 L13.4722927,8.90938734 L13.4736855,8.90882878 C13.4735463,8.90915461 13.473407,8.90952698 13.4732213,8.90985281 C14.3345477,8.74949985 15.2935579,8.83360951 16.2218331,9.20453919 C17.1442119,9.57309499 17.8940654,10.1682395 18.4089949,10.8726289 L18.4180018,10.8891064 L20.040278,9.27878098 L20.2212531,5.26050802 L18.5495315,3.34953828 Z" id="Shape" fill="#FFF9C5"></path>
                    <path d="M21.4315764,19.7422189 C20.3015266,17.9312312 16.4742139,16.5985096 11.9266222,16.5985096 C7.37916979,16.5985096 3.55199645,17.9311381 2.42180732,19.7420327 L3.05670591,19.7422189 L4.43454031,20.6280934 L5.88331621,20.7859794 L6.90435386,20.1945586 L8.52505148,19.6019275 L9.39478129,19.83871 L11.2450638,20.7859794 L12.4654619,20.5886219 L14.0401497,19.9995749 L15.1818065,19.641399 L16.6383822,19.9995749 L17.8194097,20.7859794 L19.7090629,20.5491969 L21.4315764,19.7422189 Z" id="Shape" fill="#FFCA28"></path>
                    <path d="M19.8417068,20.4870572 L21.4316228,19.7422189 C20.301573,17.9312778 16.4742604,16.5985096 11.9266687,16.5985096 C10.8810708,16.5985096 9.87377572,16.6691208 8.9284152,16.7995908 C13.6195613,17.3389726 17.543165,18.6915696 19.8417068,20.4870572 Z" id="Shape" fill="#000000" opacity="0.1"></path>
                    <path d="M23.6175775,19.936644 C22.5008524,19.1773296 21.0576478,19.1773296 19.9409227,19.936644 C19.0626038,20.5338366 17.9275862,20.5338366 17.0491744,19.936644 C15.9324493,19.1773296 14.4892447,19.1773296 13.3725196,19.936644 C12.4942007,20.5338366 11.3591366,20.5338366 10.4807713,19.936644 C9.36404617,19.1773296 7.92084159,19.1773296 6.80411648,19.936644 C5.92575112,20.5338366 4.79073351,20.5338366 3.91236814,19.936644 C2.79564304,19.1773296 1.35243846,19.1773296 0.235713356,19.936644 C0.0759092646,20.0452837 0.0342172037,20.2632613 0.14257942,20.4234746 C0.250941636,20.5836879 0.468408912,20.6254402 0.628166575,20.5168471 C1.50648552,19.9196545 2.64154955,19.9196079 3.51991492,20.5168471 C4.63668645,21.2761148 6.07989103,21.2761148 7.1965697,20.5168471 C8.07488864,19.9196545 9.20995268,19.9196079 10.088318,20.5168471 C11.2050896,21.2761148 12.6482942,21.2761148 13.7649728,20.5168471 C14.6432918,19.9196545 15.7783558,19.9196079 16.6567212,20.5168471 C17.2151069,20.8964809 17.8551126,21.0862979 18.4950718,21.0862979 C19.135031,21.0862979 19.7750366,20.8964809 20.333376,20.5168471 C21.2116949,19.9196545 22.3467589,19.9196545 23.2251243,20.5168471 C23.3849748,20.6255333 23.6023492,20.5836879 23.7107115,20.4234746 C23.8190737,20.2633078 23.7773816,20.0453302 23.6175775,19.936644 Z" id="Shape" fill="#1EB8E8"></path>
                    <g id="Group" transform="translate(8.496266, 2.792795)" fill="#EF495B">
                        <path d="M4.9760264,6.11663923 C4.46077195,5.406385 3.70697206,4.80607378 2.77874336,4.43514411 C1.85005038,4.06402824 0.890482994,3.98001167 0.0289244476,4.14064391 C0.0289244476,4.14064391 4.20955175,-1.77826545 10.0533116,0.556790162 C10.0533116,0.556790162 6.98875939,1.37856999 4.97574783,6.12008367 L4.9760264,6.11663923 Z" id="Shape"></path>
                        <path d="M9.92387119,8.09370511 C10.7851976,7.93344525 11.7442079,8.01755491 12.672483,8.38848459 C13.601176,8.75960045 14.3553473,9.36028404 14.8704624,10.0710503 C14.8704624,10.0710503 15.8969785,2.89179923 10.0532187,0.556697069 C10.0532187,0.556697069 11.7137977,3.26654573 9.92178194,8.09631172 L9.92387119,8.09370511 Z" id="Shape"></path>
                    </g>
                    <ellipse id="Oval" fill="#FFCA28" cx="3.97862045" cy="4.03489009" rx="1.90469577" ry="1.90957335"></ellipse>
                    <g id="Group" fill="#FF9800">
                        <path d="M3.97866687,1.4519274 C3.78557413,1.4519274 3.62906641,1.29497234 3.62906641,1.10143167 L3.62906641,0.396344109 C3.62906641,0.202756892 3.78562056,0.045848379 3.97866687,0.045848379 C4.17171319,0.045848379 4.32826734,0.202803439 4.32826734,0.396344109 L4.32826734,1.10143167 C4.32826734,1.29501888 4.17171319,1.4519274 3.97866687,1.4519274 Z" id="Shape"></path>
                        <path d="M6.04743808,2.31108413 C5.95797193,2.31108413 5.86850578,2.27687239 5.80025708,2.20840238 C5.66371326,2.07150889 5.66371326,1.84957481 5.80025708,1.71268133 L6.29754402,1.21412093 C6.43408784,1.07722745 6.65545504,1.07722745 6.79195243,1.21412093 C6.92849625,1.35101442 6.92849625,1.5729485 6.79195243,1.70984198 L6.2946655,2.20840238 C6.22637038,2.27687239 6.13690423,2.31108413 6.04743808,2.31108413 Z" id="Shape"></path>
                        <path d="M7.60764042,4.38519963 L6.90440028,4.38519963 C6.71130754,4.38519963 6.55479982,4.22824457 6.55479982,4.0347039 C6.55479982,3.84116323 6.71135397,3.68420817 6.90440028,3.68420817 L7.60764042,3.68420817 C7.80073317,3.68420817 7.95724089,3.84116323 7.95724089,4.0347039 C7.95724089,4.22824457 7.80073317,4.38519963 7.60764042,4.38519963 Z" id="Shape"></path>
                        <path d="M6.54472501,6.95787552 C6.45525886,6.95787552 6.36574628,6.92366379 6.29754402,6.85519377 L5.80025708,6.35663338 C5.66371326,6.2197399 5.66371326,5.99780581 5.80025708,5.86091233 C5.93680091,5.72401884 6.15816811,5.72401884 6.2946655,5.86091233 L6.79195243,6.35947272 C6.92849625,6.49636621 6.92849625,6.71830029 6.79195243,6.85519377 C6.72365731,6.92361724 6.63423759,6.95787552 6.54472501,6.95787552 Z" id="Shape"></path>
                        <path d="M3.97866687,8.02346633 C3.78557413,8.02346633 3.62906641,7.86651127 3.62906641,7.6729706 L3.62906641,6.96788304 C3.62906641,6.77429582 3.78562056,6.61738731 3.97866687,6.61738731 C4.17171319,6.61738731 4.32826734,6.77434237 4.32826734,6.96788304 L4.32826734,7.6729706 C4.32826734,7.86660436 4.17171319,8.02346633 3.97866687,8.02346633 Z" id="Shape"></path>
                        <path d="M1.41251588,6.95787552 C1.32304973,6.95787552 1.23358358,6.92366379 1.16533489,6.85519377 C1.02879107,6.71830029 1.02879107,6.49636621 1.16533489,6.35947272 L1.66257539,5.86091233 C1.79911921,5.72401884 2.02048641,5.72401884 2.15698381,5.86091233 C2.29352763,5.99780581 2.29352763,6.2197399 2.15698381,6.35663338 L1.6597433,6.85519377 C1.59149461,6.92361724 1.50202846,6.95787552 1.41251588,6.95787552 Z" id="Shape"></path>
                        <path d="M1.05288703,4.38519963 L0.349600466,4.38519963 C0.156507725,4.38519963 0,4.22824457 0,4.0347039 C0,3.84116323 0.156554153,3.68420817 0.349600466,3.68420817 L1.05288703,3.68420817 C1.24597978,3.68420817 1.4024875,3.84116323 1.4024875,4.0347039 C1.4024875,4.22824457 1.24597978,4.38519963 1.05288703,4.38519963 Z" id="Shape"></path>
                        <path d="M1.90980281,2.31108413 C1.82033666,2.31108413 1.73087052,2.27687239 1.66262182,2.20840238 L1.16533489,1.70988853 C1.02879107,1.57299505 1.02879107,1.35106096 1.16533489,1.21416748 C1.30187871,1.07727399 1.52324591,1.07727399 1.6597433,1.21416748 L2.15698381,1.71272787 C2.29352763,1.84962136 2.29352763,2.07155544 2.15698381,2.20844892 C2.08878154,2.27687239 1.99926896,2.31108413 1.90980281,2.31108413 Z" id="Shape"></path>
                    </g>
                </g>
            </g>
        </g>
    </g>
</svg>