<?xml version="1.0" encoding="UTF-8"?>
<svg width="221px" height="222px" viewBox="0 0 221 222" version="1.1" xmlns="http://www.w3.org/2000/svg" xmlns:xlink="http://www.w3.org/1999/xlink">
    <!-- Generator: Sketch 52.6 (67491) - http://www.bohemiancoding.com/sketch -->
    <desc>Created with Sketch.</desc>
    <defs>
        <rect id="path-1" x="0.5" y="0.1" width="163" height="162" rx="1.05106637"></rect>
        <filter x="-18.4%" y="-14.8%" width="136.8%" height="137.0%" filterUnits="objectBoundingBox" id="filter-2">
            <feOffset dx="0" dy="6" in="SourceAlpha" result="shadowOffsetOuter1"></feOffset>
            <feGaussianBlur stdDeviation="9" in="shadowOffsetOuter1" result="shadowBlurOuter1"></feGaussianBlur>
            <feColorMatrix values="0 0 0 0 0   0 0 0 0 0   0 0 0 0 0  0 0 0 0.10377038 0" type="matrix" in="shadowBlurOuter1"></feColorMatrix>
        </filter>
        <linearGradient x1="109.692766%" y1="3.1207851%" x2="16.2006672%" y2="70.4938757%" id="linearGradient-3">
            <stop stop-color="#C9FAFE" offset="0%"></stop>
            <stop stop-color="#53D9F1" offset="100%"></stop>
        </linearGradient>
        <path d="M41.5537866,20.5324593 C41.5537866,31.8721259 32.251556,41.0649186 20.7768933,41.0649186 C9.30223068,41.0649186 0,31.8721259 0,20.5324593 C0,9.19279267 9.30223068,0 20.7768933,0 C32.251556,0 41.5537866,9.19279267 41.5537866,20.5324593 Z" id="path-4"></path>
        <linearGradient x1="126.189809%" y1="26.7983544%" x2="-17.5949777%" y2="72.1532116%" id="linearGradient-5">
            <stop stop-color="#F39083" offset="0%"></stop>
            <stop stop-color="#E2574C" offset="100%"></stop>
        </linearGradient>
    </defs>
    <g id="Page-1" stroke="none" stroke-width="1" fill="none" fill-rule="evenodd">
        <g id="card/nudge/hey-lookie">
            <g transform="translate(31.000000, 20.000000)">
                <g id="Mask" fill-rule="nonzero">
                    <use fill="black" fill-opacity="1" filter="url(#filter-2)" xlink:href="#path-1"></use>
                    <use fill="#FFFFFF" xlink:href="#path-1"></use>
                </g>
                <path d="M25.144,75.1 L24.688,75.1 L24.688,69.764 L25.144,69.764 L25.144,75.1 Z M29.48,75.1 L29.064,75.1 L29.064,72.484 C29.064,71.74 28.688,71.516 28.128,71.516 C27.632,71.516 27.12,71.828 26.872,72.18 L26.872,75.1 L26.456,75.1 L26.456,71.236 L26.872,71.236 L26.872,71.82 C27.152,71.484 27.704,71.14 28.264,71.14 C29.048,71.14 29.48,71.524 29.48,72.396 L29.48,75.1 Z M33.688,75.196 C33.176,75.196 32.928,74.884 32.928,74.356 L32.928,71.604 L32.288,71.604 L32.288,71.236 L32.928,71.236 L32.928,70.18 L33.352,70.18 L33.352,71.236 L34.136,71.236 L34.136,71.604 L33.352,71.604 L33.352,74.292 C33.352,74.604 33.48,74.82 33.752,74.82 C33.936,74.82 34.096,74.732 34.184,74.636 L34.344,74.956 C34.192,75.1 34.008,75.196 33.688,75.196 Z M38.072,75.1 L37.656,75.1 L37.656,72.468 C37.656,71.724 37.28,71.516 36.72,71.516 C36.224,71.516 35.712,71.828 35.464,72.18 L35.464,75.1 L35.048,75.1 L35.048,69.764 L35.464,69.764 L35.464,71.82 C35.744,71.484 36.296,71.14 36.856,71.14 C37.64,71.14 38.072,71.508 38.072,72.38 L38.072,75.1 Z M41.08,75.196 C39.952,75.196 39.152,74.356 39.152,73.164 C39.152,72.044 39.936,71.14 41.008,71.14 C42.184,71.14 42.832,72.068 42.832,73.188 L42.832,73.3 L39.6,73.3 C39.64,74.14 40.2,74.836 41.112,74.836 C41.6,74.836 42.048,74.652 42.376,74.3 L42.592,74.572 C42.208,74.972 41.72,75.196 41.08,75.196 Z M42.408,72.972 C42.4,72.316 41.968,71.5 41,71.5 C40.088,71.5 39.632,72.3 39.6,72.972 L42.408,72.972 Z M46.392,75.1 L45.976,75.1 L45.976,69.764 L46.392,69.764 L46.392,75.1 Z M50.56,75.1 L50.144,75.1 L50.144,74.644 C49.8,75.02 49.368,75.196 48.832,75.196 C48.168,75.196 47.48,74.74 47.48,73.908 C47.48,73.068 48.16,72.628 48.832,72.628 C49.368,72.628 49.808,72.804 50.144,73.18 L50.144,72.396 C50.144,71.82 49.68,71.508 49.112,71.508 C48.624,71.508 48.248,71.676 47.896,72.076 L47.664,71.788 C48.064,71.356 48.512,71.14 49.152,71.14 C49.936,71.14 50.56,71.516 50.56,72.38 L50.56,75.1 Z M48.976,74.868 C49.44,74.868 49.872,74.692 50.144,74.34 L50.144,73.492 C49.872,73.132 49.44,72.956 48.976,72.956 C48.344,72.956 47.92,73.364 47.92,73.916 C47.92,74.46 48.344,74.868 48.976,74.868 Z M53.008,75.196 C52.384,75.196 51.904,75.012 51.52,74.58 L51.768,74.276 C52.016,74.588 52.472,74.844 53.016,74.844 C53.664,74.844 54.048,74.508 54.048,74.06 C54.048,73.004 51.608,73.604 51.608,72.212 C51.608,71.62 52.112,71.14 52.984,71.14 C53.648,71.14 54.088,71.396 54.368,71.708 L54.136,72.004 C53.912,71.7 53.496,71.492 52.984,71.492 C52.384,71.492 52.024,71.796 52.024,72.196 C52.024,73.164 54.456,72.572 54.456,74.06 C54.456,74.684 53.976,75.196 53.008,75.196 Z M56.368,75.196 C55.856,75.196 55.608,74.884 55.608,74.356 L55.608,71.604 L54.968,71.604 L54.968,71.236 L55.608,71.236 L55.608,70.18 L56.032,70.18 L56.032,71.236 L56.816,71.236 L56.816,71.604 L56.032,71.604 L56.032,74.292 C56.032,74.604 56.16,74.82 56.432,74.82 C56.616,74.82 56.776,74.732 56.864,74.636 L57.024,74.956 C56.872,75.1 56.688,75.196 56.368,75.196 Z M59.544,76.612 L59.616,76.228 C59.704,76.268 59.856,76.292 59.952,76.292 C60.208,76.292 60.384,76.188 60.544,75.82 L60.848,75.132 L59.208,71.236 L59.672,71.236 L61.08,74.612 L62.472,71.236 L62.944,71.236 L60.944,75.948 C60.736,76.436 60.408,76.668 59.96,76.668 C59.824,76.668 59.648,76.644 59.544,76.612 Z M65.36,75.196 C64.232,75.196 63.432,74.356 63.432,73.164 C63.432,72.044 64.216,71.14 65.288,71.14 C66.464,71.14 67.112,72.068 67.112,73.188 L67.112,73.3 L63.88,73.3 C63.92,74.14 64.48,74.836 65.392,74.836 C65.88,74.836 66.328,74.652 66.656,74.3 L66.872,74.572 C66.488,74.972 66,75.196 65.36,75.196 Z M66.688,72.972 C66.68,72.316 66.248,71.5 65.28,71.5 C64.368,71.5 63.912,72.3 63.88,72.972 L66.688,72.972 Z M71.056,75.1 L70.64,75.1 L70.64,74.644 C70.296,75.02 69.864,75.196 69.328,75.196 C68.664,75.196 67.976,74.74 67.976,73.908 C67.976,73.068 68.656,72.628 69.328,72.628 C69.864,72.628 70.304,72.804 70.64,73.18 L70.64,72.396 C70.64,71.82 70.176,71.508 69.608,71.508 C69.12,71.508 68.744,71.676 68.392,72.076 L68.16,71.788 C68.56,71.356 69.008,71.14 69.648,71.14 C70.432,71.14 71.056,71.516 71.056,72.38 L71.056,75.1 Z M69.472,74.868 C69.936,74.868 70.368,74.692 70.64,74.34 L70.64,73.492 C70.368,73.132 69.936,72.956 69.472,72.956 C68.84,72.956 68.416,73.364 68.416,73.916 C68.416,74.46 68.84,74.868 69.472,74.868 Z M72.768,75.1 L72.352,75.1 L72.352,71.236 L72.768,71.236 L72.768,71.9 C73.096,71.468 73.536,71.156 74.072,71.156 L74.072,71.612 C74,71.596 73.944,71.596 73.864,71.596 C73.472,71.596 72.944,71.948 72.768,72.284 L72.768,75.1 Z M75.512,74.988 C75.512,75.436 75.248,75.86 74.936,76.076 L74.704,75.884 C74.96,75.708 75.152,75.396 75.168,75.148 C75.168,75.148 75.112,75.156 75.088,75.156 C74.896,75.156 74.76,75.012 74.76,74.82 C74.76,74.636 74.912,74.476 75.104,74.476 C75.32,74.476 75.512,74.66 75.512,74.988 Z M78.44,76.604 L78.584,75.7 C78.672,75.74 78.808,75.764 78.904,75.764 C79.168,75.764 79.344,75.692 79.44,75.484 L79.584,75.148 L78.016,71.236 L79.104,71.236 L80.112,73.924 L81.128,71.236 L82.216,71.236 L80.4,75.732 C80.112,76.46 79.6,76.652 78.936,76.668 C78.824,76.668 78.56,76.644 78.44,76.604 Z M84.464,75.196 C83.192,75.196 82.424,74.26 82.424,73.164 C82.424,72.068 83.192,71.14 84.464,71.14 C85.744,71.14 86.512,72.068 86.512,73.164 C86.512,74.26 85.744,75.196 84.464,75.196 Z M84.464,74.292 C85.104,74.292 85.456,73.772 85.456,73.164 C85.456,72.564 85.104,72.044 84.464,72.044 C83.832,72.044 83.48,72.564 83.48,73.164 C83.48,73.772 83.832,74.292 84.464,74.292 Z M90.896,75.1 L89.88,75.1 L89.88,74.612 C89.616,74.9 89.152,75.196 88.52,75.196 C87.672,75.196 87.272,74.732 87.272,73.98 L87.272,71.236 L88.288,71.236 L88.288,73.58 C88.288,74.116 88.568,74.292 89,74.292 C89.392,74.292 89.704,74.076 89.88,73.852 L89.88,71.236 L90.896,71.236 L90.896,75.1 Z M97.736,75.1 L96.464,75.1 L95.44,73.612 L94.976,74.108 L94.976,75.1 L93.96,75.1 L93.96,69.764 L94.976,69.764 L94.976,72.956 L96.44,71.236 L97.688,71.236 L96.16,72.988 L97.736,75.1 Z M100.064,75.196 C98.888,75.196 98,74.404 98,73.164 C98,72.044 98.832,71.14 100,71.14 C101.16,71.14 101.936,72.004 101.936,73.26 L101.936,73.5 L99.064,73.5 C99.136,73.972 99.52,74.364 100.176,74.364 C100.504,74.364 100.952,74.228 101.2,73.988 L101.656,74.66 C101.272,75.012 100.664,75.196 100.064,75.196 Z M100.96,72.796 C100.928,72.428 100.672,71.972 100,71.972 C99.368,71.972 99.096,72.412 99.056,72.796 L100.96,72.796 Z M104.88,75.196 C104.424,75.196 104.008,75.004 103.688,74.604 L103.688,76.572 L102.672,76.572 L102.672,71.236 L103.688,71.236 L103.688,71.724 C103.984,71.348 104.408,71.14 104.88,71.14 C105.872,71.14 106.592,71.876 106.592,73.164 C106.592,74.452 105.872,75.196 104.88,75.196 Z M104.56,74.292 C105.144,74.292 105.544,73.836 105.544,73.164 C105.544,72.5 105.144,72.044 104.56,72.044 C104.232,72.044 103.864,72.228 103.688,72.484 L103.688,73.844 C103.856,74.092 104.232,74.292 104.56,74.292 Z M108.632,75.196 C107.92,75.196 107.544,74.828 107.544,74.132 L107.544,72.124 L106.904,72.124 L106.904,71.236 L107.544,71.236 L107.544,70.18 L108.56,70.18 L108.56,71.236 L109.344,71.236 L109.344,72.124 L108.56,72.124 L108.56,73.86 C108.56,74.108 108.688,74.292 108.912,74.292 C109.064,74.292 109.208,74.236 109.264,74.172 L109.48,74.948 C109.328,75.084 109.056,75.196 108.632,75.196 Z M113.856,75.196 C112.88,75.196 112.144,74.82 111.752,74.34 L112.352,73.58 C112.712,73.964 113.296,74.188 113.816,74.188 C114.464,74.188 114.824,73.908 114.824,73.508 C114.824,73.084 114.496,72.892 113.752,72.892 C113.528,72.892 113.168,72.9 113.088,72.908 L113.088,71.884 C113.184,71.892 113.552,71.892 113.752,71.892 C114.344,71.892 114.744,71.716 114.744,71.324 C114.744,70.9 114.304,70.692 113.752,70.692 C113.232,70.692 112.768,70.884 112.392,71.244 L111.824,70.532 C112.256,70.044 112.928,69.684 113.864,69.684 C115.112,69.684 115.88,70.244 115.88,71.132 C115.88,71.804 115.304,72.244 114.712,72.348 C115.256,72.404 115.96,72.828 115.96,73.628 C115.96,74.548 115.136,75.196 113.856,75.196 Z M118.864,75.196 C117.24,75.196 116.56,73.948 116.56,72.444 C116.56,70.828 117.472,69.684 119.048,69.684 C119.696,69.684 120.24,69.9 120.624,70.236 L120.112,71.108 C119.824,70.836 119.52,70.692 119.048,70.692 C118.264,70.692 117.712,71.356 117.712,72.204 C117.712,72.244 117.712,72.276 117.72,72.316 C117.968,71.956 118.504,71.628 119.088,71.628 C120.048,71.628 120.912,72.228 120.912,73.364 C120.912,74.404 120.08,75.196 118.864,75.196 Z M118.8,74.188 C119.416,74.188 119.752,73.772 119.752,73.404 C119.752,72.844 119.272,72.604 118.768,72.604 C118.368,72.604 117.976,72.788 117.72,73.108 C117.768,73.62 118.056,74.188 118.8,74.188 Z M122.712,72.34 C121.896,72.34 121.36,71.764 121.36,71.02 C121.36,70.268 121.896,69.684 122.712,69.684 C123.536,69.684 124.072,70.268 124.072,71.02 C124.072,71.764 123.536,72.34 122.712,72.34 Z M122.792,75.1 L122.192,75.1 L125.6,69.764 L126.208,69.764 L122.792,75.1 Z M125.648,75.196 C124.832,75.196 124.296,74.62 124.296,73.876 C124.296,73.124 124.832,72.532 125.648,72.532 C126.464,72.532 127.008,73.124 127.008,73.876 C127.008,74.62 126.464,75.196 125.648,75.196 Z M122.712,71.716 C123.08,71.716 123.352,71.444 123.352,71.02 C123.352,70.58 123.08,70.308 122.712,70.308 C122.352,70.308 122.08,70.58 122.08,71.02 C122.08,71.444 122.352,71.716 122.712,71.716 Z M125.648,74.572 C126.016,74.572 126.288,74.308 126.288,73.876 C126.288,73.436 126.016,73.164 125.648,73.164 C125.28,73.164 125.016,73.436 125.016,73.876 C125.016,74.308 125.28,74.572 125.648,74.572 Z M131.568,75.196 C130.44,75.196 129.72,74.292 129.72,73.164 C129.72,72.036 130.44,71.14 131.568,71.14 C132.712,71.14 133.432,72.036 133.432,73.164 C133.432,74.292 132.712,75.196 131.568,75.196 Z M131.568,74.82 C132.48,74.82 132.984,74.028 132.984,73.164 C132.984,72.308 132.48,71.516 131.568,71.516 C130.672,71.516 130.16,72.308 130.16,73.164 C130.16,74.028 130.672,74.82 131.568,74.82 Z M135.064,75.1 L134.64,75.1 L134.64,71.604 L134,71.604 L134,71.236 L134.64,71.236 L134.64,70.884 C134.64,70.132 135.04,69.684 135.688,69.684 C135.96,69.684 136.176,69.74 136.424,69.956 L136.224,70.26 C136.096,70.14 135.936,70.06 135.728,70.06 C135.288,70.06 135.064,70.364 135.064,70.884 L135.064,71.236 L135.848,71.236 L135.848,71.604 L135.064,71.604 L135.064,75.1 Z M21.976,86.612 L22.048,86.228 C22.136,86.268 22.288,86.292 22.384,86.292 C22.64,86.292 22.816,86.188 22.976,85.82 L23.28,85.132 L21.64,81.236 L22.104,81.236 L23.512,84.612 L24.904,81.236 L25.376,81.236 L23.376,85.948 C23.168,86.436 22.84,86.668 22.392,86.668 C22.256,86.668 22.08,86.644 21.976,86.612 Z M27.712,85.196 C26.584,85.196 25.864,84.292 25.864,83.164 C25.864,82.036 26.584,81.14 27.712,81.14 C28.856,81.14 29.576,82.036 29.576,83.164 C29.576,84.292 28.856,85.196 27.712,85.196 Z M27.712,84.82 C28.624,84.82 29.128,84.028 29.128,83.164 C29.128,82.308 28.624,81.516 27.712,81.516 C26.816,81.516 26.304,82.308 26.304,83.164 C26.304,84.028 26.816,84.82 27.712,84.82 Z M33.672,85.1 L33.256,85.1 L33.256,84.532 C32.944,84.884 32.424,85.196 31.864,85.196 C31.08,85.196 30.648,84.828 30.648,83.956 L30.648,81.236 L31.064,81.236 L31.064,83.86 C31.064,84.612 31.44,84.82 32,84.82 C32.496,84.82 33,84.524 33.256,84.18 L33.256,81.236 L33.672,81.236 L33.672,85.1 Z M35.384,85.1 L34.968,85.1 L34.968,81.236 L35.384,81.236 L35.384,81.9 C35.712,81.468 36.152,81.156 36.688,81.156 L36.688,81.612 C36.616,81.596 36.56,81.596 36.48,81.596 C36.088,81.596 35.56,81.948 35.384,82.284 L35.384,85.1 Z M39.784,80.628 C39.616,80.628 39.464,80.484 39.464,80.308 C39.464,80.132 39.616,79.996 39.784,79.996 C39.96,79.996 40.104,80.132 40.104,80.308 C40.104,80.484 39.96,80.628 39.784,80.628 Z M39.992,85.1 L39.576,85.1 L39.576,81.236 L39.992,81.236 L39.992,85.1 Z M44.312,85.1 L43.896,85.1 L43.896,82.484 C43.896,81.74 43.52,81.516 42.96,81.516 C42.464,81.516 41.952,81.828 41.704,82.18 L41.704,85.1 L41.288,85.1 L41.288,81.236 L41.704,81.236 L41.704,81.82 C41.984,81.484 42.536,81.14 43.096,81.14 C43.88,81.14 44.312,81.524 44.312,82.396 L44.312,85.1 Z M47.264,85.196 C46.128,85.196 45.392,84.292 45.392,83.164 C45.392,82.036 46.128,81.14 47.264,81.14 C47.936,81.14 48.32,81.404 48.632,81.796 L48.344,82.052 C48.064,81.668 47.712,81.516 47.288,81.516 C46.384,81.516 45.832,82.236 45.832,83.164 C45.832,84.092 46.384,84.82 47.288,84.82 C47.712,84.82 48.064,84.66 48.344,84.276 L48.632,84.532 C48.32,84.932 47.936,85.196 47.264,85.196 Z M51.192,85.196 C50.064,85.196 49.344,84.292 49.344,83.164 C49.344,82.036 50.064,81.14 51.192,81.14 C52.336,81.14 53.056,82.036 53.056,83.164 C53.056,84.292 52.336,85.196 51.192,85.196 Z M51.192,84.82 C52.104,84.82 52.608,84.028 52.608,83.164 C52.608,82.308 52.104,81.516 51.192,81.516 C50.296,81.516 49.784,82.308 49.784,83.164 C49.784,84.028 50.296,84.82 51.192,84.82 Z M59.144,85.1 L58.728,85.1 L58.728,82.396 C58.728,81.852 58.496,81.516 57.952,81.516 C57.536,81.516 57.064,81.82 56.848,82.172 L56.848,85.1 L56.424,85.1 L56.424,82.396 C56.424,81.852 56.2,81.516 55.656,81.516 C55.24,81.516 54.776,81.828 54.544,82.18 L54.544,85.1 L54.128,85.1 L54.128,81.236 L54.544,81.236 L54.544,81.82 C54.704,81.572 55.232,81.14 55.792,81.14 C56.392,81.14 56.712,81.492 56.808,81.868 C57.024,81.508 57.544,81.14 58.088,81.14 C58.8,81.14 59.144,81.54 59.144,82.316 L59.144,85.1 Z M62.152,85.196 C61.024,85.196 60.224,84.356 60.224,83.164 C60.224,82.044 61.008,81.14 62.08,81.14 C63.256,81.14 63.904,82.068 63.904,83.188 L63.904,83.3 L60.672,83.3 C60.712,84.14 61.272,84.836 62.184,84.836 C62.672,84.836 63.12,84.652 63.448,84.3 L63.664,84.572 C63.28,84.972 62.792,85.196 62.152,85.196 Z M63.48,82.972 C63.472,82.316 63.04,81.5 62.072,81.5 C61.16,81.5 60.704,82.3 60.672,82.972 L63.48,82.972 Z M67.608,85.1 L67.184,85.1 L67.184,81.604 L66.544,81.604 L66.544,81.236 L67.184,81.236 L67.184,80.884 C67.184,80.132 67.584,79.684 68.232,79.684 C68.504,79.684 68.72,79.74 68.968,79.956 L68.768,80.26 C68.64,80.14 68.48,80.06 68.272,80.06 C67.832,80.06 67.608,80.364 67.608,80.884 L67.608,81.236 L68.392,81.236 L68.392,81.604 L67.608,81.604 L67.608,85.1 Z M70.8,85.196 C69.672,85.196 68.952,84.292 68.952,83.164 C68.952,82.036 69.672,81.14 70.8,81.14 C71.944,81.14 72.664,82.036 72.664,83.164 C72.664,84.292 71.944,85.196 70.8,85.196 Z M70.8,84.82 C71.712,84.82 72.216,84.028 72.216,83.164 C72.216,82.308 71.712,81.516 70.8,81.516 C69.904,81.516 69.392,82.308 69.392,83.164 C69.392,84.028 69.904,84.82 70.8,84.82 Z M74.152,85.1 L73.736,85.1 L73.736,81.236 L74.152,81.236 L74.152,81.9 C74.48,81.468 74.92,81.156 75.456,81.156 L75.456,81.612 C75.384,81.596 75.328,81.596 75.248,81.596 C74.856,81.596 74.328,81.948 74.152,82.284 L74.152,85.1 Z M78.688,80.82 C78.36,80.82 78.088,80.548 78.088,80.212 C78.088,79.876 78.36,79.612 78.688,79.612 C79.024,79.612 79.296,79.876 79.296,80.212 C79.296,80.548 79.024,80.82 78.688,80.82 Z M79.2,85.1 L78.184,85.1 L78.184,81.236 L79.2,81.236 L79.2,85.1 Z M83.84,85.1 L82.816,85.1 L82.816,82.764 C82.816,82.228 82.536,82.044 82.104,82.044 C81.704,82.044 81.4,82.268 81.224,82.492 L81.224,85.1 L80.208,85.1 L80.208,81.236 L81.224,81.236 L81.224,81.732 C81.472,81.444 81.952,81.14 82.576,81.14 C83.432,81.14 83.84,81.62 83.84,82.372 L83.84,85.1 Z M86.936,85.1 L85.84,85.1 L84.288,81.236 L85.376,81.236 L86.384,83.924 L87.4,81.236 L88.488,81.236 L86.936,85.1 Z M90.76,85.196 C89.584,85.196 88.696,84.404 88.696,83.164 C88.696,82.044 89.528,81.14 90.696,81.14 C91.856,81.14 92.632,82.004 92.632,83.26 L92.632,83.5 L89.76,83.5 C89.832,83.972 90.216,84.364 90.872,84.364 C91.2,84.364 91.648,84.228 91.896,83.988 L92.352,84.66 C91.968,85.012 91.36,85.196 90.76,85.196 Z M91.656,82.796 C91.624,82.428 91.368,81.972 90.696,81.972 C90.064,81.972 89.792,82.412 89.752,82.796 L91.656,82.796 Z M94.76,85.196 C94.088,85.196 93.44,84.972 93.032,84.596 L93.472,83.86 C93.76,84.132 94.328,84.396 94.808,84.396 C95.248,84.396 95.456,84.228 95.456,83.988 C95.456,83.356 93.168,83.876 93.168,82.356 C93.168,81.708 93.728,81.14 94.752,81.14 C95.4,81.14 95.92,81.364 96.304,81.668 L95.896,82.388 C95.664,82.148 95.224,81.94 94.752,81.94 C94.384,81.94 94.144,82.1 94.144,82.316 C94.144,82.884 96.44,82.404 96.44,83.964 C96.44,84.676 95.832,85.196 94.76,85.196 Z M98.48,85.196 C97.768,85.196 97.392,84.828 97.392,84.132 L97.392,82.124 L96.752,82.124 L96.752,81.236 L97.392,81.236 L97.392,80.18 L98.408,80.18 L98.408,81.236 L99.192,81.236 L99.192,82.124 L98.408,82.124 L98.408,83.86 C98.408,84.108 98.536,84.292 98.76,84.292 C98.912,84.292 99.056,84.236 99.112,84.172 L99.328,84.948 C99.176,85.084 98.904,85.196 98.48,85.196 Z M100.392,80.82 C100.064,80.82 99.792,80.548 99.792,80.212 C99.792,79.876 100.064,79.612 100.392,79.612 C100.728,79.612 101,79.876 101,80.212 C101,80.548 100.728,80.82 100.392,80.82 Z M100.904,85.1 L99.888,85.1 L99.888,81.236 L100.904,81.236 L100.904,85.1 Z M105.544,85.1 L104.52,85.1 L104.52,82.764 C104.52,82.228 104.24,82.044 103.808,82.044 C103.408,82.044 103.104,82.268 102.928,82.492 L102.928,85.1 L101.912,85.1 L101.912,81.236 L102.928,81.236 L102.928,81.732 C103.176,81.444 103.656,81.14 104.28,81.14 C105.136,81.14 105.544,81.62 105.544,82.372 L105.544,85.1 Z M108.128,86.668 C107.472,86.668 106.952,86.516 106.464,86.092 L106.92,85.364 C107.232,85.7 107.648,85.836 108.128,85.836 C108.616,85.836 109.2,85.628 109.2,84.844 L109.2,84.468 C108.896,84.852 108.48,85.068 108,85.068 C107.04,85.068 106.296,84.396 106.296,83.108 C106.296,81.844 107.024,81.14 108,81.14 C108.464,81.14 108.888,81.332 109.2,81.732 L109.2,81.236 L110.216,81.236 L110.216,84.844 C110.216,86.308 109.08,86.668 108.128,86.668 Z M108.328,84.172 C108.656,84.172 109.024,83.98 109.2,83.732 L109.2,82.476 C109.024,82.228 108.656,82.044 108.328,82.044 C107.744,82.044 107.344,82.444 107.344,83.108 C107.344,83.772 107.744,84.172 108.328,84.172 Z M112.44,84.708 C112.44,85.308 112.112,85.844 111.616,86.196 L111.176,85.836 C111.432,85.7 111.728,85.364 111.792,85.084 C111.768,85.092 111.704,85.108 111.64,85.108 C111.336,85.108 111.096,84.868 111.096,84.532 C111.096,84.18 111.384,83.892 111.728,83.892 C112.104,83.892 112.44,84.188 112.44,84.708 Z M116.712,85.196 C116.04,85.196 115.392,84.972 114.984,84.596 L115.424,83.86 C115.712,84.132 116.28,84.396 116.76,84.396 C117.2,84.396 117.408,84.228 117.408,83.988 C117.408,83.356 115.12,83.876 115.12,82.356 C115.12,81.708 115.68,81.14 116.704,81.14 C117.352,81.14 117.872,81.364 118.256,81.668 L117.848,82.388 C117.616,82.148 117.176,81.94 116.704,81.94 C116.336,81.94 116.096,82.1 116.096,82.316 C116.096,82.884 118.392,82.404 118.392,83.964 C118.392,84.676 117.784,85.196 116.712,85.196 Z M122.48,85.1 L121.456,85.1 L121.456,84.692 C121.192,85.012 120.736,85.196 120.232,85.196 C119.616,85.196 118.896,84.78 118.896,83.916 C118.896,83.004 119.616,82.668 120.232,82.668 C120.752,82.668 121.2,82.836 121.456,83.14 L121.456,82.652 C121.456,82.26 121.12,82.004 120.608,82.004 C120.2,82.004 119.816,82.164 119.496,82.46 L119.096,81.748 C119.568,81.324 120.176,81.14 120.784,81.14 C121.672,81.14 122.48,81.492 122.48,82.604 L122.48,85.1 Z M120.64,84.508 C120.968,84.508 121.288,84.396 121.456,84.172 L121.456,83.692 C121.288,83.468 120.968,83.348 120.64,83.348 C120.24,83.348 119.912,83.564 119.912,83.932 C119.912,84.3 120.24,84.508 120.64,84.508 Z M125.576,85.1 L124.48,85.1 L122.928,81.236 L124.016,81.236 L125.024,83.924 L126.04,81.236 L127.128,81.236 L125.576,85.1 Z M128.088,80.82 C127.76,80.82 127.488,80.548 127.488,80.212 C127.488,79.876 127.76,79.612 128.088,79.612 C128.424,79.612 128.696,79.876 128.696,80.212 C128.696,80.548 128.424,80.82 128.088,80.82 Z M128.6,85.1 L127.584,85.1 L127.584,81.236 L128.6,81.236 L128.6,85.1 Z M133.24,85.1 L132.216,85.1 L132.216,82.764 C132.216,82.228 131.936,82.044 131.504,82.044 C131.104,82.044 130.8,82.268 130.624,82.492 L130.624,85.1 L129.608,85.1 L129.608,81.236 L130.624,81.236 L130.624,81.732 C130.872,81.444 131.352,81.14 131.976,81.14 C132.832,81.14 133.24,81.62 133.24,82.372 L133.24,85.1 Z M135.824,86.668 C135.168,86.668 134.648,86.516 134.16,86.092 L134.616,85.364 C134.928,85.7 135.344,85.836 135.824,85.836 C136.312,85.836 136.896,85.628 136.896,84.844 L136.896,84.468 C136.592,84.852 136.176,85.068 135.696,85.068 C134.736,85.068 133.992,84.396 133.992,83.108 C133.992,81.844 134.72,81.14 135.696,81.14 C136.16,81.14 136.584,81.332 136.896,81.732 L136.896,81.236 L137.912,81.236 L137.912,84.844 C137.912,86.308 136.776,86.668 135.824,86.668 Z M136.024,84.172 C136.352,84.172 136.72,83.98 136.896,83.732 L136.896,82.476 C136.72,82.228 136.352,82.044 136.024,82.044 C135.44,82.044 135.04,82.444 135.04,83.108 C135.04,83.772 135.44,84.172 136.024,84.172 Z M28.724,95.196 C27.452,95.196 26.684,94.26 26.684,93.164 C26.684,92.068 27.452,91.14 28.724,91.14 C30.004,91.14 30.772,92.068 30.772,93.164 C30.772,94.26 30.004,95.196 28.724,95.196 Z M28.724,94.292 C29.364,94.292 29.716,93.772 29.716,93.164 C29.716,92.564 29.364,92.044 28.724,92.044 C28.092,92.044 27.74,92.564 27.74,93.164 C27.74,93.772 28.092,94.292 28.724,94.292 Z M32.548,95.1 L31.532,95.1 L31.532,91.236 L32.548,91.236 L32.548,91.756 C32.828,91.42 33.3,91.14 33.78,91.14 L33.78,92.132 C33.708,92.116 33.62,92.108 33.5,92.108 C33.164,92.108 32.716,92.3 32.548,92.548 L32.548,95.1 Z M37.484,95.1 L36.468,95.1 L36.468,91.236 L37.484,91.236 L37.484,91.756 C37.764,91.42 38.236,91.14 38.716,91.14 L38.716,92.132 C38.644,92.116 38.556,92.108 38.436,92.108 C38.1,92.108 37.652,92.3 37.484,92.548 L37.484,95.1 Z M41.164,95.196 C39.988,95.196 39.1,94.404 39.1,93.164 C39.1,92.044 39.932,91.14 41.1,91.14 C42.26,91.14 43.036,92.004 43.036,93.26 L43.036,93.5 L40.164,93.5 C40.236,93.972 40.62,94.364 41.276,94.364 C41.604,94.364 42.052,94.228 42.3,93.988 L42.756,94.66 C42.372,95.012 41.764,95.196 41.164,95.196 Z M42.06,92.796 C42.028,92.428 41.772,91.972 41.1,91.972 C40.468,91.972 40.196,92.412 40.156,92.796 L42.06,92.796 Z M45.98,95.196 C45.524,95.196 45.108,95.004 44.788,94.604 L44.788,96.572 L43.772,96.572 L43.772,91.236 L44.788,91.236 L44.788,91.724 C45.084,91.348 45.508,91.14 45.98,91.14 C46.972,91.14 47.692,91.876 47.692,93.164 C47.692,94.452 46.972,95.196 45.98,95.196 Z M45.66,94.292 C46.244,94.292 46.644,93.836 46.644,93.164 C46.644,92.5 46.244,92.044 45.66,92.044 C45.332,92.044 44.964,92.228 44.788,92.484 L44.788,93.844 C44.956,94.092 45.332,94.292 45.66,94.292 Z M51.78,95.1 L50.756,95.1 L50.756,94.692 C50.492,95.012 50.036,95.196 49.532,95.196 C48.916,95.196 48.196,94.78 48.196,93.916 C48.196,93.004 48.916,92.668 49.532,92.668 C50.052,92.668 50.5,92.836 50.756,93.14 L50.756,92.652 C50.756,92.26 50.42,92.004 49.908,92.004 C49.5,92.004 49.116,92.164 48.796,92.46 L48.396,91.748 C48.868,91.324 49.476,91.14 50.084,91.14 C50.972,91.14 51.78,91.492 51.78,92.604 L51.78,95.1 Z M49.94,94.508 C50.268,94.508 50.588,94.396 50.756,94.172 L50.756,93.692 C50.588,93.468 50.268,93.348 49.94,93.348 C49.54,93.348 49.212,93.564 49.212,93.932 C49.212,94.3 49.54,94.508 49.94,94.508 Z M52.652,96.604 L52.796,95.7 C52.884,95.74 53.02,95.764 53.116,95.764 C53.38,95.764 53.556,95.692 53.652,95.484 L53.796,95.148 L52.228,91.236 L53.316,91.236 L54.324,93.924 L55.34,91.236 L56.428,91.236 L54.612,95.732 C54.324,96.46 53.812,96.652 53.148,96.668 C53.036,96.668 52.772,96.644 52.652,96.604 Z M57.388,90.82 C57.06,90.82 56.788,90.548 56.788,90.212 C56.788,89.876 57.06,89.612 57.388,89.612 C57.724,89.612 57.996,89.876 57.996,90.212 C57.996,90.548 57.724,90.82 57.388,90.82 Z M57.9,95.1 L56.884,95.1 L56.884,91.236 L57.9,91.236 L57.9,95.1 Z M62.54,95.1 L61.516,95.1 L61.516,92.764 C61.516,92.228 61.236,92.044 60.804,92.044 C60.404,92.044 60.1,92.268 59.924,92.492 L59.924,95.1 L58.908,95.1 L58.908,91.236 L59.924,91.236 L59.924,91.732 C60.172,91.444 60.652,91.14 61.276,91.14 C62.132,91.14 62.54,91.62 62.54,92.372 L62.54,95.1 Z M65.124,96.668 C64.468,96.668 63.948,96.516 63.46,96.092 L63.916,95.364 C64.228,95.7 64.644,95.836 65.124,95.836 C65.612,95.836 66.196,95.628 66.196,94.844 L66.196,94.468 C65.892,94.852 65.476,95.068 64.996,95.068 C64.036,95.068 63.292,94.396 63.292,93.108 C63.292,91.844 64.02,91.14 64.996,91.14 C65.46,91.14 65.884,91.332 66.196,91.732 L66.196,91.236 L67.212,91.236 L67.212,94.844 C67.212,96.308 66.076,96.668 65.124,96.668 Z M65.324,94.172 C65.652,94.172 66.02,93.98 66.196,93.732 L66.196,92.476 C66.02,92.228 65.652,92.044 65.324,92.044 C64.74,92.044 64.34,92.444 64.34,93.108 C64.34,93.772 64.74,94.172 65.324,94.172 Z M73.956,95.1 L72.932,95.1 L72.932,94.604 C72.628,94.988 72.212,95.196 71.74,95.196 C70.772,95.196 70.028,94.46 70.028,93.164 C70.028,91.908 70.756,91.14 71.74,91.14 C72.196,91.14 72.628,91.332 72.932,91.732 L72.932,89.764 L73.956,89.764 L73.956,95.1 Z M72.06,94.292 C72.396,94.292 72.764,94.108 72.932,93.852 L72.932,92.484 C72.764,92.228 72.396,92.044 72.06,92.044 C71.476,92.044 71.076,92.5 71.076,93.164 C71.076,93.836 71.476,94.292 72.06,94.292 Z M76.78,95.196 C75.604,95.196 74.716,94.404 74.716,93.164 C74.716,92.044 75.548,91.14 76.716,91.14 C77.876,91.14 78.652,92.004 78.652,93.26 L78.652,93.5 L75.78,93.5 C75.852,93.972 76.236,94.364 76.892,94.364 C77.22,94.364 77.668,94.228 77.916,93.988 L78.372,94.66 C77.988,95.012 77.38,95.196 76.78,95.196 Z M77.676,92.796 C77.644,92.428 77.388,91.972 76.716,91.972 C76.084,91.972 75.812,92.412 75.772,92.796 L77.676,92.796 Z M80.404,93.86 C80.58,94.108 80.948,94.292 81.284,94.292 C81.868,94.292 82.26,93.836 82.26,93.164 C82.26,92.5 81.868,92.044 81.284,92.044 C80.948,92.044 80.58,92.236 80.404,92.492 L80.404,93.86 Z M80.404,95.1 L79.388,95.1 L79.388,89.764 L80.404,89.764 L80.404,91.732 C80.708,91.332 81.14,91.14 81.596,91.14 C82.58,91.14 83.308,91.908 83.308,93.164 C83.308,94.46 82.572,95.196 81.596,95.196 C81.132,95.196 80.708,94.988 80.404,94.604 L80.404,95.1 Z M85.372,95.196 C84.66,95.196 84.284,94.828 84.284,94.132 L84.284,92.124 L83.644,92.124 L83.644,91.236 L84.284,91.236 L84.284,90.18 L85.3,90.18 L85.3,91.236 L86.084,91.236 L86.084,92.124 L85.3,92.124 L85.3,93.86 C85.3,94.108 85.428,94.292 85.652,94.292 C85.804,94.292 85.948,94.236 86.004,94.172 L86.22,94.948 C86.068,95.084 85.796,95.196 85.372,95.196 Z M87.3,95.188 C86.948,95.188 86.652,94.892 86.652,94.54 C86.652,94.188 86.948,93.892 87.3,93.892 C87.652,93.892 87.948,94.188 87.948,94.54 C87.948,94.892 87.652,95.188 87.3,95.188 Z M95.332,95.1 L94.884,95.1 L91.524,90.516 L91.524,95.1 L91.068,95.1 L91.068,89.764 L91.532,89.764 L94.876,94.284 L94.876,89.764 L95.332,89.764 L95.332,95.1 Z M96.852,90.628 C96.684,90.628 96.532,90.484 96.532,90.308 C96.532,90.132 96.684,89.996 96.852,89.996 C97.028,89.996 97.172,90.132 97.172,90.308 C97.172,90.484 97.028,90.628 96.852,90.628 Z M97.06,95.1 L96.644,95.1 L96.644,91.236 L97.06,91.236 L97.06,95.1 Z M100.012,95.196 C98.876,95.196 98.14,94.292 98.14,93.164 C98.14,92.036 98.876,91.14 100.012,91.14 C100.684,91.14 101.068,91.404 101.38,91.796 L101.092,92.052 C100.812,91.668 100.46,91.516 100.036,91.516 C99.132,91.516 98.58,92.236 98.58,93.164 C98.58,94.092 99.132,94.82 100.036,94.82 C100.46,94.82 100.812,94.66 101.092,94.276 L101.38,94.532 C101.068,94.932 100.684,95.196 100.012,95.196 Z M104.02,95.196 C102.892,95.196 102.092,94.356 102.092,93.164 C102.092,92.044 102.876,91.14 103.948,91.14 C105.124,91.14 105.772,92.068 105.772,93.188 L105.772,93.3 L102.54,93.3 C102.58,94.14 103.14,94.836 104.052,94.836 C104.54,94.836 104.988,94.652 105.316,94.3 L105.532,94.572 C105.148,94.972 104.66,95.196 104.02,95.196 Z M105.348,92.972 C105.34,92.316 104.908,91.5 103.94,91.5 C103.028,91.5 102.572,92.3 102.54,92.972 L105.348,92.972 Z M107.26,95.1 L106.844,95.1 L106.844,89.764 L107.26,89.764 L107.26,95.1 Z M108.3,96.612 L108.372,96.228 C108.46,96.268 108.612,96.292 108.708,96.292 C108.964,96.292 109.14,96.188 109.3,95.82 L109.604,95.132 L107.964,91.236 L108.428,91.236 L109.836,94.612 L111.228,91.236 L111.7,91.236 L109.7,95.948 C109.492,96.436 109.164,96.668 108.716,96.668 C108.58,96.668 108.404,96.644 108.3,96.612 Z M117.748,95.1 L117.324,95.1 L117.324,94.484 C117.052,94.884 116.556,95.196 115.98,95.196 C114.956,95.196 114.26,94.412 114.26,93.172 C114.26,91.948 114.956,91.14 115.98,91.14 C116.532,91.14 117.02,91.42 117.324,91.86 L117.324,89.764 L117.748,89.764 L117.748,95.1 Z M116.052,94.82 C116.596,94.82 117.1,94.5 117.324,94.132 L117.324,92.22 C117.1,91.844 116.596,91.516 116.052,91.516 C115.196,91.516 114.7,92.236 114.7,93.172 C114.7,94.108 115.196,94.82 116.052,94.82 Z M120.676,95.196 C119.548,95.196 118.828,94.292 118.828,93.164 C118.828,92.036 119.548,91.14 120.676,91.14 C121.82,91.14 122.54,92.036 122.54,93.164 C122.54,94.292 121.82,95.196 120.676,95.196 Z M120.676,94.82 C121.588,94.82 122.092,94.028 122.092,93.164 C122.092,92.308 121.588,91.516 120.676,91.516 C119.78,91.516 119.268,92.308 119.268,93.164 C119.268,94.028 119.78,94.82 120.676,94.82 Z M126.636,95.1 L126.22,95.1 L126.22,92.484 C126.22,91.74 125.844,91.516 125.284,91.516 C124.788,91.516 124.276,91.828 124.028,92.18 L124.028,95.1 L123.612,95.1 L123.612,91.236 L124.028,91.236 L124.028,91.82 C124.308,91.484 124.86,91.14 125.42,91.14 C126.204,91.14 126.636,91.524 126.636,92.396 L126.636,95.1 Z M129.644,95.196 C128.516,95.196 127.716,94.356 127.716,93.164 C127.716,92.044 128.5,91.14 129.572,91.14 C130.748,91.14 131.396,92.068 131.396,93.188 L131.396,93.3 L128.164,93.3 C128.204,94.14 128.764,94.836 129.676,94.836 C130.164,94.836 130.612,94.652 130.94,94.3 L131.156,94.572 C130.772,94.972 130.284,95.196 129.644,95.196 Z M130.972,92.972 C130.964,92.316 130.532,91.5 129.564,91.5 C128.652,91.5 128.196,92.3 128.164,92.972 L130.972,92.972 Z M132.7,95.172 C132.508,95.172 132.34,95.012 132.34,94.82 C132.34,94.636 132.508,94.476 132.7,94.476 C132.892,94.476 133.052,94.636 133.052,94.82 C133.052,95.012 132.892,95.172 132.7,95.172 Z M24.4,106.5 L24.152,106.692 C23.464,105.652 23.08,104.444 23.08,103.156 C23.08,101.868 23.464,100.66 24.152,99.62 L24.4,99.796 C23.896,100.828 23.552,101.764 23.552,103.156 C23.552,104.54 23.896,105.484 24.4,106.5 Z M27.592,105.196 C26.024,105.196 25,103.996 25,102.436 C25,100.876 26.024,99.676 27.592,99.676 C29.152,99.676 30.184,100.876 30.184,102.436 C30.184,103.996 29.152,105.196 27.592,105.196 Z M27.592,104.78 C28.872,104.78 29.704,103.78 29.704,102.436 C29.704,101.084 28.872,100.092 27.592,100.092 C26.304,100.092 25.48,101.084 25.48,102.436 C25.48,103.78 26.304,104.78 27.592,104.78 Z M34.32,105.1 L33.904,105.1 L33.904,102.484 C33.904,101.74 33.528,101.516 32.968,101.516 C32.472,101.516 31.96,101.828 31.712,102.18 L31.712,105.1 L31.296,105.1 L31.296,101.236 L31.712,101.236 L31.712,101.82 C31.992,101.484 32.544,101.14 33.104,101.14 C33.888,101.14 34.32,101.524 34.32,102.396 L34.32,105.1 Z M40.56,105.1 L40.144,105.1 L40.144,104.644 C39.8,105.02 39.368,105.196 38.832,105.196 C38.168,105.196 37.48,104.74 37.48,103.908 C37.48,103.068 38.16,102.628 38.832,102.628 C39.368,102.628 39.808,102.804 40.144,103.18 L40.144,102.396 C40.144,101.82 39.68,101.508 39.112,101.508 C38.624,101.508 38.248,101.676 37.896,102.076 L37.664,101.788 C38.064,101.356 38.512,101.14 39.152,101.14 C39.936,101.14 40.56,101.516 40.56,102.38 L40.56,105.1 Z M38.976,104.868 C39.44,104.868 39.872,104.692 40.144,104.34 L40.144,103.492 C39.872,103.132 39.44,102.956 38.976,102.956 C38.344,102.956 37.92,103.364 37.92,103.916 C37.92,104.46 38.344,104.868 38.976,104.868 Z M43.368,105.1 L42.896,105.1 L41.264,101.236 L41.728,101.236 L43.136,104.612 L44.528,101.236 L45,101.236 L43.368,105.1 Z M47.416,105.196 C46.288,105.196 45.488,104.356 45.488,103.164 C45.488,102.044 46.272,101.14 47.344,101.14 C48.52,101.14 49.168,102.068 49.168,103.188 L49.168,103.3 L45.936,103.3 C45.976,104.14 46.536,104.836 47.448,104.836 C47.936,104.836 48.384,104.652 48.712,104.3 L48.928,104.572 C48.544,104.972 48.056,105.196 47.416,105.196 Z M48.744,102.972 C48.736,102.316 48.304,101.5 47.336,101.5 C46.424,101.5 45.968,102.3 45.936,102.972 L48.744,102.972 Z M50.656,105.1 L50.24,105.1 L50.24,101.236 L50.656,101.236 L50.656,101.9 C50.984,101.468 51.424,101.156 51.96,101.156 L51.96,101.612 C51.888,101.596 51.832,101.596 51.752,101.596 C51.36,101.596 50.832,101.948 50.656,102.284 L50.656,105.1 Z M55.648,105.1 L55.232,105.1 L55.232,104.644 C54.888,105.02 54.456,105.196 53.92,105.196 C53.256,105.196 52.568,104.74 52.568,103.908 C52.568,103.068 53.248,102.628 53.92,102.628 C54.456,102.628 54.896,102.804 55.232,103.18 L55.232,102.396 C55.232,101.82 54.768,101.508 54.2,101.508 C53.712,101.508 53.336,101.676 52.984,102.076 L52.752,101.788 C53.152,101.356 53.6,101.14 54.24,101.14 C55.024,101.14 55.648,101.516 55.648,102.38 L55.648,105.1 Z M54.064,104.868 C54.528,104.868 54.96,104.692 55.232,104.34 L55.232,103.492 C54.96,103.132 54.528,102.956 54.064,102.956 C53.432,102.956 53.008,103.364 53.008,103.916 C53.008,104.46 53.432,104.868 54.064,104.868 Z M58.48,106.668 C57.824,106.668 57.408,106.548 56.952,106.084 L57.192,105.748 C57.528,106.148 57.896,106.292 58.48,106.292 C59.176,106.292 59.792,105.94 59.792,105.068 L59.792,104.452 C59.52,104.852 59.024,105.18 58.448,105.18 C57.424,105.18 56.728,104.404 56.728,103.164 C56.728,101.94 57.424,101.14 58.448,101.14 C59,101.14 59.48,101.42 59.792,101.86 L59.792,101.236 L60.216,101.236 L60.216,105.068 C60.216,106.244 59.416,106.668 58.48,106.668 Z M58.52,104.804 C59.056,104.804 59.568,104.476 59.792,104.1 L59.792,102.22 C59.568,101.844 59.056,101.516 58.52,101.516 C57.664,101.516 57.168,102.228 57.168,103.164 C57.168,104.1 57.664,104.804 58.52,104.804 Z M63.216,105.196 C62.088,105.196 61.288,104.356 61.288,103.164 C61.288,102.044 62.072,101.14 63.144,101.14 C64.32,101.14 64.968,102.068 64.968,103.188 L64.968,103.3 L61.736,103.3 C61.776,104.14 62.336,104.836 63.248,104.836 C63.736,104.836 64.184,104.652 64.512,104.3 L64.728,104.572 C64.344,104.972 63.856,105.196 63.216,105.196 Z M64.544,102.972 C64.536,102.316 64.104,101.5 63.136,101.5 C62.224,101.5 61.768,102.3 61.736,102.972 L64.544,102.972 Z M66.664,104.988 C66.664,105.436 66.4,105.86 66.088,106.076 L65.856,105.884 C66.112,105.708 66.304,105.396 66.32,105.148 C66.32,105.148 66.264,105.156 66.24,105.156 C66.048,105.156 65.912,105.012 65.912,104.82 C65.912,104.636 66.064,104.476 66.256,104.476 C66.472,104.476 66.664,104.66 66.664,104.988 Z M73.184,105.1 L69.664,105.1 L69.664,104.724 C71.48,103.26 72.696,102.22 72.696,101.188 C72.696,100.42 72.064,100.1 71.48,100.1 C70.816,100.1 70.304,100.388 70.016,100.796 L69.704,100.508 C70.08,99.996 70.728,99.684 71.48,99.684 C72.264,99.684 73.16,100.132 73.16,101.188 C73.16,102.364 71.92,103.436 70.376,104.684 L73.184,104.684 L73.184,105.1 Z M77.84,105.1 L74.32,105.1 L74.32,104.724 C76.136,103.26 77.352,102.22 77.352,101.188 C77.352,100.42 76.72,100.1 76.136,100.1 C75.472,100.1 74.96,100.388 74.672,100.796 L74.36,100.508 C74.736,99.996 75.384,99.684 76.136,99.684 C76.92,99.684 77.816,100.132 77.816,101.188 C77.816,102.364 76.576,103.436 75.032,104.684 L77.84,104.684 L77.84,105.1 Z M80.328,105.196 C79.704,105.196 79.224,105.012 78.84,104.58 L79.088,104.276 C79.336,104.588 79.792,104.844 80.336,104.844 C80.984,104.844 81.368,104.508 81.368,104.06 C81.368,103.004 78.928,103.604 78.928,102.212 C78.928,101.62 79.432,101.14 80.304,101.14 C80.968,101.14 81.408,101.396 81.688,101.708 L81.456,102.004 C81.232,101.7 80.816,101.492 80.304,101.492 C79.704,101.492 79.344,101.796 79.344,102.196 C79.344,103.164 81.776,102.572 81.776,104.06 C81.776,104.684 81.296,105.196 80.328,105.196 Z M84.56,105.196 C83.432,105.196 82.632,104.356 82.632,103.164 C82.632,102.044 83.416,101.14 84.488,101.14 C85.664,101.14 86.312,102.068 86.312,103.188 L86.312,103.3 L83.08,103.3 C83.12,104.14 83.68,104.836 84.592,104.836 C85.08,104.836 85.528,104.652 85.856,104.3 L86.072,104.572 C85.688,104.972 85.2,105.196 84.56,105.196 Z M85.888,102.972 C85.88,102.316 85.448,101.5 84.48,101.5 C83.568,101.5 83.112,102.3 83.08,102.972 L85.888,102.972 Z M88.896,105.1 L88.424,105.1 L86.792,101.236 L87.256,101.236 L88.664,104.612 L90.056,101.236 L90.528,101.236 L88.896,105.1 Z M92.944,105.196 C91.816,105.196 91.016,104.356 91.016,103.164 C91.016,102.044 91.8,101.14 92.872,101.14 C94.048,101.14 94.696,102.068 94.696,103.188 L94.696,103.3 L91.464,103.3 C91.504,104.14 92.064,104.836 92.976,104.836 C93.464,104.836 93.912,104.652 94.24,104.3 L94.456,104.572 C94.072,104.972 93.584,105.196 92.944,105.196 Z M94.272,102.972 C94.264,102.316 93.832,101.5 92.864,101.5 C91.952,101.5 91.496,102.3 91.464,102.972 L94.272,102.972 Z M98.792,105.1 L98.376,105.1 L98.376,102.484 C98.376,101.74 98,101.516 97.44,101.516 C96.944,101.516 96.432,101.828 96.184,102.18 L96.184,105.1 L95.768,105.1 L95.768,101.236 L96.184,101.236 L96.184,101.82 C96.464,101.484 97.016,101.14 97.576,101.14 C98.36,101.14 98.792,101.524 98.792,102.396 L98.792,105.1 Z M103.816,105.196 C102.68,105.196 101.944,104.292 101.944,103.164 C101.944,102.036 102.68,101.14 103.816,101.14 C104.488,101.14 104.872,101.404 105.184,101.796 L104.896,102.052 C104.616,101.668 104.264,101.516 103.84,101.516 C102.936,101.516 102.384,102.236 102.384,103.164 C102.384,104.092 102.936,104.82 103.84,104.82 C104.264,104.82 104.616,104.66 104.896,104.276 L105.184,104.532 C104.872,104.932 104.488,105.196 103.816,105.196 Z M109.136,105.1 L108.72,105.1 L108.72,104.532 C108.408,104.884 107.888,105.196 107.328,105.196 C106.544,105.196 106.112,104.828 106.112,103.956 L106.112,101.236 L106.528,101.236 L106.528,103.86 C106.528,104.612 106.904,104.82 107.464,104.82 C107.96,104.82 108.464,104.524 108.72,104.18 L108.72,101.236 L109.136,101.236 L109.136,105.1 Z M111.584,105.196 C110.96,105.196 110.48,105.012 110.096,104.58 L110.344,104.276 C110.592,104.588 111.048,104.844 111.592,104.844 C112.24,104.844 112.624,104.508 112.624,104.06 C112.624,103.004 110.184,103.604 110.184,102.212 C110.184,101.62 110.688,101.14 111.56,101.14 C112.224,101.14 112.664,101.396 112.944,101.708 L112.712,102.004 C112.488,101.7 112.072,101.492 111.56,101.492 C110.96,101.492 110.6,101.796 110.6,102.196 C110.6,103.164 113.032,102.572 113.032,104.06 C113.032,104.684 112.552,105.196 111.584,105.196 Z M114.944,105.196 C114.432,105.196 114.184,104.884 114.184,104.356 L114.184,101.604 L113.544,101.604 L113.544,101.236 L114.184,101.236 L114.184,100.18 L114.608,100.18 L114.608,101.236 L115.392,101.236 L115.392,101.604 L114.608,101.604 L114.608,104.292 C114.608,104.604 114.736,104.82 115.008,104.82 C115.192,104.82 115.352,104.732 115.44,104.636 L115.6,104.956 C115.448,105.1 115.264,105.196 114.944,105.196 Z M117.936,105.196 C116.808,105.196 116.088,104.292 116.088,103.164 C116.088,102.036 116.808,101.14 117.936,101.14 C119.08,101.14 119.8,102.036 119.8,103.164 C119.8,104.292 119.08,105.196 117.936,105.196 Z M117.936,104.82 C118.848,104.82 119.352,104.028 119.352,103.164 C119.352,102.308 118.848,101.516 117.936,101.516 C117.04,101.516 116.528,102.308 116.528,103.164 C116.528,104.028 117.04,104.82 117.936,104.82 Z M125.888,105.1 L125.472,105.1 L125.472,102.396 C125.472,101.852 125.24,101.516 124.696,101.516 C124.28,101.516 123.808,101.82 123.592,102.172 L123.592,105.1 L123.168,105.1 L123.168,102.396 C123.168,101.852 122.944,101.516 122.4,101.516 C121.984,101.516 121.52,101.828 121.288,102.18 L121.288,105.1 L120.872,105.1 L120.872,101.236 L121.288,101.236 L121.288,101.82 C121.448,101.572 121.976,101.14 122.536,101.14 C123.136,101.14 123.456,101.492 123.552,101.868 C123.768,101.508 124.288,101.14 124.832,101.14 C125.544,101.14 125.888,101.54 125.888,102.316 L125.888,105.1 Z M128.896,105.196 C127.768,105.196 126.968,104.356 126.968,103.164 C126.968,102.044 127.752,101.14 128.824,101.14 C130,101.14 130.648,102.068 130.648,103.188 L130.648,103.3 L127.416,103.3 C127.456,104.14 128.016,104.836 128.928,104.836 C129.416,104.836 129.864,104.652 130.192,104.3 L130.408,104.572 C130.024,104.972 129.536,105.196 128.896,105.196 Z M130.224,102.972 C130.216,102.316 129.784,101.5 128.816,101.5 C127.904,101.5 127.448,102.3 127.416,102.972 L130.224,102.972 Z M132.136,105.1 L131.72,105.1 L131.72,101.236 L132.136,101.236 L132.136,101.9 C132.464,101.468 132.904,101.156 133.44,101.156 L133.44,101.612 C133.368,101.596 133.312,101.596 133.232,101.596 C132.84,101.596 132.312,101.948 132.136,102.284 L132.136,105.1 Z M135.408,105.196 C134.784,105.196 134.304,105.012 133.92,104.58 L134.168,104.276 C134.416,104.588 134.872,104.844 135.416,104.844 C136.064,104.844 136.448,104.508 136.448,104.06 C136.448,103.004 134.008,103.604 134.008,102.212 C134.008,101.62 134.512,101.14 135.384,101.14 C136.048,101.14 136.488,101.396 136.768,101.708 L136.536,102.004 C136.312,101.7 135.896,101.492 135.384,101.492 C134.784,101.492 134.424,101.796 134.424,102.196 C134.424,103.164 136.856,102.572 136.856,104.06 C136.856,104.684 136.376,105.196 135.408,105.196 Z M66.788,115.1 L66.228,115.1 L64.684,113.26 L63.964,113.94 L63.964,115.1 L63.548,115.1 L63.548,109.764 L63.964,109.764 L63.964,113.444 L66.236,111.236 L66.796,111.236 L64.996,112.98 L66.788,115.1 Z M69.3,115.196 C68.172,115.196 67.372,114.356 67.372,113.164 C67.372,112.044 68.156,111.14 69.228,111.14 C70.404,111.14 71.052,112.068 71.052,113.188 L71.052,113.3 L67.82,113.3 C67.86,114.14 68.42,114.836 69.332,114.836 C69.82,114.836 70.268,114.652 70.596,114.3 L70.812,114.572 C70.428,114.972 69.94,115.196 69.3,115.196 Z M70.628,112.972 C70.62,112.316 70.188,111.5 69.22,111.5 C68.308,111.5 67.852,112.3 67.82,112.972 L70.628,112.972 Z M73.836,115.196 C72.708,115.196 71.908,114.356 71.908,113.164 C71.908,112.044 72.692,111.14 73.764,111.14 C74.94,111.14 75.588,112.068 75.588,113.188 L75.588,113.3 L72.356,113.3 C72.396,114.14 72.956,114.836 73.868,114.836 C74.356,114.836 74.804,114.652 75.132,114.3 L75.348,114.572 C74.964,114.972 74.476,115.196 73.836,115.196 Z M75.164,112.972 C75.156,112.316 74.724,111.5 73.756,111.5 C72.844,111.5 72.388,112.3 72.356,112.972 L75.164,112.972 Z M78.42,115.196 C77.876,115.196 77.388,114.916 77.076,114.476 L77.076,116.572 L76.66,116.572 L76.66,111.236 L77.076,111.236 L77.076,111.844 C77.348,111.452 77.844,111.14 78.42,111.14 C79.452,111.14 80.148,111.924 80.148,113.164 C80.148,114.396 79.452,115.196 78.42,115.196 Z M78.348,114.82 C79.212,114.82 79.7,114.1 79.7,113.164 C79.7,112.228 79.212,111.516 78.348,111.516 C77.812,111.516 77.3,111.836 77.076,112.204 L77.076,114.116 C77.3,114.484 77.812,114.82 78.348,114.82 Z M85.044,115.196 C83.924,115.196 82.9,114.708 82.9,113.716 C82.9,113.068 83.404,112.572 84.044,112.348 C83.452,112.14 82.988,111.756 82.988,111.092 C82.988,110.084 84.052,109.684 85.044,109.684 C86.028,109.684 87.1,110.084 87.1,111.092 C87.1,111.756 86.628,112.14 86.044,112.348 C86.676,112.572 87.188,113.068 87.188,113.716 C87.188,114.708 86.164,115.196 85.044,115.196 Z M85.044,111.9 C85.372,111.844 85.94,111.676 85.94,111.284 C85.94,110.908 85.564,110.692 85.044,110.692 C84.516,110.692 84.14,110.908 84.14,111.284 C84.14,111.676 84.716,111.844 85.044,111.9 Z M85.044,114.188 C85.588,114.188 86.036,113.94 86.036,113.556 C86.036,113.116 85.372,112.908 85.044,112.86 C84.708,112.908 84.052,113.116 84.052,113.556 C84.052,113.94 84.484,114.188 85.044,114.188 Z M89.028,112.34 C88.212,112.34 87.676,111.764 87.676,111.02 C87.676,110.268 88.212,109.684 89.028,109.684 C89.852,109.684 90.388,110.268 90.388,111.02 C90.388,111.764 89.852,112.34 89.028,112.34 Z M89.108,115.1 L88.508,115.1 L91.916,109.764 L92.524,109.764 L89.108,115.1 Z M91.964,115.196 C91.148,115.196 90.612,114.62 90.612,113.876 C90.612,113.124 91.148,112.532 91.964,112.532 C92.78,112.532 93.324,113.124 93.324,113.876 C93.324,114.62 92.78,115.196 91.964,115.196 Z M89.028,111.716 C89.396,111.716 89.668,111.444 89.668,111.02 C89.668,110.58 89.396,110.308 89.028,110.308 C88.668,110.308 88.396,110.58 88.396,111.02 C88.396,111.444 88.668,111.716 89.028,111.716 Z M91.964,114.572 C92.332,114.572 92.604,114.308 92.604,113.876 C92.604,113.436 92.332,113.164 91.964,113.164 C91.596,113.164 91.332,113.436 91.332,113.876 C91.332,114.308 91.596,114.572 91.964,114.572 Z M93.668,116.5 C94.172,115.484 94.516,114.54 94.516,113.156 C94.516,111.764 94.172,110.828 93.668,109.796 L93.916,109.62 C94.604,110.66 94.988,111.868 94.988,113.156 C94.988,114.444 94.604,115.652 93.916,116.692 L93.668,116.5 Z M96.228,115.172 C96.036,115.172 95.868,115.012 95.868,114.82 C95.868,114.636 96.036,114.476 96.228,114.476 C96.42,114.476 96.58,114.636 96.58,114.82 C96.58,115.012 96.42,115.172 96.228,115.172 Z" id="In-the-last-year,-yo" fill="#4E4B6B"></path>
                <path d="M23.0979269,140.41736 L14.689396,140.41736 C14.108908,140.41736 13.6383296,140.887939 13.6383296,141.468426 L13.6383296,147.774825 C13.6383296,148.355313 14.108908,148.825891 14.689396,148.825891 L23.0979269,148.825891 C23.6784148,148.825891 24.1489933,148.355313 24.1489933,147.774825 L24.1489933,141.468426 C24.1489933,140.887939 23.6784148,140.41736 23.0979269,140.41736 L23.0979269,140.41736 Z M23.0979269,147.774825 L14.689396,147.774825 L14.689396,142.519493 L18.8936614,145.147159 L23.0979269,142.519493 L23.0979269,147.774825 L23.0979269,147.774825 Z M23.0979269,141.468426 L18.8936614,144.096092 L14.689396,141.468426 L23.0979269,141.468426 L23.0979269,141.468426 Z" id="Shape-Copy-8" fill="#000000" opacity="0.3"></path>
                <path d="M95.8149025,148.891827 L94.8311044,148.891827 L94.8311044,144.149415 L93.1325811,144.149415 L93.1325811,143.283337 L97.5134258,143.283337 L97.5134258,144.149415 L95.8149025,144.149415 L95.8149025,148.891827 Z M102.852843,148.891827 L101.734508,148.891827 L101.32249,147.807126 L98.7494798,147.807126 L98.3374618,148.891827 L97.2191272,148.891827 L99.4221623,143.283337 L100.649808,143.283337 L102.852843,148.891827 Z M101.045009,146.941048 L100.035985,144.267135 L99.0269613,146.941048 L101.045009,146.941048 Z M108.032498,148.891827 L106.813261,148.891827 L104.938159,146.520621 L104.442055,147.10081 L104.442055,148.891827 L103.458257,148.891827 L103.458257,143.283337 L104.442055,143.283337 L104.442055,145.948841 L106.636682,143.283337 L107.855919,143.283337 L105.577207,145.923616 L108.032498,148.891827 Z M112.522654,148.891827 L108.679955,148.891827 L108.679955,143.283337 L112.522654,143.283337 L112.522654,144.149415 L109.663753,144.149415 L109.663753,145.595683 L112.463794,145.595683 L112.463794,146.461762 L109.663753,146.461762 L109.663753,148.025748 L112.522654,148.025748 L112.522654,148.891827 Z M120.754605,148.891827 L119.636271,148.891827 L119.224253,147.807126 L116.651242,147.807126 L116.239224,148.891827 L115.12089,148.891827 L117.323925,143.283337 L118.55157,143.283337 L120.754605,148.891827 Z M118.946771,146.941048 L117.937747,144.267135 L116.928724,146.941048 L118.946771,146.941048 Z M126.918058,148.891827 L123.462152,148.891827 L123.462152,143.283337 L124.44595,143.283337 L124.44595,148.025748 L126.918058,148.025748 L126.918058,148.891827 Z M130.155343,148.992729 C128.473637,148.992729 127.288034,147.765084 127.288034,146.091786 C127.288034,144.418488 128.473637,143.190843 130.155343,143.190843 C131.828641,143.190843 133.022652,144.418488 133.022652,146.091786 C133.022652,147.765084 131.828641,148.992729 130.155343,148.992729 Z M130.155343,148.118242 C131.282086,148.118242 132.013628,147.243755 132.013628,146.091786 C132.013628,144.931409 131.282086,144.06533 130.155343,144.06533 C129.020191,144.06533 128.297058,144.931409 128.297058,146.091786 C128.297058,147.243755 129.020191,148.118242 130.155343,148.118242 Z M136.587869,148.992729 C134.906163,148.992729 133.72056,147.765084 133.72056,146.091786 C133.72056,144.418488 134.906163,143.190843 136.587869,143.190843 C138.261167,143.190843 139.455178,144.418488 139.455178,146.091786 C139.455178,147.765084 138.261167,148.992729 136.587869,148.992729 Z M136.587869,148.118242 C137.714612,148.118242 138.446154,147.243755 138.446154,146.091786 C138.446154,144.931409 137.714612,144.06533 136.587869,144.06533 C135.452717,144.06533 134.729584,144.931409 134.729584,146.091786 C134.729584,147.243755 135.452717,148.118242 136.587869,148.118242 Z M144.971174,148.891827 L143.751937,148.891827 L141.876835,146.520621 L141.380732,147.10081 L141.380732,148.891827 L140.396934,148.891827 L140.396934,143.283337 L141.380732,143.283337 L141.380732,145.948841 L143.575358,143.283337 L144.794595,143.283337 L142.515883,145.923616 L144.971174,148.891827 Z" id="TAKE-A-LOOK" fill="#13C6B9"></path>
                <path d="M0.5,130.694996 L158.159955,130.694996" id="Line-Copy-5" stroke="#000000" stroke-width="0.525533184" opacity="0.1" stroke-linecap="square"></path>
                <g id="503-percent-purple-12m" transform="translate(60.308650, 14.610664)">
                    <g id="Shape">
                        <use fill="url(#linearGradient-3)" xlink:href="#path-4"></use>
                        <use fill-opacity="0.40064538" fill="#FFFFFF" xlink:href="#path-4"></use>
                    </g>
                    <polygon id="Shape" fill="#B3DBE8" points="20.3613555 19.3005117 20.7768933 19.3005117 20.7768933 28.745443 20.3613555 28.745443"></polygon>
                    <path d="M24.5167341,22.175056 C21.0744184,22.175056 18.2836661,24.9830752 18.2836661,28.446901 C18.2836661,31.9107269 21.0744184,36.9584267 24.5167341,36.9584267 C27.9590498,36.9584267 30.7498021,31.9107269 30.7498021,28.446901 C30.7498021,24.9830752 27.9590498,22.175056 24.5167341,22.175056 L24.5167341,22.175056 Z" id="Shape" fill="#26A6D1"></path>
                    <path d="M19.1147419,28.446901 C19.1147419,25.1239278 21.684428,22.4124113 24.932272,22.1959991 C24.7943134,22.1869649 24.6571859,22.175056 24.5167341,22.175056 C21.0744184,22.175056 18.2836661,24.9830752 18.2836661,28.446901 C18.2836661,31.9107269 21.0744184,36.9584267 24.5167341,36.9584267 C24.6563548,36.9584267 24.794729,36.9473392 24.932272,36.9313239 C21.6840125,36.5481882 19.1147419,31.7698742 19.1147419,28.446901 L19.1147419,28.446901 Z" id="Shape" fill="#2295BC"></path>
                    <path d="M15.3749011,11.0920452 C15.3749011,14.0425596 17.7933314,18.3424672 20.7768933,18.3424672 C23.7604552,18.3424672 26.1788856,14.0421489 26.1788856,11.0920452 C26.1788856,8.14112011 23.7604552,5.7490886 20.7768933,5.7490886 C17.7933314,5.7490886 15.3749011,8.14112011 15.3749011,11.0920452 Z" id="Shape" fill="url(#linearGradient-5)"></path>
                    <path d="M9.14183306,29.6788486 C9.14183306,33.1426745 11.9325854,38.1903743 15.3749011,38.1903743 C18.8172167,38.1903743 21.6079691,33.1426745 21.6079691,29.6788486 C21.6079691,26.2150227 18.8172167,23.4070036 15.3749011,23.4070036 C11.9325854,23.4070036 9.14183306,26.2150227 9.14183306,29.6788486 Z" id="Shape" fill="#F4B459"></path>
                    <path d="M19.0079486,30.0385773 C19.5394216,29.8849945 19.7093765,28.8448201 19.3869192,27.7151242 C19.0644618,26.5858389 18.3721757,25.7945179 17.8398717,25.9485114 C17.3083987,26.1020942 17.1384438,27.1422686 17.4613167,28.2715538 C17.7837741,29.4016604 18.4764757,30.1925707 19.0079486,30.0385773 L19.0079486,30.0385773 Z M18.7141634,30.7986889 C18.3451657,30.7986889 18.046394,31.0992841 18.046394,31.4709216 C18.046394,31.8417379 18.3455813,32.1431544 18.7141634,32.1431544 C19.0827454,32.1431544 19.3815172,31.8421485 19.3815172,31.4709216 C19.3819327,31.0992841 19.083161,30.7986889 18.7141634,30.7986889 L18.7141634,30.7986889 Z" id="Shape" fill="#F6C37A"></path>
                    <path d="M9.97290879,29.6788486 C9.97290879,26.3558754 12.542595,23.6443588 15.7904389,23.4279467 C15.6524804,23.4189124 15.5149373,23.4070036 15.3749011,23.4070036 C11.9325854,23.4070036 9.14183306,26.2150227 9.14183306,29.6788486 C9.14183306,33.1426745 11.9325854,38.1903743 15.3749011,38.1903743 C15.5145218,38.1903743 15.6528959,38.1792867 15.7904389,38.1632714 C12.5421794,37.7801357 9.97290879,33.0018218 9.97290879,29.6788486 L9.97290879,29.6788486 Z" id="Shape" fill="#DBA250"></path>
                    <path d="M30.7498021,26.2815479 C27.3074864,26.2815479 24.5167341,29.089567 24.5167341,32.5533929 C24.5167341,34.9614397 25.8664011,38.133294 27.8451924,39.8440585 C31.4362707,38.5603692 34.5652708,36.3256163 36.9246948,33.4481975 C36.9616777,33.1418532 36.9828701,32.8420793 36.9828701,32.5533929 C36.9828701,29.089567 34.1921178,26.2815479 30.7498021,26.2815479 L30.7498021,26.2815479 Z" id="Shape" fill="#EFC75E"></path>
                    <path d="M9.97290879,27.5134954 C6.97854293,27.5134954 4.4794982,29.6390156 3.87904598,32.4720844 C6.35565167,35.8886856 9.86445341,38.5217682 13.9575014,39.9274203 C15.3312696,38.1591649 16.2059768,35.7244259 16.2059768,33.7853404 C16.2059768,30.3215146 13.4152245,27.5134954 9.97290879,27.5134954 L9.97290879,27.5134954 Z" id="Shape" fill="#3DB39E"></path>
                    <path d="M13.6059564,34.1450691 C14.1374293,33.9914863 14.3073843,32.951312 13.9849269,31.8220267 C13.6624695,30.6923308 12.9701834,29.9010098 12.4378794,30.0550032 C11.9064065,30.208586 11.7364515,31.2487604 12.0593244,32.3780457 C12.3817818,33.5081522 13.0744834,34.2986519 13.6059564,34.1450691 L13.6059564,34.1450691 Z M13.3121711,34.9051808 C12.9431735,34.9051808 12.6444017,35.205776 12.6444017,35.5774135 C12.6444017,35.9482297 12.943589,36.2496462 13.3121711,36.2496462 C13.6807532,36.2496462 13.9795249,35.9486404 13.9795249,35.5774135 C13.9799404,35.205776 13.6811687,34.9051808 13.3121711,34.9051808 L13.3121711,34.9051808 Z" id="Shape" fill="#5ABEAC"></path>
                    <path d="M34.3828497,32.9131216 C34.9143226,32.7595388 35.0842776,31.7193644 34.7618202,30.5900791 C34.4393628,29.4603832 33.7470767,28.6690622 33.2147727,28.822645 C32.6832998,28.9766385 32.5133448,30.0168129 32.8362177,31.1465088 C33.1586751,32.2762047 33.8513767,33.067115 34.3828497,32.9131216 L34.3828497,32.9131216 Z M34.0890644,33.6736439 C33.7200668,33.6736439 33.4212951,33.9738284 33.4212951,34.3454659 C33.4212951,34.7171035 33.7204823,35.0176987 34.0890644,35.0176987 C34.4576465,35.0176987 34.7564182,34.7171035 34.7564182,34.3454659 C34.7564182,33.9738284 34.458062,33.6736439 34.0890644,33.6736439 L34.0890644,33.6736439 Z" id="Shape" fill="#F4D88F"></path>
                    <path d="M17.0370525,2.8745443 L10.8039845,2.8745443 C10.3452307,2.8745443 9.97290879,3.24248597 9.97290879,3.69584267 C9.97290879,4.14919937 10.3452307,4.51714104 10.8039845,4.51714104 C11.1480499,4.51714104 11.4272913,4.79309729 11.4272913,5.13311482 C11.4272913,5.47313235 11.1480499,5.7490886 10.8039845,5.7490886 L8.72629519,5.7490886 C8.26754139,5.7490886 7.89521946,6.11703027 7.89521946,6.57038697 C7.89521946,7.02374367 8.26754139,7.39168534 8.72629519,7.39168534 L14.5438253,7.39168534 C15.0025791,7.39168534 15.3749011,7.02374367 15.3749011,6.57038697 C15.3749011,6.11703027 15.0025791,5.7490886 14.5438253,5.7490886 L13.7127496,5.7490886 L13.7127496,5.74785665 C13.3749173,5.74087562 13.1023245,5.46861521 13.1023245,5.13311482 C13.1023245,4.79761444 13.3745018,4.52576467 13.7127496,4.51837299 L13.7127496,4.51714104 L17.0370525,4.51714104 C17.4958063,4.51714104 17.8681283,4.14919937 17.8681283,3.69584267 C17.8681283,3.24248597 17.4958063,2.8745443 17.0370525,2.8745443 L17.0370525,2.8745443 Z" id="Shape" fill-opacity="0.478119339" fill="#FFFFFF"></path>
                    <polygon id="Shape" fill="#E2574C" points="20.7781399 18.0636364 20.3576156 18.0636364 19.950804 19.2972265 21.1891069 19.2972265"></polygon>
                    <path d="M23.9254237,11.3983894 C24.3862552,11.267803 24.5333556,10.3812114 24.2536986,9.41947102 C23.9744572,8.45731998 23.3744205,7.78344466 22.9131735,7.91403111 C22.4527575,8.0450282 22.3052416,8.93161979 22.5848986,9.89336018 C22.8645556,10.8559219 23.4650078,11.5293865 23.9254237,11.3983894 L23.9254237,11.3983894 Z M23.670699,12.0459832 C23.3511504,12.0459832 23.0918548,12.3022283 23.0918548,12.6184282 C23.0918548,12.934628 23.3511504,13.1908731 23.670699,13.1908731 C23.9906632,13.1908731 24.2499588,12.934628 24.2499588,12.6184282 C24.2499588,12.3022283 23.9902476,12.0459832 23.670699,12.0459832 L23.670699,12.0459832 Z" id="Shape" fill="#EE9A94"></path>
                    <path d="M39.4760973,13.5514231 C39.138265,13.5432101 38.8656722,13.2709497 38.8656722,12.9354493 C38.8656722,12.599949 39.1378495,12.3276886 39.4760973,12.3207075 L39.8201627,12.3194756 C39.4428543,11.4669679 39.0123571,10.6427949 38.5265933,9.85558046 L33.6585672,9.85558046 C32.9700209,9.85558046 32.4119536,10.4070823 32.4119536,11.087528 C32.4119536,11.7679737 32.9700209,12.3194756 33.6585672,12.3194756 L36.5673322,12.3194756 C36.9113976,12.3194756 37.190639,12.5954318 37.190639,12.9354493 C37.190639,13.2754669 36.9113976,13.5514231 36.5673322,13.5514231 L34.6974118,13.5514231 C34.1235541,13.5514231 33.6585672,14.0109396 33.6585672,14.5780461 C33.6585672,15.1451526 34.1235541,15.6046691 34.6974118,15.6046691 L40.9471014,15.6046691 C40.772991,14.9057441 40.564391,14.21996 40.3200547,13.5514231 L39.4760973,13.5514231 Z" id="Shape" fill-opacity="0.43897192" fill="#FFFFFF"></path>
                    <polygon id="Shape" fill="#E2574C" points="20.7781399 18.0636364 20.3576156 18.0636364 19.950804 19.2972265 21.1891069 19.2972265"></polygon>
                    <path d="M20.7768933,18.3424672 C20.609016,18.3424672 20.4432164,18.3268625 20.2794945,18.300581 L20.2204881,18.4792134 L20.916514,18.4792134 L20.8695583,18.3383607 L20.7768933,18.3424672 L20.7768933,18.3424672 Z" id="Shape" fill="#AA4239"></path>
                    <path d="M16.2059768,11.0920452 C16.2059768,8.27991953 18.4037566,5.98069474 21.1924312,5.77003171 C21.0548882,5.75935483 20.9169296,5.7490886 20.7768933,5.7490886 C17.7933314,5.7490886 15.3749011,8.14112011 15.3749011,11.0920452 C15.3749011,14.0425596 17.7933314,18.3424672 20.7768933,18.3424672 C20.9169296,18.3424672 21.0553037,18.3301477 21.1924312,18.3116685 C18.403341,17.9392097 16.2059768,13.9037601 16.2059768,11.0920452 L16.2059768,11.0920452 Z" id="Shape" fill="#CB4E44"></path>
                    <path d="M25.3478099,32.5533929 C25.3478099,29.2304197 27.9179116,26.5189031 31.16534,26.302491 C31.0273814,26.2934567 30.8902539,26.2815479 30.7498021,26.2815479 C27.3074864,26.2815479 24.5167341,29.089567 24.5167341,32.5533929 C24.5167341,34.9614397 25.8664011,38.133294 27.8451924,39.8440585 C28.0425729,39.7734269 28.2328893,39.6892438 28.427361,39.6132737 C26.5861127,37.8598017 25.3478099,34.8587774 25.3478099,32.5533929 L25.3478099,32.5533929 Z" id="Shape" fill="#D7B354"></path>
                    <path d="M22.4390448,30.7986889 C18.9967291,30.7986889 16.2059768,33.6067081 16.2059768,37.0705339 C16.2059768,38.196534 16.5026708,39.4904896 17.0191844,40.7236691 C18.238788,40.9437771 19.4932969,41.0649186 20.7768933,41.0649186 C23.4055859,41.0649186 25.9183433,40.577478 28.2333048,39.6970461 C28.515455,38.7915647 28.6721128,37.8873152 28.6721128,37.0705339 C28.6721128,33.6067081 25.8813605,30.7986889 22.4390448,30.7986889 L22.4390448,30.7986889 Z" id="Shape" fill="#E19178"></path>
                    <path d="M24.4099409,38.6622102 C24.9414138,38.5086274 25.1113688,37.468453 24.7889114,36.3391677 C24.466454,35.2094718 23.774168,34.4181508 23.2418639,34.5721443 C22.710391,34.7257271 22.540436,35.7659015 22.8633089,36.8951867 C23.1857663,38.0252933 23.878468,38.8162036 24.4099409,38.6622102 L24.4099409,38.6622102 Z M24.1161556,39.4223218 C23.747158,39.4223218 23.4483863,39.722917 23.4483863,40.0945545 C23.4483863,40.4653708 23.7475735,40.7667873 24.1161556,40.7667873 C24.4847377,40.7667873 24.7835094,40.4657814 24.7835094,40.0945545 C24.783925,39.722917 24.4847377,39.4223218 24.1161556,39.4223218 L24.1161556,39.4223218 Z" id="Shape" fill="#EDBDAE"></path>
                    <path d="M17.8502601,40.7236691 C17.3337466,39.4904896 17.0370525,38.1969447 17.0370525,37.0705339 C17.0370525,33.7475607 19.6067387,31.0360442 22.8545827,30.819632 C22.7166241,30.8105977 22.5794966,30.7986889 22.4390448,30.7986889 C18.9967291,30.7986889 16.2059768,33.6067081 16.2059768,37.0705339 C16.2059768,38.196534 16.5026708,39.4904896 17.0191844,40.7236691 C18.238788,40.9437771 18.9381383,40.9199594 17.8502601,40.7236691 L17.8502601,40.7236691 Z" id="Shape" fill="#CA826C"></path>
                    <path d="M12.466136,34.4945316 C10.6223945,34.4945316 8.97063146,35.3047424 7.82956448,36.5851466 C10.8713017,38.9845698 14.6069871,40.5602307 18.6942175,40.9622563 L18.699204,40.7663766 C18.699204,37.3025507 15.9084517,34.4945316 12.466136,34.4945316 L12.466136,34.4945316 Z" id="Shape" fill="#E2574C"></path>
                    <path d="M12.9003731,34.5167066 C12.7561814,34.5064404 12.6128209,34.4945316 12.466136,34.4945316 C10.6223945,34.4945316 8.97063146,35.3047424 7.82956448,36.5851466 C7.98580672,36.708752 8.1457888,36.8286616 8.30577087,36.9477498 C9.54448925,35.5597556 11.2515188,34.6817876 12.9003731,34.5167066 L12.9003731,34.5167066 Z" id="Shape" fill="#CA4E44"></path>
                    <path d="M10.3543726,27.5327959 C10.2276335,27.5249936 10.1017255,27.5134954 9.97290879,27.5134954 C6.97854293,27.5134954 4.4794982,29.6390156 3.87904598,32.4720844 C4.09097029,32.7644666 4.31328305,33.0490465 4.54016673,33.3299305 C5.2345305,29.6443541 7.63758598,27.7229265 10.3543726,27.5327959 L10.3543726,27.5327959 Z" id="Shape" fill="#37A18E"></path>
                </g>
            </g>
        </g>
    </g>
</svg>