<?xml version="1.0" encoding="UTF-8"?>
<svg width="130px" height="131px" viewBox="0 0 130 131" version="1.1" xmlns="http://www.w3.org/2000/svg" xmlns:xlink="http://www.w3.org/1999/xlink">
    <!-- Generator: Sketch 52.6 (67491) - http://www.bohemiancoding.com/sketch -->
    <desc>Created with Sketch.</desc>
    <defs>
        <circle id="path-1" cx="37.26" cy="37.26" r="37.26"></circle>
        <filter x="-66.4%" y="-50.3%" width="232.9%" height="232.9%" filterUnits="objectBoundingBox" id="filter-2">
            <feOffset dx="0" dy="12" in="SourceAlpha" result="shadowOffsetOuter1"></feOffset>
            <feGaussianBlur stdDeviation="14.5" in="shadowOffsetOuter1" result="shadowBlurOuter1"></feGaussianBlur>
            <feColorMatrix values="0 0 0 0 0   0 0 0 0 0   0 0 0 0 0  0 0 0 0.07 0" type="matrix" in="shadowBlurOuter1"></feColorMatrix>
        </filter>
        <linearGradient x1="50%" y1="0%" x2="50%" y2="100%" id="linearGradient-3">
            <stop stop-color="#039775" offset="0%"></stop>
            <stop stop-color="#50B848" offset="100%"></stop>
        </linearGradient>
    </defs>
    <g id="Page-1" stroke="none" stroke-width="1" fill="none" fill-rule="evenodd">
        <g id="icon/Old-Mutual" transform="translate(27.000000, 16.000000)">
            <g transform="translate(0.810000, 0.000000)">
                <g id="Oval-Copy-8" fill-rule="nonzero">
                    <use fill="black" fill-opacity="1" filter="url(#filter-2)" xlink:href="#path-1"></use>
                    <use fill="#FFFFFF" xlink:href="#path-1"></use>
                </g>
                <path d="M28.8004594,41.9127195 C28.504661,41.3889129 28.6796507,40.7434572 29.202423,40.4450591 C29.7244632,40.1545325 30.3702409,40.3312815 30.6718966,40.8429232 C30.9698915,41.3495558 30.7890445,42.0064609 30.2772547,42.2905472 C30.1037295,42.3892977 29.9236146,42.4443975 29.7398389,42.4443975 C29.3686266,42.4443975 29.0105934,42.2440344 28.8004594,41.9127195 M32.522833,38.7355318 C32.0659563,37.9133271 30.3138635,38.1823863 30.8827628,39.3545109 C30.1864651,38.9688118 29.3107848,38.9473443 28.5734854,39.3695382 C27.4649737,40.0085536 27.0791179,41.4275544 27.7146451,42.5266896 C28.3677445,43.6372741 29.7910911,44.0000746 30.9010672,43.3760864 C31.6383666,42.9538925 32.0630276,42.1853566 32.0659563,41.398931 C32.8142383,42.4758832 33.9293396,41.0976707 33.4417116,40.301227 C33.8927309,39.9570317 34.7859834,39.4038861 35.5972324,38.9151431 C35.6389663,38.3176314 35.6660568,37.7086704 35.6799681,37.0975627 C34.6973903,37.6478459 33.2345063,38.4328402 32.522833,38.7355318 M39.025272,25.2439333 C39.9902776,25.6718518 41.0255719,26.3631048 41.997167,27.3320039 C42.9087239,28.2336383 43.6203972,29.1817855 44.0545765,30.0748329 C43.7038651,31.4730817 41.3528537,33.4752825 38.7214197,35.2313227 C38.7148301,35.5740869 38.7148301,35.8968147 38.7148301,36.1544245 C38.7148301,36.4928952 38.7148301,36.8242101 38.7214197,37.1698366 C41.8441426,35.5740869 45.2289839,34.3103676 46.7687462,34.7468731 C47.3325203,35.5740869 47.8135588,36.6539013 48.1459659,37.8825571 C48.4944808,39.2035229 48.5955208,40.4321787 48.4856947,41.4661958 C49.1073106,42.2683642 49.7882326,42.8851966 50.4244919,43.2895009 C50.8044903,41.3209325 51.03,39.2393021 51.03,37.0889757 C51.03,34.486401 50.7371303,31.9904481 50.1879997,29.686987 C48.4388355,28.054027 46.4070522,26.5513031 44.1270617,25.2582449 C42.2453741,24.1805772 40.3065768,23.3411985 38.407317,22.68 C38.4314787,23.4320775 38.6438092,24.3158223 39.025272,25.2439333 M44.1665991,42.2905472 C43.6460233,42.0064609 43.4673728,41.3495558 43.7704929,40.8429232 C44.056773,40.3312815 44.7201228,40.1545325 45.2333769,40.4450591 C45.759078,40.7434572 45.9318711,41.3889129 45.6360727,41.9127195 C45.4317961,42.2440344 45.0752273,42.4443975 44.7032828,42.4443975 C44.5099888,42.4443975 44.3328027,42.3892977 44.1665991,42.2905472 M38.8041554,38.8936756 C39.6366374,39.3881433 40.5306221,39.9556005 41.0006779,40.301227 C40.5115856,41.0976707 41.6244903,42.4758832 42.3647185,41.398931 C42.3815585,42.1853566 42.7930404,42.9538925 43.5274111,43.3760864 C43.8122268,43.5292211 44.1219365,43.6372741 44.4184671,43.6630351 L44.9697942,43.6630351 C45.6697528,43.5778807 46.3294417,43.182879 46.7189584,42.5266896 C47.3705934,41.4275544 46.9825411,40.0185718 45.8659754,39.3695382 C45.1213543,38.9473443 44.2566566,38.9688118 43.5654841,39.3545109 C44.1270617,38.1823863 42.3742367,37.9133271 41.9202887,38.7355318 C41.1903111,38.4228221 39.7083905,37.6449836 38.7214197,37.0889757 C38.7367953,37.6900653 38.7675467,38.2933016 38.8041554,38.8936756 M30.3138635,25.2582449 C28.0389982,26.5513031 26.0020896,28.054027 24.2595151,29.686987 C23.8787845,31.2784432 23.620327,32.9758056 23.49,34.7239745 L23.49,39.3652447 C23.5873792,40.7176962 23.7682262,42.025066 24.0135045,43.2895009 C24.6702648,42.8851966 25.3336146,42.2683642 25.9501053,41.4661958 C25.839547,40.4321787 25.9435157,39.2035229 26.2964237,37.8825571 C26.6273664,36.6539013 27.0944935,35.5740869 27.6663216,34.7468731 C29.202423,34.3103676 32.5711565,35.5740869 35.6799681,37.1498002 C35.6799681,36.8070361 35.6931472,36.4928952 35.6931472,36.1544245 C35.6931472,35.8853654 35.6931472,35.5626375 35.6799681,35.2112864 C33.0602488,33.4638331 30.7392567,31.4730817 30.3929383,30.0748329 C30.8307784,29.1817855 31.5387909,28.2264825 32.447419,27.3320039 C33.4204785,26.3631048 34.4477189,25.6718518 35.4127245,25.2439333 C35.7934551,24.3158223 36.0109108,23.4320775 36.0365369,22.68 C34.1233658,23.3411985 32.194819,24.1805772 30.3138635,25.2582449 M36.1302552,28.5306052 C36.1302552,27.937387 36.6017754,27.4586621 37.1984974,27.4586621 C37.7996124,27.4586621 38.2755256,27.937387 38.2755256,28.5306052 C38.2755256,29.120961 37.7996124,29.5982547 37.1984974,29.5982547 C36.6069006,29.5982547 36.1302552,29.120961 36.1302552,28.5306052 M34.8818982,28.5306052 C34.8818982,29.3792864 35.3299888,30.1034562 36.0109108,30.5127696 C34.7047121,30.6136667 35.3351141,32.2523514 36.2935301,32.2366086 C36.3850518,33.0967391 36.436304,35.0710321 36.436304,36.1544245 C36.436304,40.1888805 35.8776551,45.1063656 34.485792,46.4416432 C33.4790525,46.5246508 32.2936625,46.383681 31.0526272,46.059522 C29.7244632,45.7053085 28.5873967,45.1707681 27.7512538,44.5646694 C26.7379247,44.6941899 25.8593157,44.9546621 25.1761972,45.3045821 C26.7152273,46.6155298 28.4182645,47.8513413 30.3050774,48.9218533 C32.5023321,50.1805634 34.7698756,51.1616275 36.9942208,51.84 L37.4064348,51.84 C39.6417626,51.1616275 41.8953948,50.1805634 44.1014356,48.9218533 C45.9882485,47.8513413 47.69275,46.6155298 49.2156724,45.3045821 C48.5486617,44.9632491 47.6700526,44.6941899 46.6603844,44.5646694 C45.8037406,45.1707681 44.6857106,45.7053085 43.346564,46.059522 C42.110654,46.383681 40.9172101,46.5246508 39.9236497,46.4416432 C38.525197,45.1063656 37.9628872,40.1888805 37.9628872,36.1544245 C37.9628872,35.0710321 38.0112107,33.0967391 38.1144473,32.2366086 C39.0560233,32.2523514 39.7018009,30.6136667 38.3890126,30.5127696 C39.0765242,30.1034562 39.5385261,29.3792864 39.5385261,28.5306052 C39.5385261,27.254721 38.4922492,26.2185571 37.1984974,26.2185571 C35.9120673,26.2185571 34.8818982,27.254721 34.8818982,28.5306052" id="Fill-14" fill="url(#linearGradient-3)"></path>
            </g>
        </g>
    </g>
</svg>