<?xml version="1.0" encoding="UTF-8"?>
<svg width="107.126386px" height="107.874564px" viewBox="0 0 107.126386 107.874564" version="1.1" xmlns="http://www.w3.org/2000/svg" xmlns:xlink="http://www.w3.org/1999/xlink">
    <!-- Generator: Sketch 52.6 (67491) - http://www.bohemiancoding.com/sketch -->
    <desc>Created with Sketch.</desc>
    <defs>
        <filter x="-93.1%" y="-93.1%" width="286.1%" height="286.1%" filterUnits="objectBoundingBox" id="filter-1">
            <feOffset dx="0" dy="5" in="SourceAlpha" result="shadowOffsetOuter1"></feOffset>
            <feGaussianBlur stdDeviation="6" in="shadowOffsetOuter1" result="shadowBlurOuter1"></feGaussianBlur>
            <feColorMatrix values="0 0 0 0 0   0 0 0 0 0   0 0 0 0 0  0 0 0 0.115404212 0" type="matrix" in="shadowBlurOuter1" result="shadowMatrixOuter1"></feColorMatrix>
            <feMerge>
                <feMergeNode in="shadowMatrixOuter1"></feMergeNode>
                <feMergeNode in="SourceGraphic"></feMergeNode>
            </feMerge>
        </filter>
        <circle id="path-2" cx="17.9896744" cy="17.9896744" r="17.9896744"></circle>
    </defs>
    <g id="Page-1" stroke="none" stroke-width="1" fill="none" fill-rule="evenodd">
        <g id="icon/institution/luno">
            <g id="icon---luno" filter="url(#filter-1)" transform="translate(35.100000, 36.000000)">
                <mask id="mask-3" fill="white">
                    <use xlink:href="#path-2"></use>
                </mask>
                <use id="Oval" fill="#11326B" fill-rule="nonzero" xlink:href="#path-2"></use>
                <path d="M18,4.5 C10.5441559,4.5 4.5,10.5441559 4.5,18 C4.5,25.4558441 10.5441559,31.5 18,31.5 C25.4558441,31.5 31.5,25.4558441 31.5,18 C31.5,10.5441559 25.4558441,4.5 18,4.5 Z M18,27.7758621 C12.6009405,27.7758621 8.22413793,23.3990595 8.22413793,18 C8.22413793,12.6009405 12.6009405,8.22413793 18,8.22413793 C23.3990595,8.22413793 27.7758621,12.6009405 27.7758621,18 C27.7758621,23.3990595 23.3990595,27.7758621 18,27.7758621 Z" id="Shape" fill="#FFFFFF" fill-rule="nonzero" mask="url(#mask-3)"></path>
            </g>
        </g>
    </g>
</svg>